G04 #@! TF.GenerationSoftware,KiCad,Pcbnew,8.0.4*
G04 #@! TF.CreationDate,2024-08-17T22:40:57+02:00*
G04 #@! TF.ProjectId,Probe,50726f62-652e-46b6-9963-61645f706362,v1*
G04 #@! TF.SameCoordinates,Original*
G04 #@! TF.FileFunction,Copper,L1,Top*
G04 #@! TF.FilePolarity,Positive*
%FSLAX46Y46*%
G04 Gerber Fmt 4.6, Leading zero omitted, Abs format (unit mm)*
G04 Created by KiCad (PCBNEW 8.0.4) date 2024-08-17 22:40:57*
%MOMM*%
%LPD*%
G01*
G04 APERTURE LIST*
G04 Aperture macros list*
%AMRoundRect*
0 Rectangle with rounded corners*
0 $1 Rounding radius*
0 $2 $3 $4 $5 $6 $7 $8 $9 X,Y pos of 4 corners*
0 Add a 4 corners polygon primitive as box body*
4,1,4,$2,$3,$4,$5,$6,$7,$8,$9,$2,$3,0*
0 Add four circle primitives for the rounded corners*
1,1,$1+$1,$2,$3*
1,1,$1+$1,$4,$5*
1,1,$1+$1,$6,$7*
1,1,$1+$1,$8,$9*
0 Add four rect primitives between the rounded corners*
20,1,$1+$1,$2,$3,$4,$5,0*
20,1,$1+$1,$4,$5,$6,$7,0*
20,1,$1+$1,$6,$7,$8,$9,0*
20,1,$1+$1,$8,$9,$2,$3,0*%
G04 Aperture macros list end*
G04 #@! TA.AperFunction,SMDPad,CuDef*
%ADD10RoundRect,0.225000X-0.225000X-0.250000X0.225000X-0.250000X0.225000X0.250000X-0.225000X0.250000X0*%
G04 #@! TD*
G04 #@! TA.AperFunction,SMDPad,CuDef*
%ADD11RoundRect,0.075000X-0.700000X-0.075000X0.700000X-0.075000X0.700000X0.075000X-0.700000X0.075000X0*%
G04 #@! TD*
G04 #@! TA.AperFunction,SMDPad,CuDef*
%ADD12RoundRect,0.075000X-0.075000X-0.700000X0.075000X-0.700000X0.075000X0.700000X-0.075000X0.700000X0*%
G04 #@! TD*
G04 #@! TA.AperFunction,SMDPad,CuDef*
%ADD13RoundRect,0.200000X0.200000X0.275000X-0.200000X0.275000X-0.200000X-0.275000X0.200000X-0.275000X0*%
G04 #@! TD*
G04 #@! TA.AperFunction,SMDPad,CuDef*
%ADD14RoundRect,0.200000X-0.200000X-0.275000X0.200000X-0.275000X0.200000X0.275000X-0.200000X0.275000X0*%
G04 #@! TD*
G04 #@! TA.AperFunction,SMDPad,CuDef*
%ADD15RoundRect,0.200000X-0.275000X0.200000X-0.275000X-0.200000X0.275000X-0.200000X0.275000X0.200000X0*%
G04 #@! TD*
G04 #@! TA.AperFunction,SMDPad,CuDef*
%ADD16RoundRect,0.225000X-0.250000X0.225000X-0.250000X-0.225000X0.250000X-0.225000X0.250000X0.225000X0*%
G04 #@! TD*
G04 #@! TA.AperFunction,SMDPad,CuDef*
%ADD17RoundRect,0.062500X-0.187500X-0.062500X0.187500X-0.062500X0.187500X0.062500X-0.187500X0.062500X0*%
G04 #@! TD*
G04 #@! TA.AperFunction,SMDPad,CuDef*
%ADD18R,0.900000X1.600000*%
G04 #@! TD*
G04 #@! TA.AperFunction,SMDPad,CuDef*
%ADD19RoundRect,0.150000X-0.825000X-0.150000X0.825000X-0.150000X0.825000X0.150000X-0.825000X0.150000X0*%
G04 #@! TD*
G04 #@! TA.AperFunction,SMDPad,CuDef*
%ADD20RoundRect,0.225000X0.225000X0.250000X-0.225000X0.250000X-0.225000X-0.250000X0.225000X-0.250000X0*%
G04 #@! TD*
G04 #@! TA.AperFunction,SMDPad,CuDef*
%ADD21RoundRect,0.100000X0.637500X0.100000X-0.637500X0.100000X-0.637500X-0.100000X0.637500X-0.100000X0*%
G04 #@! TD*
G04 #@! TA.AperFunction,SMDPad,CuDef*
%ADD22R,0.400000X1.200000*%
G04 #@! TD*
G04 #@! TA.AperFunction,SMDPad,CuDef*
%ADD23R,0.400000X0.800000*%
G04 #@! TD*
G04 #@! TA.AperFunction,SMDPad,CuDef*
%ADD24RoundRect,0.150000X-0.587500X-0.150000X0.587500X-0.150000X0.587500X0.150000X-0.587500X0.150000X0*%
G04 #@! TD*
G04 #@! TA.AperFunction,SMDPad,CuDef*
%ADD25RoundRect,0.200000X0.275000X-0.200000X0.275000X0.200000X-0.275000X0.200000X-0.275000X-0.200000X0*%
G04 #@! TD*
G04 #@! TA.AperFunction,SMDPad,CuDef*
%ADD26RoundRect,0.218750X0.256250X-0.218750X0.256250X0.218750X-0.256250X0.218750X-0.256250X-0.218750X0*%
G04 #@! TD*
G04 #@! TA.AperFunction,BGAPad,CuDef*
%ADD27C,0.200000*%
G04 #@! TD*
G04 #@! TA.AperFunction,SMDPad,CuDef*
%ADD28RoundRect,0.243750X0.456250X-0.243750X0.456250X0.243750X-0.456250X0.243750X-0.456250X-0.243750X0*%
G04 #@! TD*
G04 #@! TA.AperFunction,SMDPad,CuDef*
%ADD29RoundRect,0.150000X-0.512500X-0.150000X0.512500X-0.150000X0.512500X0.150000X-0.512500X0.150000X0*%
G04 #@! TD*
G04 #@! TA.AperFunction,ComponentPad*
%ADD30R,2.000000X2.000000*%
G04 #@! TD*
G04 #@! TA.AperFunction,ComponentPad*
%ADD31R,1.700000X1.700000*%
G04 #@! TD*
G04 #@! TA.AperFunction,ComponentPad*
%ADD32O,1.700000X1.700000*%
G04 #@! TD*
G04 #@! TA.AperFunction,ViaPad*
%ADD33C,0.800000*%
G04 #@! TD*
G04 #@! TA.AperFunction,ViaPad*
%ADD34C,0.450000*%
G04 #@! TD*
G04 #@! TA.AperFunction,Conductor*
%ADD35C,0.300000*%
G04 #@! TD*
G04 #@! TA.AperFunction,Conductor*
%ADD36C,0.350000*%
G04 #@! TD*
G04 #@! TA.AperFunction,Conductor*
%ADD37C,0.150000*%
G04 #@! TD*
G04 #@! TA.AperFunction,Conductor*
%ADD38C,0.250000*%
G04 #@! TD*
G04 APERTURE END LIST*
D10*
X118475000Y-61500000D03*
X120025000Y-61500000D03*
D11*
X117575000Y-66750000D03*
X117575000Y-67250000D03*
X117575000Y-67750000D03*
X117575000Y-68250000D03*
X117575000Y-68750000D03*
X117575000Y-69250000D03*
X117575000Y-69750000D03*
X117575000Y-70250000D03*
X117575000Y-70750000D03*
X117575000Y-71250000D03*
X117575000Y-71750000D03*
X117575000Y-72250000D03*
X117575000Y-72750000D03*
X117575000Y-73250000D03*
X117575000Y-73750000D03*
X117575000Y-74250000D03*
D12*
X119500000Y-76175000D03*
X120000000Y-76175000D03*
X120500000Y-76175000D03*
X121000000Y-76175000D03*
X121500000Y-76175000D03*
X122000000Y-76175000D03*
X122500000Y-76175000D03*
X123000000Y-76175000D03*
X123500000Y-76175000D03*
X124000000Y-76175000D03*
X124500000Y-76175000D03*
X125000000Y-76175000D03*
X125500000Y-76175000D03*
X126000000Y-76175000D03*
X126500000Y-76175000D03*
X127000000Y-76175000D03*
D11*
X128925000Y-74250000D03*
X128925000Y-73750000D03*
X128925000Y-73250000D03*
X128925000Y-72750000D03*
X128925000Y-72250000D03*
X128925000Y-71750000D03*
X128925000Y-71250000D03*
X128925000Y-70750000D03*
X128925000Y-70250000D03*
X128925000Y-69750000D03*
X128925000Y-69250000D03*
X128925000Y-68750000D03*
X128925000Y-68250000D03*
X128925000Y-67750000D03*
X128925000Y-67250000D03*
X128925000Y-66750000D03*
D12*
X127000000Y-64825000D03*
X126500000Y-64825000D03*
X126000000Y-64825000D03*
X125500000Y-64825000D03*
X125000000Y-64825000D03*
X124500000Y-64825000D03*
X124000000Y-64825000D03*
X123500000Y-64825000D03*
X123000000Y-64825000D03*
X122500000Y-64825000D03*
X122000000Y-64825000D03*
X121500000Y-64825000D03*
X121000000Y-64825000D03*
X120500000Y-64825000D03*
X120000000Y-64825000D03*
X119500000Y-64825000D03*
D13*
X111575000Y-81250000D03*
X109925000Y-81250000D03*
D14*
X111925000Y-52500000D03*
X113575000Y-52500000D03*
D15*
X120000000Y-83175000D03*
X120000000Y-84825000D03*
D16*
X132250000Y-65225000D03*
X132250000Y-66775000D03*
D13*
X148325000Y-82250000D03*
X146675000Y-82250000D03*
D15*
X114250000Y-64675000D03*
X114250000Y-66325000D03*
D10*
X123975000Y-78000000D03*
X125525000Y-78000000D03*
D16*
X115750000Y-71725000D03*
X115750000Y-73275000D03*
D17*
X103175000Y-61465000D03*
X103175000Y-61965000D03*
X103175000Y-62465000D03*
X103175000Y-62965000D03*
X105075000Y-62965000D03*
X105075000Y-62465000D03*
X105075000Y-61965000D03*
X105075000Y-61465000D03*
D18*
X104125000Y-62215000D03*
D13*
X106075000Y-74250000D03*
X104425000Y-74250000D03*
D19*
X142275000Y-83845000D03*
X142275000Y-85115000D03*
X142275000Y-86385000D03*
X142275000Y-87655000D03*
X147225000Y-87655000D03*
X147225000Y-86385000D03*
X147225000Y-85115000D03*
X147225000Y-83845000D03*
D10*
X118475000Y-63000000D03*
X120025000Y-63000000D03*
D20*
X148275000Y-77750000D03*
X146725000Y-77750000D03*
D13*
X111575000Y-85750000D03*
X109925000Y-85750000D03*
X111575000Y-84250000D03*
X109925000Y-84250000D03*
D21*
X113862500Y-79200000D03*
X113862500Y-78550000D03*
X113862500Y-77900000D03*
X113862500Y-77250000D03*
X113862500Y-76600000D03*
X113862500Y-75950000D03*
X113862500Y-75300000D03*
X108137500Y-75300000D03*
X108137500Y-75950000D03*
X108137500Y-76600000D03*
X108137500Y-77250000D03*
X108137500Y-77900000D03*
X108137500Y-78550000D03*
X108137500Y-79200000D03*
D22*
X141645000Y-77050000D03*
D23*
X140715000Y-77250000D03*
X139785000Y-77250000D03*
X138855000Y-77250000D03*
X138855000Y-74750000D03*
X139785000Y-74750000D03*
X140715000Y-74750000D03*
X141645000Y-74750000D03*
D24*
X131125000Y-56550000D03*
X131125000Y-58450000D03*
X133000000Y-57500000D03*
D10*
X123975000Y-79500000D03*
X125525000Y-79500000D03*
D15*
X115750000Y-64675000D03*
X115750000Y-66325000D03*
D13*
X106075000Y-83250000D03*
X104425000Y-83250000D03*
D25*
X117250000Y-56825000D03*
X117250000Y-55175000D03*
D20*
X125525000Y-92125000D03*
X123975000Y-92125000D03*
D13*
X106075000Y-80250000D03*
X104425000Y-80250000D03*
X106075000Y-75750000D03*
X104425000Y-75750000D03*
D20*
X120525000Y-78000000D03*
X118975000Y-78000000D03*
D26*
X118000000Y-81750000D03*
X118000000Y-80175000D03*
D13*
X106075000Y-77250000D03*
X104425000Y-77250000D03*
X106075000Y-86250000D03*
X104425000Y-86250000D03*
D10*
X103225000Y-64250000D03*
X104775000Y-64250000D03*
D15*
X121500000Y-61425000D03*
X121500000Y-63075000D03*
D20*
X128525000Y-78000000D03*
X126975000Y-78000000D03*
D13*
X106075000Y-81750000D03*
X104425000Y-81750000D03*
D20*
X128525000Y-79500000D03*
X126975000Y-79500000D03*
D21*
X138500000Y-85650000D03*
X138500000Y-85000000D03*
X138500000Y-84350000D03*
X138500000Y-83700000D03*
X138500000Y-83050000D03*
X138500000Y-82400000D03*
X138500000Y-81750000D03*
X132775000Y-81750000D03*
X132775000Y-82400000D03*
X132775000Y-83050000D03*
X132775000Y-83700000D03*
X132775000Y-84350000D03*
X132775000Y-85000000D03*
X132775000Y-85650000D03*
D15*
X118000000Y-83175000D03*
X118000000Y-84825000D03*
D27*
X125500000Y-94500000D03*
X125500000Y-95000000D03*
X125000000Y-94500000D03*
X125000000Y-95000000D03*
X124500000Y-94500000D03*
X124500000Y-95000000D03*
X124000000Y-94500000D03*
X124000000Y-95000000D03*
D24*
X126337500Y-56550000D03*
X126337500Y-58450000D03*
X128212500Y-57500000D03*
D13*
X106075000Y-78750000D03*
X104425000Y-78750000D03*
X145325000Y-82250000D03*
X143675000Y-82250000D03*
D16*
X114250000Y-71725000D03*
X114250000Y-73275000D03*
D13*
X106075000Y-84750000D03*
X104425000Y-84750000D03*
X111575000Y-82750000D03*
X109925000Y-82750000D03*
D28*
X120000000Y-81750000D03*
X120000000Y-79875000D03*
D19*
X110275000Y-54095000D03*
X110275000Y-55365000D03*
X110275000Y-56635000D03*
X110275000Y-57905000D03*
X115225000Y-57905000D03*
X115225000Y-56635000D03*
X115225000Y-55365000D03*
X115225000Y-54095000D03*
D16*
X130750000Y-65225000D03*
X130750000Y-66775000D03*
D29*
X108112500Y-61550000D03*
X108112500Y-63450000D03*
X110387500Y-62500000D03*
D20*
X148275000Y-76250000D03*
X146725000Y-76250000D03*
D21*
X109862500Y-70700000D03*
X109862500Y-70050000D03*
X109862500Y-69400000D03*
X109862500Y-68750000D03*
X109862500Y-68100000D03*
X109862500Y-67450000D03*
X109862500Y-66800000D03*
X104137500Y-66800000D03*
X104137500Y-67450000D03*
X104137500Y-68100000D03*
X104137500Y-68750000D03*
X104137500Y-69400000D03*
X104137500Y-70050000D03*
X104137500Y-70700000D03*
D10*
X123975000Y-81000000D03*
X125525000Y-81000000D03*
D30*
X144750000Y-69000000D03*
D31*
X145224998Y-94125000D03*
D30*
X147750000Y-59250000D03*
D31*
X140125000Y-94125000D03*
D30*
X141750000Y-64135000D03*
X141750000Y-69000000D03*
D31*
X135125000Y-94125000D03*
X140500000Y-52750000D03*
D32*
X137960000Y-52750000D03*
X135420000Y-52750000D03*
X132880000Y-52750000D03*
D30*
X147750000Y-64135000D03*
X147750000Y-69000000D03*
X138750000Y-69000000D03*
D31*
X128550000Y-52725000D03*
D32*
X126010000Y-52725000D03*
X123470000Y-52725000D03*
X120930000Y-52725000D03*
D30*
X135750000Y-69000000D03*
X144750000Y-64135000D03*
X138750000Y-64135000D03*
X135750000Y-64135000D03*
D33*
X140750000Y-76000000D03*
X108250000Y-66750000D03*
X134250000Y-83000000D03*
X121500000Y-60500000D03*
X126500000Y-55500000D03*
X138000000Y-60500000D03*
X113000000Y-57750000D03*
X121250000Y-84750000D03*
X127000000Y-80750000D03*
X133500000Y-66750000D03*
X142750000Y-82250000D03*
X143750000Y-87750000D03*
X113250000Y-71750000D03*
X148500000Y-75000000D03*
X111500000Y-80000000D03*
X126750000Y-91000000D03*
X140000000Y-84250000D03*
X117250000Y-78250000D03*
X104500000Y-60500000D03*
X106000000Y-60750000D03*
D34*
X124500000Y-69500000D03*
X119500000Y-73250000D03*
D33*
X144500000Y-76250000D03*
X113000000Y-54250000D03*
X103500000Y-72250000D03*
X123250000Y-91000000D03*
X129500000Y-65750000D03*
X145750000Y-85000000D03*
X118500000Y-64500000D03*
X108250000Y-80250000D03*
X121750000Y-78250000D03*
X128250000Y-76500000D03*
X134500000Y-85500000D03*
X131250000Y-59500000D03*
X114250000Y-67500000D03*
X126500000Y-59500000D03*
X110500000Y-61500000D03*
X140500000Y-60500000D03*
D34*
X118750000Y-73750000D03*
X131500000Y-74750000D03*
D33*
X109500000Y-64000000D03*
D34*
X111250000Y-73750000D03*
X133250000Y-73000000D03*
X129750000Y-60000000D03*
X127000000Y-63500000D03*
X123000000Y-74500000D03*
X110875000Y-78750000D03*
X120000000Y-70250000D03*
X105500000Y-70500000D03*
X112750000Y-76675000D03*
X123853554Y-74353554D03*
X110875000Y-77750000D03*
X125750000Y-71500000D03*
X130250000Y-72500000D03*
X126750000Y-70500000D03*
X142500000Y-74750000D03*
X125500000Y-87000000D03*
X120099759Y-66024645D03*
X125500000Y-95750000D03*
X101750000Y-62750000D03*
X134000000Y-77750000D03*
X119500000Y-71250000D03*
X111250000Y-67500000D03*
X128500000Y-62500000D03*
X110250000Y-56000000D03*
X122000000Y-66750000D03*
X129250000Y-60750000D03*
X128500000Y-63500000D03*
X122500000Y-66000000D03*
X112000000Y-57250000D03*
X118750000Y-70750000D03*
X111281587Y-68468413D03*
D33*
X102000000Y-68000000D03*
X108250000Y-81250000D03*
D34*
X123000000Y-73000000D03*
X112000000Y-79250000D03*
X118750000Y-71750000D03*
X106000000Y-69750000D03*
X130500000Y-61100000D03*
X130500000Y-70750000D03*
X127250000Y-69750000D03*
D33*
X149162500Y-81412500D03*
X117750000Y-77250000D03*
X107000000Y-73500000D03*
X102750000Y-68750000D03*
D34*
X112250000Y-76000000D03*
X124853554Y-71853554D03*
X122750000Y-67750000D03*
X102250000Y-62000000D03*
X133750000Y-76750000D03*
X124000000Y-87000000D03*
X142500000Y-77000000D03*
X124000000Y-95750000D03*
X132750000Y-78250000D03*
X119750000Y-66750000D03*
X115500000Y-78775478D03*
X121275967Y-77334419D03*
D33*
X127000000Y-87700000D03*
X115500000Y-87700000D03*
X109500000Y-77350000D03*
X129908578Y-86775000D03*
D34*
X123250000Y-86250000D03*
D33*
X114500000Y-88475000D03*
D34*
X114500000Y-79837500D03*
X121500000Y-74975000D03*
D33*
X109500000Y-75500000D03*
X129133578Y-85975000D03*
D34*
X122500000Y-85750000D03*
D33*
X106500000Y-61750000D03*
X133000000Y-55250000D03*
X128550000Y-56000000D03*
X126000000Y-74500000D03*
X121500000Y-80000000D03*
X125007191Y-74275000D03*
X118000000Y-79250000D03*
D35*
X125525000Y-79575000D02*
X125525000Y-81075000D01*
X126000000Y-76250000D02*
X126000000Y-77600000D01*
X126000000Y-77600000D02*
X125525000Y-78075000D01*
X125525000Y-78075000D02*
X125525000Y-79575000D01*
D36*
X132880000Y-52750000D02*
X131125000Y-54505000D01*
D35*
X119053120Y-78000000D02*
X118975000Y-78000000D01*
D36*
X140000000Y-82487978D02*
X140000000Y-84250000D01*
X118975000Y-78000000D02*
X118725000Y-78250000D01*
X132250000Y-66775000D02*
X133475000Y-66775000D01*
X126337500Y-55662500D02*
X126500000Y-55500000D01*
X126250000Y-82250000D02*
X127000000Y-81500000D01*
X124750000Y-82250000D02*
X126250000Y-82250000D01*
D35*
X104125000Y-62350096D02*
X104125000Y-62215000D01*
D36*
X120000000Y-84825000D02*
X121175000Y-84825000D01*
D35*
X120000000Y-63025000D02*
X120025000Y-63000000D01*
D36*
X123975000Y-79575000D02*
X123975000Y-81075000D01*
X120025000Y-61500000D02*
X120025000Y-63000000D01*
D35*
X116275000Y-72250000D02*
X115750000Y-71725000D01*
D36*
X132775000Y-81750000D02*
X133537022Y-81750000D01*
X127000000Y-81500000D02*
X127000000Y-80750000D01*
X123975000Y-78075000D02*
X123975000Y-79575000D01*
D35*
X103510096Y-61465000D02*
X104125000Y-62079904D01*
D36*
X111575000Y-81250000D02*
X111575000Y-80075000D01*
D35*
X120000000Y-76175000D02*
X120000000Y-77053120D01*
D36*
X138500000Y-81750000D02*
X139262022Y-81750000D01*
D35*
X105075000Y-62965000D02*
X105075000Y-63950000D01*
D36*
X118725000Y-78250000D02*
X117250000Y-78250000D01*
D35*
X120000000Y-64825000D02*
X120000000Y-63025000D01*
D36*
X148275000Y-75225000D02*
X148500000Y-75000000D01*
X140715000Y-76035000D02*
X140750000Y-76000000D01*
X126337500Y-56550000D02*
X126337500Y-55662500D01*
X120100000Y-61425000D02*
X120025000Y-61500000D01*
D35*
X128925000Y-67250000D02*
X130275000Y-67250000D01*
D36*
X143675000Y-82250000D02*
X142750000Y-82250000D01*
X140000000Y-84250000D02*
X139900000Y-84350000D01*
D35*
X109862500Y-66800000D02*
X108300000Y-66800000D01*
D36*
X139262022Y-81750000D02*
X140000000Y-82487978D01*
D35*
X108300000Y-66800000D02*
X108250000Y-66750000D01*
D36*
X142275000Y-87655000D02*
X143655000Y-87655000D01*
D35*
X117575000Y-72250000D02*
X116275000Y-72250000D01*
D36*
X131125000Y-54505000D02*
X131125000Y-56550000D01*
X139262022Y-85650000D02*
X140000000Y-84912022D01*
X125525000Y-92125000D02*
X125625000Y-92125000D01*
X140715000Y-77250000D02*
X140715000Y-76035000D01*
D35*
X125500000Y-92150000D02*
X125525000Y-92125000D01*
D36*
X139900000Y-84350000D02*
X138500000Y-84350000D01*
D35*
X105075000Y-63950000D02*
X104775000Y-64250000D01*
X111575000Y-85750000D02*
X111575000Y-81250000D01*
X113250000Y-74687500D02*
X113250000Y-71750000D01*
X113275000Y-71725000D02*
X113250000Y-71750000D01*
X126500000Y-76250000D02*
X126500000Y-77600000D01*
X126500000Y-77600000D02*
X126975000Y-78075000D01*
X120000000Y-77053120D02*
X119053120Y-78000000D01*
D36*
X134250000Y-82462978D02*
X134250000Y-83000000D01*
X132775000Y-83700000D02*
X133550000Y-83700000D01*
X126975000Y-79500000D02*
X126975000Y-80725000D01*
D35*
X115750000Y-71725000D02*
X114250000Y-71725000D01*
X113862500Y-75300000D02*
X113250000Y-74687500D01*
X125000000Y-94500000D02*
X125500000Y-94500000D01*
X105075000Y-62965000D02*
X104739904Y-62965000D01*
X104125000Y-62079904D02*
X104125000Y-62215000D01*
D36*
X123975000Y-81000000D02*
X123975000Y-81475000D01*
D35*
X103175000Y-61465000D02*
X103510096Y-61465000D01*
D36*
X111575000Y-80075000D02*
X111500000Y-80000000D01*
X121500000Y-61425000D02*
X120100000Y-61425000D01*
X126975000Y-79575000D02*
X126975000Y-78075000D01*
X115225000Y-57905000D02*
X113155000Y-57905000D01*
X118000000Y-84825000D02*
X120000000Y-84825000D01*
D35*
X125000000Y-95000000D02*
X125000000Y-94500000D01*
D36*
X126975000Y-80725000D02*
X127000000Y-80750000D01*
X132250000Y-66775000D02*
X130750000Y-66775000D01*
X140000000Y-84912022D02*
X140000000Y-84250000D01*
D35*
X104125000Y-60875000D02*
X104500000Y-60500000D01*
X125500000Y-94500000D02*
X125500000Y-92150000D01*
X130275000Y-67250000D02*
X130750000Y-66775000D01*
D36*
X133475000Y-66775000D02*
X133500000Y-66750000D01*
X121500000Y-61425000D02*
X121500000Y-60500000D01*
D35*
X104739904Y-62965000D02*
X104125000Y-62350096D01*
D36*
X148275000Y-76250000D02*
X148275000Y-75225000D01*
X123975000Y-81475000D02*
X124750000Y-82250000D01*
X125625000Y-92125000D02*
X126750000Y-91000000D01*
X138500000Y-85650000D02*
X139262022Y-85650000D01*
X133537022Y-81750000D02*
X134250000Y-82462978D01*
X113155000Y-57905000D02*
X113000000Y-57750000D01*
X148275000Y-77750000D02*
X148275000Y-76250000D01*
X121175000Y-84825000D02*
X121250000Y-84750000D01*
D35*
X114250000Y-71725000D02*
X113275000Y-71725000D01*
X104125000Y-62215000D02*
X104125000Y-60875000D01*
D36*
X133550000Y-83700000D02*
X134250000Y-83000000D01*
X143655000Y-87655000D02*
X143750000Y-87750000D01*
D37*
X124500000Y-69500000D02*
X120750000Y-73250000D01*
D35*
X105075000Y-61465000D02*
X105285000Y-61465000D01*
X107312500Y-60750000D02*
X106000000Y-60750000D01*
D37*
X120750000Y-73250000D02*
X119500000Y-73250000D01*
X117575000Y-73250000D02*
X119500000Y-73250000D01*
D35*
X108112500Y-61550000D02*
X107312500Y-60750000D01*
X105285000Y-61465000D02*
X106000000Y-60750000D01*
X110200000Y-62800000D02*
X105745096Y-62800000D01*
D36*
X115225000Y-54095000D02*
X115170000Y-54095000D01*
X132775000Y-85650000D02*
X134350000Y-85650000D01*
D35*
X118825000Y-64825000D02*
X118500000Y-64500000D01*
D36*
X126337500Y-59337500D02*
X126500000Y-59500000D01*
D35*
X116175000Y-66750000D02*
X115750000Y-66325000D01*
D36*
X139785000Y-77670000D02*
X140365000Y-78250000D01*
D35*
X117575000Y-66750000D02*
X116175000Y-66750000D01*
D36*
X114250000Y-66325000D02*
X114250000Y-67500000D01*
X128525000Y-79500000D02*
X128525000Y-77675000D01*
D35*
X124000000Y-92150000D02*
X123975000Y-92125000D01*
D36*
X118475000Y-63000000D02*
X118475000Y-64475000D01*
X126337500Y-58450000D02*
X126337500Y-59337500D01*
X145865000Y-85115000D02*
X145750000Y-85000000D01*
D35*
X128925000Y-66325000D02*
X129500000Y-65750000D01*
X105745096Y-62800000D02*
X105410096Y-62465000D01*
D36*
X120525000Y-78000000D02*
X121500000Y-78000000D01*
X113155000Y-54095000D02*
X113000000Y-54250000D01*
D35*
X110387500Y-62500000D02*
X110387500Y-62612500D01*
D36*
X115225000Y-54095000D02*
X113155000Y-54095000D01*
D35*
X108137500Y-80137500D02*
X108250000Y-80250000D01*
X110387500Y-62500000D02*
X110387500Y-61612500D01*
X120500000Y-77975000D02*
X120525000Y-78000000D01*
D36*
X139785000Y-77250000D02*
X139785000Y-77670000D01*
X123975000Y-91725000D02*
X123250000Y-91000000D01*
X144500000Y-76250000D02*
X146725000Y-76250000D01*
X115750000Y-66325000D02*
X114250000Y-66325000D01*
D35*
X110387500Y-61612500D02*
X110500000Y-61500000D01*
X124000000Y-94500000D02*
X124000000Y-92150000D01*
D36*
X118475000Y-61500000D02*
X118475000Y-63000000D01*
D35*
X127000000Y-76175000D02*
X127925000Y-76175000D01*
D36*
X142500000Y-78250000D02*
X144500000Y-76250000D01*
X130025000Y-65225000D02*
X129500000Y-65750000D01*
X140365000Y-78250000D02*
X142500000Y-78250000D01*
X121500000Y-78000000D02*
X121750000Y-78250000D01*
X147225000Y-85115000D02*
X145865000Y-85115000D01*
D35*
X128525000Y-78000000D02*
X128525000Y-76775000D01*
X124500000Y-94500000D02*
X124000000Y-94500000D01*
D36*
X115170000Y-54095000D02*
X113575000Y-52500000D01*
D35*
X120500000Y-76175000D02*
X120500000Y-77975000D01*
D36*
X118475000Y-64475000D02*
X118500000Y-64500000D01*
D35*
X119500000Y-64825000D02*
X118825000Y-64825000D01*
D36*
X131125000Y-58450000D02*
X131125000Y-59375000D01*
D35*
X104137500Y-71612500D02*
X103500000Y-72250000D01*
X110387500Y-62612500D02*
X110200000Y-62800000D01*
X105410096Y-62465000D02*
X105075000Y-62465000D01*
D36*
X130750000Y-65225000D02*
X130025000Y-65225000D01*
X134350000Y-85650000D02*
X134500000Y-85500000D01*
X132250000Y-65225000D02*
X130750000Y-65225000D01*
X123975000Y-92125000D02*
X123975000Y-91725000D01*
D35*
X108137500Y-79200000D02*
X108137500Y-80137500D01*
X127925000Y-76175000D02*
X128250000Y-76500000D01*
D36*
X131125000Y-59375000D02*
X131250000Y-59500000D01*
D35*
X104137500Y-70700000D02*
X104137500Y-71612500D01*
X128925000Y-66750000D02*
X128925000Y-66325000D01*
X128525000Y-76775000D02*
X128250000Y-76500000D01*
D37*
X126500000Y-73500000D02*
X128250000Y-75250000D01*
X133250000Y-73000000D02*
X137250000Y-73000000D01*
D35*
X111250000Y-69250000D02*
X110750000Y-68750000D01*
X106125000Y-67375000D02*
X107500000Y-68750000D01*
D37*
X131000000Y-75250000D02*
X131500000Y-74750000D01*
D35*
X111250000Y-69750000D02*
X111250000Y-69250000D01*
D37*
X122292893Y-73750000D02*
X122542893Y-73500000D01*
X138750000Y-71500000D02*
X138750000Y-69000000D01*
X118750000Y-73750000D02*
X122292893Y-73750000D01*
X128250000Y-75250000D02*
X131000000Y-75250000D01*
D35*
X108950000Y-63450000D02*
X109500000Y-64000000D01*
X109862500Y-70050000D02*
X110950000Y-70050000D01*
D37*
X118750000Y-73750000D02*
X117575000Y-73750000D01*
D35*
X109500000Y-64000000D02*
X106125000Y-67375000D01*
X106050000Y-67450000D02*
X104137500Y-67450000D01*
X108112500Y-63450000D02*
X108950000Y-63450000D01*
X107500000Y-68750000D02*
X108000000Y-68750000D01*
D37*
X111250000Y-69750000D02*
X111250000Y-73750000D01*
X122542893Y-73500000D02*
X126500000Y-73500000D01*
D35*
X110950000Y-70050000D02*
X111250000Y-69750000D01*
D37*
X137250000Y-73000000D02*
X138750000Y-71500000D01*
D35*
X110750000Y-68750000D02*
X109862500Y-68750000D01*
X108000000Y-68750000D02*
X109862500Y-68750000D01*
X106125000Y-67375000D02*
X106050000Y-67450000D01*
D37*
X129750000Y-60000000D02*
X129750000Y-64500000D01*
X129750000Y-64500000D02*
X127750000Y-66500000D01*
X128150001Y-68250000D02*
X128925000Y-68250000D01*
X127750000Y-66500000D02*
X127750000Y-67849999D01*
X127750000Y-67849999D02*
X128150001Y-68250000D01*
X127000000Y-63500000D02*
X127000000Y-64825000D01*
X123000000Y-76175000D02*
X123000000Y-74500000D01*
X123000000Y-76175000D02*
X123075000Y-76100000D01*
X108137500Y-78550000D02*
X110675000Y-78550000D01*
X110675000Y-78550000D02*
X110875000Y-78750000D01*
X104137500Y-70050000D02*
X105050000Y-70050000D01*
X120000000Y-70250000D02*
X117575000Y-70250000D01*
X105050000Y-70050000D02*
X105500000Y-70500000D01*
X112825000Y-76600000D02*
X112750000Y-76675000D01*
X123500000Y-76175000D02*
X123500000Y-75054418D01*
X113862500Y-76600000D02*
X112825000Y-76600000D01*
X123500000Y-74707108D02*
X123853554Y-74353554D01*
X123500000Y-75054418D02*
X123500000Y-74707108D01*
X110600000Y-78025000D02*
X108262500Y-78025000D01*
X126000000Y-71750000D02*
X128925000Y-71750000D01*
X108262500Y-78025000D02*
X108137500Y-77900000D01*
X125750000Y-71500000D02*
X126000000Y-71750000D01*
X110875000Y-77750000D02*
X110600000Y-78025000D01*
X134925000Y-77175000D02*
X130250000Y-72500000D01*
X125500000Y-65750000D02*
X125500000Y-64825000D01*
X133854595Y-84350000D02*
X134925000Y-83279595D01*
X132775000Y-84350000D02*
X133854595Y-84350000D01*
X125500000Y-69250000D02*
X126750000Y-70500000D01*
X125500000Y-65750000D02*
X125500000Y-69250000D01*
X134925000Y-83279595D02*
X134925000Y-77175000D01*
X116750000Y-63750000D02*
X119024645Y-66024645D01*
X120500000Y-65599999D02*
X120099999Y-66000000D01*
X120500000Y-64825000D02*
X120500000Y-65599999D01*
X115175000Y-63750000D02*
X116750000Y-63750000D01*
X102492107Y-62465000D02*
X102207107Y-62750000D01*
X119024645Y-66024645D02*
X120099759Y-66024645D01*
X125500000Y-95000000D02*
X125500000Y-95750000D01*
X125500000Y-87000000D02*
X125500000Y-86500000D01*
X102207107Y-62750000D02*
X101750000Y-62750000D01*
X103175000Y-62465000D02*
X102492107Y-62465000D01*
X134000000Y-78000000D02*
X134000000Y-77750000D01*
X115175000Y-63750000D02*
X114250000Y-64675000D01*
X142500000Y-74750000D02*
X141645000Y-74750000D01*
X125500000Y-86500000D02*
X134000000Y-78000000D01*
X119500000Y-71250000D02*
X117575000Y-71250000D01*
X111200000Y-67450000D02*
X111250000Y-67500000D01*
X109862500Y-67450000D02*
X111200000Y-67450000D01*
D36*
X110250000Y-56000000D02*
X110275000Y-55975000D01*
D37*
X123550001Y-62500000D02*
X122000000Y-64050001D01*
X128500000Y-62500000D02*
X123550001Y-62500000D01*
X122000000Y-64050001D02*
X122000000Y-64825000D01*
X122000000Y-66750000D02*
X122000000Y-64825000D01*
D36*
X110275000Y-56635000D02*
X110275000Y-56025000D01*
X110275000Y-56025000D02*
X110250000Y-56000000D01*
X110275000Y-55975000D02*
X110275000Y-55365000D01*
D37*
X128925000Y-68750000D02*
X128150001Y-68750000D01*
X128250000Y-65500000D02*
X129250000Y-64500000D01*
X127400000Y-67999999D02*
X127400000Y-66750000D01*
X128250000Y-65505026D02*
X128250000Y-65500000D01*
X127400000Y-66355026D02*
X128250000Y-65505026D01*
X128150001Y-68750000D02*
X127400000Y-67999999D01*
X127400000Y-66750000D02*
X127400000Y-66355026D01*
X129250000Y-64500000D02*
X129250000Y-60750000D01*
X123550001Y-63000000D02*
X122500000Y-64050001D01*
D36*
X112000000Y-54845001D02*
X112000000Y-57154999D01*
X112000000Y-57154999D02*
X112000000Y-57250000D01*
D37*
X122500000Y-66000000D02*
X122500000Y-64825000D01*
X122500000Y-64050001D02*
X122500000Y-64825000D01*
D36*
X111904999Y-57250000D02*
X111249999Y-57905000D01*
X110275000Y-54095000D02*
X111249999Y-54095000D01*
X112000000Y-57154999D02*
X112000000Y-57154999D01*
X110275000Y-54095000D02*
X110330000Y-54095000D01*
X110330000Y-54095000D02*
X111925000Y-52500000D01*
X112000000Y-57250000D02*
X111904999Y-57250000D01*
X111249999Y-54095000D02*
X112000000Y-54845001D01*
D37*
X128000000Y-63000000D02*
X123550001Y-63000000D01*
X128500000Y-63500000D02*
X128000000Y-63000000D01*
D36*
X111249999Y-57905000D02*
X110275000Y-57905000D01*
D35*
X121500000Y-63075000D02*
X121500000Y-64825000D01*
D37*
X110913174Y-68100000D02*
X111281587Y-68468413D01*
X118750000Y-70750000D02*
X117575000Y-70750000D01*
X109862500Y-68100000D02*
X110913174Y-68100000D01*
X137762501Y-83050000D02*
X135750000Y-81037499D01*
X135750000Y-76755025D02*
X129744975Y-70750000D01*
X129744975Y-70750000D02*
X128925000Y-70750000D01*
X138500000Y-83050000D02*
X137762501Y-83050000D01*
X135750000Y-81037499D02*
X135750000Y-76755025D01*
X133500000Y-70250000D02*
X128925000Y-70250000D01*
X134500000Y-67250000D02*
X134000000Y-67750000D01*
X128150001Y-70250000D02*
X128925000Y-70250000D01*
X134000000Y-69750000D02*
X133500000Y-70250000D01*
D35*
X109925000Y-81250000D02*
X109925000Y-85750000D01*
D37*
X146000000Y-67250000D02*
X134500000Y-67250000D01*
X123000000Y-73000000D02*
X125000000Y-71000000D01*
X111295405Y-79250000D02*
X112000000Y-79250000D01*
D35*
X104037500Y-68000000D02*
X102000000Y-68000000D01*
D37*
X109925000Y-81250000D02*
X109925000Y-80620405D01*
D35*
X104137500Y-68100000D02*
X104037500Y-68000000D01*
X108250000Y-81250000D02*
X109925000Y-81250000D01*
D37*
X125000000Y-71000000D02*
X127400001Y-71000000D01*
X109925000Y-80620405D02*
X111295405Y-79250000D01*
X147750000Y-69000000D02*
X146000000Y-67250000D01*
X127400001Y-71000000D02*
X128150001Y-70250000D01*
X134000000Y-67750000D02*
X134000000Y-69750000D01*
X105650000Y-69400000D02*
X106000000Y-69750000D01*
X118750000Y-71750000D02*
X117575000Y-71750000D01*
X104137500Y-69400000D02*
X105650000Y-69400000D01*
X132750000Y-61250000D02*
X134175000Y-62675000D01*
X133500000Y-67750000D02*
X128925000Y-67750000D01*
X130500000Y-61100000D02*
X130650000Y-61250000D01*
X134175000Y-67075000D02*
X133500000Y-67750000D01*
X134175000Y-62675000D02*
X134175000Y-67075000D01*
X130650000Y-61250000D02*
X132750000Y-61250000D01*
X137762501Y-82400000D02*
X138500000Y-82400000D01*
X136100000Y-80737499D02*
X137762501Y-82400000D01*
X130500000Y-70957107D02*
X136100000Y-76557107D01*
X126000000Y-68500000D02*
X127250000Y-69750000D01*
X130500000Y-70750000D02*
X130500000Y-70957107D01*
X126000000Y-64825000D02*
X126000000Y-68500000D01*
X136100000Y-76557107D02*
X136100000Y-80737499D01*
X144750000Y-70250000D02*
X144750000Y-69000000D01*
X149162500Y-81412500D02*
X149250000Y-81325000D01*
D36*
X148199999Y-86385000D02*
X148750000Y-85834999D01*
X148750000Y-85834999D02*
X148750000Y-82675000D01*
D37*
X149250000Y-81325000D02*
X149250000Y-74750000D01*
D36*
X117750000Y-77250000D02*
X118400000Y-77250000D01*
D37*
X149250000Y-74750000D02*
X144750000Y-70250000D01*
D36*
X148750000Y-82675000D02*
X148325000Y-82250000D01*
X148325000Y-82250000D02*
X149162500Y-81412500D01*
X147225000Y-86385000D02*
X148199999Y-86385000D01*
X118400000Y-77250000D02*
X119475000Y-76175000D01*
X106075000Y-86250000D02*
X106075000Y-88325000D01*
D37*
X140750000Y-85834999D02*
X140750000Y-81000000D01*
X141750000Y-70000000D02*
X141750000Y-69000000D01*
D35*
X113862500Y-77250000D02*
X114599999Y-77250000D01*
D36*
X107000000Y-89250000D02*
X138435001Y-89250000D01*
X141300001Y-86385000D02*
X142275000Y-86385000D01*
D35*
X108137500Y-75950000D02*
X108137500Y-76600000D01*
D37*
X137750000Y-74000000D02*
X141750000Y-70000000D01*
D35*
X106075000Y-75750000D02*
X106275000Y-75950000D01*
X106075000Y-74250000D02*
X106075000Y-86250000D01*
X113862500Y-78550000D02*
X113125001Y-78550000D01*
X113125001Y-78550000D02*
X112750000Y-78174999D01*
X112750000Y-77250000D02*
X111464168Y-77250000D01*
X114599999Y-77250000D02*
X117575000Y-74274999D01*
X113862500Y-77250000D02*
X112750000Y-77250000D01*
X112750000Y-78174999D02*
X112750000Y-77250000D01*
X106825000Y-73500000D02*
X106075000Y-74250000D01*
X111464168Y-77250000D02*
X110814168Y-76600000D01*
D37*
X137750000Y-78000000D02*
X137750000Y-74000000D01*
D36*
X138435001Y-89250000D02*
X141300001Y-86385000D01*
D37*
X140750000Y-81000000D02*
X137750000Y-78000000D01*
D35*
X104137500Y-68750000D02*
X102750000Y-68750000D01*
X110814168Y-76600000D02*
X108137500Y-76600000D01*
D37*
X141300001Y-86385000D02*
X140750000Y-85834999D01*
D36*
X106075000Y-88325000D02*
X107000000Y-89250000D01*
D35*
X107000000Y-73500000D02*
X106825000Y-73500000D01*
X117575000Y-74274999D02*
X117575000Y-74250000D01*
X106275000Y-75950000D02*
X108137500Y-75950000D01*
D36*
X114250000Y-73275000D02*
X115750000Y-73275000D01*
D35*
X116275000Y-72750000D02*
X115750000Y-73275000D01*
X117575000Y-72750000D02*
X116275000Y-72750000D01*
D37*
X124853554Y-71853554D02*
X125250000Y-72250000D01*
X112300000Y-75950000D02*
X112250000Y-76000000D01*
X113862500Y-75950000D02*
X112300000Y-75950000D01*
X125250000Y-72250000D02*
X128925000Y-72250000D01*
X129750000Y-71250000D02*
X128925000Y-71250000D01*
X135275000Y-83424570D02*
X135275000Y-76775000D01*
X132775000Y-85000000D02*
X133699570Y-85000000D01*
X133699570Y-85000000D02*
X135275000Y-83424570D01*
X135275000Y-76775000D02*
X129750000Y-71250000D01*
X122750000Y-67750000D02*
X120750000Y-69750000D01*
X120750000Y-69750000D02*
X117575000Y-69750000D01*
X119750000Y-66750000D02*
X120081511Y-66750000D01*
X121000000Y-65831511D02*
X121000000Y-64825000D01*
X124000000Y-87000000D02*
X132750000Y-78250000D01*
X141695000Y-77000000D02*
X141645000Y-77050000D01*
X142500000Y-77000000D02*
X141695000Y-77000000D01*
X133750000Y-77250000D02*
X133750000Y-76750000D01*
X102250000Y-62000000D02*
X103140000Y-62000000D01*
X103140000Y-62000000D02*
X103175000Y-61965000D01*
X116925000Y-64675000D02*
X119000000Y-66750000D01*
X115750000Y-64675000D02*
X116925000Y-64675000D01*
X132750000Y-78250000D02*
X133750000Y-77250000D01*
X119000000Y-66750000D02*
X119750000Y-66750000D01*
X124000000Y-95000000D02*
X124000000Y-95750000D01*
X120081511Y-66750000D02*
X121000000Y-65831511D01*
D35*
X103225000Y-63015000D02*
X103175000Y-62965000D01*
X103225000Y-64250000D02*
X103225000Y-63015000D01*
X121020000Y-55175000D02*
X123470000Y-52725000D01*
X117250000Y-55175000D02*
X121020000Y-55175000D01*
X117060000Y-55365000D02*
X117250000Y-55175000D01*
X115225000Y-55365000D02*
X117060000Y-55365000D01*
X115225000Y-56635000D02*
X117060000Y-56635000D01*
X117060000Y-56635000D02*
X117250000Y-56825000D01*
X117250000Y-56825000D02*
X121910000Y-56825000D01*
X121910000Y-56825000D02*
X126010000Y-52725000D01*
D36*
X138500000Y-83700000D02*
X137737978Y-83700000D01*
D37*
X121500000Y-76175000D02*
X121500000Y-77110386D01*
X121500000Y-77110386D02*
X121275967Y-77334419D01*
D36*
X115500000Y-78775478D02*
X115500000Y-87700000D01*
X133750000Y-87687978D02*
X133750000Y-87700000D01*
X115500000Y-87700000D02*
X127000000Y-87700000D01*
X113862500Y-77900000D02*
X114624522Y-77900000D01*
X114624522Y-77900000D02*
X115500000Y-78775478D01*
X137737978Y-83700000D02*
X133750000Y-87687978D01*
X127000000Y-87700000D02*
X133750000Y-87700000D01*
D37*
X122500000Y-76175000D02*
X122500000Y-77550431D01*
D36*
X129908578Y-85154400D02*
X129908578Y-86775000D01*
X132012978Y-83050000D02*
X129908578Y-85154400D01*
X132775000Y-83050000D02*
X132012978Y-83050000D01*
D37*
X123000000Y-86000000D02*
X123250000Y-86250000D01*
D36*
X109400000Y-77250000D02*
X109500000Y-77350000D01*
D37*
X123000000Y-78050431D02*
X123000000Y-86000000D01*
D36*
X108137500Y-77250000D02*
X109400000Y-77250000D01*
D37*
X122500000Y-77550431D02*
X123000000Y-78050431D01*
D36*
X138500000Y-85000000D02*
X137227817Y-85000000D01*
X113862500Y-79200000D02*
X114500000Y-79837500D01*
D37*
X121000000Y-76175000D02*
X121000000Y-75400001D01*
D36*
X114500000Y-88475000D02*
X133750000Y-88475000D01*
X137227817Y-85000000D02*
X133752817Y-88475000D01*
D37*
X121000000Y-75400001D02*
X121425001Y-74975000D01*
D36*
X133752817Y-88475000D02*
X133750000Y-88475000D01*
D37*
X121425001Y-74975000D02*
X121500000Y-74975000D01*
D36*
X114500000Y-79837500D02*
X114500000Y-88475000D01*
X113862500Y-79200000D02*
X114450000Y-79200000D01*
X129133578Y-85151582D02*
X129133578Y-85975000D01*
D37*
X122500000Y-78045405D02*
X122500000Y-85750000D01*
D36*
X132775000Y-82400000D02*
X131885160Y-82400000D01*
X108137500Y-75300000D02*
X109300000Y-75300000D01*
D37*
X122000000Y-76175000D02*
X122000000Y-77545405D01*
D36*
X131885160Y-82400000D02*
X129133578Y-85151582D01*
D37*
X122000000Y-77545405D02*
X122500000Y-78045405D01*
D36*
X109300000Y-75300000D02*
X109500000Y-75500000D01*
D35*
X106285000Y-61965000D02*
X106500000Y-61750000D01*
X105075000Y-61965000D02*
X106285000Y-61965000D01*
D36*
X140500000Y-52750000D02*
X140500000Y-54500000D01*
X140500000Y-54500000D02*
X140250000Y-54750000D01*
X140250000Y-54750000D02*
X133500000Y-54750000D01*
X133500000Y-54750000D02*
X133000000Y-55250000D01*
X133000000Y-55250000D02*
X133000000Y-57500000D01*
D35*
X109862500Y-70700000D02*
X107975000Y-70700000D01*
X107975000Y-70700000D02*
X104425000Y-74250000D01*
X104425000Y-74250000D02*
X104425000Y-77250000D01*
X104425000Y-78750000D02*
X104425000Y-81750000D01*
X109862500Y-69400000D02*
X107600000Y-69400000D01*
X103250000Y-73750000D02*
X103250000Y-78250000D01*
X107600000Y-69400000D02*
X103250000Y-73750000D01*
X103250000Y-78250000D02*
X103750000Y-78750000D01*
X103750000Y-78750000D02*
X104425000Y-78750000D01*
X101250000Y-67689339D02*
X101250000Y-80075000D01*
X102139339Y-66800000D02*
X101250000Y-67689339D01*
X101250000Y-80075000D02*
X104425000Y-83250000D01*
X104425000Y-83250000D02*
X104425000Y-86250000D01*
X104137500Y-66800000D02*
X102139339Y-66800000D01*
D36*
X145325000Y-82250000D02*
X146675000Y-82250000D01*
X142275000Y-85115000D02*
X143249999Y-85115000D01*
X143249999Y-85115000D02*
X145325000Y-83039999D01*
X145325000Y-83039999D02*
X145325000Y-82250000D01*
X128550000Y-57162500D02*
X128550000Y-56000000D01*
X128212500Y-57500000D02*
X128550000Y-57162500D01*
X128550000Y-56000000D02*
X128550000Y-52725000D01*
X144000000Y-77750000D02*
X146725000Y-77750000D01*
X139855000Y-79000000D02*
X142750000Y-79000000D01*
X138855000Y-77250000D02*
X138855000Y-78000000D01*
X142750000Y-79000000D02*
X144000000Y-77750000D01*
X138855000Y-78000000D02*
X139855000Y-79000000D01*
X120000000Y-81750000D02*
X120000000Y-83175000D01*
D38*
X124500000Y-75332236D02*
X124832236Y-75000000D01*
X124500000Y-76175000D02*
X124500000Y-75332236D01*
X120000000Y-79875000D02*
X121375000Y-79875000D01*
X121375000Y-79875000D02*
X121500000Y-80000000D01*
X125500000Y-75000000D02*
X126000000Y-74500000D01*
X126000000Y-74750000D02*
X126000000Y-74500000D01*
X124832236Y-75000000D02*
X125500000Y-75000000D01*
X124920840Y-74275000D02*
X125007191Y-74275000D01*
X118000000Y-80175000D02*
X118000000Y-79250000D01*
X124000000Y-76175000D02*
X124000000Y-75195840D01*
X124000000Y-75195840D02*
X124920840Y-74275000D01*
D36*
X118000000Y-81750000D02*
X118000000Y-83175000D01*
M02*
