G04 #@! TF.GenerationSoftware,KiCad,Pcbnew,8.0.4*
G04 #@! TF.CreationDate,2024-08-22T20:56:21+02:00*
G04 #@! TF.ProjectId,Probe,50726f62-652e-46b6-9963-61645f706362,v1*
G04 #@! TF.SameCoordinates,Original*
G04 #@! TF.FileFunction,Legend,Top*
G04 #@! TF.FilePolarity,Positive*
%FSLAX46Y46*%
G04 Gerber Fmt 4.6, Leading zero omitted, Abs format (unit mm)*
G04 Created by KiCad (PCBNEW 8.0.4) date 2024-08-22 20:56:21*
%MOMM*%
%LPD*%
G01*
G04 APERTURE LIST*
G04 Aperture macros list*
%AMRoundRect*
0 Rectangle with rounded corners*
0 $1 Rounding radius*
0 $2 $3 $4 $5 $6 $7 $8 $9 X,Y pos of 4 corners*
0 Add a 4 corners polygon primitive as box body*
4,1,4,$2,$3,$4,$5,$6,$7,$8,$9,$2,$3,0*
0 Add four circle primitives for the rounded corners*
1,1,$1+$1,$2,$3*
1,1,$1+$1,$4,$5*
1,1,$1+$1,$6,$7*
1,1,$1+$1,$8,$9*
0 Add four rect primitives between the rounded corners*
20,1,$1+$1,$2,$3,$4,$5,0*
20,1,$1+$1,$4,$5,$6,$7,0*
20,1,$1+$1,$6,$7,$8,$9,0*
20,1,$1+$1,$8,$9,$2,$3,0*%
G04 Aperture macros list end*
%ADD10C,0.150000*%
%ADD11C,0.120000*%
%ADD12C,0.100000*%
%ADD13C,0.050000*%
%ADD14RoundRect,0.225000X-0.225000X-0.250000X0.225000X-0.250000X0.225000X0.250000X-0.225000X0.250000X0*%
%ADD15RoundRect,0.075000X-0.700000X-0.075000X0.700000X-0.075000X0.700000X0.075000X-0.700000X0.075000X0*%
%ADD16RoundRect,0.075000X-0.075000X-0.700000X0.075000X-0.700000X0.075000X0.700000X-0.075000X0.700000X0*%
%ADD17RoundRect,0.200000X0.200000X0.275000X-0.200000X0.275000X-0.200000X-0.275000X0.200000X-0.275000X0*%
%ADD18RoundRect,0.200000X-0.200000X-0.275000X0.200000X-0.275000X0.200000X0.275000X-0.200000X0.275000X0*%
%ADD19RoundRect,0.200000X-0.275000X0.200000X-0.275000X-0.200000X0.275000X-0.200000X0.275000X0.200000X0*%
%ADD20RoundRect,0.140000X0.170000X-0.140000X0.170000X0.140000X-0.170000X0.140000X-0.170000X-0.140000X0*%
%ADD21RoundRect,0.225000X-0.250000X0.225000X-0.250000X-0.225000X0.250000X-0.225000X0.250000X0.225000X0*%
%ADD22RoundRect,0.250000X-0.625000X0.312500X-0.625000X-0.312500X0.625000X-0.312500X0.625000X0.312500X0*%
%ADD23RoundRect,0.062500X-0.187500X-0.062500X0.187500X-0.062500X0.187500X0.062500X-0.187500X0.062500X0*%
%ADD24R,0.900000X1.600000*%
%ADD25RoundRect,0.150000X-0.825000X-0.150000X0.825000X-0.150000X0.825000X0.150000X-0.825000X0.150000X0*%
%ADD26RoundRect,0.100000X0.100000X-0.637500X0.100000X0.637500X-0.100000X0.637500X-0.100000X-0.637500X0*%
%ADD27RoundRect,0.225000X0.225000X0.250000X-0.225000X0.250000X-0.225000X-0.250000X0.225000X-0.250000X0*%
%ADD28RoundRect,0.100000X0.637500X0.100000X-0.637500X0.100000X-0.637500X-0.100000X0.637500X-0.100000X0*%
%ADD29R,0.400000X1.200000*%
%ADD30R,0.400000X0.800000*%
%ADD31RoundRect,0.150000X-0.587500X-0.150000X0.587500X-0.150000X0.587500X0.150000X-0.587500X0.150000X0*%
%ADD32RoundRect,0.140000X-0.170000X0.140000X-0.170000X-0.140000X0.170000X-0.140000X0.170000X0.140000X0*%
%ADD33RoundRect,0.200000X0.275000X-0.200000X0.275000X0.200000X-0.275000X0.200000X-0.275000X-0.200000X0*%
%ADD34RoundRect,0.218750X0.256250X-0.218750X0.256250X0.218750X-0.256250X0.218750X-0.256250X-0.218750X0*%
%ADD35C,0.200000*%
%ADD36RoundRect,0.250000X0.625000X-0.312500X0.625000X0.312500X-0.625000X0.312500X-0.625000X-0.312500X0*%
%ADD37RoundRect,0.150000X-0.150000X0.825000X-0.150000X-0.825000X0.150000X-0.825000X0.150000X0.825000X0*%
%ADD38RoundRect,0.243750X0.456250X-0.243750X0.456250X0.243750X-0.456250X0.243750X-0.456250X-0.243750X0*%
%ADD39RoundRect,0.150000X-0.512500X-0.150000X0.512500X-0.150000X0.512500X0.150000X-0.512500X0.150000X0*%
%ADD40R,2.000000X2.000000*%
%ADD41R,1.700000X1.700000*%
%ADD42C,0.990600*%
%ADD43O,1.700000X1.700000*%
G04 APERTURE END LIST*
D10*
X118336779Y-79238866D02*
X119098684Y-79238866D01*
X118717731Y-79619819D02*
X118717731Y-78857914D01*
X115607142Y-61859580D02*
X115559523Y-61907200D01*
X115559523Y-61907200D02*
X115416666Y-61954819D01*
X115416666Y-61954819D02*
X115321428Y-61954819D01*
X115321428Y-61954819D02*
X115178571Y-61907200D01*
X115178571Y-61907200D02*
X115083333Y-61811961D01*
X115083333Y-61811961D02*
X115035714Y-61716723D01*
X115035714Y-61716723D02*
X114988095Y-61526247D01*
X114988095Y-61526247D02*
X114988095Y-61383390D01*
X114988095Y-61383390D02*
X115035714Y-61192914D01*
X115035714Y-61192914D02*
X115083333Y-61097676D01*
X115083333Y-61097676D02*
X115178571Y-61002438D01*
X115178571Y-61002438D02*
X115321428Y-60954819D01*
X115321428Y-60954819D02*
X115416666Y-60954819D01*
X115416666Y-60954819D02*
X115559523Y-61002438D01*
X115559523Y-61002438D02*
X115607142Y-61050057D01*
X116559523Y-61954819D02*
X115988095Y-61954819D01*
X116273809Y-61954819D02*
X116273809Y-60954819D01*
X116273809Y-60954819D02*
X116178571Y-61097676D01*
X116178571Y-61097676D02*
X116083333Y-61192914D01*
X116083333Y-61192914D02*
X115988095Y-61240533D01*
X116940476Y-61050057D02*
X116988095Y-61002438D01*
X116988095Y-61002438D02*
X117083333Y-60954819D01*
X117083333Y-60954819D02*
X117321428Y-60954819D01*
X117321428Y-60954819D02*
X117416666Y-61002438D01*
X117416666Y-61002438D02*
X117464285Y-61050057D01*
X117464285Y-61050057D02*
X117511904Y-61145295D01*
X117511904Y-61145295D02*
X117511904Y-61240533D01*
X117511904Y-61240533D02*
X117464285Y-61383390D01*
X117464285Y-61383390D02*
X116892857Y-61954819D01*
X116892857Y-61954819D02*
X117511904Y-61954819D01*
X122738095Y-62554819D02*
X122738095Y-63364342D01*
X122738095Y-63364342D02*
X122785714Y-63459580D01*
X122785714Y-63459580D02*
X122833333Y-63507200D01*
X122833333Y-63507200D02*
X122928571Y-63554819D01*
X122928571Y-63554819D02*
X123119047Y-63554819D01*
X123119047Y-63554819D02*
X123214285Y-63507200D01*
X123214285Y-63507200D02*
X123261904Y-63459580D01*
X123261904Y-63459580D02*
X123309523Y-63364342D01*
X123309523Y-63364342D02*
X123309523Y-62554819D01*
X123738095Y-62650057D02*
X123785714Y-62602438D01*
X123785714Y-62602438D02*
X123880952Y-62554819D01*
X123880952Y-62554819D02*
X124119047Y-62554819D01*
X124119047Y-62554819D02*
X124214285Y-62602438D01*
X124214285Y-62602438D02*
X124261904Y-62650057D01*
X124261904Y-62650057D02*
X124309523Y-62745295D01*
X124309523Y-62745295D02*
X124309523Y-62840533D01*
X124309523Y-62840533D02*
X124261904Y-62983390D01*
X124261904Y-62983390D02*
X123690476Y-63554819D01*
X123690476Y-63554819D02*
X124309523Y-63554819D01*
X108083333Y-81704819D02*
X107750000Y-81228628D01*
X107511905Y-81704819D02*
X107511905Y-80704819D01*
X107511905Y-80704819D02*
X107892857Y-80704819D01*
X107892857Y-80704819D02*
X107988095Y-80752438D01*
X107988095Y-80752438D02*
X108035714Y-80800057D01*
X108035714Y-80800057D02*
X108083333Y-80895295D01*
X108083333Y-80895295D02*
X108083333Y-81038152D01*
X108083333Y-81038152D02*
X108035714Y-81133390D01*
X108035714Y-81133390D02*
X107988095Y-81181009D01*
X107988095Y-81181009D02*
X107892857Y-81228628D01*
X107892857Y-81228628D02*
X107511905Y-81228628D01*
X108416667Y-80704819D02*
X109083333Y-80704819D01*
X109083333Y-80704819D02*
X108654762Y-81704819D01*
X115083333Y-52954819D02*
X114750000Y-52478628D01*
X114511905Y-52954819D02*
X114511905Y-51954819D01*
X114511905Y-51954819D02*
X114892857Y-51954819D01*
X114892857Y-51954819D02*
X114988095Y-52002438D01*
X114988095Y-52002438D02*
X115035714Y-52050057D01*
X115035714Y-52050057D02*
X115083333Y-52145295D01*
X115083333Y-52145295D02*
X115083333Y-52288152D01*
X115083333Y-52288152D02*
X115035714Y-52383390D01*
X115035714Y-52383390D02*
X114988095Y-52431009D01*
X114988095Y-52431009D02*
X114892857Y-52478628D01*
X114892857Y-52478628D02*
X114511905Y-52478628D01*
X115654762Y-52383390D02*
X115559524Y-52335771D01*
X115559524Y-52335771D02*
X115511905Y-52288152D01*
X115511905Y-52288152D02*
X115464286Y-52192914D01*
X115464286Y-52192914D02*
X115464286Y-52145295D01*
X115464286Y-52145295D02*
X115511905Y-52050057D01*
X115511905Y-52050057D02*
X115559524Y-52002438D01*
X115559524Y-52002438D02*
X115654762Y-51954819D01*
X115654762Y-51954819D02*
X115845238Y-51954819D01*
X115845238Y-51954819D02*
X115940476Y-52002438D01*
X115940476Y-52002438D02*
X115988095Y-52050057D01*
X115988095Y-52050057D02*
X116035714Y-52145295D01*
X116035714Y-52145295D02*
X116035714Y-52192914D01*
X116035714Y-52192914D02*
X115988095Y-52288152D01*
X115988095Y-52288152D02*
X115940476Y-52335771D01*
X115940476Y-52335771D02*
X115845238Y-52383390D01*
X115845238Y-52383390D02*
X115654762Y-52383390D01*
X115654762Y-52383390D02*
X115559524Y-52431009D01*
X115559524Y-52431009D02*
X115511905Y-52478628D01*
X115511905Y-52478628D02*
X115464286Y-52573866D01*
X115464286Y-52573866D02*
X115464286Y-52764342D01*
X115464286Y-52764342D02*
X115511905Y-52859580D01*
X115511905Y-52859580D02*
X115559524Y-52907200D01*
X115559524Y-52907200D02*
X115654762Y-52954819D01*
X115654762Y-52954819D02*
X115845238Y-52954819D01*
X115845238Y-52954819D02*
X115940476Y-52907200D01*
X115940476Y-52907200D02*
X115988095Y-52859580D01*
X115988095Y-52859580D02*
X116035714Y-52764342D01*
X116035714Y-52764342D02*
X116035714Y-52573866D01*
X116035714Y-52573866D02*
X115988095Y-52478628D01*
X115988095Y-52478628D02*
X115940476Y-52431009D01*
X115940476Y-52431009D02*
X115845238Y-52383390D01*
X122054819Y-86042857D02*
X121578628Y-86376190D01*
X122054819Y-86614285D02*
X121054819Y-86614285D01*
X121054819Y-86614285D02*
X121054819Y-86233333D01*
X121054819Y-86233333D02*
X121102438Y-86138095D01*
X121102438Y-86138095D02*
X121150057Y-86090476D01*
X121150057Y-86090476D02*
X121245295Y-86042857D01*
X121245295Y-86042857D02*
X121388152Y-86042857D01*
X121388152Y-86042857D02*
X121483390Y-86090476D01*
X121483390Y-86090476D02*
X121531009Y-86138095D01*
X121531009Y-86138095D02*
X121578628Y-86233333D01*
X121578628Y-86233333D02*
X121578628Y-86614285D01*
X121150057Y-85661904D02*
X121102438Y-85614285D01*
X121102438Y-85614285D02*
X121054819Y-85519047D01*
X121054819Y-85519047D02*
X121054819Y-85280952D01*
X121054819Y-85280952D02*
X121102438Y-85185714D01*
X121102438Y-85185714D02*
X121150057Y-85138095D01*
X121150057Y-85138095D02*
X121245295Y-85090476D01*
X121245295Y-85090476D02*
X121340533Y-85090476D01*
X121340533Y-85090476D02*
X121483390Y-85138095D01*
X121483390Y-85138095D02*
X122054819Y-85709523D01*
X122054819Y-85709523D02*
X122054819Y-85090476D01*
X122054819Y-84138095D02*
X122054819Y-84709523D01*
X122054819Y-84423809D02*
X121054819Y-84423809D01*
X121054819Y-84423809D02*
X121197676Y-84519047D01*
X121197676Y-84519047D02*
X121292914Y-84614285D01*
X121292914Y-84614285D02*
X121340533Y-84709523D01*
X134559580Y-75042857D02*
X134607200Y-75090476D01*
X134607200Y-75090476D02*
X134654819Y-75233333D01*
X134654819Y-75233333D02*
X134654819Y-75328571D01*
X134654819Y-75328571D02*
X134607200Y-75471428D01*
X134607200Y-75471428D02*
X134511961Y-75566666D01*
X134511961Y-75566666D02*
X134416723Y-75614285D01*
X134416723Y-75614285D02*
X134226247Y-75661904D01*
X134226247Y-75661904D02*
X134083390Y-75661904D01*
X134083390Y-75661904D02*
X133892914Y-75614285D01*
X133892914Y-75614285D02*
X133797676Y-75566666D01*
X133797676Y-75566666D02*
X133702438Y-75471428D01*
X133702438Y-75471428D02*
X133654819Y-75328571D01*
X133654819Y-75328571D02*
X133654819Y-75233333D01*
X133654819Y-75233333D02*
X133702438Y-75090476D01*
X133702438Y-75090476D02*
X133750057Y-75042857D01*
X133750057Y-74661904D02*
X133702438Y-74614285D01*
X133702438Y-74614285D02*
X133654819Y-74519047D01*
X133654819Y-74519047D02*
X133654819Y-74280952D01*
X133654819Y-74280952D02*
X133702438Y-74185714D01*
X133702438Y-74185714D02*
X133750057Y-74138095D01*
X133750057Y-74138095D02*
X133845295Y-74090476D01*
X133845295Y-74090476D02*
X133940533Y-74090476D01*
X133940533Y-74090476D02*
X134083390Y-74138095D01*
X134083390Y-74138095D02*
X134654819Y-74709523D01*
X134654819Y-74709523D02*
X134654819Y-74090476D01*
X133654819Y-73471428D02*
X133654819Y-73376190D01*
X133654819Y-73376190D02*
X133702438Y-73280952D01*
X133702438Y-73280952D02*
X133750057Y-73233333D01*
X133750057Y-73233333D02*
X133845295Y-73185714D01*
X133845295Y-73185714D02*
X134035771Y-73138095D01*
X134035771Y-73138095D02*
X134273866Y-73138095D01*
X134273866Y-73138095D02*
X134464342Y-73185714D01*
X134464342Y-73185714D02*
X134559580Y-73233333D01*
X134559580Y-73233333D02*
X134607200Y-73280952D01*
X134607200Y-73280952D02*
X134654819Y-73376190D01*
X134654819Y-73376190D02*
X134654819Y-73471428D01*
X134654819Y-73471428D02*
X134607200Y-73566666D01*
X134607200Y-73566666D02*
X134559580Y-73614285D01*
X134559580Y-73614285D02*
X134464342Y-73661904D01*
X134464342Y-73661904D02*
X134273866Y-73709523D01*
X134273866Y-73709523D02*
X134035771Y-73709523D01*
X134035771Y-73709523D02*
X133845295Y-73661904D01*
X133845295Y-73661904D02*
X133750057Y-73614285D01*
X133750057Y-73614285D02*
X133702438Y-73566666D01*
X133702438Y-73566666D02*
X133654819Y-73471428D01*
X132609580Y-63642857D02*
X132657200Y-63690476D01*
X132657200Y-63690476D02*
X132704819Y-63833333D01*
X132704819Y-63833333D02*
X132704819Y-63928571D01*
X132704819Y-63928571D02*
X132657200Y-64071428D01*
X132657200Y-64071428D02*
X132561961Y-64166666D01*
X132561961Y-64166666D02*
X132466723Y-64214285D01*
X132466723Y-64214285D02*
X132276247Y-64261904D01*
X132276247Y-64261904D02*
X132133390Y-64261904D01*
X132133390Y-64261904D02*
X131942914Y-64214285D01*
X131942914Y-64214285D02*
X131847676Y-64166666D01*
X131847676Y-64166666D02*
X131752438Y-64071428D01*
X131752438Y-64071428D02*
X131704819Y-63928571D01*
X131704819Y-63928571D02*
X131704819Y-63833333D01*
X131704819Y-63833333D02*
X131752438Y-63690476D01*
X131752438Y-63690476D02*
X131800057Y-63642857D01*
X132704819Y-62690476D02*
X132704819Y-63261904D01*
X132704819Y-62976190D02*
X131704819Y-62976190D01*
X131704819Y-62976190D02*
X131847676Y-63071428D01*
X131847676Y-63071428D02*
X131942914Y-63166666D01*
X131942914Y-63166666D02*
X131990533Y-63261904D01*
X132704819Y-61738095D02*
X132704819Y-62309523D01*
X132704819Y-62023809D02*
X131704819Y-62023809D01*
X131704819Y-62023809D02*
X131847676Y-62119047D01*
X131847676Y-62119047D02*
X131942914Y-62214285D01*
X131942914Y-62214285D02*
X131990533Y-62309523D01*
X149074819Y-83842857D02*
X148598628Y-84176190D01*
X149074819Y-84414285D02*
X148074819Y-84414285D01*
X148074819Y-84414285D02*
X148074819Y-84033333D01*
X148074819Y-84033333D02*
X148122438Y-83938095D01*
X148122438Y-83938095D02*
X148170057Y-83890476D01*
X148170057Y-83890476D02*
X148265295Y-83842857D01*
X148265295Y-83842857D02*
X148408152Y-83842857D01*
X148408152Y-83842857D02*
X148503390Y-83890476D01*
X148503390Y-83890476D02*
X148551009Y-83938095D01*
X148551009Y-83938095D02*
X148598628Y-84033333D01*
X148598628Y-84033333D02*
X148598628Y-84414285D01*
X148170057Y-83461904D02*
X148122438Y-83414285D01*
X148122438Y-83414285D02*
X148074819Y-83319047D01*
X148074819Y-83319047D02*
X148074819Y-83080952D01*
X148074819Y-83080952D02*
X148122438Y-82985714D01*
X148122438Y-82985714D02*
X148170057Y-82938095D01*
X148170057Y-82938095D02*
X148265295Y-82890476D01*
X148265295Y-82890476D02*
X148360533Y-82890476D01*
X148360533Y-82890476D02*
X148503390Y-82938095D01*
X148503390Y-82938095D02*
X149074819Y-83509523D01*
X149074819Y-83509523D02*
X149074819Y-82890476D01*
X148074819Y-82271428D02*
X148074819Y-82176190D01*
X148074819Y-82176190D02*
X148122438Y-82080952D01*
X148122438Y-82080952D02*
X148170057Y-82033333D01*
X148170057Y-82033333D02*
X148265295Y-81985714D01*
X148265295Y-81985714D02*
X148455771Y-81938095D01*
X148455771Y-81938095D02*
X148693866Y-81938095D01*
X148693866Y-81938095D02*
X148884342Y-81985714D01*
X148884342Y-81985714D02*
X148979580Y-82033333D01*
X148979580Y-82033333D02*
X149027200Y-82080952D01*
X149027200Y-82080952D02*
X149074819Y-82176190D01*
X149074819Y-82176190D02*
X149074819Y-82271428D01*
X149074819Y-82271428D02*
X149027200Y-82366666D01*
X149027200Y-82366666D02*
X148979580Y-82414285D01*
X148979580Y-82414285D02*
X148884342Y-82461904D01*
X148884342Y-82461904D02*
X148693866Y-82509523D01*
X148693866Y-82509523D02*
X148455771Y-82509523D01*
X148455771Y-82509523D02*
X148265295Y-82461904D01*
X148265295Y-82461904D02*
X148170057Y-82414285D01*
X148170057Y-82414285D02*
X148122438Y-82366666D01*
X148122438Y-82366666D02*
X148074819Y-82271428D01*
X114779819Y-68166666D02*
X114303628Y-68499999D01*
X114779819Y-68738094D02*
X113779819Y-68738094D01*
X113779819Y-68738094D02*
X113779819Y-68357142D01*
X113779819Y-68357142D02*
X113827438Y-68261904D01*
X113827438Y-68261904D02*
X113875057Y-68214285D01*
X113875057Y-68214285D02*
X113970295Y-68166666D01*
X113970295Y-68166666D02*
X114113152Y-68166666D01*
X114113152Y-68166666D02*
X114208390Y-68214285D01*
X114208390Y-68214285D02*
X114256009Y-68261904D01*
X114256009Y-68261904D02*
X114303628Y-68357142D01*
X114303628Y-68357142D02*
X114303628Y-68738094D01*
X113875057Y-67785713D02*
X113827438Y-67738094D01*
X113827438Y-67738094D02*
X113779819Y-67642856D01*
X113779819Y-67642856D02*
X113779819Y-67404761D01*
X113779819Y-67404761D02*
X113827438Y-67309523D01*
X113827438Y-67309523D02*
X113875057Y-67261904D01*
X113875057Y-67261904D02*
X113970295Y-67214285D01*
X113970295Y-67214285D02*
X114065533Y-67214285D01*
X114065533Y-67214285D02*
X114208390Y-67261904D01*
X114208390Y-67261904D02*
X114779819Y-67833332D01*
X114779819Y-67833332D02*
X114779819Y-67214285D01*
X122083333Y-79559580D02*
X122035714Y-79607200D01*
X122035714Y-79607200D02*
X121892857Y-79654819D01*
X121892857Y-79654819D02*
X121797619Y-79654819D01*
X121797619Y-79654819D02*
X121654762Y-79607200D01*
X121654762Y-79607200D02*
X121559524Y-79511961D01*
X121559524Y-79511961D02*
X121511905Y-79416723D01*
X121511905Y-79416723D02*
X121464286Y-79226247D01*
X121464286Y-79226247D02*
X121464286Y-79083390D01*
X121464286Y-79083390D02*
X121511905Y-78892914D01*
X121511905Y-78892914D02*
X121559524Y-78797676D01*
X121559524Y-78797676D02*
X121654762Y-78702438D01*
X121654762Y-78702438D02*
X121797619Y-78654819D01*
X121797619Y-78654819D02*
X121892857Y-78654819D01*
X121892857Y-78654819D02*
X122035714Y-78702438D01*
X122035714Y-78702438D02*
X122083333Y-78750057D01*
X122940476Y-78654819D02*
X122750000Y-78654819D01*
X122750000Y-78654819D02*
X122654762Y-78702438D01*
X122654762Y-78702438D02*
X122607143Y-78750057D01*
X122607143Y-78750057D02*
X122511905Y-78892914D01*
X122511905Y-78892914D02*
X122464286Y-79083390D01*
X122464286Y-79083390D02*
X122464286Y-79464342D01*
X122464286Y-79464342D02*
X122511905Y-79559580D01*
X122511905Y-79559580D02*
X122559524Y-79607200D01*
X122559524Y-79607200D02*
X122654762Y-79654819D01*
X122654762Y-79654819D02*
X122845238Y-79654819D01*
X122845238Y-79654819D02*
X122940476Y-79607200D01*
X122940476Y-79607200D02*
X122988095Y-79559580D01*
X122988095Y-79559580D02*
X123035714Y-79464342D01*
X123035714Y-79464342D02*
X123035714Y-79226247D01*
X123035714Y-79226247D02*
X122988095Y-79131009D01*
X122988095Y-79131009D02*
X122940476Y-79083390D01*
X122940476Y-79083390D02*
X122845238Y-79035771D01*
X122845238Y-79035771D02*
X122654762Y-79035771D01*
X122654762Y-79035771D02*
X122559524Y-79083390D01*
X122559524Y-79083390D02*
X122511905Y-79131009D01*
X122511905Y-79131009D02*
X122464286Y-79226247D01*
X116109580Y-70166666D02*
X116157200Y-70214285D01*
X116157200Y-70214285D02*
X116204819Y-70357142D01*
X116204819Y-70357142D02*
X116204819Y-70452380D01*
X116204819Y-70452380D02*
X116157200Y-70595237D01*
X116157200Y-70595237D02*
X116061961Y-70690475D01*
X116061961Y-70690475D02*
X115966723Y-70738094D01*
X115966723Y-70738094D02*
X115776247Y-70785713D01*
X115776247Y-70785713D02*
X115633390Y-70785713D01*
X115633390Y-70785713D02*
X115442914Y-70738094D01*
X115442914Y-70738094D02*
X115347676Y-70690475D01*
X115347676Y-70690475D02*
X115252438Y-70595237D01*
X115252438Y-70595237D02*
X115204819Y-70452380D01*
X115204819Y-70452380D02*
X115204819Y-70357142D01*
X115204819Y-70357142D02*
X115252438Y-70214285D01*
X115252438Y-70214285D02*
X115300057Y-70166666D01*
X115300057Y-69785713D02*
X115252438Y-69738094D01*
X115252438Y-69738094D02*
X115204819Y-69642856D01*
X115204819Y-69642856D02*
X115204819Y-69404761D01*
X115204819Y-69404761D02*
X115252438Y-69309523D01*
X115252438Y-69309523D02*
X115300057Y-69261904D01*
X115300057Y-69261904D02*
X115395295Y-69214285D01*
X115395295Y-69214285D02*
X115490533Y-69214285D01*
X115490533Y-69214285D02*
X115633390Y-69261904D01*
X115633390Y-69261904D02*
X116204819Y-69833332D01*
X116204819Y-69833332D02*
X116204819Y-69214285D01*
X102238095Y-59454819D02*
X102238095Y-60264342D01*
X102238095Y-60264342D02*
X102285714Y-60359580D01*
X102285714Y-60359580D02*
X102333333Y-60407200D01*
X102333333Y-60407200D02*
X102428571Y-60454819D01*
X102428571Y-60454819D02*
X102619047Y-60454819D01*
X102619047Y-60454819D02*
X102714285Y-60407200D01*
X102714285Y-60407200D02*
X102761904Y-60359580D01*
X102761904Y-60359580D02*
X102809523Y-60264342D01*
X102809523Y-60264342D02*
X102809523Y-59454819D01*
X103809523Y-60454819D02*
X103238095Y-60454819D01*
X103523809Y-60454819D02*
X103523809Y-59454819D01*
X103523809Y-59454819D02*
X103428571Y-59597676D01*
X103428571Y-59597676D02*
X103333333Y-59692914D01*
X103333333Y-59692914D02*
X103238095Y-59740533D01*
X101583333Y-74704819D02*
X101250000Y-74228628D01*
X101011905Y-74704819D02*
X101011905Y-73704819D01*
X101011905Y-73704819D02*
X101392857Y-73704819D01*
X101392857Y-73704819D02*
X101488095Y-73752438D01*
X101488095Y-73752438D02*
X101535714Y-73800057D01*
X101535714Y-73800057D02*
X101583333Y-73895295D01*
X101583333Y-73895295D02*
X101583333Y-74038152D01*
X101583333Y-74038152D02*
X101535714Y-74133390D01*
X101535714Y-74133390D02*
X101488095Y-74181009D01*
X101488095Y-74181009D02*
X101392857Y-74228628D01*
X101392857Y-74228628D02*
X101011905Y-74228628D01*
X102059524Y-74704819D02*
X102250000Y-74704819D01*
X102250000Y-74704819D02*
X102345238Y-74657200D01*
X102345238Y-74657200D02*
X102392857Y-74609580D01*
X102392857Y-74609580D02*
X102488095Y-74466723D01*
X102488095Y-74466723D02*
X102535714Y-74276247D01*
X102535714Y-74276247D02*
X102535714Y-73895295D01*
X102535714Y-73895295D02*
X102488095Y-73800057D01*
X102488095Y-73800057D02*
X102440476Y-73752438D01*
X102440476Y-73752438D02*
X102345238Y-73704819D01*
X102345238Y-73704819D02*
X102154762Y-73704819D01*
X102154762Y-73704819D02*
X102059524Y-73752438D01*
X102059524Y-73752438D02*
X102011905Y-73800057D01*
X102011905Y-73800057D02*
X101964286Y-73895295D01*
X101964286Y-73895295D02*
X101964286Y-74133390D01*
X101964286Y-74133390D02*
X102011905Y-74228628D01*
X102011905Y-74228628D02*
X102059524Y-74276247D01*
X102059524Y-74276247D02*
X102154762Y-74323866D01*
X102154762Y-74323866D02*
X102345238Y-74323866D01*
X102345238Y-74323866D02*
X102440476Y-74276247D01*
X102440476Y-74276247D02*
X102488095Y-74228628D01*
X102488095Y-74228628D02*
X102535714Y-74133390D01*
X139238095Y-89854819D02*
X139238095Y-90664342D01*
X139238095Y-90664342D02*
X139285714Y-90759580D01*
X139285714Y-90759580D02*
X139333333Y-90807200D01*
X139333333Y-90807200D02*
X139428571Y-90854819D01*
X139428571Y-90854819D02*
X139619047Y-90854819D01*
X139619047Y-90854819D02*
X139714285Y-90807200D01*
X139714285Y-90807200D02*
X139761904Y-90759580D01*
X139761904Y-90759580D02*
X139809523Y-90664342D01*
X139809523Y-90664342D02*
X139809523Y-89854819D01*
X140761904Y-89854819D02*
X140285714Y-89854819D01*
X140285714Y-89854819D02*
X140238095Y-90331009D01*
X140238095Y-90331009D02*
X140285714Y-90283390D01*
X140285714Y-90283390D02*
X140380952Y-90235771D01*
X140380952Y-90235771D02*
X140619047Y-90235771D01*
X140619047Y-90235771D02*
X140714285Y-90283390D01*
X140714285Y-90283390D02*
X140761904Y-90331009D01*
X140761904Y-90331009D02*
X140809523Y-90426247D01*
X140809523Y-90426247D02*
X140809523Y-90664342D01*
X140809523Y-90664342D02*
X140761904Y-90759580D01*
X140761904Y-90759580D02*
X140714285Y-90807200D01*
X140714285Y-90807200D02*
X140619047Y-90854819D01*
X140619047Y-90854819D02*
X140380952Y-90854819D01*
X140380952Y-90854819D02*
X140285714Y-90807200D01*
X140285714Y-90807200D02*
X140238095Y-90759580D01*
X115607142Y-63359580D02*
X115559523Y-63407200D01*
X115559523Y-63407200D02*
X115416666Y-63454819D01*
X115416666Y-63454819D02*
X115321428Y-63454819D01*
X115321428Y-63454819D02*
X115178571Y-63407200D01*
X115178571Y-63407200D02*
X115083333Y-63311961D01*
X115083333Y-63311961D02*
X115035714Y-63216723D01*
X115035714Y-63216723D02*
X114988095Y-63026247D01*
X114988095Y-63026247D02*
X114988095Y-62883390D01*
X114988095Y-62883390D02*
X115035714Y-62692914D01*
X115035714Y-62692914D02*
X115083333Y-62597676D01*
X115083333Y-62597676D02*
X115178571Y-62502438D01*
X115178571Y-62502438D02*
X115321428Y-62454819D01*
X115321428Y-62454819D02*
X115416666Y-62454819D01*
X115416666Y-62454819D02*
X115559523Y-62502438D01*
X115559523Y-62502438D02*
X115607142Y-62550057D01*
X116559523Y-63454819D02*
X115988095Y-63454819D01*
X116273809Y-63454819D02*
X116273809Y-62454819D01*
X116273809Y-62454819D02*
X116178571Y-62597676D01*
X116178571Y-62597676D02*
X116083333Y-62692914D01*
X116083333Y-62692914D02*
X115988095Y-62740533D01*
X116892857Y-62454819D02*
X117511904Y-62454819D01*
X117511904Y-62454819D02*
X117178571Y-62835771D01*
X117178571Y-62835771D02*
X117321428Y-62835771D01*
X117321428Y-62835771D02*
X117416666Y-62883390D01*
X117416666Y-62883390D02*
X117464285Y-62931009D01*
X117464285Y-62931009D02*
X117511904Y-63026247D01*
X117511904Y-63026247D02*
X117511904Y-63264342D01*
X117511904Y-63264342D02*
X117464285Y-63359580D01*
X117464285Y-63359580D02*
X117416666Y-63407200D01*
X117416666Y-63407200D02*
X117321428Y-63454819D01*
X117321428Y-63454819D02*
X117035714Y-63454819D01*
X117035714Y-63454819D02*
X116940476Y-63407200D01*
X116940476Y-63407200D02*
X116892857Y-63359580D01*
X111561905Y-88454819D02*
X111561905Y-89264342D01*
X111561905Y-89264342D02*
X111609524Y-89359580D01*
X111609524Y-89359580D02*
X111657143Y-89407200D01*
X111657143Y-89407200D02*
X111752381Y-89454819D01*
X111752381Y-89454819D02*
X111942857Y-89454819D01*
X111942857Y-89454819D02*
X112038095Y-89407200D01*
X112038095Y-89407200D02*
X112085714Y-89359580D01*
X112085714Y-89359580D02*
X112133333Y-89264342D01*
X112133333Y-89264342D02*
X112133333Y-88454819D01*
X113133333Y-89454819D02*
X112561905Y-89454819D01*
X112847619Y-89454819D02*
X112847619Y-88454819D01*
X112847619Y-88454819D02*
X112752381Y-88597676D01*
X112752381Y-88597676D02*
X112657143Y-88692914D01*
X112657143Y-88692914D02*
X112561905Y-88740533D01*
X114085714Y-89454819D02*
X113514286Y-89454819D01*
X113800000Y-89454819D02*
X113800000Y-88454819D01*
X113800000Y-88454819D02*
X113704762Y-88597676D01*
X113704762Y-88597676D02*
X113609524Y-88692914D01*
X113609524Y-88692914D02*
X113514286Y-88740533D01*
X117159580Y-78842857D02*
X117207200Y-78890476D01*
X117207200Y-78890476D02*
X117254819Y-79033333D01*
X117254819Y-79033333D02*
X117254819Y-79128571D01*
X117254819Y-79128571D02*
X117207200Y-79271428D01*
X117207200Y-79271428D02*
X117111961Y-79366666D01*
X117111961Y-79366666D02*
X117016723Y-79414285D01*
X117016723Y-79414285D02*
X116826247Y-79461904D01*
X116826247Y-79461904D02*
X116683390Y-79461904D01*
X116683390Y-79461904D02*
X116492914Y-79414285D01*
X116492914Y-79414285D02*
X116397676Y-79366666D01*
X116397676Y-79366666D02*
X116302438Y-79271428D01*
X116302438Y-79271428D02*
X116254819Y-79128571D01*
X116254819Y-79128571D02*
X116254819Y-79033333D01*
X116254819Y-79033333D02*
X116302438Y-78890476D01*
X116302438Y-78890476D02*
X116350057Y-78842857D01*
X117254819Y-77890476D02*
X117254819Y-78461904D01*
X117254819Y-78176190D02*
X116254819Y-78176190D01*
X116254819Y-78176190D02*
X116397676Y-78271428D01*
X116397676Y-78271428D02*
X116492914Y-78366666D01*
X116492914Y-78366666D02*
X116540533Y-78461904D01*
X116683390Y-77319047D02*
X116635771Y-77414285D01*
X116635771Y-77414285D02*
X116588152Y-77461904D01*
X116588152Y-77461904D02*
X116492914Y-77509523D01*
X116492914Y-77509523D02*
X116445295Y-77509523D01*
X116445295Y-77509523D02*
X116350057Y-77461904D01*
X116350057Y-77461904D02*
X116302438Y-77414285D01*
X116302438Y-77414285D02*
X116254819Y-77319047D01*
X116254819Y-77319047D02*
X116254819Y-77128571D01*
X116254819Y-77128571D02*
X116302438Y-77033333D01*
X116302438Y-77033333D02*
X116350057Y-76985714D01*
X116350057Y-76985714D02*
X116445295Y-76938095D01*
X116445295Y-76938095D02*
X116492914Y-76938095D01*
X116492914Y-76938095D02*
X116588152Y-76985714D01*
X116588152Y-76985714D02*
X116635771Y-77033333D01*
X116635771Y-77033333D02*
X116683390Y-77128571D01*
X116683390Y-77128571D02*
X116683390Y-77319047D01*
X116683390Y-77319047D02*
X116731009Y-77414285D01*
X116731009Y-77414285D02*
X116778628Y-77461904D01*
X116778628Y-77461904D02*
X116873866Y-77509523D01*
X116873866Y-77509523D02*
X117064342Y-77509523D01*
X117064342Y-77509523D02*
X117159580Y-77461904D01*
X117159580Y-77461904D02*
X117207200Y-77414285D01*
X117207200Y-77414285D02*
X117254819Y-77319047D01*
X117254819Y-77319047D02*
X117254819Y-77128571D01*
X117254819Y-77128571D02*
X117207200Y-77033333D01*
X117207200Y-77033333D02*
X117159580Y-76985714D01*
X117159580Y-76985714D02*
X117064342Y-76938095D01*
X117064342Y-76938095D02*
X116873866Y-76938095D01*
X116873866Y-76938095D02*
X116778628Y-76985714D01*
X116778628Y-76985714D02*
X116731009Y-77033333D01*
X116731009Y-77033333D02*
X116683390Y-77128571D01*
X146857142Y-79609580D02*
X146809523Y-79657200D01*
X146809523Y-79657200D02*
X146666666Y-79704819D01*
X146666666Y-79704819D02*
X146571428Y-79704819D01*
X146571428Y-79704819D02*
X146428571Y-79657200D01*
X146428571Y-79657200D02*
X146333333Y-79561961D01*
X146333333Y-79561961D02*
X146285714Y-79466723D01*
X146285714Y-79466723D02*
X146238095Y-79276247D01*
X146238095Y-79276247D02*
X146238095Y-79133390D01*
X146238095Y-79133390D02*
X146285714Y-78942914D01*
X146285714Y-78942914D02*
X146333333Y-78847676D01*
X146333333Y-78847676D02*
X146428571Y-78752438D01*
X146428571Y-78752438D02*
X146571428Y-78704819D01*
X146571428Y-78704819D02*
X146666666Y-78704819D01*
X146666666Y-78704819D02*
X146809523Y-78752438D01*
X146809523Y-78752438D02*
X146857142Y-78800057D01*
X147809523Y-79704819D02*
X147238095Y-79704819D01*
X147523809Y-79704819D02*
X147523809Y-78704819D01*
X147523809Y-78704819D02*
X147428571Y-78847676D01*
X147428571Y-78847676D02*
X147333333Y-78942914D01*
X147333333Y-78942914D02*
X147238095Y-78990533D01*
X148666666Y-78704819D02*
X148476190Y-78704819D01*
X148476190Y-78704819D02*
X148380952Y-78752438D01*
X148380952Y-78752438D02*
X148333333Y-78800057D01*
X148333333Y-78800057D02*
X148238095Y-78942914D01*
X148238095Y-78942914D02*
X148190476Y-79133390D01*
X148190476Y-79133390D02*
X148190476Y-79514342D01*
X148190476Y-79514342D02*
X148238095Y-79609580D01*
X148238095Y-79609580D02*
X148285714Y-79657200D01*
X148285714Y-79657200D02*
X148380952Y-79704819D01*
X148380952Y-79704819D02*
X148571428Y-79704819D01*
X148571428Y-79704819D02*
X148666666Y-79657200D01*
X148666666Y-79657200D02*
X148714285Y-79609580D01*
X148714285Y-79609580D02*
X148761904Y-79514342D01*
X148761904Y-79514342D02*
X148761904Y-79276247D01*
X148761904Y-79276247D02*
X148714285Y-79181009D01*
X148714285Y-79181009D02*
X148666666Y-79133390D01*
X148666666Y-79133390D02*
X148571428Y-79085771D01*
X148571428Y-79085771D02*
X148380952Y-79085771D01*
X148380952Y-79085771D02*
X148285714Y-79133390D01*
X148285714Y-79133390D02*
X148238095Y-79181009D01*
X148238095Y-79181009D02*
X148190476Y-79276247D01*
X108083333Y-86204819D02*
X107750000Y-85728628D01*
X107511905Y-86204819D02*
X107511905Y-85204819D01*
X107511905Y-85204819D02*
X107892857Y-85204819D01*
X107892857Y-85204819D02*
X107988095Y-85252438D01*
X107988095Y-85252438D02*
X108035714Y-85300057D01*
X108035714Y-85300057D02*
X108083333Y-85395295D01*
X108083333Y-85395295D02*
X108083333Y-85538152D01*
X108083333Y-85538152D02*
X108035714Y-85633390D01*
X108035714Y-85633390D02*
X107988095Y-85681009D01*
X107988095Y-85681009D02*
X107892857Y-85728628D01*
X107892857Y-85728628D02*
X107511905Y-85728628D01*
X108940476Y-85538152D02*
X108940476Y-86204819D01*
X108702381Y-85157200D02*
X108464286Y-85871485D01*
X108464286Y-85871485D02*
X109083333Y-85871485D01*
X108083333Y-84704819D02*
X107750000Y-84228628D01*
X107511905Y-84704819D02*
X107511905Y-83704819D01*
X107511905Y-83704819D02*
X107892857Y-83704819D01*
X107892857Y-83704819D02*
X107988095Y-83752438D01*
X107988095Y-83752438D02*
X108035714Y-83800057D01*
X108035714Y-83800057D02*
X108083333Y-83895295D01*
X108083333Y-83895295D02*
X108083333Y-84038152D01*
X108083333Y-84038152D02*
X108035714Y-84133390D01*
X108035714Y-84133390D02*
X107988095Y-84181009D01*
X107988095Y-84181009D02*
X107892857Y-84228628D01*
X107892857Y-84228628D02*
X107511905Y-84228628D01*
X108988095Y-83704819D02*
X108511905Y-83704819D01*
X108511905Y-83704819D02*
X108464286Y-84181009D01*
X108464286Y-84181009D02*
X108511905Y-84133390D01*
X108511905Y-84133390D02*
X108607143Y-84085771D01*
X108607143Y-84085771D02*
X108845238Y-84085771D01*
X108845238Y-84085771D02*
X108940476Y-84133390D01*
X108940476Y-84133390D02*
X108988095Y-84181009D01*
X108988095Y-84181009D02*
X109035714Y-84276247D01*
X109035714Y-84276247D02*
X109035714Y-84514342D01*
X109035714Y-84514342D02*
X108988095Y-84609580D01*
X108988095Y-84609580D02*
X108940476Y-84657200D01*
X108940476Y-84657200D02*
X108845238Y-84704819D01*
X108845238Y-84704819D02*
X108607143Y-84704819D01*
X108607143Y-84704819D02*
X108511905Y-84657200D01*
X108511905Y-84657200D02*
X108464286Y-84609580D01*
X113238095Y-80454819D02*
X113238095Y-81264342D01*
X113238095Y-81264342D02*
X113285714Y-81359580D01*
X113285714Y-81359580D02*
X113333333Y-81407200D01*
X113333333Y-81407200D02*
X113428571Y-81454819D01*
X113428571Y-81454819D02*
X113619047Y-81454819D01*
X113619047Y-81454819D02*
X113714285Y-81407200D01*
X113714285Y-81407200D02*
X113761904Y-81359580D01*
X113761904Y-81359580D02*
X113809523Y-81264342D01*
X113809523Y-81264342D02*
X113809523Y-80454819D01*
X114714285Y-80454819D02*
X114523809Y-80454819D01*
X114523809Y-80454819D02*
X114428571Y-80502438D01*
X114428571Y-80502438D02*
X114380952Y-80550057D01*
X114380952Y-80550057D02*
X114285714Y-80692914D01*
X114285714Y-80692914D02*
X114238095Y-80883390D01*
X114238095Y-80883390D02*
X114238095Y-81264342D01*
X114238095Y-81264342D02*
X114285714Y-81359580D01*
X114285714Y-81359580D02*
X114333333Y-81407200D01*
X114333333Y-81407200D02*
X114428571Y-81454819D01*
X114428571Y-81454819D02*
X114619047Y-81454819D01*
X114619047Y-81454819D02*
X114714285Y-81407200D01*
X114714285Y-81407200D02*
X114761904Y-81359580D01*
X114761904Y-81359580D02*
X114809523Y-81264342D01*
X114809523Y-81264342D02*
X114809523Y-81026247D01*
X114809523Y-81026247D02*
X114761904Y-80931009D01*
X114761904Y-80931009D02*
X114714285Y-80883390D01*
X114714285Y-80883390D02*
X114619047Y-80835771D01*
X114619047Y-80835771D02*
X114428571Y-80835771D01*
X114428571Y-80835771D02*
X114333333Y-80883390D01*
X114333333Y-80883390D02*
X114285714Y-80931009D01*
X114285714Y-80931009D02*
X114238095Y-81026247D01*
X139488095Y-72704819D02*
X139488095Y-73514342D01*
X139488095Y-73514342D02*
X139535714Y-73609580D01*
X139535714Y-73609580D02*
X139583333Y-73657200D01*
X139583333Y-73657200D02*
X139678571Y-73704819D01*
X139678571Y-73704819D02*
X139869047Y-73704819D01*
X139869047Y-73704819D02*
X139964285Y-73657200D01*
X139964285Y-73657200D02*
X140011904Y-73609580D01*
X140011904Y-73609580D02*
X140059523Y-73514342D01*
X140059523Y-73514342D02*
X140059523Y-72704819D01*
X140583333Y-73704819D02*
X140773809Y-73704819D01*
X140773809Y-73704819D02*
X140869047Y-73657200D01*
X140869047Y-73657200D02*
X140916666Y-73609580D01*
X140916666Y-73609580D02*
X141011904Y-73466723D01*
X141011904Y-73466723D02*
X141059523Y-73276247D01*
X141059523Y-73276247D02*
X141059523Y-72895295D01*
X141059523Y-72895295D02*
X141011904Y-72800057D01*
X141011904Y-72800057D02*
X140964285Y-72752438D01*
X140964285Y-72752438D02*
X140869047Y-72704819D01*
X140869047Y-72704819D02*
X140678571Y-72704819D01*
X140678571Y-72704819D02*
X140583333Y-72752438D01*
X140583333Y-72752438D02*
X140535714Y-72800057D01*
X140535714Y-72800057D02*
X140488095Y-72895295D01*
X140488095Y-72895295D02*
X140488095Y-73133390D01*
X140488095Y-73133390D02*
X140535714Y-73228628D01*
X140535714Y-73228628D02*
X140583333Y-73276247D01*
X140583333Y-73276247D02*
X140678571Y-73323866D01*
X140678571Y-73323866D02*
X140869047Y-73323866D01*
X140869047Y-73323866D02*
X140964285Y-73276247D01*
X140964285Y-73276247D02*
X141011904Y-73228628D01*
X141011904Y-73228628D02*
X141059523Y-73133390D01*
X131967261Y-55650057D02*
X131872023Y-55602438D01*
X131872023Y-55602438D02*
X131776785Y-55507200D01*
X131776785Y-55507200D02*
X131633928Y-55364342D01*
X131633928Y-55364342D02*
X131538690Y-55316723D01*
X131538690Y-55316723D02*
X131443452Y-55316723D01*
X131491071Y-55554819D02*
X131395833Y-55507200D01*
X131395833Y-55507200D02*
X131300595Y-55411961D01*
X131300595Y-55411961D02*
X131252976Y-55221485D01*
X131252976Y-55221485D02*
X131252976Y-54888152D01*
X131252976Y-54888152D02*
X131300595Y-54697676D01*
X131300595Y-54697676D02*
X131395833Y-54602438D01*
X131395833Y-54602438D02*
X131491071Y-54554819D01*
X131491071Y-54554819D02*
X131681547Y-54554819D01*
X131681547Y-54554819D02*
X131776785Y-54602438D01*
X131776785Y-54602438D02*
X131872023Y-54697676D01*
X131872023Y-54697676D02*
X131919642Y-54888152D01*
X131919642Y-54888152D02*
X131919642Y-55221485D01*
X131919642Y-55221485D02*
X131872023Y-55411961D01*
X131872023Y-55411961D02*
X131776785Y-55507200D01*
X131776785Y-55507200D02*
X131681547Y-55554819D01*
X131681547Y-55554819D02*
X131491071Y-55554819D01*
X132300595Y-54650057D02*
X132348214Y-54602438D01*
X132348214Y-54602438D02*
X132443452Y-54554819D01*
X132443452Y-54554819D02*
X132681547Y-54554819D01*
X132681547Y-54554819D02*
X132776785Y-54602438D01*
X132776785Y-54602438D02*
X132824404Y-54650057D01*
X132824404Y-54650057D02*
X132872023Y-54745295D01*
X132872023Y-54745295D02*
X132872023Y-54840533D01*
X132872023Y-54840533D02*
X132824404Y-54983390D01*
X132824404Y-54983390D02*
X132252976Y-55554819D01*
X132252976Y-55554819D02*
X132872023Y-55554819D01*
X122083333Y-80959580D02*
X122035714Y-81007200D01*
X122035714Y-81007200D02*
X121892857Y-81054819D01*
X121892857Y-81054819D02*
X121797619Y-81054819D01*
X121797619Y-81054819D02*
X121654762Y-81007200D01*
X121654762Y-81007200D02*
X121559524Y-80911961D01*
X121559524Y-80911961D02*
X121511905Y-80816723D01*
X121511905Y-80816723D02*
X121464286Y-80626247D01*
X121464286Y-80626247D02*
X121464286Y-80483390D01*
X121464286Y-80483390D02*
X121511905Y-80292914D01*
X121511905Y-80292914D02*
X121559524Y-80197676D01*
X121559524Y-80197676D02*
X121654762Y-80102438D01*
X121654762Y-80102438D02*
X121797619Y-80054819D01*
X121797619Y-80054819D02*
X121892857Y-80054819D01*
X121892857Y-80054819D02*
X122035714Y-80102438D01*
X122035714Y-80102438D02*
X122083333Y-80150057D01*
X122416667Y-80054819D02*
X123035714Y-80054819D01*
X123035714Y-80054819D02*
X122702381Y-80435771D01*
X122702381Y-80435771D02*
X122845238Y-80435771D01*
X122845238Y-80435771D02*
X122940476Y-80483390D01*
X122940476Y-80483390D02*
X122988095Y-80531009D01*
X122988095Y-80531009D02*
X123035714Y-80626247D01*
X123035714Y-80626247D02*
X123035714Y-80864342D01*
X123035714Y-80864342D02*
X122988095Y-80959580D01*
X122988095Y-80959580D02*
X122940476Y-81007200D01*
X122940476Y-81007200D02*
X122845238Y-81054819D01*
X122845238Y-81054819D02*
X122559524Y-81054819D01*
X122559524Y-81054819D02*
X122464286Y-81007200D01*
X122464286Y-81007200D02*
X122416667Y-80959580D01*
X116104819Y-68166666D02*
X115628628Y-68499999D01*
X116104819Y-68738094D02*
X115104819Y-68738094D01*
X115104819Y-68738094D02*
X115104819Y-68357142D01*
X115104819Y-68357142D02*
X115152438Y-68261904D01*
X115152438Y-68261904D02*
X115200057Y-68214285D01*
X115200057Y-68214285D02*
X115295295Y-68166666D01*
X115295295Y-68166666D02*
X115438152Y-68166666D01*
X115438152Y-68166666D02*
X115533390Y-68214285D01*
X115533390Y-68214285D02*
X115581009Y-68261904D01*
X115581009Y-68261904D02*
X115628628Y-68357142D01*
X115628628Y-68357142D02*
X115628628Y-68738094D01*
X115104819Y-67833332D02*
X115104819Y-67214285D01*
X115104819Y-67214285D02*
X115485771Y-67547618D01*
X115485771Y-67547618D02*
X115485771Y-67404761D01*
X115485771Y-67404761D02*
X115533390Y-67309523D01*
X115533390Y-67309523D02*
X115581009Y-67261904D01*
X115581009Y-67261904D02*
X115676247Y-67214285D01*
X115676247Y-67214285D02*
X115914342Y-67214285D01*
X115914342Y-67214285D02*
X116009580Y-67261904D01*
X116009580Y-67261904D02*
X116057200Y-67309523D01*
X116057200Y-67309523D02*
X116104819Y-67404761D01*
X116104819Y-67404761D02*
X116104819Y-67690475D01*
X116104819Y-67690475D02*
X116057200Y-67785713D01*
X116057200Y-67785713D02*
X116009580Y-67833332D01*
X135959580Y-74842857D02*
X136007200Y-74890476D01*
X136007200Y-74890476D02*
X136054819Y-75033333D01*
X136054819Y-75033333D02*
X136054819Y-75128571D01*
X136054819Y-75128571D02*
X136007200Y-75271428D01*
X136007200Y-75271428D02*
X135911961Y-75366666D01*
X135911961Y-75366666D02*
X135816723Y-75414285D01*
X135816723Y-75414285D02*
X135626247Y-75461904D01*
X135626247Y-75461904D02*
X135483390Y-75461904D01*
X135483390Y-75461904D02*
X135292914Y-75414285D01*
X135292914Y-75414285D02*
X135197676Y-75366666D01*
X135197676Y-75366666D02*
X135102438Y-75271428D01*
X135102438Y-75271428D02*
X135054819Y-75128571D01*
X135054819Y-75128571D02*
X135054819Y-75033333D01*
X135054819Y-75033333D02*
X135102438Y-74890476D01*
X135102438Y-74890476D02*
X135150057Y-74842857D01*
X135150057Y-74461904D02*
X135102438Y-74414285D01*
X135102438Y-74414285D02*
X135054819Y-74319047D01*
X135054819Y-74319047D02*
X135054819Y-74080952D01*
X135054819Y-74080952D02*
X135102438Y-73985714D01*
X135102438Y-73985714D02*
X135150057Y-73938095D01*
X135150057Y-73938095D02*
X135245295Y-73890476D01*
X135245295Y-73890476D02*
X135340533Y-73890476D01*
X135340533Y-73890476D02*
X135483390Y-73938095D01*
X135483390Y-73938095D02*
X136054819Y-74509523D01*
X136054819Y-74509523D02*
X136054819Y-73890476D01*
X136054819Y-72938095D02*
X136054819Y-73509523D01*
X136054819Y-73223809D02*
X135054819Y-73223809D01*
X135054819Y-73223809D02*
X135197676Y-73319047D01*
X135197676Y-73319047D02*
X135292914Y-73414285D01*
X135292914Y-73414285D02*
X135340533Y-73509523D01*
X101607142Y-83704819D02*
X101273809Y-83228628D01*
X101035714Y-83704819D02*
X101035714Y-82704819D01*
X101035714Y-82704819D02*
X101416666Y-82704819D01*
X101416666Y-82704819D02*
X101511904Y-82752438D01*
X101511904Y-82752438D02*
X101559523Y-82800057D01*
X101559523Y-82800057D02*
X101607142Y-82895295D01*
X101607142Y-82895295D02*
X101607142Y-83038152D01*
X101607142Y-83038152D02*
X101559523Y-83133390D01*
X101559523Y-83133390D02*
X101511904Y-83181009D01*
X101511904Y-83181009D02*
X101416666Y-83228628D01*
X101416666Y-83228628D02*
X101035714Y-83228628D01*
X102559523Y-83704819D02*
X101988095Y-83704819D01*
X102273809Y-83704819D02*
X102273809Y-82704819D01*
X102273809Y-82704819D02*
X102178571Y-82847676D01*
X102178571Y-82847676D02*
X102083333Y-82942914D01*
X102083333Y-82942914D02*
X101988095Y-82990533D01*
X103511904Y-83704819D02*
X102940476Y-83704819D01*
X103226190Y-83704819D02*
X103226190Y-82704819D01*
X103226190Y-82704819D02*
X103130952Y-82847676D01*
X103130952Y-82847676D02*
X103035714Y-82942914D01*
X103035714Y-82942914D02*
X102940476Y-82990533D01*
X117704819Y-53392857D02*
X117228628Y-53726190D01*
X117704819Y-53964285D02*
X116704819Y-53964285D01*
X116704819Y-53964285D02*
X116704819Y-53583333D01*
X116704819Y-53583333D02*
X116752438Y-53488095D01*
X116752438Y-53488095D02*
X116800057Y-53440476D01*
X116800057Y-53440476D02*
X116895295Y-53392857D01*
X116895295Y-53392857D02*
X117038152Y-53392857D01*
X117038152Y-53392857D02*
X117133390Y-53440476D01*
X117133390Y-53440476D02*
X117181009Y-53488095D01*
X117181009Y-53488095D02*
X117228628Y-53583333D01*
X117228628Y-53583333D02*
X117228628Y-53964285D01*
X117704819Y-52440476D02*
X117704819Y-53011904D01*
X117704819Y-52726190D02*
X116704819Y-52726190D01*
X116704819Y-52726190D02*
X116847676Y-52821428D01*
X116847676Y-52821428D02*
X116942914Y-52916666D01*
X116942914Y-52916666D02*
X116990533Y-53011904D01*
X116704819Y-51535714D02*
X116704819Y-52011904D01*
X116704819Y-52011904D02*
X117181009Y-52059523D01*
X117181009Y-52059523D02*
X117133390Y-52011904D01*
X117133390Y-52011904D02*
X117085771Y-51916666D01*
X117085771Y-51916666D02*
X117085771Y-51678571D01*
X117085771Y-51678571D02*
X117133390Y-51583333D01*
X117133390Y-51583333D02*
X117181009Y-51535714D01*
X117181009Y-51535714D02*
X117276247Y-51488095D01*
X117276247Y-51488095D02*
X117514342Y-51488095D01*
X117514342Y-51488095D02*
X117609580Y-51535714D01*
X117609580Y-51535714D02*
X117657200Y-51583333D01*
X117657200Y-51583333D02*
X117704819Y-51678571D01*
X117704819Y-51678571D02*
X117704819Y-51916666D01*
X117704819Y-51916666D02*
X117657200Y-52011904D01*
X117657200Y-52011904D02*
X117609580Y-52059523D01*
X127557142Y-83359580D02*
X127509523Y-83407200D01*
X127509523Y-83407200D02*
X127366666Y-83454819D01*
X127366666Y-83454819D02*
X127271428Y-83454819D01*
X127271428Y-83454819D02*
X127128571Y-83407200D01*
X127128571Y-83407200D02*
X127033333Y-83311961D01*
X127033333Y-83311961D02*
X126985714Y-83216723D01*
X126985714Y-83216723D02*
X126938095Y-83026247D01*
X126938095Y-83026247D02*
X126938095Y-82883390D01*
X126938095Y-82883390D02*
X126985714Y-82692914D01*
X126985714Y-82692914D02*
X127033333Y-82597676D01*
X127033333Y-82597676D02*
X127128571Y-82502438D01*
X127128571Y-82502438D02*
X127271428Y-82454819D01*
X127271428Y-82454819D02*
X127366666Y-82454819D01*
X127366666Y-82454819D02*
X127509523Y-82502438D01*
X127509523Y-82502438D02*
X127557142Y-82550057D01*
X128509523Y-83454819D02*
X127938095Y-83454819D01*
X128223809Y-83454819D02*
X128223809Y-82454819D01*
X128223809Y-82454819D02*
X128128571Y-82597676D01*
X128128571Y-82597676D02*
X128033333Y-82692914D01*
X128033333Y-82692914D02*
X127938095Y-82740533D01*
X129366666Y-82788152D02*
X129366666Y-83454819D01*
X129128571Y-82407200D02*
X128890476Y-83121485D01*
X128890476Y-83121485D02*
X129509523Y-83121485D01*
X101607142Y-80704819D02*
X101273809Y-80228628D01*
X101035714Y-80704819D02*
X101035714Y-79704819D01*
X101035714Y-79704819D02*
X101416666Y-79704819D01*
X101416666Y-79704819D02*
X101511904Y-79752438D01*
X101511904Y-79752438D02*
X101559523Y-79800057D01*
X101559523Y-79800057D02*
X101607142Y-79895295D01*
X101607142Y-79895295D02*
X101607142Y-80038152D01*
X101607142Y-80038152D02*
X101559523Y-80133390D01*
X101559523Y-80133390D02*
X101511904Y-80181009D01*
X101511904Y-80181009D02*
X101416666Y-80228628D01*
X101416666Y-80228628D02*
X101035714Y-80228628D01*
X102559523Y-80704819D02*
X101988095Y-80704819D01*
X102273809Y-80704819D02*
X102273809Y-79704819D01*
X102273809Y-79704819D02*
X102178571Y-79847676D01*
X102178571Y-79847676D02*
X102083333Y-79942914D01*
X102083333Y-79942914D02*
X101988095Y-79990533D01*
X102892857Y-79704819D02*
X103511904Y-79704819D01*
X103511904Y-79704819D02*
X103178571Y-80085771D01*
X103178571Y-80085771D02*
X103321428Y-80085771D01*
X103321428Y-80085771D02*
X103416666Y-80133390D01*
X103416666Y-80133390D02*
X103464285Y-80181009D01*
X103464285Y-80181009D02*
X103511904Y-80276247D01*
X103511904Y-80276247D02*
X103511904Y-80514342D01*
X103511904Y-80514342D02*
X103464285Y-80609580D01*
X103464285Y-80609580D02*
X103416666Y-80657200D01*
X103416666Y-80657200D02*
X103321428Y-80704819D01*
X103321428Y-80704819D02*
X103035714Y-80704819D01*
X103035714Y-80704819D02*
X102940476Y-80657200D01*
X102940476Y-80657200D02*
X102892857Y-80609580D01*
X101607142Y-76204819D02*
X101273809Y-75728628D01*
X101035714Y-76204819D02*
X101035714Y-75204819D01*
X101035714Y-75204819D02*
X101416666Y-75204819D01*
X101416666Y-75204819D02*
X101511904Y-75252438D01*
X101511904Y-75252438D02*
X101559523Y-75300057D01*
X101559523Y-75300057D02*
X101607142Y-75395295D01*
X101607142Y-75395295D02*
X101607142Y-75538152D01*
X101607142Y-75538152D02*
X101559523Y-75633390D01*
X101559523Y-75633390D02*
X101511904Y-75681009D01*
X101511904Y-75681009D02*
X101416666Y-75728628D01*
X101416666Y-75728628D02*
X101035714Y-75728628D01*
X102559523Y-76204819D02*
X101988095Y-76204819D01*
X102273809Y-76204819D02*
X102273809Y-75204819D01*
X102273809Y-75204819D02*
X102178571Y-75347676D01*
X102178571Y-75347676D02*
X102083333Y-75442914D01*
X102083333Y-75442914D02*
X101988095Y-75490533D01*
X102940476Y-75300057D02*
X102988095Y-75252438D01*
X102988095Y-75252438D02*
X103083333Y-75204819D01*
X103083333Y-75204819D02*
X103321428Y-75204819D01*
X103321428Y-75204819D02*
X103416666Y-75252438D01*
X103416666Y-75252438D02*
X103464285Y-75300057D01*
X103464285Y-75300057D02*
X103511904Y-75395295D01*
X103511904Y-75395295D02*
X103511904Y-75490533D01*
X103511904Y-75490533D02*
X103464285Y-75633390D01*
X103464285Y-75633390D02*
X102892857Y-76204819D01*
X102892857Y-76204819D02*
X103511904Y-76204819D01*
X122033333Y-78159580D02*
X121985714Y-78207200D01*
X121985714Y-78207200D02*
X121842857Y-78254819D01*
X121842857Y-78254819D02*
X121747619Y-78254819D01*
X121747619Y-78254819D02*
X121604762Y-78207200D01*
X121604762Y-78207200D02*
X121509524Y-78111961D01*
X121509524Y-78111961D02*
X121461905Y-78016723D01*
X121461905Y-78016723D02*
X121414286Y-77826247D01*
X121414286Y-77826247D02*
X121414286Y-77683390D01*
X121414286Y-77683390D02*
X121461905Y-77492914D01*
X121461905Y-77492914D02*
X121509524Y-77397676D01*
X121509524Y-77397676D02*
X121604762Y-77302438D01*
X121604762Y-77302438D02*
X121747619Y-77254819D01*
X121747619Y-77254819D02*
X121842857Y-77254819D01*
X121842857Y-77254819D02*
X121985714Y-77302438D01*
X121985714Y-77302438D02*
X122033333Y-77350057D01*
X122509524Y-78254819D02*
X122700000Y-78254819D01*
X122700000Y-78254819D02*
X122795238Y-78207200D01*
X122795238Y-78207200D02*
X122842857Y-78159580D01*
X122842857Y-78159580D02*
X122938095Y-78016723D01*
X122938095Y-78016723D02*
X122985714Y-77826247D01*
X122985714Y-77826247D02*
X122985714Y-77445295D01*
X122985714Y-77445295D02*
X122938095Y-77350057D01*
X122938095Y-77350057D02*
X122890476Y-77302438D01*
X122890476Y-77302438D02*
X122795238Y-77254819D01*
X122795238Y-77254819D02*
X122604762Y-77254819D01*
X122604762Y-77254819D02*
X122509524Y-77302438D01*
X122509524Y-77302438D02*
X122461905Y-77350057D01*
X122461905Y-77350057D02*
X122414286Y-77445295D01*
X122414286Y-77445295D02*
X122414286Y-77683390D01*
X122414286Y-77683390D02*
X122461905Y-77778628D01*
X122461905Y-77778628D02*
X122509524Y-77826247D01*
X122509524Y-77826247D02*
X122604762Y-77873866D01*
X122604762Y-77873866D02*
X122795238Y-77873866D01*
X122795238Y-77873866D02*
X122890476Y-77826247D01*
X122890476Y-77826247D02*
X122938095Y-77778628D01*
X122938095Y-77778628D02*
X122985714Y-77683390D01*
X116704819Y-81700594D02*
X115704819Y-81700594D01*
X115704819Y-81700594D02*
X115704819Y-81462499D01*
X115704819Y-81462499D02*
X115752438Y-81319642D01*
X115752438Y-81319642D02*
X115847676Y-81224404D01*
X115847676Y-81224404D02*
X115942914Y-81176785D01*
X115942914Y-81176785D02*
X116133390Y-81129166D01*
X116133390Y-81129166D02*
X116276247Y-81129166D01*
X116276247Y-81129166D02*
X116466723Y-81176785D01*
X116466723Y-81176785D02*
X116561961Y-81224404D01*
X116561961Y-81224404D02*
X116657200Y-81319642D01*
X116657200Y-81319642D02*
X116704819Y-81462499D01*
X116704819Y-81462499D02*
X116704819Y-81700594D01*
X115800057Y-80748213D02*
X115752438Y-80700594D01*
X115752438Y-80700594D02*
X115704819Y-80605356D01*
X115704819Y-80605356D02*
X115704819Y-80367261D01*
X115704819Y-80367261D02*
X115752438Y-80272023D01*
X115752438Y-80272023D02*
X115800057Y-80224404D01*
X115800057Y-80224404D02*
X115895295Y-80176785D01*
X115895295Y-80176785D02*
X115990533Y-80176785D01*
X115990533Y-80176785D02*
X116133390Y-80224404D01*
X116133390Y-80224404D02*
X116704819Y-80795832D01*
X116704819Y-80795832D02*
X116704819Y-80176785D01*
X101607142Y-77704819D02*
X101273809Y-77228628D01*
X101035714Y-77704819D02*
X101035714Y-76704819D01*
X101035714Y-76704819D02*
X101416666Y-76704819D01*
X101416666Y-76704819D02*
X101511904Y-76752438D01*
X101511904Y-76752438D02*
X101559523Y-76800057D01*
X101559523Y-76800057D02*
X101607142Y-76895295D01*
X101607142Y-76895295D02*
X101607142Y-77038152D01*
X101607142Y-77038152D02*
X101559523Y-77133390D01*
X101559523Y-77133390D02*
X101511904Y-77181009D01*
X101511904Y-77181009D02*
X101416666Y-77228628D01*
X101416666Y-77228628D02*
X101035714Y-77228628D01*
X102559523Y-77704819D02*
X101988095Y-77704819D01*
X102273809Y-77704819D02*
X102273809Y-76704819D01*
X102273809Y-76704819D02*
X102178571Y-76847676D01*
X102178571Y-76847676D02*
X102083333Y-76942914D01*
X102083333Y-76942914D02*
X101988095Y-76990533D01*
X103416666Y-76704819D02*
X103226190Y-76704819D01*
X103226190Y-76704819D02*
X103130952Y-76752438D01*
X103130952Y-76752438D02*
X103083333Y-76800057D01*
X103083333Y-76800057D02*
X102988095Y-76942914D01*
X102988095Y-76942914D02*
X102940476Y-77133390D01*
X102940476Y-77133390D02*
X102940476Y-77514342D01*
X102940476Y-77514342D02*
X102988095Y-77609580D01*
X102988095Y-77609580D02*
X103035714Y-77657200D01*
X103035714Y-77657200D02*
X103130952Y-77704819D01*
X103130952Y-77704819D02*
X103321428Y-77704819D01*
X103321428Y-77704819D02*
X103416666Y-77657200D01*
X103416666Y-77657200D02*
X103464285Y-77609580D01*
X103464285Y-77609580D02*
X103511904Y-77514342D01*
X103511904Y-77514342D02*
X103511904Y-77276247D01*
X103511904Y-77276247D02*
X103464285Y-77181009D01*
X103464285Y-77181009D02*
X103416666Y-77133390D01*
X103416666Y-77133390D02*
X103321428Y-77085771D01*
X103321428Y-77085771D02*
X103130952Y-77085771D01*
X103130952Y-77085771D02*
X103035714Y-77133390D01*
X103035714Y-77133390D02*
X102988095Y-77181009D01*
X102988095Y-77181009D02*
X102940476Y-77276247D01*
X115759580Y-78842857D02*
X115807200Y-78890476D01*
X115807200Y-78890476D02*
X115854819Y-79033333D01*
X115854819Y-79033333D02*
X115854819Y-79128571D01*
X115854819Y-79128571D02*
X115807200Y-79271428D01*
X115807200Y-79271428D02*
X115711961Y-79366666D01*
X115711961Y-79366666D02*
X115616723Y-79414285D01*
X115616723Y-79414285D02*
X115426247Y-79461904D01*
X115426247Y-79461904D02*
X115283390Y-79461904D01*
X115283390Y-79461904D02*
X115092914Y-79414285D01*
X115092914Y-79414285D02*
X114997676Y-79366666D01*
X114997676Y-79366666D02*
X114902438Y-79271428D01*
X114902438Y-79271428D02*
X114854819Y-79128571D01*
X114854819Y-79128571D02*
X114854819Y-79033333D01*
X114854819Y-79033333D02*
X114902438Y-78890476D01*
X114902438Y-78890476D02*
X114950057Y-78842857D01*
X115854819Y-77890476D02*
X115854819Y-78461904D01*
X115854819Y-78176190D02*
X114854819Y-78176190D01*
X114854819Y-78176190D02*
X114997676Y-78271428D01*
X114997676Y-78271428D02*
X115092914Y-78366666D01*
X115092914Y-78366666D02*
X115140533Y-78461904D01*
X115854819Y-77414285D02*
X115854819Y-77223809D01*
X115854819Y-77223809D02*
X115807200Y-77128571D01*
X115807200Y-77128571D02*
X115759580Y-77080952D01*
X115759580Y-77080952D02*
X115616723Y-76985714D01*
X115616723Y-76985714D02*
X115426247Y-76938095D01*
X115426247Y-76938095D02*
X115045295Y-76938095D01*
X115045295Y-76938095D02*
X114950057Y-76985714D01*
X114950057Y-76985714D02*
X114902438Y-77033333D01*
X114902438Y-77033333D02*
X114854819Y-77128571D01*
X114854819Y-77128571D02*
X114854819Y-77319047D01*
X114854819Y-77319047D02*
X114902438Y-77414285D01*
X114902438Y-77414285D02*
X114950057Y-77461904D01*
X114950057Y-77461904D02*
X115045295Y-77509523D01*
X115045295Y-77509523D02*
X115283390Y-77509523D01*
X115283390Y-77509523D02*
X115378628Y-77461904D01*
X115378628Y-77461904D02*
X115426247Y-77414285D01*
X115426247Y-77414285D02*
X115473866Y-77319047D01*
X115473866Y-77319047D02*
X115473866Y-77128571D01*
X115473866Y-77128571D02*
X115426247Y-77033333D01*
X115426247Y-77033333D02*
X115378628Y-76985714D01*
X115378628Y-76985714D02*
X115283390Y-76938095D01*
X101607142Y-86704819D02*
X101273809Y-86228628D01*
X101035714Y-86704819D02*
X101035714Y-85704819D01*
X101035714Y-85704819D02*
X101416666Y-85704819D01*
X101416666Y-85704819D02*
X101511904Y-85752438D01*
X101511904Y-85752438D02*
X101559523Y-85800057D01*
X101559523Y-85800057D02*
X101607142Y-85895295D01*
X101607142Y-85895295D02*
X101607142Y-86038152D01*
X101607142Y-86038152D02*
X101559523Y-86133390D01*
X101559523Y-86133390D02*
X101511904Y-86181009D01*
X101511904Y-86181009D02*
X101416666Y-86228628D01*
X101416666Y-86228628D02*
X101035714Y-86228628D01*
X102559523Y-86704819D02*
X101988095Y-86704819D01*
X102273809Y-86704819D02*
X102273809Y-85704819D01*
X102273809Y-85704819D02*
X102178571Y-85847676D01*
X102178571Y-85847676D02*
X102083333Y-85942914D01*
X102083333Y-85942914D02*
X101988095Y-85990533D01*
X103130952Y-86133390D02*
X103035714Y-86085771D01*
X103035714Y-86085771D02*
X102988095Y-86038152D01*
X102988095Y-86038152D02*
X102940476Y-85942914D01*
X102940476Y-85942914D02*
X102940476Y-85895295D01*
X102940476Y-85895295D02*
X102988095Y-85800057D01*
X102988095Y-85800057D02*
X103035714Y-85752438D01*
X103035714Y-85752438D02*
X103130952Y-85704819D01*
X103130952Y-85704819D02*
X103321428Y-85704819D01*
X103321428Y-85704819D02*
X103416666Y-85752438D01*
X103416666Y-85752438D02*
X103464285Y-85800057D01*
X103464285Y-85800057D02*
X103511904Y-85895295D01*
X103511904Y-85895295D02*
X103511904Y-85942914D01*
X103511904Y-85942914D02*
X103464285Y-86038152D01*
X103464285Y-86038152D02*
X103416666Y-86085771D01*
X103416666Y-86085771D02*
X103321428Y-86133390D01*
X103321428Y-86133390D02*
X103130952Y-86133390D01*
X103130952Y-86133390D02*
X103035714Y-86181009D01*
X103035714Y-86181009D02*
X102988095Y-86228628D01*
X102988095Y-86228628D02*
X102940476Y-86323866D01*
X102940476Y-86323866D02*
X102940476Y-86514342D01*
X102940476Y-86514342D02*
X102988095Y-86609580D01*
X102988095Y-86609580D02*
X103035714Y-86657200D01*
X103035714Y-86657200D02*
X103130952Y-86704819D01*
X103130952Y-86704819D02*
X103321428Y-86704819D01*
X103321428Y-86704819D02*
X103416666Y-86657200D01*
X103416666Y-86657200D02*
X103464285Y-86609580D01*
X103464285Y-86609580D02*
X103511904Y-86514342D01*
X103511904Y-86514342D02*
X103511904Y-86323866D01*
X103511904Y-86323866D02*
X103464285Y-86228628D01*
X103464285Y-86228628D02*
X103416666Y-86181009D01*
X103416666Y-86181009D02*
X103321428Y-86133390D01*
X101333333Y-64609580D02*
X101285714Y-64657200D01*
X101285714Y-64657200D02*
X101142857Y-64704819D01*
X101142857Y-64704819D02*
X101047619Y-64704819D01*
X101047619Y-64704819D02*
X100904762Y-64657200D01*
X100904762Y-64657200D02*
X100809524Y-64561961D01*
X100809524Y-64561961D02*
X100761905Y-64466723D01*
X100761905Y-64466723D02*
X100714286Y-64276247D01*
X100714286Y-64276247D02*
X100714286Y-64133390D01*
X100714286Y-64133390D02*
X100761905Y-63942914D01*
X100761905Y-63942914D02*
X100809524Y-63847676D01*
X100809524Y-63847676D02*
X100904762Y-63752438D01*
X100904762Y-63752438D02*
X101047619Y-63704819D01*
X101047619Y-63704819D02*
X101142857Y-63704819D01*
X101142857Y-63704819D02*
X101285714Y-63752438D01*
X101285714Y-63752438D02*
X101333333Y-63800057D01*
X102190476Y-64038152D02*
X102190476Y-64704819D01*
X101952381Y-63657200D02*
X101714286Y-64371485D01*
X101714286Y-64371485D02*
X102333333Y-64371485D01*
X123083333Y-61954819D02*
X122750000Y-61478628D01*
X122511905Y-61954819D02*
X122511905Y-60954819D01*
X122511905Y-60954819D02*
X122892857Y-60954819D01*
X122892857Y-60954819D02*
X122988095Y-61002438D01*
X122988095Y-61002438D02*
X123035714Y-61050057D01*
X123035714Y-61050057D02*
X123083333Y-61145295D01*
X123083333Y-61145295D02*
X123083333Y-61288152D01*
X123083333Y-61288152D02*
X123035714Y-61383390D01*
X123035714Y-61383390D02*
X122988095Y-61431009D01*
X122988095Y-61431009D02*
X122892857Y-61478628D01*
X122892857Y-61478628D02*
X122511905Y-61478628D01*
X124035714Y-61954819D02*
X123464286Y-61954819D01*
X123750000Y-61954819D02*
X123750000Y-60954819D01*
X123750000Y-60954819D02*
X123654762Y-61097676D01*
X123654762Y-61097676D02*
X123559524Y-61192914D01*
X123559524Y-61192914D02*
X123464286Y-61240533D01*
X130083333Y-78359580D02*
X130035714Y-78407200D01*
X130035714Y-78407200D02*
X129892857Y-78454819D01*
X129892857Y-78454819D02*
X129797619Y-78454819D01*
X129797619Y-78454819D02*
X129654762Y-78407200D01*
X129654762Y-78407200D02*
X129559524Y-78311961D01*
X129559524Y-78311961D02*
X129511905Y-78216723D01*
X129511905Y-78216723D02*
X129464286Y-78026247D01*
X129464286Y-78026247D02*
X129464286Y-77883390D01*
X129464286Y-77883390D02*
X129511905Y-77692914D01*
X129511905Y-77692914D02*
X129559524Y-77597676D01*
X129559524Y-77597676D02*
X129654762Y-77502438D01*
X129654762Y-77502438D02*
X129797619Y-77454819D01*
X129797619Y-77454819D02*
X129892857Y-77454819D01*
X129892857Y-77454819D02*
X130035714Y-77502438D01*
X130035714Y-77502438D02*
X130083333Y-77550057D01*
X130416667Y-77454819D02*
X131083333Y-77454819D01*
X131083333Y-77454819D02*
X130654762Y-78454819D01*
X101607142Y-82204819D02*
X101273809Y-81728628D01*
X101035714Y-82204819D02*
X101035714Y-81204819D01*
X101035714Y-81204819D02*
X101416666Y-81204819D01*
X101416666Y-81204819D02*
X101511904Y-81252438D01*
X101511904Y-81252438D02*
X101559523Y-81300057D01*
X101559523Y-81300057D02*
X101607142Y-81395295D01*
X101607142Y-81395295D02*
X101607142Y-81538152D01*
X101607142Y-81538152D02*
X101559523Y-81633390D01*
X101559523Y-81633390D02*
X101511904Y-81681009D01*
X101511904Y-81681009D02*
X101416666Y-81728628D01*
X101416666Y-81728628D02*
X101035714Y-81728628D01*
X102559523Y-82204819D02*
X101988095Y-82204819D01*
X102273809Y-82204819D02*
X102273809Y-81204819D01*
X102273809Y-81204819D02*
X102178571Y-81347676D01*
X102178571Y-81347676D02*
X102083333Y-81442914D01*
X102083333Y-81442914D02*
X101988095Y-81490533D01*
X102892857Y-81204819D02*
X103559523Y-81204819D01*
X103559523Y-81204819D02*
X103130952Y-82204819D01*
X130083333Y-79859580D02*
X130035714Y-79907200D01*
X130035714Y-79907200D02*
X129892857Y-79954819D01*
X129892857Y-79954819D02*
X129797619Y-79954819D01*
X129797619Y-79954819D02*
X129654762Y-79907200D01*
X129654762Y-79907200D02*
X129559524Y-79811961D01*
X129559524Y-79811961D02*
X129511905Y-79716723D01*
X129511905Y-79716723D02*
X129464286Y-79526247D01*
X129464286Y-79526247D02*
X129464286Y-79383390D01*
X129464286Y-79383390D02*
X129511905Y-79192914D01*
X129511905Y-79192914D02*
X129559524Y-79097676D01*
X129559524Y-79097676D02*
X129654762Y-79002438D01*
X129654762Y-79002438D02*
X129797619Y-78954819D01*
X129797619Y-78954819D02*
X129892857Y-78954819D01*
X129892857Y-78954819D02*
X130035714Y-79002438D01*
X130035714Y-79002438D02*
X130083333Y-79050057D01*
X130654762Y-79383390D02*
X130559524Y-79335771D01*
X130559524Y-79335771D02*
X130511905Y-79288152D01*
X130511905Y-79288152D02*
X130464286Y-79192914D01*
X130464286Y-79192914D02*
X130464286Y-79145295D01*
X130464286Y-79145295D02*
X130511905Y-79050057D01*
X130511905Y-79050057D02*
X130559524Y-79002438D01*
X130559524Y-79002438D02*
X130654762Y-78954819D01*
X130654762Y-78954819D02*
X130845238Y-78954819D01*
X130845238Y-78954819D02*
X130940476Y-79002438D01*
X130940476Y-79002438D02*
X130988095Y-79050057D01*
X130988095Y-79050057D02*
X131035714Y-79145295D01*
X131035714Y-79145295D02*
X131035714Y-79192914D01*
X131035714Y-79192914D02*
X130988095Y-79288152D01*
X130988095Y-79288152D02*
X130940476Y-79335771D01*
X130940476Y-79335771D02*
X130845238Y-79383390D01*
X130845238Y-79383390D02*
X130654762Y-79383390D01*
X130654762Y-79383390D02*
X130559524Y-79431009D01*
X130559524Y-79431009D02*
X130511905Y-79478628D01*
X130511905Y-79478628D02*
X130464286Y-79573866D01*
X130464286Y-79573866D02*
X130464286Y-79764342D01*
X130464286Y-79764342D02*
X130511905Y-79859580D01*
X130511905Y-79859580D02*
X130559524Y-79907200D01*
X130559524Y-79907200D02*
X130654762Y-79954819D01*
X130654762Y-79954819D02*
X130845238Y-79954819D01*
X130845238Y-79954819D02*
X130940476Y-79907200D01*
X130940476Y-79907200D02*
X130988095Y-79859580D01*
X130988095Y-79859580D02*
X131035714Y-79764342D01*
X131035714Y-79764342D02*
X131035714Y-79573866D01*
X131035714Y-79573866D02*
X130988095Y-79478628D01*
X130988095Y-79478628D02*
X130940476Y-79431009D01*
X130940476Y-79431009D02*
X130845238Y-79383390D01*
X137875595Y-86954819D02*
X137875595Y-87764342D01*
X137875595Y-87764342D02*
X137923214Y-87859580D01*
X137923214Y-87859580D02*
X137970833Y-87907200D01*
X137970833Y-87907200D02*
X138066071Y-87954819D01*
X138066071Y-87954819D02*
X138256547Y-87954819D01*
X138256547Y-87954819D02*
X138351785Y-87907200D01*
X138351785Y-87907200D02*
X138399404Y-87859580D01*
X138399404Y-87859580D02*
X138447023Y-87764342D01*
X138447023Y-87764342D02*
X138447023Y-86954819D01*
X139066071Y-87383390D02*
X138970833Y-87335771D01*
X138970833Y-87335771D02*
X138923214Y-87288152D01*
X138923214Y-87288152D02*
X138875595Y-87192914D01*
X138875595Y-87192914D02*
X138875595Y-87145295D01*
X138875595Y-87145295D02*
X138923214Y-87050057D01*
X138923214Y-87050057D02*
X138970833Y-87002438D01*
X138970833Y-87002438D02*
X139066071Y-86954819D01*
X139066071Y-86954819D02*
X139256547Y-86954819D01*
X139256547Y-86954819D02*
X139351785Y-87002438D01*
X139351785Y-87002438D02*
X139399404Y-87050057D01*
X139399404Y-87050057D02*
X139447023Y-87145295D01*
X139447023Y-87145295D02*
X139447023Y-87192914D01*
X139447023Y-87192914D02*
X139399404Y-87288152D01*
X139399404Y-87288152D02*
X139351785Y-87335771D01*
X139351785Y-87335771D02*
X139256547Y-87383390D01*
X139256547Y-87383390D02*
X139066071Y-87383390D01*
X139066071Y-87383390D02*
X138970833Y-87431009D01*
X138970833Y-87431009D02*
X138923214Y-87478628D01*
X138923214Y-87478628D02*
X138875595Y-87573866D01*
X138875595Y-87573866D02*
X138875595Y-87764342D01*
X138875595Y-87764342D02*
X138923214Y-87859580D01*
X138923214Y-87859580D02*
X138970833Y-87907200D01*
X138970833Y-87907200D02*
X139066071Y-87954819D01*
X139066071Y-87954819D02*
X139256547Y-87954819D01*
X139256547Y-87954819D02*
X139351785Y-87907200D01*
X139351785Y-87907200D02*
X139399404Y-87859580D01*
X139399404Y-87859580D02*
X139447023Y-87764342D01*
X139447023Y-87764342D02*
X139447023Y-87573866D01*
X139447023Y-87573866D02*
X139399404Y-87478628D01*
X139399404Y-87478628D02*
X139351785Y-87431009D01*
X139351785Y-87431009D02*
X139256547Y-87383390D01*
X116954819Y-84642857D02*
X116478628Y-84976190D01*
X116954819Y-85214285D02*
X115954819Y-85214285D01*
X115954819Y-85214285D02*
X115954819Y-84833333D01*
X115954819Y-84833333D02*
X116002438Y-84738095D01*
X116002438Y-84738095D02*
X116050057Y-84690476D01*
X116050057Y-84690476D02*
X116145295Y-84642857D01*
X116145295Y-84642857D02*
X116288152Y-84642857D01*
X116288152Y-84642857D02*
X116383390Y-84690476D01*
X116383390Y-84690476D02*
X116431009Y-84738095D01*
X116431009Y-84738095D02*
X116478628Y-84833333D01*
X116478628Y-84833333D02*
X116478628Y-85214285D01*
X116050057Y-84261904D02*
X116002438Y-84214285D01*
X116002438Y-84214285D02*
X115954819Y-84119047D01*
X115954819Y-84119047D02*
X115954819Y-83880952D01*
X115954819Y-83880952D02*
X116002438Y-83785714D01*
X116002438Y-83785714D02*
X116050057Y-83738095D01*
X116050057Y-83738095D02*
X116145295Y-83690476D01*
X116145295Y-83690476D02*
X116240533Y-83690476D01*
X116240533Y-83690476D02*
X116383390Y-83738095D01*
X116383390Y-83738095D02*
X116954819Y-84309523D01*
X116954819Y-84309523D02*
X116954819Y-83690476D01*
X116050057Y-83309523D02*
X116002438Y-83261904D01*
X116002438Y-83261904D02*
X115954819Y-83166666D01*
X115954819Y-83166666D02*
X115954819Y-82928571D01*
X115954819Y-82928571D02*
X116002438Y-82833333D01*
X116002438Y-82833333D02*
X116050057Y-82785714D01*
X116050057Y-82785714D02*
X116145295Y-82738095D01*
X116145295Y-82738095D02*
X116240533Y-82738095D01*
X116240533Y-82738095D02*
X116383390Y-82785714D01*
X116383390Y-82785714D02*
X116954819Y-83357142D01*
X116954819Y-83357142D02*
X116954819Y-82738095D01*
X126838095Y-85054819D02*
X126838095Y-85864342D01*
X126838095Y-85864342D02*
X126885714Y-85959580D01*
X126885714Y-85959580D02*
X126933333Y-86007200D01*
X126933333Y-86007200D02*
X127028571Y-86054819D01*
X127028571Y-86054819D02*
X127219047Y-86054819D01*
X127219047Y-86054819D02*
X127314285Y-86007200D01*
X127314285Y-86007200D02*
X127361904Y-85959580D01*
X127361904Y-85959580D02*
X127409523Y-85864342D01*
X127409523Y-85864342D02*
X127409523Y-85054819D01*
X127790476Y-85054819D02*
X128457142Y-85054819D01*
X128457142Y-85054819D02*
X128028571Y-86054819D01*
X127179761Y-55650057D02*
X127084523Y-55602438D01*
X127084523Y-55602438D02*
X126989285Y-55507200D01*
X126989285Y-55507200D02*
X126846428Y-55364342D01*
X126846428Y-55364342D02*
X126751190Y-55316723D01*
X126751190Y-55316723D02*
X126655952Y-55316723D01*
X126703571Y-55554819D02*
X126608333Y-55507200D01*
X126608333Y-55507200D02*
X126513095Y-55411961D01*
X126513095Y-55411961D02*
X126465476Y-55221485D01*
X126465476Y-55221485D02*
X126465476Y-54888152D01*
X126465476Y-54888152D02*
X126513095Y-54697676D01*
X126513095Y-54697676D02*
X126608333Y-54602438D01*
X126608333Y-54602438D02*
X126703571Y-54554819D01*
X126703571Y-54554819D02*
X126894047Y-54554819D01*
X126894047Y-54554819D02*
X126989285Y-54602438D01*
X126989285Y-54602438D02*
X127084523Y-54697676D01*
X127084523Y-54697676D02*
X127132142Y-54888152D01*
X127132142Y-54888152D02*
X127132142Y-55221485D01*
X127132142Y-55221485D02*
X127084523Y-55411961D01*
X127084523Y-55411961D02*
X126989285Y-55507200D01*
X126989285Y-55507200D02*
X126894047Y-55554819D01*
X126894047Y-55554819D02*
X126703571Y-55554819D01*
X127465476Y-54554819D02*
X128084523Y-54554819D01*
X128084523Y-54554819D02*
X127751190Y-54935771D01*
X127751190Y-54935771D02*
X127894047Y-54935771D01*
X127894047Y-54935771D02*
X127989285Y-54983390D01*
X127989285Y-54983390D02*
X128036904Y-55031009D01*
X128036904Y-55031009D02*
X128084523Y-55126247D01*
X128084523Y-55126247D02*
X128084523Y-55364342D01*
X128084523Y-55364342D02*
X128036904Y-55459580D01*
X128036904Y-55459580D02*
X127989285Y-55507200D01*
X127989285Y-55507200D02*
X127894047Y-55554819D01*
X127894047Y-55554819D02*
X127608333Y-55554819D01*
X127608333Y-55554819D02*
X127513095Y-55507200D01*
X127513095Y-55507200D02*
X127465476Y-55459580D01*
X101607142Y-79204819D02*
X101273809Y-78728628D01*
X101035714Y-79204819D02*
X101035714Y-78204819D01*
X101035714Y-78204819D02*
X101416666Y-78204819D01*
X101416666Y-78204819D02*
X101511904Y-78252438D01*
X101511904Y-78252438D02*
X101559523Y-78300057D01*
X101559523Y-78300057D02*
X101607142Y-78395295D01*
X101607142Y-78395295D02*
X101607142Y-78538152D01*
X101607142Y-78538152D02*
X101559523Y-78633390D01*
X101559523Y-78633390D02*
X101511904Y-78681009D01*
X101511904Y-78681009D02*
X101416666Y-78728628D01*
X101416666Y-78728628D02*
X101035714Y-78728628D01*
X102559523Y-79204819D02*
X101988095Y-79204819D01*
X102273809Y-79204819D02*
X102273809Y-78204819D01*
X102273809Y-78204819D02*
X102178571Y-78347676D01*
X102178571Y-78347676D02*
X102083333Y-78442914D01*
X102083333Y-78442914D02*
X101988095Y-78490533D01*
X103178571Y-78204819D02*
X103273809Y-78204819D01*
X103273809Y-78204819D02*
X103369047Y-78252438D01*
X103369047Y-78252438D02*
X103416666Y-78300057D01*
X103416666Y-78300057D02*
X103464285Y-78395295D01*
X103464285Y-78395295D02*
X103511904Y-78585771D01*
X103511904Y-78585771D02*
X103511904Y-78823866D01*
X103511904Y-78823866D02*
X103464285Y-79014342D01*
X103464285Y-79014342D02*
X103416666Y-79109580D01*
X103416666Y-79109580D02*
X103369047Y-79157200D01*
X103369047Y-79157200D02*
X103273809Y-79204819D01*
X103273809Y-79204819D02*
X103178571Y-79204819D01*
X103178571Y-79204819D02*
X103083333Y-79157200D01*
X103083333Y-79157200D02*
X103035714Y-79109580D01*
X103035714Y-79109580D02*
X102988095Y-79014342D01*
X102988095Y-79014342D02*
X102940476Y-78823866D01*
X102940476Y-78823866D02*
X102940476Y-78585771D01*
X102940476Y-78585771D02*
X102988095Y-78395295D01*
X102988095Y-78395295D02*
X103035714Y-78300057D01*
X103035714Y-78300057D02*
X103083333Y-78252438D01*
X103083333Y-78252438D02*
X103178571Y-78204819D01*
X142434819Y-83842857D02*
X141958628Y-84176190D01*
X142434819Y-84414285D02*
X141434819Y-84414285D01*
X141434819Y-84414285D02*
X141434819Y-84033333D01*
X141434819Y-84033333D02*
X141482438Y-83938095D01*
X141482438Y-83938095D02*
X141530057Y-83890476D01*
X141530057Y-83890476D02*
X141625295Y-83842857D01*
X141625295Y-83842857D02*
X141768152Y-83842857D01*
X141768152Y-83842857D02*
X141863390Y-83890476D01*
X141863390Y-83890476D02*
X141911009Y-83938095D01*
X141911009Y-83938095D02*
X141958628Y-84033333D01*
X141958628Y-84033333D02*
X141958628Y-84414285D01*
X142434819Y-82890476D02*
X142434819Y-83461904D01*
X142434819Y-83176190D02*
X141434819Y-83176190D01*
X141434819Y-83176190D02*
X141577676Y-83271428D01*
X141577676Y-83271428D02*
X141672914Y-83366666D01*
X141672914Y-83366666D02*
X141720533Y-83461904D01*
X142434819Y-82414285D02*
X142434819Y-82223809D01*
X142434819Y-82223809D02*
X142387200Y-82128571D01*
X142387200Y-82128571D02*
X142339580Y-82080952D01*
X142339580Y-82080952D02*
X142196723Y-81985714D01*
X142196723Y-81985714D02*
X142006247Y-81938095D01*
X142006247Y-81938095D02*
X141625295Y-81938095D01*
X141625295Y-81938095D02*
X141530057Y-81985714D01*
X141530057Y-81985714D02*
X141482438Y-82033333D01*
X141482438Y-82033333D02*
X141434819Y-82128571D01*
X141434819Y-82128571D02*
X141434819Y-82319047D01*
X141434819Y-82319047D02*
X141482438Y-82414285D01*
X141482438Y-82414285D02*
X141530057Y-82461904D01*
X141530057Y-82461904D02*
X141625295Y-82509523D01*
X141625295Y-82509523D02*
X141863390Y-82509523D01*
X141863390Y-82509523D02*
X141958628Y-82461904D01*
X141958628Y-82461904D02*
X142006247Y-82414285D01*
X142006247Y-82414285D02*
X142053866Y-82319047D01*
X142053866Y-82319047D02*
X142053866Y-82128571D01*
X142053866Y-82128571D02*
X142006247Y-82033333D01*
X142006247Y-82033333D02*
X141958628Y-81985714D01*
X141958628Y-81985714D02*
X141863390Y-81938095D01*
X114609580Y-70166666D02*
X114657200Y-70214285D01*
X114657200Y-70214285D02*
X114704819Y-70357142D01*
X114704819Y-70357142D02*
X114704819Y-70452380D01*
X114704819Y-70452380D02*
X114657200Y-70595237D01*
X114657200Y-70595237D02*
X114561961Y-70690475D01*
X114561961Y-70690475D02*
X114466723Y-70738094D01*
X114466723Y-70738094D02*
X114276247Y-70785713D01*
X114276247Y-70785713D02*
X114133390Y-70785713D01*
X114133390Y-70785713D02*
X113942914Y-70738094D01*
X113942914Y-70738094D02*
X113847676Y-70690475D01*
X113847676Y-70690475D02*
X113752438Y-70595237D01*
X113752438Y-70595237D02*
X113704819Y-70452380D01*
X113704819Y-70452380D02*
X113704819Y-70357142D01*
X113704819Y-70357142D02*
X113752438Y-70214285D01*
X113752438Y-70214285D02*
X113800057Y-70166666D01*
X113704819Y-69261904D02*
X113704819Y-69738094D01*
X113704819Y-69738094D02*
X114181009Y-69785713D01*
X114181009Y-69785713D02*
X114133390Y-69738094D01*
X114133390Y-69738094D02*
X114085771Y-69642856D01*
X114085771Y-69642856D02*
X114085771Y-69404761D01*
X114085771Y-69404761D02*
X114133390Y-69309523D01*
X114133390Y-69309523D02*
X114181009Y-69261904D01*
X114181009Y-69261904D02*
X114276247Y-69214285D01*
X114276247Y-69214285D02*
X114514342Y-69214285D01*
X114514342Y-69214285D02*
X114609580Y-69261904D01*
X114609580Y-69261904D02*
X114657200Y-69309523D01*
X114657200Y-69309523D02*
X114704819Y-69404761D01*
X114704819Y-69404761D02*
X114704819Y-69642856D01*
X114704819Y-69642856D02*
X114657200Y-69738094D01*
X114657200Y-69738094D02*
X114609580Y-69785713D01*
X108254819Y-98038094D02*
X109064342Y-98038094D01*
X109064342Y-98038094D02*
X109159580Y-97990475D01*
X109159580Y-97990475D02*
X109207200Y-97942856D01*
X109207200Y-97942856D02*
X109254819Y-97847618D01*
X109254819Y-97847618D02*
X109254819Y-97657142D01*
X109254819Y-97657142D02*
X109207200Y-97561904D01*
X109207200Y-97561904D02*
X109159580Y-97514285D01*
X109159580Y-97514285D02*
X109064342Y-97466666D01*
X109064342Y-97466666D02*
X108254819Y-97466666D01*
X109254819Y-96466666D02*
X109254819Y-97038094D01*
X109254819Y-96752380D02*
X108254819Y-96752380D01*
X108254819Y-96752380D02*
X108397676Y-96847618D01*
X108397676Y-96847618D02*
X108492914Y-96942856D01*
X108492914Y-96942856D02*
X108540533Y-97038094D01*
X108254819Y-95847618D02*
X108254819Y-95752380D01*
X108254819Y-95752380D02*
X108302438Y-95657142D01*
X108302438Y-95657142D02*
X108350057Y-95609523D01*
X108350057Y-95609523D02*
X108445295Y-95561904D01*
X108445295Y-95561904D02*
X108635771Y-95514285D01*
X108635771Y-95514285D02*
X108873866Y-95514285D01*
X108873866Y-95514285D02*
X109064342Y-95561904D01*
X109064342Y-95561904D02*
X109159580Y-95609523D01*
X109159580Y-95609523D02*
X109207200Y-95657142D01*
X109207200Y-95657142D02*
X109254819Y-95752380D01*
X109254819Y-95752380D02*
X109254819Y-95847618D01*
X109254819Y-95847618D02*
X109207200Y-95942856D01*
X109207200Y-95942856D02*
X109159580Y-95990475D01*
X109159580Y-95990475D02*
X109064342Y-96038094D01*
X109064342Y-96038094D02*
X108873866Y-96085713D01*
X108873866Y-96085713D02*
X108635771Y-96085713D01*
X108635771Y-96085713D02*
X108445295Y-96038094D01*
X108445295Y-96038094D02*
X108350057Y-95990475D01*
X108350057Y-95990475D02*
X108302438Y-95942856D01*
X108302438Y-95942856D02*
X108254819Y-95847618D01*
X101607142Y-85204819D02*
X101273809Y-84728628D01*
X101035714Y-85204819D02*
X101035714Y-84204819D01*
X101035714Y-84204819D02*
X101416666Y-84204819D01*
X101416666Y-84204819D02*
X101511904Y-84252438D01*
X101511904Y-84252438D02*
X101559523Y-84300057D01*
X101559523Y-84300057D02*
X101607142Y-84395295D01*
X101607142Y-84395295D02*
X101607142Y-84538152D01*
X101607142Y-84538152D02*
X101559523Y-84633390D01*
X101559523Y-84633390D02*
X101511904Y-84681009D01*
X101511904Y-84681009D02*
X101416666Y-84728628D01*
X101416666Y-84728628D02*
X101035714Y-84728628D01*
X102559523Y-85204819D02*
X101988095Y-85204819D01*
X102273809Y-85204819D02*
X102273809Y-84204819D01*
X102273809Y-84204819D02*
X102178571Y-84347676D01*
X102178571Y-84347676D02*
X102083333Y-84442914D01*
X102083333Y-84442914D02*
X101988095Y-84490533D01*
X103416666Y-84538152D02*
X103416666Y-85204819D01*
X103178571Y-84157200D02*
X102940476Y-84871485D01*
X102940476Y-84871485D02*
X103559523Y-84871485D01*
X108083333Y-83204819D02*
X107750000Y-82728628D01*
X107511905Y-83204819D02*
X107511905Y-82204819D01*
X107511905Y-82204819D02*
X107892857Y-82204819D01*
X107892857Y-82204819D02*
X107988095Y-82252438D01*
X107988095Y-82252438D02*
X108035714Y-82300057D01*
X108035714Y-82300057D02*
X108083333Y-82395295D01*
X108083333Y-82395295D02*
X108083333Y-82538152D01*
X108083333Y-82538152D02*
X108035714Y-82633390D01*
X108035714Y-82633390D02*
X107988095Y-82681009D01*
X107988095Y-82681009D02*
X107892857Y-82728628D01*
X107892857Y-82728628D02*
X107511905Y-82728628D01*
X108940476Y-82204819D02*
X108750000Y-82204819D01*
X108750000Y-82204819D02*
X108654762Y-82252438D01*
X108654762Y-82252438D02*
X108607143Y-82300057D01*
X108607143Y-82300057D02*
X108511905Y-82442914D01*
X108511905Y-82442914D02*
X108464286Y-82633390D01*
X108464286Y-82633390D02*
X108464286Y-83014342D01*
X108464286Y-83014342D02*
X108511905Y-83109580D01*
X108511905Y-83109580D02*
X108559524Y-83157200D01*
X108559524Y-83157200D02*
X108654762Y-83204819D01*
X108654762Y-83204819D02*
X108845238Y-83204819D01*
X108845238Y-83204819D02*
X108940476Y-83157200D01*
X108940476Y-83157200D02*
X108988095Y-83109580D01*
X108988095Y-83109580D02*
X109035714Y-83014342D01*
X109035714Y-83014342D02*
X109035714Y-82776247D01*
X109035714Y-82776247D02*
X108988095Y-82681009D01*
X108988095Y-82681009D02*
X108940476Y-82633390D01*
X108940476Y-82633390D02*
X108845238Y-82585771D01*
X108845238Y-82585771D02*
X108654762Y-82585771D01*
X108654762Y-82585771D02*
X108559524Y-82633390D01*
X108559524Y-82633390D02*
X108511905Y-82681009D01*
X108511905Y-82681009D02*
X108464286Y-82776247D01*
X121261905Y-83854819D02*
X121261905Y-82854819D01*
X121261905Y-82854819D02*
X121500000Y-82854819D01*
X121500000Y-82854819D02*
X121642857Y-82902438D01*
X121642857Y-82902438D02*
X121738095Y-82997676D01*
X121738095Y-82997676D02*
X121785714Y-83092914D01*
X121785714Y-83092914D02*
X121833333Y-83283390D01*
X121833333Y-83283390D02*
X121833333Y-83426247D01*
X121833333Y-83426247D02*
X121785714Y-83616723D01*
X121785714Y-83616723D02*
X121738095Y-83711961D01*
X121738095Y-83711961D02*
X121642857Y-83807200D01*
X121642857Y-83807200D02*
X121500000Y-83854819D01*
X121500000Y-83854819D02*
X121261905Y-83854819D01*
X122785714Y-83854819D02*
X122214286Y-83854819D01*
X122500000Y-83854819D02*
X122500000Y-82854819D01*
X122500000Y-82854819D02*
X122404762Y-82997676D01*
X122404762Y-82997676D02*
X122309524Y-83092914D01*
X122309524Y-83092914D02*
X122214286Y-83140533D01*
X109238095Y-51954819D02*
X109238095Y-52764342D01*
X109238095Y-52764342D02*
X109285714Y-52859580D01*
X109285714Y-52859580D02*
X109333333Y-52907200D01*
X109333333Y-52907200D02*
X109428571Y-52954819D01*
X109428571Y-52954819D02*
X109619047Y-52954819D01*
X109619047Y-52954819D02*
X109714285Y-52907200D01*
X109714285Y-52907200D02*
X109761904Y-52859580D01*
X109761904Y-52859580D02*
X109809523Y-52764342D01*
X109809523Y-52764342D02*
X109809523Y-51954819D01*
X110714285Y-52288152D02*
X110714285Y-52954819D01*
X110476190Y-51907200D02*
X110238095Y-52621485D01*
X110238095Y-52621485D02*
X110857142Y-52621485D01*
X131109580Y-63642857D02*
X131157200Y-63690476D01*
X131157200Y-63690476D02*
X131204819Y-63833333D01*
X131204819Y-63833333D02*
X131204819Y-63928571D01*
X131204819Y-63928571D02*
X131157200Y-64071428D01*
X131157200Y-64071428D02*
X131061961Y-64166666D01*
X131061961Y-64166666D02*
X130966723Y-64214285D01*
X130966723Y-64214285D02*
X130776247Y-64261904D01*
X130776247Y-64261904D02*
X130633390Y-64261904D01*
X130633390Y-64261904D02*
X130442914Y-64214285D01*
X130442914Y-64214285D02*
X130347676Y-64166666D01*
X130347676Y-64166666D02*
X130252438Y-64071428D01*
X130252438Y-64071428D02*
X130204819Y-63928571D01*
X130204819Y-63928571D02*
X130204819Y-63833333D01*
X130204819Y-63833333D02*
X130252438Y-63690476D01*
X130252438Y-63690476D02*
X130300057Y-63642857D01*
X131204819Y-62690476D02*
X131204819Y-63261904D01*
X131204819Y-62976190D02*
X130204819Y-62976190D01*
X130204819Y-62976190D02*
X130347676Y-63071428D01*
X130347676Y-63071428D02*
X130442914Y-63166666D01*
X130442914Y-63166666D02*
X130490533Y-63261904D01*
X130204819Y-62071428D02*
X130204819Y-61976190D01*
X130204819Y-61976190D02*
X130252438Y-61880952D01*
X130252438Y-61880952D02*
X130300057Y-61833333D01*
X130300057Y-61833333D02*
X130395295Y-61785714D01*
X130395295Y-61785714D02*
X130585771Y-61738095D01*
X130585771Y-61738095D02*
X130823866Y-61738095D01*
X130823866Y-61738095D02*
X131014342Y-61785714D01*
X131014342Y-61785714D02*
X131109580Y-61833333D01*
X131109580Y-61833333D02*
X131157200Y-61880952D01*
X131157200Y-61880952D02*
X131204819Y-61976190D01*
X131204819Y-61976190D02*
X131204819Y-62071428D01*
X131204819Y-62071428D02*
X131157200Y-62166666D01*
X131157200Y-62166666D02*
X131109580Y-62214285D01*
X131109580Y-62214285D02*
X131014342Y-62261904D01*
X131014342Y-62261904D02*
X130823866Y-62309523D01*
X130823866Y-62309523D02*
X130585771Y-62309523D01*
X130585771Y-62309523D02*
X130395295Y-62261904D01*
X130395295Y-62261904D02*
X130300057Y-62214285D01*
X130300057Y-62214285D02*
X130252438Y-62166666D01*
X130252438Y-62166666D02*
X130204819Y-62071428D01*
X109154761Y-60650057D02*
X109059523Y-60602438D01*
X109059523Y-60602438D02*
X108964285Y-60507200D01*
X108964285Y-60507200D02*
X108821428Y-60364342D01*
X108821428Y-60364342D02*
X108726190Y-60316723D01*
X108726190Y-60316723D02*
X108630952Y-60316723D01*
X108678571Y-60554819D02*
X108583333Y-60507200D01*
X108583333Y-60507200D02*
X108488095Y-60411961D01*
X108488095Y-60411961D02*
X108440476Y-60221485D01*
X108440476Y-60221485D02*
X108440476Y-59888152D01*
X108440476Y-59888152D02*
X108488095Y-59697676D01*
X108488095Y-59697676D02*
X108583333Y-59602438D01*
X108583333Y-59602438D02*
X108678571Y-59554819D01*
X108678571Y-59554819D02*
X108869047Y-59554819D01*
X108869047Y-59554819D02*
X108964285Y-59602438D01*
X108964285Y-59602438D02*
X109059523Y-59697676D01*
X109059523Y-59697676D02*
X109107142Y-59888152D01*
X109107142Y-59888152D02*
X109107142Y-60221485D01*
X109107142Y-60221485D02*
X109059523Y-60411961D01*
X109059523Y-60411961D02*
X108964285Y-60507200D01*
X108964285Y-60507200D02*
X108869047Y-60554819D01*
X108869047Y-60554819D02*
X108678571Y-60554819D01*
X110059523Y-60554819D02*
X109488095Y-60554819D01*
X109773809Y-60554819D02*
X109773809Y-59554819D01*
X109773809Y-59554819D02*
X109678571Y-59697676D01*
X109678571Y-59697676D02*
X109583333Y-59792914D01*
X109583333Y-59792914D02*
X109488095Y-59840533D01*
X146857142Y-75109580D02*
X146809523Y-75157200D01*
X146809523Y-75157200D02*
X146666666Y-75204819D01*
X146666666Y-75204819D02*
X146571428Y-75204819D01*
X146571428Y-75204819D02*
X146428571Y-75157200D01*
X146428571Y-75157200D02*
X146333333Y-75061961D01*
X146333333Y-75061961D02*
X146285714Y-74966723D01*
X146285714Y-74966723D02*
X146238095Y-74776247D01*
X146238095Y-74776247D02*
X146238095Y-74633390D01*
X146238095Y-74633390D02*
X146285714Y-74442914D01*
X146285714Y-74442914D02*
X146333333Y-74347676D01*
X146333333Y-74347676D02*
X146428571Y-74252438D01*
X146428571Y-74252438D02*
X146571428Y-74204819D01*
X146571428Y-74204819D02*
X146666666Y-74204819D01*
X146666666Y-74204819D02*
X146809523Y-74252438D01*
X146809523Y-74252438D02*
X146857142Y-74300057D01*
X147809523Y-75204819D02*
X147238095Y-75204819D01*
X147523809Y-75204819D02*
X147523809Y-74204819D01*
X147523809Y-74204819D02*
X147428571Y-74347676D01*
X147428571Y-74347676D02*
X147333333Y-74442914D01*
X147333333Y-74442914D02*
X147238095Y-74490533D01*
X148714285Y-74204819D02*
X148238095Y-74204819D01*
X148238095Y-74204819D02*
X148190476Y-74681009D01*
X148190476Y-74681009D02*
X148238095Y-74633390D01*
X148238095Y-74633390D02*
X148333333Y-74585771D01*
X148333333Y-74585771D02*
X148571428Y-74585771D01*
X148571428Y-74585771D02*
X148666666Y-74633390D01*
X148666666Y-74633390D02*
X148714285Y-74681009D01*
X148714285Y-74681009D02*
X148761904Y-74776247D01*
X148761904Y-74776247D02*
X148761904Y-75014342D01*
X148761904Y-75014342D02*
X148714285Y-75109580D01*
X148714285Y-75109580D02*
X148666666Y-75157200D01*
X148666666Y-75157200D02*
X148571428Y-75204819D01*
X148571428Y-75204819D02*
X148333333Y-75204819D01*
X148333333Y-75204819D02*
X148238095Y-75157200D01*
X148238095Y-75157200D02*
X148190476Y-75109580D01*
X108988095Y-71954819D02*
X108988095Y-72764342D01*
X108988095Y-72764342D02*
X109035714Y-72859580D01*
X109035714Y-72859580D02*
X109083333Y-72907200D01*
X109083333Y-72907200D02*
X109178571Y-72954819D01*
X109178571Y-72954819D02*
X109369047Y-72954819D01*
X109369047Y-72954819D02*
X109464285Y-72907200D01*
X109464285Y-72907200D02*
X109511904Y-72859580D01*
X109511904Y-72859580D02*
X109559523Y-72764342D01*
X109559523Y-72764342D02*
X109559523Y-71954819D01*
X109940476Y-71954819D02*
X110559523Y-71954819D01*
X110559523Y-71954819D02*
X110226190Y-72335771D01*
X110226190Y-72335771D02*
X110369047Y-72335771D01*
X110369047Y-72335771D02*
X110464285Y-72383390D01*
X110464285Y-72383390D02*
X110511904Y-72431009D01*
X110511904Y-72431009D02*
X110559523Y-72526247D01*
X110559523Y-72526247D02*
X110559523Y-72764342D01*
X110559523Y-72764342D02*
X110511904Y-72859580D01*
X110511904Y-72859580D02*
X110464285Y-72907200D01*
X110464285Y-72907200D02*
X110369047Y-72954819D01*
X110369047Y-72954819D02*
X110083333Y-72954819D01*
X110083333Y-72954819D02*
X109988095Y-72907200D01*
X109988095Y-72907200D02*
X109940476Y-72859580D01*
X122233333Y-82359580D02*
X122185714Y-82407200D01*
X122185714Y-82407200D02*
X122042857Y-82454819D01*
X122042857Y-82454819D02*
X121947619Y-82454819D01*
X121947619Y-82454819D02*
X121804762Y-82407200D01*
X121804762Y-82407200D02*
X121709524Y-82311961D01*
X121709524Y-82311961D02*
X121661905Y-82216723D01*
X121661905Y-82216723D02*
X121614286Y-82026247D01*
X121614286Y-82026247D02*
X121614286Y-81883390D01*
X121614286Y-81883390D02*
X121661905Y-81692914D01*
X121661905Y-81692914D02*
X121709524Y-81597676D01*
X121709524Y-81597676D02*
X121804762Y-81502438D01*
X121804762Y-81502438D02*
X121947619Y-81454819D01*
X121947619Y-81454819D02*
X122042857Y-81454819D01*
X122042857Y-81454819D02*
X122185714Y-81502438D01*
X122185714Y-81502438D02*
X122233333Y-81550057D01*
X123185714Y-82454819D02*
X122614286Y-82454819D01*
X122900000Y-82454819D02*
X122900000Y-81454819D01*
X122900000Y-81454819D02*
X122804762Y-81597676D01*
X122804762Y-81597676D02*
X122709524Y-81692914D01*
X122709524Y-81692914D02*
X122614286Y-81740533D01*
X132559580Y-70042857D02*
X132607200Y-70090476D01*
X132607200Y-70090476D02*
X132654819Y-70233333D01*
X132654819Y-70233333D02*
X132654819Y-70328571D01*
X132654819Y-70328571D02*
X132607200Y-70471428D01*
X132607200Y-70471428D02*
X132511961Y-70566666D01*
X132511961Y-70566666D02*
X132416723Y-70614285D01*
X132416723Y-70614285D02*
X132226247Y-70661904D01*
X132226247Y-70661904D02*
X132083390Y-70661904D01*
X132083390Y-70661904D02*
X131892914Y-70614285D01*
X131892914Y-70614285D02*
X131797676Y-70566666D01*
X131797676Y-70566666D02*
X131702438Y-70471428D01*
X131702438Y-70471428D02*
X131654819Y-70328571D01*
X131654819Y-70328571D02*
X131654819Y-70233333D01*
X131654819Y-70233333D02*
X131702438Y-70090476D01*
X131702438Y-70090476D02*
X131750057Y-70042857D01*
X132654819Y-69090476D02*
X132654819Y-69661904D01*
X132654819Y-69376190D02*
X131654819Y-69376190D01*
X131654819Y-69376190D02*
X131797676Y-69471428D01*
X131797676Y-69471428D02*
X131892914Y-69566666D01*
X131892914Y-69566666D02*
X131940533Y-69661904D01*
X131654819Y-68757142D02*
X131654819Y-68090476D01*
X131654819Y-68090476D02*
X132654819Y-68519047D01*
D11*
X119109420Y-60990000D02*
X119390580Y-60990000D01*
X119109420Y-62010000D02*
X119390580Y-62010000D01*
X118140000Y-65390000D02*
X118140000Y-66340000D01*
X118140000Y-75610000D02*
X118140000Y-74660000D01*
X119090000Y-65390000D02*
X118140000Y-65390000D01*
X119090000Y-75610000D02*
X118140000Y-75610000D01*
X127410000Y-65390000D02*
X128360000Y-65390000D01*
X127410000Y-75610000D02*
X128360000Y-75610000D01*
X128360000Y-65390000D02*
X128360000Y-66340000D01*
X128360000Y-75610000D02*
X128360000Y-74660000D01*
X117525000Y-66340000D02*
X117185000Y-65870000D01*
X117865000Y-65870000D01*
X117525000Y-66340000D01*
G36*
X117525000Y-66340000D02*
G01*
X117185000Y-65870000D01*
X117865000Y-65870000D01*
X117525000Y-66340000D01*
G37*
X110987258Y-80727500D02*
X110512742Y-80727500D01*
X110987258Y-81772500D02*
X110512742Y-81772500D01*
X112512742Y-51977500D02*
X112987258Y-51977500D01*
X112512742Y-53022500D02*
X112987258Y-53022500D01*
X119477500Y-83762742D02*
X119477500Y-84237258D01*
X120522500Y-83762742D02*
X120522500Y-84237258D01*
X133840000Y-71907836D02*
X133840000Y-71692164D01*
X134560000Y-71907836D02*
X134560000Y-71692164D01*
X131740000Y-65859420D02*
X131740000Y-66140580D01*
X132760000Y-65859420D02*
X132760000Y-66140580D01*
X145890000Y-82472936D02*
X145890000Y-83927064D01*
X147710000Y-82472936D02*
X147710000Y-83927064D01*
X113727500Y-65262742D02*
X113727500Y-65737258D01*
X114772500Y-65262742D02*
X114772500Y-65737258D01*
X124609420Y-77490000D02*
X124890580Y-77490000D01*
X124609420Y-78510000D02*
X124890580Y-78510000D01*
X115240000Y-72359420D02*
X115240000Y-72640580D01*
X116260000Y-72359420D02*
X116260000Y-72640580D01*
X103115000Y-61075000D02*
X105115000Y-61075000D01*
X103125000Y-63355000D02*
X105125000Y-63355000D01*
X102755000Y-61145000D02*
X102475000Y-61145000D01*
X102755000Y-60865000D01*
X102755000Y-61145000D01*
G36*
X102755000Y-61145000D02*
G01*
X102475000Y-61145000D01*
X102755000Y-60865000D01*
X102755000Y-61145000D01*
G37*
X105487258Y-73727500D02*
X105012742Y-73727500D01*
X105487258Y-74772500D02*
X105012742Y-74772500D01*
X144800000Y-85840000D02*
X142850000Y-85840000D01*
X144800000Y-85840000D02*
X146750000Y-85840000D01*
X144800000Y-90960000D02*
X142850000Y-90960000D01*
X144800000Y-90960000D02*
X146750000Y-90960000D01*
X142100000Y-85935000D02*
X141860000Y-85605000D01*
X142340000Y-85605000D01*
X142100000Y-85935000D01*
G36*
X142100000Y-85935000D02*
G01*
X141860000Y-85605000D01*
X142340000Y-85605000D01*
X142100000Y-85935000D01*
G37*
X119109420Y-62490000D02*
X119390580Y-62490000D01*
X119109420Y-63510000D02*
X119390580Y-63510000D01*
X110390000Y-94475000D02*
X110390000Y-92275000D01*
X110390000Y-94475000D02*
X110390000Y-96675000D01*
X115610000Y-94475000D02*
X115610000Y-92275000D01*
X115610000Y-94475000D02*
X115610000Y-96675000D01*
X110590000Y-97375000D02*
X110260000Y-97615000D01*
X110260000Y-97135000D01*
X110590000Y-97375000D01*
G36*
X110590000Y-97375000D02*
G01*
X110260000Y-97615000D01*
X110260000Y-97135000D01*
X110590000Y-97375000D01*
G37*
X116840000Y-75907836D02*
X116840000Y-75692164D01*
X117560000Y-75907836D02*
X117560000Y-75692164D01*
X147640580Y-77240000D02*
X147359420Y-77240000D01*
X147640580Y-78260000D02*
X147359420Y-78260000D01*
X110987258Y-85227500D02*
X110512742Y-85227500D01*
X110987258Y-86272500D02*
X110512742Y-86272500D01*
X110987258Y-83727500D02*
X110512742Y-83727500D01*
X110987258Y-84772500D02*
X110512742Y-84772500D01*
X111000000Y-74640000D02*
X108800000Y-74640000D01*
X111000000Y-74640000D02*
X113200000Y-74640000D01*
X111000000Y-79860000D02*
X108800000Y-79860000D01*
X111000000Y-79860000D02*
X113200000Y-79860000D01*
X114140000Y-79990000D02*
X113660000Y-79990000D01*
X113900000Y-79660000D01*
X114140000Y-79990000D01*
G36*
X114140000Y-79990000D02*
G01*
X113660000Y-79990000D01*
X113900000Y-79660000D01*
X114140000Y-79990000D01*
G37*
D12*
X141750000Y-78250000D02*
X142500000Y-78250000D01*
X142500000Y-78250000D02*
X142500000Y-77500000D01*
D13*
X138250000Y-74100000D02*
X142250000Y-74100000D01*
X142250000Y-77900000D01*
X138250000Y-77900000D01*
X138250000Y-74100000D01*
X142750000Y-73750000D02*
G75*
G02*
X142250000Y-73750000I-250000J0D01*
G01*
X142250000Y-73750000D02*
G75*
G02*
X142750000Y-73750000I250000J0D01*
G01*
D11*
X132062500Y-55940000D02*
X131412500Y-55940000D01*
X132062500Y-55940000D02*
X132712500Y-55940000D01*
X132062500Y-59060000D02*
X131412500Y-59060000D01*
X132062500Y-59060000D02*
X132712500Y-59060000D01*
X130900000Y-55990000D02*
X130660000Y-55660000D01*
X131140000Y-55660000D01*
X130900000Y-55990000D01*
G36*
X130900000Y-55990000D02*
G01*
X130660000Y-55660000D01*
X131140000Y-55660000D01*
X130900000Y-55990000D01*
G37*
X124609420Y-78990000D02*
X124890580Y-78990000D01*
X124609420Y-80010000D02*
X124890580Y-80010000D01*
X115227500Y-65262742D02*
X115227500Y-65737258D01*
X116272500Y-65262742D02*
X116272500Y-65737258D01*
X135040000Y-71692164D02*
X135040000Y-71907836D01*
X135760000Y-71692164D02*
X135760000Y-71907836D01*
X105487258Y-82727500D02*
X105012742Y-82727500D01*
X105487258Y-83772500D02*
X105012742Y-83772500D01*
X116727500Y-56237258D02*
X116727500Y-55762742D01*
X117772500Y-56237258D02*
X117772500Y-55762742D01*
X125190580Y-82490000D02*
X124909420Y-82490000D01*
X125190580Y-83510000D02*
X124909420Y-83510000D01*
X105487258Y-79727500D02*
X105012742Y-79727500D01*
X105487258Y-80772500D02*
X105012742Y-80772500D01*
X105487258Y-75227500D02*
X105012742Y-75227500D01*
X105487258Y-76272500D02*
X105012742Y-76272500D01*
X119890580Y-77490000D02*
X119609420Y-77490000D01*
X119890580Y-78510000D02*
X119609420Y-78510000D01*
X117265000Y-80162500D02*
X117265000Y-82447500D01*
X117265000Y-82447500D02*
X118735000Y-82447500D01*
X118735000Y-82447500D02*
X118735000Y-80162500D01*
X105487258Y-76727500D02*
X105012742Y-76727500D01*
X105487258Y-77772500D02*
X105012742Y-77772500D01*
X115640000Y-75907836D02*
X115640000Y-75692164D01*
X116360000Y-75907836D02*
X116360000Y-75692164D01*
X105487258Y-85727500D02*
X105012742Y-85727500D01*
X105487258Y-86772500D02*
X105012742Y-86772500D01*
X103859420Y-63740000D02*
X104140580Y-63740000D01*
X103859420Y-64760000D02*
X104140580Y-64760000D01*
X120977500Y-62012742D02*
X120977500Y-62487258D01*
X122022500Y-62012742D02*
X122022500Y-62487258D01*
X127890580Y-77490000D02*
X127609420Y-77490000D01*
X127890580Y-78510000D02*
X127609420Y-78510000D01*
X105487258Y-81227500D02*
X105012742Y-81227500D01*
X105487258Y-82272500D02*
X105012742Y-82272500D01*
X127890580Y-78990000D02*
X127609420Y-78990000D01*
X127890580Y-80010000D02*
X127609420Y-80010000D01*
X135637500Y-81090000D02*
X133437500Y-81090000D01*
X135637500Y-81090000D02*
X137837500Y-81090000D01*
X135637500Y-86310000D02*
X133437500Y-86310000D01*
X135637500Y-86310000D02*
X137837500Y-86310000D01*
X138777500Y-86440000D02*
X138297500Y-86440000D01*
X138537500Y-86110000D01*
X138777500Y-86440000D01*
G36*
X138777500Y-86440000D02*
G01*
X138297500Y-86440000D01*
X138537500Y-86110000D01*
X138777500Y-86440000D01*
G37*
X117477500Y-83762742D02*
X117477500Y-84237258D01*
X118522500Y-83762742D02*
X118522500Y-84237258D01*
X123798000Y-84739500D02*
X125914250Y-84739500D01*
X123798000Y-86510500D02*
X123798000Y-84739500D01*
X126302000Y-85127250D02*
X126302000Y-86510500D01*
X126302000Y-86510500D02*
X123798000Y-86510500D01*
X127050000Y-84375000D02*
X126550000Y-84375000D01*
X126550000Y-83875000D01*
X127050000Y-84375000D01*
G36*
X127050000Y-84375000D02*
G01*
X126550000Y-84375000D01*
X126550000Y-83875000D01*
X127050000Y-84375000D01*
G37*
X127275000Y-55940000D02*
X126625000Y-55940000D01*
X127275000Y-55940000D02*
X127925000Y-55940000D01*
X127275000Y-59060000D02*
X126625000Y-59060000D01*
X127275000Y-59060000D02*
X127925000Y-59060000D01*
X126112500Y-55990000D02*
X125872500Y-55660000D01*
X126352500Y-55660000D01*
X126112500Y-55990000D01*
G36*
X126112500Y-55990000D02*
G01*
X125872500Y-55660000D01*
X126352500Y-55660000D01*
X126112500Y-55990000D01*
G37*
X105487258Y-78227500D02*
X105012742Y-78227500D01*
X105487258Y-79272500D02*
X105012742Y-79272500D01*
X142890000Y-83927064D02*
X142890000Y-82472936D01*
X144710000Y-83927064D02*
X144710000Y-82472936D01*
X113740000Y-72359420D02*
X113740000Y-72640580D01*
X114760000Y-72359420D02*
X114760000Y-72640580D01*
X102440000Y-94040000D02*
X102440000Y-92090000D01*
X102440000Y-94040000D02*
X102440000Y-95990000D01*
X107560000Y-94040000D02*
X107560000Y-92090000D01*
X107560000Y-94040000D02*
X107560000Y-95990000D01*
X107795000Y-91580000D02*
X107465000Y-91340000D01*
X107795000Y-91100000D01*
X107795000Y-91580000D01*
G36*
X107795000Y-91580000D02*
G01*
X107465000Y-91340000D01*
X107795000Y-91100000D01*
X107795000Y-91580000D01*
G37*
X105487258Y-84227500D02*
X105012742Y-84227500D01*
X105487258Y-85272500D02*
X105012742Y-85272500D01*
X110987258Y-82227500D02*
X110512742Y-82227500D01*
X110987258Y-83272500D02*
X110512742Y-83272500D01*
X119040000Y-79812500D02*
X119040000Y-82497500D01*
X119040000Y-82497500D02*
X120960000Y-82497500D01*
X120960000Y-82497500D02*
X120960000Y-79812500D01*
X112750000Y-53440000D02*
X110800000Y-53440000D01*
X112750000Y-53440000D02*
X114700000Y-53440000D01*
X112750000Y-58560000D02*
X110800000Y-58560000D01*
X112750000Y-58560000D02*
X114700000Y-58560000D01*
X110050000Y-53535000D02*
X109810000Y-53205000D01*
X110290000Y-53205000D01*
X110050000Y-53535000D01*
G36*
X110050000Y-53535000D02*
G01*
X109810000Y-53205000D01*
X110290000Y-53205000D01*
X110050000Y-53535000D01*
G37*
X130240000Y-65859420D02*
X130240000Y-66140580D01*
X131260000Y-65859420D02*
X131260000Y-66140580D01*
X109250000Y-60940000D02*
X108450000Y-60940000D01*
X109250000Y-60940000D02*
X110050000Y-60940000D01*
X109250000Y-64060000D02*
X108450000Y-64060000D01*
X109250000Y-64060000D02*
X110050000Y-64060000D01*
X107950000Y-60990000D02*
X107710000Y-60660000D01*
X108190000Y-60660000D01*
X107950000Y-60990000D01*
G36*
X107950000Y-60990000D02*
G01*
X107710000Y-60660000D01*
X108190000Y-60660000D01*
X107950000Y-60990000D01*
G37*
X147640580Y-75740000D02*
X147359420Y-75740000D01*
X147640580Y-76760000D02*
X147359420Y-76760000D01*
X107000000Y-66140000D02*
X104800000Y-66140000D01*
X107000000Y-66140000D02*
X109200000Y-66140000D01*
X107000000Y-71360000D02*
X104800000Y-71360000D01*
X107000000Y-71360000D02*
X109200000Y-71360000D01*
X110140000Y-71490000D02*
X109660000Y-71490000D01*
X109900000Y-71160000D01*
X110140000Y-71490000D01*
G36*
X110140000Y-71490000D02*
G01*
X109660000Y-71490000D01*
X109900000Y-71160000D01*
X110140000Y-71490000D01*
G37*
X124609420Y-80490000D02*
X124890580Y-80490000D01*
X124609420Y-81510000D02*
X124890580Y-81510000D01*
X130440000Y-69107836D02*
X130440000Y-68892164D01*
X131160000Y-69107836D02*
X131160000Y-68892164D01*
%LPC*%
D14*
X118475000Y-61500000D03*
X120025000Y-61500000D03*
D15*
X117575000Y-66750000D03*
X117575000Y-67250000D03*
X117575000Y-67750000D03*
X117575000Y-68250000D03*
X117575000Y-68750000D03*
X117575000Y-69250000D03*
X117575000Y-69750000D03*
X117575000Y-70250000D03*
X117575000Y-70750000D03*
X117575000Y-71250000D03*
X117575000Y-71750000D03*
X117575000Y-72250000D03*
X117575000Y-72750000D03*
X117575000Y-73250000D03*
X117575000Y-73750000D03*
X117575000Y-74250000D03*
D16*
X119500000Y-76175000D03*
X120000000Y-76175000D03*
X120500000Y-76175000D03*
X121000000Y-76175000D03*
X121500000Y-76175000D03*
X122000000Y-76175000D03*
X122500000Y-76175000D03*
X123000000Y-76175000D03*
X123500000Y-76175000D03*
X124000000Y-76175000D03*
X124500000Y-76175000D03*
X125000000Y-76175000D03*
X125500000Y-76175000D03*
X126000000Y-76175000D03*
X126500000Y-76175000D03*
X127000000Y-76175000D03*
D15*
X128925000Y-74250000D03*
X128925000Y-73750000D03*
X128925000Y-73250000D03*
X128925000Y-72750000D03*
X128925000Y-72250000D03*
X128925000Y-71750000D03*
X128925000Y-71250000D03*
X128925000Y-70750000D03*
X128925000Y-70250000D03*
X128925000Y-69750000D03*
X128925000Y-69250000D03*
X128925000Y-68750000D03*
X128925000Y-68250000D03*
X128925000Y-67750000D03*
X128925000Y-67250000D03*
X128925000Y-66750000D03*
D16*
X127000000Y-64825000D03*
X126500000Y-64825000D03*
X126000000Y-64825000D03*
X125500000Y-64825000D03*
X125000000Y-64825000D03*
X124500000Y-64825000D03*
X124000000Y-64825000D03*
X123500000Y-64825000D03*
X123000000Y-64825000D03*
X122500000Y-64825000D03*
X122000000Y-64825000D03*
X121500000Y-64825000D03*
X121000000Y-64825000D03*
X120500000Y-64825000D03*
X120000000Y-64825000D03*
X119500000Y-64825000D03*
D17*
X111575000Y-81250000D03*
X109925000Y-81250000D03*
D18*
X111925000Y-52500000D03*
X113575000Y-52500000D03*
D19*
X120000000Y-83175000D03*
X120000000Y-84825000D03*
D20*
X134200000Y-72280000D03*
X134200000Y-71320000D03*
D21*
X132250000Y-65225000D03*
X132250000Y-66775000D03*
D22*
X146800000Y-81737500D03*
X146800000Y-84662500D03*
D19*
X114250000Y-64675000D03*
X114250000Y-66325000D03*
D14*
X123975000Y-78000000D03*
X125525000Y-78000000D03*
D21*
X115750000Y-71725000D03*
X115750000Y-73275000D03*
D23*
X103175000Y-61465000D03*
X103175000Y-61965000D03*
X103175000Y-62465000D03*
X103175000Y-62965000D03*
X105075000Y-62965000D03*
X105075000Y-62465000D03*
X105075000Y-61965000D03*
X105075000Y-61465000D03*
D24*
X104125000Y-62215000D03*
D17*
X106075000Y-74250000D03*
X104425000Y-74250000D03*
D25*
X142325000Y-86495000D03*
X142325000Y-87765000D03*
X142325000Y-89035000D03*
X142325000Y-90305000D03*
X147275000Y-90305000D03*
X147275000Y-89035000D03*
X147275000Y-87765000D03*
X147275000Y-86495000D03*
D14*
X118475000Y-63000000D03*
X120025000Y-63000000D03*
D26*
X111050000Y-97337500D03*
X111700000Y-97337500D03*
X112350000Y-97337500D03*
X113000000Y-97337500D03*
X113650000Y-97337500D03*
X114300000Y-97337500D03*
X114950000Y-97337500D03*
X114950000Y-91612500D03*
X114300000Y-91612500D03*
X113650000Y-91612500D03*
X113000000Y-91612500D03*
X112350000Y-91612500D03*
X111700000Y-91612500D03*
X111050000Y-91612500D03*
D20*
X117200000Y-76280000D03*
X117200000Y-75320000D03*
D27*
X148275000Y-77750000D03*
X146725000Y-77750000D03*
D17*
X111575000Y-85750000D03*
X109925000Y-85750000D03*
X111575000Y-84250000D03*
X109925000Y-84250000D03*
D28*
X113862500Y-79200000D03*
X113862500Y-78550000D03*
X113862500Y-77900000D03*
X113862500Y-77250000D03*
X113862500Y-76600000D03*
X113862500Y-75950000D03*
X113862500Y-75300000D03*
X108137500Y-75300000D03*
X108137500Y-75950000D03*
X108137500Y-76600000D03*
X108137500Y-77250000D03*
X108137500Y-77900000D03*
X108137500Y-78550000D03*
X108137500Y-79200000D03*
D29*
X141645000Y-77050000D03*
D30*
X140715000Y-77250000D03*
X139785000Y-77250000D03*
X138855000Y-77250000D03*
X138855000Y-74750000D03*
X139785000Y-74750000D03*
X140715000Y-74750000D03*
X141645000Y-74750000D03*
D31*
X131125000Y-56550000D03*
X131125000Y-58450000D03*
X133000000Y-57500000D03*
D14*
X123975000Y-79500000D03*
X125525000Y-79500000D03*
D19*
X115750000Y-64675000D03*
X115750000Y-66325000D03*
D32*
X135400000Y-71320000D03*
X135400000Y-72280000D03*
D17*
X106075000Y-83250000D03*
X104425000Y-83250000D03*
D33*
X117250000Y-56825000D03*
X117250000Y-55175000D03*
D27*
X125825000Y-83000000D03*
X124275000Y-83000000D03*
D17*
X106075000Y-80250000D03*
X104425000Y-80250000D03*
X106075000Y-75750000D03*
X104425000Y-75750000D03*
D27*
X120525000Y-78000000D03*
X118975000Y-78000000D03*
D34*
X118000000Y-81750000D03*
X118000000Y-80175000D03*
D17*
X106075000Y-77250000D03*
X104425000Y-77250000D03*
D20*
X116000000Y-76280000D03*
X116000000Y-75320000D03*
D17*
X106075000Y-86250000D03*
X104425000Y-86250000D03*
D14*
X103225000Y-64250000D03*
X104775000Y-64250000D03*
D19*
X121500000Y-61425000D03*
X121500000Y-63075000D03*
D27*
X128525000Y-78000000D03*
X126975000Y-78000000D03*
D17*
X106075000Y-81750000D03*
X104425000Y-81750000D03*
D27*
X128525000Y-79500000D03*
X126975000Y-79500000D03*
D28*
X138500000Y-85650000D03*
X138500000Y-85000000D03*
X138500000Y-84350000D03*
X138500000Y-83700000D03*
X138500000Y-83050000D03*
X138500000Y-82400000D03*
X138500000Y-81750000D03*
X132775000Y-81750000D03*
X132775000Y-82400000D03*
X132775000Y-83050000D03*
X132775000Y-83700000D03*
X132775000Y-84350000D03*
X132775000Y-85000000D03*
X132775000Y-85650000D03*
D19*
X118000000Y-83175000D03*
X118000000Y-84825000D03*
D35*
X125800000Y-85375000D03*
X125800000Y-85875000D03*
X125300000Y-85375000D03*
X125300000Y-85875000D03*
X124800000Y-85375000D03*
X124800000Y-85875000D03*
X124300000Y-85375000D03*
X124300000Y-85875000D03*
D31*
X126337500Y-56550000D03*
X126337500Y-58450000D03*
X128212500Y-57500000D03*
D17*
X106075000Y-78750000D03*
X104425000Y-78750000D03*
D36*
X143800000Y-84662500D03*
X143800000Y-81737500D03*
D21*
X114250000Y-71725000D03*
X114250000Y-73275000D03*
D37*
X106905000Y-91565000D03*
X105635000Y-91565000D03*
X104365000Y-91565000D03*
X103095000Y-91565000D03*
X103095000Y-96515000D03*
X104365000Y-96515000D03*
X105635000Y-96515000D03*
X106905000Y-96515000D03*
D17*
X106075000Y-84750000D03*
X104425000Y-84750000D03*
X111575000Y-82750000D03*
X109925000Y-82750000D03*
D38*
X120000000Y-81750000D03*
X120000000Y-79875000D03*
D25*
X110275000Y-54095000D03*
X110275000Y-55365000D03*
X110275000Y-56635000D03*
X110275000Y-57905000D03*
X115225000Y-57905000D03*
X115225000Y-56635000D03*
X115225000Y-55365000D03*
X115225000Y-54095000D03*
D21*
X130750000Y-65225000D03*
X130750000Y-66775000D03*
D39*
X108112500Y-61550000D03*
X108112500Y-63450000D03*
X110387500Y-62500000D03*
D27*
X148275000Y-76250000D03*
X146725000Y-76250000D03*
D28*
X109862500Y-70700000D03*
X109862500Y-70050000D03*
X109862500Y-69400000D03*
X109862500Y-68750000D03*
X109862500Y-68100000D03*
X109862500Y-67450000D03*
X109862500Y-66800000D03*
X104137500Y-66800000D03*
X104137500Y-67450000D03*
X104137500Y-68100000D03*
X104137500Y-68750000D03*
X104137500Y-69400000D03*
X104137500Y-70050000D03*
X104137500Y-70700000D03*
D14*
X123975000Y-81000000D03*
X125525000Y-81000000D03*
D20*
X130800000Y-69480000D03*
X130800000Y-68520000D03*
D40*
X144750000Y-69000000D03*
D41*
X138750000Y-93750000D03*
D40*
X147750000Y-59250000D03*
D41*
X146250000Y-93750000D03*
D40*
X141750000Y-64135000D03*
D42*
X141790000Y-58750000D03*
X136710000Y-59766000D03*
X136710000Y-57734000D03*
D40*
X141750000Y-69000000D03*
D41*
X135000000Y-93750000D03*
X140500000Y-52750000D03*
D43*
X137960000Y-52750000D03*
X135420000Y-52750000D03*
X132880000Y-52750000D03*
D40*
X147750000Y-64135000D03*
X147750000Y-69000000D03*
X138750000Y-69000000D03*
D41*
X128550000Y-52725000D03*
D43*
X126010000Y-52725000D03*
X123470000Y-52725000D03*
X120930000Y-52725000D03*
D40*
X135750000Y-69000000D03*
X144750000Y-64135000D03*
X138750000Y-64135000D03*
D41*
X142500000Y-93750000D03*
D40*
X135750000Y-64135000D03*
%LPD*%
M02*
