M48
; DRILL file {KiCad 8.0.4} date 2024-08-17T22:41:11+0200
; FORMAT={-:-/ absolute / metric / decimal}
; #@! TF.CreationDate,2024-08-17T22:41:11+02:00
; #@! TF.GenerationSoftware,Kicad,Pcbnew,8.0.4
; #@! TF.FileFunction,Plated,1,4,PTH
FMAT,2
METRIC
; #@! TA.AperFunction,Plated,PTH,ViaDrill
T1C0.300
; #@! TA.AperFunction,Plated,PTH,ViaDrill
T2C0.400
; #@! TA.AperFunction,Plated,PTH,ComponentDrill
T3C1.000
%
G90
G05
T1
X101.75Y-62.75
X102.25Y-62.0
X105.5Y-70.5
X106.0Y-69.75
X110.25Y-56.0
X110.875Y-77.75
X110.875Y-78.75
X111.25Y-67.5
X111.25Y-73.75
X111.282Y-68.468
X112.0Y-57.25
X112.0Y-79.25
X112.25Y-76.0
X112.75Y-76.675
X114.5Y-79.837
X115.5Y-78.775
X118.75Y-70.75
X118.75Y-71.75
X118.75Y-73.75
X119.5Y-71.25
X119.5Y-73.25
X119.75Y-66.75
X120.0Y-70.25
X120.1Y-66.025
X121.276Y-77.334
X121.5Y-74.975
X122.0Y-66.75
X122.5Y-66.0
X122.5Y-85.75
X122.75Y-67.75
X123.0Y-73.0
X123.0Y-74.5
X123.25Y-86.25
X123.854Y-74.354
X124.0Y-87.0
X124.0Y-95.75
X124.5Y-69.5
X124.854Y-71.854
X125.5Y-87.0
X125.5Y-95.75
X125.75Y-71.5
X126.75Y-70.5
X127.0Y-63.5
X127.25Y-69.75
X128.5Y-62.5
X128.5Y-63.5
X129.25Y-60.75
X129.75Y-60.0
X130.25Y-72.5
X130.5Y-61.1
X130.5Y-70.75
X131.5Y-74.75
X132.75Y-78.25
X133.25Y-73.0
X133.75Y-76.75
X134.0Y-77.75
X142.5Y-74.75
X142.5Y-77.0
T2
X102.0Y-68.0
X102.75Y-68.75
X103.5Y-72.25
X104.5Y-60.5
X106.0Y-60.75
X106.5Y-61.75
X107.0Y-73.5
X108.25Y-66.75
X108.25Y-80.25
X108.25Y-81.25
X109.5Y-64.0
X109.5Y-75.5
X109.5Y-77.35
X110.5Y-61.5
X111.5Y-80.0
X113.0Y-54.25
X113.0Y-57.75
X113.25Y-71.75
X114.25Y-67.5
X114.5Y-88.475
X115.5Y-87.7
X117.25Y-78.25
X117.75Y-77.25
X118.0Y-79.25
X118.5Y-64.5
X121.25Y-84.75
X121.5Y-60.5
X121.5Y-80.0
X121.75Y-78.25
X123.25Y-91.0
X125.007Y-74.275
X126.0Y-74.5
X126.5Y-55.5
X126.5Y-59.5
X126.75Y-91.0
X127.0Y-80.75
X127.0Y-87.7
X128.25Y-76.5
X128.55Y-56.0
X129.134Y-85.975
X129.5Y-65.75
X129.909Y-86.775
X131.25Y-59.5
X133.0Y-55.25
X133.5Y-66.75
X134.25Y-83.0
X134.5Y-85.5
X138.0Y-60.5
X140.0Y-84.25
X140.5Y-60.5
X140.75Y-76.0
X142.75Y-82.25
X143.75Y-87.75
X144.5Y-76.25
X145.75Y-85.0
X148.5Y-75.0
X149.162Y-81.412
T3
X120.93Y-52.725
X123.47Y-52.725
X126.01Y-52.725
X128.55Y-52.725
X132.88Y-52.75
X135.125Y-94.125
X135.42Y-52.75
X135.75Y-64.135
X135.75Y-69.0
X137.96Y-52.75
X138.75Y-64.135
X138.75Y-69.0
X140.125Y-94.125
X140.5Y-52.75
X141.75Y-64.135
X141.75Y-69.0
X144.75Y-64.135
X144.75Y-69.0
X145.225Y-94.125
X147.75Y-59.25
X147.75Y-64.135
X147.75Y-69.0
M30
