G04 #@! TF.GenerationSoftware,KiCad,Pcbnew,8.0.4*
G04 #@! TF.CreationDate,2024-08-17T22:40:57+02:00*
G04 #@! TF.ProjectId,Probe,50726f62-652e-46b6-9963-61645f706362,v1*
G04 #@! TF.SameCoordinates,Original*
G04 #@! TF.FileFunction,Legend,Bot*
G04 #@! TF.FilePolarity,Positive*
%FSLAX46Y46*%
G04 Gerber Fmt 4.6, Leading zero omitted, Abs format (unit mm)*
G04 Created by KiCad (PCBNEW 8.0.4) date 2024-08-17 22:40:57*
%MOMM*%
%LPD*%
G01*
G04 APERTURE LIST*
G04 Aperture macros list*
%AMFreePoly0*
4,1,6,1.000000,0.000000,0.500000,-0.750000,-0.500000,-0.750000,-0.500000,0.750000,0.500000,0.750000,1.000000,0.000000,1.000000,0.000000,$1*%
%AMFreePoly1*
4,1,6,0.500000,-0.750000,-0.650000,-0.750000,-0.150000,0.000000,-0.650000,0.750000,0.500000,0.750000,0.500000,-0.750000,0.500000,-0.750000,$1*%
G04 Aperture macros list end*
%ADD10C,0.150000*%
%ADD11C,0.120000*%
%ADD12C,0.000000*%
%ADD13FreePoly0,0.000000*%
%ADD14FreePoly1,0.000000*%
%ADD15R,2.000000X2.000000*%
%ADD16R,1.700000X1.700000*%
%ADD17R,2.000000X5.000000*%
%ADD18FreePoly0,180.000000*%
%ADD19C,0.990600*%
%ADD20C,0.787400*%
%ADD21O,1.700000X1.700000*%
G04 APERTURE END LIST*
D10*
X144841792Y-62504819D02*
X145175125Y-62028628D01*
X145413220Y-62504819D02*
X145413220Y-61504819D01*
X145413220Y-61504819D02*
X145032268Y-61504819D01*
X145032268Y-61504819D02*
X144937030Y-61552438D01*
X144937030Y-61552438D02*
X144889411Y-61600057D01*
X144889411Y-61600057D02*
X144841792Y-61695295D01*
X144841792Y-61695295D02*
X144841792Y-61838152D01*
X144841792Y-61838152D02*
X144889411Y-61933390D01*
X144889411Y-61933390D02*
X144937030Y-61981009D01*
X144937030Y-61981009D02*
X145032268Y-62028628D01*
X145032268Y-62028628D02*
X145413220Y-62028628D01*
X144460839Y-62457200D02*
X144317982Y-62504819D01*
X144317982Y-62504819D02*
X144079887Y-62504819D01*
X144079887Y-62504819D02*
X143984649Y-62457200D01*
X143984649Y-62457200D02*
X143937030Y-62409580D01*
X143937030Y-62409580D02*
X143889411Y-62314342D01*
X143889411Y-62314342D02*
X143889411Y-62219104D01*
X143889411Y-62219104D02*
X143937030Y-62123866D01*
X143937030Y-62123866D02*
X143984649Y-62076247D01*
X143984649Y-62076247D02*
X144079887Y-62028628D01*
X144079887Y-62028628D02*
X144270363Y-61981009D01*
X144270363Y-61981009D02*
X144365601Y-61933390D01*
X144365601Y-61933390D02*
X144413220Y-61885771D01*
X144413220Y-61885771D02*
X144460839Y-61790533D01*
X144460839Y-61790533D02*
X144460839Y-61695295D01*
X144460839Y-61695295D02*
X144413220Y-61600057D01*
X144413220Y-61600057D02*
X144365601Y-61552438D01*
X144365601Y-61552438D02*
X144270363Y-61504819D01*
X144270363Y-61504819D02*
X144032268Y-61504819D01*
X144032268Y-61504819D02*
X143889411Y-61552438D01*
X143032268Y-61838152D02*
X143032268Y-62504819D01*
X143270363Y-61457200D02*
X143508458Y-62171485D01*
X143508458Y-62171485D02*
X142889411Y-62171485D01*
X142365601Y-61933390D02*
X142460839Y-61885771D01*
X142460839Y-61885771D02*
X142508458Y-61838152D01*
X142508458Y-61838152D02*
X142556077Y-61742914D01*
X142556077Y-61742914D02*
X142556077Y-61695295D01*
X142556077Y-61695295D02*
X142508458Y-61600057D01*
X142508458Y-61600057D02*
X142460839Y-61552438D01*
X142460839Y-61552438D02*
X142365601Y-61504819D01*
X142365601Y-61504819D02*
X142175125Y-61504819D01*
X142175125Y-61504819D02*
X142079887Y-61552438D01*
X142079887Y-61552438D02*
X142032268Y-61600057D01*
X142032268Y-61600057D02*
X141984649Y-61695295D01*
X141984649Y-61695295D02*
X141984649Y-61742914D01*
X141984649Y-61742914D02*
X142032268Y-61838152D01*
X142032268Y-61838152D02*
X142079887Y-61885771D01*
X142079887Y-61885771D02*
X142175125Y-61933390D01*
X142175125Y-61933390D02*
X142365601Y-61933390D01*
X142365601Y-61933390D02*
X142460839Y-61981009D01*
X142460839Y-61981009D02*
X142508458Y-62028628D01*
X142508458Y-62028628D02*
X142556077Y-62123866D01*
X142556077Y-62123866D02*
X142556077Y-62314342D01*
X142556077Y-62314342D02*
X142508458Y-62409580D01*
X142508458Y-62409580D02*
X142460839Y-62457200D01*
X142460839Y-62457200D02*
X142365601Y-62504819D01*
X142365601Y-62504819D02*
X142175125Y-62504819D01*
X142175125Y-62504819D02*
X142079887Y-62457200D01*
X142079887Y-62457200D02*
X142032268Y-62409580D01*
X142032268Y-62409580D02*
X141984649Y-62314342D01*
X141984649Y-62314342D02*
X141984649Y-62123866D01*
X141984649Y-62123866D02*
X142032268Y-62028628D01*
X142032268Y-62028628D02*
X142079887Y-61981009D01*
X142079887Y-61981009D02*
X142175125Y-61933390D01*
X141079887Y-61504819D02*
X141556077Y-61504819D01*
X141556077Y-61504819D02*
X141603696Y-61981009D01*
X141603696Y-61981009D02*
X141556077Y-61933390D01*
X141556077Y-61933390D02*
X141460839Y-61885771D01*
X141460839Y-61885771D02*
X141222744Y-61885771D01*
X141222744Y-61885771D02*
X141127506Y-61933390D01*
X141127506Y-61933390D02*
X141079887Y-61981009D01*
X141079887Y-61981009D02*
X141032268Y-62076247D01*
X141032268Y-62076247D02*
X141032268Y-62314342D01*
X141032268Y-62314342D02*
X141079887Y-62409580D01*
X141079887Y-62409580D02*
X141127506Y-62457200D01*
X141127506Y-62457200D02*
X141222744Y-62504819D01*
X141222744Y-62504819D02*
X141460839Y-62504819D01*
X141460839Y-62504819D02*
X141556077Y-62457200D01*
X141556077Y-62457200D02*
X141603696Y-62409580D01*
X148758458Y-66004819D02*
X148139411Y-66004819D01*
X148139411Y-66004819D02*
X148472744Y-66385771D01*
X148472744Y-66385771D02*
X148329887Y-66385771D01*
X148329887Y-66385771D02*
X148234649Y-66433390D01*
X148234649Y-66433390D02*
X148187030Y-66481009D01*
X148187030Y-66481009D02*
X148139411Y-66576247D01*
X148139411Y-66576247D02*
X148139411Y-66814342D01*
X148139411Y-66814342D02*
X148187030Y-66909580D01*
X148187030Y-66909580D02*
X148234649Y-66957200D01*
X148234649Y-66957200D02*
X148329887Y-67004819D01*
X148329887Y-67004819D02*
X148615601Y-67004819D01*
X148615601Y-67004819D02*
X148710839Y-66957200D01*
X148710839Y-66957200D02*
X148758458Y-66909580D01*
X147806077Y-66338152D02*
X147567982Y-67004819D01*
X147567982Y-67004819D02*
X147329887Y-66338152D01*
X147044172Y-66004819D02*
X146425125Y-66004819D01*
X146425125Y-66004819D02*
X146758458Y-66385771D01*
X146758458Y-66385771D02*
X146615601Y-66385771D01*
X146615601Y-66385771D02*
X146520363Y-66433390D01*
X146520363Y-66433390D02*
X146472744Y-66481009D01*
X146472744Y-66481009D02*
X146425125Y-66576247D01*
X146425125Y-66576247D02*
X146425125Y-66814342D01*
X146425125Y-66814342D02*
X146472744Y-66909580D01*
X146472744Y-66909580D02*
X146520363Y-66957200D01*
X146520363Y-66957200D02*
X146615601Y-67004819D01*
X146615601Y-67004819D02*
X146901315Y-67004819D01*
X146901315Y-67004819D02*
X146996553Y-66957200D01*
X146996553Y-66957200D02*
X147044172Y-66909580D01*
X132682319Y-59086779D02*
X131682319Y-59086779D01*
X131682319Y-59086779D02*
X131682319Y-59324874D01*
X131682319Y-59324874D02*
X131729938Y-59467731D01*
X131729938Y-59467731D02*
X131825176Y-59562969D01*
X131825176Y-59562969D02*
X131920414Y-59610588D01*
X131920414Y-59610588D02*
X132110890Y-59658207D01*
X132110890Y-59658207D02*
X132253747Y-59658207D01*
X132253747Y-59658207D02*
X132444223Y-59610588D01*
X132444223Y-59610588D02*
X132539461Y-59562969D01*
X132539461Y-59562969D02*
X132634700Y-59467731D01*
X132634700Y-59467731D02*
X132682319Y-59324874D01*
X132682319Y-59324874D02*
X132682319Y-59086779D01*
X132634700Y-60467731D02*
X132682319Y-60372493D01*
X132682319Y-60372493D02*
X132682319Y-60182017D01*
X132682319Y-60182017D02*
X132634700Y-60086779D01*
X132634700Y-60086779D02*
X132539461Y-60039160D01*
X132539461Y-60039160D02*
X132158509Y-60039160D01*
X132158509Y-60039160D02*
X132063271Y-60086779D01*
X132063271Y-60086779D02*
X132015652Y-60182017D01*
X132015652Y-60182017D02*
X132015652Y-60372493D01*
X132015652Y-60372493D02*
X132063271Y-60467731D01*
X132063271Y-60467731D02*
X132158509Y-60515350D01*
X132158509Y-60515350D02*
X132253747Y-60515350D01*
X132253747Y-60515350D02*
X132348985Y-60039160D01*
X132682319Y-60943922D02*
X131682319Y-60943922D01*
X132063271Y-60943922D02*
X132015652Y-61039160D01*
X132015652Y-61039160D02*
X132015652Y-61229636D01*
X132015652Y-61229636D02*
X132063271Y-61324874D01*
X132063271Y-61324874D02*
X132110890Y-61372493D01*
X132110890Y-61372493D02*
X132206128Y-61420112D01*
X132206128Y-61420112D02*
X132491842Y-61420112D01*
X132491842Y-61420112D02*
X132587080Y-61372493D01*
X132587080Y-61372493D02*
X132634700Y-61324874D01*
X132634700Y-61324874D02*
X132682319Y-61229636D01*
X132682319Y-61229636D02*
X132682319Y-61039160D01*
X132682319Y-61039160D02*
X132634700Y-60943922D01*
X132015652Y-62277255D02*
X132682319Y-62277255D01*
X132015652Y-61848684D02*
X132539461Y-61848684D01*
X132539461Y-61848684D02*
X132634700Y-61896303D01*
X132634700Y-61896303D02*
X132682319Y-61991541D01*
X132682319Y-61991541D02*
X132682319Y-62134398D01*
X132682319Y-62134398D02*
X132634700Y-62229636D01*
X132634700Y-62229636D02*
X132587080Y-62277255D01*
X132015652Y-63182017D02*
X132825176Y-63182017D01*
X132825176Y-63182017D02*
X132920414Y-63134398D01*
X132920414Y-63134398D02*
X132968033Y-63086779D01*
X132968033Y-63086779D02*
X133015652Y-62991541D01*
X133015652Y-62991541D02*
X133015652Y-62848684D01*
X133015652Y-62848684D02*
X132968033Y-62753446D01*
X132634700Y-63182017D02*
X132682319Y-63086779D01*
X132682319Y-63086779D02*
X132682319Y-62896303D01*
X132682319Y-62896303D02*
X132634700Y-62801065D01*
X132634700Y-62801065D02*
X132587080Y-62753446D01*
X132587080Y-62753446D02*
X132491842Y-62705827D01*
X132491842Y-62705827D02*
X132206128Y-62705827D01*
X132206128Y-62705827D02*
X132110890Y-62753446D01*
X132110890Y-62753446D02*
X132063271Y-62801065D01*
X132063271Y-62801065D02*
X132015652Y-62896303D01*
X132015652Y-62896303D02*
X132015652Y-63086779D01*
X132015652Y-63086779D02*
X132063271Y-63182017D01*
X132682319Y-64991541D02*
X132206128Y-64658208D01*
X132682319Y-64420113D02*
X131682319Y-64420113D01*
X131682319Y-64420113D02*
X131682319Y-64801065D01*
X131682319Y-64801065D02*
X131729938Y-64896303D01*
X131729938Y-64896303D02*
X131777557Y-64943922D01*
X131777557Y-64943922D02*
X131872795Y-64991541D01*
X131872795Y-64991541D02*
X132015652Y-64991541D01*
X132015652Y-64991541D02*
X132110890Y-64943922D01*
X132110890Y-64943922D02*
X132158509Y-64896303D01*
X132158509Y-64896303D02*
X132206128Y-64801065D01*
X132206128Y-64801065D02*
X132206128Y-64420113D01*
X132682319Y-65420113D02*
X131682319Y-65420113D01*
X131682319Y-65420113D02*
X131682319Y-65801065D01*
X131682319Y-65801065D02*
X131729938Y-65896303D01*
X131729938Y-65896303D02*
X131777557Y-65943922D01*
X131777557Y-65943922D02*
X131872795Y-65991541D01*
X131872795Y-65991541D02*
X132015652Y-65991541D01*
X132015652Y-65991541D02*
X132110890Y-65943922D01*
X132110890Y-65943922D02*
X132158509Y-65896303D01*
X132158509Y-65896303D02*
X132206128Y-65801065D01*
X132206128Y-65801065D02*
X132206128Y-65420113D01*
X139234649Y-71619819D02*
X139234649Y-70619819D01*
X139234649Y-71572200D02*
X139329887Y-71619819D01*
X139329887Y-71619819D02*
X139520363Y-71619819D01*
X139520363Y-71619819D02*
X139615601Y-71572200D01*
X139615601Y-71572200D02*
X139663220Y-71524580D01*
X139663220Y-71524580D02*
X139710839Y-71429342D01*
X139710839Y-71429342D02*
X139710839Y-71143628D01*
X139710839Y-71143628D02*
X139663220Y-71048390D01*
X139663220Y-71048390D02*
X139615601Y-71000771D01*
X139615601Y-71000771D02*
X139520363Y-70953152D01*
X139520363Y-70953152D02*
X139329887Y-70953152D01*
X139329887Y-70953152D02*
X139234649Y-71000771D01*
X138329887Y-71619819D02*
X138329887Y-71096009D01*
X138329887Y-71096009D02*
X138377506Y-71000771D01*
X138377506Y-71000771D02*
X138472744Y-70953152D01*
X138472744Y-70953152D02*
X138663220Y-70953152D01*
X138663220Y-70953152D02*
X138758458Y-71000771D01*
X138329887Y-71572200D02*
X138425125Y-71619819D01*
X138425125Y-71619819D02*
X138663220Y-71619819D01*
X138663220Y-71619819D02*
X138758458Y-71572200D01*
X138758458Y-71572200D02*
X138806077Y-71476961D01*
X138806077Y-71476961D02*
X138806077Y-71381723D01*
X138806077Y-71381723D02*
X138758458Y-71286485D01*
X138758458Y-71286485D02*
X138663220Y-71238866D01*
X138663220Y-71238866D02*
X138425125Y-71238866D01*
X138425125Y-71238866D02*
X138329887Y-71191247D01*
X137425125Y-71572200D02*
X137520363Y-71619819D01*
X137520363Y-71619819D02*
X137710839Y-71619819D01*
X137710839Y-71619819D02*
X137806077Y-71572200D01*
X137806077Y-71572200D02*
X137853696Y-71524580D01*
X137853696Y-71524580D02*
X137901315Y-71429342D01*
X137901315Y-71429342D02*
X137901315Y-71143628D01*
X137901315Y-71143628D02*
X137853696Y-71048390D01*
X137853696Y-71048390D02*
X137806077Y-71000771D01*
X137806077Y-71000771D02*
X137710839Y-70953152D01*
X137710839Y-70953152D02*
X137520363Y-70953152D01*
X137520363Y-70953152D02*
X137425125Y-71000771D01*
X126383457Y-55609104D02*
X125907267Y-55609104D01*
X126478695Y-55894819D02*
X126145362Y-54894819D01*
X126145362Y-54894819D02*
X125812029Y-55894819D01*
X136234649Y-71203152D02*
X136234649Y-71869819D01*
X136663220Y-71203152D02*
X136663220Y-71726961D01*
X136663220Y-71726961D02*
X136615601Y-71822200D01*
X136615601Y-71822200D02*
X136520363Y-71869819D01*
X136520363Y-71869819D02*
X136377506Y-71869819D01*
X136377506Y-71869819D02*
X136282268Y-71822200D01*
X136282268Y-71822200D02*
X136234649Y-71774580D01*
X135758458Y-71869819D02*
X135758458Y-70869819D01*
X135758458Y-71250771D02*
X135663220Y-71203152D01*
X135663220Y-71203152D02*
X135472744Y-71203152D01*
X135472744Y-71203152D02*
X135377506Y-71250771D01*
X135377506Y-71250771D02*
X135329887Y-71298390D01*
X135329887Y-71298390D02*
X135282268Y-71393628D01*
X135282268Y-71393628D02*
X135282268Y-71679342D01*
X135282268Y-71679342D02*
X135329887Y-71774580D01*
X135329887Y-71774580D02*
X135377506Y-71822200D01*
X135377506Y-71822200D02*
X135472744Y-71869819D01*
X135472744Y-71869819D02*
X135663220Y-71869819D01*
X135663220Y-71869819D02*
X135758458Y-71822200D01*
X134425125Y-71869819D02*
X134425125Y-70869819D01*
X134425125Y-71822200D02*
X134520363Y-71869819D01*
X134520363Y-71869819D02*
X134710839Y-71869819D01*
X134710839Y-71869819D02*
X134806077Y-71822200D01*
X134806077Y-71822200D02*
X134853696Y-71774580D01*
X134853696Y-71774580D02*
X134901315Y-71679342D01*
X134901315Y-71679342D02*
X134901315Y-71393628D01*
X134901315Y-71393628D02*
X134853696Y-71298390D01*
X134853696Y-71298390D02*
X134806077Y-71250771D01*
X134806077Y-71250771D02*
X134710839Y-71203152D01*
X134710839Y-71203152D02*
X134520363Y-71203152D01*
X134520363Y-71203152D02*
X134425125Y-71250771D01*
X142484649Y-71869819D02*
X142484649Y-71346009D01*
X142484649Y-71346009D02*
X142532268Y-71250771D01*
X142532268Y-71250771D02*
X142627506Y-71203152D01*
X142627506Y-71203152D02*
X142817982Y-71203152D01*
X142817982Y-71203152D02*
X142913220Y-71250771D01*
X142484649Y-71822200D02*
X142579887Y-71869819D01*
X142579887Y-71869819D02*
X142817982Y-71869819D01*
X142817982Y-71869819D02*
X142913220Y-71822200D01*
X142913220Y-71822200D02*
X142960839Y-71726961D01*
X142960839Y-71726961D02*
X142960839Y-71631723D01*
X142960839Y-71631723D02*
X142913220Y-71536485D01*
X142913220Y-71536485D02*
X142817982Y-71488866D01*
X142817982Y-71488866D02*
X142579887Y-71488866D01*
X142579887Y-71488866D02*
X142484649Y-71441247D01*
X142008458Y-71869819D02*
X142008458Y-71203152D01*
X142008458Y-71298390D02*
X141960839Y-71250771D01*
X141960839Y-71250771D02*
X141865601Y-71203152D01*
X141865601Y-71203152D02*
X141722744Y-71203152D01*
X141722744Y-71203152D02*
X141627506Y-71250771D01*
X141627506Y-71250771D02*
X141579887Y-71346009D01*
X141579887Y-71346009D02*
X141579887Y-71869819D01*
X141579887Y-71346009D02*
X141532268Y-71250771D01*
X141532268Y-71250771D02*
X141437030Y-71203152D01*
X141437030Y-71203152D02*
X141294173Y-71203152D01*
X141294173Y-71203152D02*
X141198934Y-71250771D01*
X141198934Y-71250771D02*
X141151315Y-71346009D01*
X141151315Y-71346009D02*
X141151315Y-71869819D01*
X140675125Y-71203152D02*
X140675125Y-72203152D01*
X140675125Y-71250771D02*
X140579887Y-71203152D01*
X140579887Y-71203152D02*
X140389411Y-71203152D01*
X140389411Y-71203152D02*
X140294173Y-71250771D01*
X140294173Y-71250771D02*
X140246554Y-71298390D01*
X140246554Y-71298390D02*
X140198935Y-71393628D01*
X140198935Y-71393628D02*
X140198935Y-71679342D01*
X140198935Y-71679342D02*
X140246554Y-71774580D01*
X140246554Y-71774580D02*
X140294173Y-71822200D01*
X140294173Y-71822200D02*
X140389411Y-71869819D01*
X140389411Y-71869819D02*
X140579887Y-71869819D01*
X140579887Y-71869819D02*
X140675125Y-71822200D01*
X146163220Y-50619819D02*
X146163220Y-51429342D01*
X146163220Y-51429342D02*
X146115601Y-51524580D01*
X146115601Y-51524580D02*
X146067982Y-51572200D01*
X146067982Y-51572200D02*
X145972744Y-51619819D01*
X145972744Y-51619819D02*
X145782268Y-51619819D01*
X145782268Y-51619819D02*
X145687030Y-51572200D01*
X145687030Y-51572200D02*
X145639411Y-51524580D01*
X145639411Y-51524580D02*
X145591792Y-51429342D01*
X145591792Y-51429342D02*
X145591792Y-50619819D01*
X145163220Y-51334104D02*
X144687030Y-51334104D01*
X145258458Y-51619819D02*
X144925125Y-50619819D01*
X144925125Y-50619819D02*
X144591792Y-51619819D01*
X143687030Y-51619819D02*
X144020363Y-51143628D01*
X144258458Y-51619819D02*
X144258458Y-50619819D01*
X144258458Y-50619819D02*
X143877506Y-50619819D01*
X143877506Y-50619819D02*
X143782268Y-50667438D01*
X143782268Y-50667438D02*
X143734649Y-50715057D01*
X143734649Y-50715057D02*
X143687030Y-50810295D01*
X143687030Y-50810295D02*
X143687030Y-50953152D01*
X143687030Y-50953152D02*
X143734649Y-51048390D01*
X143734649Y-51048390D02*
X143782268Y-51096009D01*
X143782268Y-51096009D02*
X143877506Y-51143628D01*
X143877506Y-51143628D02*
X144258458Y-51143628D01*
X143401315Y-50619819D02*
X142829887Y-50619819D01*
X143115601Y-51619819D02*
X143115601Y-50619819D01*
X144984649Y-66754819D02*
X144984649Y-65754819D01*
X144984649Y-66707200D02*
X145079887Y-66754819D01*
X145079887Y-66754819D02*
X145270363Y-66754819D01*
X145270363Y-66754819D02*
X145365601Y-66707200D01*
X145365601Y-66707200D02*
X145413220Y-66659580D01*
X145413220Y-66659580D02*
X145460839Y-66564342D01*
X145460839Y-66564342D02*
X145460839Y-66278628D01*
X145460839Y-66278628D02*
X145413220Y-66183390D01*
X145413220Y-66183390D02*
X145365601Y-66135771D01*
X145365601Y-66135771D02*
X145270363Y-66088152D01*
X145270363Y-66088152D02*
X145079887Y-66088152D01*
X145079887Y-66088152D02*
X144984649Y-66135771D01*
X144127506Y-66707200D02*
X144222744Y-66754819D01*
X144222744Y-66754819D02*
X144413220Y-66754819D01*
X144413220Y-66754819D02*
X144508458Y-66707200D01*
X144508458Y-66707200D02*
X144556077Y-66611961D01*
X144556077Y-66611961D02*
X144556077Y-66231009D01*
X144556077Y-66231009D02*
X144508458Y-66135771D01*
X144508458Y-66135771D02*
X144413220Y-66088152D01*
X144413220Y-66088152D02*
X144222744Y-66088152D01*
X144222744Y-66088152D02*
X144127506Y-66135771D01*
X144127506Y-66135771D02*
X144079887Y-66231009D01*
X144079887Y-66231009D02*
X144079887Y-66326247D01*
X144079887Y-66326247D02*
X144556077Y-66421485D01*
X138413459Y-54894819D02*
X137842031Y-54894819D01*
X138127745Y-55894819D02*
X138127745Y-54894819D01*
X137603935Y-55894819D02*
X137080126Y-55228152D01*
X137603935Y-55228152D02*
X137080126Y-55894819D01*
X121562029Y-54942438D02*
X121657267Y-54894819D01*
X121657267Y-54894819D02*
X121800124Y-54894819D01*
X121800124Y-54894819D02*
X121942981Y-54942438D01*
X121942981Y-54942438D02*
X122038219Y-55037676D01*
X122038219Y-55037676D02*
X122085838Y-55132914D01*
X122085838Y-55132914D02*
X122133457Y-55323390D01*
X122133457Y-55323390D02*
X122133457Y-55466247D01*
X122133457Y-55466247D02*
X122085838Y-55656723D01*
X122085838Y-55656723D02*
X122038219Y-55751961D01*
X122038219Y-55751961D02*
X121942981Y-55847200D01*
X121942981Y-55847200D02*
X121800124Y-55894819D01*
X121800124Y-55894819D02*
X121704886Y-55894819D01*
X121704886Y-55894819D02*
X121562029Y-55847200D01*
X121562029Y-55847200D02*
X121514410Y-55799580D01*
X121514410Y-55799580D02*
X121514410Y-55466247D01*
X121514410Y-55466247D02*
X121704886Y-55466247D01*
X121085838Y-55894819D02*
X121085838Y-54894819D01*
X121085838Y-54894819D02*
X120514410Y-55894819D01*
X120514410Y-55894819D02*
X120514410Y-54894819D01*
X120038219Y-55894819D02*
X120038219Y-54894819D01*
X120038219Y-54894819D02*
X119800124Y-54894819D01*
X119800124Y-54894819D02*
X119657267Y-54942438D01*
X119657267Y-54942438D02*
X119562029Y-55037676D01*
X119562029Y-55037676D02*
X119514410Y-55132914D01*
X119514410Y-55132914D02*
X119466791Y-55323390D01*
X119466791Y-55323390D02*
X119466791Y-55466247D01*
X119466791Y-55466247D02*
X119514410Y-55656723D01*
X119514410Y-55656723D02*
X119562029Y-55751961D01*
X119562029Y-55751961D02*
X119657267Y-55847200D01*
X119657267Y-55847200D02*
X119800124Y-55894819D01*
X119800124Y-55894819D02*
X120038219Y-55894819D01*
X133246793Y-54942438D02*
X133342031Y-54894819D01*
X133342031Y-54894819D02*
X133484888Y-54894819D01*
X133484888Y-54894819D02*
X133627745Y-54942438D01*
X133627745Y-54942438D02*
X133722983Y-55037676D01*
X133722983Y-55037676D02*
X133770602Y-55132914D01*
X133770602Y-55132914D02*
X133818221Y-55323390D01*
X133818221Y-55323390D02*
X133818221Y-55466247D01*
X133818221Y-55466247D02*
X133770602Y-55656723D01*
X133770602Y-55656723D02*
X133722983Y-55751961D01*
X133722983Y-55751961D02*
X133627745Y-55847200D01*
X133627745Y-55847200D02*
X133484888Y-55894819D01*
X133484888Y-55894819D02*
X133389650Y-55894819D01*
X133389650Y-55894819D02*
X133246793Y-55847200D01*
X133246793Y-55847200D02*
X133199174Y-55799580D01*
X133199174Y-55799580D02*
X133199174Y-55466247D01*
X133199174Y-55466247D02*
X133389650Y-55466247D01*
X132770602Y-55894819D02*
X132770602Y-54894819D01*
X132770602Y-54894819D02*
X132199174Y-55894819D01*
X132199174Y-55894819D02*
X132199174Y-54894819D01*
X131722983Y-55894819D02*
X131722983Y-54894819D01*
X131722983Y-54894819D02*
X131484888Y-54894819D01*
X131484888Y-54894819D02*
X131342031Y-54942438D01*
X131342031Y-54942438D02*
X131246793Y-55037676D01*
X131246793Y-55037676D02*
X131199174Y-55132914D01*
X131199174Y-55132914D02*
X131151555Y-55323390D01*
X131151555Y-55323390D02*
X131151555Y-55466247D01*
X131151555Y-55466247D02*
X131199174Y-55656723D01*
X131199174Y-55656723D02*
X131246793Y-55751961D01*
X131246793Y-55751961D02*
X131342031Y-55847200D01*
X131342031Y-55847200D02*
X131484888Y-55894819D01*
X131484888Y-55894819D02*
X131722983Y-55894819D01*
X118341792Y-53369819D02*
X118675125Y-52893628D01*
X118913220Y-53369819D02*
X118913220Y-52369819D01*
X118913220Y-52369819D02*
X118532268Y-52369819D01*
X118532268Y-52369819D02*
X118437030Y-52417438D01*
X118437030Y-52417438D02*
X118389411Y-52465057D01*
X118389411Y-52465057D02*
X118341792Y-52560295D01*
X118341792Y-52560295D02*
X118341792Y-52703152D01*
X118341792Y-52703152D02*
X118389411Y-52798390D01*
X118389411Y-52798390D02*
X118437030Y-52846009D01*
X118437030Y-52846009D02*
X118532268Y-52893628D01*
X118532268Y-52893628D02*
X118913220Y-52893628D01*
X117960839Y-53322200D02*
X117817982Y-53369819D01*
X117817982Y-53369819D02*
X117579887Y-53369819D01*
X117579887Y-53369819D02*
X117484649Y-53322200D01*
X117484649Y-53322200D02*
X117437030Y-53274580D01*
X117437030Y-53274580D02*
X117389411Y-53179342D01*
X117389411Y-53179342D02*
X117389411Y-53084104D01*
X117389411Y-53084104D02*
X117437030Y-52988866D01*
X117437030Y-52988866D02*
X117484649Y-52941247D01*
X117484649Y-52941247D02*
X117579887Y-52893628D01*
X117579887Y-52893628D02*
X117770363Y-52846009D01*
X117770363Y-52846009D02*
X117865601Y-52798390D01*
X117865601Y-52798390D02*
X117913220Y-52750771D01*
X117913220Y-52750771D02*
X117960839Y-52655533D01*
X117960839Y-52655533D02*
X117960839Y-52560295D01*
X117960839Y-52560295D02*
X117913220Y-52465057D01*
X117913220Y-52465057D02*
X117865601Y-52417438D01*
X117865601Y-52417438D02*
X117770363Y-52369819D01*
X117770363Y-52369819D02*
X117532268Y-52369819D01*
X117532268Y-52369819D02*
X117389411Y-52417438D01*
X116532268Y-52703152D02*
X116532268Y-53369819D01*
X116770363Y-52322200D02*
X117008458Y-53036485D01*
X117008458Y-53036485D02*
X116389411Y-53036485D01*
X115865601Y-52798390D02*
X115960839Y-52750771D01*
X115960839Y-52750771D02*
X116008458Y-52703152D01*
X116008458Y-52703152D02*
X116056077Y-52607914D01*
X116056077Y-52607914D02*
X116056077Y-52560295D01*
X116056077Y-52560295D02*
X116008458Y-52465057D01*
X116008458Y-52465057D02*
X115960839Y-52417438D01*
X115960839Y-52417438D02*
X115865601Y-52369819D01*
X115865601Y-52369819D02*
X115675125Y-52369819D01*
X115675125Y-52369819D02*
X115579887Y-52417438D01*
X115579887Y-52417438D02*
X115532268Y-52465057D01*
X115532268Y-52465057D02*
X115484649Y-52560295D01*
X115484649Y-52560295D02*
X115484649Y-52607914D01*
X115484649Y-52607914D02*
X115532268Y-52703152D01*
X115532268Y-52703152D02*
X115579887Y-52750771D01*
X115579887Y-52750771D02*
X115675125Y-52798390D01*
X115675125Y-52798390D02*
X115865601Y-52798390D01*
X115865601Y-52798390D02*
X115960839Y-52846009D01*
X115960839Y-52846009D02*
X116008458Y-52893628D01*
X116008458Y-52893628D02*
X116056077Y-52988866D01*
X116056077Y-52988866D02*
X116056077Y-53179342D01*
X116056077Y-53179342D02*
X116008458Y-53274580D01*
X116008458Y-53274580D02*
X115960839Y-53322200D01*
X115960839Y-53322200D02*
X115865601Y-53369819D01*
X115865601Y-53369819D02*
X115675125Y-53369819D01*
X115675125Y-53369819D02*
X115579887Y-53322200D01*
X115579887Y-53322200D02*
X115532268Y-53274580D01*
X115532268Y-53274580D02*
X115484649Y-53179342D01*
X115484649Y-53179342D02*
X115484649Y-52988866D01*
X115484649Y-52988866D02*
X115532268Y-52893628D01*
X115532268Y-52893628D02*
X115579887Y-52846009D01*
X115579887Y-52846009D02*
X115675125Y-52798390D01*
X114579887Y-52369819D02*
X115056077Y-52369819D01*
X115056077Y-52369819D02*
X115103696Y-52846009D01*
X115103696Y-52846009D02*
X115056077Y-52798390D01*
X115056077Y-52798390D02*
X114960839Y-52750771D01*
X114960839Y-52750771D02*
X114722744Y-52750771D01*
X114722744Y-52750771D02*
X114627506Y-52798390D01*
X114627506Y-52798390D02*
X114579887Y-52846009D01*
X114579887Y-52846009D02*
X114532268Y-52941247D01*
X114532268Y-52941247D02*
X114532268Y-53179342D01*
X114532268Y-53179342D02*
X114579887Y-53274580D01*
X114579887Y-53274580D02*
X114627506Y-53322200D01*
X114627506Y-53322200D02*
X114722744Y-53369819D01*
X114722744Y-53369819D02*
X114960839Y-53369819D01*
X114960839Y-53369819D02*
X115056077Y-53322200D01*
X115056077Y-53322200D02*
X115103696Y-53274580D01*
X106829887Y-61596009D02*
X107163220Y-61596009D01*
X107163220Y-62119819D02*
X107163220Y-61119819D01*
X107163220Y-61119819D02*
X106687030Y-61119819D01*
X105972744Y-61596009D02*
X105829887Y-61643628D01*
X105829887Y-61643628D02*
X105782268Y-61691247D01*
X105782268Y-61691247D02*
X105734649Y-61786485D01*
X105734649Y-61786485D02*
X105734649Y-61929342D01*
X105734649Y-61929342D02*
X105782268Y-62024580D01*
X105782268Y-62024580D02*
X105829887Y-62072200D01*
X105829887Y-62072200D02*
X105925125Y-62119819D01*
X105925125Y-62119819D02*
X106306077Y-62119819D01*
X106306077Y-62119819D02*
X106306077Y-61119819D01*
X106306077Y-61119819D02*
X105972744Y-61119819D01*
X105972744Y-61119819D02*
X105877506Y-61167438D01*
X105877506Y-61167438D02*
X105829887Y-61215057D01*
X105829887Y-61215057D02*
X105782268Y-61310295D01*
X105782268Y-61310295D02*
X105782268Y-61405533D01*
X105782268Y-61405533D02*
X105829887Y-61500771D01*
X105829887Y-61500771D02*
X105877506Y-61548390D01*
X105877506Y-61548390D02*
X105972744Y-61596009D01*
X105972744Y-61596009D02*
X106306077Y-61596009D01*
X135341792Y-55894819D02*
X135675125Y-55418628D01*
X135913220Y-55894819D02*
X135913220Y-54894819D01*
X135913220Y-54894819D02*
X135532268Y-54894819D01*
X135532268Y-54894819D02*
X135437030Y-54942438D01*
X135437030Y-54942438D02*
X135389411Y-54990057D01*
X135389411Y-54990057D02*
X135341792Y-55085295D01*
X135341792Y-55085295D02*
X135341792Y-55228152D01*
X135341792Y-55228152D02*
X135389411Y-55323390D01*
X135389411Y-55323390D02*
X135437030Y-55371009D01*
X135437030Y-55371009D02*
X135532268Y-55418628D01*
X135532268Y-55418628D02*
X135913220Y-55418628D01*
X135008458Y-55894819D02*
X134484649Y-55228152D01*
X135008458Y-55228152D02*
X134484649Y-55894819D01*
X148484649Y-61453152D02*
X148484649Y-62262676D01*
X148484649Y-62262676D02*
X148532268Y-62357914D01*
X148532268Y-62357914D02*
X148579887Y-62405533D01*
X148579887Y-62405533D02*
X148675125Y-62453152D01*
X148675125Y-62453152D02*
X148817982Y-62453152D01*
X148817982Y-62453152D02*
X148913220Y-62405533D01*
X148484649Y-62072200D02*
X148579887Y-62119819D01*
X148579887Y-62119819D02*
X148770363Y-62119819D01*
X148770363Y-62119819D02*
X148865601Y-62072200D01*
X148865601Y-62072200D02*
X148913220Y-62024580D01*
X148913220Y-62024580D02*
X148960839Y-61929342D01*
X148960839Y-61929342D02*
X148960839Y-61643628D01*
X148960839Y-61643628D02*
X148913220Y-61548390D01*
X148913220Y-61548390D02*
X148865601Y-61500771D01*
X148865601Y-61500771D02*
X148770363Y-61453152D01*
X148770363Y-61453152D02*
X148579887Y-61453152D01*
X148579887Y-61453152D02*
X148484649Y-61500771D01*
X148008458Y-61453152D02*
X148008458Y-62119819D01*
X148008458Y-61548390D02*
X147960839Y-61500771D01*
X147960839Y-61500771D02*
X147865601Y-61453152D01*
X147865601Y-61453152D02*
X147722744Y-61453152D01*
X147722744Y-61453152D02*
X147627506Y-61500771D01*
X147627506Y-61500771D02*
X147579887Y-61596009D01*
X147579887Y-61596009D02*
X147579887Y-62119819D01*
X146675125Y-62119819D02*
X146675125Y-61119819D01*
X146675125Y-62072200D02*
X146770363Y-62119819D01*
X146770363Y-62119819D02*
X146960839Y-62119819D01*
X146960839Y-62119819D02*
X147056077Y-62072200D01*
X147056077Y-62072200D02*
X147103696Y-62024580D01*
X147103696Y-62024580D02*
X147151315Y-61929342D01*
X147151315Y-61929342D02*
X147151315Y-61643628D01*
X147151315Y-61643628D02*
X147103696Y-61548390D01*
X147103696Y-61548390D02*
X147056077Y-61500771D01*
X147056077Y-61500771D02*
X146960839Y-61453152D01*
X146960839Y-61453152D02*
X146770363Y-61453152D01*
X146770363Y-61453152D02*
X146675125Y-61500771D01*
X141865840Y-54894819D02*
X141246793Y-54894819D01*
X141246793Y-54894819D02*
X141580126Y-55275771D01*
X141580126Y-55275771D02*
X141437269Y-55275771D01*
X141437269Y-55275771D02*
X141342031Y-55323390D01*
X141342031Y-55323390D02*
X141294412Y-55371009D01*
X141294412Y-55371009D02*
X141246793Y-55466247D01*
X141246793Y-55466247D02*
X141246793Y-55704342D01*
X141246793Y-55704342D02*
X141294412Y-55799580D01*
X141294412Y-55799580D02*
X141342031Y-55847200D01*
X141342031Y-55847200D02*
X141437269Y-55894819D01*
X141437269Y-55894819D02*
X141722983Y-55894819D01*
X141722983Y-55894819D02*
X141818221Y-55847200D01*
X141818221Y-55847200D02*
X141865840Y-55799580D01*
X140961078Y-54894819D02*
X140627745Y-55894819D01*
X140627745Y-55894819D02*
X140294412Y-54894819D01*
X140056316Y-54894819D02*
X139437269Y-54894819D01*
X139437269Y-54894819D02*
X139770602Y-55275771D01*
X139770602Y-55275771D02*
X139627745Y-55275771D01*
X139627745Y-55275771D02*
X139532507Y-55323390D01*
X139532507Y-55323390D02*
X139484888Y-55371009D01*
X139484888Y-55371009D02*
X139437269Y-55466247D01*
X139437269Y-55466247D02*
X139437269Y-55704342D01*
X139437269Y-55704342D02*
X139484888Y-55799580D01*
X139484888Y-55799580D02*
X139532507Y-55847200D01*
X139532507Y-55847200D02*
X139627745Y-55894819D01*
X139627745Y-55894819D02*
X139913459Y-55894819D01*
X139913459Y-55894819D02*
X140008697Y-55847200D01*
X140008697Y-55847200D02*
X140056316Y-55799580D01*
X123502505Y-55371009D02*
X123359648Y-55418628D01*
X123359648Y-55418628D02*
X123312029Y-55466247D01*
X123312029Y-55466247D02*
X123264410Y-55561485D01*
X123264410Y-55561485D02*
X123264410Y-55704342D01*
X123264410Y-55704342D02*
X123312029Y-55799580D01*
X123312029Y-55799580D02*
X123359648Y-55847200D01*
X123359648Y-55847200D02*
X123454886Y-55894819D01*
X123454886Y-55894819D02*
X123835838Y-55894819D01*
X123835838Y-55894819D02*
X123835838Y-54894819D01*
X123835838Y-54894819D02*
X123502505Y-54894819D01*
X123502505Y-54894819D02*
X123407267Y-54942438D01*
X123407267Y-54942438D02*
X123359648Y-54990057D01*
X123359648Y-54990057D02*
X123312029Y-55085295D01*
X123312029Y-55085295D02*
X123312029Y-55180533D01*
X123312029Y-55180533D02*
X123359648Y-55275771D01*
X123359648Y-55275771D02*
X123407267Y-55323390D01*
X123407267Y-55323390D02*
X123502505Y-55371009D01*
X123502505Y-55371009D02*
X123835838Y-55371009D01*
X130181076Y-54894819D02*
X129562029Y-54894819D01*
X129562029Y-54894819D02*
X129895362Y-55275771D01*
X129895362Y-55275771D02*
X129752505Y-55275771D01*
X129752505Y-55275771D02*
X129657267Y-55323390D01*
X129657267Y-55323390D02*
X129609648Y-55371009D01*
X129609648Y-55371009D02*
X129562029Y-55466247D01*
X129562029Y-55466247D02*
X129562029Y-55704342D01*
X129562029Y-55704342D02*
X129609648Y-55799580D01*
X129609648Y-55799580D02*
X129657267Y-55847200D01*
X129657267Y-55847200D02*
X129752505Y-55894819D01*
X129752505Y-55894819D02*
X130038219Y-55894819D01*
X130038219Y-55894819D02*
X130133457Y-55847200D01*
X130133457Y-55847200D02*
X130181076Y-55799580D01*
X129276314Y-54894819D02*
X128942981Y-55894819D01*
X128942981Y-55894819D02*
X128609648Y-54894819D01*
X128371552Y-54894819D02*
X127752505Y-54894819D01*
X127752505Y-54894819D02*
X128085838Y-55275771D01*
X128085838Y-55275771D02*
X127942981Y-55275771D01*
X127942981Y-55275771D02*
X127847743Y-55323390D01*
X127847743Y-55323390D02*
X127800124Y-55371009D01*
X127800124Y-55371009D02*
X127752505Y-55466247D01*
X127752505Y-55466247D02*
X127752505Y-55704342D01*
X127752505Y-55704342D02*
X127800124Y-55799580D01*
X127800124Y-55799580D02*
X127847743Y-55847200D01*
X127847743Y-55847200D02*
X127942981Y-55894819D01*
X127942981Y-55894819D02*
X128228695Y-55894819D01*
X128228695Y-55894819D02*
X128323933Y-55847200D01*
X128323933Y-55847200D02*
X128371552Y-55799580D01*
X110096009Y-62670112D02*
X110143628Y-62812969D01*
X110143628Y-62812969D02*
X110191247Y-62860588D01*
X110191247Y-62860588D02*
X110286485Y-62908207D01*
X110286485Y-62908207D02*
X110429342Y-62908207D01*
X110429342Y-62908207D02*
X110524580Y-62860588D01*
X110524580Y-62860588D02*
X110572200Y-62812969D01*
X110572200Y-62812969D02*
X110619819Y-62717731D01*
X110619819Y-62717731D02*
X110619819Y-62336779D01*
X110619819Y-62336779D02*
X109619819Y-62336779D01*
X109619819Y-62336779D02*
X109619819Y-62670112D01*
X109619819Y-62670112D02*
X109667438Y-62765350D01*
X109667438Y-62765350D02*
X109715057Y-62812969D01*
X109715057Y-62812969D02*
X109810295Y-62860588D01*
X109810295Y-62860588D02*
X109905533Y-62860588D01*
X109905533Y-62860588D02*
X110000771Y-62812969D01*
X110000771Y-62812969D02*
X110048390Y-62765350D01*
X110048390Y-62765350D02*
X110096009Y-62670112D01*
X110096009Y-62670112D02*
X110096009Y-62336779D01*
X109619819Y-63336779D02*
X110429342Y-63336779D01*
X110429342Y-63336779D02*
X110524580Y-63384398D01*
X110524580Y-63384398D02*
X110572200Y-63432017D01*
X110572200Y-63432017D02*
X110619819Y-63527255D01*
X110619819Y-63527255D02*
X110619819Y-63717731D01*
X110619819Y-63717731D02*
X110572200Y-63812969D01*
X110572200Y-63812969D02*
X110524580Y-63860588D01*
X110524580Y-63860588D02*
X110429342Y-63908207D01*
X110429342Y-63908207D02*
X109619819Y-63908207D01*
X110096009Y-64717731D02*
X110096009Y-64384398D01*
X110619819Y-64384398D02*
X109619819Y-64384398D01*
X109619819Y-64384398D02*
X109619819Y-64860588D01*
X110096009Y-65574874D02*
X110096009Y-65241541D01*
X110619819Y-65241541D02*
X109619819Y-65241541D01*
X109619819Y-65241541D02*
X109619819Y-65717731D01*
X136710839Y-66957200D02*
X136615601Y-67004819D01*
X136615601Y-67004819D02*
X136425125Y-67004819D01*
X136425125Y-67004819D02*
X136329887Y-66957200D01*
X136329887Y-66957200D02*
X136282268Y-66861961D01*
X136282268Y-66861961D02*
X136282268Y-66814342D01*
X136282268Y-66814342D02*
X136329887Y-66719104D01*
X136329887Y-66719104D02*
X136425125Y-66671485D01*
X136425125Y-66671485D02*
X136567982Y-66671485D01*
X136567982Y-66671485D02*
X136663220Y-66623866D01*
X136663220Y-66623866D02*
X136710839Y-66528628D01*
X136710839Y-66528628D02*
X136710839Y-66481009D01*
X136710839Y-66481009D02*
X136663220Y-66385771D01*
X136663220Y-66385771D02*
X136567982Y-66338152D01*
X136567982Y-66338152D02*
X136425125Y-66338152D01*
X136425125Y-66338152D02*
X136329887Y-66385771D01*
X135425125Y-66957200D02*
X135520363Y-67004819D01*
X135520363Y-67004819D02*
X135710839Y-67004819D01*
X135710839Y-67004819D02*
X135806077Y-66957200D01*
X135806077Y-66957200D02*
X135853696Y-66909580D01*
X135853696Y-66909580D02*
X135901315Y-66814342D01*
X135901315Y-66814342D02*
X135901315Y-66528628D01*
X135901315Y-66528628D02*
X135853696Y-66433390D01*
X135853696Y-66433390D02*
X135806077Y-66385771D01*
X135806077Y-66385771D02*
X135710839Y-66338152D01*
X135710839Y-66338152D02*
X135520363Y-66338152D01*
X135520363Y-66338152D02*
X135425125Y-66385771D01*
X134853696Y-67004819D02*
X134948934Y-66957200D01*
X134948934Y-66957200D02*
X134996553Y-66861961D01*
X134996553Y-66861961D02*
X134996553Y-66004819D01*
X148734649Y-71822200D02*
X148829887Y-71869819D01*
X148829887Y-71869819D02*
X149020363Y-71869819D01*
X149020363Y-71869819D02*
X149115601Y-71822200D01*
X149115601Y-71822200D02*
X149163220Y-71774580D01*
X149163220Y-71774580D02*
X149210839Y-71679342D01*
X149210839Y-71679342D02*
X149210839Y-71393628D01*
X149210839Y-71393628D02*
X149163220Y-71298390D01*
X149163220Y-71298390D02*
X149115601Y-71250771D01*
X149115601Y-71250771D02*
X149020363Y-71203152D01*
X149020363Y-71203152D02*
X148829887Y-71203152D01*
X148829887Y-71203152D02*
X148734649Y-71250771D01*
X147877506Y-71869819D02*
X147877506Y-71346009D01*
X147877506Y-71346009D02*
X147925125Y-71250771D01*
X147925125Y-71250771D02*
X148020363Y-71203152D01*
X148020363Y-71203152D02*
X148210839Y-71203152D01*
X148210839Y-71203152D02*
X148306077Y-71250771D01*
X147877506Y-71822200D02*
X147972744Y-71869819D01*
X147972744Y-71869819D02*
X148210839Y-71869819D01*
X148210839Y-71869819D02*
X148306077Y-71822200D01*
X148306077Y-71822200D02*
X148353696Y-71726961D01*
X148353696Y-71726961D02*
X148353696Y-71631723D01*
X148353696Y-71631723D02*
X148306077Y-71536485D01*
X148306077Y-71536485D02*
X148210839Y-71488866D01*
X148210839Y-71488866D02*
X147972744Y-71488866D01*
X147972744Y-71488866D02*
X147877506Y-71441247D01*
X147258458Y-71869819D02*
X147353696Y-71822200D01*
X147353696Y-71822200D02*
X147401315Y-71726961D01*
X147401315Y-71726961D02*
X147401315Y-70869819D01*
X146877505Y-71869819D02*
X146877505Y-71203152D01*
X146877505Y-70869819D02*
X146925124Y-70917438D01*
X146925124Y-70917438D02*
X146877505Y-70965057D01*
X146877505Y-70965057D02*
X146829886Y-70917438D01*
X146829886Y-70917438D02*
X146877505Y-70869819D01*
X146877505Y-70869819D02*
X146877505Y-70965057D01*
X146401315Y-71869819D02*
X146401315Y-70869819D01*
X146401315Y-71250771D02*
X146306077Y-71203152D01*
X146306077Y-71203152D02*
X146115601Y-71203152D01*
X146115601Y-71203152D02*
X146020363Y-71250771D01*
X146020363Y-71250771D02*
X145972744Y-71298390D01*
X145972744Y-71298390D02*
X145925125Y-71393628D01*
X145925125Y-71393628D02*
X145925125Y-71679342D01*
X145925125Y-71679342D02*
X145972744Y-71774580D01*
X145972744Y-71774580D02*
X146020363Y-71822200D01*
X146020363Y-71822200D02*
X146115601Y-71869819D01*
X146115601Y-71869819D02*
X146306077Y-71869819D01*
X146306077Y-71869819D02*
X146401315Y-71822200D01*
X139960839Y-66707200D02*
X139865601Y-66754819D01*
X139865601Y-66754819D02*
X139675125Y-66754819D01*
X139675125Y-66754819D02*
X139579887Y-66707200D01*
X139579887Y-66707200D02*
X139532268Y-66611961D01*
X139532268Y-66611961D02*
X139532268Y-66564342D01*
X139532268Y-66564342D02*
X139579887Y-66469104D01*
X139579887Y-66469104D02*
X139675125Y-66421485D01*
X139675125Y-66421485D02*
X139817982Y-66421485D01*
X139817982Y-66421485D02*
X139913220Y-66373866D01*
X139913220Y-66373866D02*
X139960839Y-66278628D01*
X139960839Y-66278628D02*
X139960839Y-66231009D01*
X139960839Y-66231009D02*
X139913220Y-66135771D01*
X139913220Y-66135771D02*
X139817982Y-66088152D01*
X139817982Y-66088152D02*
X139675125Y-66088152D01*
X139675125Y-66088152D02*
X139579887Y-66135771D01*
X138675125Y-66754819D02*
X138675125Y-65754819D01*
X138675125Y-66707200D02*
X138770363Y-66754819D01*
X138770363Y-66754819D02*
X138960839Y-66754819D01*
X138960839Y-66754819D02*
X139056077Y-66707200D01*
X139056077Y-66707200D02*
X139103696Y-66659580D01*
X139103696Y-66659580D02*
X139151315Y-66564342D01*
X139151315Y-66564342D02*
X139151315Y-66278628D01*
X139151315Y-66278628D02*
X139103696Y-66183390D01*
X139103696Y-66183390D02*
X139056077Y-66135771D01*
X139056077Y-66135771D02*
X138960839Y-66088152D01*
X138960839Y-66088152D02*
X138770363Y-66088152D01*
X138770363Y-66088152D02*
X138675125Y-66135771D01*
X137770363Y-66754819D02*
X137770363Y-66231009D01*
X137770363Y-66231009D02*
X137817982Y-66135771D01*
X137817982Y-66135771D02*
X137913220Y-66088152D01*
X137913220Y-66088152D02*
X138103696Y-66088152D01*
X138103696Y-66088152D02*
X138198934Y-66135771D01*
X137770363Y-66707200D02*
X137865601Y-66754819D01*
X137865601Y-66754819D02*
X138103696Y-66754819D01*
X138103696Y-66754819D02*
X138198934Y-66707200D01*
X138198934Y-66707200D02*
X138246553Y-66611961D01*
X138246553Y-66611961D02*
X138246553Y-66516723D01*
X138246553Y-66516723D02*
X138198934Y-66421485D01*
X138198934Y-66421485D02*
X138103696Y-66373866D01*
X138103696Y-66373866D02*
X137865601Y-66373866D01*
X137865601Y-66373866D02*
X137770363Y-66326247D01*
X101869819Y-61086779D02*
X102679342Y-61086779D01*
X102679342Y-61086779D02*
X102774580Y-61134398D01*
X102774580Y-61134398D02*
X102822200Y-61182017D01*
X102822200Y-61182017D02*
X102869819Y-61277255D01*
X102869819Y-61277255D02*
X102869819Y-61467731D01*
X102869819Y-61467731D02*
X102822200Y-61562969D01*
X102822200Y-61562969D02*
X102774580Y-61610588D01*
X102774580Y-61610588D02*
X102679342Y-61658207D01*
X102679342Y-61658207D02*
X101869819Y-61658207D01*
X102869819Y-62134398D02*
X101869819Y-62134398D01*
X101869819Y-62134398D02*
X102869819Y-62705826D01*
X102869819Y-62705826D02*
X101869819Y-62705826D01*
X102346009Y-63515350D02*
X102393628Y-63658207D01*
X102393628Y-63658207D02*
X102441247Y-63705826D01*
X102441247Y-63705826D02*
X102536485Y-63753445D01*
X102536485Y-63753445D02*
X102679342Y-63753445D01*
X102679342Y-63753445D02*
X102774580Y-63705826D01*
X102774580Y-63705826D02*
X102822200Y-63658207D01*
X102822200Y-63658207D02*
X102869819Y-63562969D01*
X102869819Y-63562969D02*
X102869819Y-63182017D01*
X102869819Y-63182017D02*
X101869819Y-63182017D01*
X101869819Y-63182017D02*
X101869819Y-63515350D01*
X101869819Y-63515350D02*
X101917438Y-63610588D01*
X101917438Y-63610588D02*
X101965057Y-63658207D01*
X101965057Y-63658207D02*
X102060295Y-63705826D01*
X102060295Y-63705826D02*
X102155533Y-63705826D01*
X102155533Y-63705826D02*
X102250771Y-63658207D01*
X102250771Y-63658207D02*
X102298390Y-63610588D01*
X102298390Y-63610588D02*
X102346009Y-63515350D01*
X102346009Y-63515350D02*
X102346009Y-63182017D01*
X101869819Y-64182017D02*
X102679342Y-64182017D01*
X102679342Y-64182017D02*
X102774580Y-64229636D01*
X102774580Y-64229636D02*
X102822200Y-64277255D01*
X102822200Y-64277255D02*
X102869819Y-64372493D01*
X102869819Y-64372493D02*
X102869819Y-64562969D01*
X102869819Y-64562969D02*
X102822200Y-64658207D01*
X102822200Y-64658207D02*
X102774580Y-64705826D01*
X102774580Y-64705826D02*
X102679342Y-64753445D01*
X102679342Y-64753445D02*
X101869819Y-64753445D01*
X102346009Y-65562969D02*
X102346009Y-65229636D01*
X102869819Y-65229636D02*
X101869819Y-65229636D01*
X101869819Y-65229636D02*
X101869819Y-65705826D01*
X102346009Y-66420112D02*
X102346009Y-66086779D01*
X102869819Y-66086779D02*
X101869819Y-66086779D01*
X101869819Y-66086779D02*
X101869819Y-66562969D01*
X142984649Y-66338152D02*
X142984649Y-67004819D01*
X143413220Y-66338152D02*
X143413220Y-66861961D01*
X143413220Y-66861961D02*
X143365601Y-66957200D01*
X143365601Y-66957200D02*
X143270363Y-67004819D01*
X143270363Y-67004819D02*
X143127506Y-67004819D01*
X143127506Y-67004819D02*
X143032268Y-66957200D01*
X143032268Y-66957200D02*
X142984649Y-66909580D01*
X142079887Y-67004819D02*
X142079887Y-66481009D01*
X142079887Y-66481009D02*
X142127506Y-66385771D01*
X142127506Y-66385771D02*
X142222744Y-66338152D01*
X142222744Y-66338152D02*
X142413220Y-66338152D01*
X142413220Y-66338152D02*
X142508458Y-66385771D01*
X142079887Y-66957200D02*
X142175125Y-67004819D01*
X142175125Y-67004819D02*
X142413220Y-67004819D01*
X142413220Y-67004819D02*
X142508458Y-66957200D01*
X142508458Y-66957200D02*
X142556077Y-66861961D01*
X142556077Y-66861961D02*
X142556077Y-66766723D01*
X142556077Y-66766723D02*
X142508458Y-66671485D01*
X142508458Y-66671485D02*
X142413220Y-66623866D01*
X142413220Y-66623866D02*
X142175125Y-66623866D01*
X142175125Y-66623866D02*
X142079887Y-66576247D01*
X141603696Y-67004819D02*
X141603696Y-66338152D01*
X141603696Y-66528628D02*
X141556077Y-66433390D01*
X141556077Y-66433390D02*
X141508458Y-66385771D01*
X141508458Y-66385771D02*
X141413220Y-66338152D01*
X141413220Y-66338152D02*
X141317982Y-66338152D01*
X141127505Y-66338152D02*
X140746553Y-66338152D01*
X140984648Y-66004819D02*
X140984648Y-66861961D01*
X140984648Y-66861961D02*
X140937029Y-66957200D01*
X140937029Y-66957200D02*
X140841791Y-67004819D01*
X140841791Y-67004819D02*
X140746553Y-67004819D01*
X127894819Y-60158207D02*
X127418628Y-59824874D01*
X127894819Y-59586779D02*
X126894819Y-59586779D01*
X126894819Y-59586779D02*
X126894819Y-59967731D01*
X126894819Y-59967731D02*
X126942438Y-60062969D01*
X126942438Y-60062969D02*
X126990057Y-60110588D01*
X126990057Y-60110588D02*
X127085295Y-60158207D01*
X127085295Y-60158207D02*
X127228152Y-60158207D01*
X127228152Y-60158207D02*
X127323390Y-60110588D01*
X127323390Y-60110588D02*
X127371009Y-60062969D01*
X127371009Y-60062969D02*
X127418628Y-59967731D01*
X127418628Y-59967731D02*
X127418628Y-59586779D01*
X127847200Y-60539160D02*
X127894819Y-60682017D01*
X127894819Y-60682017D02*
X127894819Y-60920112D01*
X127894819Y-60920112D02*
X127847200Y-61015350D01*
X127847200Y-61015350D02*
X127799580Y-61062969D01*
X127799580Y-61062969D02*
X127704342Y-61110588D01*
X127704342Y-61110588D02*
X127609104Y-61110588D01*
X127609104Y-61110588D02*
X127513866Y-61062969D01*
X127513866Y-61062969D02*
X127466247Y-61015350D01*
X127466247Y-61015350D02*
X127418628Y-60920112D01*
X127418628Y-60920112D02*
X127371009Y-60729636D01*
X127371009Y-60729636D02*
X127323390Y-60634398D01*
X127323390Y-60634398D02*
X127275771Y-60586779D01*
X127275771Y-60586779D02*
X127180533Y-60539160D01*
X127180533Y-60539160D02*
X127085295Y-60539160D01*
X127085295Y-60539160D02*
X126990057Y-60586779D01*
X126990057Y-60586779D02*
X126942438Y-60634398D01*
X126942438Y-60634398D02*
X126894819Y-60729636D01*
X126894819Y-60729636D02*
X126894819Y-60967731D01*
X126894819Y-60967731D02*
X126942438Y-61110588D01*
X127228152Y-61967731D02*
X127894819Y-61967731D01*
X126847200Y-61729636D02*
X127561485Y-61491541D01*
X127561485Y-61491541D02*
X127561485Y-62110588D01*
X127323390Y-62634398D02*
X127275771Y-62539160D01*
X127275771Y-62539160D02*
X127228152Y-62491541D01*
X127228152Y-62491541D02*
X127132914Y-62443922D01*
X127132914Y-62443922D02*
X127085295Y-62443922D01*
X127085295Y-62443922D02*
X126990057Y-62491541D01*
X126990057Y-62491541D02*
X126942438Y-62539160D01*
X126942438Y-62539160D02*
X126894819Y-62634398D01*
X126894819Y-62634398D02*
X126894819Y-62824874D01*
X126894819Y-62824874D02*
X126942438Y-62920112D01*
X126942438Y-62920112D02*
X126990057Y-62967731D01*
X126990057Y-62967731D02*
X127085295Y-63015350D01*
X127085295Y-63015350D02*
X127132914Y-63015350D01*
X127132914Y-63015350D02*
X127228152Y-62967731D01*
X127228152Y-62967731D02*
X127275771Y-62920112D01*
X127275771Y-62920112D02*
X127323390Y-62824874D01*
X127323390Y-62824874D02*
X127323390Y-62634398D01*
X127323390Y-62634398D02*
X127371009Y-62539160D01*
X127371009Y-62539160D02*
X127418628Y-62491541D01*
X127418628Y-62491541D02*
X127513866Y-62443922D01*
X127513866Y-62443922D02*
X127704342Y-62443922D01*
X127704342Y-62443922D02*
X127799580Y-62491541D01*
X127799580Y-62491541D02*
X127847200Y-62539160D01*
X127847200Y-62539160D02*
X127894819Y-62634398D01*
X127894819Y-62634398D02*
X127894819Y-62824874D01*
X127894819Y-62824874D02*
X127847200Y-62920112D01*
X127847200Y-62920112D02*
X127799580Y-62967731D01*
X127799580Y-62967731D02*
X127704342Y-63015350D01*
X127704342Y-63015350D02*
X127513866Y-63015350D01*
X127513866Y-63015350D02*
X127418628Y-62967731D01*
X127418628Y-62967731D02*
X127371009Y-62920112D01*
X127371009Y-62920112D02*
X127323390Y-62824874D01*
X126894819Y-63920112D02*
X126894819Y-63443922D01*
X126894819Y-63443922D02*
X127371009Y-63396303D01*
X127371009Y-63396303D02*
X127323390Y-63443922D01*
X127323390Y-63443922D02*
X127275771Y-63539160D01*
X127275771Y-63539160D02*
X127275771Y-63777255D01*
X127275771Y-63777255D02*
X127323390Y-63872493D01*
X127323390Y-63872493D02*
X127371009Y-63920112D01*
X127371009Y-63920112D02*
X127466247Y-63967731D01*
X127466247Y-63967731D02*
X127704342Y-63967731D01*
X127704342Y-63967731D02*
X127799580Y-63920112D01*
X127799580Y-63920112D02*
X127847200Y-63872493D01*
X127847200Y-63872493D02*
X127894819Y-63777255D01*
X127894819Y-63777255D02*
X127894819Y-63539160D01*
X127894819Y-63539160D02*
X127847200Y-63443922D01*
X127847200Y-63443922D02*
X127799580Y-63396303D01*
X127894819Y-65729636D02*
X127418628Y-65396303D01*
X127894819Y-65158208D02*
X126894819Y-65158208D01*
X126894819Y-65158208D02*
X126894819Y-65539160D01*
X126894819Y-65539160D02*
X126942438Y-65634398D01*
X126942438Y-65634398D02*
X126990057Y-65682017D01*
X126990057Y-65682017D02*
X127085295Y-65729636D01*
X127085295Y-65729636D02*
X127228152Y-65729636D01*
X127228152Y-65729636D02*
X127323390Y-65682017D01*
X127323390Y-65682017D02*
X127371009Y-65634398D01*
X127371009Y-65634398D02*
X127418628Y-65539160D01*
X127418628Y-65539160D02*
X127418628Y-65158208D01*
X127894819Y-66158208D02*
X126894819Y-66158208D01*
X126894819Y-66158208D02*
X126894819Y-66539160D01*
X126894819Y-66539160D02*
X126942438Y-66634398D01*
X126942438Y-66634398D02*
X126990057Y-66682017D01*
X126990057Y-66682017D02*
X127085295Y-66729636D01*
X127085295Y-66729636D02*
X127228152Y-66729636D01*
X127228152Y-66729636D02*
X127323390Y-66682017D01*
X127323390Y-66682017D02*
X127371009Y-66634398D01*
X127371009Y-66634398D02*
X127418628Y-66539160D01*
X127418628Y-66539160D02*
X127418628Y-66158208D01*
X145460839Y-71572200D02*
X145365601Y-71619819D01*
X145365601Y-71619819D02*
X145175125Y-71619819D01*
X145175125Y-71619819D02*
X145079887Y-71572200D01*
X145079887Y-71572200D02*
X145032268Y-71476961D01*
X145032268Y-71476961D02*
X145032268Y-71429342D01*
X145032268Y-71429342D02*
X145079887Y-71334104D01*
X145079887Y-71334104D02*
X145175125Y-71286485D01*
X145175125Y-71286485D02*
X145317982Y-71286485D01*
X145317982Y-71286485D02*
X145413220Y-71238866D01*
X145413220Y-71238866D02*
X145460839Y-71143628D01*
X145460839Y-71143628D02*
X145460839Y-71096009D01*
X145460839Y-71096009D02*
X145413220Y-71000771D01*
X145413220Y-71000771D02*
X145317982Y-70953152D01*
X145317982Y-70953152D02*
X145175125Y-70953152D01*
X145175125Y-70953152D02*
X145079887Y-71000771D01*
X144603696Y-71619819D02*
X144603696Y-70953152D01*
X144603696Y-70619819D02*
X144651315Y-70667438D01*
X144651315Y-70667438D02*
X144603696Y-70715057D01*
X144603696Y-70715057D02*
X144556077Y-70667438D01*
X144556077Y-70667438D02*
X144603696Y-70619819D01*
X144603696Y-70619819D02*
X144603696Y-70715057D01*
X143698935Y-70953152D02*
X143698935Y-71762676D01*
X143698935Y-71762676D02*
X143746554Y-71857914D01*
X143746554Y-71857914D02*
X143794173Y-71905533D01*
X143794173Y-71905533D02*
X143889411Y-71953152D01*
X143889411Y-71953152D02*
X144032268Y-71953152D01*
X144032268Y-71953152D02*
X144127506Y-71905533D01*
X143698935Y-71572200D02*
X143794173Y-71619819D01*
X143794173Y-71619819D02*
X143984649Y-71619819D01*
X143984649Y-71619819D02*
X144079887Y-71572200D01*
X144079887Y-71572200D02*
X144127506Y-71524580D01*
X144127506Y-71524580D02*
X144175125Y-71429342D01*
X144175125Y-71429342D02*
X144175125Y-71143628D01*
X144175125Y-71143628D02*
X144127506Y-71048390D01*
X144127506Y-71048390D02*
X144079887Y-71000771D01*
X144079887Y-71000771D02*
X143984649Y-70953152D01*
X143984649Y-70953152D02*
X143794173Y-70953152D01*
X143794173Y-70953152D02*
X143698935Y-71000771D01*
X145558331Y-95909819D02*
X145558331Y-96624104D01*
X145558331Y-96624104D02*
X145605950Y-96766961D01*
X145605950Y-96766961D02*
X145701188Y-96862200D01*
X145701188Y-96862200D02*
X145844045Y-96909819D01*
X145844045Y-96909819D02*
X145939283Y-96909819D01*
X145177378Y-95909819D02*
X144510712Y-95909819D01*
X144510712Y-95909819D02*
X144939283Y-96909819D01*
X123795180Y-94583333D02*
X123080895Y-94583333D01*
X123080895Y-94583333D02*
X122938038Y-94630952D01*
X122938038Y-94630952D02*
X122842800Y-94726190D01*
X122842800Y-94726190D02*
X122795180Y-94869047D01*
X122795180Y-94869047D02*
X122795180Y-94964285D01*
X122795180Y-93583333D02*
X122795180Y-94154761D01*
X122795180Y-93869047D02*
X123795180Y-93869047D01*
X123795180Y-93869047D02*
X123652323Y-93964285D01*
X123652323Y-93964285D02*
X123557085Y-94059523D01*
X123557085Y-94059523D02*
X123509466Y-94154761D01*
X107333333Y-65204819D02*
X107333333Y-65919104D01*
X107333333Y-65919104D02*
X107380952Y-66061961D01*
X107380952Y-66061961D02*
X107476190Y-66157200D01*
X107476190Y-66157200D02*
X107619047Y-66204819D01*
X107619047Y-66204819D02*
X107714285Y-66204819D01*
X106857142Y-66204819D02*
X106857142Y-65204819D01*
X106857142Y-65204819D02*
X106476190Y-65204819D01*
X106476190Y-65204819D02*
X106380952Y-65252438D01*
X106380952Y-65252438D02*
X106333333Y-65300057D01*
X106333333Y-65300057D02*
X106285714Y-65395295D01*
X106285714Y-65395295D02*
X106285714Y-65538152D01*
X106285714Y-65538152D02*
X106333333Y-65633390D01*
X106333333Y-65633390D02*
X106380952Y-65681009D01*
X106380952Y-65681009D02*
X106476190Y-65728628D01*
X106476190Y-65728628D02*
X106857142Y-65728628D01*
X105333333Y-66204819D02*
X105904761Y-66204819D01*
X105619047Y-66204819D02*
X105619047Y-65204819D01*
X105619047Y-65204819D02*
X105714285Y-65347676D01*
X105714285Y-65347676D02*
X105809523Y-65442914D01*
X105809523Y-65442914D02*
X105904761Y-65490533D01*
X126454819Y-93916666D02*
X127169104Y-93916666D01*
X127169104Y-93916666D02*
X127311961Y-93869047D01*
X127311961Y-93869047D02*
X127407200Y-93773809D01*
X127407200Y-93773809D02*
X127454819Y-93630952D01*
X127454819Y-93630952D02*
X127454819Y-93535714D01*
X126788152Y-94821428D02*
X127454819Y-94821428D01*
X126407200Y-94583333D02*
X127121485Y-94345238D01*
X127121485Y-94345238D02*
X127121485Y-94964285D01*
X140458333Y-95909819D02*
X140458333Y-96624104D01*
X140458333Y-96624104D02*
X140505952Y-96766961D01*
X140505952Y-96766961D02*
X140601190Y-96862200D01*
X140601190Y-96862200D02*
X140744047Y-96909819D01*
X140744047Y-96909819D02*
X140839285Y-96909819D01*
X140077380Y-95909819D02*
X139458333Y-95909819D01*
X139458333Y-95909819D02*
X139791666Y-96290771D01*
X139791666Y-96290771D02*
X139648809Y-96290771D01*
X139648809Y-96290771D02*
X139553571Y-96338390D01*
X139553571Y-96338390D02*
X139505952Y-96386009D01*
X139505952Y-96386009D02*
X139458333Y-96481247D01*
X139458333Y-96481247D02*
X139458333Y-96719342D01*
X139458333Y-96719342D02*
X139505952Y-96814580D01*
X139505952Y-96814580D02*
X139553571Y-96862200D01*
X139553571Y-96862200D02*
X139648809Y-96909819D01*
X139648809Y-96909819D02*
X139934523Y-96909819D01*
X139934523Y-96909819D02*
X140029761Y-96862200D01*
X140029761Y-96862200D02*
X140077380Y-96814580D01*
X137559523Y-60839819D02*
X137559523Y-61554104D01*
X137559523Y-61554104D02*
X137607142Y-61696961D01*
X137607142Y-61696961D02*
X137702380Y-61792200D01*
X137702380Y-61792200D02*
X137845237Y-61839819D01*
X137845237Y-61839819D02*
X137940475Y-61839819D01*
X136559523Y-61839819D02*
X137130951Y-61839819D01*
X136845237Y-61839819D02*
X136845237Y-60839819D01*
X136845237Y-60839819D02*
X136940475Y-60982676D01*
X136940475Y-60982676D02*
X137035713Y-61077914D01*
X137035713Y-61077914D02*
X137130951Y-61125533D01*
X135940475Y-60839819D02*
X135845237Y-60839819D01*
X135845237Y-60839819D02*
X135749999Y-60887438D01*
X135749999Y-60887438D02*
X135702380Y-60935057D01*
X135702380Y-60935057D02*
X135654761Y-61030295D01*
X135654761Y-61030295D02*
X135607142Y-61220771D01*
X135607142Y-61220771D02*
X135607142Y-61458866D01*
X135607142Y-61458866D02*
X135654761Y-61649342D01*
X135654761Y-61649342D02*
X135702380Y-61744580D01*
X135702380Y-61744580D02*
X135749999Y-61792200D01*
X135749999Y-61792200D02*
X135845237Y-61839819D01*
X135845237Y-61839819D02*
X135940475Y-61839819D01*
X135940475Y-61839819D02*
X136035713Y-61792200D01*
X136035713Y-61792200D02*
X136083332Y-61744580D01*
X136083332Y-61744580D02*
X136130951Y-61649342D01*
X136130951Y-61649342D02*
X136178570Y-61458866D01*
X136178570Y-61458866D02*
X136178570Y-61220771D01*
X136178570Y-61220771D02*
X136130951Y-61030295D01*
X136130951Y-61030295D02*
X136083332Y-60935057D01*
X136083332Y-60935057D02*
X136035713Y-60887438D01*
X136035713Y-60887438D02*
X135940475Y-60839819D01*
X135458333Y-95909819D02*
X135458333Y-96624104D01*
X135458333Y-96624104D02*
X135505952Y-96766961D01*
X135505952Y-96766961D02*
X135601190Y-96862200D01*
X135601190Y-96862200D02*
X135744047Y-96909819D01*
X135744047Y-96909819D02*
X135839285Y-96909819D01*
X134553571Y-95909819D02*
X134744047Y-95909819D01*
X134744047Y-95909819D02*
X134839285Y-95957438D01*
X134839285Y-95957438D02*
X134886904Y-96005057D01*
X134886904Y-96005057D02*
X134982142Y-96147914D01*
X134982142Y-96147914D02*
X135029761Y-96338390D01*
X135029761Y-96338390D02*
X135029761Y-96719342D01*
X135029761Y-96719342D02*
X134982142Y-96814580D01*
X134982142Y-96814580D02*
X134934523Y-96862200D01*
X134934523Y-96862200D02*
X134839285Y-96909819D01*
X134839285Y-96909819D02*
X134648809Y-96909819D01*
X134648809Y-96909819D02*
X134553571Y-96862200D01*
X134553571Y-96862200D02*
X134505952Y-96814580D01*
X134505952Y-96814580D02*
X134458333Y-96719342D01*
X134458333Y-96719342D02*
X134458333Y-96481247D01*
X134458333Y-96481247D02*
X134505952Y-96386009D01*
X134505952Y-96386009D02*
X134553571Y-96338390D01*
X134553571Y-96338390D02*
X134648809Y-96290771D01*
X134648809Y-96290771D02*
X134839285Y-96290771D01*
X134839285Y-96290771D02*
X134934523Y-96338390D01*
X134934523Y-96338390D02*
X134982142Y-96386009D01*
X134982142Y-96386009D02*
X135029761Y-96481247D01*
X110454819Y-93916666D02*
X111169104Y-93916666D01*
X111169104Y-93916666D02*
X111311961Y-93869047D01*
X111311961Y-93869047D02*
X111407200Y-93773809D01*
X111407200Y-93773809D02*
X111454819Y-93630952D01*
X111454819Y-93630952D02*
X111454819Y-93535714D01*
X110550057Y-94345238D02*
X110502438Y-94392857D01*
X110502438Y-94392857D02*
X110454819Y-94488095D01*
X110454819Y-94488095D02*
X110454819Y-94726190D01*
X110454819Y-94726190D02*
X110502438Y-94821428D01*
X110502438Y-94821428D02*
X110550057Y-94869047D01*
X110550057Y-94869047D02*
X110645295Y-94916666D01*
X110645295Y-94916666D02*
X110740533Y-94916666D01*
X110740533Y-94916666D02*
X110883390Y-94869047D01*
X110883390Y-94869047D02*
X111454819Y-94297619D01*
X111454819Y-94297619D02*
X111454819Y-94916666D01*
X108295180Y-94583333D02*
X107580895Y-94583333D01*
X107580895Y-94583333D02*
X107438038Y-94630952D01*
X107438038Y-94630952D02*
X107342800Y-94726190D01*
X107342800Y-94726190D02*
X107295180Y-94869047D01*
X107295180Y-94869047D02*
X107295180Y-94964285D01*
X108295180Y-93630952D02*
X108295180Y-94107142D01*
X108295180Y-94107142D02*
X107818990Y-94154761D01*
X107818990Y-94154761D02*
X107866609Y-94107142D01*
X107866609Y-94107142D02*
X107914228Y-94011904D01*
X107914228Y-94011904D02*
X107914228Y-93773809D01*
X107914228Y-93773809D02*
X107866609Y-93678571D01*
X107866609Y-93678571D02*
X107818990Y-93630952D01*
X107818990Y-93630952D02*
X107723752Y-93583333D01*
X107723752Y-93583333D02*
X107485657Y-93583333D01*
X107485657Y-93583333D02*
X107390419Y-93630952D01*
X107390419Y-93630952D02*
X107342800Y-93678571D01*
X107342800Y-93678571D02*
X107295180Y-93773809D01*
X107295180Y-93773809D02*
X107295180Y-94011904D01*
X107295180Y-94011904D02*
X107342800Y-94107142D01*
X107342800Y-94107142D02*
X107390419Y-94154761D01*
D11*
X130687500Y-56500000D02*
X133487500Y-56500000D01*
X130687500Y-58500000D02*
X130687500Y-56500000D01*
X133487500Y-56500000D02*
X133487500Y-58500000D01*
X133487500Y-58500000D02*
X130687500Y-58500000D01*
X143550000Y-67800000D02*
X145950000Y-67800000D01*
X143550000Y-70200000D02*
X143550000Y-67800000D01*
X145950000Y-67800000D02*
X145950000Y-70200000D01*
X145950000Y-70200000D02*
X143550000Y-70200000D01*
X143894998Y-92795000D02*
X143894998Y-92855000D01*
X143894998Y-95455000D02*
X143894998Y-94125000D01*
X145224998Y-95455000D02*
X143894998Y-95455000D01*
X146554998Y-92795000D02*
X143894998Y-92795000D01*
X146554998Y-92795000D02*
X146554998Y-92855000D01*
X146554998Y-92855000D02*
X143894998Y-92855000D01*
X146550000Y-58050000D02*
X148950000Y-58050000D01*
X146550000Y-60450000D02*
X146550000Y-58050000D01*
X148950000Y-58050000D02*
X148950000Y-60450000D01*
X148950000Y-60450000D02*
X146550000Y-60450000D01*
X103500000Y-62800000D02*
X109000000Y-62800000D01*
X103500000Y-64750000D02*
X103500000Y-62800000D01*
X104550000Y-62250000D02*
X104850000Y-62550000D01*
X104850000Y-62550000D02*
X105150000Y-62250000D01*
X105150000Y-62250000D02*
X104550000Y-62250000D01*
X109000000Y-62800000D02*
X109000000Y-64750000D01*
X109000000Y-64750000D02*
X103500000Y-64750000D01*
X138795000Y-92795000D02*
X138795000Y-92855000D01*
X138795000Y-95455000D02*
X138795000Y-94125000D01*
X140125000Y-95455000D02*
X138795000Y-95455000D01*
X141455000Y-92795000D02*
X138795000Y-92795000D01*
X141455000Y-92795000D02*
X141455000Y-92855000D01*
X141455000Y-92855000D02*
X138795000Y-92855000D01*
X140550000Y-62935000D02*
X142950000Y-62935000D01*
X140550000Y-65335000D02*
X140550000Y-62935000D01*
X142950000Y-62935000D02*
X142950000Y-65335000D01*
X142950000Y-65335000D02*
X140550000Y-65335000D01*
X141155000Y-59385000D02*
X141155000Y-60020000D01*
X141155000Y-60020000D02*
X140520000Y-60020000D01*
X140550000Y-67800000D02*
X142950000Y-67800000D01*
X140550000Y-70200000D02*
X140550000Y-67800000D01*
X142950000Y-67800000D02*
X142950000Y-70200000D01*
X142950000Y-70200000D02*
X140550000Y-70200000D01*
X133795000Y-92795000D02*
X133795000Y-92855000D01*
X133795000Y-95455000D02*
X133795000Y-94125000D01*
X135125000Y-95455000D02*
X133795000Y-95455000D01*
X136455000Y-92795000D02*
X133795000Y-92795000D01*
X136455000Y-92795000D02*
X136455000Y-92855000D01*
X136455000Y-92855000D02*
X133795000Y-92855000D01*
X131550000Y-51420000D02*
X131550000Y-54080000D01*
X131550000Y-51420000D02*
X139230000Y-51420000D01*
X131550000Y-54080000D02*
X139230000Y-54080000D01*
X139230000Y-51420000D02*
X139230000Y-54080000D01*
X140500000Y-51420000D02*
X141830000Y-51420000D01*
X141830000Y-51420000D02*
X141830000Y-52750000D01*
X146550000Y-62935000D02*
X148950000Y-62935000D01*
X146550000Y-65335000D02*
X146550000Y-62935000D01*
X148950000Y-62935000D02*
X148950000Y-65335000D01*
X148950000Y-65335000D02*
X146550000Y-65335000D01*
X146550000Y-67800000D02*
X148950000Y-67800000D01*
X146550000Y-70200000D02*
X146550000Y-67800000D01*
X148950000Y-67800000D02*
X148950000Y-70200000D01*
X148950000Y-70200000D02*
X146550000Y-70200000D01*
X125875000Y-56500000D02*
X128675000Y-56500000D01*
X125875000Y-58500000D02*
X125875000Y-56500000D01*
X128675000Y-56500000D02*
X128675000Y-58500000D01*
X128675000Y-58500000D02*
X125875000Y-58500000D01*
X137550000Y-67800000D02*
X139950000Y-67800000D01*
X137550000Y-70200000D02*
X137550000Y-67800000D01*
X139950000Y-67800000D02*
X139950000Y-70200000D01*
X139950000Y-70200000D02*
X137550000Y-70200000D01*
X119600000Y-51395000D02*
X119600000Y-54055000D01*
X119600000Y-51395000D02*
X127280000Y-51395000D01*
X119600000Y-54055000D02*
X127280000Y-54055000D01*
X127280000Y-51395000D02*
X127280000Y-54055000D01*
X128550000Y-51395000D02*
X129880000Y-51395000D01*
X129880000Y-51395000D02*
X129880000Y-52725000D01*
X134550000Y-67800000D02*
X136950000Y-67800000D01*
X134550000Y-70200000D02*
X134550000Y-67800000D01*
X136950000Y-67800000D02*
X136950000Y-70200000D01*
X136950000Y-70200000D02*
X134550000Y-70200000D01*
X143550000Y-62935000D02*
X145950000Y-62935000D01*
X143550000Y-65335000D02*
X143550000Y-62935000D01*
X145950000Y-62935000D02*
X145950000Y-65335000D01*
X145950000Y-65335000D02*
X143550000Y-65335000D01*
X137550000Y-62935000D02*
X139950000Y-62935000D01*
X137550000Y-65335000D02*
X137550000Y-62935000D01*
X139950000Y-62935000D02*
X139950000Y-65335000D01*
X139950000Y-65335000D02*
X137550000Y-65335000D01*
X134550000Y-62935000D02*
X136950000Y-62935000D01*
X134550000Y-65335000D02*
X134550000Y-62935000D01*
X136950000Y-62935000D02*
X136950000Y-65335000D01*
X136950000Y-65335000D02*
X134550000Y-65335000D01*
%LPC*%
D12*
G36*
X106950000Y-63750000D02*
G01*
X107450000Y-64500000D01*
X105050000Y-64500000D01*
X105550000Y-63750000D01*
X105050000Y-63000000D01*
X107450000Y-63000000D01*
X106950000Y-63750000D01*
G37*
D13*
X131362500Y-57500000D03*
D14*
X132812500Y-57500000D03*
D15*
X144750000Y-69000000D03*
D16*
X145224998Y-94125000D03*
D15*
X147750000Y-59250000D03*
D17*
X121350000Y-94250000D03*
D13*
X104250000Y-63750000D03*
D18*
X108250000Y-63750000D03*
D17*
X128900000Y-94250000D03*
D16*
X140125000Y-94125000D03*
D15*
X141750000Y-64135000D03*
D19*
X141790000Y-58750000D03*
X136710000Y-59766000D03*
X136710000Y-57734000D03*
D20*
X140520000Y-59385000D03*
X140520000Y-58115000D03*
X139250000Y-59385000D03*
X139250000Y-58115000D03*
X137980000Y-59385000D03*
X137980000Y-58115000D03*
D15*
X141750000Y-69000000D03*
D16*
X135125000Y-94125000D03*
X140500000Y-52750000D03*
D21*
X137960000Y-52750000D03*
X135420000Y-52750000D03*
X132880000Y-52750000D03*
D15*
X147750000Y-64135000D03*
D17*
X113025000Y-94250000D03*
X105725000Y-94250000D03*
D15*
X147750000Y-69000000D03*
D13*
X126550000Y-57500000D03*
D14*
X128000000Y-57500000D03*
D15*
X138750000Y-69000000D03*
D16*
X128550000Y-52725000D03*
D21*
X126010000Y-52725000D03*
X123470000Y-52725000D03*
X120930000Y-52725000D03*
D15*
X135750000Y-69000000D03*
X144750000Y-64135000D03*
X138750000Y-64135000D03*
X135750000Y-64135000D03*
%LPD*%
M02*
