%TF.GenerationSoftware,KiCad,Pcbnew,8.0.4*%
%TF.CreationDate,2024-08-28T18:09:27+02:00*%
%TF.ProjectId,Probe,50726f62-652e-46b6-9963-61645f706362,v1*%
%TF.SameCoordinates,Original*%
%TF.FileFunction,Drillmap*%
%TF.FilePolarity,Positive*%
%FSLAX45Y45*%
G04 Gerber Fmt 4.5, Leading zero omitted, Abs format (unit mm)*
G04 Created by KiCad (PCBNEW 8.0.4) date 2024-08-28 18:09:27*
%MOMM*%
%LPD*%
G01*
G04 APERTURE LIST*
%ADD10C,0.100000*%
%ADD11C,0.050000*%
%ADD12C,0.200000*%
G04 APERTURE END LIST*
D10*
X14800000Y-5450000D02*
G75*
G02*
X14300000Y-5450000I-250000J0D01*
G01*
X14300000Y-5450000D02*
G75*
G02*
X14800000Y-5450000I250000J0D01*
G01*
X10000000Y-5300000D02*
G75*
G02*
X10300000Y-5000000I300000J0D01*
G01*
X10300000Y-10000000D02*
G75*
G02*
X10000000Y-9700000I0J300000D01*
G01*
X10000000Y-5300000D02*
X10000000Y-9700000D01*
X14700000Y-10000000D02*
X10300000Y-10000000D01*
X15000000Y-9700000D02*
G75*
G02*
X14700000Y-10000000I-300000J0D01*
G01*
X10300000Y-5000000D02*
X14700000Y-5000000D01*
X15000000Y-5300000D02*
X15000000Y-9700000D01*
X14700000Y-5000000D02*
G75*
G02*
X15000000Y-5300000I0J-300000D01*
G01*
X10700000Y-5450000D02*
G75*
G02*
X10200000Y-5450000I-250000J0D01*
G01*
X10200000Y-5450000D02*
G75*
G02*
X10700000Y-5450000I250000J0D01*
G01*
D11*
X11750000Y-8920000D02*
X11750000Y-9880000D01*
X11790000Y-8880000D02*
X11930000Y-8880000D01*
X11790000Y-9920000D02*
X11930000Y-9920000D01*
X11970000Y-8920000D02*
X11970000Y-9880000D01*
X11750000Y-8920000D02*
G75*
G02*
X11790000Y-8880000I40000J0D01*
G01*
X11790000Y-9920000D02*
G75*
G02*
X11750000Y-9880000I0J40000D01*
G01*
X11930000Y-8880000D02*
G75*
G02*
X11970000Y-8920000I0J-40000D01*
G01*
X11970000Y-9880000D02*
G75*
G02*
X11930000Y-9920000I-40000J0D01*
G01*
X12980000Y-9880000D02*
X12980000Y-8920000D01*
X13160000Y-8880000D02*
X13020000Y-8880000D01*
X13160000Y-9920000D02*
X13020000Y-9920000D01*
X13200000Y-9880000D02*
X13200000Y-8920000D01*
X12980000Y-8920000D02*
G75*
G02*
X13020000Y-8880000I40000J0D01*
G01*
X13020000Y-9920000D02*
G75*
G02*
X12980000Y-9880000I0J40000D01*
G01*
X13160000Y-8880000D02*
G75*
G02*
X13200000Y-8920000I0J-40000D01*
G01*
X13200000Y-9880000D02*
G75*
G02*
X13160000Y-9920000I-40000J0D01*
G01*
D12*
D10*
X10160000Y-6260000D02*
X10190000Y-6290000D01*
X10190000Y-6260000D02*
X10160000Y-6290000D01*
X10210000Y-6185000D02*
X10240000Y-6215000D01*
X10240000Y-6185000D02*
X10210000Y-6215000D01*
X10535000Y-7035000D02*
X10565000Y-7065000D01*
X10565000Y-7035000D02*
X10535000Y-7065000D01*
X10585000Y-6960000D02*
X10615000Y-6990000D01*
X10615000Y-6960000D02*
X10585000Y-6990000D01*
X10765000Y-7265000D02*
X10795000Y-7295000D01*
X10795000Y-7265000D02*
X10765000Y-7295000D01*
X10785000Y-7345000D02*
X10815000Y-7375000D01*
X10815000Y-7345000D02*
X10785000Y-7375000D01*
X10985000Y-7305000D02*
X11015000Y-7335000D01*
X11015000Y-7305000D02*
X10985000Y-7335000D01*
X11010000Y-5585000D02*
X11040000Y-5615000D01*
X11040000Y-5585000D02*
X11010000Y-5615000D01*
X11072500Y-7760000D02*
X11102500Y-7790000D01*
X11102500Y-7760000D02*
X11072500Y-7790000D01*
X11072500Y-7860000D02*
X11102500Y-7890000D01*
X11102500Y-7860000D02*
X11072500Y-7890000D01*
X11085000Y-7295000D02*
X11115000Y-7325000D01*
X11115000Y-7295000D02*
X11085000Y-7325000D01*
X11110000Y-6735000D02*
X11140000Y-6765000D01*
X11140000Y-6735000D02*
X11110000Y-6765000D01*
X11113159Y-6831841D02*
X11143159Y-6861841D01*
X11143159Y-6831841D02*
X11113159Y-6861841D01*
X11165000Y-7295000D02*
X11195000Y-7325000D01*
X11195000Y-7295000D02*
X11165000Y-7325000D01*
X11165000Y-9272500D02*
X11195000Y-9302500D01*
X11195000Y-9272500D02*
X11165000Y-9302500D01*
X11185000Y-5710000D02*
X11215000Y-5740000D01*
X11215000Y-5710000D02*
X11185000Y-5740000D01*
X11185000Y-7910000D02*
X11215000Y-7940000D01*
X11215000Y-7910000D02*
X11185000Y-7940000D01*
X11205000Y-8977500D02*
X11235000Y-9007500D01*
X11235000Y-8977500D02*
X11205000Y-9007500D01*
X11210000Y-7585000D02*
X11240000Y-7615000D01*
X11240000Y-7585000D02*
X11210000Y-7615000D01*
X11260000Y-7652500D02*
X11290000Y-7682500D01*
X11290000Y-7652500D02*
X11260000Y-7682500D01*
X11345000Y-9592500D02*
X11375000Y-9622500D01*
X11375000Y-9592500D02*
X11345000Y-9622500D01*
X11405000Y-9532500D02*
X11435000Y-9562500D01*
X11435000Y-9532500D02*
X11405000Y-9562500D01*
X11435000Y-7968750D02*
X11465000Y-7998750D01*
X11465000Y-7968750D02*
X11435000Y-7998750D01*
X11535000Y-7862548D02*
X11565000Y-7892548D01*
X11565000Y-7862548D02*
X11535000Y-7892548D01*
X11585000Y-6905000D02*
X11615000Y-6935000D01*
X11615000Y-6905000D02*
X11585000Y-6935000D01*
X11860000Y-7060000D02*
X11890000Y-7090000D01*
X11890000Y-7060000D02*
X11860000Y-7090000D01*
X11860000Y-7160000D02*
X11890000Y-7190000D01*
X11890000Y-7160000D02*
X11860000Y-7190000D01*
X11860000Y-7360000D02*
X11890000Y-7390000D01*
X11890000Y-7360000D02*
X11860000Y-7390000D01*
X11905000Y-6905000D02*
X11935000Y-6935000D01*
X11935000Y-6905000D02*
X11905000Y-6935000D01*
X11935000Y-7110000D02*
X11965000Y-7140000D01*
X11965000Y-7110000D02*
X11935000Y-7140000D01*
X11935000Y-7310000D02*
X11965000Y-7340000D01*
X11965000Y-7310000D02*
X11935000Y-7340000D01*
X11960000Y-6660000D02*
X11990000Y-6690000D01*
X11990000Y-6660000D02*
X11960000Y-6690000D01*
X11985000Y-7010000D02*
X12015000Y-7040000D01*
X12015000Y-7010000D02*
X11985000Y-7040000D01*
X11994976Y-6587464D02*
X12024976Y-6617464D01*
X12024976Y-6587464D02*
X11994976Y-6617464D01*
X12112597Y-7718442D02*
X12142597Y-7748442D01*
X12142597Y-7718442D02*
X12112597Y-7748442D01*
X12135000Y-7482500D02*
X12165000Y-7512500D01*
X12165000Y-7482500D02*
X12135000Y-7512500D01*
X12165000Y-8465000D02*
X12195000Y-8495000D01*
X12195000Y-8465000D02*
X12165000Y-8495000D01*
X12185000Y-6660000D02*
X12215000Y-6690000D01*
X12215000Y-6660000D02*
X12185000Y-6690000D01*
X12185000Y-8545000D02*
X12215000Y-8575000D01*
X12215000Y-8545000D02*
X12185000Y-8575000D01*
X12235000Y-6585000D02*
X12265000Y-6615000D01*
X12265000Y-6585000D02*
X12235000Y-6615000D01*
X12260000Y-6760000D02*
X12290000Y-6790000D01*
X12290000Y-6760000D02*
X12260000Y-6790000D01*
X12285000Y-7285000D02*
X12315000Y-7315000D01*
X12315000Y-7285000D02*
X12285000Y-7315000D01*
X12285000Y-7435000D02*
X12315000Y-7465000D01*
X12315000Y-7435000D02*
X12285000Y-7465000D01*
X12370355Y-7420355D02*
X12400355Y-7450355D01*
X12400355Y-7420355D02*
X12370355Y-7450355D01*
X12435000Y-6935000D02*
X12465000Y-6965000D01*
X12465000Y-6935000D02*
X12435000Y-6965000D01*
X12459629Y-7386793D02*
X12489629Y-7416793D01*
X12489629Y-7386793D02*
X12459629Y-7416793D01*
X12470355Y-7170355D02*
X12500355Y-7200355D01*
X12500355Y-7170355D02*
X12470355Y-7200355D01*
X12560000Y-7135000D02*
X12590000Y-7165000D01*
X12590000Y-7135000D02*
X12560000Y-7165000D01*
X12617500Y-6992500D02*
X12647500Y-7022500D01*
X12647500Y-6992500D02*
X12617500Y-7022500D01*
X12685000Y-6335000D02*
X12715000Y-6365000D01*
X12715000Y-6335000D02*
X12685000Y-6365000D01*
X12710000Y-6960000D02*
X12740000Y-6990000D01*
X12740000Y-6960000D02*
X12710000Y-6990000D01*
X12745000Y-7045000D02*
X12775000Y-7075000D01*
X12775000Y-7045000D02*
X12745000Y-7075000D01*
X12835000Y-6235000D02*
X12865000Y-6265000D01*
X12865000Y-6235000D02*
X12835000Y-6265000D01*
X12835000Y-6335000D02*
X12865000Y-6365000D01*
X12865000Y-6335000D02*
X12835000Y-6365000D01*
X12910000Y-6060000D02*
X12940000Y-6090000D01*
X12940000Y-6060000D02*
X12910000Y-6090000D01*
X12960000Y-5985000D02*
X12990000Y-6015000D01*
X12990000Y-5985000D02*
X12960000Y-6015000D01*
X13010000Y-7235000D02*
X13040000Y-7265000D01*
X13040000Y-7235000D02*
X13010000Y-7265000D01*
X13035000Y-6095000D02*
X13065000Y-6125000D01*
X13065000Y-6095000D02*
X13035000Y-6125000D01*
X13035000Y-7060000D02*
X13065000Y-7090000D01*
X13065000Y-7060000D02*
X13035000Y-7090000D01*
X13125000Y-7025000D02*
X13155000Y-7055000D01*
X13155000Y-7025000D02*
X13125000Y-7055000D01*
X13135000Y-7460000D02*
X13165000Y-7490000D01*
X13165000Y-7460000D02*
X13135000Y-7490000D01*
X13165000Y-6825000D02*
X13195000Y-6855000D01*
X13195000Y-6825000D02*
X13165000Y-6855000D01*
X13238211Y-7671789D02*
X13268211Y-7701789D01*
X13268211Y-7671789D02*
X13238211Y-7701789D01*
X13260000Y-7810000D02*
X13290000Y-7840000D01*
X13290000Y-7810000D02*
X13260000Y-7840000D01*
X13310000Y-7285000D02*
X13340000Y-7315000D01*
X13340000Y-7285000D02*
X13310000Y-7315000D01*
X13325000Y-7085000D02*
X13355000Y-7115000D01*
X13355000Y-7085000D02*
X13325000Y-7115000D01*
X13360000Y-7660000D02*
X13390000Y-7690000D01*
X13390000Y-7660000D02*
X13360000Y-7690000D01*
X14235000Y-7460000D02*
X14265000Y-7490000D01*
X14265000Y-7460000D02*
X14235000Y-7490000D01*
X14235000Y-7685000D02*
X14265000Y-7715000D01*
X14265000Y-7685000D02*
X14235000Y-7715000D01*
X10220000Y-6800000D02*
G75*
G02*
X10180000Y-6800000I-20000J0D01*
G01*
X10180000Y-6800000D02*
G75*
G02*
X10220000Y-6800000I20000J0D01*
G01*
X10295000Y-6875000D02*
G75*
G02*
X10255000Y-6875000I-20000J0D01*
G01*
X10255000Y-6875000D02*
G75*
G02*
X10295000Y-6875000I20000J0D01*
G01*
X10340000Y-9384000D02*
G75*
G02*
X10300000Y-9384000I-20000J0D01*
G01*
X10300000Y-9384000D02*
G75*
G02*
X10340000Y-9384000I20000J0D01*
G01*
X10370000Y-7225000D02*
G75*
G02*
X10330000Y-7225000I-20000J0D01*
G01*
X10330000Y-7225000D02*
G75*
G02*
X10370000Y-7225000I20000J0D01*
G01*
X10470000Y-6050000D02*
G75*
G02*
X10430000Y-6050000I-20000J0D01*
G01*
X10430000Y-6050000D02*
G75*
G02*
X10470000Y-6050000I20000J0D01*
G01*
X10600000Y-9844000D02*
G75*
G02*
X10560000Y-9844000I-20000J0D01*
G01*
X10560000Y-9844000D02*
G75*
G02*
X10600000Y-9844000I20000J0D01*
G01*
X10620000Y-6075000D02*
G75*
G02*
X10580000Y-6075000I-20000J0D01*
G01*
X10580000Y-6075000D02*
G75*
G02*
X10620000Y-6075000I20000J0D01*
G01*
X10670000Y-6175000D02*
G75*
G02*
X10630000Y-6175000I-20000J0D01*
G01*
X10630000Y-6175000D02*
G75*
G02*
X10670000Y-6175000I20000J0D01*
G01*
X10720000Y-7350000D02*
G75*
G02*
X10680000Y-7350000I-20000J0D01*
G01*
X10680000Y-7350000D02*
G75*
G02*
X10720000Y-7350000I20000J0D01*
G01*
X10722687Y-8095011D02*
G75*
G02*
X10682687Y-8095011I-20000J0D01*
G01*
X10682687Y-8095011D02*
G75*
G02*
X10722687Y-8095011I20000J0D01*
G01*
X10722687Y-8240000D02*
G75*
G02*
X10682687Y-8240000I-20000J0D01*
G01*
X10682687Y-8240000D02*
G75*
G02*
X10722687Y-8240000I20000J0D01*
G01*
X10845000Y-6675000D02*
G75*
G02*
X10805000Y-6675000I-20000J0D01*
G01*
X10805000Y-6675000D02*
G75*
G02*
X10845000Y-6675000I20000J0D01*
G01*
X10920000Y-9047500D02*
G75*
G02*
X10880000Y-9047500I-20000J0D01*
G01*
X10880000Y-9047500D02*
G75*
G02*
X10920000Y-9047500I20000J0D01*
G01*
X10970000Y-6400000D02*
G75*
G02*
X10930000Y-6400000I-20000J0D01*
G01*
X10930000Y-6400000D02*
G75*
G02*
X10970000Y-6400000I20000J0D01*
G01*
X10970000Y-7735000D02*
G75*
G02*
X10930000Y-7735000I-20000J0D01*
G01*
X10930000Y-7735000D02*
G75*
G02*
X10970000Y-7735000I20000J0D01*
G01*
X11000000Y-7580000D02*
G75*
G02*
X10960000Y-7580000I-20000J0D01*
G01*
X10960000Y-7580000D02*
G75*
G02*
X11000000Y-7580000I20000J0D01*
G01*
X11070000Y-6150000D02*
G75*
G02*
X11030000Y-6150000I-20000J0D01*
G01*
X11030000Y-6150000D02*
G75*
G02*
X11070000Y-6150000I20000J0D01*
G01*
X11074770Y-7474770D02*
G75*
G02*
X11034770Y-7474770I-20000J0D01*
G01*
X11034770Y-7474770D02*
G75*
G02*
X11074770Y-7474770I20000J0D01*
G01*
X11170000Y-8000000D02*
G75*
G02*
X11130000Y-8000000I-20000J0D01*
G01*
X11130000Y-8000000D02*
G75*
G02*
X11170000Y-8000000I20000J0D01*
G01*
X11320000Y-5425000D02*
G75*
G02*
X11280000Y-5425000I-20000J0D01*
G01*
X11280000Y-5425000D02*
G75*
G02*
X11320000Y-5425000I20000J0D01*
G01*
X11320000Y-5775000D02*
G75*
G02*
X11280000Y-5775000I-20000J0D01*
G01*
X11280000Y-5775000D02*
G75*
G02*
X11320000Y-5775000I20000J0D01*
G01*
X11320000Y-9287500D02*
G75*
G02*
X11280000Y-9287500I-20000J0D01*
G01*
X11280000Y-9287500D02*
G75*
G02*
X11320000Y-9287500I20000J0D01*
G01*
X11340000Y-6620000D02*
G75*
G02*
X11300000Y-6620000I-20000J0D01*
G01*
X11300000Y-6620000D02*
G75*
G02*
X11340000Y-6620000I20000J0D01*
G01*
X11340000Y-9480000D02*
G75*
G02*
X11300000Y-9480000I-20000J0D01*
G01*
X11300000Y-9480000D02*
G75*
G02*
X11340000Y-9480000I20000J0D01*
G01*
X11360000Y-9010000D02*
G75*
G02*
X11320000Y-9010000I-20000J0D01*
G01*
X11320000Y-9010000D02*
G75*
G02*
X11360000Y-9010000I20000J0D01*
G01*
X11470000Y-8740000D02*
G75*
G02*
X11430000Y-8740000I-20000J0D01*
G01*
X11430000Y-8740000D02*
G75*
G02*
X11470000Y-8740000I20000J0D01*
G01*
X11520000Y-9287500D02*
G75*
G02*
X11480000Y-9287500I-20000J0D01*
G01*
X11480000Y-9287500D02*
G75*
G02*
X11520000Y-9287500I20000J0D01*
G01*
X11520000Y-9587500D02*
G75*
G02*
X11480000Y-9587500I-20000J0D01*
G01*
X11480000Y-9587500D02*
G75*
G02*
X11520000Y-9587500I20000J0D01*
G01*
X11570000Y-8637500D02*
G75*
G02*
X11530000Y-8637500I-20000J0D01*
G01*
X11530000Y-8637500D02*
G75*
G02*
X11570000Y-8637500I20000J0D01*
G01*
X11745000Y-7825000D02*
G75*
G02*
X11705000Y-7825000I-20000J0D01*
G01*
X11705000Y-7825000D02*
G75*
G02*
X11745000Y-7825000I20000J0D01*
G01*
X11795000Y-7725000D02*
G75*
G02*
X11755000Y-7725000I-20000J0D01*
G01*
X11755000Y-7725000D02*
G75*
G02*
X11795000Y-7725000I20000J0D01*
G01*
X11820000Y-7925000D02*
G75*
G02*
X11780000Y-7925000I-20000J0D01*
G01*
X11780000Y-7925000D02*
G75*
G02*
X11820000Y-7925000I20000J0D01*
G01*
X11870000Y-6450000D02*
G75*
G02*
X11830000Y-6450000I-20000J0D01*
G01*
X11830000Y-6450000D02*
G75*
G02*
X11870000Y-6450000I20000J0D01*
G01*
X12140000Y-8320000D02*
G75*
G02*
X12100000Y-8320000I-20000J0D01*
G01*
X12100000Y-8320000D02*
G75*
G02*
X12140000Y-8320000I20000J0D01*
G01*
X12160000Y-7100000D02*
G75*
G02*
X12120000Y-7100000I-20000J0D01*
G01*
X12120000Y-7100000D02*
G75*
G02*
X12160000Y-7100000I20000J0D01*
G01*
X12170000Y-6050000D02*
G75*
G02*
X12130000Y-6050000I-20000J0D01*
G01*
X12130000Y-6050000D02*
G75*
G02*
X12170000Y-6050000I20000J0D01*
G01*
X12170000Y-8000000D02*
G75*
G02*
X12130000Y-8000000I-20000J0D01*
G01*
X12130000Y-8000000D02*
G75*
G02*
X12170000Y-8000000I20000J0D01*
G01*
X12195000Y-7825000D02*
G75*
G02*
X12155000Y-7825000I-20000J0D01*
G01*
X12155000Y-7825000D02*
G75*
G02*
X12195000Y-7825000I20000J0D01*
G01*
X12280000Y-9080000D02*
G75*
G02*
X12240000Y-9080000I-20000J0D01*
G01*
X12240000Y-9080000D02*
G75*
G02*
X12280000Y-9080000I20000J0D01*
G01*
X12280000Y-9700000D02*
G75*
G02*
X12240000Y-9700000I-20000J0D01*
G01*
X12240000Y-9700000D02*
G75*
G02*
X12280000Y-9700000I20000J0D01*
G01*
X12300000Y-8960000D02*
G75*
G02*
X12260000Y-8960000I-20000J0D01*
G01*
X12260000Y-8960000D02*
G75*
G02*
X12300000Y-8960000I20000J0D01*
G01*
X12320000Y-8100000D02*
G75*
G02*
X12280000Y-8100000I-20000J0D01*
G01*
X12280000Y-8100000D02*
G75*
G02*
X12320000Y-8100000I20000J0D01*
G01*
X12340000Y-8280000D02*
G75*
G02*
X12300000Y-8280000I-20000J0D01*
G01*
X12300000Y-8280000D02*
G75*
G02*
X12340000Y-8280000I20000J0D01*
G01*
X12580000Y-7420000D02*
G75*
G02*
X12540000Y-7420000I-20000J0D01*
G01*
X12540000Y-7420000D02*
G75*
G02*
X12580000Y-7420000I20000J0D01*
G01*
X12670000Y-5550000D02*
G75*
G02*
X12630000Y-5550000I-20000J0D01*
G01*
X12630000Y-5550000D02*
G75*
G02*
X12670000Y-5550000I20000J0D01*
G01*
X12670000Y-5950000D02*
G75*
G02*
X12630000Y-5950000I-20000J0D01*
G01*
X12630000Y-5950000D02*
G75*
G02*
X12670000Y-5950000I20000J0D01*
G01*
X12680000Y-7460000D02*
G75*
G02*
X12640000Y-7460000I-20000J0D01*
G01*
X12640000Y-7460000D02*
G75*
G02*
X12680000Y-7460000I20000J0D01*
G01*
X12700000Y-9680000D02*
G75*
G02*
X12660000Y-9680000I-20000J0D01*
G01*
X12660000Y-9680000D02*
G75*
G02*
X12700000Y-9680000I20000J0D01*
G01*
X12720000Y-8075000D02*
G75*
G02*
X12680000Y-8075000I-20000J0D01*
G01*
X12680000Y-8075000D02*
G75*
G02*
X12720000Y-8075000I20000J0D01*
G01*
X12720000Y-9100000D02*
G75*
G02*
X12680000Y-9100000I-20000J0D01*
G01*
X12680000Y-9100000D02*
G75*
G02*
X12720000Y-9100000I20000J0D01*
G01*
X12845000Y-7650000D02*
G75*
G02*
X12805000Y-7650000I-20000J0D01*
G01*
X12805000Y-7650000D02*
G75*
G02*
X12845000Y-7650000I20000J0D01*
G01*
X12875000Y-5600000D02*
G75*
G02*
X12835000Y-5600000I-20000J0D01*
G01*
X12835000Y-5600000D02*
G75*
G02*
X12875000Y-5600000I20000J0D01*
G01*
X12892818Y-8574680D02*
G75*
G02*
X12852818Y-8574680I-20000J0D01*
G01*
X12852818Y-8574680D02*
G75*
G02*
X12892818Y-8574680I20000J0D01*
G01*
X12925000Y-8480000D02*
G75*
G02*
X12885000Y-8480000I-20000J0D01*
G01*
X12885000Y-8480000D02*
G75*
G02*
X12925000Y-8480000I20000J0D01*
G01*
X12970000Y-6575000D02*
G75*
G02*
X12930000Y-6575000I-20000J0D01*
G01*
X12930000Y-6575000D02*
G75*
G02*
X12970000Y-6575000I20000J0D01*
G01*
X13145000Y-5950000D02*
G75*
G02*
X13105000Y-5950000I-20000J0D01*
G01*
X13105000Y-5950000D02*
G75*
G02*
X13145000Y-5950000I20000J0D01*
G01*
X13320000Y-5525000D02*
G75*
G02*
X13280000Y-5525000I-20000J0D01*
G01*
X13280000Y-5525000D02*
G75*
G02*
X13320000Y-5525000I20000J0D01*
G01*
X13370000Y-6675000D02*
G75*
G02*
X13330000Y-6675000I-20000J0D01*
G01*
X13330000Y-6675000D02*
G75*
G02*
X13370000Y-6675000I20000J0D01*
G01*
X13445000Y-8300000D02*
G75*
G02*
X13405000Y-8300000I-20000J0D01*
G01*
X13405000Y-8300000D02*
G75*
G02*
X13445000Y-8300000I20000J0D01*
G01*
X13470000Y-8550000D02*
G75*
G02*
X13430000Y-8550000I-20000J0D01*
G01*
X13430000Y-8550000D02*
G75*
G02*
X13470000Y-8550000I20000J0D01*
G01*
X13820000Y-6050000D02*
G75*
G02*
X13780000Y-6050000I-20000J0D01*
G01*
X13780000Y-6050000D02*
G75*
G02*
X13820000Y-6050000I20000J0D01*
G01*
X14020000Y-8425000D02*
G75*
G02*
X13980000Y-8425000I-20000J0D01*
G01*
X13980000Y-8425000D02*
G75*
G02*
X14020000Y-8425000I20000J0D01*
G01*
X14070000Y-6050000D02*
G75*
G02*
X14030000Y-6050000I-20000J0D01*
G01*
X14030000Y-6050000D02*
G75*
G02*
X14070000Y-6050000I20000J0D01*
G01*
X14095000Y-7600000D02*
G75*
G02*
X14055000Y-7600000I-20000J0D01*
G01*
X14055000Y-7600000D02*
G75*
G02*
X14095000Y-7600000I20000J0D01*
G01*
X14400000Y-8320000D02*
G75*
G02*
X14360000Y-8320000I-20000J0D01*
G01*
X14360000Y-8320000D02*
G75*
G02*
X14400000Y-8320000I20000J0D01*
G01*
X14400000Y-9040000D02*
G75*
G02*
X14360000Y-9040000I-20000J0D01*
G01*
X14360000Y-9040000D02*
G75*
G02*
X14400000Y-9040000I20000J0D01*
G01*
X14470000Y-7625000D02*
G75*
G02*
X14430000Y-7625000I-20000J0D01*
G01*
X14430000Y-7625000D02*
G75*
G02*
X14470000Y-7625000I20000J0D01*
G01*
X14600000Y-8765000D02*
G75*
G02*
X14560000Y-8765000I-20000J0D01*
G01*
X14560000Y-8765000D02*
G75*
G02*
X14600000Y-8765000I20000J0D01*
G01*
X14870000Y-7500000D02*
G75*
G02*
X14830000Y-7500000I-20000J0D01*
G01*
X14830000Y-7500000D02*
G75*
G02*
X14870000Y-7500000I20000J0D01*
G01*
X14936250Y-8141250D02*
G75*
G02*
X14896250Y-8141250I-20000J0D01*
G01*
X14896250Y-8141250D02*
G75*
G02*
X14936250Y-8141250I20000J0D01*
G01*
X12093000Y-5222500D02*
X12093000Y-5322500D01*
X12043000Y-5272500D02*
X12143000Y-5272500D01*
X12347000Y-5222500D02*
X12347000Y-5322500D01*
X12297000Y-5272500D02*
X12397000Y-5272500D01*
X12601000Y-5222500D02*
X12601000Y-5322500D01*
X12551000Y-5272500D02*
X12651000Y-5272500D01*
X12855000Y-5222500D02*
X12855000Y-5322500D01*
X12805000Y-5272500D02*
X12905000Y-5272500D01*
X13288000Y-5225000D02*
X13288000Y-5325000D01*
X13238000Y-5275000D02*
X13338000Y-5275000D01*
X13500000Y-9325000D02*
X13500000Y-9425000D01*
X13450000Y-9375000D02*
X13550000Y-9375000D01*
X13542000Y-5225000D02*
X13542000Y-5325000D01*
X13492000Y-5275000D02*
X13592000Y-5275000D01*
X13575000Y-6363500D02*
X13575000Y-6463500D01*
X13525000Y-6413500D02*
X13625000Y-6413500D01*
X13575000Y-6850000D02*
X13575000Y-6950000D01*
X13525000Y-6900000D02*
X13625000Y-6900000D01*
X13796000Y-5225000D02*
X13796000Y-5325000D01*
X13746000Y-5275000D02*
X13846000Y-5275000D01*
X13875000Y-6363500D02*
X13875000Y-6463500D01*
X13825000Y-6413500D02*
X13925000Y-6413500D01*
X13875000Y-6850000D02*
X13875000Y-6950000D01*
X13825000Y-6900000D02*
X13925000Y-6900000D01*
X13875000Y-9325000D02*
X13875000Y-9425000D01*
X13825000Y-9375000D02*
X13925000Y-9375000D01*
X14050000Y-5225000D02*
X14050000Y-5325000D01*
X14000000Y-5275000D02*
X14100000Y-5275000D01*
X14175000Y-6363500D02*
X14175000Y-6463500D01*
X14125000Y-6413500D02*
X14225000Y-6413500D01*
X14175000Y-6850000D02*
X14175000Y-6950000D01*
X14125000Y-6900000D02*
X14225000Y-6900000D01*
X14250000Y-9325000D02*
X14250000Y-9425000D01*
X14200000Y-9375000D02*
X14300000Y-9375000D01*
X14475000Y-6363500D02*
X14475000Y-6463500D01*
X14425000Y-6413500D02*
X14525000Y-6413500D01*
X14475000Y-6850000D02*
X14475000Y-6950000D01*
X14425000Y-6900000D02*
X14525000Y-6900000D01*
X14625000Y-9325000D02*
X14625000Y-9425000D01*
X14575000Y-9375000D02*
X14675000Y-9375000D01*
X14775000Y-5875000D02*
X14775000Y-5975000D01*
X14725000Y-5925000D02*
X14825000Y-5925000D01*
X14775000Y-6363500D02*
X14775000Y-6463500D01*
X14725000Y-6413500D02*
X14825000Y-6413500D01*
X14775000Y-6850000D02*
X14775000Y-6950000D01*
X14725000Y-6900000D02*
X14825000Y-6900000D01*
D12*
X10255777Y-10316484D02*
X10255777Y-10116484D01*
X10255777Y-10116484D02*
X10303396Y-10116484D01*
X10303396Y-10116484D02*
X10331967Y-10126008D01*
X10331967Y-10126008D02*
X10351015Y-10145055D01*
X10351015Y-10145055D02*
X10360539Y-10164103D01*
X10360539Y-10164103D02*
X10370063Y-10202198D01*
X10370063Y-10202198D02*
X10370063Y-10230770D01*
X10370063Y-10230770D02*
X10360539Y-10268865D01*
X10360539Y-10268865D02*
X10351015Y-10287912D01*
X10351015Y-10287912D02*
X10331967Y-10306960D01*
X10331967Y-10306960D02*
X10303396Y-10316484D01*
X10303396Y-10316484D02*
X10255777Y-10316484D01*
X10455777Y-10316484D02*
X10455777Y-10183150D01*
X10455777Y-10221246D02*
X10465301Y-10202198D01*
X10465301Y-10202198D02*
X10474824Y-10192674D01*
X10474824Y-10192674D02*
X10493872Y-10183150D01*
X10493872Y-10183150D02*
X10512920Y-10183150D01*
X10579586Y-10316484D02*
X10579586Y-10183150D01*
X10579586Y-10116484D02*
X10570063Y-10126008D01*
X10570063Y-10126008D02*
X10579586Y-10135531D01*
X10579586Y-10135531D02*
X10589110Y-10126008D01*
X10589110Y-10126008D02*
X10579586Y-10116484D01*
X10579586Y-10116484D02*
X10579586Y-10135531D01*
X10703396Y-10316484D02*
X10684348Y-10306960D01*
X10684348Y-10306960D02*
X10674824Y-10287912D01*
X10674824Y-10287912D02*
X10674824Y-10116484D01*
X10808158Y-10316484D02*
X10789110Y-10306960D01*
X10789110Y-10306960D02*
X10779586Y-10287912D01*
X10779586Y-10287912D02*
X10779586Y-10116484D01*
X11036729Y-10316484D02*
X11036729Y-10116484D01*
X11036729Y-10116484D02*
X11103396Y-10259341D01*
X11103396Y-10259341D02*
X11170063Y-10116484D01*
X11170063Y-10116484D02*
X11170063Y-10316484D01*
X11351015Y-10316484D02*
X11351015Y-10211722D01*
X11351015Y-10211722D02*
X11341491Y-10192674D01*
X11341491Y-10192674D02*
X11322443Y-10183150D01*
X11322443Y-10183150D02*
X11284348Y-10183150D01*
X11284348Y-10183150D02*
X11265301Y-10192674D01*
X11351015Y-10306960D02*
X11331967Y-10316484D01*
X11331967Y-10316484D02*
X11284348Y-10316484D01*
X11284348Y-10316484D02*
X11265301Y-10306960D01*
X11265301Y-10306960D02*
X11255777Y-10287912D01*
X11255777Y-10287912D02*
X11255777Y-10268865D01*
X11255777Y-10268865D02*
X11265301Y-10249817D01*
X11265301Y-10249817D02*
X11284348Y-10240293D01*
X11284348Y-10240293D02*
X11331967Y-10240293D01*
X11331967Y-10240293D02*
X11351015Y-10230770D01*
X11446253Y-10183150D02*
X11446253Y-10383150D01*
X11446253Y-10192674D02*
X11465301Y-10183150D01*
X11465301Y-10183150D02*
X11503396Y-10183150D01*
X11503396Y-10183150D02*
X11522443Y-10192674D01*
X11522443Y-10192674D02*
X11531967Y-10202198D01*
X11531967Y-10202198D02*
X11541491Y-10221246D01*
X11541491Y-10221246D02*
X11541491Y-10278389D01*
X11541491Y-10278389D02*
X11531967Y-10297436D01*
X11531967Y-10297436D02*
X11522443Y-10306960D01*
X11522443Y-10306960D02*
X11503396Y-10316484D01*
X11503396Y-10316484D02*
X11465301Y-10316484D01*
X11465301Y-10316484D02*
X11446253Y-10306960D01*
X11627205Y-10297436D02*
X11636729Y-10306960D01*
X11636729Y-10306960D02*
X11627205Y-10316484D01*
X11627205Y-10316484D02*
X11617682Y-10306960D01*
X11617682Y-10306960D02*
X11627205Y-10297436D01*
X11627205Y-10297436D02*
X11627205Y-10316484D01*
X11627205Y-10192674D02*
X11636729Y-10202198D01*
X11636729Y-10202198D02*
X11627205Y-10211722D01*
X11627205Y-10211722D02*
X11617682Y-10202198D01*
X11617682Y-10202198D02*
X11627205Y-10192674D01*
X11627205Y-10192674D02*
X11627205Y-10211722D01*
D10*
X9965000Y-10630000D02*
X9995000Y-10660000D01*
X9995000Y-10630000D02*
X9965000Y-10660000D01*
D12*
X10293872Y-10536484D02*
X10312920Y-10536484D01*
X10312920Y-10536484D02*
X10331967Y-10546008D01*
X10331967Y-10546008D02*
X10341491Y-10555531D01*
X10341491Y-10555531D02*
X10351015Y-10574579D01*
X10351015Y-10574579D02*
X10360539Y-10612674D01*
X10360539Y-10612674D02*
X10360539Y-10660293D01*
X10360539Y-10660293D02*
X10351015Y-10698389D01*
X10351015Y-10698389D02*
X10341491Y-10717436D01*
X10341491Y-10717436D02*
X10331967Y-10726960D01*
X10331967Y-10726960D02*
X10312920Y-10736484D01*
X10312920Y-10736484D02*
X10293872Y-10736484D01*
X10293872Y-10736484D02*
X10274824Y-10726960D01*
X10274824Y-10726960D02*
X10265301Y-10717436D01*
X10265301Y-10717436D02*
X10255777Y-10698389D01*
X10255777Y-10698389D02*
X10246253Y-10660293D01*
X10246253Y-10660293D02*
X10246253Y-10612674D01*
X10246253Y-10612674D02*
X10255777Y-10574579D01*
X10255777Y-10574579D02*
X10265301Y-10555531D01*
X10265301Y-10555531D02*
X10274824Y-10546008D01*
X10274824Y-10546008D02*
X10293872Y-10536484D01*
X10446253Y-10717436D02*
X10455777Y-10726960D01*
X10455777Y-10726960D02*
X10446253Y-10736484D01*
X10446253Y-10736484D02*
X10436729Y-10726960D01*
X10436729Y-10726960D02*
X10446253Y-10717436D01*
X10446253Y-10717436D02*
X10446253Y-10736484D01*
X10522444Y-10536484D02*
X10646253Y-10536484D01*
X10646253Y-10536484D02*
X10579586Y-10612674D01*
X10579586Y-10612674D02*
X10608158Y-10612674D01*
X10608158Y-10612674D02*
X10627205Y-10622198D01*
X10627205Y-10622198D02*
X10636729Y-10631722D01*
X10636729Y-10631722D02*
X10646253Y-10650770D01*
X10646253Y-10650770D02*
X10646253Y-10698389D01*
X10646253Y-10698389D02*
X10636729Y-10717436D01*
X10636729Y-10717436D02*
X10627205Y-10726960D01*
X10627205Y-10726960D02*
X10608158Y-10736484D01*
X10608158Y-10736484D02*
X10551015Y-10736484D01*
X10551015Y-10736484D02*
X10531967Y-10726960D01*
X10531967Y-10726960D02*
X10522444Y-10717436D01*
X10770063Y-10536484D02*
X10789110Y-10536484D01*
X10789110Y-10536484D02*
X10808158Y-10546008D01*
X10808158Y-10546008D02*
X10817682Y-10555531D01*
X10817682Y-10555531D02*
X10827205Y-10574579D01*
X10827205Y-10574579D02*
X10836729Y-10612674D01*
X10836729Y-10612674D02*
X10836729Y-10660293D01*
X10836729Y-10660293D02*
X10827205Y-10698389D01*
X10827205Y-10698389D02*
X10817682Y-10717436D01*
X10817682Y-10717436D02*
X10808158Y-10726960D01*
X10808158Y-10726960D02*
X10789110Y-10736484D01*
X10789110Y-10736484D02*
X10770063Y-10736484D01*
X10770063Y-10736484D02*
X10751015Y-10726960D01*
X10751015Y-10726960D02*
X10741491Y-10717436D01*
X10741491Y-10717436D02*
X10731967Y-10698389D01*
X10731967Y-10698389D02*
X10722444Y-10660293D01*
X10722444Y-10660293D02*
X10722444Y-10612674D01*
X10722444Y-10612674D02*
X10731967Y-10574579D01*
X10731967Y-10574579D02*
X10741491Y-10555531D01*
X10741491Y-10555531D02*
X10751015Y-10546008D01*
X10751015Y-10546008D02*
X10770063Y-10536484D01*
X10960539Y-10536484D02*
X10979586Y-10536484D01*
X10979586Y-10536484D02*
X10998634Y-10546008D01*
X10998634Y-10546008D02*
X11008158Y-10555531D01*
X11008158Y-10555531D02*
X11017682Y-10574579D01*
X11017682Y-10574579D02*
X11027205Y-10612674D01*
X11027205Y-10612674D02*
X11027205Y-10660293D01*
X11027205Y-10660293D02*
X11017682Y-10698389D01*
X11017682Y-10698389D02*
X11008158Y-10717436D01*
X11008158Y-10717436D02*
X10998634Y-10726960D01*
X10998634Y-10726960D02*
X10979586Y-10736484D01*
X10979586Y-10736484D02*
X10960539Y-10736484D01*
X10960539Y-10736484D02*
X10941491Y-10726960D01*
X10941491Y-10726960D02*
X10931967Y-10717436D01*
X10931967Y-10717436D02*
X10922444Y-10698389D01*
X10922444Y-10698389D02*
X10912920Y-10660293D01*
X10912920Y-10660293D02*
X10912920Y-10612674D01*
X10912920Y-10612674D02*
X10922444Y-10574579D01*
X10922444Y-10574579D02*
X10931967Y-10555531D01*
X10931967Y-10555531D02*
X10941491Y-10546008D01*
X10941491Y-10546008D02*
X10960539Y-10536484D01*
X11112920Y-10736484D02*
X11112920Y-10603150D01*
X11112920Y-10622198D02*
X11122444Y-10612674D01*
X11122444Y-10612674D02*
X11141491Y-10603150D01*
X11141491Y-10603150D02*
X11170063Y-10603150D01*
X11170063Y-10603150D02*
X11189110Y-10612674D01*
X11189110Y-10612674D02*
X11198634Y-10631722D01*
X11198634Y-10631722D02*
X11198634Y-10736484D01*
X11198634Y-10631722D02*
X11208158Y-10612674D01*
X11208158Y-10612674D02*
X11227205Y-10603150D01*
X11227205Y-10603150D02*
X11255777Y-10603150D01*
X11255777Y-10603150D02*
X11274824Y-10612674D01*
X11274824Y-10612674D02*
X11284348Y-10631722D01*
X11284348Y-10631722D02*
X11284348Y-10736484D01*
X11379586Y-10736484D02*
X11379586Y-10603150D01*
X11379586Y-10622198D02*
X11389110Y-10612674D01*
X11389110Y-10612674D02*
X11408158Y-10603150D01*
X11408158Y-10603150D02*
X11436729Y-10603150D01*
X11436729Y-10603150D02*
X11455777Y-10612674D01*
X11455777Y-10612674D02*
X11465301Y-10631722D01*
X11465301Y-10631722D02*
X11465301Y-10736484D01*
X11465301Y-10631722D02*
X11474824Y-10612674D01*
X11474824Y-10612674D02*
X11493872Y-10603150D01*
X11493872Y-10603150D02*
X11522443Y-10603150D01*
X11522443Y-10603150D02*
X11541491Y-10612674D01*
X11541491Y-10612674D02*
X11551015Y-10631722D01*
X11551015Y-10631722D02*
X11551015Y-10736484D01*
X11941491Y-10526960D02*
X11770063Y-10784103D01*
X12198634Y-10536484D02*
X12217682Y-10536484D01*
X12217682Y-10536484D02*
X12236729Y-10546008D01*
X12236729Y-10546008D02*
X12246253Y-10555531D01*
X12246253Y-10555531D02*
X12255777Y-10574579D01*
X12255777Y-10574579D02*
X12265301Y-10612674D01*
X12265301Y-10612674D02*
X12265301Y-10660293D01*
X12265301Y-10660293D02*
X12255777Y-10698389D01*
X12255777Y-10698389D02*
X12246253Y-10717436D01*
X12246253Y-10717436D02*
X12236729Y-10726960D01*
X12236729Y-10726960D02*
X12217682Y-10736484D01*
X12217682Y-10736484D02*
X12198634Y-10736484D01*
X12198634Y-10736484D02*
X12179586Y-10726960D01*
X12179586Y-10726960D02*
X12170063Y-10717436D01*
X12170063Y-10717436D02*
X12160539Y-10698389D01*
X12160539Y-10698389D02*
X12151015Y-10660293D01*
X12151015Y-10660293D02*
X12151015Y-10612674D01*
X12151015Y-10612674D02*
X12160539Y-10574579D01*
X12160539Y-10574579D02*
X12170063Y-10555531D01*
X12170063Y-10555531D02*
X12179586Y-10546008D01*
X12179586Y-10546008D02*
X12198634Y-10536484D01*
X12351015Y-10717436D02*
X12360539Y-10726960D01*
X12360539Y-10726960D02*
X12351015Y-10736484D01*
X12351015Y-10736484D02*
X12341491Y-10726960D01*
X12341491Y-10726960D02*
X12351015Y-10717436D01*
X12351015Y-10717436D02*
X12351015Y-10736484D01*
X12484348Y-10536484D02*
X12503396Y-10536484D01*
X12503396Y-10536484D02*
X12522444Y-10546008D01*
X12522444Y-10546008D02*
X12531967Y-10555531D01*
X12531967Y-10555531D02*
X12541491Y-10574579D01*
X12541491Y-10574579D02*
X12551015Y-10612674D01*
X12551015Y-10612674D02*
X12551015Y-10660293D01*
X12551015Y-10660293D02*
X12541491Y-10698389D01*
X12541491Y-10698389D02*
X12531967Y-10717436D01*
X12531967Y-10717436D02*
X12522444Y-10726960D01*
X12522444Y-10726960D02*
X12503396Y-10736484D01*
X12503396Y-10736484D02*
X12484348Y-10736484D01*
X12484348Y-10736484D02*
X12465301Y-10726960D01*
X12465301Y-10726960D02*
X12455777Y-10717436D01*
X12455777Y-10717436D02*
X12446253Y-10698389D01*
X12446253Y-10698389D02*
X12436729Y-10660293D01*
X12436729Y-10660293D02*
X12436729Y-10612674D01*
X12436729Y-10612674D02*
X12446253Y-10574579D01*
X12446253Y-10574579D02*
X12455777Y-10555531D01*
X12455777Y-10555531D02*
X12465301Y-10546008D01*
X12465301Y-10546008D02*
X12484348Y-10536484D01*
X12741491Y-10736484D02*
X12627206Y-10736484D01*
X12684348Y-10736484D02*
X12684348Y-10536484D01*
X12684348Y-10536484D02*
X12665301Y-10565055D01*
X12665301Y-10565055D02*
X12646253Y-10584103D01*
X12646253Y-10584103D02*
X12627206Y-10593627D01*
X12931967Y-10736484D02*
X12817682Y-10736484D01*
X12874825Y-10736484D02*
X12874825Y-10536484D01*
X12874825Y-10536484D02*
X12855777Y-10565055D01*
X12855777Y-10565055D02*
X12836729Y-10584103D01*
X12836729Y-10584103D02*
X12817682Y-10593627D01*
X13046253Y-10622198D02*
X13027206Y-10612674D01*
X13027206Y-10612674D02*
X13017682Y-10603150D01*
X13017682Y-10603150D02*
X13008158Y-10584103D01*
X13008158Y-10584103D02*
X13008158Y-10574579D01*
X13008158Y-10574579D02*
X13017682Y-10555531D01*
X13017682Y-10555531D02*
X13027206Y-10546008D01*
X13027206Y-10546008D02*
X13046253Y-10536484D01*
X13046253Y-10536484D02*
X13084348Y-10536484D01*
X13084348Y-10536484D02*
X13103396Y-10546008D01*
X13103396Y-10546008D02*
X13112920Y-10555531D01*
X13112920Y-10555531D02*
X13122444Y-10574579D01*
X13122444Y-10574579D02*
X13122444Y-10584103D01*
X13122444Y-10584103D02*
X13112920Y-10603150D01*
X13112920Y-10603150D02*
X13103396Y-10612674D01*
X13103396Y-10612674D02*
X13084348Y-10622198D01*
X13084348Y-10622198D02*
X13046253Y-10622198D01*
X13046253Y-10622198D02*
X13027206Y-10631722D01*
X13027206Y-10631722D02*
X13017682Y-10641246D01*
X13017682Y-10641246D02*
X13008158Y-10660293D01*
X13008158Y-10660293D02*
X13008158Y-10698389D01*
X13008158Y-10698389D02*
X13017682Y-10717436D01*
X13017682Y-10717436D02*
X13027206Y-10726960D01*
X13027206Y-10726960D02*
X13046253Y-10736484D01*
X13046253Y-10736484D02*
X13084348Y-10736484D01*
X13084348Y-10736484D02*
X13103396Y-10726960D01*
X13103396Y-10726960D02*
X13112920Y-10717436D01*
X13112920Y-10717436D02*
X13122444Y-10698389D01*
X13122444Y-10698389D02*
X13122444Y-10660293D01*
X13122444Y-10660293D02*
X13112920Y-10641246D01*
X13112920Y-10641246D02*
X13103396Y-10631722D01*
X13103396Y-10631722D02*
X13084348Y-10622198D01*
X13198634Y-10536484D02*
X13198634Y-10574579D01*
X13274825Y-10536484D02*
X13274825Y-10574579D01*
X13570063Y-10812674D02*
X13560539Y-10803150D01*
X13560539Y-10803150D02*
X13541491Y-10774579D01*
X13541491Y-10774579D02*
X13531968Y-10755531D01*
X13531968Y-10755531D02*
X13522444Y-10726960D01*
X13522444Y-10726960D02*
X13512920Y-10679341D01*
X13512920Y-10679341D02*
X13512920Y-10641246D01*
X13512920Y-10641246D02*
X13522444Y-10593627D01*
X13522444Y-10593627D02*
X13531968Y-10565055D01*
X13531968Y-10565055D02*
X13541491Y-10546008D01*
X13541491Y-10546008D02*
X13560539Y-10517436D01*
X13560539Y-10517436D02*
X13570063Y-10507912D01*
X13731968Y-10536484D02*
X13693872Y-10536484D01*
X13693872Y-10536484D02*
X13674825Y-10546008D01*
X13674825Y-10546008D02*
X13665301Y-10555531D01*
X13665301Y-10555531D02*
X13646253Y-10584103D01*
X13646253Y-10584103D02*
X13636729Y-10622198D01*
X13636729Y-10622198D02*
X13636729Y-10698389D01*
X13636729Y-10698389D02*
X13646253Y-10717436D01*
X13646253Y-10717436D02*
X13655777Y-10726960D01*
X13655777Y-10726960D02*
X13674825Y-10736484D01*
X13674825Y-10736484D02*
X13712920Y-10736484D01*
X13712920Y-10736484D02*
X13731968Y-10726960D01*
X13731968Y-10726960D02*
X13741491Y-10717436D01*
X13741491Y-10717436D02*
X13751015Y-10698389D01*
X13751015Y-10698389D02*
X13751015Y-10650770D01*
X13751015Y-10650770D02*
X13741491Y-10631722D01*
X13741491Y-10631722D02*
X13731968Y-10622198D01*
X13731968Y-10622198D02*
X13712920Y-10612674D01*
X13712920Y-10612674D02*
X13674825Y-10612674D01*
X13674825Y-10612674D02*
X13655777Y-10622198D01*
X13655777Y-10622198D02*
X13646253Y-10631722D01*
X13646253Y-10631722D02*
X13636729Y-10650770D01*
X13846253Y-10736484D02*
X13884348Y-10736484D01*
X13884348Y-10736484D02*
X13903396Y-10726960D01*
X13903396Y-10726960D02*
X13912920Y-10717436D01*
X13912920Y-10717436D02*
X13931968Y-10688865D01*
X13931968Y-10688865D02*
X13941491Y-10650770D01*
X13941491Y-10650770D02*
X13941491Y-10574579D01*
X13941491Y-10574579D02*
X13931968Y-10555531D01*
X13931968Y-10555531D02*
X13922444Y-10546008D01*
X13922444Y-10546008D02*
X13903396Y-10536484D01*
X13903396Y-10536484D02*
X13865301Y-10536484D01*
X13865301Y-10536484D02*
X13846253Y-10546008D01*
X13846253Y-10546008D02*
X13836729Y-10555531D01*
X13836729Y-10555531D02*
X13827206Y-10574579D01*
X13827206Y-10574579D02*
X13827206Y-10622198D01*
X13827206Y-10622198D02*
X13836729Y-10641246D01*
X13836729Y-10641246D02*
X13846253Y-10650770D01*
X13846253Y-10650770D02*
X13865301Y-10660293D01*
X13865301Y-10660293D02*
X13903396Y-10660293D01*
X13903396Y-10660293D02*
X13922444Y-10650770D01*
X13922444Y-10650770D02*
X13931968Y-10641246D01*
X13931968Y-10641246D02*
X13941491Y-10622198D01*
X14179587Y-10736484D02*
X14179587Y-10536484D01*
X14265301Y-10736484D02*
X14265301Y-10631722D01*
X14265301Y-10631722D02*
X14255777Y-10612674D01*
X14255777Y-10612674D02*
X14236730Y-10603150D01*
X14236730Y-10603150D02*
X14208158Y-10603150D01*
X14208158Y-10603150D02*
X14189110Y-10612674D01*
X14189110Y-10612674D02*
X14179587Y-10622198D01*
X14389110Y-10736484D02*
X14370063Y-10726960D01*
X14370063Y-10726960D02*
X14360539Y-10717436D01*
X14360539Y-10717436D02*
X14351015Y-10698389D01*
X14351015Y-10698389D02*
X14351015Y-10641246D01*
X14351015Y-10641246D02*
X14360539Y-10622198D01*
X14360539Y-10622198D02*
X14370063Y-10612674D01*
X14370063Y-10612674D02*
X14389110Y-10603150D01*
X14389110Y-10603150D02*
X14417682Y-10603150D01*
X14417682Y-10603150D02*
X14436730Y-10612674D01*
X14436730Y-10612674D02*
X14446253Y-10622198D01*
X14446253Y-10622198D02*
X14455777Y-10641246D01*
X14455777Y-10641246D02*
X14455777Y-10698389D01*
X14455777Y-10698389D02*
X14446253Y-10717436D01*
X14446253Y-10717436D02*
X14436730Y-10726960D01*
X14436730Y-10726960D02*
X14417682Y-10736484D01*
X14417682Y-10736484D02*
X14389110Y-10736484D01*
X14570063Y-10736484D02*
X14551015Y-10726960D01*
X14551015Y-10726960D02*
X14541491Y-10707912D01*
X14541491Y-10707912D02*
X14541491Y-10536484D01*
X14722444Y-10726960D02*
X14703396Y-10736484D01*
X14703396Y-10736484D02*
X14665301Y-10736484D01*
X14665301Y-10736484D02*
X14646253Y-10726960D01*
X14646253Y-10726960D02*
X14636730Y-10707912D01*
X14636730Y-10707912D02*
X14636730Y-10631722D01*
X14636730Y-10631722D02*
X14646253Y-10612674D01*
X14646253Y-10612674D02*
X14665301Y-10603150D01*
X14665301Y-10603150D02*
X14703396Y-10603150D01*
X14703396Y-10603150D02*
X14722444Y-10612674D01*
X14722444Y-10612674D02*
X14731968Y-10631722D01*
X14731968Y-10631722D02*
X14731968Y-10650770D01*
X14731968Y-10650770D02*
X14636730Y-10669817D01*
X14808158Y-10726960D02*
X14827206Y-10736484D01*
X14827206Y-10736484D02*
X14865301Y-10736484D01*
X14865301Y-10736484D02*
X14884349Y-10726960D01*
X14884349Y-10726960D02*
X14893872Y-10707912D01*
X14893872Y-10707912D02*
X14893872Y-10698389D01*
X14893872Y-10698389D02*
X14884349Y-10679341D01*
X14884349Y-10679341D02*
X14865301Y-10669817D01*
X14865301Y-10669817D02*
X14836730Y-10669817D01*
X14836730Y-10669817D02*
X14817682Y-10660293D01*
X14817682Y-10660293D02*
X14808158Y-10641246D01*
X14808158Y-10641246D02*
X14808158Y-10631722D01*
X14808158Y-10631722D02*
X14817682Y-10612674D01*
X14817682Y-10612674D02*
X14836730Y-10603150D01*
X14836730Y-10603150D02*
X14865301Y-10603150D01*
X14865301Y-10603150D02*
X14884349Y-10612674D01*
X14960539Y-10812674D02*
X14970063Y-10803150D01*
X14970063Y-10803150D02*
X14989111Y-10774579D01*
X14989111Y-10774579D02*
X14998634Y-10755531D01*
X14998634Y-10755531D02*
X15008158Y-10726960D01*
X15008158Y-10726960D02*
X15017682Y-10679341D01*
X15017682Y-10679341D02*
X15017682Y-10641246D01*
X15017682Y-10641246D02*
X15008158Y-10593627D01*
X15008158Y-10593627D02*
X14998634Y-10565055D01*
X14998634Y-10565055D02*
X14989111Y-10546008D01*
X14989111Y-10546008D02*
X14970063Y-10517436D01*
X14970063Y-10517436D02*
X14960539Y-10507912D01*
D10*
X9995000Y-10909000D02*
G75*
G02*
X9955000Y-10909000I-20000J0D01*
G01*
X9955000Y-10909000D02*
G75*
G02*
X9995000Y-10909000I20000J0D01*
G01*
D12*
X10293872Y-10800484D02*
X10312920Y-10800484D01*
X10312920Y-10800484D02*
X10331967Y-10810008D01*
X10331967Y-10810008D02*
X10341491Y-10819531D01*
X10341491Y-10819531D02*
X10351015Y-10838579D01*
X10351015Y-10838579D02*
X10360539Y-10876674D01*
X10360539Y-10876674D02*
X10360539Y-10924293D01*
X10360539Y-10924293D02*
X10351015Y-10962389D01*
X10351015Y-10962389D02*
X10341491Y-10981436D01*
X10341491Y-10981436D02*
X10331967Y-10990960D01*
X10331967Y-10990960D02*
X10312920Y-11000484D01*
X10312920Y-11000484D02*
X10293872Y-11000484D01*
X10293872Y-11000484D02*
X10274824Y-10990960D01*
X10274824Y-10990960D02*
X10265301Y-10981436D01*
X10265301Y-10981436D02*
X10255777Y-10962389D01*
X10255777Y-10962389D02*
X10246253Y-10924293D01*
X10246253Y-10924293D02*
X10246253Y-10876674D01*
X10246253Y-10876674D02*
X10255777Y-10838579D01*
X10255777Y-10838579D02*
X10265301Y-10819531D01*
X10265301Y-10819531D02*
X10274824Y-10810008D01*
X10274824Y-10810008D02*
X10293872Y-10800484D01*
X10446253Y-10981436D02*
X10455777Y-10990960D01*
X10455777Y-10990960D02*
X10446253Y-11000484D01*
X10446253Y-11000484D02*
X10436729Y-10990960D01*
X10436729Y-10990960D02*
X10446253Y-10981436D01*
X10446253Y-10981436D02*
X10446253Y-11000484D01*
X10627205Y-10867150D02*
X10627205Y-11000484D01*
X10579586Y-10790960D02*
X10531967Y-10933817D01*
X10531967Y-10933817D02*
X10655777Y-10933817D01*
X10770063Y-10800484D02*
X10789110Y-10800484D01*
X10789110Y-10800484D02*
X10808158Y-10810008D01*
X10808158Y-10810008D02*
X10817682Y-10819531D01*
X10817682Y-10819531D02*
X10827205Y-10838579D01*
X10827205Y-10838579D02*
X10836729Y-10876674D01*
X10836729Y-10876674D02*
X10836729Y-10924293D01*
X10836729Y-10924293D02*
X10827205Y-10962389D01*
X10827205Y-10962389D02*
X10817682Y-10981436D01*
X10817682Y-10981436D02*
X10808158Y-10990960D01*
X10808158Y-10990960D02*
X10789110Y-11000484D01*
X10789110Y-11000484D02*
X10770063Y-11000484D01*
X10770063Y-11000484D02*
X10751015Y-10990960D01*
X10751015Y-10990960D02*
X10741491Y-10981436D01*
X10741491Y-10981436D02*
X10731967Y-10962389D01*
X10731967Y-10962389D02*
X10722444Y-10924293D01*
X10722444Y-10924293D02*
X10722444Y-10876674D01*
X10722444Y-10876674D02*
X10731967Y-10838579D01*
X10731967Y-10838579D02*
X10741491Y-10819531D01*
X10741491Y-10819531D02*
X10751015Y-10810008D01*
X10751015Y-10810008D02*
X10770063Y-10800484D01*
X10960539Y-10800484D02*
X10979586Y-10800484D01*
X10979586Y-10800484D02*
X10998634Y-10810008D01*
X10998634Y-10810008D02*
X11008158Y-10819531D01*
X11008158Y-10819531D02*
X11017682Y-10838579D01*
X11017682Y-10838579D02*
X11027205Y-10876674D01*
X11027205Y-10876674D02*
X11027205Y-10924293D01*
X11027205Y-10924293D02*
X11017682Y-10962389D01*
X11017682Y-10962389D02*
X11008158Y-10981436D01*
X11008158Y-10981436D02*
X10998634Y-10990960D01*
X10998634Y-10990960D02*
X10979586Y-11000484D01*
X10979586Y-11000484D02*
X10960539Y-11000484D01*
X10960539Y-11000484D02*
X10941491Y-10990960D01*
X10941491Y-10990960D02*
X10931967Y-10981436D01*
X10931967Y-10981436D02*
X10922444Y-10962389D01*
X10922444Y-10962389D02*
X10912920Y-10924293D01*
X10912920Y-10924293D02*
X10912920Y-10876674D01*
X10912920Y-10876674D02*
X10922444Y-10838579D01*
X10922444Y-10838579D02*
X10931967Y-10819531D01*
X10931967Y-10819531D02*
X10941491Y-10810008D01*
X10941491Y-10810008D02*
X10960539Y-10800484D01*
X11112920Y-11000484D02*
X11112920Y-10867150D01*
X11112920Y-10886198D02*
X11122444Y-10876674D01*
X11122444Y-10876674D02*
X11141491Y-10867150D01*
X11141491Y-10867150D02*
X11170063Y-10867150D01*
X11170063Y-10867150D02*
X11189110Y-10876674D01*
X11189110Y-10876674D02*
X11198634Y-10895722D01*
X11198634Y-10895722D02*
X11198634Y-11000484D01*
X11198634Y-10895722D02*
X11208158Y-10876674D01*
X11208158Y-10876674D02*
X11227205Y-10867150D01*
X11227205Y-10867150D02*
X11255777Y-10867150D01*
X11255777Y-10867150D02*
X11274824Y-10876674D01*
X11274824Y-10876674D02*
X11284348Y-10895722D01*
X11284348Y-10895722D02*
X11284348Y-11000484D01*
X11379586Y-11000484D02*
X11379586Y-10867150D01*
X11379586Y-10886198D02*
X11389110Y-10876674D01*
X11389110Y-10876674D02*
X11408158Y-10867150D01*
X11408158Y-10867150D02*
X11436729Y-10867150D01*
X11436729Y-10867150D02*
X11455777Y-10876674D01*
X11455777Y-10876674D02*
X11465301Y-10895722D01*
X11465301Y-10895722D02*
X11465301Y-11000484D01*
X11465301Y-10895722D02*
X11474824Y-10876674D01*
X11474824Y-10876674D02*
X11493872Y-10867150D01*
X11493872Y-10867150D02*
X11522443Y-10867150D01*
X11522443Y-10867150D02*
X11541491Y-10876674D01*
X11541491Y-10876674D02*
X11551015Y-10895722D01*
X11551015Y-10895722D02*
X11551015Y-11000484D01*
X11941491Y-10790960D02*
X11770063Y-11048103D01*
X12198634Y-10800484D02*
X12217682Y-10800484D01*
X12217682Y-10800484D02*
X12236729Y-10810008D01*
X12236729Y-10810008D02*
X12246253Y-10819531D01*
X12246253Y-10819531D02*
X12255777Y-10838579D01*
X12255777Y-10838579D02*
X12265301Y-10876674D01*
X12265301Y-10876674D02*
X12265301Y-10924293D01*
X12265301Y-10924293D02*
X12255777Y-10962389D01*
X12255777Y-10962389D02*
X12246253Y-10981436D01*
X12246253Y-10981436D02*
X12236729Y-10990960D01*
X12236729Y-10990960D02*
X12217682Y-11000484D01*
X12217682Y-11000484D02*
X12198634Y-11000484D01*
X12198634Y-11000484D02*
X12179586Y-10990960D01*
X12179586Y-10990960D02*
X12170063Y-10981436D01*
X12170063Y-10981436D02*
X12160539Y-10962389D01*
X12160539Y-10962389D02*
X12151015Y-10924293D01*
X12151015Y-10924293D02*
X12151015Y-10876674D01*
X12151015Y-10876674D02*
X12160539Y-10838579D01*
X12160539Y-10838579D02*
X12170063Y-10819531D01*
X12170063Y-10819531D02*
X12179586Y-10810008D01*
X12179586Y-10810008D02*
X12198634Y-10800484D01*
X12351015Y-10981436D02*
X12360539Y-10990960D01*
X12360539Y-10990960D02*
X12351015Y-11000484D01*
X12351015Y-11000484D02*
X12341491Y-10990960D01*
X12341491Y-10990960D02*
X12351015Y-10981436D01*
X12351015Y-10981436D02*
X12351015Y-11000484D01*
X12484348Y-10800484D02*
X12503396Y-10800484D01*
X12503396Y-10800484D02*
X12522444Y-10810008D01*
X12522444Y-10810008D02*
X12531967Y-10819531D01*
X12531967Y-10819531D02*
X12541491Y-10838579D01*
X12541491Y-10838579D02*
X12551015Y-10876674D01*
X12551015Y-10876674D02*
X12551015Y-10924293D01*
X12551015Y-10924293D02*
X12541491Y-10962389D01*
X12541491Y-10962389D02*
X12531967Y-10981436D01*
X12531967Y-10981436D02*
X12522444Y-10990960D01*
X12522444Y-10990960D02*
X12503396Y-11000484D01*
X12503396Y-11000484D02*
X12484348Y-11000484D01*
X12484348Y-11000484D02*
X12465301Y-10990960D01*
X12465301Y-10990960D02*
X12455777Y-10981436D01*
X12455777Y-10981436D02*
X12446253Y-10962389D01*
X12446253Y-10962389D02*
X12436729Y-10924293D01*
X12436729Y-10924293D02*
X12436729Y-10876674D01*
X12436729Y-10876674D02*
X12446253Y-10838579D01*
X12446253Y-10838579D02*
X12455777Y-10819531D01*
X12455777Y-10819531D02*
X12465301Y-10810008D01*
X12465301Y-10810008D02*
X12484348Y-10800484D01*
X12741491Y-11000484D02*
X12627206Y-11000484D01*
X12684348Y-11000484D02*
X12684348Y-10800484D01*
X12684348Y-10800484D02*
X12665301Y-10829055D01*
X12665301Y-10829055D02*
X12646253Y-10848103D01*
X12646253Y-10848103D02*
X12627206Y-10857627D01*
X12922444Y-10800484D02*
X12827206Y-10800484D01*
X12827206Y-10800484D02*
X12817682Y-10895722D01*
X12817682Y-10895722D02*
X12827206Y-10886198D01*
X12827206Y-10886198D02*
X12846253Y-10876674D01*
X12846253Y-10876674D02*
X12893872Y-10876674D01*
X12893872Y-10876674D02*
X12912920Y-10886198D01*
X12912920Y-10886198D02*
X12922444Y-10895722D01*
X12922444Y-10895722D02*
X12931967Y-10914770D01*
X12931967Y-10914770D02*
X12931967Y-10962389D01*
X12931967Y-10962389D02*
X12922444Y-10981436D01*
X12922444Y-10981436D02*
X12912920Y-10990960D01*
X12912920Y-10990960D02*
X12893872Y-11000484D01*
X12893872Y-11000484D02*
X12846253Y-11000484D01*
X12846253Y-11000484D02*
X12827206Y-10990960D01*
X12827206Y-10990960D02*
X12817682Y-10981436D01*
X12998634Y-10800484D02*
X13131967Y-10800484D01*
X13131967Y-10800484D02*
X13046253Y-11000484D01*
X13198634Y-10800484D02*
X13198634Y-10838579D01*
X13274825Y-10800484D02*
X13274825Y-10838579D01*
X13570063Y-11076674D02*
X13560539Y-11067150D01*
X13560539Y-11067150D02*
X13541491Y-11038579D01*
X13541491Y-11038579D02*
X13531968Y-11019531D01*
X13531968Y-11019531D02*
X13522444Y-10990960D01*
X13522444Y-10990960D02*
X13512920Y-10943341D01*
X13512920Y-10943341D02*
X13512920Y-10905246D01*
X13512920Y-10905246D02*
X13522444Y-10857627D01*
X13522444Y-10857627D02*
X13531968Y-10829055D01*
X13531968Y-10829055D02*
X13541491Y-10810008D01*
X13541491Y-10810008D02*
X13560539Y-10781436D01*
X13560539Y-10781436D02*
X13570063Y-10771912D01*
X13627206Y-10800484D02*
X13760539Y-10800484D01*
X13760539Y-10800484D02*
X13674825Y-11000484D01*
X13874825Y-10800484D02*
X13893872Y-10800484D01*
X13893872Y-10800484D02*
X13912920Y-10810008D01*
X13912920Y-10810008D02*
X13922444Y-10819531D01*
X13922444Y-10819531D02*
X13931968Y-10838579D01*
X13931968Y-10838579D02*
X13941491Y-10876674D01*
X13941491Y-10876674D02*
X13941491Y-10924293D01*
X13941491Y-10924293D02*
X13931968Y-10962389D01*
X13931968Y-10962389D02*
X13922444Y-10981436D01*
X13922444Y-10981436D02*
X13912920Y-10990960D01*
X13912920Y-10990960D02*
X13893872Y-11000484D01*
X13893872Y-11000484D02*
X13874825Y-11000484D01*
X13874825Y-11000484D02*
X13855777Y-10990960D01*
X13855777Y-10990960D02*
X13846253Y-10981436D01*
X13846253Y-10981436D02*
X13836729Y-10962389D01*
X13836729Y-10962389D02*
X13827206Y-10924293D01*
X13827206Y-10924293D02*
X13827206Y-10876674D01*
X13827206Y-10876674D02*
X13836729Y-10838579D01*
X13836729Y-10838579D02*
X13846253Y-10819531D01*
X13846253Y-10819531D02*
X13855777Y-10810008D01*
X13855777Y-10810008D02*
X13874825Y-10800484D01*
X14179587Y-11000484D02*
X14179587Y-10800484D01*
X14265301Y-11000484D02*
X14265301Y-10895722D01*
X14265301Y-10895722D02*
X14255777Y-10876674D01*
X14255777Y-10876674D02*
X14236730Y-10867150D01*
X14236730Y-10867150D02*
X14208158Y-10867150D01*
X14208158Y-10867150D02*
X14189110Y-10876674D01*
X14189110Y-10876674D02*
X14179587Y-10886198D01*
X14389110Y-11000484D02*
X14370063Y-10990960D01*
X14370063Y-10990960D02*
X14360539Y-10981436D01*
X14360539Y-10981436D02*
X14351015Y-10962389D01*
X14351015Y-10962389D02*
X14351015Y-10905246D01*
X14351015Y-10905246D02*
X14360539Y-10886198D01*
X14360539Y-10886198D02*
X14370063Y-10876674D01*
X14370063Y-10876674D02*
X14389110Y-10867150D01*
X14389110Y-10867150D02*
X14417682Y-10867150D01*
X14417682Y-10867150D02*
X14436730Y-10876674D01*
X14436730Y-10876674D02*
X14446253Y-10886198D01*
X14446253Y-10886198D02*
X14455777Y-10905246D01*
X14455777Y-10905246D02*
X14455777Y-10962389D01*
X14455777Y-10962389D02*
X14446253Y-10981436D01*
X14446253Y-10981436D02*
X14436730Y-10990960D01*
X14436730Y-10990960D02*
X14417682Y-11000484D01*
X14417682Y-11000484D02*
X14389110Y-11000484D01*
X14570063Y-11000484D02*
X14551015Y-10990960D01*
X14551015Y-10990960D02*
X14541491Y-10971912D01*
X14541491Y-10971912D02*
X14541491Y-10800484D01*
X14722444Y-10990960D02*
X14703396Y-11000484D01*
X14703396Y-11000484D02*
X14665301Y-11000484D01*
X14665301Y-11000484D02*
X14646253Y-10990960D01*
X14646253Y-10990960D02*
X14636730Y-10971912D01*
X14636730Y-10971912D02*
X14636730Y-10895722D01*
X14636730Y-10895722D02*
X14646253Y-10876674D01*
X14646253Y-10876674D02*
X14665301Y-10867150D01*
X14665301Y-10867150D02*
X14703396Y-10867150D01*
X14703396Y-10867150D02*
X14722444Y-10876674D01*
X14722444Y-10876674D02*
X14731968Y-10895722D01*
X14731968Y-10895722D02*
X14731968Y-10914770D01*
X14731968Y-10914770D02*
X14636730Y-10933817D01*
X14808158Y-10990960D02*
X14827206Y-11000484D01*
X14827206Y-11000484D02*
X14865301Y-11000484D01*
X14865301Y-11000484D02*
X14884349Y-10990960D01*
X14884349Y-10990960D02*
X14893872Y-10971912D01*
X14893872Y-10971912D02*
X14893872Y-10962389D01*
X14893872Y-10962389D02*
X14884349Y-10943341D01*
X14884349Y-10943341D02*
X14865301Y-10933817D01*
X14865301Y-10933817D02*
X14836730Y-10933817D01*
X14836730Y-10933817D02*
X14817682Y-10924293D01*
X14817682Y-10924293D02*
X14808158Y-10905246D01*
X14808158Y-10905246D02*
X14808158Y-10895722D01*
X14808158Y-10895722D02*
X14817682Y-10876674D01*
X14817682Y-10876674D02*
X14836730Y-10867150D01*
X14836730Y-10867150D02*
X14865301Y-10867150D01*
X14865301Y-10867150D02*
X14884349Y-10876674D01*
X14960539Y-11076674D02*
X14970063Y-11067150D01*
X14970063Y-11067150D02*
X14989111Y-11038579D01*
X14989111Y-11038579D02*
X14998634Y-11019531D01*
X14998634Y-11019531D02*
X15008158Y-10990960D01*
X15008158Y-10990960D02*
X15017682Y-10943341D01*
X15017682Y-10943341D02*
X15017682Y-10905246D01*
X15017682Y-10905246D02*
X15008158Y-10857627D01*
X15008158Y-10857627D02*
X14998634Y-10829055D01*
X14998634Y-10829055D02*
X14989111Y-10810008D01*
X14989111Y-10810008D02*
X14970063Y-10781436D01*
X14970063Y-10781436D02*
X14960539Y-10771912D01*
D10*
X9945000Y-11123000D02*
X9945000Y-11223000D01*
X9895000Y-11173000D02*
X9995000Y-11173000D01*
D12*
X10360539Y-11264484D02*
X10246253Y-11264484D01*
X10303396Y-11264484D02*
X10303396Y-11064484D01*
X10303396Y-11064484D02*
X10284348Y-11093055D01*
X10284348Y-11093055D02*
X10265301Y-11112103D01*
X10265301Y-11112103D02*
X10246253Y-11121627D01*
X10446253Y-11245436D02*
X10455777Y-11254960D01*
X10455777Y-11254960D02*
X10446253Y-11264484D01*
X10446253Y-11264484D02*
X10436729Y-11254960D01*
X10436729Y-11254960D02*
X10446253Y-11245436D01*
X10446253Y-11245436D02*
X10446253Y-11264484D01*
X10579586Y-11064484D02*
X10598634Y-11064484D01*
X10598634Y-11064484D02*
X10617682Y-11074008D01*
X10617682Y-11074008D02*
X10627205Y-11083531D01*
X10627205Y-11083531D02*
X10636729Y-11102579D01*
X10636729Y-11102579D02*
X10646253Y-11140674D01*
X10646253Y-11140674D02*
X10646253Y-11188293D01*
X10646253Y-11188293D02*
X10636729Y-11226388D01*
X10636729Y-11226388D02*
X10627205Y-11245436D01*
X10627205Y-11245436D02*
X10617682Y-11254960D01*
X10617682Y-11254960D02*
X10598634Y-11264484D01*
X10598634Y-11264484D02*
X10579586Y-11264484D01*
X10579586Y-11264484D02*
X10560539Y-11254960D01*
X10560539Y-11254960D02*
X10551015Y-11245436D01*
X10551015Y-11245436D02*
X10541491Y-11226388D01*
X10541491Y-11226388D02*
X10531967Y-11188293D01*
X10531967Y-11188293D02*
X10531967Y-11140674D01*
X10531967Y-11140674D02*
X10541491Y-11102579D01*
X10541491Y-11102579D02*
X10551015Y-11083531D01*
X10551015Y-11083531D02*
X10560539Y-11074008D01*
X10560539Y-11074008D02*
X10579586Y-11064484D01*
X10770063Y-11064484D02*
X10789110Y-11064484D01*
X10789110Y-11064484D02*
X10808158Y-11074008D01*
X10808158Y-11074008D02*
X10817682Y-11083531D01*
X10817682Y-11083531D02*
X10827205Y-11102579D01*
X10827205Y-11102579D02*
X10836729Y-11140674D01*
X10836729Y-11140674D02*
X10836729Y-11188293D01*
X10836729Y-11188293D02*
X10827205Y-11226388D01*
X10827205Y-11226388D02*
X10817682Y-11245436D01*
X10817682Y-11245436D02*
X10808158Y-11254960D01*
X10808158Y-11254960D02*
X10789110Y-11264484D01*
X10789110Y-11264484D02*
X10770063Y-11264484D01*
X10770063Y-11264484D02*
X10751015Y-11254960D01*
X10751015Y-11254960D02*
X10741491Y-11245436D01*
X10741491Y-11245436D02*
X10731967Y-11226388D01*
X10731967Y-11226388D02*
X10722444Y-11188293D01*
X10722444Y-11188293D02*
X10722444Y-11140674D01*
X10722444Y-11140674D02*
X10731967Y-11102579D01*
X10731967Y-11102579D02*
X10741491Y-11083531D01*
X10741491Y-11083531D02*
X10751015Y-11074008D01*
X10751015Y-11074008D02*
X10770063Y-11064484D01*
X10960539Y-11064484D02*
X10979586Y-11064484D01*
X10979586Y-11064484D02*
X10998634Y-11074008D01*
X10998634Y-11074008D02*
X11008158Y-11083531D01*
X11008158Y-11083531D02*
X11017682Y-11102579D01*
X11017682Y-11102579D02*
X11027205Y-11140674D01*
X11027205Y-11140674D02*
X11027205Y-11188293D01*
X11027205Y-11188293D02*
X11017682Y-11226388D01*
X11017682Y-11226388D02*
X11008158Y-11245436D01*
X11008158Y-11245436D02*
X10998634Y-11254960D01*
X10998634Y-11254960D02*
X10979586Y-11264484D01*
X10979586Y-11264484D02*
X10960539Y-11264484D01*
X10960539Y-11264484D02*
X10941491Y-11254960D01*
X10941491Y-11254960D02*
X10931967Y-11245436D01*
X10931967Y-11245436D02*
X10922444Y-11226388D01*
X10922444Y-11226388D02*
X10912920Y-11188293D01*
X10912920Y-11188293D02*
X10912920Y-11140674D01*
X10912920Y-11140674D02*
X10922444Y-11102579D01*
X10922444Y-11102579D02*
X10931967Y-11083531D01*
X10931967Y-11083531D02*
X10941491Y-11074008D01*
X10941491Y-11074008D02*
X10960539Y-11064484D01*
X11112920Y-11264484D02*
X11112920Y-11131150D01*
X11112920Y-11150198D02*
X11122444Y-11140674D01*
X11122444Y-11140674D02*
X11141491Y-11131150D01*
X11141491Y-11131150D02*
X11170063Y-11131150D01*
X11170063Y-11131150D02*
X11189110Y-11140674D01*
X11189110Y-11140674D02*
X11198634Y-11159722D01*
X11198634Y-11159722D02*
X11198634Y-11264484D01*
X11198634Y-11159722D02*
X11208158Y-11140674D01*
X11208158Y-11140674D02*
X11227205Y-11131150D01*
X11227205Y-11131150D02*
X11255777Y-11131150D01*
X11255777Y-11131150D02*
X11274824Y-11140674D01*
X11274824Y-11140674D02*
X11284348Y-11159722D01*
X11284348Y-11159722D02*
X11284348Y-11264484D01*
X11379586Y-11264484D02*
X11379586Y-11131150D01*
X11379586Y-11150198D02*
X11389110Y-11140674D01*
X11389110Y-11140674D02*
X11408158Y-11131150D01*
X11408158Y-11131150D02*
X11436729Y-11131150D01*
X11436729Y-11131150D02*
X11455777Y-11140674D01*
X11455777Y-11140674D02*
X11465301Y-11159722D01*
X11465301Y-11159722D02*
X11465301Y-11264484D01*
X11465301Y-11159722D02*
X11474824Y-11140674D01*
X11474824Y-11140674D02*
X11493872Y-11131150D01*
X11493872Y-11131150D02*
X11522443Y-11131150D01*
X11522443Y-11131150D02*
X11541491Y-11140674D01*
X11541491Y-11140674D02*
X11551015Y-11159722D01*
X11551015Y-11159722D02*
X11551015Y-11264484D01*
X11941491Y-11054960D02*
X11770063Y-11312103D01*
X12198634Y-11064484D02*
X12217682Y-11064484D01*
X12217682Y-11064484D02*
X12236729Y-11074008D01*
X12236729Y-11074008D02*
X12246253Y-11083531D01*
X12246253Y-11083531D02*
X12255777Y-11102579D01*
X12255777Y-11102579D02*
X12265301Y-11140674D01*
X12265301Y-11140674D02*
X12265301Y-11188293D01*
X12265301Y-11188293D02*
X12255777Y-11226388D01*
X12255777Y-11226388D02*
X12246253Y-11245436D01*
X12246253Y-11245436D02*
X12236729Y-11254960D01*
X12236729Y-11254960D02*
X12217682Y-11264484D01*
X12217682Y-11264484D02*
X12198634Y-11264484D01*
X12198634Y-11264484D02*
X12179586Y-11254960D01*
X12179586Y-11254960D02*
X12170063Y-11245436D01*
X12170063Y-11245436D02*
X12160539Y-11226388D01*
X12160539Y-11226388D02*
X12151015Y-11188293D01*
X12151015Y-11188293D02*
X12151015Y-11140674D01*
X12151015Y-11140674D02*
X12160539Y-11102579D01*
X12160539Y-11102579D02*
X12170063Y-11083531D01*
X12170063Y-11083531D02*
X12179586Y-11074008D01*
X12179586Y-11074008D02*
X12198634Y-11064484D01*
X12351015Y-11245436D02*
X12360539Y-11254960D01*
X12360539Y-11254960D02*
X12351015Y-11264484D01*
X12351015Y-11264484D02*
X12341491Y-11254960D01*
X12341491Y-11254960D02*
X12351015Y-11245436D01*
X12351015Y-11245436D02*
X12351015Y-11264484D01*
X12484348Y-11064484D02*
X12503396Y-11064484D01*
X12503396Y-11064484D02*
X12522444Y-11074008D01*
X12522444Y-11074008D02*
X12531967Y-11083531D01*
X12531967Y-11083531D02*
X12541491Y-11102579D01*
X12541491Y-11102579D02*
X12551015Y-11140674D01*
X12551015Y-11140674D02*
X12551015Y-11188293D01*
X12551015Y-11188293D02*
X12541491Y-11226388D01*
X12541491Y-11226388D02*
X12531967Y-11245436D01*
X12531967Y-11245436D02*
X12522444Y-11254960D01*
X12522444Y-11254960D02*
X12503396Y-11264484D01*
X12503396Y-11264484D02*
X12484348Y-11264484D01*
X12484348Y-11264484D02*
X12465301Y-11254960D01*
X12465301Y-11254960D02*
X12455777Y-11245436D01*
X12455777Y-11245436D02*
X12446253Y-11226388D01*
X12446253Y-11226388D02*
X12436729Y-11188293D01*
X12436729Y-11188293D02*
X12436729Y-11140674D01*
X12436729Y-11140674D02*
X12446253Y-11102579D01*
X12446253Y-11102579D02*
X12455777Y-11083531D01*
X12455777Y-11083531D02*
X12465301Y-11074008D01*
X12465301Y-11074008D02*
X12484348Y-11064484D01*
X12617682Y-11064484D02*
X12741491Y-11064484D01*
X12741491Y-11064484D02*
X12674825Y-11140674D01*
X12674825Y-11140674D02*
X12703396Y-11140674D01*
X12703396Y-11140674D02*
X12722444Y-11150198D01*
X12722444Y-11150198D02*
X12731967Y-11159722D01*
X12731967Y-11159722D02*
X12741491Y-11178770D01*
X12741491Y-11178770D02*
X12741491Y-11226388D01*
X12741491Y-11226388D02*
X12731967Y-11245436D01*
X12731967Y-11245436D02*
X12722444Y-11254960D01*
X12722444Y-11254960D02*
X12703396Y-11264484D01*
X12703396Y-11264484D02*
X12646253Y-11264484D01*
X12646253Y-11264484D02*
X12627206Y-11254960D01*
X12627206Y-11254960D02*
X12617682Y-11245436D01*
X12836729Y-11264484D02*
X12874825Y-11264484D01*
X12874825Y-11264484D02*
X12893872Y-11254960D01*
X12893872Y-11254960D02*
X12903396Y-11245436D01*
X12903396Y-11245436D02*
X12922444Y-11216865D01*
X12922444Y-11216865D02*
X12931967Y-11178770D01*
X12931967Y-11178770D02*
X12931967Y-11102579D01*
X12931967Y-11102579D02*
X12922444Y-11083531D01*
X12922444Y-11083531D02*
X12912920Y-11074008D01*
X12912920Y-11074008D02*
X12893872Y-11064484D01*
X12893872Y-11064484D02*
X12855777Y-11064484D01*
X12855777Y-11064484D02*
X12836729Y-11074008D01*
X12836729Y-11074008D02*
X12827206Y-11083531D01*
X12827206Y-11083531D02*
X12817682Y-11102579D01*
X12817682Y-11102579D02*
X12817682Y-11150198D01*
X12817682Y-11150198D02*
X12827206Y-11169246D01*
X12827206Y-11169246D02*
X12836729Y-11178770D01*
X12836729Y-11178770D02*
X12855777Y-11188293D01*
X12855777Y-11188293D02*
X12893872Y-11188293D01*
X12893872Y-11188293D02*
X12912920Y-11178770D01*
X12912920Y-11178770D02*
X12922444Y-11169246D01*
X12922444Y-11169246D02*
X12931967Y-11150198D01*
X13103396Y-11131150D02*
X13103396Y-11264484D01*
X13055777Y-11054960D02*
X13008158Y-11197817D01*
X13008158Y-11197817D02*
X13131967Y-11197817D01*
X13198634Y-11064484D02*
X13198634Y-11102579D01*
X13274825Y-11064484D02*
X13274825Y-11102579D01*
X13570063Y-11340674D02*
X13560539Y-11331150D01*
X13560539Y-11331150D02*
X13541491Y-11302579D01*
X13541491Y-11302579D02*
X13531968Y-11283531D01*
X13531968Y-11283531D02*
X13522444Y-11254960D01*
X13522444Y-11254960D02*
X13512920Y-11207341D01*
X13512920Y-11207341D02*
X13512920Y-11169246D01*
X13512920Y-11169246D02*
X13522444Y-11121627D01*
X13522444Y-11121627D02*
X13531968Y-11093055D01*
X13531968Y-11093055D02*
X13541491Y-11074008D01*
X13541491Y-11074008D02*
X13560539Y-11045436D01*
X13560539Y-11045436D02*
X13570063Y-11035912D01*
X13636729Y-11083531D02*
X13646253Y-11074008D01*
X13646253Y-11074008D02*
X13665301Y-11064484D01*
X13665301Y-11064484D02*
X13712920Y-11064484D01*
X13712920Y-11064484D02*
X13731968Y-11074008D01*
X13731968Y-11074008D02*
X13741491Y-11083531D01*
X13741491Y-11083531D02*
X13751015Y-11102579D01*
X13751015Y-11102579D02*
X13751015Y-11121627D01*
X13751015Y-11121627D02*
X13741491Y-11150198D01*
X13741491Y-11150198D02*
X13627206Y-11264484D01*
X13627206Y-11264484D02*
X13751015Y-11264484D01*
X13817682Y-11064484D02*
X13941491Y-11064484D01*
X13941491Y-11064484D02*
X13874825Y-11140674D01*
X13874825Y-11140674D02*
X13903396Y-11140674D01*
X13903396Y-11140674D02*
X13922444Y-11150198D01*
X13922444Y-11150198D02*
X13931968Y-11159722D01*
X13931968Y-11159722D02*
X13941491Y-11178770D01*
X13941491Y-11178770D02*
X13941491Y-11226388D01*
X13941491Y-11226388D02*
X13931968Y-11245436D01*
X13931968Y-11245436D02*
X13922444Y-11254960D01*
X13922444Y-11254960D02*
X13903396Y-11264484D01*
X13903396Y-11264484D02*
X13846253Y-11264484D01*
X13846253Y-11264484D02*
X13827206Y-11254960D01*
X13827206Y-11254960D02*
X13817682Y-11245436D01*
X14179587Y-11264484D02*
X14179587Y-11064484D01*
X14265301Y-11264484D02*
X14265301Y-11159722D01*
X14265301Y-11159722D02*
X14255777Y-11140674D01*
X14255777Y-11140674D02*
X14236730Y-11131150D01*
X14236730Y-11131150D02*
X14208158Y-11131150D01*
X14208158Y-11131150D02*
X14189110Y-11140674D01*
X14189110Y-11140674D02*
X14179587Y-11150198D01*
X14389110Y-11264484D02*
X14370063Y-11254960D01*
X14370063Y-11254960D02*
X14360539Y-11245436D01*
X14360539Y-11245436D02*
X14351015Y-11226388D01*
X14351015Y-11226388D02*
X14351015Y-11169246D01*
X14351015Y-11169246D02*
X14360539Y-11150198D01*
X14360539Y-11150198D02*
X14370063Y-11140674D01*
X14370063Y-11140674D02*
X14389110Y-11131150D01*
X14389110Y-11131150D02*
X14417682Y-11131150D01*
X14417682Y-11131150D02*
X14436730Y-11140674D01*
X14436730Y-11140674D02*
X14446253Y-11150198D01*
X14446253Y-11150198D02*
X14455777Y-11169246D01*
X14455777Y-11169246D02*
X14455777Y-11226388D01*
X14455777Y-11226388D02*
X14446253Y-11245436D01*
X14446253Y-11245436D02*
X14436730Y-11254960D01*
X14436730Y-11254960D02*
X14417682Y-11264484D01*
X14417682Y-11264484D02*
X14389110Y-11264484D01*
X14570063Y-11264484D02*
X14551015Y-11254960D01*
X14551015Y-11254960D02*
X14541491Y-11235912D01*
X14541491Y-11235912D02*
X14541491Y-11064484D01*
X14722444Y-11254960D02*
X14703396Y-11264484D01*
X14703396Y-11264484D02*
X14665301Y-11264484D01*
X14665301Y-11264484D02*
X14646253Y-11254960D01*
X14646253Y-11254960D02*
X14636730Y-11235912D01*
X14636730Y-11235912D02*
X14636730Y-11159722D01*
X14636730Y-11159722D02*
X14646253Y-11140674D01*
X14646253Y-11140674D02*
X14665301Y-11131150D01*
X14665301Y-11131150D02*
X14703396Y-11131150D01*
X14703396Y-11131150D02*
X14722444Y-11140674D01*
X14722444Y-11140674D02*
X14731968Y-11159722D01*
X14731968Y-11159722D02*
X14731968Y-11178770D01*
X14731968Y-11178770D02*
X14636730Y-11197817D01*
X14808158Y-11254960D02*
X14827206Y-11264484D01*
X14827206Y-11264484D02*
X14865301Y-11264484D01*
X14865301Y-11264484D02*
X14884349Y-11254960D01*
X14884349Y-11254960D02*
X14893872Y-11235912D01*
X14893872Y-11235912D02*
X14893872Y-11226388D01*
X14893872Y-11226388D02*
X14884349Y-11207341D01*
X14884349Y-11207341D02*
X14865301Y-11197817D01*
X14865301Y-11197817D02*
X14836730Y-11197817D01*
X14836730Y-11197817D02*
X14817682Y-11188293D01*
X14817682Y-11188293D02*
X14808158Y-11169246D01*
X14808158Y-11169246D02*
X14808158Y-11159722D01*
X14808158Y-11159722D02*
X14817682Y-11140674D01*
X14817682Y-11140674D02*
X14836730Y-11131150D01*
X14836730Y-11131150D02*
X14865301Y-11131150D01*
X14865301Y-11131150D02*
X14884349Y-11140674D01*
X14960539Y-11340674D02*
X14970063Y-11331150D01*
X14970063Y-11331150D02*
X14989111Y-11302579D01*
X14989111Y-11302579D02*
X14998634Y-11283531D01*
X14998634Y-11283531D02*
X15008158Y-11254960D01*
X15008158Y-11254960D02*
X15017682Y-11207341D01*
X15017682Y-11207341D02*
X15017682Y-11169246D01*
X15017682Y-11169246D02*
X15008158Y-11121627D01*
X15008158Y-11121627D02*
X14998634Y-11093055D01*
X14998634Y-11093055D02*
X14989111Y-11074008D01*
X14989111Y-11074008D02*
X14970063Y-11045436D01*
X14970063Y-11045436D02*
X14960539Y-11035912D01*
M02*
