G04 #@! TF.GenerationSoftware,KiCad,Pcbnew,8.0.4*
G04 #@! TF.CreationDate,2024-08-17T22:40:57+02:00*
G04 #@! TF.ProjectId,Probe,50726f62-652e-46b6-9963-61645f706362,v1*
G04 #@! TF.SameCoordinates,Original*
G04 #@! TF.FileFunction,Soldermask,Bot*
G04 #@! TF.FilePolarity,Negative*
%FSLAX46Y46*%
G04 Gerber Fmt 4.6, Leading zero omitted, Abs format (unit mm)*
G04 Created by KiCad (PCBNEW 8.0.4) date 2024-08-17 22:40:57*
%MOMM*%
%LPD*%
G01*
G04 APERTURE LIST*
G04 Aperture macros list*
%AMFreePoly0*
4,1,6,1.000000,0.000000,0.500000,-0.750000,-0.500000,-0.750000,-0.500000,0.750000,0.500000,0.750000,1.000000,0.000000,1.000000,0.000000,$1*%
%AMFreePoly1*
4,1,6,0.500000,-0.750000,-0.650000,-0.750000,-0.150000,0.000000,-0.650000,0.750000,0.500000,0.750000,0.500000,-0.750000,0.500000,-0.750000,$1*%
G04 Aperture macros list end*
%ADD10C,0.000000*%
%ADD11FreePoly0,0.000000*%
%ADD12FreePoly1,0.000000*%
%ADD13R,2.000000X2.000000*%
%ADD14R,1.700000X1.700000*%
%ADD15R,2.000000X5.000000*%
%ADD16FreePoly0,180.000000*%
%ADD17C,0.990600*%
%ADD18C,0.787400*%
%ADD19O,1.700000X1.700000*%
G04 APERTURE END LIST*
D10*
G36*
X106950000Y-63750000D02*
G01*
X107450000Y-64500000D01*
X105050000Y-64500000D01*
X105550000Y-63750000D01*
X105050000Y-63000000D01*
X107450000Y-63000000D01*
X106950000Y-63750000D01*
G37*
D11*
X131362500Y-57500000D03*
D12*
X132812500Y-57500000D03*
D13*
X144750000Y-69000000D03*
D14*
X145224998Y-94125000D03*
D13*
X147750000Y-59250000D03*
D15*
X121350000Y-94250000D03*
D11*
X104250000Y-63750000D03*
D16*
X108250000Y-63750000D03*
D15*
X128900000Y-94250000D03*
D14*
X140125000Y-94125000D03*
D13*
X141750000Y-64135000D03*
D17*
X141790000Y-58750000D03*
X136710000Y-59766000D03*
X136710000Y-57734000D03*
D18*
X140520000Y-59385000D03*
X140520000Y-58115000D03*
X139250000Y-59385000D03*
X139250000Y-58115000D03*
X137980000Y-59385000D03*
X137980000Y-58115000D03*
D13*
X141750000Y-69000000D03*
D14*
X135125000Y-94125000D03*
X140500000Y-52750000D03*
D19*
X137960000Y-52750000D03*
X135420000Y-52750000D03*
X132880000Y-52750000D03*
D13*
X147750000Y-64135000D03*
D15*
X113025000Y-94250000D03*
X105725000Y-94250000D03*
D13*
X147750000Y-69000000D03*
D11*
X126550000Y-57500000D03*
D12*
X128000000Y-57500000D03*
D13*
X138750000Y-69000000D03*
D14*
X128550000Y-52725000D03*
D19*
X126010000Y-52725000D03*
X123470000Y-52725000D03*
X120930000Y-52725000D03*
D13*
X135750000Y-69000000D03*
X144750000Y-64135000D03*
X138750000Y-64135000D03*
X135750000Y-64135000D03*
M02*
