G04 #@! TF.GenerationSoftware,KiCad,Pcbnew,8.0.4*
G04 #@! TF.CreationDate,2024-08-28T18:09:24+02:00*
G04 #@! TF.ProjectId,Probe,50726f62-652e-46b6-9963-61645f706362,v1*
G04 #@! TF.SameCoordinates,Original*
G04 #@! TF.FileFunction,Copper,L4,Bot*
G04 #@! TF.FilePolarity,Positive*
%FSLAX46Y46*%
G04 Gerber Fmt 4.6, Leading zero omitted, Abs format (unit mm)*
G04 Created by KiCad (PCBNEW 8.0.4) date 2024-08-28 18:09:24*
%MOMM*%
%LPD*%
G01*
G04 APERTURE LIST*
G04 Aperture macros list*
%AMFreePoly0*
4,1,6,1.000000,0.000000,0.500000,-0.750000,-0.500000,-0.750000,-0.500000,0.750000,0.500000,0.750000,1.000000,0.000000,1.000000,0.000000,$1*%
%AMFreePoly1*
4,1,6,0.500000,-0.750000,-0.650000,-0.750000,-0.150000,0.000000,-0.650000,0.750000,0.500000,0.750000,0.500000,-0.750000,0.500000,-0.750000,$1*%
%AMFreePoly2*
4,1,7,0.700000,0.000000,1.200000,-0.750000,-1.200000,-0.750000,-0.700000,0.000000,-1.200000,0.750000,1.200000,0.750000,0.700000,0.000000,0.700000,0.000000,$1*%
G04 Aperture macros list end*
G04 #@! TA.AperFunction,SMDPad,CuDef*
%ADD10FreePoly0,0.000000*%
G04 #@! TD*
G04 #@! TA.AperFunction,SMDPad,CuDef*
%ADD11FreePoly1,0.000000*%
G04 #@! TD*
G04 #@! TA.AperFunction,ComponentPad*
%ADD12R,2.000000X2.000000*%
G04 #@! TD*
G04 #@! TA.AperFunction,ComponentPad*
%ADD13R,1.700000X1.700000*%
G04 #@! TD*
G04 #@! TA.AperFunction,SMDPad,CuDef*
%ADD14R,2.000000X2.000000*%
G04 #@! TD*
G04 #@! TA.AperFunction,SMDPad,CuDef*
%ADD15FreePoly2,0.000000*%
G04 #@! TD*
G04 #@! TA.AperFunction,SMDPad,CuDef*
%ADD16FreePoly0,180.000000*%
G04 #@! TD*
G04 #@! TA.AperFunction,ConnectorPad*
%ADD17C,0.787400*%
G04 #@! TD*
G04 #@! TA.AperFunction,ComponentPad*
%ADD18O,1.700000X1.700000*%
G04 #@! TD*
G04 #@! TA.AperFunction,ViaPad*
%ADD19C,0.800000*%
G04 #@! TD*
G04 #@! TA.AperFunction,ViaPad*
%ADD20C,0.450000*%
G04 #@! TD*
G04 #@! TA.AperFunction,Conductor*
%ADD21C,0.350000*%
G04 #@! TD*
G04 #@! TA.AperFunction,Conductor*
%ADD22C,0.150000*%
G04 #@! TD*
G04 #@! TA.AperFunction,Conductor*
%ADD23C,0.300000*%
G04 #@! TD*
G04 #@! TA.AperFunction,Conductor*
%ADD24C,0.250000*%
G04 #@! TD*
G04 APERTURE END LIST*
D10*
X131362500Y-57500000D03*
D11*
X132812500Y-57500000D03*
D12*
X144750000Y-69000000D03*
D13*
X138750000Y-93750000D03*
D12*
X147750000Y-59250000D03*
D14*
X121100000Y-94000000D03*
X121100000Y-97000000D03*
X121100000Y-91000000D03*
D10*
X104250000Y-63750000D03*
D15*
X106250000Y-63750000D03*
D16*
X108250000Y-63750000D03*
D14*
X128400000Y-94000000D03*
X128400000Y-91000000D03*
X128400000Y-97000000D03*
D13*
X146250000Y-93750000D03*
D12*
X141750000Y-64135000D03*
D17*
X140520000Y-59385000D03*
X140520000Y-58115000D03*
X139250000Y-59385000D03*
X139250000Y-58115000D03*
X137980000Y-59385000D03*
X137980000Y-58115000D03*
D12*
X141750000Y-69000000D03*
D13*
X135000000Y-93750000D03*
X140500000Y-52750000D03*
D18*
X137960000Y-52750000D03*
X135420000Y-52750000D03*
X132880000Y-52750000D03*
D12*
X147750000Y-64135000D03*
X147750000Y-69000000D03*
D10*
X126550000Y-57500000D03*
D11*
X128000000Y-57500000D03*
D12*
X138750000Y-69000000D03*
D13*
X128550000Y-52725000D03*
D18*
X126010000Y-52725000D03*
X123470000Y-52725000D03*
X120930000Y-52725000D03*
D12*
X135750000Y-69000000D03*
X144750000Y-64135000D03*
X138750000Y-64135000D03*
D13*
X142500000Y-93750000D03*
D12*
X135750000Y-64135000D03*
D19*
X140750000Y-76000000D03*
X121400000Y-71000000D03*
D20*
X131800000Y-68400000D03*
D19*
X110547702Y-74747702D03*
X108250000Y-66750000D03*
X134250000Y-83000000D03*
X121500000Y-60500000D03*
X126500000Y-55500000D03*
X121200000Y-83200000D03*
X138000000Y-60500000D03*
X113000000Y-57750000D03*
X127000000Y-80750000D03*
X115000000Y-95875000D03*
X133500000Y-66750000D03*
X123000000Y-81000000D03*
X103200000Y-93840000D03*
X143800000Y-90400000D03*
X143800000Y-83200000D03*
X148500000Y-75000000D03*
D20*
X133400000Y-71000000D03*
D19*
X111500000Y-80000000D03*
X113400000Y-90100000D03*
X140000000Y-84250000D03*
X117250000Y-78250000D03*
X104500000Y-60500000D03*
X106000000Y-60750000D03*
D20*
X124500000Y-69500000D03*
X119500000Y-73250000D03*
D19*
X144500000Y-76250000D03*
X113000000Y-54250000D03*
X113200000Y-66200000D03*
X103500000Y-72250000D03*
X109000000Y-90475000D03*
X129500000Y-65750000D03*
X145800000Y-87650000D03*
X118500000Y-64500000D03*
X105800000Y-98440000D03*
X123200000Y-82800000D03*
X121750000Y-78250000D03*
X107026867Y-80950115D03*
X128250000Y-76500000D03*
X134500000Y-85500000D03*
X131250000Y-59500000D03*
X126500000Y-59500000D03*
X110500000Y-61500000D03*
X140500000Y-60500000D03*
D20*
X107800000Y-72800000D03*
X118750000Y-73750000D03*
X131500000Y-74750000D03*
D19*
X109500000Y-64000000D03*
D20*
X133250000Y-73000000D03*
X129750000Y-60000000D03*
X127000000Y-63500000D03*
X123000000Y-74500000D03*
X110875000Y-78750000D03*
X120000000Y-70250000D03*
X105500000Y-70500000D03*
X112750000Y-76675000D03*
X123853554Y-74353554D03*
X110875000Y-77750000D03*
X125750000Y-71500000D03*
X130250000Y-72500000D03*
X126325000Y-70075000D03*
X142500000Y-74750000D03*
X120099759Y-66024645D03*
X132532107Y-76867893D03*
X101750000Y-62750000D03*
X118750000Y-70750000D03*
X111281587Y-68468413D03*
X128500000Y-62500000D03*
X110250000Y-56000000D03*
X122000000Y-66750000D03*
X129250000Y-60750000D03*
X128500000Y-63500000D03*
X122500000Y-66000000D03*
X112000000Y-57250000D03*
X119500000Y-71250000D03*
X111250000Y-67500000D03*
D19*
X102000000Y-68000000D03*
D20*
X124746288Y-74017927D03*
D19*
X107026867Y-82400000D03*
D20*
X131400000Y-70400000D03*
X123000000Y-73000000D03*
X112000000Y-79250000D03*
X127600000Y-70600000D03*
X118750000Y-71750000D03*
X106000000Y-69750000D03*
X130500000Y-61100000D03*
X130500000Y-70750000D03*
X127250000Y-69750000D03*
D19*
X149162500Y-81412500D03*
X117750000Y-77250000D03*
X107000000Y-73500000D03*
X102750000Y-68750000D03*
D20*
X112250000Y-76000000D03*
X124853554Y-71853554D03*
X122750000Y-67750000D03*
X102250000Y-62000000D03*
X133750000Y-76750000D03*
X142500000Y-77000000D03*
X132750000Y-78250000D03*
X119750000Y-66750000D03*
X115500000Y-78775478D03*
X121275967Y-77334419D03*
D19*
X115500000Y-86375000D03*
X109500000Y-77350000D03*
X128728179Y-85746803D03*
D20*
X122000000Y-85600000D03*
D19*
X114500000Y-87400000D03*
D20*
X114500000Y-79837500D03*
X121500000Y-74975000D03*
D19*
X109800000Y-75800000D03*
X129050000Y-84800000D03*
D20*
X121800000Y-84800000D03*
D19*
X106500000Y-61750000D03*
X133000000Y-55250000D03*
X128550000Y-56000000D03*
X126600000Y-74600000D03*
X121500000Y-80000000D03*
X125600000Y-74200000D03*
X118000000Y-79250000D03*
D20*
X119200000Y-69200000D03*
X111800000Y-73100000D03*
X116000000Y-69200000D03*
X112200000Y-89925000D03*
X108000000Y-73600000D03*
X113600000Y-96075000D03*
X114200000Y-95475000D03*
X110000000Y-73200000D03*
X111000000Y-73100000D03*
X111800000Y-92875000D03*
D19*
X122600000Y-97000000D03*
X122600000Y-90800000D03*
X115000000Y-92875000D03*
X127000000Y-91000000D03*
X122800000Y-89600000D03*
X113000000Y-92875000D03*
X126800000Y-96800000D03*
X113200000Y-94800000D03*
D21*
X137980000Y-59385000D02*
X137980000Y-60480000D01*
X137980000Y-60480000D02*
X138000000Y-60500000D01*
D22*
X114250000Y-69750000D02*
X110250000Y-65750000D01*
D23*
X104250000Y-62500000D02*
X104250000Y-63750000D01*
D22*
X120250000Y-69750000D02*
X114250000Y-69750000D01*
D23*
X106000000Y-60750000D02*
X104250000Y-62500000D01*
D22*
X125000000Y-69000000D02*
X124500000Y-69500000D01*
X107204595Y-60750000D02*
X106000000Y-60750000D01*
X120500000Y-72250000D02*
X120500000Y-70000000D01*
X110250000Y-65750000D02*
X110250000Y-63795405D01*
X110250000Y-63795405D02*
X107204595Y-60750000D01*
X119500000Y-73250000D02*
X120500000Y-72250000D01*
X120500000Y-70000000D02*
X120250000Y-69750000D01*
X135750000Y-69000000D02*
X125000000Y-69000000D01*
D21*
X131250000Y-59500000D02*
X131250000Y-57612500D01*
X126500000Y-59500000D02*
X126500000Y-57550000D01*
X140520000Y-60480000D02*
X140500000Y-60500000D01*
X140520000Y-59385000D02*
X140520000Y-60480000D01*
X131250000Y-57612500D02*
X131362500Y-57500000D01*
X126500000Y-57550000D02*
X126550000Y-57500000D01*
D22*
X108000000Y-72600000D02*
X107800000Y-72800000D01*
D23*
X109500000Y-64000000D02*
X108500000Y-64000000D01*
D22*
X118750000Y-73750000D02*
X117600000Y-72600000D01*
X117600000Y-72600000D02*
X117200000Y-72600000D01*
X131500000Y-74750000D02*
X133250000Y-73000000D01*
D23*
X108500000Y-64000000D02*
X108250000Y-63750000D01*
D22*
X117200000Y-72600000D02*
X108000000Y-72600000D01*
X134700000Y-53470000D02*
X134700000Y-58500000D01*
X132950000Y-60250000D02*
X130500000Y-60250000D01*
X135420000Y-52750000D02*
X134700000Y-53470000D01*
X134700000Y-58500000D02*
X132950000Y-60250000D01*
X130000000Y-60250000D02*
X129750000Y-60000000D01*
X130500000Y-60250000D02*
X130000000Y-60250000D01*
X137885000Y-56750000D02*
X136000000Y-56750000D01*
X135750000Y-57000000D02*
X135750000Y-59000000D01*
X133400000Y-61350000D02*
X131394974Y-61350000D01*
X135750000Y-59000000D02*
X133400000Y-61350000D01*
X127650000Y-61600000D02*
X127500000Y-61750000D01*
X136000000Y-56750000D02*
X135750000Y-57000000D01*
X139250000Y-58115000D02*
X137885000Y-56750000D01*
X131144974Y-61600000D02*
X127650000Y-61600000D01*
X131394974Y-61350000D02*
X131144974Y-61600000D01*
X127500000Y-61750000D02*
X127000000Y-62250000D01*
X127000000Y-62250000D02*
X127000000Y-63500000D01*
X110875000Y-78750000D02*
X111382107Y-78750000D01*
X113250000Y-76882107D02*
X113250000Y-75750000D01*
X123000000Y-74500000D02*
X123750000Y-73750000D01*
X122500000Y-72500000D02*
X123250000Y-72500000D01*
X111382107Y-78750000D02*
X113250000Y-76882107D01*
X113700000Y-75300000D02*
X119700000Y-75300000D01*
X123750000Y-73750000D02*
X123750000Y-73000000D01*
X113250000Y-75750000D02*
X113700000Y-75300000D01*
X123250000Y-72500000D02*
X123750000Y-73000000D01*
X119700000Y-75300000D02*
X122500000Y-72500000D01*
X120000000Y-70250000D02*
X120000000Y-71457107D01*
X119207107Y-72250000D02*
X107250000Y-72250000D01*
X120000000Y-71457107D02*
X119207107Y-72250000D01*
X107250000Y-72250000D02*
X105500000Y-70500000D01*
X123400000Y-72150000D02*
X124250000Y-73000000D01*
X123853554Y-74353554D02*
X124250000Y-73957108D01*
X112750000Y-75250000D02*
X113050000Y-74950000D01*
X112750000Y-76675000D02*
X112750000Y-75250000D01*
X122350000Y-72150000D02*
X123400000Y-72150000D01*
X113050000Y-74950000D02*
X119550000Y-74950000D01*
X124250000Y-73957108D02*
X124250000Y-73000000D01*
X119550000Y-74950000D02*
X122350000Y-72150000D01*
X111250000Y-75000000D02*
X110875000Y-75375000D01*
X125500000Y-71250000D02*
X125750000Y-71500000D01*
X112000000Y-74250000D02*
X111250000Y-75000000D01*
X110875000Y-75375000D02*
X110875000Y-77750000D01*
X122250000Y-71250000D02*
X125500000Y-71250000D01*
X122250000Y-71250000D02*
X119250000Y-74250000D01*
X119250000Y-74250000D02*
X112000000Y-74250000D01*
X126325000Y-70075000D02*
X128750000Y-72500000D01*
X128750000Y-72500000D02*
X130250000Y-72500000D01*
X140250000Y-72500000D02*
X140250000Y-65635000D01*
X142500000Y-74750000D02*
X142500000Y-76250000D01*
X116750000Y-63792893D02*
X116750000Y-63750000D01*
X104500000Y-59250000D02*
X103505026Y-59250000D01*
X140250000Y-65635000D02*
X138750000Y-64135000D01*
X142500000Y-76250000D02*
X141000000Y-77750000D01*
X124268007Y-70192893D02*
X120099759Y-66024645D01*
X120099759Y-66024645D02*
X118981752Y-66024645D01*
X132319974Y-76867893D02*
X125644974Y-70192893D01*
X125644974Y-70192893D02*
X124268007Y-70192893D01*
X132532107Y-76867893D02*
X132319974Y-76867893D01*
X133414214Y-77750000D02*
X132532107Y-76867893D01*
X112250000Y-59250000D02*
X104500000Y-59250000D01*
X142500000Y-74750000D02*
X140250000Y-72500000D01*
X116750000Y-63750000D02*
X112250000Y-59250000D01*
X103505026Y-59250000D02*
X101750000Y-61005026D01*
X141000000Y-77750000D02*
X133414214Y-77750000D01*
X118981752Y-66024645D02*
X116750000Y-63792893D01*
X101750000Y-61005026D02*
X101750000Y-62750000D01*
X111281587Y-68468413D02*
X113563174Y-70750000D01*
X113563174Y-70750000D02*
X118750000Y-70750000D01*
X144750000Y-64135000D02*
X144750000Y-62985000D01*
X131350000Y-62500000D02*
X128500000Y-62500000D01*
X110250000Y-56000000D02*
X110250000Y-56449570D01*
X120750000Y-60750000D02*
X122000000Y-62000000D01*
X120750000Y-59750000D02*
X120750000Y-60750000D01*
X131750000Y-62100000D02*
X131350000Y-62500000D01*
X143865000Y-62100000D02*
X131750000Y-62100000D01*
X113150430Y-59350000D02*
X120250000Y-59350000D01*
X122000000Y-62000000D02*
X122000000Y-66750000D01*
X120350000Y-59350000D02*
X120750000Y-59750000D01*
X110250000Y-56449570D02*
X113150430Y-59350000D01*
X144750000Y-62985000D02*
X143865000Y-62100000D01*
X120250000Y-59350000D02*
X120350000Y-59350000D01*
X135050000Y-55660000D02*
X135050000Y-58644975D01*
X133300000Y-60394975D02*
X133194974Y-60500000D01*
X129400000Y-60600000D02*
X129250000Y-60750000D01*
X137960000Y-52750000D02*
X135050000Y-55660000D01*
X133194974Y-60500000D02*
X133094975Y-60600000D01*
X133094975Y-60600000D02*
X129400000Y-60600000D01*
X135050000Y-58644975D02*
X133300000Y-60394975D01*
X141750000Y-62985000D02*
X141265000Y-62500000D01*
X132250000Y-62500000D02*
X131844974Y-62500000D01*
X112000000Y-57250000D02*
X112000000Y-57704595D01*
X113295405Y-59000000D02*
X117000000Y-59000000D01*
X131797487Y-62547487D02*
X130844974Y-63500000D01*
X141265000Y-62500000D02*
X132250000Y-62500000D01*
X117000000Y-59000000D02*
X121000000Y-59000000D01*
X130844974Y-63500000D02*
X128500000Y-63500000D01*
X131844974Y-62500000D02*
X131797487Y-62547487D01*
X121000000Y-59000000D02*
X122500000Y-60500000D01*
X112000000Y-57704595D02*
X113295405Y-59000000D01*
X122500000Y-60500000D02*
X122500000Y-66000000D01*
X141750000Y-64135000D02*
X141750000Y-62985000D01*
X114000000Y-70250000D02*
X118000000Y-70250000D01*
X118957107Y-70250000D02*
X119500000Y-70792893D01*
X119500000Y-70792893D02*
X119500000Y-71250000D01*
X111250000Y-67500000D02*
X114000000Y-70250000D01*
X118000000Y-70250000D02*
X118957107Y-70250000D01*
D21*
X102000000Y-76200000D02*
X102000000Y-77373133D01*
D22*
X124746288Y-74017927D02*
X124746288Y-74167927D01*
X131400000Y-71000000D02*
X131400000Y-70400000D01*
X113600000Y-76000000D02*
X113600000Y-75900000D01*
X113600000Y-77650000D02*
X113600000Y-76000000D01*
X128250000Y-71250000D02*
X131150000Y-71250000D01*
X113850000Y-75650000D02*
X114000000Y-75650000D01*
X121382107Y-74150000D02*
X121350000Y-74150000D01*
X123914215Y-75000000D02*
X122232107Y-75000000D01*
X112000000Y-79250000D02*
X113600000Y-77650000D01*
X113600000Y-75900000D02*
X113850000Y-75650000D01*
X127600000Y-70600000D02*
X128250000Y-71250000D01*
X114000000Y-75650000D02*
X119850000Y-75650000D01*
X121350000Y-74150000D02*
X122500000Y-73000000D01*
X124746288Y-74167927D02*
X123914215Y-75000000D01*
X119850000Y-75650000D02*
X121350000Y-74150000D01*
D23*
X102000000Y-68000000D02*
X102000000Y-75060661D01*
D22*
X122500000Y-73000000D02*
X123000000Y-73000000D01*
D21*
X102000000Y-77373133D02*
X107026867Y-82400000D01*
D22*
X131150000Y-71250000D02*
X131400000Y-71000000D01*
X122232107Y-75000000D02*
X121382107Y-74150000D01*
D21*
X102000000Y-75060661D02*
X102000000Y-76200000D01*
D22*
X106000000Y-69750000D02*
X108000000Y-71750000D01*
X108000000Y-71750000D02*
X118750000Y-71750000D01*
X133649999Y-60539952D02*
X133443298Y-60746651D01*
X133443298Y-60746651D02*
X133189949Y-61000000D01*
X135855025Y-56400000D02*
X135400000Y-56855025D01*
X133649999Y-60539950D02*
X133649999Y-60539952D01*
X135400000Y-58750000D02*
X135400000Y-58789949D01*
X140520000Y-58115000D02*
X138805000Y-56400000D01*
X131250000Y-61000000D02*
X130600000Y-61000000D01*
X130600000Y-61000000D02*
X130500000Y-61100000D01*
X135400000Y-56855025D02*
X135400000Y-58750000D01*
X138805000Y-56400000D02*
X135855025Y-56400000D01*
X133189949Y-61000000D02*
X131250000Y-61000000D01*
X135400000Y-58789949D02*
X133649999Y-60539950D01*
X129750000Y-70000000D02*
X130500000Y-70750000D01*
X127500000Y-70000000D02*
X129750000Y-70000000D01*
X127250000Y-69750000D02*
X127500000Y-70000000D01*
D24*
X117750000Y-77250000D02*
X117000000Y-77250000D01*
X130250000Y-80500000D02*
X148250000Y-80500000D01*
X116500000Y-79750000D02*
X118750000Y-82000000D01*
X116500000Y-77750000D02*
X116500000Y-79750000D01*
X117000000Y-77250000D02*
X116500000Y-77750000D01*
X118750000Y-82000000D02*
X128750000Y-82000000D01*
X148250000Y-80500000D02*
X149162500Y-81412500D01*
X128750000Y-82000000D02*
X130250000Y-80500000D01*
D23*
X107000000Y-73000000D02*
X107000000Y-73500000D01*
X102750000Y-68750000D02*
X107000000Y-73000000D01*
D22*
X113500000Y-74600000D02*
X119400000Y-74600000D01*
X122250000Y-71750000D02*
X124750000Y-71750000D01*
X122000000Y-72000000D02*
X122250000Y-71750000D01*
X119400000Y-74600000D02*
X122000000Y-72000000D01*
X112900000Y-74600000D02*
X113500000Y-74600000D01*
X112250000Y-75250000D02*
X112900000Y-74600000D01*
X112250000Y-76000000D02*
X112250000Y-75250000D01*
X124750000Y-71750000D02*
X124853554Y-71853554D01*
X125500000Y-67750000D02*
X122750000Y-67750000D01*
X138204595Y-61250000D02*
X134000000Y-61250000D01*
X128000000Y-62000000D02*
X127500000Y-62500000D01*
X139250000Y-59385000D02*
X139250000Y-60204595D01*
X127500000Y-62500000D02*
X127500000Y-65750000D01*
X131500000Y-61750000D02*
X131250000Y-62000000D01*
X127500000Y-65750000D02*
X125500000Y-67750000D01*
X134000000Y-61250000D02*
X133500000Y-61750000D01*
X139250000Y-60204595D02*
X138204595Y-61250000D01*
X131250000Y-62000000D02*
X128000000Y-62000000D01*
X133500000Y-61750000D02*
X131500000Y-61750000D01*
X133750000Y-76750000D02*
X134250000Y-76750000D01*
X123542893Y-70542893D02*
X119750000Y-66750000D01*
X112000000Y-59750000D02*
X104500000Y-59750000D01*
X137250000Y-73750000D02*
X137250000Y-67750000D01*
X132750000Y-77792893D02*
X125500000Y-70542893D01*
X103500000Y-59750000D02*
X102250000Y-61000000D01*
X134250000Y-76750000D02*
X137250000Y-73750000D01*
X102250000Y-61000000D02*
X102250000Y-62000000D01*
X119000000Y-66750000D02*
X117000000Y-64750000D01*
X132750000Y-78250000D02*
X132750000Y-77792893D01*
X117000000Y-64750000D02*
X112000000Y-59750000D01*
X104500000Y-59750000D02*
X103500000Y-59750000D01*
X137250000Y-67750000D02*
X135750000Y-66250000D01*
X125500000Y-70542893D02*
X123542893Y-70542893D01*
X141250000Y-78250000D02*
X142500000Y-77000000D01*
X135750000Y-66250000D02*
X135750000Y-64135000D01*
X119750000Y-66750000D02*
X119000000Y-66750000D01*
X132750000Y-78250000D02*
X141250000Y-78250000D01*
D21*
X124800000Y-86800000D02*
X124200000Y-86200000D01*
X125400000Y-91000000D02*
X128400000Y-94000000D01*
D22*
X120730819Y-76350000D02*
X115900000Y-76350000D01*
X121275967Y-76895148D02*
X120730819Y-76350000D01*
D21*
X115675000Y-86200000D02*
X115500000Y-86375000D01*
X125400000Y-87400000D02*
X125400000Y-91000000D01*
D22*
X115500000Y-76750000D02*
X115500000Y-78775478D01*
X115900000Y-76350000D02*
X115500000Y-76750000D01*
X121275967Y-77334419D02*
X121275967Y-76895148D01*
D21*
X124800000Y-86800000D02*
X125400000Y-87400000D01*
X124200000Y-86200000D02*
X115675000Y-86200000D01*
X113297183Y-85600000D02*
X122000000Y-85600000D01*
X131546803Y-85746803D02*
X135000000Y-89200000D01*
X109500000Y-81802817D02*
X113297183Y-85600000D01*
X142500000Y-93750000D02*
X135000000Y-93750000D01*
X128728179Y-85746803D02*
X131546803Y-85746803D01*
X122000000Y-85600000D02*
X128733578Y-85600000D01*
X135000000Y-89200000D02*
X135000000Y-93750000D01*
X109500000Y-77350000D02*
X109500000Y-81802817D01*
X116250000Y-86750000D02*
X115600000Y-87400000D01*
X124000000Y-87400000D02*
X123350000Y-86750000D01*
X115600000Y-87400000D02*
X114500000Y-87400000D01*
X124000000Y-87400000D02*
X124000000Y-91100000D01*
D22*
X114000000Y-79337500D02*
X114500000Y-79837500D01*
X114000000Y-76500000D02*
X114000000Y-79337500D01*
X114500000Y-76000000D02*
X114000000Y-76500000D01*
X121500000Y-74975000D02*
X120475000Y-76000000D01*
X120475000Y-76000000D02*
X114500000Y-76000000D01*
D21*
X124000000Y-91100000D02*
X121100000Y-94000000D01*
X123350000Y-86750000D02*
X116250000Y-86750000D01*
X110275000Y-76275000D02*
X110275000Y-81600000D01*
X110275000Y-81600000D02*
X113475000Y-84800000D01*
X131800000Y-84800000D02*
X138550000Y-91550000D01*
X109800000Y-75800000D02*
X110275000Y-76275000D01*
X138550000Y-91550000D02*
X144050000Y-91550000D01*
X121800000Y-84800000D02*
X129050000Y-84800000D01*
X129050000Y-84800000D02*
X131800000Y-84800000D01*
X113475000Y-84800000D02*
X121800000Y-84800000D01*
X144050000Y-91550000D02*
X146250000Y-93750000D01*
D23*
X106500000Y-61750000D02*
X106500000Y-63500000D01*
X106500000Y-63500000D02*
X106250000Y-63750000D01*
D21*
X133000000Y-55250000D02*
X133000000Y-57312500D01*
X133000000Y-57312500D02*
X132812500Y-57500000D01*
X128000000Y-57500000D02*
X128000000Y-56550000D01*
X128000000Y-56550000D02*
X128550000Y-56000000D01*
D24*
X125830851Y-75830851D02*
X121661701Y-80000000D01*
X125830851Y-75830851D02*
X126600000Y-75061702D01*
X121661701Y-80000000D02*
X121500000Y-80000000D01*
X126600000Y-75061702D02*
X126600000Y-74600000D01*
X121775305Y-79250000D02*
X124000000Y-77025305D01*
X118000000Y-79250000D02*
X121775305Y-79250000D01*
X125600000Y-75425305D02*
X125600000Y-74200000D01*
X124000000Y-77025305D02*
X125600000Y-75425305D01*
D22*
X108751867Y-87426867D02*
X111250000Y-89925000D01*
X110827297Y-74072703D02*
X109972702Y-74072703D01*
X111250000Y-89925000D02*
X112200000Y-89925000D01*
X108751867Y-75293538D02*
X108751867Y-87426867D01*
X119200000Y-69200000D02*
X116000000Y-69200000D01*
X111800000Y-73100000D02*
X110827297Y-74072703D01*
X109972702Y-74072703D02*
X108751867Y-75293538D01*
X107701867Y-73898133D02*
X107701867Y-87976867D01*
X107701867Y-87976867D02*
X110450000Y-90725000D01*
X110450000Y-93574569D02*
X112950431Y-96075000D01*
X108000000Y-73600000D02*
X107701867Y-73898133D01*
X112950431Y-96075000D02*
X113600000Y-96075000D01*
X110450000Y-90725000D02*
X110450000Y-93574569D01*
X110800000Y-90475000D02*
X110800000Y-93429595D01*
X112845405Y-95475000D02*
X114200000Y-95475000D01*
X110000000Y-73200000D02*
X109855457Y-73200000D01*
X108051867Y-87726867D02*
X110800000Y-90475000D01*
X108051867Y-75003590D02*
X108051867Y-87726867D01*
X109855457Y-73200000D02*
X108051867Y-75003590D01*
X110800000Y-93429595D02*
X112845405Y-95475000D01*
X108401867Y-87571841D02*
X111800000Y-90969974D01*
X110377297Y-73722703D02*
X109827728Y-73722703D01*
X108401867Y-86696842D02*
X108401867Y-86696841D01*
X111000000Y-73100000D02*
X110377297Y-73722703D01*
X108401867Y-75148564D02*
X108401867Y-80800000D01*
X108401867Y-80800000D02*
X108401867Y-86600000D01*
X111800000Y-90969974D02*
X111800000Y-92875000D01*
X108401867Y-86600000D02*
X108401867Y-87571841D01*
X108401867Y-86600000D02*
X108401867Y-86696842D01*
X109827728Y-73722703D02*
X108475215Y-75075216D01*
X108475215Y-75075216D02*
X108401867Y-75148564D01*
D21*
X121100000Y-91000000D02*
X121100000Y-88350000D01*
X121100000Y-97000000D02*
X122600000Y-97000000D01*
X122600000Y-90800000D02*
X121300000Y-90800000D01*
X121300000Y-90800000D02*
X121100000Y-91000000D01*
X120600000Y-87850000D02*
X116927818Y-87850000D01*
X116927818Y-87850000D02*
X115000000Y-89777818D01*
X115000000Y-89777818D02*
X115000000Y-92875000D01*
X121100000Y-88350000D02*
X120600000Y-87850000D01*
X113000000Y-92875000D02*
X113000000Y-94600000D01*
X113000000Y-92584009D02*
X113000000Y-92875000D01*
X114200000Y-89800000D02*
X114200000Y-91675000D01*
X122800000Y-88600000D02*
X121500000Y-87300000D01*
X116700000Y-87300000D02*
X114200000Y-89800000D01*
X128400000Y-97000000D02*
X127000000Y-97000000D01*
X114200000Y-91675000D02*
X113000000Y-92875000D01*
X121500000Y-87300000D02*
X116700000Y-87300000D01*
X127000000Y-97000000D02*
X126800000Y-96800000D01*
X122800000Y-89600000D02*
X122800000Y-88600000D01*
X113000000Y-94600000D02*
X113200000Y-94800000D01*
X127000000Y-91000000D02*
X128400000Y-91000000D01*
M02*
