G04 #@! TF.GenerationSoftware,KiCad,Pcbnew,8.0.4*
G04 #@! TF.CreationDate,2024-08-28T18:09:24+02:00*
G04 #@! TF.ProjectId,Probe,50726f62-652e-46b6-9963-61645f706362,v1*
G04 #@! TF.SameCoordinates,Original*
G04 #@! TF.FileFunction,Copper,L3,Inr*
G04 #@! TF.FilePolarity,Positive*
%FSLAX46Y46*%
G04 Gerber Fmt 4.6, Leading zero omitted, Abs format (unit mm)*
G04 Created by KiCad (PCBNEW 8.0.4) date 2024-08-28 18:09:24*
%MOMM*%
%LPD*%
G01*
G04 APERTURE LIST*
G04 #@! TA.AperFunction,ComponentPad*
%ADD10R,2.000000X2.000000*%
G04 #@! TD*
G04 #@! TA.AperFunction,ComponentPad*
%ADD11R,1.700000X1.700000*%
G04 #@! TD*
G04 #@! TA.AperFunction,ComponentPad*
%ADD12O,1.700000X1.700000*%
G04 #@! TD*
G04 #@! TA.AperFunction,ViaPad*
%ADD13C,0.800000*%
G04 #@! TD*
G04 #@! TA.AperFunction,ViaPad*
%ADD14C,0.450000*%
G04 #@! TD*
G04 APERTURE END LIST*
D10*
X144750000Y-69000000D03*
D11*
X138750000Y-93750000D03*
D10*
X147750000Y-59250000D03*
D11*
X146250000Y-93750000D03*
D10*
X141750000Y-64135000D03*
X141750000Y-69000000D03*
D11*
X135000000Y-93750000D03*
X140500000Y-52750000D03*
D12*
X137960000Y-52750000D03*
X135420000Y-52750000D03*
X132880000Y-52750000D03*
D10*
X147750000Y-64135000D03*
X147750000Y-69000000D03*
X138750000Y-69000000D03*
D11*
X128550000Y-52725000D03*
D12*
X126010000Y-52725000D03*
X123470000Y-52725000D03*
X120930000Y-52725000D03*
D10*
X135750000Y-69000000D03*
X144750000Y-64135000D03*
X138750000Y-64135000D03*
D11*
X142500000Y-93750000D03*
D10*
X135750000Y-64135000D03*
D13*
X140750000Y-76000000D03*
X121400000Y-71000000D03*
D14*
X131800000Y-68400000D03*
D13*
X110547702Y-74747702D03*
X108250000Y-66750000D03*
X134250000Y-83000000D03*
X121500000Y-60500000D03*
X126500000Y-55500000D03*
X121200000Y-83200000D03*
X138000000Y-60500000D03*
X113000000Y-57750000D03*
X127000000Y-80750000D03*
X115000000Y-95875000D03*
X133500000Y-66750000D03*
X123000000Y-81000000D03*
X103200000Y-93840000D03*
X143800000Y-90400000D03*
X143800000Y-83200000D03*
X148500000Y-75000000D03*
D14*
X133400000Y-71000000D03*
D13*
X111500000Y-80000000D03*
X113400000Y-90100000D03*
X140000000Y-84250000D03*
X117250000Y-78250000D03*
X104500000Y-60500000D03*
X106000000Y-60750000D03*
D14*
X124500000Y-69500000D03*
X119500000Y-73250000D03*
D13*
X144500000Y-76250000D03*
X113000000Y-54250000D03*
X113200000Y-66200000D03*
X103500000Y-72250000D03*
X109000000Y-90475000D03*
X129500000Y-65750000D03*
X145800000Y-87650000D03*
X118500000Y-64500000D03*
X105800000Y-98440000D03*
X123200000Y-82800000D03*
X121750000Y-78250000D03*
X107026867Y-80950115D03*
X128250000Y-76500000D03*
X134500000Y-85500000D03*
X131250000Y-59500000D03*
X126500000Y-59500000D03*
X110500000Y-61500000D03*
X140500000Y-60500000D03*
D14*
X107800000Y-72800000D03*
X118750000Y-73750000D03*
X131500000Y-74750000D03*
D13*
X109500000Y-64000000D03*
D14*
X133250000Y-73000000D03*
X129750000Y-60000000D03*
X127000000Y-63500000D03*
X123000000Y-74500000D03*
X110875000Y-78750000D03*
X120000000Y-70250000D03*
X105500000Y-70500000D03*
X112750000Y-76675000D03*
X123853554Y-74353554D03*
X110875000Y-77750000D03*
X125750000Y-71500000D03*
X130250000Y-72500000D03*
X126325000Y-70075000D03*
X142500000Y-74750000D03*
X120099759Y-66024645D03*
X132532107Y-76867893D03*
X101750000Y-62750000D03*
X118750000Y-70750000D03*
X111281587Y-68468413D03*
X128500000Y-62500000D03*
X110250000Y-56000000D03*
X122000000Y-66750000D03*
X129250000Y-60750000D03*
X128500000Y-63500000D03*
X122500000Y-66000000D03*
X112000000Y-57250000D03*
X119500000Y-71250000D03*
X111250000Y-67500000D03*
D13*
X102000000Y-68000000D03*
D14*
X124746288Y-74017927D03*
D13*
X107026867Y-82400000D03*
D14*
X131400000Y-70400000D03*
X123000000Y-73000000D03*
X112000000Y-79250000D03*
X127600000Y-70600000D03*
X118750000Y-71750000D03*
X106000000Y-69750000D03*
X130500000Y-61100000D03*
X130500000Y-70750000D03*
X127250000Y-69750000D03*
D13*
X149162500Y-81412500D03*
X117750000Y-77250000D03*
X107000000Y-73500000D03*
X102750000Y-68750000D03*
D14*
X112250000Y-76000000D03*
X124853554Y-71853554D03*
X122750000Y-67750000D03*
X102250000Y-62000000D03*
X133750000Y-76750000D03*
X142500000Y-77000000D03*
X132750000Y-78250000D03*
X119750000Y-66750000D03*
X115500000Y-78775478D03*
X121275967Y-77334419D03*
D13*
X115500000Y-86375000D03*
X109500000Y-77350000D03*
X128728179Y-85746803D03*
D14*
X122000000Y-85600000D03*
D13*
X114500000Y-87400000D03*
D14*
X114500000Y-79837500D03*
X121500000Y-74975000D03*
D13*
X109800000Y-75800000D03*
X129050000Y-84800000D03*
D14*
X121800000Y-84800000D03*
D13*
X106500000Y-61750000D03*
X133000000Y-55250000D03*
X128550000Y-56000000D03*
X126600000Y-74600000D03*
X121500000Y-80000000D03*
X125600000Y-74200000D03*
X118000000Y-79250000D03*
D14*
X119200000Y-69200000D03*
X111800000Y-73100000D03*
X116000000Y-69200000D03*
X112200000Y-89925000D03*
X108000000Y-73600000D03*
X113600000Y-96075000D03*
X114200000Y-95475000D03*
X110000000Y-73200000D03*
X111000000Y-73100000D03*
X111800000Y-92875000D03*
D13*
X122600000Y-97000000D03*
X122600000Y-90800000D03*
X115000000Y-92875000D03*
X127000000Y-91000000D03*
X122800000Y-89600000D03*
X113000000Y-92875000D03*
X126800000Y-96800000D03*
X113200000Y-94800000D03*
G04 #@! TA.AperFunction,Conductor*
G36*
X147003471Y-50400695D02*
G01*
X147041470Y-50402828D01*
X147284106Y-50416454D01*
X147297909Y-50418010D01*
X147571584Y-50464509D01*
X147585123Y-50467599D01*
X147851874Y-50544449D01*
X147864993Y-50549040D01*
X148121445Y-50655265D01*
X148133967Y-50661294D01*
X148320623Y-50764456D01*
X148376921Y-50795571D01*
X148388695Y-50802969D01*
X148615081Y-50963598D01*
X148625953Y-50972268D01*
X148832931Y-51157235D01*
X148842764Y-51167068D01*
X149027731Y-51374046D01*
X149036401Y-51384918D01*
X149197030Y-51611304D01*
X149204428Y-51623078D01*
X149338701Y-51866025D01*
X149344734Y-51878554D01*
X149450959Y-52135006D01*
X149455552Y-52148130D01*
X149532397Y-52414865D01*
X149535491Y-52428422D01*
X149581988Y-52702082D01*
X149583545Y-52715900D01*
X149599305Y-52996527D01*
X149599500Y-53003480D01*
X149599500Y-80431761D01*
X149579815Y-80498800D01*
X149527011Y-80544555D01*
X149457853Y-80554499D01*
X149448729Y-80552377D01*
X149448660Y-80552707D01*
X149352246Y-80532214D01*
X149257146Y-80512000D01*
X149067854Y-80512000D01*
X149035397Y-80518898D01*
X148882697Y-80551355D01*
X148882692Y-80551357D01*
X148709770Y-80628348D01*
X148709765Y-80628351D01*
X148556629Y-80739611D01*
X148429966Y-80880285D01*
X148335321Y-81044215D01*
X148335318Y-81044222D01*
X148276827Y-81224240D01*
X148276826Y-81224244D01*
X148257040Y-81412500D01*
X148276826Y-81600756D01*
X148276827Y-81600759D01*
X148335318Y-81780777D01*
X148335321Y-81780784D01*
X148429967Y-81944716D01*
X148508308Y-82031722D01*
X148556629Y-82085388D01*
X148709765Y-82196648D01*
X148709770Y-82196651D01*
X148882692Y-82273642D01*
X148882697Y-82273644D01*
X149067854Y-82313000D01*
X149067855Y-82313000D01*
X149257144Y-82313000D01*
X149257146Y-82313000D01*
X149436018Y-82274980D01*
X149448660Y-82272293D01*
X149449231Y-82274980D01*
X149506930Y-82273287D01*
X149566791Y-82309321D01*
X149597667Y-82371998D01*
X149599500Y-82393238D01*
X149599500Y-96996519D01*
X149599305Y-97003472D01*
X149583545Y-97284099D01*
X149581988Y-97297917D01*
X149535491Y-97571577D01*
X149532397Y-97585134D01*
X149455552Y-97851869D01*
X149450959Y-97864993D01*
X149344734Y-98121445D01*
X149338701Y-98133974D01*
X149204428Y-98376921D01*
X149197030Y-98388695D01*
X149036401Y-98615081D01*
X149027731Y-98625953D01*
X148842764Y-98832931D01*
X148832931Y-98842764D01*
X148625953Y-99027731D01*
X148615081Y-99036401D01*
X148388695Y-99197030D01*
X148376921Y-99204428D01*
X148133974Y-99338701D01*
X148121445Y-99344734D01*
X147864993Y-99450959D01*
X147851869Y-99455552D01*
X147585134Y-99532397D01*
X147571577Y-99535491D01*
X147297917Y-99581988D01*
X147284099Y-99583545D01*
X147003472Y-99599305D01*
X146996519Y-99599500D01*
X132231941Y-99599500D01*
X132164902Y-99579815D01*
X132119147Y-99527011D01*
X132109203Y-99457853D01*
X132138228Y-99394297D01*
X132144260Y-99387819D01*
X132221786Y-99310292D01*
X132221789Y-99310289D01*
X132309394Y-99179179D01*
X132369737Y-99033497D01*
X132400500Y-98878842D01*
X132400500Y-98800000D01*
X132400500Y-98742417D01*
X132400500Y-92852135D01*
X133649500Y-92852135D01*
X133649500Y-94647870D01*
X133649501Y-94647876D01*
X133655908Y-94707483D01*
X133706202Y-94842328D01*
X133706206Y-94842335D01*
X133792452Y-94957544D01*
X133792455Y-94957547D01*
X133907664Y-95043793D01*
X133907671Y-95043797D01*
X134042517Y-95094091D01*
X134042516Y-95094091D01*
X134049444Y-95094835D01*
X134102127Y-95100500D01*
X135897872Y-95100499D01*
X135957483Y-95094091D01*
X136092331Y-95043796D01*
X136207546Y-94957546D01*
X136293796Y-94842331D01*
X136344091Y-94707483D01*
X136350500Y-94647873D01*
X136350499Y-92852135D01*
X137399500Y-92852135D01*
X137399500Y-94647870D01*
X137399501Y-94647876D01*
X137405908Y-94707483D01*
X137456202Y-94842328D01*
X137456206Y-94842335D01*
X137542452Y-94957544D01*
X137542455Y-94957547D01*
X137657664Y-95043793D01*
X137657671Y-95043797D01*
X137792517Y-95094091D01*
X137792516Y-95094091D01*
X137799444Y-95094835D01*
X137852127Y-95100500D01*
X139647872Y-95100499D01*
X139707483Y-95094091D01*
X139842331Y-95043796D01*
X139957546Y-94957546D01*
X140043796Y-94842331D01*
X140094091Y-94707483D01*
X140100500Y-94647873D01*
X140100499Y-92852135D01*
X141149500Y-92852135D01*
X141149500Y-94647870D01*
X141149501Y-94647876D01*
X141155908Y-94707483D01*
X141206202Y-94842328D01*
X141206206Y-94842335D01*
X141292452Y-94957544D01*
X141292455Y-94957547D01*
X141407664Y-95043793D01*
X141407671Y-95043797D01*
X141542517Y-95094091D01*
X141542516Y-95094091D01*
X141549444Y-95094835D01*
X141602127Y-95100500D01*
X143397872Y-95100499D01*
X143457483Y-95094091D01*
X143592331Y-95043796D01*
X143707546Y-94957546D01*
X143793796Y-94842331D01*
X143844091Y-94707483D01*
X143850500Y-94647873D01*
X143850499Y-92852135D01*
X144899500Y-92852135D01*
X144899500Y-94647870D01*
X144899501Y-94647876D01*
X144905908Y-94707483D01*
X144956202Y-94842328D01*
X144956206Y-94842335D01*
X145042452Y-94957544D01*
X145042455Y-94957547D01*
X145157664Y-95043793D01*
X145157671Y-95043797D01*
X145292517Y-95094091D01*
X145292516Y-95094091D01*
X145299444Y-95094835D01*
X145352127Y-95100500D01*
X147147872Y-95100499D01*
X147207483Y-95094091D01*
X147342331Y-95043796D01*
X147457546Y-94957546D01*
X147543796Y-94842331D01*
X147594091Y-94707483D01*
X147600500Y-94647873D01*
X147600499Y-92852128D01*
X147594091Y-92792517D01*
X147572013Y-92733324D01*
X147543797Y-92657671D01*
X147543793Y-92657664D01*
X147457547Y-92542455D01*
X147457544Y-92542452D01*
X147342335Y-92456206D01*
X147342328Y-92456202D01*
X147207482Y-92405908D01*
X147207483Y-92405908D01*
X147147883Y-92399501D01*
X147147881Y-92399500D01*
X147147873Y-92399500D01*
X147147864Y-92399500D01*
X145352129Y-92399500D01*
X145352123Y-92399501D01*
X145292516Y-92405908D01*
X145157671Y-92456202D01*
X145157664Y-92456206D01*
X145042455Y-92542452D01*
X145042452Y-92542455D01*
X144956206Y-92657664D01*
X144956202Y-92657671D01*
X144905908Y-92792517D01*
X144899501Y-92852116D01*
X144899501Y-92852123D01*
X144899500Y-92852135D01*
X143850499Y-92852135D01*
X143850499Y-92852128D01*
X143844091Y-92792517D01*
X143822013Y-92733324D01*
X143793797Y-92657671D01*
X143793793Y-92657664D01*
X143707547Y-92542455D01*
X143707544Y-92542452D01*
X143592335Y-92456206D01*
X143592328Y-92456202D01*
X143457482Y-92405908D01*
X143457483Y-92405908D01*
X143397883Y-92399501D01*
X143397881Y-92399500D01*
X143397873Y-92399500D01*
X143397864Y-92399500D01*
X141602129Y-92399500D01*
X141602123Y-92399501D01*
X141542516Y-92405908D01*
X141407671Y-92456202D01*
X141407664Y-92456206D01*
X141292455Y-92542452D01*
X141292452Y-92542455D01*
X141206206Y-92657664D01*
X141206202Y-92657671D01*
X141155908Y-92792517D01*
X141149501Y-92852116D01*
X141149501Y-92852123D01*
X141149500Y-92852135D01*
X140100499Y-92852135D01*
X140100499Y-92852128D01*
X140094091Y-92792517D01*
X140072013Y-92733324D01*
X140043797Y-92657671D01*
X140043793Y-92657664D01*
X139957547Y-92542455D01*
X139957544Y-92542452D01*
X139842335Y-92456206D01*
X139842328Y-92456202D01*
X139707482Y-92405908D01*
X139707483Y-92405908D01*
X139647883Y-92399501D01*
X139647881Y-92399500D01*
X139647873Y-92399500D01*
X139647864Y-92399500D01*
X137852129Y-92399500D01*
X137852123Y-92399501D01*
X137792516Y-92405908D01*
X137657671Y-92456202D01*
X137657664Y-92456206D01*
X137542455Y-92542452D01*
X137542452Y-92542455D01*
X137456206Y-92657664D01*
X137456202Y-92657671D01*
X137405908Y-92792517D01*
X137399501Y-92852116D01*
X137399501Y-92852123D01*
X137399500Y-92852135D01*
X136350499Y-92852135D01*
X136350499Y-92852128D01*
X136344091Y-92792517D01*
X136322013Y-92733324D01*
X136293797Y-92657671D01*
X136293793Y-92657664D01*
X136207547Y-92542455D01*
X136207544Y-92542452D01*
X136092335Y-92456206D01*
X136092328Y-92456202D01*
X135957482Y-92405908D01*
X135957483Y-92405908D01*
X135897883Y-92399501D01*
X135897881Y-92399500D01*
X135897873Y-92399500D01*
X135897864Y-92399500D01*
X134102129Y-92399500D01*
X134102123Y-92399501D01*
X134042516Y-92405908D01*
X133907671Y-92456202D01*
X133907664Y-92456206D01*
X133792455Y-92542452D01*
X133792452Y-92542455D01*
X133706206Y-92657664D01*
X133706202Y-92657671D01*
X133655908Y-92792517D01*
X133649501Y-92852116D01*
X133649501Y-92852123D01*
X133649500Y-92852135D01*
X132400500Y-92852135D01*
X132400500Y-89147273D01*
X132400500Y-89121158D01*
X132400500Y-89121155D01*
X132400499Y-89121153D01*
X132369738Y-88966510D01*
X132369737Y-88966503D01*
X132353421Y-88927112D01*
X132309397Y-88820827D01*
X132309390Y-88820814D01*
X132221789Y-88689711D01*
X132221786Y-88689707D01*
X132110292Y-88578213D01*
X132110288Y-88578210D01*
X131979185Y-88490609D01*
X131979172Y-88490602D01*
X131833501Y-88430264D01*
X131833489Y-88430261D01*
X131678845Y-88399500D01*
X131678842Y-88399500D01*
X131652727Y-88399500D01*
X130257583Y-88399500D01*
X130200000Y-88399500D01*
X130121158Y-88399500D01*
X130121155Y-88399500D01*
X129966510Y-88430261D01*
X129966498Y-88430264D01*
X129820827Y-88490602D01*
X129820814Y-88490609D01*
X129689711Y-88578210D01*
X129689707Y-88578213D01*
X129578213Y-88689707D01*
X129578210Y-88689711D01*
X129490609Y-88820814D01*
X129490602Y-88820827D01*
X129430264Y-88966498D01*
X129430261Y-88966510D01*
X129399500Y-89121153D01*
X129399500Y-98878846D01*
X129430261Y-99033489D01*
X129430264Y-99033501D01*
X129490602Y-99179172D01*
X129490609Y-99179185D01*
X129578210Y-99310288D01*
X129578213Y-99310292D01*
X129655740Y-99387819D01*
X129689225Y-99449142D01*
X129684241Y-99518834D01*
X129642369Y-99574767D01*
X129576905Y-99599184D01*
X129568059Y-99599500D01*
X119931941Y-99599500D01*
X119864902Y-99579815D01*
X119819147Y-99527011D01*
X119809203Y-99457853D01*
X119838228Y-99394297D01*
X119844260Y-99387819D01*
X119921786Y-99310292D01*
X119921789Y-99310289D01*
X120009394Y-99179179D01*
X120069737Y-99033497D01*
X120100500Y-98878842D01*
X120100500Y-98800000D01*
X120100500Y-98742417D01*
X120100500Y-97000000D01*
X121694540Y-97000000D01*
X121714326Y-97188256D01*
X121714327Y-97188259D01*
X121772818Y-97368277D01*
X121772821Y-97368284D01*
X121867467Y-97532216D01*
X121909463Y-97578857D01*
X121994129Y-97672888D01*
X122147265Y-97784148D01*
X122147270Y-97784151D01*
X122320192Y-97861142D01*
X122320197Y-97861144D01*
X122505354Y-97900500D01*
X122505355Y-97900500D01*
X122694644Y-97900500D01*
X122694646Y-97900500D01*
X122879803Y-97861144D01*
X123052730Y-97784151D01*
X123205871Y-97672888D01*
X123332533Y-97532216D01*
X123427179Y-97368284D01*
X123485674Y-97188256D01*
X123505460Y-97000000D01*
X123485674Y-96811744D01*
X123481858Y-96800000D01*
X125894540Y-96800000D01*
X125914326Y-96988256D01*
X125914327Y-96988259D01*
X125972818Y-97168277D01*
X125972821Y-97168284D01*
X126067467Y-97332216D01*
X126099937Y-97368277D01*
X126194129Y-97472888D01*
X126347265Y-97584148D01*
X126347270Y-97584151D01*
X126520192Y-97661142D01*
X126520197Y-97661144D01*
X126705354Y-97700500D01*
X126705355Y-97700500D01*
X126894644Y-97700500D01*
X126894646Y-97700500D01*
X127079803Y-97661144D01*
X127252730Y-97584151D01*
X127405871Y-97472888D01*
X127532533Y-97332216D01*
X127627179Y-97168284D01*
X127685674Y-96988256D01*
X127705460Y-96800000D01*
X127685674Y-96611744D01*
X127627179Y-96431716D01*
X127532533Y-96267784D01*
X127405871Y-96127112D01*
X127405870Y-96127111D01*
X127252734Y-96015851D01*
X127252729Y-96015848D01*
X127079807Y-95938857D01*
X127079802Y-95938855D01*
X126934001Y-95907865D01*
X126894646Y-95899500D01*
X126705354Y-95899500D01*
X126672897Y-95906398D01*
X126520197Y-95938855D01*
X126520192Y-95938857D01*
X126347270Y-96015848D01*
X126347265Y-96015851D01*
X126194129Y-96127111D01*
X126067466Y-96267785D01*
X125972821Y-96431715D01*
X125972818Y-96431722D01*
X125914327Y-96611740D01*
X125914326Y-96611744D01*
X125894540Y-96800000D01*
X123481858Y-96800000D01*
X123427179Y-96631716D01*
X123332533Y-96467784D01*
X123205871Y-96327112D01*
X123205870Y-96327111D01*
X123052734Y-96215851D01*
X123052729Y-96215848D01*
X122879807Y-96138857D01*
X122879802Y-96138855D01*
X122734001Y-96107865D01*
X122694646Y-96099500D01*
X122505354Y-96099500D01*
X122472897Y-96106398D01*
X122320197Y-96138855D01*
X122320192Y-96138857D01*
X122147270Y-96215848D01*
X122147265Y-96215851D01*
X121994129Y-96327111D01*
X121867466Y-96467785D01*
X121772821Y-96631715D01*
X121772818Y-96631722D01*
X121714327Y-96811740D01*
X121714326Y-96811744D01*
X121694540Y-97000000D01*
X120100500Y-97000000D01*
X120100500Y-90800000D01*
X121694540Y-90800000D01*
X121714326Y-90988256D01*
X121714327Y-90988259D01*
X121772818Y-91168277D01*
X121772821Y-91168284D01*
X121867467Y-91332216D01*
X121994129Y-91472888D01*
X122147265Y-91584148D01*
X122147270Y-91584151D01*
X122320192Y-91661142D01*
X122320197Y-91661144D01*
X122505354Y-91700500D01*
X122505355Y-91700500D01*
X122694644Y-91700500D01*
X122694646Y-91700500D01*
X122879803Y-91661144D01*
X123052730Y-91584151D01*
X123205871Y-91472888D01*
X123332533Y-91332216D01*
X123427179Y-91168284D01*
X123481858Y-91000000D01*
X126094540Y-91000000D01*
X126114326Y-91188256D01*
X126114327Y-91188259D01*
X126172818Y-91368277D01*
X126172821Y-91368284D01*
X126267467Y-91532216D01*
X126314227Y-91584148D01*
X126394129Y-91672888D01*
X126547265Y-91784148D01*
X126547270Y-91784151D01*
X126720192Y-91861142D01*
X126720197Y-91861144D01*
X126905354Y-91900500D01*
X126905355Y-91900500D01*
X127094644Y-91900500D01*
X127094646Y-91900500D01*
X127279803Y-91861144D01*
X127452730Y-91784151D01*
X127605871Y-91672888D01*
X127732533Y-91532216D01*
X127827179Y-91368284D01*
X127885674Y-91188256D01*
X127905460Y-91000000D01*
X127885674Y-90811744D01*
X127827179Y-90631716D01*
X127732533Y-90467784D01*
X127605871Y-90327112D01*
X127580828Y-90308917D01*
X127452734Y-90215851D01*
X127452729Y-90215848D01*
X127279807Y-90138857D01*
X127279802Y-90138855D01*
X127128590Y-90106715D01*
X127094646Y-90099500D01*
X126905354Y-90099500D01*
X126872897Y-90106398D01*
X126720197Y-90138855D01*
X126720192Y-90138857D01*
X126547270Y-90215848D01*
X126547265Y-90215851D01*
X126394129Y-90327111D01*
X126267466Y-90467785D01*
X126172821Y-90631715D01*
X126172818Y-90631722D01*
X126118142Y-90800000D01*
X126114326Y-90811744D01*
X126094540Y-91000000D01*
X123481858Y-91000000D01*
X123485674Y-90988256D01*
X123505460Y-90800000D01*
X123485674Y-90611744D01*
X123427179Y-90431716D01*
X123408025Y-90398541D01*
X123391553Y-90330643D01*
X123414405Y-90264616D01*
X123423255Y-90253580D01*
X123532533Y-90132216D01*
X123627179Y-89968284D01*
X123685674Y-89788256D01*
X123705460Y-89600000D01*
X123685674Y-89411744D01*
X123627179Y-89231716D01*
X123532533Y-89067784D01*
X123405871Y-88927112D01*
X123405870Y-88927111D01*
X123252734Y-88815851D01*
X123252729Y-88815848D01*
X123079807Y-88738857D01*
X123079802Y-88738855D01*
X122934001Y-88707865D01*
X122894646Y-88699500D01*
X122705354Y-88699500D01*
X122672897Y-88706398D01*
X122520197Y-88738855D01*
X122520192Y-88738857D01*
X122347270Y-88815848D01*
X122347265Y-88815851D01*
X122194129Y-88927111D01*
X122067466Y-89067785D01*
X121972821Y-89231715D01*
X121972818Y-89231722D01*
X121914327Y-89411740D01*
X121914326Y-89411744D01*
X121894540Y-89600000D01*
X121914326Y-89788256D01*
X121914327Y-89788259D01*
X121972821Y-89968285D01*
X121991972Y-90001456D01*
X122008445Y-90069357D01*
X121985592Y-90135383D01*
X121976735Y-90146428D01*
X121867466Y-90267784D01*
X121772821Y-90431715D01*
X121772818Y-90431722D01*
X121723734Y-90582789D01*
X121714326Y-90611744D01*
X121694540Y-90800000D01*
X120100500Y-90800000D01*
X120100500Y-89147273D01*
X120100500Y-89121158D01*
X120100500Y-89121155D01*
X120100499Y-89121153D01*
X120069738Y-88966510D01*
X120069737Y-88966503D01*
X120053421Y-88927112D01*
X120009397Y-88820827D01*
X120009390Y-88820814D01*
X119921789Y-88689711D01*
X119921786Y-88689707D01*
X119810292Y-88578213D01*
X119810288Y-88578210D01*
X119679185Y-88490609D01*
X119679172Y-88490602D01*
X119533501Y-88430264D01*
X119533489Y-88430261D01*
X119378845Y-88399500D01*
X119378842Y-88399500D01*
X119352727Y-88399500D01*
X117957583Y-88399500D01*
X117900000Y-88399500D01*
X117821158Y-88399500D01*
X117821155Y-88399500D01*
X117666510Y-88430261D01*
X117666498Y-88430264D01*
X117520827Y-88490602D01*
X117520814Y-88490609D01*
X117389711Y-88578210D01*
X117389707Y-88578213D01*
X117278213Y-88689707D01*
X117278210Y-88689711D01*
X117190609Y-88820814D01*
X117190602Y-88820827D01*
X117130264Y-88966498D01*
X117130261Y-88966510D01*
X117099500Y-89121153D01*
X117099500Y-98878846D01*
X117130261Y-99033489D01*
X117130264Y-99033501D01*
X117190602Y-99179172D01*
X117190609Y-99179185D01*
X117278210Y-99310288D01*
X117278213Y-99310292D01*
X117355740Y-99387819D01*
X117389225Y-99449142D01*
X117384241Y-99518834D01*
X117342369Y-99574767D01*
X117276905Y-99599184D01*
X117268059Y-99599500D01*
X103003481Y-99599500D01*
X102996528Y-99599305D01*
X102715900Y-99583545D01*
X102702082Y-99581988D01*
X102428422Y-99535491D01*
X102414865Y-99532397D01*
X102148130Y-99455552D01*
X102135006Y-99450959D01*
X101878554Y-99344734D01*
X101866025Y-99338701D01*
X101623078Y-99204428D01*
X101611304Y-99197030D01*
X101384918Y-99036401D01*
X101374046Y-99027731D01*
X101167068Y-98842764D01*
X101157235Y-98832931D01*
X100972268Y-98625953D01*
X100963598Y-98615081D01*
X100839372Y-98440000D01*
X104894540Y-98440000D01*
X104914326Y-98628256D01*
X104914327Y-98628259D01*
X104972818Y-98808277D01*
X104972821Y-98808284D01*
X105067467Y-98972216D01*
X105125260Y-99036401D01*
X105194129Y-99112888D01*
X105347265Y-99224148D01*
X105347270Y-99224151D01*
X105520192Y-99301142D01*
X105520197Y-99301144D01*
X105705354Y-99340500D01*
X105705355Y-99340500D01*
X105894644Y-99340500D01*
X105894646Y-99340500D01*
X106079803Y-99301144D01*
X106252730Y-99224151D01*
X106405871Y-99112888D01*
X106532533Y-98972216D01*
X106627179Y-98808284D01*
X106685674Y-98628256D01*
X106705460Y-98440000D01*
X106685674Y-98251744D01*
X106627179Y-98071716D01*
X106532533Y-97907784D01*
X106405871Y-97767112D01*
X106405870Y-97767111D01*
X106252734Y-97655851D01*
X106252729Y-97655848D01*
X106079807Y-97578857D01*
X106079802Y-97578855D01*
X105934001Y-97547865D01*
X105894646Y-97539500D01*
X105705354Y-97539500D01*
X105672897Y-97546398D01*
X105520197Y-97578855D01*
X105520192Y-97578857D01*
X105347270Y-97655848D01*
X105347265Y-97655851D01*
X105194129Y-97767111D01*
X105067466Y-97907785D01*
X104972821Y-98071715D01*
X104972818Y-98071722D01*
X104914327Y-98251740D01*
X104914326Y-98251744D01*
X104894540Y-98440000D01*
X100839372Y-98440000D01*
X100802969Y-98388695D01*
X100795571Y-98376921D01*
X100726388Y-98251744D01*
X100661294Y-98133967D01*
X100655265Y-98121445D01*
X100549040Y-97864993D01*
X100544447Y-97851869D01*
X100520029Y-97767111D01*
X100467599Y-97585123D01*
X100464508Y-97571577D01*
X100457900Y-97532685D01*
X100418010Y-97297909D01*
X100416454Y-97284106D01*
X100400695Y-97003471D01*
X100400500Y-96996519D01*
X100400500Y-92874996D01*
X111069909Y-92874996D01*
X111069909Y-92875003D01*
X111088212Y-93037455D01*
X111142210Y-93191774D01*
X111142211Y-93191775D01*
X111229192Y-93330204D01*
X111344796Y-93445808D01*
X111483225Y-93532789D01*
X111637539Y-93586786D01*
X111637542Y-93586786D01*
X111637544Y-93586787D01*
X111799996Y-93605091D01*
X111800000Y-93605091D01*
X111800004Y-93605091D01*
X111962455Y-93586787D01*
X111962456Y-93586786D01*
X111962461Y-93586786D01*
X112116775Y-93532789D01*
X112196905Y-93482439D01*
X112264140Y-93463439D01*
X112330976Y-93483806D01*
X112355027Y-93504461D01*
X112394129Y-93547888D01*
X112394135Y-93547893D01*
X112547265Y-93659148D01*
X112547270Y-93659151D01*
X112720192Y-93736142D01*
X112720193Y-93736142D01*
X112720197Y-93736144D01*
X112790453Y-93751077D01*
X112851932Y-93784267D01*
X112885709Y-93845430D01*
X112881057Y-93915144D01*
X112839454Y-93971277D01*
X112815107Y-93985645D01*
X112747267Y-94015850D01*
X112747265Y-94015851D01*
X112594129Y-94127111D01*
X112467466Y-94267785D01*
X112372821Y-94431715D01*
X112372818Y-94431722D01*
X112314327Y-94611740D01*
X112314326Y-94611744D01*
X112294540Y-94800000D01*
X112314326Y-94988256D01*
X112314327Y-94988259D01*
X112372818Y-95168277D01*
X112372821Y-95168284D01*
X112467467Y-95332216D01*
X112594129Y-95472888D01*
X112747265Y-95584148D01*
X112747266Y-95584148D01*
X112747270Y-95584151D01*
X112864312Y-95636262D01*
X112917549Y-95681512D01*
X112937870Y-95748361D01*
X112930918Y-95790494D01*
X112888212Y-95912543D01*
X112869909Y-96074996D01*
X112869909Y-96075003D01*
X112888212Y-96237455D01*
X112942210Y-96391774D01*
X112967311Y-96431722D01*
X113029192Y-96530204D01*
X113144796Y-96645808D01*
X113283225Y-96732789D01*
X113437539Y-96786786D01*
X113437542Y-96786786D01*
X113437544Y-96786787D01*
X113599996Y-96805091D01*
X113600000Y-96805091D01*
X113600004Y-96805091D01*
X113762455Y-96786787D01*
X113762456Y-96786786D01*
X113762461Y-96786786D01*
X113916775Y-96732789D01*
X114055204Y-96645808D01*
X114170808Y-96530204D01*
X114257789Y-96391775D01*
X114305199Y-96256283D01*
X114345920Y-96199510D01*
X114381281Y-96180200D01*
X114516775Y-96132789D01*
X114655204Y-96045808D01*
X114770808Y-95930204D01*
X114857789Y-95791775D01*
X114911786Y-95637461D01*
X114930091Y-95475000D01*
X114914003Y-95332216D01*
X114911787Y-95312544D01*
X114911786Y-95312542D01*
X114911786Y-95312539D01*
X114857789Y-95158225D01*
X114770808Y-95019796D01*
X114655204Y-94904192D01*
X114516774Y-94817210D01*
X114362455Y-94763212D01*
X114197488Y-94744625D01*
X114133074Y-94717558D01*
X114093519Y-94659963D01*
X114088052Y-94634373D01*
X114085674Y-94611744D01*
X114027179Y-94431716D01*
X113932533Y-94267784D01*
X113805871Y-94127112D01*
X113805870Y-94127111D01*
X113652734Y-94015851D01*
X113652729Y-94015848D01*
X113479807Y-93938857D01*
X113479800Y-93938855D01*
X113409549Y-93923923D01*
X113348067Y-93890731D01*
X113314290Y-93829568D01*
X113318942Y-93759854D01*
X113360546Y-93703721D01*
X113384883Y-93689358D01*
X113452730Y-93659151D01*
X113605871Y-93547888D01*
X113732533Y-93407216D01*
X113827179Y-93243284D01*
X113882069Y-93074351D01*
X113921506Y-93016675D01*
X113985865Y-92989477D01*
X114054711Y-93001392D01*
X114106187Y-93048636D01*
X114117931Y-93074351D01*
X114172818Y-93243277D01*
X114172821Y-93243284D01*
X114267467Y-93407216D01*
X114355027Y-93504461D01*
X114394129Y-93547888D01*
X114547265Y-93659148D01*
X114547270Y-93659151D01*
X114720192Y-93736142D01*
X114720197Y-93736144D01*
X114905354Y-93775500D01*
X114905355Y-93775500D01*
X115094644Y-93775500D01*
X115094646Y-93775500D01*
X115279803Y-93736144D01*
X115452730Y-93659151D01*
X115605871Y-93547888D01*
X115732533Y-93407216D01*
X115827179Y-93243284D01*
X115885674Y-93063256D01*
X115905460Y-92875000D01*
X115885674Y-92686744D01*
X115827179Y-92506716D01*
X115732533Y-92342784D01*
X115605871Y-92202112D01*
X115605863Y-92202106D01*
X115452734Y-92090851D01*
X115452729Y-92090848D01*
X115279807Y-92013857D01*
X115279802Y-92013855D01*
X115134001Y-91982865D01*
X115094646Y-91974500D01*
X114905354Y-91974500D01*
X114872897Y-91981398D01*
X114720197Y-92013855D01*
X114720192Y-92013857D01*
X114547270Y-92090848D01*
X114547265Y-92090851D01*
X114394129Y-92202111D01*
X114267466Y-92342785D01*
X114172821Y-92506715D01*
X114172818Y-92506722D01*
X114117931Y-92675648D01*
X114078493Y-92733324D01*
X114014135Y-92760522D01*
X113945288Y-92748607D01*
X113893813Y-92701363D01*
X113882069Y-92675648D01*
X113827181Y-92506722D01*
X113827180Y-92506721D01*
X113827179Y-92506716D01*
X113732533Y-92342784D01*
X113605871Y-92202112D01*
X113605863Y-92202106D01*
X113452734Y-92090851D01*
X113452729Y-92090848D01*
X113279807Y-92013857D01*
X113279802Y-92013855D01*
X113134001Y-91982865D01*
X113094646Y-91974500D01*
X112905354Y-91974500D01*
X112872897Y-91981398D01*
X112720197Y-92013855D01*
X112720192Y-92013857D01*
X112547270Y-92090848D01*
X112547265Y-92090851D01*
X112394135Y-92202106D01*
X112394128Y-92202112D01*
X112355026Y-92245539D01*
X112295539Y-92282187D01*
X112225682Y-92280856D01*
X112196905Y-92267560D01*
X112116774Y-92217210D01*
X111962455Y-92163212D01*
X111800004Y-92144909D01*
X111799996Y-92144909D01*
X111637544Y-92163212D01*
X111483225Y-92217210D01*
X111344795Y-92304192D01*
X111229192Y-92419795D01*
X111142210Y-92558225D01*
X111088212Y-92712544D01*
X111069909Y-92874996D01*
X100400500Y-92874996D01*
X100400500Y-90475000D01*
X108094540Y-90475000D01*
X108114326Y-90663256D01*
X108114327Y-90663259D01*
X108172818Y-90843277D01*
X108172821Y-90843284D01*
X108267467Y-91007216D01*
X108394129Y-91147888D01*
X108547265Y-91259148D01*
X108547270Y-91259151D01*
X108720192Y-91336142D01*
X108720197Y-91336144D01*
X108905354Y-91375500D01*
X108905355Y-91375500D01*
X109094644Y-91375500D01*
X109094646Y-91375500D01*
X109279803Y-91336144D01*
X109452730Y-91259151D01*
X109605871Y-91147888D01*
X109732533Y-91007216D01*
X109827179Y-90843284D01*
X109885674Y-90663256D01*
X109905460Y-90475000D01*
X109885674Y-90286744D01*
X109827179Y-90106716D01*
X109732533Y-89942784D01*
X109716517Y-89924996D01*
X111469909Y-89924996D01*
X111469909Y-89925003D01*
X111488212Y-90087455D01*
X111542210Y-90241774D01*
X111570464Y-90286740D01*
X111629192Y-90380204D01*
X111744796Y-90495808D01*
X111883225Y-90582789D01*
X112037539Y-90636786D01*
X112037542Y-90636786D01*
X112037544Y-90636787D01*
X112199996Y-90655091D01*
X112200000Y-90655091D01*
X112200004Y-90655091D01*
X112362455Y-90636787D01*
X112362456Y-90636786D01*
X112362461Y-90636786D01*
X112516775Y-90582789D01*
X112655204Y-90495808D01*
X112770808Y-90380204D01*
X112857789Y-90241775D01*
X112911786Y-90087461D01*
X112913826Y-90069357D01*
X112930091Y-89925003D01*
X112930091Y-89924996D01*
X112911787Y-89762544D01*
X112911786Y-89762542D01*
X112911786Y-89762539D01*
X112857789Y-89608225D01*
X112770808Y-89469796D01*
X112655204Y-89354192D01*
X112516774Y-89267210D01*
X112362455Y-89213212D01*
X112200004Y-89194909D01*
X112199996Y-89194909D01*
X112037544Y-89213212D01*
X111883225Y-89267210D01*
X111744795Y-89354192D01*
X111629192Y-89469795D01*
X111542210Y-89608225D01*
X111488212Y-89762544D01*
X111469909Y-89924996D01*
X109716517Y-89924996D01*
X109605871Y-89802112D01*
X109586800Y-89788256D01*
X109452734Y-89690851D01*
X109452729Y-89690848D01*
X109279807Y-89613857D01*
X109279802Y-89613855D01*
X109134001Y-89582865D01*
X109094646Y-89574500D01*
X108905354Y-89574500D01*
X108872897Y-89581398D01*
X108720197Y-89613855D01*
X108720192Y-89613857D01*
X108547270Y-89690848D01*
X108547265Y-89690851D01*
X108394129Y-89802111D01*
X108267466Y-89942785D01*
X108172821Y-90106715D01*
X108172818Y-90106722D01*
X108118828Y-90272888D01*
X108114326Y-90286744D01*
X108094540Y-90475000D01*
X100400500Y-90475000D01*
X100400500Y-87400000D01*
X113594540Y-87400000D01*
X113614326Y-87588256D01*
X113614327Y-87588259D01*
X113672818Y-87768277D01*
X113672821Y-87768284D01*
X113767467Y-87932216D01*
X113894129Y-88072888D01*
X114047265Y-88184148D01*
X114047270Y-88184151D01*
X114220192Y-88261142D01*
X114220197Y-88261144D01*
X114405354Y-88300500D01*
X114405355Y-88300500D01*
X114594644Y-88300500D01*
X114594646Y-88300500D01*
X114779803Y-88261144D01*
X114952730Y-88184151D01*
X115105871Y-88072888D01*
X115232533Y-87932216D01*
X115327179Y-87768284D01*
X115365612Y-87650000D01*
X144894540Y-87650000D01*
X144914326Y-87838256D01*
X144914327Y-87838259D01*
X144972818Y-88018277D01*
X144972821Y-88018284D01*
X145067467Y-88182216D01*
X145173971Y-88300500D01*
X145194129Y-88322888D01*
X145347265Y-88434148D01*
X145347270Y-88434151D01*
X145520192Y-88511142D01*
X145520197Y-88511144D01*
X145705354Y-88550500D01*
X145705355Y-88550500D01*
X145894644Y-88550500D01*
X145894646Y-88550500D01*
X146079803Y-88511144D01*
X146252730Y-88434151D01*
X146405871Y-88322888D01*
X146532533Y-88182216D01*
X146627179Y-88018284D01*
X146685674Y-87838256D01*
X146705460Y-87650000D01*
X146685674Y-87461744D01*
X146627179Y-87281716D01*
X146532533Y-87117784D01*
X146405871Y-86977112D01*
X146405870Y-86977111D01*
X146252734Y-86865851D01*
X146252729Y-86865848D01*
X146079807Y-86788857D01*
X146079802Y-86788855D01*
X145934001Y-86757865D01*
X145894646Y-86749500D01*
X145705354Y-86749500D01*
X145672897Y-86756398D01*
X145520197Y-86788855D01*
X145520192Y-86788857D01*
X145347270Y-86865848D01*
X145347265Y-86865851D01*
X145194129Y-86977111D01*
X145067466Y-87117785D01*
X144972821Y-87281715D01*
X144972818Y-87281722D01*
X144914327Y-87461740D01*
X144914326Y-87461744D01*
X144894540Y-87650000D01*
X115365612Y-87650000D01*
X115385674Y-87588256D01*
X115405460Y-87400000D01*
X115405460Y-87399997D01*
X115405460Y-87399500D01*
X115405541Y-87399222D01*
X115406139Y-87393537D01*
X115407178Y-87393646D01*
X115425145Y-87332461D01*
X115477949Y-87286706D01*
X115529460Y-87275500D01*
X115594644Y-87275500D01*
X115594646Y-87275500D01*
X115779803Y-87236144D01*
X115952730Y-87159151D01*
X116105871Y-87047888D01*
X116232533Y-86907216D01*
X116327179Y-86743284D01*
X116385674Y-86563256D01*
X116405460Y-86375000D01*
X116385674Y-86186744D01*
X116327179Y-86006716D01*
X116232533Y-85842784D01*
X116105871Y-85702112D01*
X116086800Y-85688256D01*
X115952734Y-85590851D01*
X115952729Y-85590848D01*
X115779807Y-85513857D01*
X115779802Y-85513855D01*
X115634001Y-85482865D01*
X115594646Y-85474500D01*
X115405354Y-85474500D01*
X115372897Y-85481398D01*
X115220197Y-85513855D01*
X115220192Y-85513857D01*
X115047270Y-85590848D01*
X115047265Y-85590851D01*
X114894129Y-85702111D01*
X114767466Y-85842785D01*
X114672821Y-86006715D01*
X114672818Y-86006722D01*
X114619504Y-86170807D01*
X114614326Y-86186744D01*
X114594540Y-86375000D01*
X114594540Y-86375002D01*
X114594540Y-86375500D01*
X114594458Y-86375777D01*
X114593861Y-86381463D01*
X114592821Y-86381353D01*
X114574855Y-86442539D01*
X114522051Y-86488294D01*
X114470540Y-86499500D01*
X114405354Y-86499500D01*
X114372897Y-86506398D01*
X114220197Y-86538855D01*
X114220192Y-86538857D01*
X114047270Y-86615848D01*
X114047265Y-86615851D01*
X113894129Y-86727111D01*
X113767466Y-86867785D01*
X113672821Y-87031715D01*
X113672818Y-87031722D01*
X113614327Y-87211740D01*
X113614326Y-87211744D01*
X113594540Y-87400000D01*
X100400500Y-87400000D01*
X100400500Y-84799996D01*
X121069909Y-84799996D01*
X121069909Y-84800003D01*
X121088212Y-84962455D01*
X121142210Y-85116774D01*
X121229192Y-85255204D01*
X121265084Y-85291096D01*
X121298569Y-85352419D01*
X121294445Y-85419730D01*
X121288213Y-85437539D01*
X121288213Y-85437540D01*
X121269909Y-85599996D01*
X121269909Y-85600003D01*
X121288212Y-85762455D01*
X121342210Y-85916774D01*
X121398724Y-86006715D01*
X121429192Y-86055204D01*
X121544796Y-86170808D01*
X121683225Y-86257789D01*
X121837539Y-86311786D01*
X121837542Y-86311786D01*
X121837544Y-86311787D01*
X121999996Y-86330091D01*
X122000000Y-86330091D01*
X122000004Y-86330091D01*
X122162455Y-86311787D01*
X122162456Y-86311786D01*
X122162461Y-86311786D01*
X122316775Y-86257789D01*
X122455204Y-86170808D01*
X122570808Y-86055204D01*
X122657789Y-85916775D01*
X122711786Y-85762461D01*
X122711787Y-85762455D01*
X122713551Y-85746803D01*
X127822719Y-85746803D01*
X127842505Y-85935059D01*
X127842506Y-85935062D01*
X127900997Y-86115080D01*
X127901000Y-86115087D01*
X127995646Y-86279019D01*
X128025150Y-86311786D01*
X128122308Y-86419691D01*
X128275444Y-86530951D01*
X128275449Y-86530954D01*
X128448371Y-86607945D01*
X128448376Y-86607947D01*
X128633533Y-86647303D01*
X128633534Y-86647303D01*
X128822823Y-86647303D01*
X128822825Y-86647303D01*
X129007982Y-86607947D01*
X129180909Y-86530954D01*
X129334050Y-86419691D01*
X129460712Y-86279019D01*
X129555358Y-86115087D01*
X129613853Y-85935059D01*
X129633639Y-85746803D01*
X129615864Y-85577687D01*
X129628433Y-85508961D01*
X129635276Y-85500000D01*
X133594540Y-85500000D01*
X133614326Y-85688256D01*
X133614327Y-85688259D01*
X133672818Y-85868277D01*
X133672821Y-85868284D01*
X133767467Y-86032216D01*
X133842085Y-86115087D01*
X133894129Y-86172888D01*
X134047265Y-86284148D01*
X134047270Y-86284151D01*
X134220192Y-86361142D01*
X134220197Y-86361144D01*
X134405354Y-86400500D01*
X134405355Y-86400500D01*
X134594644Y-86400500D01*
X134594646Y-86400500D01*
X134779803Y-86361144D01*
X134952730Y-86284151D01*
X135105871Y-86172888D01*
X135232533Y-86032216D01*
X135327179Y-85868284D01*
X135385674Y-85688256D01*
X135405460Y-85500000D01*
X135385674Y-85311744D01*
X135327179Y-85131716D01*
X135232533Y-84967784D01*
X135105871Y-84827112D01*
X135068559Y-84800003D01*
X134952734Y-84715851D01*
X134952729Y-84715848D01*
X134779807Y-84638857D01*
X134779802Y-84638855D01*
X134634001Y-84607865D01*
X134594646Y-84599500D01*
X134405354Y-84599500D01*
X134372897Y-84606398D01*
X134220197Y-84638855D01*
X134220192Y-84638857D01*
X134047270Y-84715848D01*
X134047265Y-84715851D01*
X133894129Y-84827111D01*
X133767466Y-84967785D01*
X133672821Y-85131715D01*
X133672818Y-85131722D01*
X133632697Y-85255204D01*
X133614326Y-85311744D01*
X133594540Y-85500000D01*
X129635276Y-85500000D01*
X129651978Y-85478128D01*
X129651522Y-85477718D01*
X129655871Y-85472888D01*
X129782533Y-85332216D01*
X129877179Y-85168284D01*
X129935674Y-84988256D01*
X129955460Y-84800000D01*
X129935674Y-84611744D01*
X129877179Y-84431716D01*
X129782533Y-84267784D01*
X129655871Y-84127112D01*
X129655870Y-84127111D01*
X129502734Y-84015851D01*
X129502729Y-84015848D01*
X129329807Y-83938857D01*
X129329802Y-83938855D01*
X129184001Y-83907865D01*
X129144646Y-83899500D01*
X128955354Y-83899500D01*
X128922897Y-83906398D01*
X128770197Y-83938855D01*
X128770192Y-83938857D01*
X128597270Y-84015848D01*
X128597265Y-84015851D01*
X128444129Y-84127111D01*
X128317466Y-84267785D01*
X128222821Y-84431715D01*
X128222818Y-84431722D01*
X128168304Y-84599500D01*
X128164326Y-84611744D01*
X128144540Y-84800000D01*
X128162174Y-84967785D01*
X128162314Y-84969112D01*
X128149744Y-85037842D01*
X128126202Y-85068676D01*
X128126657Y-85069085D01*
X127995645Y-85214588D01*
X127901000Y-85378518D01*
X127900997Y-85378525D01*
X127856997Y-85513944D01*
X127842505Y-85558547D01*
X127822719Y-85746803D01*
X122713551Y-85746803D01*
X122730091Y-85600003D01*
X122730091Y-85599996D01*
X122711787Y-85437544D01*
X122711786Y-85437540D01*
X122711786Y-85437539D01*
X122657789Y-85283225D01*
X122570808Y-85144796D01*
X122534915Y-85108903D01*
X122501430Y-85047580D01*
X122505556Y-84980264D01*
X122511786Y-84962461D01*
X122511787Y-84962453D01*
X122530091Y-84800003D01*
X122530091Y-84799996D01*
X122511787Y-84637544D01*
X122511786Y-84637542D01*
X122511786Y-84637539D01*
X122457789Y-84483225D01*
X122370808Y-84344796D01*
X122255204Y-84229192D01*
X122116774Y-84142210D01*
X121962455Y-84088212D01*
X121800004Y-84069909D01*
X121799996Y-84069909D01*
X121637544Y-84088212D01*
X121483225Y-84142210D01*
X121344795Y-84229192D01*
X121229192Y-84344795D01*
X121142210Y-84483225D01*
X121088212Y-84637544D01*
X121069909Y-84799996D01*
X100400500Y-84799996D01*
X100400500Y-80950115D01*
X106121407Y-80950115D01*
X106141193Y-81138371D01*
X106141194Y-81138374D01*
X106199685Y-81318392D01*
X106199688Y-81318399D01*
X106294334Y-81482331D01*
X106371246Y-81567750D01*
X106393157Y-81592085D01*
X106423387Y-81655076D01*
X106414762Y-81724412D01*
X106393157Y-81758029D01*
X106294333Y-81867784D01*
X106199688Y-82031715D01*
X106199685Y-82031722D01*
X106141194Y-82211740D01*
X106141193Y-82211744D01*
X106121407Y-82400000D01*
X106141193Y-82588256D01*
X106141194Y-82588259D01*
X106199685Y-82768277D01*
X106199688Y-82768284D01*
X106294334Y-82932216D01*
X106420996Y-83072888D01*
X106574132Y-83184148D01*
X106574137Y-83184151D01*
X106747059Y-83261142D01*
X106747064Y-83261144D01*
X106932221Y-83300500D01*
X106932222Y-83300500D01*
X107121511Y-83300500D01*
X107121513Y-83300500D01*
X107306670Y-83261144D01*
X107479597Y-83184151D01*
X107632738Y-83072888D01*
X107759400Y-82932216D01*
X107835735Y-82800000D01*
X122294540Y-82800000D01*
X122314326Y-82988256D01*
X122314327Y-82988259D01*
X122372818Y-83168277D01*
X122372821Y-83168284D01*
X122467467Y-83332216D01*
X122594129Y-83472888D01*
X122747265Y-83584148D01*
X122747270Y-83584151D01*
X122920192Y-83661142D01*
X122920197Y-83661144D01*
X123105354Y-83700500D01*
X123105355Y-83700500D01*
X123294644Y-83700500D01*
X123294646Y-83700500D01*
X123479803Y-83661144D01*
X123652730Y-83584151D01*
X123805871Y-83472888D01*
X123932533Y-83332216D01*
X124027179Y-83168284D01*
X124085674Y-82988256D01*
X124105460Y-82800000D01*
X124085674Y-82611744D01*
X124027179Y-82431716D01*
X123932533Y-82267784D01*
X123805871Y-82127112D01*
X123748443Y-82085388D01*
X123652734Y-82015851D01*
X123652729Y-82015848D01*
X123479807Y-81938857D01*
X123479802Y-81938855D01*
X123334001Y-81907865D01*
X123294646Y-81899500D01*
X123105354Y-81899500D01*
X123072897Y-81906398D01*
X122920197Y-81938855D01*
X122920192Y-81938857D01*
X122747270Y-82015848D01*
X122747265Y-82015851D01*
X122594129Y-82127111D01*
X122467466Y-82267785D01*
X122372821Y-82431715D01*
X122372818Y-82431722D01*
X122314327Y-82611740D01*
X122314326Y-82611744D01*
X122294540Y-82800000D01*
X107835735Y-82800000D01*
X107854046Y-82768284D01*
X107912541Y-82588256D01*
X107932327Y-82400000D01*
X107912541Y-82211744D01*
X107854046Y-82031716D01*
X107759400Y-81867784D01*
X107660576Y-81758029D01*
X107630346Y-81695038D01*
X107638971Y-81625702D01*
X107660571Y-81592090D01*
X107759400Y-81482331D01*
X107854046Y-81318399D01*
X107912541Y-81138371D01*
X107932327Y-80950115D01*
X107912541Y-80761859D01*
X107854046Y-80581831D01*
X107759400Y-80417899D01*
X107632738Y-80277227D01*
X107632737Y-80277226D01*
X107479601Y-80165966D01*
X107479596Y-80165963D01*
X107306674Y-80088972D01*
X107306669Y-80088970D01*
X107160868Y-80057980D01*
X107121513Y-80049615D01*
X106932221Y-80049615D01*
X106899764Y-80056513D01*
X106747064Y-80088970D01*
X106747059Y-80088972D01*
X106574137Y-80165963D01*
X106574132Y-80165966D01*
X106420996Y-80277226D01*
X106294333Y-80417900D01*
X106199688Y-80581830D01*
X106199685Y-80581837D01*
X106141194Y-80761855D01*
X106141193Y-80761859D01*
X106121407Y-80950115D01*
X100400500Y-80950115D01*
X100400500Y-77350000D01*
X108594540Y-77350000D01*
X108614326Y-77538256D01*
X108614327Y-77538259D01*
X108672818Y-77718277D01*
X108672821Y-77718284D01*
X108767467Y-77882216D01*
X108833378Y-77955417D01*
X108894129Y-78022888D01*
X109047265Y-78134148D01*
X109047270Y-78134151D01*
X109220192Y-78211142D01*
X109220197Y-78211144D01*
X109405354Y-78250500D01*
X109405355Y-78250500D01*
X109594644Y-78250500D01*
X109594646Y-78250500D01*
X109779803Y-78211144D01*
X109952730Y-78134151D01*
X110056073Y-78059067D01*
X110121876Y-78035589D01*
X110189930Y-78051414D01*
X110233950Y-78093415D01*
X110290886Y-78184028D01*
X110309886Y-78251265D01*
X110290886Y-78315972D01*
X110217210Y-78433225D01*
X110163212Y-78587544D01*
X110144909Y-78749996D01*
X110144909Y-78750003D01*
X110163212Y-78912455D01*
X110217210Y-79066774D01*
X110269819Y-79150500D01*
X110304192Y-79205204D01*
X110419796Y-79320808D01*
X110558225Y-79407789D01*
X110712539Y-79461786D01*
X110712542Y-79461786D01*
X110712544Y-79461787D01*
X110874996Y-79480091D01*
X110875000Y-79480091D01*
X110875004Y-79480091D01*
X111037457Y-79461787D01*
X111037459Y-79461786D01*
X111037461Y-79461786D01*
X111159195Y-79419188D01*
X111228974Y-79415627D01*
X111289601Y-79450355D01*
X111317191Y-79495275D01*
X111342209Y-79566772D01*
X111342211Y-79566775D01*
X111429192Y-79705204D01*
X111544796Y-79820808D01*
X111683225Y-79907789D01*
X111837539Y-79961786D01*
X111837542Y-79961786D01*
X111837544Y-79961787D01*
X111999996Y-79980091D01*
X112000000Y-79980091D01*
X112000004Y-79980091D01*
X112162455Y-79961787D01*
X112162456Y-79961786D01*
X112162461Y-79961786D01*
X112316775Y-79907789D01*
X112428645Y-79837496D01*
X113769909Y-79837496D01*
X113769909Y-79837503D01*
X113788212Y-79999955D01*
X113842210Y-80154274D01*
X113919466Y-80277226D01*
X113929192Y-80292704D01*
X114044796Y-80408308D01*
X114183225Y-80495289D01*
X114337539Y-80549286D01*
X114337542Y-80549286D01*
X114337544Y-80549287D01*
X114499996Y-80567591D01*
X114500000Y-80567591D01*
X114500004Y-80567591D01*
X114662455Y-80549287D01*
X114662456Y-80549286D01*
X114662461Y-80549286D01*
X114816775Y-80495289D01*
X114955204Y-80408308D01*
X115070808Y-80292704D01*
X115157789Y-80154275D01*
X115211786Y-79999961D01*
X115214025Y-79980091D01*
X115230091Y-79837503D01*
X115230091Y-79837496D01*
X115211787Y-79675044D01*
X115211786Y-79675042D01*
X115211786Y-79675039D01*
X115203400Y-79651075D01*
X115199838Y-79581299D01*
X115234567Y-79520671D01*
X115296560Y-79488444D01*
X115334326Y-79486902D01*
X115499997Y-79505569D01*
X115500000Y-79505569D01*
X115500004Y-79505569D01*
X115662455Y-79487265D01*
X115662456Y-79487264D01*
X115662461Y-79487264D01*
X115816775Y-79433267D01*
X115955204Y-79346286D01*
X116070808Y-79230682D01*
X116157789Y-79092253D01*
X116211786Y-78937939D01*
X116214657Y-78912461D01*
X116230091Y-78775481D01*
X116230091Y-78775474D01*
X116211787Y-78613022D01*
X116211786Y-78613020D01*
X116211786Y-78613017D01*
X116157789Y-78458703D01*
X116070808Y-78320274D01*
X115955204Y-78204670D01*
X115900322Y-78170185D01*
X115816774Y-78117688D01*
X115682939Y-78070857D01*
X115662461Y-78063692D01*
X115662460Y-78063691D01*
X115662455Y-78063690D01*
X115500004Y-78045387D01*
X115499996Y-78045387D01*
X115337544Y-78063690D01*
X115183225Y-78117688D01*
X115044795Y-78204670D01*
X114929192Y-78320273D01*
X114842210Y-78458703D01*
X114788212Y-78613022D01*
X114769909Y-78775474D01*
X114769909Y-78775481D01*
X114788212Y-78937933D01*
X114788213Y-78937938D01*
X114788214Y-78937939D01*
X114796558Y-78961786D01*
X114796599Y-78961901D01*
X114800160Y-79031680D01*
X114765431Y-79092307D01*
X114703437Y-79124534D01*
X114665674Y-79126075D01*
X114500004Y-79107409D01*
X114499996Y-79107409D01*
X114337544Y-79125712D01*
X114183225Y-79179710D01*
X114044795Y-79266692D01*
X113929192Y-79382295D01*
X113842210Y-79520725D01*
X113788212Y-79675044D01*
X113769909Y-79837496D01*
X112428645Y-79837496D01*
X112455204Y-79820808D01*
X112570808Y-79705204D01*
X112657789Y-79566775D01*
X112711786Y-79412461D01*
X112711787Y-79412455D01*
X112730091Y-79250003D01*
X112730091Y-79249996D01*
X112711787Y-79087544D01*
X112711786Y-79087542D01*
X112711786Y-79087539D01*
X112657789Y-78933225D01*
X112570808Y-78794796D01*
X112455204Y-78679192D01*
X112316774Y-78592210D01*
X112162455Y-78538212D01*
X112000004Y-78519909D01*
X111999996Y-78519909D01*
X111837544Y-78538212D01*
X111715803Y-78580811D01*
X111646024Y-78584372D01*
X111585397Y-78549643D01*
X111557807Y-78504723D01*
X111544204Y-78465849D01*
X111532789Y-78433225D01*
X111459113Y-78315971D01*
X111440113Y-78248736D01*
X111459114Y-78184027D01*
X111484079Y-78144297D01*
X111532789Y-78066775D01*
X111586786Y-77912461D01*
X111587601Y-77905227D01*
X111605091Y-77750003D01*
X111605091Y-77749996D01*
X111586787Y-77587544D01*
X111586786Y-77587542D01*
X111586786Y-77587539D01*
X111532789Y-77433225D01*
X111445808Y-77294796D01*
X111330204Y-77179192D01*
X111302436Y-77161744D01*
X111191774Y-77092210D01*
X111037455Y-77038212D01*
X110875004Y-77019909D01*
X110874996Y-77019909D01*
X110712544Y-77038212D01*
X110558222Y-77092211D01*
X110530897Y-77109381D01*
X110463660Y-77128381D01*
X110396825Y-77108013D01*
X110351612Y-77054744D01*
X110346995Y-77042704D01*
X110343587Y-77032216D01*
X110333119Y-76999996D01*
X110327182Y-76981724D01*
X110327180Y-76981720D01*
X110327179Y-76981716D01*
X110232533Y-76817784D01*
X110202349Y-76784261D01*
X110172119Y-76721269D01*
X110180745Y-76651934D01*
X110225486Y-76598269D01*
X110244062Y-76588009D01*
X110252730Y-76584151D01*
X110405871Y-76472888D01*
X110532533Y-76332216D01*
X110627179Y-76168284D01*
X110681859Y-75999996D01*
X111519909Y-75999996D01*
X111519909Y-76000003D01*
X111538212Y-76162455D01*
X111592210Y-76316774D01*
X111665382Y-76433225D01*
X111679192Y-76455204D01*
X111794796Y-76570808D01*
X111933225Y-76657789D01*
X111947903Y-76662925D01*
X112004679Y-76703644D01*
X112030171Y-76766084D01*
X112038212Y-76837455D01*
X112092210Y-76991774D01*
X112167216Y-77111144D01*
X112179192Y-77130204D01*
X112294796Y-77245808D01*
X112433225Y-77332789D01*
X112587539Y-77386786D01*
X112587542Y-77386786D01*
X112587544Y-77386787D01*
X112749996Y-77405091D01*
X112750000Y-77405091D01*
X112750004Y-77405091D01*
X112912455Y-77386787D01*
X112912456Y-77386786D01*
X112912461Y-77386786D01*
X113066775Y-77332789D01*
X113198532Y-77250000D01*
X116844540Y-77250000D01*
X116864326Y-77438256D01*
X116864327Y-77438259D01*
X116922818Y-77618277D01*
X116922821Y-77618284D01*
X117017467Y-77782216D01*
X117144129Y-77922888D01*
X117297265Y-78034148D01*
X117297270Y-78034151D01*
X117470192Y-78111142D01*
X117470197Y-78111144D01*
X117655354Y-78150500D01*
X117655355Y-78150500D01*
X117672179Y-78150500D01*
X117739218Y-78170185D01*
X117784973Y-78222989D01*
X117794917Y-78292147D01*
X117765892Y-78355703D01*
X117722615Y-78387779D01*
X117547270Y-78465848D01*
X117547265Y-78465851D01*
X117394129Y-78577111D01*
X117267466Y-78717785D01*
X117172821Y-78881715D01*
X117172818Y-78881722D01*
X117114327Y-79061740D01*
X117114326Y-79061744D01*
X117094540Y-79250000D01*
X117114326Y-79438256D01*
X117114327Y-79438259D01*
X117172818Y-79618277D01*
X117172821Y-79618284D01*
X117267467Y-79782216D01*
X117317248Y-79837503D01*
X117394129Y-79922888D01*
X117547265Y-80034148D01*
X117547270Y-80034151D01*
X117720192Y-80111142D01*
X117720197Y-80111144D01*
X117905354Y-80150500D01*
X117905355Y-80150500D01*
X118094644Y-80150500D01*
X118094646Y-80150500D01*
X118279803Y-80111144D01*
X118452730Y-80034151D01*
X118605871Y-79922888D01*
X118732533Y-79782216D01*
X118827179Y-79618284D01*
X118885674Y-79438256D01*
X118905460Y-79250000D01*
X118885674Y-79061744D01*
X118827179Y-78881716D01*
X118732533Y-78717784D01*
X118605871Y-78577112D01*
X118605870Y-78577111D01*
X118452734Y-78465851D01*
X118452729Y-78465848D01*
X118279807Y-78388857D01*
X118279802Y-78388855D01*
X118123829Y-78355703D01*
X118094646Y-78349500D01*
X118077821Y-78349500D01*
X118010782Y-78329815D01*
X117965027Y-78277011D01*
X117955083Y-78207853D01*
X117984108Y-78144297D01*
X118027385Y-78112221D01*
X118129456Y-78066775D01*
X118202730Y-78034151D01*
X118355871Y-77922888D01*
X118482533Y-77782216D01*
X118577179Y-77618284D01*
X118635674Y-77438256D01*
X118646588Y-77334415D01*
X120545876Y-77334415D01*
X120545876Y-77334422D01*
X120564179Y-77496874D01*
X120618177Y-77651193D01*
X120705159Y-77789623D01*
X120820762Y-77905226D01*
X120826209Y-77909570D01*
X120824729Y-77911424D01*
X120863643Y-77955417D01*
X120874293Y-78024470D01*
X120869314Y-78046390D01*
X120864327Y-78061738D01*
X120864326Y-78061743D01*
X120854998Y-78150500D01*
X120844540Y-78250000D01*
X120864326Y-78438256D01*
X120864327Y-78438259D01*
X120922818Y-78618277D01*
X120922821Y-78618284D01*
X121017467Y-78782216D01*
X121144129Y-78922888D01*
X121183585Y-78951554D01*
X121226250Y-79006884D01*
X121232229Y-79076497D01*
X121199623Y-79138292D01*
X121161136Y-79165151D01*
X121047267Y-79215850D01*
X121047265Y-79215851D01*
X120894129Y-79327111D01*
X120767466Y-79467785D01*
X120672821Y-79631715D01*
X120672818Y-79631722D01*
X120623921Y-79782214D01*
X120614326Y-79811744D01*
X120594540Y-80000000D01*
X120614326Y-80188256D01*
X120614327Y-80188259D01*
X120672818Y-80368277D01*
X120672821Y-80368284D01*
X120767467Y-80532216D01*
X120854025Y-80628348D01*
X120894129Y-80672888D01*
X121047265Y-80784148D01*
X121047270Y-80784151D01*
X121220192Y-80861142D01*
X121220197Y-80861144D01*
X121405354Y-80900500D01*
X121405355Y-80900500D01*
X121594644Y-80900500D01*
X121594646Y-80900500D01*
X121779803Y-80861144D01*
X121952730Y-80784151D01*
X122105871Y-80672888D01*
X122232533Y-80532216D01*
X122327179Y-80368284D01*
X122385674Y-80188256D01*
X122405460Y-80000000D01*
X122385674Y-79811744D01*
X122327179Y-79631716D01*
X122232533Y-79467784D01*
X122105871Y-79327112D01*
X122066413Y-79298444D01*
X122023749Y-79243115D01*
X122017770Y-79173501D01*
X122050376Y-79111706D01*
X122088864Y-79084848D01*
X122129458Y-79066774D01*
X122202730Y-79034151D01*
X122355871Y-78922888D01*
X122482533Y-78782216D01*
X122577179Y-78618284D01*
X122635674Y-78438256D01*
X122655460Y-78250000D01*
X122635674Y-78061744D01*
X122581112Y-77893823D01*
X122577181Y-77881722D01*
X122577180Y-77881721D01*
X122577179Y-77881716D01*
X122482533Y-77717784D01*
X122355871Y-77577112D01*
X122355870Y-77577111D01*
X122202734Y-77465851D01*
X122202729Y-77465848D01*
X122076099Y-77409468D01*
X122022862Y-77364218D01*
X122003315Y-77310072D01*
X121987754Y-77171963D01*
X121987753Y-77171961D01*
X121987753Y-77171958D01*
X121933756Y-77017644D01*
X121846775Y-76879215D01*
X121731171Y-76763611D01*
X121709503Y-76749996D01*
X121592741Y-76676629D01*
X121438422Y-76622631D01*
X121275971Y-76604328D01*
X121275963Y-76604328D01*
X121113511Y-76622631D01*
X120959192Y-76676629D01*
X120820762Y-76763611D01*
X120705159Y-76879214D01*
X120618177Y-77017644D01*
X120564179Y-77171963D01*
X120545876Y-77334415D01*
X118646588Y-77334415D01*
X118655460Y-77250000D01*
X118635674Y-77061744D01*
X118577179Y-76881716D01*
X118482533Y-76717784D01*
X118355871Y-76577112D01*
X118355870Y-76577111D01*
X118249736Y-76500000D01*
X127344540Y-76500000D01*
X127364326Y-76688256D01*
X127364327Y-76688259D01*
X127422818Y-76868277D01*
X127422821Y-76868284D01*
X127517467Y-77032216D01*
X127643292Y-77171958D01*
X127644129Y-77172888D01*
X127797265Y-77284148D01*
X127797270Y-77284151D01*
X127970192Y-77361142D01*
X127970197Y-77361144D01*
X128155354Y-77400500D01*
X128155355Y-77400500D01*
X128344644Y-77400500D01*
X128344646Y-77400500D01*
X128529803Y-77361144D01*
X128702730Y-77284151D01*
X128855871Y-77172888D01*
X128982533Y-77032216D01*
X129077179Y-76868284D01*
X129077307Y-76867889D01*
X131802016Y-76867889D01*
X131802016Y-76867896D01*
X131820319Y-77030348D01*
X131820320Y-77030353D01*
X131820321Y-77030354D01*
X131827486Y-77050832D01*
X131874317Y-77184667D01*
X131943516Y-77294795D01*
X131961299Y-77323097D01*
X132076903Y-77438701D01*
X132113644Y-77461787D01*
X132221228Y-77529387D01*
X132220542Y-77530477D01*
X132266978Y-77572394D01*
X132285297Y-77639820D01*
X132264256Y-77706446D01*
X132249005Y-77724983D01*
X132179191Y-77794797D01*
X132092210Y-77933225D01*
X132038212Y-78087544D01*
X132019909Y-78249996D01*
X132019909Y-78250003D01*
X132038212Y-78412455D01*
X132092210Y-78566774D01*
X132179192Y-78705204D01*
X132294796Y-78820808D01*
X132433225Y-78907789D01*
X132587539Y-78961786D01*
X132587542Y-78961786D01*
X132587544Y-78961787D01*
X132749996Y-78980091D01*
X132750000Y-78980091D01*
X132750004Y-78980091D01*
X132912455Y-78961787D01*
X132912456Y-78961786D01*
X132912461Y-78961786D01*
X133066775Y-78907789D01*
X133205204Y-78820808D01*
X133320808Y-78705204D01*
X133407789Y-78566775D01*
X133461786Y-78412461D01*
X133477048Y-78277011D01*
X133480091Y-78250003D01*
X133480091Y-78249996D01*
X133461787Y-78087544D01*
X133461786Y-78087542D01*
X133461786Y-78087539D01*
X133407789Y-77933225D01*
X133320808Y-77794796D01*
X133205204Y-77679192D01*
X133060879Y-77588506D01*
X133061562Y-77587417D01*
X133015123Y-77545490D01*
X132996809Y-77478064D01*
X133017855Y-77411439D01*
X133033092Y-77392919D01*
X133102915Y-77323097D01*
X133102916Y-77323094D01*
X133107839Y-77318172D01*
X133108821Y-77319154D01*
X133159730Y-77283418D01*
X133229542Y-77280564D01*
X133287176Y-77313188D01*
X133294796Y-77320808D01*
X133433225Y-77407789D01*
X133587539Y-77461786D01*
X133587542Y-77461786D01*
X133587544Y-77461787D01*
X133749996Y-77480091D01*
X133750000Y-77480091D01*
X133750004Y-77480091D01*
X133912455Y-77461787D01*
X133912456Y-77461786D01*
X133912461Y-77461786D01*
X134066775Y-77407789D01*
X134205204Y-77320808D01*
X134320808Y-77205204D01*
X134407789Y-77066775D01*
X134431156Y-76999996D01*
X141769909Y-76999996D01*
X141769909Y-77000003D01*
X141788212Y-77162455D01*
X141842210Y-77316774D01*
X141915382Y-77433225D01*
X141929192Y-77455204D01*
X142044796Y-77570808D01*
X142183225Y-77657789D01*
X142337539Y-77711786D01*
X142337542Y-77711786D01*
X142337544Y-77711787D01*
X142499996Y-77730091D01*
X142500000Y-77730091D01*
X142500004Y-77730091D01*
X142662455Y-77711787D01*
X142662456Y-77711786D01*
X142662461Y-77711786D01*
X142816775Y-77657789D01*
X142955204Y-77570808D01*
X143070808Y-77455204D01*
X143157789Y-77316775D01*
X143211786Y-77162461D01*
X143211867Y-77161744D01*
X143230091Y-77000003D01*
X143230091Y-76999996D01*
X143211787Y-76837544D01*
X143211786Y-76837542D01*
X143211786Y-76837539D01*
X143157789Y-76683225D01*
X143070808Y-76544796D01*
X142955204Y-76429192D01*
X142928938Y-76412688D01*
X142816774Y-76342210D01*
X142662455Y-76288212D01*
X142500004Y-76269909D01*
X142499996Y-76269909D01*
X142337544Y-76288212D01*
X142183225Y-76342210D01*
X142044795Y-76429192D01*
X141929192Y-76544795D01*
X141842210Y-76683225D01*
X141788212Y-76837544D01*
X141769909Y-76999996D01*
X134431156Y-76999996D01*
X134461786Y-76912461D01*
X134461787Y-76912455D01*
X134480091Y-76750003D01*
X134480091Y-76749996D01*
X134461787Y-76587544D01*
X134461786Y-76587542D01*
X134461786Y-76587539D01*
X134407789Y-76433225D01*
X134320808Y-76294796D01*
X134276012Y-76250000D01*
X143594540Y-76250000D01*
X143614326Y-76438256D01*
X143614327Y-76438259D01*
X143672818Y-76618277D01*
X143672821Y-76618284D01*
X143767467Y-76782216D01*
X143894129Y-76922888D01*
X144047265Y-77034148D01*
X144047270Y-77034151D01*
X144220192Y-77111142D01*
X144220197Y-77111144D01*
X144405354Y-77150500D01*
X144405355Y-77150500D01*
X144594644Y-77150500D01*
X144594646Y-77150500D01*
X144779803Y-77111144D01*
X144952730Y-77034151D01*
X145105871Y-76922888D01*
X145232533Y-76782216D01*
X145327179Y-76618284D01*
X145385674Y-76438256D01*
X145405460Y-76250000D01*
X145385674Y-76061744D01*
X145327179Y-75881716D01*
X145232533Y-75717784D01*
X145105871Y-75577112D01*
X145062785Y-75545808D01*
X144952734Y-75465851D01*
X144952729Y-75465848D01*
X144779807Y-75388857D01*
X144779802Y-75388855D01*
X144634001Y-75357865D01*
X144594646Y-75349500D01*
X144405354Y-75349500D01*
X144372897Y-75356398D01*
X144220197Y-75388855D01*
X144220192Y-75388857D01*
X144047270Y-75465848D01*
X144047265Y-75465851D01*
X143894129Y-75577111D01*
X143767466Y-75717785D01*
X143672821Y-75881715D01*
X143672818Y-75881722D01*
X143627919Y-76019909D01*
X143614326Y-76061744D01*
X143594540Y-76250000D01*
X134276012Y-76250000D01*
X134205204Y-76179192D01*
X134168465Y-76156107D01*
X134066774Y-76092210D01*
X133912455Y-76038212D01*
X133750004Y-76019909D01*
X133749996Y-76019909D01*
X133587544Y-76038212D01*
X133433225Y-76092210D01*
X133294795Y-76179192D01*
X133174268Y-76299720D01*
X133173289Y-76298741D01*
X133122350Y-76334483D01*
X133052538Y-76337321D01*
X132994930Y-76304704D01*
X132987311Y-76297085D01*
X132848881Y-76210103D01*
X132694562Y-76156105D01*
X132532111Y-76137802D01*
X132532103Y-76137802D01*
X132369651Y-76156105D01*
X132215332Y-76210103D01*
X132076902Y-76297085D01*
X131961299Y-76412688D01*
X131874317Y-76551118D01*
X131820319Y-76705437D01*
X131802016Y-76867889D01*
X129077307Y-76867889D01*
X129135674Y-76688256D01*
X129155460Y-76500000D01*
X129135674Y-76311744D01*
X129077179Y-76131716D01*
X128982533Y-75967784D01*
X128855871Y-75827112D01*
X128855870Y-75827111D01*
X128702734Y-75715851D01*
X128702729Y-75715848D01*
X128529807Y-75638857D01*
X128529802Y-75638855D01*
X128384001Y-75607865D01*
X128344646Y-75599500D01*
X128155354Y-75599500D01*
X128122897Y-75606398D01*
X127970197Y-75638855D01*
X127970192Y-75638857D01*
X127797270Y-75715848D01*
X127797265Y-75715851D01*
X127644129Y-75827111D01*
X127517466Y-75967785D01*
X127422821Y-76131715D01*
X127422818Y-76131722D01*
X127369089Y-76297085D01*
X127364326Y-76311744D01*
X127344540Y-76500000D01*
X118249736Y-76500000D01*
X118202734Y-76465851D01*
X118202729Y-76465848D01*
X118029807Y-76388857D01*
X118029802Y-76388855D01*
X117884001Y-76357865D01*
X117844646Y-76349500D01*
X117655354Y-76349500D01*
X117622897Y-76356398D01*
X117470197Y-76388855D01*
X117470192Y-76388857D01*
X117297270Y-76465848D01*
X117297265Y-76465851D01*
X117144129Y-76577111D01*
X117017466Y-76717785D01*
X116922821Y-76881715D01*
X116922818Y-76881722D01*
X116866600Y-77054744D01*
X116864326Y-77061744D01*
X116844540Y-77250000D01*
X113198532Y-77250000D01*
X113205204Y-77245808D01*
X113320808Y-77130204D01*
X113407789Y-76991775D01*
X113461786Y-76837461D01*
X113464003Y-76817784D01*
X113480091Y-76675003D01*
X113480091Y-76674996D01*
X113461787Y-76512544D01*
X113461786Y-76512542D01*
X113461786Y-76512539D01*
X113407789Y-76358225D01*
X113320808Y-76219796D01*
X113205204Y-76104192D01*
X113137649Y-76061744D01*
X113066774Y-76017210D01*
X113052091Y-76012072D01*
X112995316Y-75971349D01*
X112969828Y-75908913D01*
X112961787Y-75837544D01*
X112961784Y-75837531D01*
X112907790Y-75683227D01*
X112907789Y-75683225D01*
X112820808Y-75544796D01*
X112705204Y-75429192D01*
X112566774Y-75342210D01*
X112412455Y-75288212D01*
X112250004Y-75269909D01*
X112249996Y-75269909D01*
X112087544Y-75288212D01*
X111933225Y-75342210D01*
X111794795Y-75429192D01*
X111679192Y-75544795D01*
X111592210Y-75683225D01*
X111538212Y-75837544D01*
X111519909Y-75999996D01*
X110681859Y-75999996D01*
X110685674Y-75988256D01*
X110705460Y-75800000D01*
X110685674Y-75611744D01*
X110627179Y-75431716D01*
X110532533Y-75267784D01*
X110405871Y-75127112D01*
X110361619Y-75094961D01*
X110252734Y-75015851D01*
X110252729Y-75015848D01*
X110160975Y-74974996D01*
X120769909Y-74974996D01*
X120769909Y-74975003D01*
X120788212Y-75137455D01*
X120842210Y-75291774D01*
X120873902Y-75342211D01*
X120929192Y-75430204D01*
X121044796Y-75545808D01*
X121183225Y-75632789D01*
X121337539Y-75686786D01*
X121337542Y-75686786D01*
X121337544Y-75686787D01*
X121499996Y-75705091D01*
X121500000Y-75705091D01*
X121500004Y-75705091D01*
X121662455Y-75686787D01*
X121662456Y-75686786D01*
X121662461Y-75686786D01*
X121816775Y-75632789D01*
X121955204Y-75545808D01*
X122070808Y-75430204D01*
X122157789Y-75291775D01*
X122211786Y-75137461D01*
X122212377Y-75132216D01*
X122223428Y-75034139D01*
X122250494Y-74969725D01*
X122308089Y-74930170D01*
X122377926Y-74928032D01*
X122434329Y-74960341D01*
X122544796Y-75070808D01*
X122683225Y-75157789D01*
X122837539Y-75211786D01*
X122837542Y-75211786D01*
X122837544Y-75211787D01*
X122999996Y-75230091D01*
X123000000Y-75230091D01*
X123000004Y-75230091D01*
X123162455Y-75211787D01*
X123162456Y-75211786D01*
X123162461Y-75211786D01*
X123316775Y-75157789D01*
X123455204Y-75070808D01*
X123465301Y-75060709D01*
X123526621Y-75027222D01*
X123593941Y-75031344D01*
X123677864Y-75060711D01*
X123691096Y-75065341D01*
X123853550Y-75083645D01*
X123853554Y-75083645D01*
X123853558Y-75083645D01*
X124016009Y-75065341D01*
X124016010Y-75065340D01*
X124016015Y-75065340D01*
X124170329Y-75011343D01*
X124308758Y-74924362D01*
X124424362Y-74808758D01*
X124441207Y-74781949D01*
X124493539Y-74735657D01*
X124562592Y-74725007D01*
X124576980Y-74728445D01*
X124577045Y-74728165D01*
X124583830Y-74729714D01*
X124746284Y-74748018D01*
X124746288Y-74748018D01*
X124746290Y-74748018D01*
X124805857Y-74741306D01*
X124874679Y-74753360D01*
X124911891Y-74781554D01*
X124994129Y-74872888D01*
X125147265Y-74984148D01*
X125147270Y-74984151D01*
X125320192Y-75061142D01*
X125320197Y-75061144D01*
X125505354Y-75100500D01*
X125505355Y-75100500D01*
X125694645Y-75100500D01*
X125694646Y-75100500D01*
X125745708Y-75089646D01*
X125815373Y-75094961D01*
X125863638Y-75127964D01*
X125994129Y-75272888D01*
X126147265Y-75384148D01*
X126147270Y-75384151D01*
X126320192Y-75461142D01*
X126320197Y-75461144D01*
X126505354Y-75500500D01*
X126505355Y-75500500D01*
X126694644Y-75500500D01*
X126694646Y-75500500D01*
X126879803Y-75461144D01*
X127052730Y-75384151D01*
X127205871Y-75272888D01*
X127332533Y-75132216D01*
X127427179Y-74968284D01*
X127485674Y-74788256D01*
X127489695Y-74749996D01*
X130769909Y-74749996D01*
X130769909Y-74750003D01*
X130788212Y-74912455D01*
X130842210Y-75066774D01*
X130842211Y-75066775D01*
X130929192Y-75205204D01*
X131044796Y-75320808D01*
X131183225Y-75407789D01*
X131337539Y-75461786D01*
X131337542Y-75461786D01*
X131337544Y-75461787D01*
X131499996Y-75480091D01*
X131500000Y-75480091D01*
X131500004Y-75480091D01*
X131662455Y-75461787D01*
X131662456Y-75461786D01*
X131662461Y-75461786D01*
X131816775Y-75407789D01*
X131955204Y-75320808D01*
X132070808Y-75205204D01*
X132157789Y-75066775D01*
X132211786Y-74912461D01*
X132211787Y-74912455D01*
X132230091Y-74750003D01*
X132230091Y-74749996D01*
X141769909Y-74749996D01*
X141769909Y-74750003D01*
X141788212Y-74912455D01*
X141842210Y-75066774D01*
X141842211Y-75066775D01*
X141929192Y-75205204D01*
X142044796Y-75320808D01*
X142183225Y-75407789D01*
X142337539Y-75461786D01*
X142337542Y-75461786D01*
X142337544Y-75461787D01*
X142499996Y-75480091D01*
X142500000Y-75480091D01*
X142500004Y-75480091D01*
X142662455Y-75461787D01*
X142662456Y-75461786D01*
X142662461Y-75461786D01*
X142816775Y-75407789D01*
X142955204Y-75320808D01*
X143070808Y-75205204D01*
X143157789Y-75066775D01*
X143211786Y-74912461D01*
X143211787Y-74912455D01*
X143230091Y-74750003D01*
X143230091Y-74749996D01*
X143211787Y-74587544D01*
X143211786Y-74587542D01*
X143211786Y-74587539D01*
X143157789Y-74433225D01*
X143070808Y-74294796D01*
X142955204Y-74179192D01*
X142941859Y-74170807D01*
X142816774Y-74092210D01*
X142662455Y-74038212D01*
X142500004Y-74019909D01*
X142499996Y-74019909D01*
X142337544Y-74038212D01*
X142183225Y-74092210D01*
X142044795Y-74179192D01*
X141929192Y-74294795D01*
X141842210Y-74433225D01*
X141788212Y-74587544D01*
X141769909Y-74749996D01*
X132230091Y-74749996D01*
X132211787Y-74587544D01*
X132211786Y-74587542D01*
X132211786Y-74587539D01*
X132157789Y-74433225D01*
X132070808Y-74294796D01*
X131955204Y-74179192D01*
X131941859Y-74170807D01*
X131816774Y-74092210D01*
X131662455Y-74038212D01*
X131500004Y-74019909D01*
X131499996Y-74019909D01*
X131337544Y-74038212D01*
X131183225Y-74092210D01*
X131044795Y-74179192D01*
X130929192Y-74294795D01*
X130842210Y-74433225D01*
X130788212Y-74587544D01*
X130769909Y-74749996D01*
X127489695Y-74749996D01*
X127505460Y-74600000D01*
X127485674Y-74411744D01*
X127427179Y-74231716D01*
X127332533Y-74067784D01*
X127205871Y-73927112D01*
X127205870Y-73927111D01*
X127052734Y-73815851D01*
X127052729Y-73815848D01*
X126879807Y-73738857D01*
X126879802Y-73738855D01*
X126721481Y-73705204D01*
X126694646Y-73699500D01*
X126505354Y-73699500D01*
X126454289Y-73710353D01*
X126384623Y-73705037D01*
X126336361Y-73672035D01*
X126205870Y-73527111D01*
X126052734Y-73415851D01*
X126052729Y-73415848D01*
X125879807Y-73338857D01*
X125879802Y-73338855D01*
X125725880Y-73306139D01*
X125694646Y-73299500D01*
X125505354Y-73299500D01*
X125474120Y-73306139D01*
X125320197Y-73338855D01*
X125320195Y-73338856D01*
X125210290Y-73387789D01*
X125141040Y-73397073D01*
X125093885Y-73379504D01*
X125063063Y-73360138D01*
X124908743Y-73306139D01*
X124746292Y-73287836D01*
X124746284Y-73287836D01*
X124583832Y-73306139D01*
X124429513Y-73360137D01*
X124291083Y-73447119D01*
X124175482Y-73562720D01*
X124175477Y-73562726D01*
X124158630Y-73589537D01*
X124106294Y-73635826D01*
X124037240Y-73646472D01*
X124022860Y-73643035D01*
X124022797Y-73643316D01*
X124016011Y-73641766D01*
X123853558Y-73623463D01*
X123853550Y-73623463D01*
X123691355Y-73641737D01*
X123622533Y-73629682D01*
X123571154Y-73582333D01*
X123553530Y-73514722D01*
X123572479Y-73452544D01*
X123581905Y-73437544D01*
X123657789Y-73316775D01*
X123711786Y-73162461D01*
X123711787Y-73162455D01*
X123730091Y-73000003D01*
X123730091Y-72999996D01*
X123711787Y-72837544D01*
X123711786Y-72837542D01*
X123711786Y-72837539D01*
X123657789Y-72683225D01*
X123570808Y-72544796D01*
X123455204Y-72429192D01*
X123447516Y-72424361D01*
X123316774Y-72342210D01*
X123162455Y-72288212D01*
X123000004Y-72269909D01*
X122999996Y-72269909D01*
X122837544Y-72288212D01*
X122683225Y-72342210D01*
X122544795Y-72429192D01*
X122429192Y-72544795D01*
X122342210Y-72683225D01*
X122288212Y-72837544D01*
X122269909Y-72999996D01*
X122269909Y-73000003D01*
X122288212Y-73162455D01*
X122342210Y-73316774D01*
X122429192Y-73455204D01*
X122544797Y-73570809D01*
X122662881Y-73645007D01*
X122709171Y-73697342D01*
X122719819Y-73766395D01*
X122691444Y-73830243D01*
X122662881Y-73854993D01*
X122544797Y-73929190D01*
X122429192Y-74044795D01*
X122342210Y-74183225D01*
X122288212Y-74337544D01*
X122276571Y-74440861D01*
X122249504Y-74505275D01*
X122191909Y-74544830D01*
X122122072Y-74546967D01*
X122065670Y-74514658D01*
X121955204Y-74404192D01*
X121816774Y-74317210D01*
X121662455Y-74263212D01*
X121500004Y-74244909D01*
X121499996Y-74244909D01*
X121337544Y-74263212D01*
X121183225Y-74317210D01*
X121044795Y-74404192D01*
X120929192Y-74519795D01*
X120842210Y-74658225D01*
X120788212Y-74812544D01*
X120769909Y-74974996D01*
X110160975Y-74974996D01*
X110079807Y-74938857D01*
X110079802Y-74938855D01*
X109934001Y-74907865D01*
X109894646Y-74899500D01*
X109705354Y-74899500D01*
X109672897Y-74906398D01*
X109520197Y-74938855D01*
X109520192Y-74938857D01*
X109347270Y-75015848D01*
X109347265Y-75015851D01*
X109194129Y-75127111D01*
X109067466Y-75267785D01*
X108972821Y-75431715D01*
X108972818Y-75431722D01*
X108918304Y-75599500D01*
X108914326Y-75611744D01*
X108894540Y-75800000D01*
X108914326Y-75988256D01*
X108914327Y-75988259D01*
X108972818Y-76168277D01*
X108972821Y-76168284D01*
X109067466Y-76332215D01*
X109097651Y-76365739D01*
X109127881Y-76428731D01*
X109119255Y-76498066D01*
X109074514Y-76551731D01*
X109055940Y-76561988D01*
X109051881Y-76563795D01*
X109047267Y-76565850D01*
X109047265Y-76565851D01*
X108894129Y-76677111D01*
X108767466Y-76817785D01*
X108672821Y-76981715D01*
X108672818Y-76981722D01*
X108630767Y-77111144D01*
X108614326Y-77161744D01*
X108594540Y-77350000D01*
X100400500Y-77350000D01*
X100400500Y-73500000D01*
X106094540Y-73500000D01*
X106114326Y-73688256D01*
X106114327Y-73688259D01*
X106172818Y-73868277D01*
X106172821Y-73868284D01*
X106267467Y-74032216D01*
X106299493Y-74067784D01*
X106394129Y-74172888D01*
X106547265Y-74284148D01*
X106547270Y-74284151D01*
X106720192Y-74361142D01*
X106720197Y-74361144D01*
X106905354Y-74400500D01*
X106905355Y-74400500D01*
X107094644Y-74400500D01*
X107094646Y-74400500D01*
X107279803Y-74361144D01*
X107452730Y-74284151D01*
X107511234Y-74241644D01*
X107577037Y-74218165D01*
X107645091Y-74233989D01*
X107650090Y-74236969D01*
X107683225Y-74257789D01*
X107837539Y-74311786D01*
X107837542Y-74311786D01*
X107837544Y-74311787D01*
X107999996Y-74330091D01*
X108000000Y-74330091D01*
X108000004Y-74330091D01*
X108162455Y-74311787D01*
X108162456Y-74311786D01*
X108162461Y-74311786D01*
X108316775Y-74257789D01*
X108455204Y-74170808D01*
X108570808Y-74055204D01*
X108657789Y-73916775D01*
X108711786Y-73762461D01*
X108711787Y-73762455D01*
X108730091Y-73600003D01*
X108730091Y-73599996D01*
X108711787Y-73437544D01*
X108711786Y-73437542D01*
X108711786Y-73437539D01*
X108657789Y-73283225D01*
X108605493Y-73199996D01*
X109269909Y-73199996D01*
X109269909Y-73200003D01*
X109288212Y-73362455D01*
X109342210Y-73516774D01*
X109394502Y-73599996D01*
X109429192Y-73655204D01*
X109544796Y-73770808D01*
X109683225Y-73857789D01*
X109837539Y-73911786D01*
X109837542Y-73911786D01*
X109837544Y-73911787D01*
X109999996Y-73930091D01*
X110000000Y-73930091D01*
X110000004Y-73930091D01*
X110162455Y-73911787D01*
X110162456Y-73911786D01*
X110162461Y-73911786D01*
X110316775Y-73857789D01*
X110455204Y-73770808D01*
X110481263Y-73744748D01*
X110542585Y-73711263D01*
X110612277Y-73716247D01*
X110634917Y-73727436D01*
X110683221Y-73757788D01*
X110720428Y-73770807D01*
X110837539Y-73811786D01*
X110837542Y-73811786D01*
X110837544Y-73811787D01*
X110999996Y-73830091D01*
X111000000Y-73830091D01*
X111000004Y-73830091D01*
X111162455Y-73811787D01*
X111162456Y-73811786D01*
X111162461Y-73811786D01*
X111316775Y-73757789D01*
X111334027Y-73746948D01*
X111401263Y-73727948D01*
X111465972Y-73746948D01*
X111483225Y-73757789D01*
X111637539Y-73811786D01*
X111637542Y-73811786D01*
X111637544Y-73811787D01*
X111799996Y-73830091D01*
X111800000Y-73830091D01*
X111800004Y-73830091D01*
X111962455Y-73811787D01*
X111962456Y-73811786D01*
X111962461Y-73811786D01*
X112116775Y-73757789D01*
X112255204Y-73670808D01*
X112370808Y-73555204D01*
X112457789Y-73416775D01*
X112511786Y-73262461D01*
X112513190Y-73250000D01*
X112530091Y-73100003D01*
X112530091Y-73099996D01*
X112511787Y-72937544D01*
X112511786Y-72937542D01*
X112511786Y-72937539D01*
X112457789Y-72783225D01*
X112370808Y-72644796D01*
X112255204Y-72529192D01*
X112208750Y-72500003D01*
X112116774Y-72442210D01*
X111962455Y-72388212D01*
X111800004Y-72369909D01*
X111799996Y-72369909D01*
X111637544Y-72388212D01*
X111483223Y-72442211D01*
X111465968Y-72453053D01*
X111398731Y-72472051D01*
X111334032Y-72453053D01*
X111316776Y-72442211D01*
X111162455Y-72388212D01*
X111000004Y-72369909D01*
X110999996Y-72369909D01*
X110837544Y-72388212D01*
X110683225Y-72442210D01*
X110544794Y-72529192D01*
X110518734Y-72555253D01*
X110457410Y-72588737D01*
X110387719Y-72583751D01*
X110365082Y-72572564D01*
X110316774Y-72542210D01*
X110162455Y-72488212D01*
X110000004Y-72469909D01*
X109999996Y-72469909D01*
X109837544Y-72488212D01*
X109683225Y-72542210D01*
X109544795Y-72629192D01*
X109429192Y-72744795D01*
X109342210Y-72883225D01*
X109288212Y-73037544D01*
X109269909Y-73199996D01*
X108605493Y-73199996D01*
X108570808Y-73144796D01*
X108534915Y-73108903D01*
X108501430Y-73047580D01*
X108505556Y-72980264D01*
X108511786Y-72962461D01*
X108514416Y-72939120D01*
X108530091Y-72800003D01*
X108530091Y-72799996D01*
X108511787Y-72637544D01*
X108511786Y-72637542D01*
X108511786Y-72637539D01*
X108457789Y-72483225D01*
X108370808Y-72344796D01*
X108255204Y-72229192D01*
X108222962Y-72208933D01*
X108116774Y-72142210D01*
X107962455Y-72088212D01*
X107800004Y-72069909D01*
X107799996Y-72069909D01*
X107637544Y-72088212D01*
X107483225Y-72142210D01*
X107344795Y-72229192D01*
X107229192Y-72344795D01*
X107142212Y-72483222D01*
X107142210Y-72483226D01*
X107130583Y-72516455D01*
X107089861Y-72573231D01*
X107024908Y-72598978D01*
X107013542Y-72599500D01*
X106905354Y-72599500D01*
X106898956Y-72600860D01*
X106720197Y-72638855D01*
X106720192Y-72638857D01*
X106547270Y-72715848D01*
X106547265Y-72715851D01*
X106394129Y-72827111D01*
X106267466Y-72967785D01*
X106172821Y-73131715D01*
X106172818Y-73131722D01*
X106114327Y-73311740D01*
X106114326Y-73311744D01*
X106094540Y-73500000D01*
X100400500Y-73500000D01*
X100400500Y-72250000D01*
X102594540Y-72250000D01*
X102614326Y-72438256D01*
X102614327Y-72438259D01*
X102672818Y-72618277D01*
X102672821Y-72618284D01*
X102767467Y-72782216D01*
X102817285Y-72837544D01*
X102894129Y-72922888D01*
X103047265Y-73034148D01*
X103047270Y-73034151D01*
X103220192Y-73111142D01*
X103220197Y-73111144D01*
X103405354Y-73150500D01*
X103405355Y-73150500D01*
X103594644Y-73150500D01*
X103594646Y-73150500D01*
X103779803Y-73111144D01*
X103952730Y-73034151D01*
X104105871Y-72922888D01*
X104232533Y-72782216D01*
X104327179Y-72618284D01*
X104385674Y-72438256D01*
X104405460Y-72250000D01*
X104385674Y-72061744D01*
X104327179Y-71881716D01*
X104232533Y-71717784D01*
X104105871Y-71577112D01*
X104105870Y-71577111D01*
X103952734Y-71465851D01*
X103952729Y-71465848D01*
X103779807Y-71388857D01*
X103779802Y-71388855D01*
X103634001Y-71357865D01*
X103594646Y-71349500D01*
X103405354Y-71349500D01*
X103372897Y-71356398D01*
X103220197Y-71388855D01*
X103220192Y-71388857D01*
X103047270Y-71465848D01*
X103047265Y-71465851D01*
X102894129Y-71577111D01*
X102767466Y-71717785D01*
X102672821Y-71881715D01*
X102672818Y-71881722D01*
X102614601Y-72060898D01*
X102614326Y-72061744D01*
X102594540Y-72250000D01*
X100400500Y-72250000D01*
X100400500Y-70499996D01*
X104769909Y-70499996D01*
X104769909Y-70500003D01*
X104788212Y-70662455D01*
X104842210Y-70816774D01*
X104926260Y-70950537D01*
X104929192Y-70955204D01*
X105044796Y-71070808D01*
X105183225Y-71157789D01*
X105337539Y-71211786D01*
X105337542Y-71211786D01*
X105337544Y-71211787D01*
X105499996Y-71230091D01*
X105500000Y-71230091D01*
X105500004Y-71230091D01*
X105662455Y-71211787D01*
X105662456Y-71211786D01*
X105662461Y-71211786D01*
X105816775Y-71157789D01*
X105955204Y-71070808D01*
X106070808Y-70955204D01*
X106157789Y-70816775D01*
X106181156Y-70749996D01*
X118019909Y-70749996D01*
X118019909Y-70750003D01*
X118038212Y-70912455D01*
X118092210Y-71066774D01*
X118165886Y-71184028D01*
X118184886Y-71251265D01*
X118165886Y-71315972D01*
X118092210Y-71433225D01*
X118038212Y-71587544D01*
X118019909Y-71749996D01*
X118019909Y-71750003D01*
X118038212Y-71912455D01*
X118092210Y-72066774D01*
X118164899Y-72182457D01*
X118179192Y-72205204D01*
X118294796Y-72320808D01*
X118433225Y-72407789D01*
X118587539Y-72461786D01*
X118587542Y-72461786D01*
X118587544Y-72461787D01*
X118749996Y-72480091D01*
X118750000Y-72480091D01*
X118750004Y-72480091D01*
X118912454Y-72461787D01*
X118912454Y-72461786D01*
X118912461Y-72461786D01*
X118953177Y-72447538D01*
X119022951Y-72443976D01*
X119083579Y-72478704D01*
X119115807Y-72540697D01*
X119109403Y-72610272D01*
X119066401Y-72665341D01*
X119060106Y-72669570D01*
X119044802Y-72679186D01*
X119044795Y-72679192D01*
X118929192Y-72794795D01*
X118842208Y-72933229D01*
X118840147Y-72939120D01*
X118799420Y-72995892D01*
X118736994Y-73021373D01*
X118587544Y-73038212D01*
X118433225Y-73092210D01*
X118294795Y-73179192D01*
X118179192Y-73294795D01*
X118092210Y-73433225D01*
X118038212Y-73587544D01*
X118019909Y-73749996D01*
X118019909Y-73750003D01*
X118038212Y-73912455D01*
X118092210Y-74066774D01*
X118165382Y-74183225D01*
X118179192Y-74205204D01*
X118294796Y-74320808D01*
X118433225Y-74407789D01*
X118587539Y-74461786D01*
X118587542Y-74461786D01*
X118587544Y-74461787D01*
X118749996Y-74480091D01*
X118750000Y-74480091D01*
X118750004Y-74480091D01*
X118912455Y-74461787D01*
X118912456Y-74461786D01*
X118912461Y-74461786D01*
X119066775Y-74407789D01*
X119205204Y-74320808D01*
X119320808Y-74205204D01*
X119407789Y-74066775D01*
X119409845Y-74060896D01*
X119450563Y-74004119D01*
X119513004Y-73978625D01*
X119608442Y-73967872D01*
X119662455Y-73961787D01*
X119662456Y-73961786D01*
X119662461Y-73961786D01*
X119816775Y-73907789D01*
X119955204Y-73820808D01*
X120070808Y-73705204D01*
X120157789Y-73566775D01*
X120211786Y-73412461D01*
X120214566Y-73387789D01*
X120230091Y-73250003D01*
X120230091Y-73249996D01*
X120211787Y-73087544D01*
X120211786Y-73087542D01*
X120211786Y-73087539D01*
X120157789Y-72933225D01*
X120070808Y-72794796D01*
X119955204Y-72679192D01*
X119900462Y-72644795D01*
X119816774Y-72592210D01*
X119662455Y-72538212D01*
X119500004Y-72519909D01*
X119499996Y-72519909D01*
X119337544Y-72538212D01*
X119296824Y-72552461D01*
X119227045Y-72556022D01*
X119166418Y-72521293D01*
X119134191Y-72459299D01*
X119140597Y-72389724D01*
X119183601Y-72334656D01*
X119189888Y-72330431D01*
X119205204Y-72320808D01*
X119320808Y-72205204D01*
X119407789Y-72066775D01*
X119409845Y-72060896D01*
X119450563Y-72004119D01*
X119513004Y-71978625D01*
X119608442Y-71967872D01*
X119662455Y-71961787D01*
X119662456Y-71961786D01*
X119662461Y-71961786D01*
X119816775Y-71907789D01*
X119903096Y-71853550D01*
X124123463Y-71853550D01*
X124123463Y-71853557D01*
X124141766Y-72016009D01*
X124195764Y-72170328D01*
X124221814Y-72211786D01*
X124282746Y-72308758D01*
X124398350Y-72424362D01*
X124536779Y-72511343D01*
X124691093Y-72565340D01*
X124691096Y-72565340D01*
X124691098Y-72565341D01*
X124853550Y-72583645D01*
X124853554Y-72583645D01*
X124853558Y-72583645D01*
X125016009Y-72565341D01*
X125016010Y-72565340D01*
X125016015Y-72565340D01*
X125170329Y-72511343D01*
X125188388Y-72499996D01*
X129519909Y-72499996D01*
X129519909Y-72500003D01*
X129538212Y-72662455D01*
X129592210Y-72816774D01*
X129598706Y-72827112D01*
X129679192Y-72955204D01*
X129794796Y-73070808D01*
X129933225Y-73157789D01*
X130087539Y-73211786D01*
X130087542Y-73211786D01*
X130087544Y-73211787D01*
X130249996Y-73230091D01*
X130250000Y-73230091D01*
X130250004Y-73230091D01*
X130412455Y-73211787D01*
X130412456Y-73211786D01*
X130412461Y-73211786D01*
X130566775Y-73157789D01*
X130705204Y-73070808D01*
X130776016Y-72999996D01*
X132519909Y-72999996D01*
X132519909Y-73000003D01*
X132538212Y-73162455D01*
X132592210Y-73316774D01*
X132654465Y-73415851D01*
X132679192Y-73455204D01*
X132794796Y-73570808D01*
X132933225Y-73657789D01*
X133087539Y-73711786D01*
X133087542Y-73711786D01*
X133087544Y-73711787D01*
X133249996Y-73730091D01*
X133250000Y-73730091D01*
X133250004Y-73730091D01*
X133412455Y-73711787D01*
X133412456Y-73711786D01*
X133412461Y-73711786D01*
X133566775Y-73657789D01*
X133705204Y-73570808D01*
X133820808Y-73455204D01*
X133907789Y-73316775D01*
X133961786Y-73162461D01*
X133961787Y-73162455D01*
X133980091Y-73000003D01*
X133980091Y-72999996D01*
X133961787Y-72837544D01*
X133961786Y-72837542D01*
X133961786Y-72837539D01*
X133907789Y-72683225D01*
X133820808Y-72544796D01*
X133705204Y-72429192D01*
X133697516Y-72424361D01*
X133566774Y-72342210D01*
X133412455Y-72288212D01*
X133250004Y-72269909D01*
X133249996Y-72269909D01*
X133087544Y-72288212D01*
X132933225Y-72342210D01*
X132794795Y-72429192D01*
X132679192Y-72544795D01*
X132592210Y-72683225D01*
X132538212Y-72837544D01*
X132519909Y-72999996D01*
X130776016Y-72999996D01*
X130820808Y-72955204D01*
X130907789Y-72816775D01*
X130961786Y-72662461D01*
X130961787Y-72662455D01*
X130980091Y-72500003D01*
X130980091Y-72499996D01*
X130961787Y-72337544D01*
X130961786Y-72337542D01*
X130961786Y-72337539D01*
X130907789Y-72183225D01*
X130820808Y-72044796D01*
X130705204Y-71929192D01*
X130678567Y-71912455D01*
X130566774Y-71842210D01*
X130412455Y-71788212D01*
X130250004Y-71769909D01*
X130249996Y-71769909D01*
X130087544Y-71788212D01*
X129933225Y-71842210D01*
X129794795Y-71929192D01*
X129679192Y-72044795D01*
X129592210Y-72183225D01*
X129538212Y-72337544D01*
X129519909Y-72499996D01*
X125188388Y-72499996D01*
X125308758Y-72424362D01*
X125424362Y-72308758D01*
X125451308Y-72265872D01*
X125503643Y-72219582D01*
X125572696Y-72208933D01*
X125583903Y-72210956D01*
X125587537Y-72211785D01*
X125587539Y-72211786D01*
X125587540Y-72211786D01*
X125587544Y-72211787D01*
X125749996Y-72230091D01*
X125750000Y-72230091D01*
X125750004Y-72230091D01*
X125912455Y-72211787D01*
X125912456Y-72211786D01*
X125912461Y-72211786D01*
X126066775Y-72157789D01*
X126205204Y-72070808D01*
X126320808Y-71955204D01*
X126407789Y-71816775D01*
X126461786Y-71662461D01*
X126471403Y-71577111D01*
X126480091Y-71500003D01*
X126480091Y-71499996D01*
X126461787Y-71337544D01*
X126461786Y-71337542D01*
X126461786Y-71337539D01*
X126407789Y-71183225D01*
X126320808Y-71044796D01*
X126287872Y-71011860D01*
X126254387Y-70950537D01*
X126259371Y-70880845D01*
X126301243Y-70824912D01*
X126361669Y-70800959D01*
X126419299Y-70794466D01*
X126487455Y-70786787D01*
X126487456Y-70786786D01*
X126487461Y-70786786D01*
X126641775Y-70732789D01*
X126703626Y-70693924D01*
X126770862Y-70674924D01*
X126837698Y-70695291D01*
X126882912Y-70748558D01*
X126886641Y-70757964D01*
X126888213Y-70762458D01*
X126888214Y-70762461D01*
X126901685Y-70800959D01*
X126942210Y-70916774D01*
X126976162Y-70970808D01*
X127029192Y-71055204D01*
X127144796Y-71170808D01*
X127283225Y-71257789D01*
X127437539Y-71311786D01*
X127437542Y-71311786D01*
X127437544Y-71311787D01*
X127599996Y-71330091D01*
X127600000Y-71330091D01*
X127600004Y-71330091D01*
X127762455Y-71311787D01*
X127762456Y-71311786D01*
X127762461Y-71311786D01*
X127916775Y-71257789D01*
X128055204Y-71170808D01*
X128170808Y-71055204D01*
X128257789Y-70916775D01*
X128311786Y-70762461D01*
X128312293Y-70757964D01*
X128313191Y-70749996D01*
X129769909Y-70749996D01*
X129769909Y-70750003D01*
X129788212Y-70912455D01*
X129842210Y-71066774D01*
X129881995Y-71130091D01*
X129929192Y-71205204D01*
X130044796Y-71320808D01*
X130183225Y-71407789D01*
X130337539Y-71461786D01*
X130337542Y-71461786D01*
X130337544Y-71461787D01*
X130499996Y-71480091D01*
X130500000Y-71480091D01*
X130500004Y-71480091D01*
X130662455Y-71461787D01*
X130662456Y-71461786D01*
X130662461Y-71461786D01*
X130816775Y-71407789D01*
X130955204Y-71320808D01*
X131070808Y-71205204D01*
X131096367Y-71164526D01*
X131148701Y-71118235D01*
X131217754Y-71107586D01*
X131230657Y-71110672D01*
X131230757Y-71110238D01*
X131237542Y-71111787D01*
X131399996Y-71130091D01*
X131400000Y-71130091D01*
X131400004Y-71130091D01*
X131562455Y-71111787D01*
X131562456Y-71111786D01*
X131562461Y-71111786D01*
X131716775Y-71057789D01*
X131855204Y-70970808D01*
X131970808Y-70855204D01*
X132057789Y-70716775D01*
X132111786Y-70562461D01*
X132113131Y-70550528D01*
X132130091Y-70400003D01*
X132130091Y-70399996D01*
X132111787Y-70237544D01*
X132111786Y-70237542D01*
X132111786Y-70237539D01*
X132057789Y-70083225D01*
X131970808Y-69944796D01*
X131855204Y-69829192D01*
X131800462Y-69794795D01*
X131716774Y-69742210D01*
X131562455Y-69688212D01*
X131400004Y-69669909D01*
X131399996Y-69669909D01*
X131237544Y-69688212D01*
X131083225Y-69742210D01*
X130944795Y-69829192D01*
X130829193Y-69944794D01*
X130803632Y-69985474D01*
X130751296Y-70031764D01*
X130682242Y-70042411D01*
X130669348Y-70039332D01*
X130669250Y-70039763D01*
X130662459Y-70038213D01*
X130500004Y-70019909D01*
X130499996Y-70019909D01*
X130337544Y-70038212D01*
X130183225Y-70092210D01*
X130044795Y-70179192D01*
X129929192Y-70294795D01*
X129842210Y-70433225D01*
X129788212Y-70587544D01*
X129769909Y-70749996D01*
X128313191Y-70749996D01*
X128330091Y-70600003D01*
X128330091Y-70599996D01*
X128311787Y-70437544D01*
X128311786Y-70437542D01*
X128311786Y-70437539D01*
X128257789Y-70283225D01*
X128170808Y-70144796D01*
X128055204Y-70029192D01*
X128055203Y-70029191D01*
X128021651Y-70008109D01*
X127975360Y-69955774D01*
X127964403Y-69889231D01*
X127969238Y-69846327D01*
X127975134Y-69793993D01*
X127980091Y-69750002D01*
X127980091Y-69749996D01*
X127961787Y-69587544D01*
X127961786Y-69587542D01*
X127961786Y-69587539D01*
X127907789Y-69433225D01*
X127820808Y-69294796D01*
X127705204Y-69179192D01*
X127566774Y-69092210D01*
X127412455Y-69038212D01*
X127250004Y-69019909D01*
X127249996Y-69019909D01*
X127087544Y-69038212D01*
X126933225Y-69092210D01*
X126794795Y-69179192D01*
X126679192Y-69294795D01*
X126679190Y-69294798D01*
X126662003Y-69322151D01*
X126609668Y-69368442D01*
X126540614Y-69379089D01*
X126516057Y-69373220D01*
X126487456Y-69363212D01*
X126487457Y-69363212D01*
X126325004Y-69344909D01*
X126324996Y-69344909D01*
X126162544Y-69363212D01*
X126008225Y-69417210D01*
X125869795Y-69504192D01*
X125754192Y-69619795D01*
X125667210Y-69758225D01*
X125613212Y-69912544D01*
X125594909Y-70074996D01*
X125594909Y-70075003D01*
X125613212Y-70237455D01*
X125613213Y-70237460D01*
X125613214Y-70237461D01*
X125615682Y-70244515D01*
X125667210Y-70391774D01*
X125754192Y-70530204D01*
X125787127Y-70563139D01*
X125820612Y-70624462D01*
X125815628Y-70694154D01*
X125773756Y-70750087D01*
X125713330Y-70774040D01*
X125587544Y-70788212D01*
X125433225Y-70842210D01*
X125294795Y-70929192D01*
X125179194Y-71044793D01*
X125179191Y-71044797D01*
X125152243Y-71087683D01*
X125099907Y-71133973D01*
X125030853Y-71144619D01*
X125019661Y-71142600D01*
X125016009Y-71141766D01*
X124853558Y-71123463D01*
X124853550Y-71123463D01*
X124691098Y-71141766D01*
X124536779Y-71195764D01*
X124398349Y-71282746D01*
X124282746Y-71398349D01*
X124195764Y-71536779D01*
X124141766Y-71691098D01*
X124123463Y-71853550D01*
X119903096Y-71853550D01*
X119955204Y-71820808D01*
X120070808Y-71705204D01*
X120157789Y-71566775D01*
X120211786Y-71412461D01*
X120211787Y-71412455D01*
X120230091Y-71250003D01*
X120230091Y-71249996D01*
X120211787Y-71087542D01*
X120208157Y-71077168D01*
X120204595Y-71007389D01*
X120239323Y-70946762D01*
X120284241Y-70919172D01*
X120316775Y-70907789D01*
X120455204Y-70820808D01*
X120570808Y-70705204D01*
X120657789Y-70566775D01*
X120711786Y-70412461D01*
X120712081Y-70409845D01*
X120730091Y-70250003D01*
X120730091Y-70249996D01*
X120711787Y-70087544D01*
X120711786Y-70087542D01*
X120711786Y-70087539D01*
X120657789Y-69933225D01*
X120570808Y-69794796D01*
X120455204Y-69679192D01*
X120428567Y-69662455D01*
X120316774Y-69592210D01*
X120162455Y-69538212D01*
X120016640Y-69521783D01*
X119964791Y-69499996D01*
X123769909Y-69499996D01*
X123769909Y-69500003D01*
X123788212Y-69662455D01*
X123842210Y-69816774D01*
X123913412Y-69930091D01*
X123929192Y-69955204D01*
X124044796Y-70070808D01*
X124183225Y-70157789D01*
X124337539Y-70211786D01*
X124337542Y-70211786D01*
X124337544Y-70211787D01*
X124499996Y-70230091D01*
X124500000Y-70230091D01*
X124500004Y-70230091D01*
X124662455Y-70211787D01*
X124662456Y-70211786D01*
X124662461Y-70211786D01*
X124816775Y-70157789D01*
X124955204Y-70070808D01*
X125070808Y-69955204D01*
X125157789Y-69816775D01*
X125211786Y-69662461D01*
X125213134Y-69650500D01*
X125230091Y-69500003D01*
X125230091Y-69499996D01*
X125211787Y-69337544D01*
X125211786Y-69337542D01*
X125211786Y-69337539D01*
X125157789Y-69183225D01*
X125070808Y-69044796D01*
X124955204Y-68929192D01*
X124816774Y-68842210D01*
X124662455Y-68788212D01*
X124500004Y-68769909D01*
X124499996Y-68769909D01*
X124337544Y-68788212D01*
X124183225Y-68842210D01*
X124044795Y-68929192D01*
X123929192Y-69044795D01*
X123842210Y-69183225D01*
X123788212Y-69337544D01*
X123769909Y-69499996D01*
X119964791Y-69499996D01*
X119952226Y-69494716D01*
X119912671Y-69437121D01*
X119910596Y-69369324D01*
X119910238Y-69369243D01*
X119910551Y-69367868D01*
X119910534Y-69367284D01*
X119911135Y-69365313D01*
X119911787Y-69362457D01*
X119930091Y-69200003D01*
X119930091Y-69199996D01*
X119911787Y-69037544D01*
X119911786Y-69037542D01*
X119911786Y-69037539D01*
X119857789Y-68883225D01*
X119770808Y-68744796D01*
X119655204Y-68629192D01*
X119516774Y-68542210D01*
X119362455Y-68488212D01*
X119200004Y-68469909D01*
X119199996Y-68469909D01*
X119037544Y-68488212D01*
X118883225Y-68542210D01*
X118744795Y-68629192D01*
X118629192Y-68744795D01*
X118542210Y-68883225D01*
X118488212Y-69037544D01*
X118469909Y-69199996D01*
X118469909Y-69200003D01*
X118488212Y-69362455D01*
X118488213Y-69362460D01*
X118488214Y-69362461D01*
X118491979Y-69373220D01*
X118542210Y-69516774D01*
X118629192Y-69655204D01*
X118744797Y-69770809D01*
X118781694Y-69793993D01*
X118827984Y-69846327D01*
X118838632Y-69915381D01*
X118810257Y-69979229D01*
X118751867Y-70017601D01*
X118729605Y-70022206D01*
X118587544Y-70038212D01*
X118433225Y-70092210D01*
X118294795Y-70179192D01*
X118179192Y-70294795D01*
X118092210Y-70433225D01*
X118038212Y-70587544D01*
X118019909Y-70749996D01*
X106181156Y-70749996D01*
X106211786Y-70662461D01*
X106213663Y-70645808D01*
X106224398Y-70550528D01*
X106228625Y-70513004D01*
X106255691Y-70448592D01*
X106310896Y-70409845D01*
X106316775Y-70407789D01*
X106455204Y-70320808D01*
X106570808Y-70205204D01*
X106657789Y-70066775D01*
X106711786Y-69912461D01*
X106711862Y-69911786D01*
X106730091Y-69750003D01*
X106730091Y-69749996D01*
X106711787Y-69587544D01*
X106711786Y-69587542D01*
X106711786Y-69587539D01*
X106657789Y-69433225D01*
X106570808Y-69294796D01*
X106476008Y-69199996D01*
X115269909Y-69199996D01*
X115269909Y-69200003D01*
X115288212Y-69362455D01*
X115288213Y-69362460D01*
X115288214Y-69362461D01*
X115291979Y-69373220D01*
X115342210Y-69516774D01*
X115355682Y-69538214D01*
X115429192Y-69655204D01*
X115544796Y-69770808D01*
X115683225Y-69857789D01*
X115837539Y-69911786D01*
X115837542Y-69911786D01*
X115837544Y-69911787D01*
X115999996Y-69930091D01*
X116000000Y-69930091D01*
X116000004Y-69930091D01*
X116162455Y-69911787D01*
X116162456Y-69911786D01*
X116162461Y-69911786D01*
X116316775Y-69857789D01*
X116455204Y-69770808D01*
X116570808Y-69655204D01*
X116657789Y-69516775D01*
X116711786Y-69362461D01*
X116713764Y-69344909D01*
X116730091Y-69200003D01*
X116730091Y-69199996D01*
X116711787Y-69037544D01*
X116711786Y-69037542D01*
X116711786Y-69037539D01*
X116657789Y-68883225D01*
X116570808Y-68744796D01*
X116455204Y-68629192D01*
X116316774Y-68542210D01*
X116162455Y-68488212D01*
X116000004Y-68469909D01*
X115999996Y-68469909D01*
X115837544Y-68488212D01*
X115683225Y-68542210D01*
X115544795Y-68629192D01*
X115429192Y-68744795D01*
X115342210Y-68883225D01*
X115288212Y-69037544D01*
X115269909Y-69199996D01*
X106476008Y-69199996D01*
X106455204Y-69179192D01*
X106316774Y-69092210D01*
X106162455Y-69038212D01*
X106000004Y-69019909D01*
X105999996Y-69019909D01*
X105837544Y-69038212D01*
X105683225Y-69092210D01*
X105544795Y-69179192D01*
X105429192Y-69294795D01*
X105342210Y-69433225D01*
X105288212Y-69587544D01*
X105271373Y-69736994D01*
X105244306Y-69801408D01*
X105189120Y-69840147D01*
X105183229Y-69842208D01*
X105044795Y-69929192D01*
X104929192Y-70044795D01*
X104842210Y-70183225D01*
X104788212Y-70337544D01*
X104769909Y-70499996D01*
X100400500Y-70499996D01*
X100400500Y-68000000D01*
X101094540Y-68000000D01*
X101114326Y-68188256D01*
X101114327Y-68188259D01*
X101172818Y-68368277D01*
X101172821Y-68368284D01*
X101267467Y-68532216D01*
X101394129Y-68672888D01*
X101547265Y-68784148D01*
X101547270Y-68784151D01*
X101720197Y-68861144D01*
X101778080Y-68873447D01*
X101839558Y-68906637D01*
X101870227Y-68956418D01*
X101922818Y-69118277D01*
X101922821Y-69118284D01*
X102017467Y-69282216D01*
X102139017Y-69417211D01*
X102144129Y-69422888D01*
X102297265Y-69534148D01*
X102297270Y-69534151D01*
X102470192Y-69611142D01*
X102470197Y-69611144D01*
X102655354Y-69650500D01*
X102655355Y-69650500D01*
X102844644Y-69650500D01*
X102844646Y-69650500D01*
X103029803Y-69611144D01*
X103202730Y-69534151D01*
X103355871Y-69422888D01*
X103482533Y-69282216D01*
X103577179Y-69118284D01*
X103635674Y-68938256D01*
X103655460Y-68750000D01*
X103635674Y-68561744D01*
X103577179Y-68381716D01*
X103482533Y-68217784D01*
X103355871Y-68077112D01*
X103353395Y-68075313D01*
X103202734Y-67965851D01*
X103202729Y-67965848D01*
X103029807Y-67888857D01*
X103029803Y-67888856D01*
X102971921Y-67876552D01*
X102910439Y-67843359D01*
X102879772Y-67793580D01*
X102868104Y-67757671D01*
X102837167Y-67662455D01*
X102827181Y-67631721D01*
X102827178Y-67631715D01*
X102754544Y-67505909D01*
X102751130Y-67499996D01*
X110519909Y-67499996D01*
X110519909Y-67500003D01*
X110538212Y-67662455D01*
X110592211Y-67816776D01*
X110671755Y-67943368D01*
X110690756Y-68010605D01*
X110671756Y-68075313D01*
X110623797Y-68151638D01*
X110569799Y-68305957D01*
X110551496Y-68468409D01*
X110551496Y-68468416D01*
X110569799Y-68630868D01*
X110623797Y-68785187D01*
X110671524Y-68861144D01*
X110710779Y-68923617D01*
X110826383Y-69039221D01*
X110964812Y-69126202D01*
X111119126Y-69180199D01*
X111119129Y-69180199D01*
X111119131Y-69180200D01*
X111281583Y-69198504D01*
X111281587Y-69198504D01*
X111281591Y-69198504D01*
X111444042Y-69180200D01*
X111444043Y-69180199D01*
X111444048Y-69180199D01*
X111598362Y-69126202D01*
X111736791Y-69039221D01*
X111852395Y-68923617D01*
X111939376Y-68785188D01*
X111993373Y-68630874D01*
X112004489Y-68532216D01*
X112011678Y-68468416D01*
X112011678Y-68468409D01*
X111993374Y-68305957D01*
X111993373Y-68305955D01*
X111993373Y-68305952D01*
X111939376Y-68151638D01*
X111859830Y-68025042D01*
X111840830Y-67957807D01*
X111859829Y-67893101D01*
X111907789Y-67816775D01*
X111961786Y-67662461D01*
X111964040Y-67642455D01*
X111980091Y-67500003D01*
X111980091Y-67499996D01*
X111961787Y-67337544D01*
X111961786Y-67337542D01*
X111961786Y-67337539D01*
X111907789Y-67183225D01*
X111820808Y-67044796D01*
X111705204Y-66929192D01*
X111615597Y-66872888D01*
X111566774Y-66842210D01*
X111412455Y-66788212D01*
X111250004Y-66769909D01*
X111249996Y-66769909D01*
X111087544Y-66788212D01*
X110933225Y-66842210D01*
X110794795Y-66929192D01*
X110679192Y-67044795D01*
X110592210Y-67183225D01*
X110538212Y-67337544D01*
X110519909Y-67499996D01*
X102751130Y-67499996D01*
X102732533Y-67467784D01*
X102605871Y-67327112D01*
X102605870Y-67327111D01*
X102452734Y-67215851D01*
X102452729Y-67215848D01*
X102279807Y-67138857D01*
X102279802Y-67138855D01*
X102134001Y-67107865D01*
X102094646Y-67099500D01*
X101905354Y-67099500D01*
X101872897Y-67106398D01*
X101720197Y-67138855D01*
X101720192Y-67138857D01*
X101547270Y-67215848D01*
X101547265Y-67215851D01*
X101394129Y-67327111D01*
X101267466Y-67467785D01*
X101172821Y-67631715D01*
X101172818Y-67631722D01*
X101131896Y-67757669D01*
X101114326Y-67811744D01*
X101094540Y-68000000D01*
X100400500Y-68000000D01*
X100400500Y-66200000D01*
X112294540Y-66200000D01*
X112314326Y-66388256D01*
X112314327Y-66388259D01*
X112372818Y-66568277D01*
X112372821Y-66568284D01*
X112467467Y-66732216D01*
X112566507Y-66842211D01*
X112594129Y-66872888D01*
X112747265Y-66984148D01*
X112747270Y-66984151D01*
X112920192Y-67061142D01*
X112920197Y-67061144D01*
X113105354Y-67100500D01*
X113105355Y-67100500D01*
X113294644Y-67100500D01*
X113294646Y-67100500D01*
X113479803Y-67061144D01*
X113652730Y-66984151D01*
X113805871Y-66872888D01*
X113916524Y-66749996D01*
X119019909Y-66749996D01*
X119019909Y-66750003D01*
X119038212Y-66912455D01*
X119092210Y-67066774D01*
X119165382Y-67183225D01*
X119179192Y-67205204D01*
X119294796Y-67320808D01*
X119433225Y-67407789D01*
X119587539Y-67461786D01*
X119587542Y-67461786D01*
X119587544Y-67461787D01*
X119749996Y-67480091D01*
X119750000Y-67480091D01*
X119750004Y-67480091D01*
X119912455Y-67461787D01*
X119912456Y-67461786D01*
X119912461Y-67461786D01*
X120066775Y-67407789D01*
X120205204Y-67320808D01*
X120320808Y-67205204D01*
X120407789Y-67066775D01*
X120461786Y-66912461D01*
X120466245Y-66872888D01*
X120480091Y-66750003D01*
X120480091Y-66749997D01*
X120480091Y-66749996D01*
X121269909Y-66749996D01*
X121269909Y-66750003D01*
X121288212Y-66912455D01*
X121342210Y-67066774D01*
X121415382Y-67183225D01*
X121429192Y-67205204D01*
X121544796Y-67320808D01*
X121683225Y-67407789D01*
X121837539Y-67461786D01*
X121837542Y-67461786D01*
X121837544Y-67461787D01*
X121926468Y-67471806D01*
X121990882Y-67498872D01*
X122030437Y-67556467D01*
X122035805Y-67608909D01*
X122019909Y-67749996D01*
X122019909Y-67750003D01*
X122038212Y-67912455D01*
X122092210Y-68066774D01*
X122098706Y-68077112D01*
X122179192Y-68205204D01*
X122294796Y-68320808D01*
X122433225Y-68407789D01*
X122587539Y-68461786D01*
X122587542Y-68461786D01*
X122587544Y-68461787D01*
X122749996Y-68480091D01*
X122750000Y-68480091D01*
X122750004Y-68480091D01*
X122912455Y-68461787D01*
X122912456Y-68461786D01*
X122912461Y-68461786D01*
X123066775Y-68407789D01*
X123205204Y-68320808D01*
X123320808Y-68205204D01*
X123407789Y-68066775D01*
X123447903Y-67952135D01*
X134249500Y-67952135D01*
X134249500Y-70047870D01*
X134249501Y-70047876D01*
X134255908Y-70107483D01*
X134306202Y-70242328D01*
X134306206Y-70242335D01*
X134392452Y-70357544D01*
X134392455Y-70357547D01*
X134507664Y-70443793D01*
X134507671Y-70443797D01*
X134642517Y-70494091D01*
X134642516Y-70494091D01*
X134649444Y-70494835D01*
X134702127Y-70500500D01*
X136797872Y-70500499D01*
X136857483Y-70494091D01*
X136992331Y-70443796D01*
X137107546Y-70357546D01*
X137150734Y-70299854D01*
X137206667Y-70257984D01*
X137276359Y-70253000D01*
X137337682Y-70286485D01*
X137349263Y-70299850D01*
X137392454Y-70357546D01*
X137438177Y-70391774D01*
X137507664Y-70443793D01*
X137507671Y-70443797D01*
X137642517Y-70494091D01*
X137642516Y-70494091D01*
X137649444Y-70494835D01*
X137702127Y-70500500D01*
X139797872Y-70500499D01*
X139857483Y-70494091D01*
X139992331Y-70443796D01*
X140107546Y-70357546D01*
X140150734Y-70299854D01*
X140206667Y-70257984D01*
X140276359Y-70253000D01*
X140337682Y-70286485D01*
X140349263Y-70299850D01*
X140392454Y-70357546D01*
X140438177Y-70391774D01*
X140507664Y-70443793D01*
X140507671Y-70443797D01*
X140642517Y-70494091D01*
X140642516Y-70494091D01*
X140649444Y-70494835D01*
X140702127Y-70500500D01*
X142797872Y-70500499D01*
X142857483Y-70494091D01*
X142992331Y-70443796D01*
X143107546Y-70357546D01*
X143150734Y-70299854D01*
X143206667Y-70257984D01*
X143276359Y-70253000D01*
X143337682Y-70286485D01*
X143349263Y-70299850D01*
X143392454Y-70357546D01*
X143438177Y-70391774D01*
X143507664Y-70443793D01*
X143507671Y-70443797D01*
X143642517Y-70494091D01*
X143642516Y-70494091D01*
X143649444Y-70494835D01*
X143702127Y-70500500D01*
X145797872Y-70500499D01*
X145857483Y-70494091D01*
X145992331Y-70443796D01*
X146107546Y-70357546D01*
X146150734Y-70299854D01*
X146206667Y-70257984D01*
X146276359Y-70253000D01*
X146337682Y-70286485D01*
X146349263Y-70299850D01*
X146392454Y-70357546D01*
X146438177Y-70391774D01*
X146507664Y-70443793D01*
X146507671Y-70443797D01*
X146642517Y-70494091D01*
X146642516Y-70494091D01*
X146649444Y-70494835D01*
X146702127Y-70500500D01*
X148797872Y-70500499D01*
X148857483Y-70494091D01*
X148992331Y-70443796D01*
X149107546Y-70357546D01*
X149193796Y-70242331D01*
X149244091Y-70107483D01*
X149250500Y-70047873D01*
X149250499Y-67952128D01*
X149244091Y-67892517D01*
X149238136Y-67876552D01*
X149193797Y-67757671D01*
X149193793Y-67757664D01*
X149107547Y-67642455D01*
X149107544Y-67642452D01*
X148992335Y-67556206D01*
X148992328Y-67556202D01*
X148857482Y-67505908D01*
X148857483Y-67505908D01*
X148797883Y-67499501D01*
X148797881Y-67499500D01*
X148797873Y-67499500D01*
X148797864Y-67499500D01*
X146702129Y-67499500D01*
X146702123Y-67499501D01*
X146642516Y-67505908D01*
X146507671Y-67556202D01*
X146507664Y-67556206D01*
X146392455Y-67642452D01*
X146349266Y-67700145D01*
X146293332Y-67742015D01*
X146223640Y-67746999D01*
X146162317Y-67713513D01*
X146150734Y-67700145D01*
X146122519Y-67662455D01*
X146107546Y-67642454D01*
X146107544Y-67642453D01*
X146107544Y-67642452D01*
X145992335Y-67556206D01*
X145992328Y-67556202D01*
X145857482Y-67505908D01*
X145857483Y-67505908D01*
X145797883Y-67499501D01*
X145797881Y-67499500D01*
X145797873Y-67499500D01*
X145797864Y-67499500D01*
X143702129Y-67499500D01*
X143702123Y-67499501D01*
X143642516Y-67505908D01*
X143507671Y-67556202D01*
X143507664Y-67556206D01*
X143392455Y-67642452D01*
X143349266Y-67700145D01*
X143293332Y-67742015D01*
X143223640Y-67746999D01*
X143162317Y-67713513D01*
X143150734Y-67700145D01*
X143122519Y-67662455D01*
X143107546Y-67642454D01*
X143107544Y-67642453D01*
X143107544Y-67642452D01*
X142992335Y-67556206D01*
X142992328Y-67556202D01*
X142857482Y-67505908D01*
X142857483Y-67505908D01*
X142797883Y-67499501D01*
X142797881Y-67499500D01*
X142797873Y-67499500D01*
X142797864Y-67499500D01*
X140702129Y-67499500D01*
X140702123Y-67499501D01*
X140642516Y-67505908D01*
X140507671Y-67556202D01*
X140507664Y-67556206D01*
X140392455Y-67642452D01*
X140349266Y-67700145D01*
X140293332Y-67742015D01*
X140223640Y-67746999D01*
X140162317Y-67713513D01*
X140150734Y-67700145D01*
X140122519Y-67662455D01*
X140107546Y-67642454D01*
X140107544Y-67642453D01*
X140107544Y-67642452D01*
X139992335Y-67556206D01*
X139992328Y-67556202D01*
X139857482Y-67505908D01*
X139857483Y-67505908D01*
X139797883Y-67499501D01*
X139797881Y-67499500D01*
X139797873Y-67499500D01*
X139797864Y-67499500D01*
X137702129Y-67499500D01*
X137702123Y-67499501D01*
X137642516Y-67505908D01*
X137507671Y-67556202D01*
X137507664Y-67556206D01*
X137392455Y-67642452D01*
X137349266Y-67700145D01*
X137293332Y-67742015D01*
X137223640Y-67746999D01*
X137162317Y-67713513D01*
X137150734Y-67700145D01*
X137122519Y-67662455D01*
X137107546Y-67642454D01*
X137107544Y-67642453D01*
X137107544Y-67642452D01*
X136992335Y-67556206D01*
X136992328Y-67556202D01*
X136857482Y-67505908D01*
X136857483Y-67505908D01*
X136797883Y-67499501D01*
X136797881Y-67499500D01*
X136797873Y-67499500D01*
X136797864Y-67499500D01*
X134702129Y-67499500D01*
X134702123Y-67499501D01*
X134642516Y-67505908D01*
X134507671Y-67556202D01*
X134507664Y-67556206D01*
X134392455Y-67642452D01*
X134392452Y-67642455D01*
X134306206Y-67757664D01*
X134306202Y-67757671D01*
X134255908Y-67892517D01*
X134249501Y-67952116D01*
X134249501Y-67952123D01*
X134249500Y-67952135D01*
X123447903Y-67952135D01*
X123461786Y-67912461D01*
X123464033Y-67892517D01*
X123480091Y-67750003D01*
X123480091Y-67749996D01*
X123461787Y-67587544D01*
X123461786Y-67587542D01*
X123461786Y-67587539D01*
X123407789Y-67433225D01*
X123320808Y-67294796D01*
X123205204Y-67179192D01*
X123066774Y-67092210D01*
X122912455Y-67038212D01*
X122823530Y-67028193D01*
X122759116Y-67001126D01*
X122719561Y-66943531D01*
X122714194Y-66891090D01*
X122725785Y-66788214D01*
X122728625Y-66763004D01*
X122755691Y-66698592D01*
X122810896Y-66659845D01*
X122816775Y-66657789D01*
X122955204Y-66570808D01*
X123070808Y-66455204D01*
X123157789Y-66316775D01*
X123211786Y-66162461D01*
X123211787Y-66162455D01*
X123230091Y-66000003D01*
X123230091Y-65999996D01*
X123211787Y-65837544D01*
X123211786Y-65837542D01*
X123211786Y-65837539D01*
X123181155Y-65750000D01*
X128594540Y-65750000D01*
X128614326Y-65938256D01*
X128614327Y-65938259D01*
X128672818Y-66118277D01*
X128672821Y-66118284D01*
X128767467Y-66282216D01*
X128820774Y-66341419D01*
X128894129Y-66422888D01*
X129047265Y-66534148D01*
X129047270Y-66534151D01*
X129220192Y-66611142D01*
X129220197Y-66611144D01*
X129405354Y-66650500D01*
X129405355Y-66650500D01*
X129594644Y-66650500D01*
X129594646Y-66650500D01*
X129779803Y-66611144D01*
X129952730Y-66534151D01*
X130105871Y-66422888D01*
X130232533Y-66282216D01*
X130327179Y-66118284D01*
X130385674Y-65938256D01*
X130405460Y-65750000D01*
X130385674Y-65561744D01*
X130327179Y-65381716D01*
X130232533Y-65217784D01*
X130105871Y-65077112D01*
X130044077Y-65032216D01*
X129952734Y-64965851D01*
X129952729Y-64965848D01*
X129779807Y-64888857D01*
X129779802Y-64888855D01*
X129634001Y-64857865D01*
X129594646Y-64849500D01*
X129405354Y-64849500D01*
X129372897Y-64856398D01*
X129220197Y-64888855D01*
X129220192Y-64888857D01*
X129047270Y-64965848D01*
X129047265Y-64965851D01*
X128894129Y-65077111D01*
X128767466Y-65217785D01*
X128672821Y-65381715D01*
X128672818Y-65381722D01*
X128614327Y-65561740D01*
X128614326Y-65561744D01*
X128594540Y-65750000D01*
X123181155Y-65750000D01*
X123157789Y-65683225D01*
X123070808Y-65544796D01*
X122955204Y-65429192D01*
X122909541Y-65400500D01*
X122816774Y-65342210D01*
X122662455Y-65288212D01*
X122500004Y-65269909D01*
X122499996Y-65269909D01*
X122337544Y-65288212D01*
X122183225Y-65342210D01*
X122044795Y-65429192D01*
X121929192Y-65544795D01*
X121842210Y-65683225D01*
X121788212Y-65837544D01*
X121771373Y-65986994D01*
X121744306Y-66051408D01*
X121689120Y-66090147D01*
X121683229Y-66092208D01*
X121544795Y-66179192D01*
X121429192Y-66294795D01*
X121342210Y-66433225D01*
X121288212Y-66587544D01*
X121269909Y-66749996D01*
X120480091Y-66749996D01*
X120477503Y-66727030D01*
X120489557Y-66658208D01*
X120534751Y-66608152D01*
X120554963Y-66595453D01*
X120670567Y-66479849D01*
X120757548Y-66341420D01*
X120811545Y-66187106D01*
X120814323Y-66162455D01*
X120829850Y-66024648D01*
X120829850Y-66024641D01*
X120811546Y-65862189D01*
X120811545Y-65862187D01*
X120811545Y-65862184D01*
X120757548Y-65707870D01*
X120670567Y-65569441D01*
X120554963Y-65453837D01*
X120416533Y-65366855D01*
X120262214Y-65312857D01*
X120099763Y-65294554D01*
X120099755Y-65294554D01*
X119937303Y-65312857D01*
X119782984Y-65366855D01*
X119644554Y-65453837D01*
X119528951Y-65569440D01*
X119441969Y-65707870D01*
X119387971Y-65862189D01*
X119369668Y-66024641D01*
X119369668Y-66024645D01*
X119371905Y-66044507D01*
X119372256Y-66047616D01*
X119360199Y-66116438D01*
X119315011Y-66166489D01*
X119294796Y-66179191D01*
X119179192Y-66294795D01*
X119092210Y-66433225D01*
X119038212Y-66587544D01*
X119019909Y-66749996D01*
X113916524Y-66749996D01*
X113932533Y-66732216D01*
X114027179Y-66568284D01*
X114085674Y-66388256D01*
X114105460Y-66200000D01*
X114085674Y-66011744D01*
X114027179Y-65831716D01*
X113932533Y-65667784D01*
X113805871Y-65527112D01*
X113805870Y-65527111D01*
X113652734Y-65415851D01*
X113652729Y-65415848D01*
X113479807Y-65338857D01*
X113479802Y-65338855D01*
X113334001Y-65307865D01*
X113294646Y-65299500D01*
X113105354Y-65299500D01*
X113072897Y-65306398D01*
X112920197Y-65338855D01*
X112920192Y-65338857D01*
X112747270Y-65415848D01*
X112747265Y-65415851D01*
X112594129Y-65527111D01*
X112467466Y-65667785D01*
X112372821Y-65831715D01*
X112372818Y-65831722D01*
X112318143Y-65999996D01*
X112314326Y-66011744D01*
X112294540Y-66200000D01*
X100400500Y-66200000D01*
X100400500Y-64000000D01*
X108594540Y-64000000D01*
X108614326Y-64188256D01*
X108614327Y-64188259D01*
X108672818Y-64368277D01*
X108672821Y-64368284D01*
X108767467Y-64532216D01*
X108894129Y-64672888D01*
X109047265Y-64784148D01*
X109047270Y-64784151D01*
X109220192Y-64861142D01*
X109220197Y-64861144D01*
X109405354Y-64900500D01*
X109405355Y-64900500D01*
X109594644Y-64900500D01*
X109594646Y-64900500D01*
X109779803Y-64861144D01*
X109952730Y-64784151D01*
X110105871Y-64672888D01*
X110232533Y-64532216D01*
X110251133Y-64500000D01*
X117594540Y-64500000D01*
X117614326Y-64688256D01*
X117614327Y-64688259D01*
X117672818Y-64868277D01*
X117672821Y-64868284D01*
X117767467Y-65032216D01*
X117807891Y-65077111D01*
X117894129Y-65172888D01*
X118047265Y-65284148D01*
X118047270Y-65284151D01*
X118220192Y-65361142D01*
X118220197Y-65361144D01*
X118405354Y-65400500D01*
X118405355Y-65400500D01*
X118594644Y-65400500D01*
X118594646Y-65400500D01*
X118779803Y-65361144D01*
X118952730Y-65284151D01*
X119105871Y-65172888D01*
X119232533Y-65032216D01*
X119327179Y-64868284D01*
X119385674Y-64688256D01*
X119405460Y-64500000D01*
X119385674Y-64311744D01*
X119327179Y-64131716D01*
X119232533Y-63967784D01*
X119105871Y-63827112D01*
X119105870Y-63827111D01*
X118952734Y-63715851D01*
X118952729Y-63715848D01*
X118779807Y-63638857D01*
X118779802Y-63638855D01*
X118634001Y-63607865D01*
X118594646Y-63599500D01*
X118405354Y-63599500D01*
X118372897Y-63606398D01*
X118220197Y-63638855D01*
X118220192Y-63638857D01*
X118047270Y-63715848D01*
X118047265Y-63715851D01*
X117894129Y-63827111D01*
X117767466Y-63967785D01*
X117672821Y-64131715D01*
X117672818Y-64131722D01*
X117614327Y-64311740D01*
X117614326Y-64311744D01*
X117594540Y-64500000D01*
X110251133Y-64500000D01*
X110327179Y-64368284D01*
X110385674Y-64188256D01*
X110405460Y-64000000D01*
X110385674Y-63811744D01*
X110327179Y-63631716D01*
X110251131Y-63499996D01*
X126269909Y-63499996D01*
X126269909Y-63500003D01*
X126288212Y-63662455D01*
X126342210Y-63816774D01*
X126348706Y-63827112D01*
X126429192Y-63955204D01*
X126544796Y-64070808D01*
X126683225Y-64157789D01*
X126837539Y-64211786D01*
X126837542Y-64211786D01*
X126837544Y-64211787D01*
X126999996Y-64230091D01*
X127000000Y-64230091D01*
X127000004Y-64230091D01*
X127162455Y-64211787D01*
X127162456Y-64211786D01*
X127162461Y-64211786D01*
X127316775Y-64157789D01*
X127455204Y-64070808D01*
X127570808Y-63955204D01*
X127645006Y-63837119D01*
X127697341Y-63790828D01*
X127766395Y-63780180D01*
X127830243Y-63808555D01*
X127854994Y-63837119D01*
X127929192Y-63955204D01*
X128044796Y-64070808D01*
X128183225Y-64157789D01*
X128337539Y-64211786D01*
X128337542Y-64211786D01*
X128337544Y-64211787D01*
X128499996Y-64230091D01*
X128500000Y-64230091D01*
X128500004Y-64230091D01*
X128662455Y-64211787D01*
X128662456Y-64211786D01*
X128662461Y-64211786D01*
X128816775Y-64157789D01*
X128955204Y-64070808D01*
X129070808Y-63955204D01*
X129157789Y-63816775D01*
X129211786Y-63662461D01*
X129214446Y-63638855D01*
X129230091Y-63500003D01*
X129230091Y-63499996D01*
X129211787Y-63337544D01*
X129211786Y-63337542D01*
X129211786Y-63337539D01*
X129157789Y-63183225D01*
X129097411Y-63087135D01*
X134249500Y-63087135D01*
X134249500Y-65182870D01*
X134249501Y-65182876D01*
X134255908Y-65242483D01*
X134306202Y-65377328D01*
X134306206Y-65377335D01*
X134392452Y-65492544D01*
X134392455Y-65492547D01*
X134507664Y-65578793D01*
X134507671Y-65578797D01*
X134642517Y-65629091D01*
X134642516Y-65629091D01*
X134649444Y-65629835D01*
X134702127Y-65635500D01*
X136797872Y-65635499D01*
X136857483Y-65629091D01*
X136992331Y-65578796D01*
X137107546Y-65492546D01*
X137150734Y-65434854D01*
X137206667Y-65392984D01*
X137276359Y-65388000D01*
X137337682Y-65421485D01*
X137349263Y-65434850D01*
X137392454Y-65492546D01*
X137438627Y-65527111D01*
X137507664Y-65578793D01*
X137507671Y-65578797D01*
X137642517Y-65629091D01*
X137642516Y-65629091D01*
X137649444Y-65629835D01*
X137702127Y-65635500D01*
X139797872Y-65635499D01*
X139857483Y-65629091D01*
X139992331Y-65578796D01*
X140107546Y-65492546D01*
X140150734Y-65434854D01*
X140206667Y-65392984D01*
X140276359Y-65388000D01*
X140337682Y-65421485D01*
X140349263Y-65434850D01*
X140392454Y-65492546D01*
X140438627Y-65527111D01*
X140507664Y-65578793D01*
X140507671Y-65578797D01*
X140642517Y-65629091D01*
X140642516Y-65629091D01*
X140649444Y-65629835D01*
X140702127Y-65635500D01*
X142797872Y-65635499D01*
X142857483Y-65629091D01*
X142992331Y-65578796D01*
X143107546Y-65492546D01*
X143150734Y-65434854D01*
X143206667Y-65392984D01*
X143276359Y-65388000D01*
X143337682Y-65421485D01*
X143349263Y-65434850D01*
X143392454Y-65492546D01*
X143438627Y-65527111D01*
X143507664Y-65578793D01*
X143507671Y-65578797D01*
X143642517Y-65629091D01*
X143642516Y-65629091D01*
X143649444Y-65629835D01*
X143702127Y-65635500D01*
X145797872Y-65635499D01*
X145857483Y-65629091D01*
X145992331Y-65578796D01*
X146107546Y-65492546D01*
X146150734Y-65434854D01*
X146206667Y-65392984D01*
X146276359Y-65388000D01*
X146337682Y-65421485D01*
X146349263Y-65434850D01*
X146392454Y-65492546D01*
X146438627Y-65527111D01*
X146507664Y-65578793D01*
X146507671Y-65578797D01*
X146642517Y-65629091D01*
X146642516Y-65629091D01*
X146649444Y-65629835D01*
X146702127Y-65635500D01*
X148797872Y-65635499D01*
X148857483Y-65629091D01*
X148992331Y-65578796D01*
X149107546Y-65492546D01*
X149193796Y-65377331D01*
X149244091Y-65242483D01*
X149250500Y-65182873D01*
X149250499Y-63087128D01*
X149244091Y-63027517D01*
X149233356Y-62998736D01*
X149193797Y-62892671D01*
X149193793Y-62892664D01*
X149107547Y-62777455D01*
X149107544Y-62777452D01*
X148992335Y-62691206D01*
X148992328Y-62691202D01*
X148857482Y-62640908D01*
X148857483Y-62640908D01*
X148797883Y-62634501D01*
X148797881Y-62634500D01*
X148797873Y-62634500D01*
X148797864Y-62634500D01*
X146702129Y-62634500D01*
X146702123Y-62634501D01*
X146642516Y-62640908D01*
X146507671Y-62691202D01*
X146507664Y-62691206D01*
X146392455Y-62777452D01*
X146349266Y-62835145D01*
X146293332Y-62877015D01*
X146223640Y-62881999D01*
X146162317Y-62848513D01*
X146150734Y-62835145D01*
X146115599Y-62788212D01*
X146107546Y-62777454D01*
X146107544Y-62777453D01*
X146107544Y-62777452D01*
X145992335Y-62691206D01*
X145992328Y-62691202D01*
X145857482Y-62640908D01*
X145857483Y-62640908D01*
X145797883Y-62634501D01*
X145797881Y-62634500D01*
X145797873Y-62634500D01*
X145797864Y-62634500D01*
X143702129Y-62634500D01*
X143702123Y-62634501D01*
X143642516Y-62640908D01*
X143507671Y-62691202D01*
X143507664Y-62691206D01*
X143392455Y-62777452D01*
X143349266Y-62835145D01*
X143293332Y-62877015D01*
X143223640Y-62881999D01*
X143162317Y-62848513D01*
X143150734Y-62835145D01*
X143115599Y-62788212D01*
X143107546Y-62777454D01*
X143107544Y-62777453D01*
X143107544Y-62777452D01*
X142992335Y-62691206D01*
X142992328Y-62691202D01*
X142857482Y-62640908D01*
X142857483Y-62640908D01*
X142797883Y-62634501D01*
X142797881Y-62634500D01*
X142797873Y-62634500D01*
X142797864Y-62634500D01*
X140702129Y-62634500D01*
X140702123Y-62634501D01*
X140642516Y-62640908D01*
X140507671Y-62691202D01*
X140507664Y-62691206D01*
X140392455Y-62777452D01*
X140349266Y-62835145D01*
X140293332Y-62877015D01*
X140223640Y-62881999D01*
X140162317Y-62848513D01*
X140150734Y-62835145D01*
X140115599Y-62788212D01*
X140107546Y-62777454D01*
X140107544Y-62777453D01*
X140107544Y-62777452D01*
X139992335Y-62691206D01*
X139992328Y-62691202D01*
X139857482Y-62640908D01*
X139857483Y-62640908D01*
X139797883Y-62634501D01*
X139797881Y-62634500D01*
X139797873Y-62634500D01*
X139797864Y-62634500D01*
X137702129Y-62634500D01*
X137702123Y-62634501D01*
X137642516Y-62640908D01*
X137507671Y-62691202D01*
X137507664Y-62691206D01*
X137392455Y-62777452D01*
X137349266Y-62835145D01*
X137293332Y-62877015D01*
X137223640Y-62881999D01*
X137162317Y-62848513D01*
X137150734Y-62835145D01*
X137115599Y-62788212D01*
X137107546Y-62777454D01*
X137107544Y-62777453D01*
X137107544Y-62777452D01*
X136992335Y-62691206D01*
X136992328Y-62691202D01*
X136857482Y-62640908D01*
X136857483Y-62640908D01*
X136797883Y-62634501D01*
X136797881Y-62634500D01*
X136797873Y-62634500D01*
X136797864Y-62634500D01*
X134702129Y-62634500D01*
X134702123Y-62634501D01*
X134642516Y-62640908D01*
X134507671Y-62691202D01*
X134507664Y-62691206D01*
X134392455Y-62777452D01*
X134392452Y-62777455D01*
X134306206Y-62892664D01*
X134306202Y-62892671D01*
X134255908Y-63027517D01*
X134249501Y-63087116D01*
X134249501Y-63087123D01*
X134249500Y-63087135D01*
X129097411Y-63087135D01*
X129084113Y-63065971D01*
X129065113Y-62998736D01*
X129084114Y-62934027D01*
X129110105Y-62892664D01*
X129157789Y-62816775D01*
X129211786Y-62662461D01*
X129212081Y-62659845D01*
X129230091Y-62500003D01*
X129230091Y-62499996D01*
X129211787Y-62337544D01*
X129211786Y-62337542D01*
X129211786Y-62337539D01*
X129157789Y-62183225D01*
X129070808Y-62044796D01*
X128955204Y-61929192D01*
X128858259Y-61868277D01*
X128816774Y-61842210D01*
X128662455Y-61788212D01*
X128500004Y-61769909D01*
X128499996Y-61769909D01*
X128337544Y-61788212D01*
X128183225Y-61842210D01*
X128044795Y-61929192D01*
X127929192Y-62044795D01*
X127842210Y-62183225D01*
X127788212Y-62337544D01*
X127769909Y-62499996D01*
X127769909Y-62500003D01*
X127788212Y-62662455D01*
X127842210Y-62816774D01*
X127915886Y-62934028D01*
X127934886Y-63001265D01*
X127915885Y-63065972D01*
X127854993Y-63162880D01*
X127802659Y-63209171D01*
X127733605Y-63219819D01*
X127669757Y-63191444D01*
X127645007Y-63162881D01*
X127570809Y-63044797D01*
X127455204Y-62929192D01*
X127316774Y-62842210D01*
X127162455Y-62788212D01*
X127000004Y-62769909D01*
X126999996Y-62769909D01*
X126837544Y-62788212D01*
X126683225Y-62842210D01*
X126544795Y-62929192D01*
X126429192Y-63044795D01*
X126342210Y-63183225D01*
X126288212Y-63337544D01*
X126269909Y-63499996D01*
X110251131Y-63499996D01*
X110232533Y-63467784D01*
X110105871Y-63327112D01*
X110105870Y-63327111D01*
X109952734Y-63215851D01*
X109952729Y-63215848D01*
X109779807Y-63138857D01*
X109779802Y-63138855D01*
X109634001Y-63107865D01*
X109594646Y-63099500D01*
X109405354Y-63099500D01*
X109372897Y-63106398D01*
X109220197Y-63138855D01*
X109220192Y-63138857D01*
X109047270Y-63215848D01*
X109047265Y-63215851D01*
X108894129Y-63327111D01*
X108767466Y-63467785D01*
X108672821Y-63631715D01*
X108672818Y-63631722D01*
X108621122Y-63790828D01*
X108614326Y-63811744D01*
X108594540Y-64000000D01*
X100400500Y-64000000D01*
X100400500Y-62749996D01*
X101019909Y-62749996D01*
X101019909Y-62750003D01*
X101038212Y-62912455D01*
X101092210Y-63066774D01*
X101165380Y-63183223D01*
X101179192Y-63205204D01*
X101294796Y-63320808D01*
X101433225Y-63407789D01*
X101587539Y-63461786D01*
X101587542Y-63461786D01*
X101587544Y-63461787D01*
X101749996Y-63480091D01*
X101750000Y-63480091D01*
X101750004Y-63480091D01*
X101912455Y-63461787D01*
X101912456Y-63461786D01*
X101912461Y-63461786D01*
X102066775Y-63407789D01*
X102205204Y-63320808D01*
X102320808Y-63205204D01*
X102407789Y-63066775D01*
X102461786Y-62912461D01*
X102478625Y-62763004D01*
X102505691Y-62698592D01*
X102560896Y-62659845D01*
X102566775Y-62657789D01*
X102705204Y-62570808D01*
X102820808Y-62455204D01*
X102907789Y-62316775D01*
X102961786Y-62162461D01*
X102966764Y-62118284D01*
X102980091Y-62000003D01*
X102980091Y-61999996D01*
X102961787Y-61837544D01*
X102961786Y-61837542D01*
X102961786Y-61837539D01*
X102907789Y-61683225D01*
X102820808Y-61544796D01*
X102705204Y-61429192D01*
X102681491Y-61414292D01*
X102566774Y-61342210D01*
X102412455Y-61288212D01*
X102250004Y-61269909D01*
X102249996Y-61269909D01*
X102087544Y-61288212D01*
X101933225Y-61342210D01*
X101794795Y-61429192D01*
X101679192Y-61544795D01*
X101592210Y-61683225D01*
X101538212Y-61837544D01*
X101521373Y-61986994D01*
X101494306Y-62051408D01*
X101439120Y-62090147D01*
X101433229Y-62092208D01*
X101294795Y-62179192D01*
X101179192Y-62294795D01*
X101092210Y-62433225D01*
X101038212Y-62587544D01*
X101019909Y-62749996D01*
X100400500Y-62749996D01*
X100400500Y-60750000D01*
X105094540Y-60750000D01*
X105114326Y-60938256D01*
X105114327Y-60938259D01*
X105172818Y-61118277D01*
X105172821Y-61118284D01*
X105267467Y-61282216D01*
X105357063Y-61381722D01*
X105394129Y-61422888D01*
X105552527Y-61537971D01*
X105551092Y-61539944D01*
X105591699Y-61582530D01*
X105604924Y-61651137D01*
X105604806Y-61652313D01*
X105594540Y-61749999D01*
X105594540Y-61750000D01*
X105614326Y-61938256D01*
X105614327Y-61938259D01*
X105672818Y-62118277D01*
X105672821Y-62118284D01*
X105767467Y-62282216D01*
X105873971Y-62400500D01*
X105894129Y-62422888D01*
X106047265Y-62534148D01*
X106047270Y-62534151D01*
X106220192Y-62611142D01*
X106220197Y-62611144D01*
X106405354Y-62650500D01*
X106405355Y-62650500D01*
X106594644Y-62650500D01*
X106594646Y-62650500D01*
X106779803Y-62611144D01*
X106952730Y-62534151D01*
X107105871Y-62422888D01*
X107232533Y-62282216D01*
X107327179Y-62118284D01*
X107385674Y-61938256D01*
X107405460Y-61750000D01*
X107385674Y-61561744D01*
X107365612Y-61500000D01*
X109594540Y-61500000D01*
X109614326Y-61688256D01*
X109614327Y-61688259D01*
X109672818Y-61868277D01*
X109672821Y-61868284D01*
X109767467Y-62032216D01*
X109894129Y-62172888D01*
X110047265Y-62284148D01*
X110047270Y-62284151D01*
X110220192Y-62361142D01*
X110220197Y-62361144D01*
X110405354Y-62400500D01*
X110405355Y-62400500D01*
X110594644Y-62400500D01*
X110594646Y-62400500D01*
X110779803Y-62361144D01*
X110952730Y-62284151D01*
X111105871Y-62172888D01*
X111232533Y-62032216D01*
X111327179Y-61868284D01*
X111385674Y-61688256D01*
X111405460Y-61500000D01*
X111385674Y-61311744D01*
X111327179Y-61131716D01*
X111232533Y-60967784D01*
X111105871Y-60827112D01*
X111105870Y-60827111D01*
X110999730Y-60749996D01*
X128519909Y-60749996D01*
X128519909Y-60750000D01*
X128538212Y-60912455D01*
X128592210Y-61066774D01*
X128633016Y-61131716D01*
X128679192Y-61205204D01*
X128794796Y-61320808D01*
X128933225Y-61407789D01*
X129087539Y-61461786D01*
X129087542Y-61461786D01*
X129087544Y-61461787D01*
X129249996Y-61480091D01*
X129250000Y-61480091D01*
X129250004Y-61480091D01*
X129412455Y-61461787D01*
X129412456Y-61461786D01*
X129412461Y-61461786D01*
X129566775Y-61407789D01*
X129658330Y-61350260D01*
X129725565Y-61331260D01*
X129792401Y-61351627D01*
X129837615Y-61404894D01*
X129841341Y-61414292D01*
X129842209Y-61416772D01*
X129842211Y-61416775D01*
X129929192Y-61555204D01*
X130044796Y-61670808D01*
X130183225Y-61757789D01*
X130337539Y-61811786D01*
X130337542Y-61811786D01*
X130337544Y-61811787D01*
X130499996Y-61830091D01*
X130500000Y-61830091D01*
X130500004Y-61830091D01*
X130662455Y-61811787D01*
X130662456Y-61811786D01*
X130662461Y-61811786D01*
X130816775Y-61757789D01*
X130955204Y-61670808D01*
X131070808Y-61555204D01*
X131157789Y-61416775D01*
X131211786Y-61262461D01*
X131216820Y-61217784D01*
X131230091Y-61100003D01*
X131230091Y-61099996D01*
X131211787Y-60937544D01*
X131211786Y-60937542D01*
X131211786Y-60937539D01*
X131157789Y-60783225D01*
X131070808Y-60644796D01*
X131033752Y-60607740D01*
X131000267Y-60546417D01*
X131003586Y-60500000D01*
X139594540Y-60500000D01*
X139614326Y-60688256D01*
X139614327Y-60688259D01*
X139672818Y-60868277D01*
X139672821Y-60868284D01*
X139767467Y-61032216D01*
X139857063Y-61131722D01*
X139894129Y-61172888D01*
X140047265Y-61284148D01*
X140047270Y-61284151D01*
X140220192Y-61361142D01*
X140220197Y-61361144D01*
X140405354Y-61400500D01*
X140405355Y-61400500D01*
X140594644Y-61400500D01*
X140594646Y-61400500D01*
X140779803Y-61361144D01*
X140952730Y-61284151D01*
X141105871Y-61172888D01*
X141232533Y-61032216D01*
X141327179Y-60868284D01*
X141385674Y-60688256D01*
X141405460Y-60500000D01*
X141385674Y-60311744D01*
X141327179Y-60131716D01*
X141232533Y-59967784D01*
X141105871Y-59827112D01*
X141105870Y-59827111D01*
X140952734Y-59715851D01*
X140952729Y-59715848D01*
X140779807Y-59638857D01*
X140779802Y-59638855D01*
X140634001Y-59607865D01*
X140594646Y-59599500D01*
X140405354Y-59599500D01*
X140372897Y-59606398D01*
X140220197Y-59638855D01*
X140220192Y-59638857D01*
X140047270Y-59715848D01*
X140047265Y-59715851D01*
X139894129Y-59827111D01*
X139767466Y-59967785D01*
X139672821Y-60131715D01*
X139672818Y-60131722D01*
X139618848Y-60297827D01*
X139614326Y-60311744D01*
X139594540Y-60500000D01*
X131003586Y-60500000D01*
X131005251Y-60476725D01*
X131047123Y-60420792D01*
X131112587Y-60396375D01*
X131147212Y-60398769D01*
X131155354Y-60400500D01*
X131155357Y-60400500D01*
X131344644Y-60400500D01*
X131344646Y-60400500D01*
X131529803Y-60361144D01*
X131702730Y-60284151D01*
X131855871Y-60172888D01*
X131982533Y-60032216D01*
X132077179Y-59868284D01*
X132132682Y-59697465D01*
X136014200Y-59697465D01*
X136014200Y-59834534D01*
X136040937Y-59968949D01*
X136040940Y-59968961D01*
X136093386Y-60095578D01*
X136093393Y-60095591D01*
X136169536Y-60209546D01*
X136169539Y-60209550D01*
X136266449Y-60306460D01*
X136266453Y-60306463D01*
X136380408Y-60382606D01*
X136380421Y-60382613D01*
X136507038Y-60435059D01*
X136507043Y-60435061D01*
X136641465Y-60461799D01*
X136641469Y-60461800D01*
X136641470Y-60461800D01*
X136778531Y-60461800D01*
X136778532Y-60461799D01*
X136912957Y-60435061D01*
X137039585Y-60382610D01*
X137153547Y-60306463D01*
X137250463Y-60209547D01*
X137326610Y-60095585D01*
X137328863Y-60090147D01*
X137352859Y-60032214D01*
X137379061Y-59968957D01*
X137405800Y-59834530D01*
X137405800Y-59697470D01*
X137379061Y-59563043D01*
X137371503Y-59544796D01*
X137326613Y-59436421D01*
X137326606Y-59436408D01*
X137250463Y-59322453D01*
X137250460Y-59322449D01*
X137153550Y-59225539D01*
X137153546Y-59225536D01*
X137039591Y-59149393D01*
X137039578Y-59149386D01*
X136912961Y-59096940D01*
X136912949Y-59096937D01*
X136778534Y-59070200D01*
X136778530Y-59070200D01*
X136641470Y-59070200D01*
X136641465Y-59070200D01*
X136507050Y-59096937D01*
X136507038Y-59096940D01*
X136380421Y-59149386D01*
X136380408Y-59149393D01*
X136266453Y-59225536D01*
X136266449Y-59225539D01*
X136169539Y-59322449D01*
X136169536Y-59322453D01*
X136093393Y-59436408D01*
X136093386Y-59436421D01*
X136040940Y-59563038D01*
X136040937Y-59563050D01*
X136014200Y-59697465D01*
X132132682Y-59697465D01*
X132135674Y-59688256D01*
X132155460Y-59500000D01*
X132135674Y-59311744D01*
X132077179Y-59131716D01*
X131982533Y-58967784D01*
X131855871Y-58827112D01*
X131855870Y-58827111D01*
X131702734Y-58715851D01*
X131702729Y-58715848D01*
X131625505Y-58681465D01*
X141094200Y-58681465D01*
X141094200Y-58818534D01*
X141120937Y-58952949D01*
X141120940Y-58952961D01*
X141173386Y-59079578D01*
X141173393Y-59079591D01*
X141249536Y-59193546D01*
X141249539Y-59193550D01*
X141346449Y-59290460D01*
X141346453Y-59290463D01*
X141460408Y-59366606D01*
X141460421Y-59366613D01*
X141498576Y-59382417D01*
X141587043Y-59419061D01*
X141707358Y-59442993D01*
X141721465Y-59445799D01*
X141721469Y-59445800D01*
X141721470Y-59445800D01*
X141858531Y-59445800D01*
X141858532Y-59445799D01*
X141992957Y-59419061D01*
X142119585Y-59366610D01*
X142233547Y-59290463D01*
X142330463Y-59193547D01*
X142406610Y-59079585D01*
X142459061Y-58952957D01*
X142485800Y-58818530D01*
X142485800Y-58681470D01*
X142459061Y-58547043D01*
X142459059Y-58547038D01*
X142406613Y-58420421D01*
X142406606Y-58420408D01*
X142330463Y-58306453D01*
X142330460Y-58306449D01*
X142233550Y-58209539D01*
X142233546Y-58209536D01*
X142222500Y-58202155D01*
X146250000Y-58202155D01*
X146250000Y-59000000D01*
X147316988Y-59000000D01*
X147284075Y-59057007D01*
X147250000Y-59184174D01*
X147250000Y-59315826D01*
X147284075Y-59442993D01*
X147316988Y-59500000D01*
X146250000Y-59500000D01*
X146250000Y-60297844D01*
X146256401Y-60357372D01*
X146256403Y-60357379D01*
X146306645Y-60492086D01*
X146306649Y-60492093D01*
X146392809Y-60607187D01*
X146392812Y-60607190D01*
X146507906Y-60693350D01*
X146507913Y-60693354D01*
X146642620Y-60743596D01*
X146642627Y-60743598D01*
X146702155Y-60749999D01*
X146702172Y-60750000D01*
X147500000Y-60750000D01*
X147500000Y-59683012D01*
X147557007Y-59715925D01*
X147684174Y-59750000D01*
X147815826Y-59750000D01*
X147942993Y-59715925D01*
X148000000Y-59683012D01*
X148000000Y-60750000D01*
X148797828Y-60750000D01*
X148797844Y-60749999D01*
X148857372Y-60743598D01*
X148857379Y-60743596D01*
X148992086Y-60693354D01*
X148992093Y-60693350D01*
X149107187Y-60607190D01*
X149107190Y-60607187D01*
X149193350Y-60492093D01*
X149193354Y-60492086D01*
X149243596Y-60357379D01*
X149243598Y-60357372D01*
X149249999Y-60297844D01*
X149250000Y-60297827D01*
X149250000Y-59500000D01*
X148183012Y-59500000D01*
X148215925Y-59442993D01*
X148250000Y-59315826D01*
X148250000Y-59184174D01*
X148215925Y-59057007D01*
X148183012Y-59000000D01*
X149250000Y-59000000D01*
X149250000Y-58202172D01*
X149249999Y-58202155D01*
X149243598Y-58142627D01*
X149243596Y-58142620D01*
X149193354Y-58007913D01*
X149193350Y-58007906D01*
X149107190Y-57892812D01*
X149107187Y-57892809D01*
X148992093Y-57806649D01*
X148992086Y-57806645D01*
X148857379Y-57756403D01*
X148857372Y-57756401D01*
X148797844Y-57750000D01*
X148000000Y-57750000D01*
X148000000Y-58816988D01*
X147942993Y-58784075D01*
X147815826Y-58750000D01*
X147684174Y-58750000D01*
X147557007Y-58784075D01*
X147500000Y-58816988D01*
X147500000Y-57750000D01*
X146702155Y-57750000D01*
X146642627Y-57756401D01*
X146642620Y-57756403D01*
X146507913Y-57806645D01*
X146507906Y-57806649D01*
X146392812Y-57892809D01*
X146392809Y-57892812D01*
X146306649Y-58007906D01*
X146306645Y-58007913D01*
X146256403Y-58142620D01*
X146256401Y-58142627D01*
X146250000Y-58202155D01*
X142222500Y-58202155D01*
X142119591Y-58133393D01*
X142119578Y-58133386D01*
X141992961Y-58080940D01*
X141992949Y-58080937D01*
X141858534Y-58054200D01*
X141858530Y-58054200D01*
X141721470Y-58054200D01*
X141721465Y-58054200D01*
X141587050Y-58080937D01*
X141587038Y-58080940D01*
X141460421Y-58133386D01*
X141460408Y-58133393D01*
X141346453Y-58209536D01*
X141346449Y-58209539D01*
X141249539Y-58306449D01*
X141249536Y-58306453D01*
X141173393Y-58420408D01*
X141173386Y-58420421D01*
X141120940Y-58547038D01*
X141120937Y-58547050D01*
X141094200Y-58681465D01*
X131625505Y-58681465D01*
X131529807Y-58638857D01*
X131529802Y-58638855D01*
X131384001Y-58607865D01*
X131344646Y-58599500D01*
X131155354Y-58599500D01*
X131122897Y-58606398D01*
X130970197Y-58638855D01*
X130970192Y-58638857D01*
X130797270Y-58715848D01*
X130797265Y-58715851D01*
X130644129Y-58827111D01*
X130517466Y-58967785D01*
X130422821Y-59131715D01*
X130422818Y-59131722D01*
X130364327Y-59311740D01*
X130364326Y-59311744D01*
X130363689Y-59317804D01*
X130337105Y-59382417D01*
X130279807Y-59422401D01*
X130209988Y-59425061D01*
X130174397Y-59409834D01*
X130066774Y-59342210D01*
X129918888Y-59290463D01*
X129912461Y-59288214D01*
X129912460Y-59288213D01*
X129912455Y-59288212D01*
X129750004Y-59269909D01*
X129749996Y-59269909D01*
X129587544Y-59288212D01*
X129433225Y-59342210D01*
X129294795Y-59429192D01*
X129179192Y-59544795D01*
X129092210Y-59683225D01*
X129038212Y-59837544D01*
X129021373Y-59986994D01*
X128994306Y-60051408D01*
X128939120Y-60090147D01*
X128933229Y-60092208D01*
X128794795Y-60179192D01*
X128679192Y-60294795D01*
X128592210Y-60433225D01*
X128538212Y-60587544D01*
X128519909Y-60749996D01*
X110999730Y-60749996D01*
X110952734Y-60715851D01*
X110952729Y-60715848D01*
X110779807Y-60638857D01*
X110779802Y-60638855D01*
X110630811Y-60607187D01*
X110594646Y-60599500D01*
X110405354Y-60599500D01*
X110372897Y-60606398D01*
X110220197Y-60638855D01*
X110220192Y-60638857D01*
X110047270Y-60715848D01*
X110047265Y-60715851D01*
X109894129Y-60827111D01*
X109767466Y-60967785D01*
X109672821Y-61131715D01*
X109672818Y-61131722D01*
X109621972Y-61288212D01*
X109614326Y-61311744D01*
X109594540Y-61500000D01*
X107365612Y-61500000D01*
X107327179Y-61381716D01*
X107232533Y-61217784D01*
X107105871Y-61077112D01*
X107105870Y-61077111D01*
X106947473Y-60962029D01*
X106948907Y-60960054D01*
X106908302Y-60917476D01*
X106895073Y-60848870D01*
X106895168Y-60847922D01*
X106905460Y-60750000D01*
X106885674Y-60561744D01*
X106828291Y-60385138D01*
X106827181Y-60381722D01*
X106827180Y-60381721D01*
X106827179Y-60381716D01*
X106732533Y-60217784D01*
X106605871Y-60077112D01*
X106581673Y-60059531D01*
X106452734Y-59965851D01*
X106452729Y-59965848D01*
X106279807Y-59888857D01*
X106279802Y-59888855D01*
X106134001Y-59857865D01*
X106094646Y-59849500D01*
X105905354Y-59849500D01*
X105872897Y-59856398D01*
X105720197Y-59888855D01*
X105720192Y-59888857D01*
X105547270Y-59965848D01*
X105547265Y-59965851D01*
X105394129Y-60077111D01*
X105267466Y-60217785D01*
X105172821Y-60381715D01*
X105172818Y-60381722D01*
X105119306Y-60546417D01*
X105114326Y-60561744D01*
X105094540Y-60750000D01*
X100400500Y-60750000D01*
X100400500Y-59500000D01*
X125594540Y-59500000D01*
X125614326Y-59688256D01*
X125614327Y-59688259D01*
X125672818Y-59868277D01*
X125672821Y-59868284D01*
X125767467Y-60032216D01*
X125894129Y-60172888D01*
X126047265Y-60284148D01*
X126047270Y-60284151D01*
X126220192Y-60361142D01*
X126220197Y-60361144D01*
X126405354Y-60400500D01*
X126405355Y-60400500D01*
X126594644Y-60400500D01*
X126594646Y-60400500D01*
X126779803Y-60361144D01*
X126952730Y-60284151D01*
X127105871Y-60172888D01*
X127232533Y-60032216D01*
X127327179Y-59868284D01*
X127385674Y-59688256D01*
X127405460Y-59500000D01*
X127385674Y-59311744D01*
X127327179Y-59131716D01*
X127232533Y-58967784D01*
X127105871Y-58827112D01*
X127105870Y-58827111D01*
X126952734Y-58715851D01*
X126952729Y-58715848D01*
X126779807Y-58638857D01*
X126779802Y-58638855D01*
X126634001Y-58607865D01*
X126594646Y-58599500D01*
X126405354Y-58599500D01*
X126372897Y-58606398D01*
X126220197Y-58638855D01*
X126220192Y-58638857D01*
X126047270Y-58715848D01*
X126047265Y-58715851D01*
X125894129Y-58827111D01*
X125767466Y-58967785D01*
X125672821Y-59131715D01*
X125672818Y-59131722D01*
X125614327Y-59311740D01*
X125614326Y-59311744D01*
X125594540Y-59500000D01*
X100400500Y-59500000D01*
X100400500Y-54499996D01*
X101594584Y-54499996D01*
X101594584Y-54500003D01*
X101614229Y-54837298D01*
X101614230Y-54837309D01*
X101672896Y-55170017D01*
X101672899Y-55170031D01*
X101672900Y-55170035D01*
X101686616Y-55215849D01*
X101769801Y-55493710D01*
X101903621Y-55803939D01*
X101903627Y-55803952D01*
X102072560Y-56096553D01*
X102274318Y-56367561D01*
X102274323Y-56367567D01*
X102394069Y-56494489D01*
X102506183Y-56613323D01*
X102506189Y-56613328D01*
X102506191Y-56613330D01*
X102765001Y-56830499D01*
X102765006Y-56830502D01*
X103047292Y-57016164D01*
X103349224Y-57167800D01*
X103666717Y-57283358D01*
X103995480Y-57361276D01*
X104331065Y-57400500D01*
X104331072Y-57400500D01*
X104668928Y-57400500D01*
X104668935Y-57400500D01*
X105004520Y-57361276D01*
X105333283Y-57283358D01*
X105424944Y-57249996D01*
X111269909Y-57249996D01*
X111269909Y-57250003D01*
X111288212Y-57412455D01*
X111342210Y-57566774D01*
X111342211Y-57566775D01*
X111429192Y-57705204D01*
X111544796Y-57820808D01*
X111683225Y-57907789D01*
X111837539Y-57961786D01*
X111837542Y-57961786D01*
X111837544Y-57961787D01*
X111999996Y-57980091D01*
X112000000Y-57980091D01*
X112000004Y-57980091D01*
X112162455Y-57961787D01*
X112162456Y-57961786D01*
X112162461Y-57961786D01*
X112316775Y-57907789D01*
X112455204Y-57820808D01*
X112570808Y-57705204D01*
X112595778Y-57665465D01*
X136014200Y-57665465D01*
X136014200Y-57802534D01*
X136040937Y-57936949D01*
X136040940Y-57936961D01*
X136093386Y-58063578D01*
X136093393Y-58063591D01*
X136169536Y-58177546D01*
X136169539Y-58177550D01*
X136266449Y-58274460D01*
X136266453Y-58274463D01*
X136380408Y-58350606D01*
X136380421Y-58350613D01*
X136507038Y-58403059D01*
X136507043Y-58403061D01*
X136641465Y-58429799D01*
X136641469Y-58429800D01*
X136641470Y-58429800D01*
X136778531Y-58429800D01*
X136778532Y-58429799D01*
X136912957Y-58403061D01*
X137039585Y-58350610D01*
X137153547Y-58274463D01*
X137250463Y-58177547D01*
X137326610Y-58063585D01*
X137379061Y-57936957D01*
X137405800Y-57802530D01*
X137405800Y-57665470D01*
X137379061Y-57531043D01*
X137329943Y-57412461D01*
X137326613Y-57404421D01*
X137326606Y-57404408D01*
X137250463Y-57290453D01*
X137250460Y-57290449D01*
X137153550Y-57193539D01*
X137153546Y-57193536D01*
X137039591Y-57117393D01*
X137039578Y-57117386D01*
X136912961Y-57064940D01*
X136912949Y-57064937D01*
X136778534Y-57038200D01*
X136778530Y-57038200D01*
X136641470Y-57038200D01*
X136641465Y-57038200D01*
X136507050Y-57064937D01*
X136507038Y-57064940D01*
X136380421Y-57117386D01*
X136380408Y-57117393D01*
X136266453Y-57193536D01*
X136266449Y-57193539D01*
X136169539Y-57290449D01*
X136169536Y-57290453D01*
X136093393Y-57404408D01*
X136093386Y-57404421D01*
X136040940Y-57531038D01*
X136040937Y-57531050D01*
X136014200Y-57665465D01*
X112595778Y-57665465D01*
X112657789Y-57566775D01*
X112711786Y-57412461D01*
X112712693Y-57404415D01*
X112730091Y-57250003D01*
X112730091Y-57249996D01*
X112711787Y-57087544D01*
X112711786Y-57087542D01*
X112711786Y-57087539D01*
X112657789Y-56933225D01*
X112570808Y-56794796D01*
X112455204Y-56679192D01*
X112445171Y-56672888D01*
X112316774Y-56592210D01*
X112162455Y-56538212D01*
X112000004Y-56519909D01*
X111999996Y-56519909D01*
X111837544Y-56538212D01*
X111683225Y-56592210D01*
X111544795Y-56679192D01*
X111429192Y-56794795D01*
X111342210Y-56933225D01*
X111288212Y-57087544D01*
X111269909Y-57249996D01*
X105424944Y-57249996D01*
X105650776Y-57167800D01*
X105952708Y-57016164D01*
X106234994Y-56830502D01*
X106290237Y-56784148D01*
X106354659Y-56730091D01*
X106493817Y-56613323D01*
X106725678Y-56367565D01*
X106927440Y-56096552D01*
X106983187Y-55999996D01*
X109519909Y-55999996D01*
X109519909Y-56000003D01*
X109538212Y-56162455D01*
X109592210Y-56316774D01*
X109624126Y-56367567D01*
X109679192Y-56455204D01*
X109794796Y-56570808D01*
X109933225Y-56657789D01*
X110087539Y-56711786D01*
X110087542Y-56711786D01*
X110087544Y-56711787D01*
X110249996Y-56730091D01*
X110250000Y-56730091D01*
X110250004Y-56730091D01*
X110412455Y-56711787D01*
X110412456Y-56711786D01*
X110412461Y-56711786D01*
X110566775Y-56657789D01*
X110705204Y-56570808D01*
X110820808Y-56455204D01*
X110907789Y-56316775D01*
X110961786Y-56162461D01*
X110967568Y-56111144D01*
X110980091Y-56000003D01*
X110980091Y-56000000D01*
X127644540Y-56000000D01*
X127664326Y-56188256D01*
X127664327Y-56188259D01*
X127722818Y-56368277D01*
X127722821Y-56368284D01*
X127817467Y-56532216D01*
X127890503Y-56613330D01*
X127944129Y-56672888D01*
X128097265Y-56784148D01*
X128097270Y-56784151D01*
X128270192Y-56861142D01*
X128270197Y-56861144D01*
X128455354Y-56900500D01*
X128455355Y-56900500D01*
X128644644Y-56900500D01*
X128644646Y-56900500D01*
X128829803Y-56861144D01*
X129002730Y-56784151D01*
X129155871Y-56672888D01*
X129282533Y-56532216D01*
X129377179Y-56368284D01*
X129435674Y-56188256D01*
X129455460Y-56000000D01*
X129435674Y-55811744D01*
X129377179Y-55631716D01*
X129282533Y-55467784D01*
X129155871Y-55327112D01*
X129155870Y-55327111D01*
X129049736Y-55250000D01*
X132094540Y-55250000D01*
X132114326Y-55438256D01*
X132114327Y-55438259D01*
X132172818Y-55618277D01*
X132172821Y-55618284D01*
X132267467Y-55782216D01*
X132317285Y-55837544D01*
X132394129Y-55922888D01*
X132547265Y-56034148D01*
X132547270Y-56034151D01*
X132720192Y-56111142D01*
X132720197Y-56111144D01*
X132905354Y-56150500D01*
X132905355Y-56150500D01*
X133094644Y-56150500D01*
X133094646Y-56150500D01*
X133279803Y-56111144D01*
X133452730Y-56034151D01*
X133605871Y-55922888D01*
X133732533Y-55782216D01*
X133827179Y-55618284D01*
X133885674Y-55438256D01*
X133905460Y-55250000D01*
X133885674Y-55061744D01*
X133827179Y-54881716D01*
X133732533Y-54717784D01*
X133605871Y-54577112D01*
X133605870Y-54577111D01*
X133499730Y-54499996D01*
X142594584Y-54499996D01*
X142594584Y-54500003D01*
X142614229Y-54837298D01*
X142614230Y-54837309D01*
X142672896Y-55170017D01*
X142672899Y-55170031D01*
X142672900Y-55170035D01*
X142686616Y-55215849D01*
X142769801Y-55493710D01*
X142903621Y-55803939D01*
X142903627Y-55803952D01*
X143072560Y-56096553D01*
X143274318Y-56367561D01*
X143274323Y-56367567D01*
X143394069Y-56494489D01*
X143506183Y-56613323D01*
X143506189Y-56613328D01*
X143506191Y-56613330D01*
X143765001Y-56830499D01*
X143765006Y-56830502D01*
X144047292Y-57016164D01*
X144349224Y-57167800D01*
X144666717Y-57283358D01*
X144995480Y-57361276D01*
X145331065Y-57400500D01*
X145331072Y-57400500D01*
X145668928Y-57400500D01*
X145668935Y-57400500D01*
X146004520Y-57361276D01*
X146333283Y-57283358D01*
X146650776Y-57167800D01*
X146952708Y-57016164D01*
X147234994Y-56830502D01*
X147290237Y-56784148D01*
X147354659Y-56730091D01*
X147493817Y-56613323D01*
X147725678Y-56367565D01*
X147927440Y-56096552D01*
X148096375Y-55803948D01*
X148230198Y-55493711D01*
X148327100Y-55170035D01*
X148385771Y-54837298D01*
X148405416Y-54500000D01*
X148385771Y-54162702D01*
X148371304Y-54080659D01*
X148327103Y-53829982D01*
X148327102Y-53829981D01*
X148327100Y-53829965D01*
X148230198Y-53506289D01*
X148096375Y-53196052D01*
X147927440Y-52903448D01*
X147862208Y-52815826D01*
X147725681Y-52632438D01*
X147725676Y-52632432D01*
X147590912Y-52489592D01*
X147493817Y-52386677D01*
X147493810Y-52386671D01*
X147493808Y-52386669D01*
X147234998Y-52169500D01*
X147049004Y-52047171D01*
X146952708Y-51983836D01*
X146947593Y-51981267D01*
X146650783Y-51832203D01*
X146650777Y-51832200D01*
X146333284Y-51716642D01*
X146333281Y-51716641D01*
X146084464Y-51657671D01*
X146004520Y-51638724D01*
X145668935Y-51599500D01*
X145331065Y-51599500D01*
X144995480Y-51638724D01*
X144666718Y-51716641D01*
X144666715Y-51716642D01*
X144349222Y-51832200D01*
X144349216Y-51832203D01*
X144047295Y-51983834D01*
X143765001Y-52169500D01*
X143506191Y-52386669D01*
X143506181Y-52386679D01*
X143274323Y-52632432D01*
X143274318Y-52632438D01*
X143072560Y-52903446D01*
X142903627Y-53196047D01*
X142903621Y-53196060D01*
X142769801Y-53506289D01*
X142672899Y-53829968D01*
X142672896Y-53829982D01*
X142614230Y-54162690D01*
X142614229Y-54162701D01*
X142594584Y-54499996D01*
X133499730Y-54499996D01*
X133452734Y-54465851D01*
X133452729Y-54465848D01*
X133279807Y-54388857D01*
X133279802Y-54388855D01*
X133134001Y-54357865D01*
X133094646Y-54349500D01*
X132905354Y-54349500D01*
X132872897Y-54356398D01*
X132720197Y-54388855D01*
X132720192Y-54388857D01*
X132547270Y-54465848D01*
X132547265Y-54465851D01*
X132394129Y-54577111D01*
X132267466Y-54717785D01*
X132172821Y-54881715D01*
X132172818Y-54881722D01*
X132114327Y-55061740D01*
X132114326Y-55061744D01*
X132094540Y-55250000D01*
X129049736Y-55250000D01*
X129002734Y-55215851D01*
X129002729Y-55215848D01*
X128829807Y-55138857D01*
X128829802Y-55138855D01*
X128684001Y-55107865D01*
X128644646Y-55099500D01*
X128455354Y-55099500D01*
X128422897Y-55106398D01*
X128270197Y-55138855D01*
X128270192Y-55138857D01*
X128097270Y-55215848D01*
X128097265Y-55215851D01*
X127944129Y-55327111D01*
X127817466Y-55467785D01*
X127722821Y-55631715D01*
X127722818Y-55631722D01*
X127664327Y-55811740D01*
X127664326Y-55811744D01*
X127644540Y-56000000D01*
X110980091Y-56000000D01*
X110980091Y-55999996D01*
X110961787Y-55837544D01*
X110961786Y-55837542D01*
X110961786Y-55837539D01*
X110907789Y-55683225D01*
X110820808Y-55544796D01*
X110705204Y-55429192D01*
X110566774Y-55342210D01*
X110412455Y-55288212D01*
X110250004Y-55269909D01*
X110249996Y-55269909D01*
X110087544Y-55288212D01*
X109933225Y-55342210D01*
X109794795Y-55429192D01*
X109679192Y-55544795D01*
X109592210Y-55683225D01*
X109538212Y-55837544D01*
X109519909Y-55999996D01*
X106983187Y-55999996D01*
X107096375Y-55803948D01*
X107230198Y-55493711D01*
X107327100Y-55170035D01*
X107385771Y-54837298D01*
X107405416Y-54500000D01*
X107390855Y-54250000D01*
X112094540Y-54250000D01*
X112114326Y-54438256D01*
X112114327Y-54438259D01*
X112172818Y-54618277D01*
X112172821Y-54618284D01*
X112267467Y-54782216D01*
X112357063Y-54881722D01*
X112394129Y-54922888D01*
X112547265Y-55034148D01*
X112547270Y-55034151D01*
X112720192Y-55111142D01*
X112720197Y-55111144D01*
X112905354Y-55150500D01*
X112905355Y-55150500D01*
X113094644Y-55150500D01*
X113094646Y-55150500D01*
X113279803Y-55111144D01*
X113452730Y-55034151D01*
X113605871Y-54922888D01*
X113732533Y-54782216D01*
X113827179Y-54618284D01*
X113885674Y-54438256D01*
X113905460Y-54250000D01*
X113885674Y-54061744D01*
X113827179Y-53881716D01*
X113732533Y-53717784D01*
X113605871Y-53577112D01*
X113605870Y-53577111D01*
X113452734Y-53465851D01*
X113452729Y-53465848D01*
X113279807Y-53388857D01*
X113279802Y-53388855D01*
X113134001Y-53357865D01*
X113094646Y-53349500D01*
X112905354Y-53349500D01*
X112872897Y-53356398D01*
X112720197Y-53388855D01*
X112720192Y-53388857D01*
X112547270Y-53465848D01*
X112547265Y-53465851D01*
X112394129Y-53577111D01*
X112267466Y-53717785D01*
X112172821Y-53881715D01*
X112172818Y-53881722D01*
X112116311Y-54055634D01*
X112114326Y-54061744D01*
X112094540Y-54250000D01*
X107390855Y-54250000D01*
X107385771Y-54162702D01*
X107371304Y-54080659D01*
X107327103Y-53829982D01*
X107327102Y-53829981D01*
X107327100Y-53829965D01*
X107230198Y-53506289D01*
X107096375Y-53196052D01*
X106927440Y-52903448D01*
X106862208Y-52815826D01*
X106725681Y-52632438D01*
X106725676Y-52632432D01*
X106590912Y-52489592D01*
X106577144Y-52474999D01*
X119599364Y-52474999D01*
X119599364Y-52475000D01*
X120496988Y-52475000D01*
X120464075Y-52532007D01*
X120430000Y-52659174D01*
X120430000Y-52790826D01*
X120464075Y-52917993D01*
X120496988Y-52975000D01*
X119599364Y-52975000D01*
X119656567Y-53188486D01*
X119656570Y-53188492D01*
X119756399Y-53402578D01*
X119891894Y-53596082D01*
X120058917Y-53763105D01*
X120252421Y-53898600D01*
X120466507Y-53998429D01*
X120466516Y-53998433D01*
X120680000Y-54055634D01*
X120680000Y-53158012D01*
X120737007Y-53190925D01*
X120864174Y-53225000D01*
X120995826Y-53225000D01*
X121122993Y-53190925D01*
X121180000Y-53158012D01*
X121180000Y-54055633D01*
X121393483Y-53998433D01*
X121393492Y-53998429D01*
X121607578Y-53898600D01*
X121801082Y-53763105D01*
X121968105Y-53596082D01*
X122098119Y-53410405D01*
X122152696Y-53366781D01*
X122222195Y-53359588D01*
X122284549Y-53391110D01*
X122301269Y-53410405D01*
X122431505Y-53596401D01*
X122598599Y-53763495D01*
X122693528Y-53829965D01*
X122792165Y-53899032D01*
X122792167Y-53899033D01*
X122792170Y-53899035D01*
X123006337Y-53998903D01*
X123234592Y-54060063D01*
X123411034Y-54075500D01*
X123469999Y-54080659D01*
X123470000Y-54080659D01*
X123470001Y-54080659D01*
X123528966Y-54075500D01*
X123705408Y-54060063D01*
X123933663Y-53998903D01*
X124147830Y-53899035D01*
X124341401Y-53763495D01*
X124508495Y-53596401D01*
X124638425Y-53410842D01*
X124693002Y-53367217D01*
X124762500Y-53360023D01*
X124824855Y-53391546D01*
X124841575Y-53410842D01*
X124971281Y-53596082D01*
X124971505Y-53596401D01*
X125138599Y-53763495D01*
X125233528Y-53829965D01*
X125332165Y-53899032D01*
X125332167Y-53899033D01*
X125332170Y-53899035D01*
X125546337Y-53998903D01*
X125774592Y-54060063D01*
X125951034Y-54075500D01*
X126009999Y-54080659D01*
X126010000Y-54080659D01*
X126010001Y-54080659D01*
X126068966Y-54075500D01*
X126245408Y-54060063D01*
X126473663Y-53998903D01*
X126687830Y-53899035D01*
X126881401Y-53763495D01*
X127003329Y-53641566D01*
X127064648Y-53608084D01*
X127134340Y-53613068D01*
X127190274Y-53654939D01*
X127207189Y-53685917D01*
X127256202Y-53817328D01*
X127256206Y-53817335D01*
X127342452Y-53932544D01*
X127342455Y-53932547D01*
X127457664Y-54018793D01*
X127457671Y-54018797D01*
X127592517Y-54069091D01*
X127592516Y-54069091D01*
X127599444Y-54069835D01*
X127652127Y-54075500D01*
X129447872Y-54075499D01*
X129507483Y-54069091D01*
X129642331Y-54018796D01*
X129757546Y-53932546D01*
X129843796Y-53817331D01*
X129894091Y-53682483D01*
X129900500Y-53622873D01*
X129900499Y-52499999D01*
X131549364Y-52499999D01*
X131549364Y-52500000D01*
X132446988Y-52500000D01*
X132414075Y-52557007D01*
X132380000Y-52684174D01*
X132380000Y-52815826D01*
X132414075Y-52942993D01*
X132446988Y-53000000D01*
X131549364Y-53000000D01*
X131606567Y-53213486D01*
X131606570Y-53213492D01*
X131706399Y-53427578D01*
X131841894Y-53621082D01*
X132008917Y-53788105D01*
X132202421Y-53923600D01*
X132416507Y-54023429D01*
X132416516Y-54023433D01*
X132630000Y-54080634D01*
X132630000Y-53183012D01*
X132687007Y-53215925D01*
X132814174Y-53250000D01*
X132945826Y-53250000D01*
X133072993Y-53215925D01*
X133130000Y-53183012D01*
X133130000Y-54080633D01*
X133343483Y-54023433D01*
X133343492Y-54023429D01*
X133557578Y-53923600D01*
X133751082Y-53788105D01*
X133918105Y-53621082D01*
X134048119Y-53435405D01*
X134102696Y-53391781D01*
X134172195Y-53384588D01*
X134234549Y-53416110D01*
X134251269Y-53435405D01*
X134381505Y-53621401D01*
X134548599Y-53788495D01*
X134645384Y-53856265D01*
X134742165Y-53924032D01*
X134742167Y-53924033D01*
X134742170Y-53924035D01*
X134956337Y-54023903D01*
X135184592Y-54085063D01*
X135361034Y-54100500D01*
X135419999Y-54105659D01*
X135420000Y-54105659D01*
X135420001Y-54105659D01*
X135478966Y-54100500D01*
X135655408Y-54085063D01*
X135883663Y-54023903D01*
X136097830Y-53924035D01*
X136291401Y-53788495D01*
X136458495Y-53621401D01*
X136588425Y-53435842D01*
X136643002Y-53392217D01*
X136712500Y-53385023D01*
X136774855Y-53416546D01*
X136791575Y-53435842D01*
X136921281Y-53621082D01*
X136921505Y-53621401D01*
X137088599Y-53788495D01*
X137185384Y-53856265D01*
X137282165Y-53924032D01*
X137282167Y-53924033D01*
X137282170Y-53924035D01*
X137496337Y-54023903D01*
X137724592Y-54085063D01*
X137901034Y-54100500D01*
X137959999Y-54105659D01*
X137960000Y-54105659D01*
X137960001Y-54105659D01*
X138018966Y-54100500D01*
X138195408Y-54085063D01*
X138423663Y-54023903D01*
X138637830Y-53924035D01*
X138831401Y-53788495D01*
X138953329Y-53666566D01*
X139014648Y-53633084D01*
X139084340Y-53638068D01*
X139140274Y-53679939D01*
X139157189Y-53710917D01*
X139206202Y-53842328D01*
X139206206Y-53842335D01*
X139292452Y-53957544D01*
X139292455Y-53957547D01*
X139407664Y-54043793D01*
X139407671Y-54043797D01*
X139542517Y-54094091D01*
X139542516Y-54094091D01*
X139549444Y-54094835D01*
X139602127Y-54100500D01*
X141397872Y-54100499D01*
X141457483Y-54094091D01*
X141592331Y-54043796D01*
X141707546Y-53957546D01*
X141793796Y-53842331D01*
X141844091Y-53707483D01*
X141850500Y-53647873D01*
X141850499Y-51852128D01*
X141844091Y-51792517D01*
X141842810Y-51789083D01*
X141793797Y-51657671D01*
X141793793Y-51657664D01*
X141707547Y-51542455D01*
X141707544Y-51542452D01*
X141592335Y-51456206D01*
X141592328Y-51456202D01*
X141457482Y-51405908D01*
X141457483Y-51405908D01*
X141397883Y-51399501D01*
X141397881Y-51399500D01*
X141397873Y-51399500D01*
X141397864Y-51399500D01*
X139602129Y-51399500D01*
X139602123Y-51399501D01*
X139542516Y-51405908D01*
X139407671Y-51456202D01*
X139407664Y-51456206D01*
X139292455Y-51542452D01*
X139292452Y-51542455D01*
X139206206Y-51657664D01*
X139206203Y-51657669D01*
X139157189Y-51789083D01*
X139115317Y-51845016D01*
X139049853Y-51869433D01*
X138981580Y-51854581D01*
X138953326Y-51833430D01*
X138831402Y-51711506D01*
X138831395Y-51711501D01*
X138637834Y-51575967D01*
X138637830Y-51575965D01*
X138585148Y-51551399D01*
X138423663Y-51476097D01*
X138423659Y-51476096D01*
X138423655Y-51476094D01*
X138195413Y-51414938D01*
X138195403Y-51414936D01*
X137960001Y-51394341D01*
X137959999Y-51394341D01*
X137724596Y-51414936D01*
X137724586Y-51414938D01*
X137496344Y-51476094D01*
X137496335Y-51476098D01*
X137282171Y-51575964D01*
X137282169Y-51575965D01*
X137088597Y-51711505D01*
X136921505Y-51878597D01*
X136791575Y-52064158D01*
X136736998Y-52107783D01*
X136667500Y-52114977D01*
X136605145Y-52083454D01*
X136588425Y-52064158D01*
X136458494Y-51878597D01*
X136291402Y-51711506D01*
X136291395Y-51711501D01*
X136097834Y-51575967D01*
X136097830Y-51575965D01*
X136045148Y-51551399D01*
X135883663Y-51476097D01*
X135883659Y-51476096D01*
X135883655Y-51476094D01*
X135655413Y-51414938D01*
X135655403Y-51414936D01*
X135420001Y-51394341D01*
X135419999Y-51394341D01*
X135184596Y-51414936D01*
X135184586Y-51414938D01*
X134956344Y-51476094D01*
X134956335Y-51476098D01*
X134742171Y-51575964D01*
X134742169Y-51575965D01*
X134548597Y-51711505D01*
X134381508Y-51878594D01*
X134251269Y-52064595D01*
X134196692Y-52108219D01*
X134127193Y-52115412D01*
X134064839Y-52083890D01*
X134048119Y-52064594D01*
X133918113Y-51878926D01*
X133918108Y-51878920D01*
X133751082Y-51711894D01*
X133557578Y-51576399D01*
X133343492Y-51476570D01*
X133343486Y-51476567D01*
X133130000Y-51419364D01*
X133130000Y-52316988D01*
X133072993Y-52284075D01*
X132945826Y-52250000D01*
X132814174Y-52250000D01*
X132687007Y-52284075D01*
X132630000Y-52316988D01*
X132630000Y-51419364D01*
X132629999Y-51419364D01*
X132416513Y-51476567D01*
X132416507Y-51476570D01*
X132202422Y-51576399D01*
X132202420Y-51576400D01*
X132008926Y-51711886D01*
X132008920Y-51711891D01*
X131841891Y-51878920D01*
X131841886Y-51878926D01*
X131706400Y-52072420D01*
X131706399Y-52072422D01*
X131606570Y-52286507D01*
X131606567Y-52286513D01*
X131549364Y-52499999D01*
X129900499Y-52499999D01*
X129900499Y-51827128D01*
X129894091Y-51767517D01*
X129892810Y-51764083D01*
X129843797Y-51632671D01*
X129843793Y-51632664D01*
X129757547Y-51517455D01*
X129757544Y-51517452D01*
X129642335Y-51431206D01*
X129642328Y-51431202D01*
X129507482Y-51380908D01*
X129507483Y-51380908D01*
X129447883Y-51374501D01*
X129447881Y-51374500D01*
X129447873Y-51374500D01*
X129447864Y-51374500D01*
X127652129Y-51374500D01*
X127652123Y-51374501D01*
X127592516Y-51380908D01*
X127457671Y-51431202D01*
X127457664Y-51431206D01*
X127342455Y-51517452D01*
X127342452Y-51517455D01*
X127256206Y-51632664D01*
X127256203Y-51632669D01*
X127207189Y-51764083D01*
X127165317Y-51820016D01*
X127099853Y-51844433D01*
X127031580Y-51829581D01*
X127003326Y-51808430D01*
X126881402Y-51686506D01*
X126881395Y-51686501D01*
X126687834Y-51550967D01*
X126687830Y-51550965D01*
X126669574Y-51542452D01*
X126473663Y-51451097D01*
X126473659Y-51451096D01*
X126473655Y-51451094D01*
X126245413Y-51389938D01*
X126245403Y-51389936D01*
X126010001Y-51369341D01*
X126009999Y-51369341D01*
X125774596Y-51389936D01*
X125774586Y-51389938D01*
X125546344Y-51451094D01*
X125546335Y-51451098D01*
X125332171Y-51550964D01*
X125332169Y-51550965D01*
X125138597Y-51686505D01*
X124971505Y-51853597D01*
X124841575Y-52039158D01*
X124786998Y-52082783D01*
X124717500Y-52089977D01*
X124655145Y-52058454D01*
X124638425Y-52039158D01*
X124508494Y-51853597D01*
X124341402Y-51686506D01*
X124341395Y-51686501D01*
X124147834Y-51550967D01*
X124147830Y-51550965D01*
X124129574Y-51542452D01*
X123933663Y-51451097D01*
X123933659Y-51451096D01*
X123933655Y-51451094D01*
X123705413Y-51389938D01*
X123705403Y-51389936D01*
X123470001Y-51369341D01*
X123469999Y-51369341D01*
X123234596Y-51389936D01*
X123234586Y-51389938D01*
X123006344Y-51451094D01*
X123006335Y-51451098D01*
X122792171Y-51550964D01*
X122792169Y-51550965D01*
X122598597Y-51686505D01*
X122431508Y-51853594D01*
X122301269Y-52039595D01*
X122246692Y-52083219D01*
X122177193Y-52090412D01*
X122114839Y-52058890D01*
X122098119Y-52039594D01*
X121968113Y-51853926D01*
X121968108Y-51853920D01*
X121801082Y-51686894D01*
X121607578Y-51551399D01*
X121393492Y-51451570D01*
X121393486Y-51451567D01*
X121180000Y-51394364D01*
X121180000Y-52291988D01*
X121122993Y-52259075D01*
X120995826Y-52225000D01*
X120864174Y-52225000D01*
X120737007Y-52259075D01*
X120680000Y-52291988D01*
X120680000Y-51394364D01*
X120679999Y-51394364D01*
X120466513Y-51451567D01*
X120466507Y-51451570D01*
X120252422Y-51551399D01*
X120252420Y-51551400D01*
X120058926Y-51686886D01*
X120058920Y-51686891D01*
X119891891Y-51853920D01*
X119891886Y-51853926D01*
X119756400Y-52047420D01*
X119756399Y-52047422D01*
X119656570Y-52261507D01*
X119656567Y-52261513D01*
X119599364Y-52474999D01*
X106577144Y-52474999D01*
X106493817Y-52386677D01*
X106493810Y-52386671D01*
X106493808Y-52386669D01*
X106234998Y-52169500D01*
X106049004Y-52047171D01*
X105952708Y-51983836D01*
X105947593Y-51981267D01*
X105650783Y-51832203D01*
X105650777Y-51832200D01*
X105333284Y-51716642D01*
X105333281Y-51716641D01*
X105084464Y-51657671D01*
X105004520Y-51638724D01*
X104668935Y-51599500D01*
X104331065Y-51599500D01*
X103995480Y-51638724D01*
X103666718Y-51716641D01*
X103666715Y-51716642D01*
X103349222Y-51832200D01*
X103349216Y-51832203D01*
X103047295Y-51983834D01*
X102765001Y-52169500D01*
X102506191Y-52386669D01*
X102506181Y-52386679D01*
X102274323Y-52632432D01*
X102274318Y-52632438D01*
X102072560Y-52903446D01*
X101903627Y-53196047D01*
X101903621Y-53196060D01*
X101769801Y-53506289D01*
X101672899Y-53829968D01*
X101672896Y-53829982D01*
X101614230Y-54162690D01*
X101614229Y-54162701D01*
X101594584Y-54499996D01*
X100400500Y-54499996D01*
X100400500Y-53003480D01*
X100400695Y-52996528D01*
X100410843Y-52815826D01*
X100416455Y-52715891D01*
X100418009Y-52702092D01*
X100464510Y-52428412D01*
X100467598Y-52414880D01*
X100544450Y-52148119D01*
X100549040Y-52135006D01*
X100557336Y-52114977D01*
X100655268Y-51878545D01*
X100661290Y-51866039D01*
X100795574Y-51623072D01*
X100802969Y-51611304D01*
X100963605Y-51384908D01*
X100972260Y-51374054D01*
X101157245Y-51167057D01*
X101167057Y-51157245D01*
X101374054Y-50972260D01*
X101384908Y-50963605D01*
X101611309Y-50802965D01*
X101623072Y-50795574D01*
X101866039Y-50661290D01*
X101878545Y-50655268D01*
X102135006Y-50549039D01*
X102148119Y-50544450D01*
X102414880Y-50467598D01*
X102428412Y-50464510D01*
X102702092Y-50418009D01*
X102715891Y-50416455D01*
X102962054Y-50402630D01*
X102996529Y-50400695D01*
X103003481Y-50400500D01*
X103057583Y-50400500D01*
X146942417Y-50400500D01*
X146996519Y-50400500D01*
X147003471Y-50400695D01*
G37*
G04 #@! TD.AperFunction*
M02*
