M48
; DRILL file {KiCad 8.0.4} date 2024-08-28T18:09:27+0200
; FORMAT={-:-/ absolute / metric / decimal}
; #@! TF.CreationDate,2024-08-28T18:09:27+02:00
; #@! TF.GenerationSoftware,Kicad,Pcbnew,8.0.4
; #@! TF.FileFunction,Plated,1,4,PTH
FMAT,2
METRIC
; #@! TA.AperFunction,Plated,PTH,ViaDrill
T1C0.300
; #@! TA.AperFunction,Plated,PTH,ViaDrill
T2C0.400
; #@! TA.AperFunction,Plated,PTH,ComponentDrill
T3C1.000
%
G90
G05
T1
X101.75Y-62.75
X102.25Y-62.0
X105.5Y-70.5
X106.0Y-69.75
X107.8Y-72.8
X108.0Y-73.6
X110.0Y-73.2
X110.25Y-56.0
X110.875Y-77.75
X110.875Y-78.75
X111.0Y-73.1
X111.25Y-67.5
X111.282Y-68.468
X111.8Y-73.1
X111.8Y-92.875
X112.0Y-57.25
X112.0Y-79.25
X112.2Y-89.925
X112.25Y-76.0
X112.75Y-76.675
X113.6Y-96.075
X114.2Y-95.475
X114.5Y-79.837
X115.5Y-78.775
X116.0Y-69.2
X118.75Y-70.75
X118.75Y-71.75
X118.75Y-73.75
X119.2Y-69.2
X119.5Y-71.25
X119.5Y-73.25
X119.75Y-66.75
X120.0Y-70.25
X120.1Y-66.025
X121.276Y-77.334
X121.5Y-74.975
X121.8Y-84.8
X122.0Y-66.75
X122.0Y-85.6
X122.5Y-66.0
X122.75Y-67.75
X123.0Y-73.0
X123.0Y-74.5
X123.854Y-74.354
X124.5Y-69.5
X124.746Y-74.018
X124.854Y-71.854
X125.75Y-71.5
X126.325Y-70.075
X127.0Y-63.5
X127.25Y-69.75
X127.6Y-70.6
X128.5Y-62.5
X128.5Y-63.5
X129.25Y-60.75
X129.75Y-60.0
X130.25Y-72.5
X130.5Y-61.1
X130.5Y-70.75
X131.4Y-70.4
X131.5Y-74.75
X131.8Y-68.4
X132.532Y-76.868
X132.75Y-78.25
X133.25Y-73.0
X133.4Y-71.0
X133.75Y-76.75
X142.5Y-74.75
X142.5Y-77.0
T2
X102.0Y-68.0
X102.75Y-68.75
X103.2Y-93.84
X103.5Y-72.25
X104.5Y-60.5
X105.8Y-98.44
X106.0Y-60.75
X106.5Y-61.75
X107.0Y-73.5
X107.027Y-80.95
X107.027Y-82.4
X108.25Y-66.75
X109.0Y-90.475
X109.5Y-64.0
X109.5Y-77.35
X109.8Y-75.8
X110.5Y-61.5
X110.548Y-74.748
X111.5Y-80.0
X113.0Y-54.25
X113.0Y-57.75
X113.0Y-92.875
X113.2Y-66.2
X113.2Y-94.8
X113.4Y-90.1
X114.5Y-87.4
X115.0Y-92.875
X115.0Y-95.875
X115.5Y-86.375
X117.25Y-78.25
X117.75Y-77.25
X118.0Y-79.25
X118.5Y-64.5
X121.2Y-83.2
X121.4Y-71.0
X121.5Y-60.5
X121.5Y-80.0
X121.75Y-78.25
X122.6Y-90.8
X122.6Y-97.0
X122.8Y-89.6
X123.0Y-81.0
X123.2Y-82.8
X125.6Y-74.2
X126.5Y-55.5
X126.5Y-59.5
X126.6Y-74.6
X126.8Y-96.8
X127.0Y-80.75
X127.0Y-91.0
X128.25Y-76.5
X128.55Y-56.0
X128.728Y-85.747
X129.05Y-84.8
X129.5Y-65.75
X131.25Y-59.5
X133.0Y-55.25
X133.5Y-66.75
X134.25Y-83.0
X134.5Y-85.5
X138.0Y-60.5
X140.0Y-84.25
X140.5Y-60.5
X140.75Y-76.0
X143.8Y-83.2
X143.8Y-90.4
X144.5Y-76.25
X145.8Y-87.65
X148.5Y-75.0
X149.162Y-81.412
T3
X120.93Y-52.725
X123.47Y-52.725
X126.01Y-52.725
X128.55Y-52.725
X132.88Y-52.75
X135.0Y-93.75
X135.42Y-52.75
X135.75Y-64.135
X135.75Y-69.0
X137.96Y-52.75
X138.75Y-64.135
X138.75Y-69.0
X138.75Y-93.75
X140.5Y-52.75
X141.75Y-64.135
X141.75Y-69.0
X142.5Y-93.75
X144.75Y-64.135
X144.75Y-69.0
X146.25Y-93.75
X147.75Y-59.25
X147.75Y-64.135
X147.75Y-69.0
M30
