G04 #@! TF.GenerationSoftware,KiCad,Pcbnew,8.0.4*
G04 #@! TF.CreationDate,2024-08-28T18:09:24+02:00*
G04 #@! TF.ProjectId,Probe,50726f62-652e-46b6-9963-61645f706362,v1*
G04 #@! TF.SameCoordinates,Original*
G04 #@! TF.FileFunction,Paste,Top*
G04 #@! TF.FilePolarity,Positive*
%FSLAX46Y46*%
G04 Gerber Fmt 4.6, Leading zero omitted, Abs format (unit mm)*
G04 Created by KiCad (PCBNEW 8.0.4) date 2024-08-28 18:09:24*
%MOMM*%
%LPD*%
G01*
G04 APERTURE LIST*
G04 Aperture macros list*
%AMRoundRect*
0 Rectangle with rounded corners*
0 $1 Rounding radius*
0 $2 $3 $4 $5 $6 $7 $8 $9 X,Y pos of 4 corners*
0 Add a 4 corners polygon primitive as box body*
4,1,4,$2,$3,$4,$5,$6,$7,$8,$9,$2,$3,0*
0 Add four circle primitives for the rounded corners*
1,1,$1+$1,$2,$3*
1,1,$1+$1,$4,$5*
1,1,$1+$1,$6,$7*
1,1,$1+$1,$8,$9*
0 Add four rect primitives between the rounded corners*
20,1,$1+$1,$2,$3,$4,$5,0*
20,1,$1+$1,$4,$5,$6,$7,0*
20,1,$1+$1,$6,$7,$8,$9,0*
20,1,$1+$1,$8,$9,$2,$3,0*%
G04 Aperture macros list end*
%ADD10RoundRect,0.225000X-0.225000X-0.250000X0.225000X-0.250000X0.225000X0.250000X-0.225000X0.250000X0*%
%ADD11RoundRect,0.075000X-0.700000X-0.075000X0.700000X-0.075000X0.700000X0.075000X-0.700000X0.075000X0*%
%ADD12RoundRect,0.075000X-0.075000X-0.700000X0.075000X-0.700000X0.075000X0.700000X-0.075000X0.700000X0*%
%ADD13RoundRect,0.200000X0.200000X0.275000X-0.200000X0.275000X-0.200000X-0.275000X0.200000X-0.275000X0*%
%ADD14RoundRect,0.200000X-0.200000X-0.275000X0.200000X-0.275000X0.200000X0.275000X-0.200000X0.275000X0*%
%ADD15RoundRect,0.200000X-0.275000X0.200000X-0.275000X-0.200000X0.275000X-0.200000X0.275000X0.200000X0*%
%ADD16RoundRect,0.140000X0.170000X-0.140000X0.170000X0.140000X-0.170000X0.140000X-0.170000X-0.140000X0*%
%ADD17RoundRect,0.225000X0.225000X0.250000X-0.225000X0.250000X-0.225000X-0.250000X0.225000X-0.250000X0*%
%ADD18RoundRect,0.225000X-0.250000X0.225000X-0.250000X-0.225000X0.250000X-0.225000X0.250000X0.225000X0*%
%ADD19RoundRect,0.250000X-0.625000X0.312500X-0.625000X-0.312500X0.625000X-0.312500X0.625000X0.312500X0*%
%ADD20R,0.750000X0.650000*%
%ADD21RoundRect,0.062500X-0.187500X-0.062500X0.187500X-0.062500X0.187500X0.062500X-0.187500X0.062500X0*%
%ADD22RoundRect,0.150000X-0.825000X-0.150000X0.825000X-0.150000X0.825000X0.150000X-0.825000X0.150000X0*%
%ADD23RoundRect,0.100000X0.100000X-0.637500X0.100000X0.637500X-0.100000X0.637500X-0.100000X-0.637500X0*%
%ADD24RoundRect,0.100000X0.637500X0.100000X-0.637500X0.100000X-0.637500X-0.100000X0.637500X-0.100000X0*%
%ADD25R,0.400000X1.200000*%
%ADD26R,0.400000X0.800000*%
%ADD27RoundRect,0.150000X-0.587500X-0.150000X0.587500X-0.150000X0.587500X0.150000X-0.587500X0.150000X0*%
%ADD28RoundRect,0.140000X-0.170000X0.140000X-0.170000X-0.140000X0.170000X-0.140000X0.170000X0.140000X0*%
%ADD29RoundRect,0.200000X0.275000X-0.200000X0.275000X0.200000X-0.275000X0.200000X-0.275000X-0.200000X0*%
%ADD30RoundRect,0.218750X0.256250X-0.218750X0.256250X0.218750X-0.256250X0.218750X-0.256250X-0.218750X0*%
%ADD31C,0.200000*%
%ADD32RoundRect,0.250000X0.625000X-0.312500X0.625000X0.312500X-0.625000X0.312500X-0.625000X-0.312500X0*%
%ADD33RoundRect,0.150000X-0.150000X0.825000X-0.150000X-0.825000X0.150000X-0.825000X0.150000X0.825000X0*%
%ADD34RoundRect,0.243750X0.456250X-0.243750X0.456250X0.243750X-0.456250X0.243750X-0.456250X-0.243750X0*%
%ADD35RoundRect,0.150000X-0.512500X-0.150000X0.512500X-0.150000X0.512500X0.150000X-0.512500X0.150000X0*%
G04 APERTURE END LIST*
D10*
X118475000Y-61500000D03*
X120025000Y-61500000D03*
D11*
X117575000Y-66750000D03*
X117575000Y-67250000D03*
X117575000Y-67750000D03*
X117575000Y-68250000D03*
X117575000Y-68750000D03*
X117575000Y-69250000D03*
X117575000Y-69750000D03*
X117575000Y-70250000D03*
X117575000Y-70750000D03*
X117575000Y-71250000D03*
X117575000Y-71750000D03*
X117575000Y-72250000D03*
X117575000Y-72750000D03*
X117575000Y-73250000D03*
X117575000Y-73750000D03*
X117575000Y-74250000D03*
D12*
X119500000Y-76175000D03*
X120000000Y-76175000D03*
X120500000Y-76175000D03*
X121000000Y-76175000D03*
X121500000Y-76175000D03*
X122000000Y-76175000D03*
X122500000Y-76175000D03*
X123000000Y-76175000D03*
X123500000Y-76175000D03*
X124000000Y-76175000D03*
X124500000Y-76175000D03*
X125000000Y-76175000D03*
X125500000Y-76175000D03*
X126000000Y-76175000D03*
X126500000Y-76175000D03*
X127000000Y-76175000D03*
D11*
X128925000Y-74250000D03*
X128925000Y-73750000D03*
X128925000Y-73250000D03*
X128925000Y-72750000D03*
X128925000Y-72250000D03*
X128925000Y-71750000D03*
X128925000Y-71250000D03*
X128925000Y-70750000D03*
X128925000Y-70250000D03*
X128925000Y-69750000D03*
X128925000Y-69250000D03*
X128925000Y-68750000D03*
X128925000Y-68250000D03*
X128925000Y-67750000D03*
X128925000Y-67250000D03*
X128925000Y-66750000D03*
D12*
X127000000Y-64825000D03*
X126500000Y-64825000D03*
X126000000Y-64825000D03*
X125500000Y-64825000D03*
X125000000Y-64825000D03*
X124500000Y-64825000D03*
X124000000Y-64825000D03*
X123500000Y-64825000D03*
X123000000Y-64825000D03*
X122500000Y-64825000D03*
X122000000Y-64825000D03*
X121500000Y-64825000D03*
X121000000Y-64825000D03*
X120500000Y-64825000D03*
X120000000Y-64825000D03*
X119500000Y-64825000D03*
D13*
X111575000Y-81250000D03*
X109925000Y-81250000D03*
D14*
X111925000Y-52500000D03*
X113575000Y-52500000D03*
D15*
X120000000Y-83175000D03*
X120000000Y-84825000D03*
D16*
X134200000Y-72280000D03*
X134200000Y-71320000D03*
D17*
X107475000Y-59500000D03*
X105925000Y-59500000D03*
D18*
X132250000Y-65225000D03*
X132250000Y-66775000D03*
D19*
X146800000Y-81737500D03*
X146800000Y-84662500D03*
D15*
X114250000Y-64675000D03*
X114250000Y-66325000D03*
D10*
X123975000Y-78000000D03*
X125525000Y-78000000D03*
D18*
X115750000Y-71725000D03*
X115750000Y-73275000D03*
D20*
X104125000Y-61815000D03*
X104125000Y-62615000D03*
D21*
X103175000Y-61465000D03*
X103175000Y-61965000D03*
X103175000Y-62465000D03*
X103175000Y-62965000D03*
X105075000Y-62965000D03*
X105075000Y-62465000D03*
X105075000Y-61965000D03*
X105075000Y-61465000D03*
D13*
X106075000Y-74250000D03*
X104425000Y-74250000D03*
D22*
X142325000Y-86495000D03*
X142325000Y-87765000D03*
X142325000Y-89035000D03*
X142325000Y-90305000D03*
X147275000Y-90305000D03*
X147275000Y-89035000D03*
X147275000Y-87765000D03*
X147275000Y-86495000D03*
D10*
X118475000Y-63000000D03*
X120025000Y-63000000D03*
D23*
X111050000Y-97337500D03*
X111700000Y-97337500D03*
X112350000Y-97337500D03*
X113000000Y-97337500D03*
X113650000Y-97337500D03*
X114300000Y-97337500D03*
X114950000Y-97337500D03*
X114950000Y-91612500D03*
X114300000Y-91612500D03*
X113650000Y-91612500D03*
X113000000Y-91612500D03*
X112350000Y-91612500D03*
X111700000Y-91612500D03*
X111050000Y-91612500D03*
D16*
X117200000Y-76280000D03*
X117200000Y-75320000D03*
D17*
X148275000Y-77750000D03*
X146725000Y-77750000D03*
D13*
X111575000Y-85750000D03*
X109925000Y-85750000D03*
X111575000Y-84250000D03*
X109925000Y-84250000D03*
D24*
X113862500Y-79200000D03*
X113862500Y-78550000D03*
X113862500Y-77900000D03*
X113862500Y-77250000D03*
X113862500Y-76600000D03*
X113862500Y-75950000D03*
X113862500Y-75300000D03*
X108137500Y-75300000D03*
X108137500Y-75950000D03*
X108137500Y-76600000D03*
X108137500Y-77250000D03*
X108137500Y-77900000D03*
X108137500Y-78550000D03*
X108137500Y-79200000D03*
D25*
X141645000Y-77050000D03*
D26*
X140715000Y-77250000D03*
X139785000Y-77250000D03*
X138855000Y-77250000D03*
X138855000Y-74750000D03*
X139785000Y-74750000D03*
X140715000Y-74750000D03*
X141645000Y-74750000D03*
D27*
X131125000Y-56550000D03*
X131125000Y-58450000D03*
X133000000Y-57500000D03*
D10*
X123975000Y-79500000D03*
X125525000Y-79500000D03*
D15*
X115750000Y-64675000D03*
X115750000Y-66325000D03*
D28*
X135400000Y-71320000D03*
X135400000Y-72280000D03*
D13*
X106075000Y-83250000D03*
X104425000Y-83250000D03*
D29*
X117250000Y-56825000D03*
X117250000Y-55175000D03*
D17*
X125825000Y-83000000D03*
X124275000Y-83000000D03*
D13*
X106075000Y-80250000D03*
X104425000Y-80250000D03*
X106075000Y-75750000D03*
X104425000Y-75750000D03*
D17*
X120525000Y-78000000D03*
X118975000Y-78000000D03*
D30*
X118000000Y-81750000D03*
X118000000Y-80175000D03*
D13*
X106075000Y-77250000D03*
X104425000Y-77250000D03*
D16*
X116000000Y-76280000D03*
X116000000Y-75320000D03*
D13*
X106075000Y-86250000D03*
X104425000Y-86250000D03*
D10*
X103225000Y-64250000D03*
X104775000Y-64250000D03*
D15*
X121500000Y-61425000D03*
X121500000Y-63075000D03*
D17*
X128525000Y-78000000D03*
X126975000Y-78000000D03*
D13*
X106075000Y-81750000D03*
X104425000Y-81750000D03*
D17*
X128525000Y-79500000D03*
X126975000Y-79500000D03*
D24*
X138500000Y-85650000D03*
X138500000Y-85000000D03*
X138500000Y-84350000D03*
X138500000Y-83700000D03*
X138500000Y-83050000D03*
X138500000Y-82400000D03*
X138500000Y-81750000D03*
X132775000Y-81750000D03*
X132775000Y-82400000D03*
X132775000Y-83050000D03*
X132775000Y-83700000D03*
X132775000Y-84350000D03*
X132775000Y-85000000D03*
X132775000Y-85650000D03*
D15*
X118000000Y-83175000D03*
X118000000Y-84825000D03*
D31*
X125800000Y-85375000D03*
X125800000Y-85875000D03*
X125300000Y-85375000D03*
X125300000Y-85875000D03*
X124800000Y-85375000D03*
X124800000Y-85875000D03*
X124300000Y-85375000D03*
X124300000Y-85875000D03*
D27*
X126337500Y-56550000D03*
X126337500Y-58450000D03*
X128212500Y-57500000D03*
D13*
X106075000Y-78750000D03*
X104425000Y-78750000D03*
D32*
X143800000Y-84662500D03*
X143800000Y-81737500D03*
D18*
X114250000Y-71725000D03*
X114250000Y-73275000D03*
D33*
X106905000Y-91565000D03*
X105635000Y-91565000D03*
X104365000Y-91565000D03*
X103095000Y-91565000D03*
X103095000Y-96515000D03*
X104365000Y-96515000D03*
X105635000Y-96515000D03*
X106905000Y-96515000D03*
D13*
X106075000Y-84750000D03*
X104425000Y-84750000D03*
X111575000Y-82750000D03*
X109925000Y-82750000D03*
D34*
X120000000Y-81750000D03*
X120000000Y-79875000D03*
D22*
X110275000Y-54095000D03*
X110275000Y-55365000D03*
X110275000Y-56635000D03*
X110275000Y-57905000D03*
X115225000Y-57905000D03*
X115225000Y-56635000D03*
X115225000Y-55365000D03*
X115225000Y-54095000D03*
D18*
X130750000Y-65225000D03*
X130750000Y-66775000D03*
D35*
X108112500Y-61550000D03*
X108112500Y-63450000D03*
X110387500Y-62500000D03*
D17*
X148275000Y-76250000D03*
X146725000Y-76250000D03*
D24*
X109862500Y-70700000D03*
X109862500Y-70050000D03*
X109862500Y-69400000D03*
X109862500Y-68750000D03*
X109862500Y-68100000D03*
X109862500Y-67450000D03*
X109862500Y-66800000D03*
X104137500Y-66800000D03*
X104137500Y-67450000D03*
X104137500Y-68100000D03*
X104137500Y-68750000D03*
X104137500Y-69400000D03*
X104137500Y-70050000D03*
X104137500Y-70700000D03*
D10*
X123975000Y-81000000D03*
X125525000Y-81000000D03*
D16*
X130800000Y-69480000D03*
X130800000Y-68520000D03*
M02*
