G04 #@! TF.GenerationSoftware,KiCad,Pcbnew,8.0.4*
G04 #@! TF.CreationDate,2024-08-28T18:09:25+02:00*
G04 #@! TF.ProjectId,Probe,50726f62-652e-46b6-9963-61645f706362,v1*
G04 #@! TF.SameCoordinates,Original*
G04 #@! TF.FileFunction,Profile,NP*
%FSLAX46Y46*%
G04 Gerber Fmt 4.6, Leading zero omitted, Abs format (unit mm)*
G04 Created by KiCad (PCBNEW 8.0.4) date 2024-08-28 18:09:25*
%MOMM*%
%LPD*%
G01*
G04 APERTURE LIST*
G04 #@! TA.AperFunction,Profile*
%ADD10C,0.100000*%
G04 #@! TD*
G04 #@! TA.AperFunction,Profile*
%ADD11C,0.050000*%
G04 #@! TD*
G04 APERTURE END LIST*
D10*
X148000000Y-54500000D02*
G75*
G02*
X143000000Y-54500000I-2500000J0D01*
G01*
X143000000Y-54500000D02*
G75*
G02*
X148000000Y-54500000I2500000J0D01*
G01*
X100000000Y-53000000D02*
G75*
G02*
X103000000Y-50000000I3000000J0D01*
G01*
X103000000Y-100000000D02*
G75*
G02*
X100000000Y-97000000I0J3000000D01*
G01*
X100000000Y-53000000D02*
X100000000Y-97000000D01*
X147000000Y-100000000D02*
X103000000Y-100000000D01*
X150000000Y-97000000D02*
G75*
G02*
X147000000Y-100000000I-3000000J0D01*
G01*
X103000000Y-50000000D02*
X147000000Y-50000000D01*
X150000000Y-53000000D02*
X150000000Y-97000000D01*
X147000000Y-50000000D02*
G75*
G02*
X150000000Y-53000000I0J-3000000D01*
G01*
X107000000Y-54500000D02*
G75*
G02*
X102000000Y-54500000I-2500000J0D01*
G01*
X102000000Y-54500000D02*
G75*
G02*
X107000000Y-54500000I2500000J0D01*
G01*
D11*
X117500000Y-89200000D02*
X117500000Y-98800000D01*
X117900000Y-88800000D02*
X119300000Y-88800000D01*
X117900000Y-99200000D02*
X119300000Y-99200000D01*
X119700000Y-89200000D02*
X119700000Y-98800000D01*
X117500000Y-89200000D02*
G75*
G02*
X117900000Y-88800000I400000J0D01*
G01*
X117900000Y-99200000D02*
G75*
G02*
X117500000Y-98800000I-1J399999D01*
G01*
X119300000Y-88800000D02*
G75*
G02*
X119700000Y-89200000I0J-400000D01*
G01*
X119700000Y-98800000D02*
G75*
G02*
X119300000Y-99200000I-399999J-1D01*
G01*
X129800000Y-98800000D02*
X129800000Y-89200000D01*
X131600000Y-88800000D02*
X130200000Y-88800000D01*
X131600000Y-99200000D02*
X130200000Y-99200000D01*
X132000000Y-98800000D02*
X132000000Y-89200000D01*
X129800000Y-89200000D02*
G75*
G02*
X130200000Y-88800000I399999J1D01*
G01*
X130200000Y-99200000D02*
G75*
G02*
X129800000Y-98800000I0J400000D01*
G01*
X131600000Y-88800000D02*
G75*
G02*
X132000000Y-89200000I1J-399999D01*
G01*
X132000000Y-98800000D02*
G75*
G02*
X131600000Y-99200000I-400000J0D01*
G01*
M02*
