%TF.GenerationSoftware,KiCad,Pcbnew,8.0.4*%
%TF.CreationDate,2024-08-22T20:54:47+02:00*%
%TF.ProjectId,Controller,436f6e74-726f-46c6-9c65-722e6b696361,v0*%
%TF.SameCoordinates,Original*%
%TF.FileFunction,Drillmap*%
%TF.FilePolarity,Positive*%
%FSLAX45Y45*%
G04 Gerber Fmt 4.5, Leading zero omitted, Abs format (unit mm)*
G04 Created by KiCad (PCBNEW 8.0.4) date 2024-08-22 20:54:47*
%MOMM*%
%LPD*%
G01*
G04 APERTURE LIST*
%ADD10C,0.050000*%
%ADD11C,0.200000*%
%ADD12C,0.100000*%
G04 APERTURE END LIST*
D10*
X15800000Y-5000000D02*
X25000000Y-5000000D01*
X25000000Y-11200000D01*
X15800000Y-11200000D01*
X15800000Y-5000000D01*
D11*
D12*
X16305370Y-5296470D02*
X16404430Y-5395530D01*
X16404430Y-5296470D02*
X16305370Y-5395530D01*
X16406970Y-5804470D02*
X16506030Y-5903530D01*
X16506030Y-5804470D02*
X16406970Y-5903530D01*
X16508570Y-5296470D02*
X16607630Y-5395530D01*
X16607630Y-5296470D02*
X16508570Y-5395530D01*
X17765000Y-5392500D02*
G75*
G02*
X17665000Y-5392500I-50000J0D01*
G01*
X17665000Y-5392500D02*
G75*
G02*
X17765000Y-5392500I50000J0D01*
G01*
X18565000Y-5392500D02*
G75*
G02*
X18465000Y-5392500I-50000J0D01*
G01*
X18465000Y-5392500D02*
G75*
G02*
X18565000Y-5392500I50000J0D01*
G01*
D11*
X16058277Y-11513984D02*
X16058277Y-11313984D01*
X16058277Y-11313984D02*
X16105896Y-11313984D01*
X16105896Y-11313984D02*
X16134467Y-11323508D01*
X16134467Y-11323508D02*
X16153515Y-11342555D01*
X16153515Y-11342555D02*
X16163039Y-11361603D01*
X16163039Y-11361603D02*
X16172562Y-11399698D01*
X16172562Y-11399698D02*
X16172562Y-11428269D01*
X16172562Y-11428269D02*
X16163039Y-11466365D01*
X16163039Y-11466365D02*
X16153515Y-11485412D01*
X16153515Y-11485412D02*
X16134467Y-11504460D01*
X16134467Y-11504460D02*
X16105896Y-11513984D01*
X16105896Y-11513984D02*
X16058277Y-11513984D01*
X16258277Y-11513984D02*
X16258277Y-11380650D01*
X16258277Y-11418746D02*
X16267801Y-11399698D01*
X16267801Y-11399698D02*
X16277324Y-11390174D01*
X16277324Y-11390174D02*
X16296372Y-11380650D01*
X16296372Y-11380650D02*
X16315420Y-11380650D01*
X16382086Y-11513984D02*
X16382086Y-11380650D01*
X16382086Y-11313984D02*
X16372562Y-11323508D01*
X16372562Y-11323508D02*
X16382086Y-11333031D01*
X16382086Y-11333031D02*
X16391610Y-11323508D01*
X16391610Y-11323508D02*
X16382086Y-11313984D01*
X16382086Y-11313984D02*
X16382086Y-11333031D01*
X16505896Y-11513984D02*
X16486848Y-11504460D01*
X16486848Y-11504460D02*
X16477324Y-11485412D01*
X16477324Y-11485412D02*
X16477324Y-11313984D01*
X16610658Y-11513984D02*
X16591610Y-11504460D01*
X16591610Y-11504460D02*
X16582086Y-11485412D01*
X16582086Y-11485412D02*
X16582086Y-11313984D01*
X16839229Y-11513984D02*
X16839229Y-11313984D01*
X16839229Y-11313984D02*
X16905896Y-11456841D01*
X16905896Y-11456841D02*
X16972563Y-11313984D01*
X16972563Y-11313984D02*
X16972563Y-11513984D01*
X17153515Y-11513984D02*
X17153515Y-11409222D01*
X17153515Y-11409222D02*
X17143991Y-11390174D01*
X17143991Y-11390174D02*
X17124944Y-11380650D01*
X17124944Y-11380650D02*
X17086848Y-11380650D01*
X17086848Y-11380650D02*
X17067801Y-11390174D01*
X17153515Y-11504460D02*
X17134467Y-11513984D01*
X17134467Y-11513984D02*
X17086848Y-11513984D01*
X17086848Y-11513984D02*
X17067801Y-11504460D01*
X17067801Y-11504460D02*
X17058277Y-11485412D01*
X17058277Y-11485412D02*
X17058277Y-11466365D01*
X17058277Y-11466365D02*
X17067801Y-11447317D01*
X17067801Y-11447317D02*
X17086848Y-11437793D01*
X17086848Y-11437793D02*
X17134467Y-11437793D01*
X17134467Y-11437793D02*
X17153515Y-11428269D01*
X17248753Y-11380650D02*
X17248753Y-11580650D01*
X17248753Y-11390174D02*
X17267801Y-11380650D01*
X17267801Y-11380650D02*
X17305896Y-11380650D01*
X17305896Y-11380650D02*
X17324944Y-11390174D01*
X17324944Y-11390174D02*
X17334467Y-11399698D01*
X17334467Y-11399698D02*
X17343991Y-11418746D01*
X17343991Y-11418746D02*
X17343991Y-11475888D01*
X17343991Y-11475888D02*
X17334467Y-11494936D01*
X17334467Y-11494936D02*
X17324944Y-11504460D01*
X17324944Y-11504460D02*
X17305896Y-11513984D01*
X17305896Y-11513984D02*
X17267801Y-11513984D01*
X17267801Y-11513984D02*
X17248753Y-11504460D01*
X17429705Y-11494936D02*
X17439229Y-11504460D01*
X17439229Y-11504460D02*
X17429705Y-11513984D01*
X17429705Y-11513984D02*
X17420182Y-11504460D01*
X17420182Y-11504460D02*
X17429705Y-11494936D01*
X17429705Y-11494936D02*
X17429705Y-11513984D01*
X17429705Y-11390174D02*
X17439229Y-11399698D01*
X17439229Y-11399698D02*
X17429705Y-11409222D01*
X17429705Y-11409222D02*
X17420182Y-11399698D01*
X17420182Y-11399698D02*
X17429705Y-11390174D01*
X17429705Y-11390174D02*
X17429705Y-11409222D01*
D12*
X15698440Y-11792970D02*
X15797500Y-11892030D01*
X15797500Y-11792970D02*
X15698440Y-11892030D01*
D11*
X16096372Y-11733984D02*
X16115420Y-11733984D01*
X16115420Y-11733984D02*
X16134467Y-11743508D01*
X16134467Y-11743508D02*
X16143991Y-11753031D01*
X16143991Y-11753031D02*
X16153515Y-11772079D01*
X16153515Y-11772079D02*
X16163039Y-11810174D01*
X16163039Y-11810174D02*
X16163039Y-11857793D01*
X16163039Y-11857793D02*
X16153515Y-11895888D01*
X16153515Y-11895888D02*
X16143991Y-11914936D01*
X16143991Y-11914936D02*
X16134467Y-11924460D01*
X16134467Y-11924460D02*
X16115420Y-11933984D01*
X16115420Y-11933984D02*
X16096372Y-11933984D01*
X16096372Y-11933984D02*
X16077324Y-11924460D01*
X16077324Y-11924460D02*
X16067801Y-11914936D01*
X16067801Y-11914936D02*
X16058277Y-11895888D01*
X16058277Y-11895888D02*
X16048753Y-11857793D01*
X16048753Y-11857793D02*
X16048753Y-11810174D01*
X16048753Y-11810174D02*
X16058277Y-11772079D01*
X16058277Y-11772079D02*
X16067801Y-11753031D01*
X16067801Y-11753031D02*
X16077324Y-11743508D01*
X16077324Y-11743508D02*
X16096372Y-11733984D01*
X16248753Y-11914936D02*
X16258277Y-11924460D01*
X16258277Y-11924460D02*
X16248753Y-11933984D01*
X16248753Y-11933984D02*
X16239229Y-11924460D01*
X16239229Y-11924460D02*
X16248753Y-11914936D01*
X16248753Y-11914936D02*
X16248753Y-11933984D01*
X16353515Y-11933984D02*
X16391610Y-11933984D01*
X16391610Y-11933984D02*
X16410658Y-11924460D01*
X16410658Y-11924460D02*
X16420182Y-11914936D01*
X16420182Y-11914936D02*
X16439229Y-11886365D01*
X16439229Y-11886365D02*
X16448753Y-11848269D01*
X16448753Y-11848269D02*
X16448753Y-11772079D01*
X16448753Y-11772079D02*
X16439229Y-11753031D01*
X16439229Y-11753031D02*
X16429705Y-11743508D01*
X16429705Y-11743508D02*
X16410658Y-11733984D01*
X16410658Y-11733984D02*
X16372562Y-11733984D01*
X16372562Y-11733984D02*
X16353515Y-11743508D01*
X16353515Y-11743508D02*
X16343991Y-11753031D01*
X16343991Y-11753031D02*
X16334467Y-11772079D01*
X16334467Y-11772079D02*
X16334467Y-11819698D01*
X16334467Y-11819698D02*
X16343991Y-11838746D01*
X16343991Y-11838746D02*
X16353515Y-11848269D01*
X16353515Y-11848269D02*
X16372562Y-11857793D01*
X16372562Y-11857793D02*
X16410658Y-11857793D01*
X16410658Y-11857793D02*
X16429705Y-11848269D01*
X16429705Y-11848269D02*
X16439229Y-11838746D01*
X16439229Y-11838746D02*
X16448753Y-11819698D01*
X16543991Y-11933984D02*
X16582086Y-11933984D01*
X16582086Y-11933984D02*
X16601134Y-11924460D01*
X16601134Y-11924460D02*
X16610658Y-11914936D01*
X16610658Y-11914936D02*
X16629705Y-11886365D01*
X16629705Y-11886365D02*
X16639229Y-11848269D01*
X16639229Y-11848269D02*
X16639229Y-11772079D01*
X16639229Y-11772079D02*
X16629705Y-11753031D01*
X16629705Y-11753031D02*
X16620182Y-11743508D01*
X16620182Y-11743508D02*
X16601134Y-11733984D01*
X16601134Y-11733984D02*
X16563039Y-11733984D01*
X16563039Y-11733984D02*
X16543991Y-11743508D01*
X16543991Y-11743508D02*
X16534467Y-11753031D01*
X16534467Y-11753031D02*
X16524943Y-11772079D01*
X16524943Y-11772079D02*
X16524943Y-11819698D01*
X16524943Y-11819698D02*
X16534467Y-11838746D01*
X16534467Y-11838746D02*
X16543991Y-11848269D01*
X16543991Y-11848269D02*
X16563039Y-11857793D01*
X16563039Y-11857793D02*
X16601134Y-11857793D01*
X16601134Y-11857793D02*
X16620182Y-11848269D01*
X16620182Y-11848269D02*
X16629705Y-11838746D01*
X16629705Y-11838746D02*
X16639229Y-11819698D01*
X16829705Y-11933984D02*
X16715420Y-11933984D01*
X16772562Y-11933984D02*
X16772562Y-11733984D01*
X16772562Y-11733984D02*
X16753515Y-11762555D01*
X16753515Y-11762555D02*
X16734467Y-11781603D01*
X16734467Y-11781603D02*
X16715420Y-11791127D01*
X16915420Y-11933984D02*
X16915420Y-11800650D01*
X16915420Y-11819698D02*
X16924944Y-11810174D01*
X16924944Y-11810174D02*
X16943991Y-11800650D01*
X16943991Y-11800650D02*
X16972563Y-11800650D01*
X16972563Y-11800650D02*
X16991610Y-11810174D01*
X16991610Y-11810174D02*
X17001134Y-11829222D01*
X17001134Y-11829222D02*
X17001134Y-11933984D01*
X17001134Y-11829222D02*
X17010658Y-11810174D01*
X17010658Y-11810174D02*
X17029705Y-11800650D01*
X17029705Y-11800650D02*
X17058277Y-11800650D01*
X17058277Y-11800650D02*
X17077325Y-11810174D01*
X17077325Y-11810174D02*
X17086848Y-11829222D01*
X17086848Y-11829222D02*
X17086848Y-11933984D01*
X17182086Y-11933984D02*
X17182086Y-11800650D01*
X17182086Y-11819698D02*
X17191610Y-11810174D01*
X17191610Y-11810174D02*
X17210658Y-11800650D01*
X17210658Y-11800650D02*
X17239229Y-11800650D01*
X17239229Y-11800650D02*
X17258277Y-11810174D01*
X17258277Y-11810174D02*
X17267801Y-11829222D01*
X17267801Y-11829222D02*
X17267801Y-11933984D01*
X17267801Y-11829222D02*
X17277325Y-11810174D01*
X17277325Y-11810174D02*
X17296372Y-11800650D01*
X17296372Y-11800650D02*
X17324944Y-11800650D01*
X17324944Y-11800650D02*
X17343991Y-11810174D01*
X17343991Y-11810174D02*
X17353515Y-11829222D01*
X17353515Y-11829222D02*
X17353515Y-11933984D01*
X17743991Y-11724460D02*
X17572563Y-11981603D01*
X18001134Y-11733984D02*
X18020182Y-11733984D01*
X18020182Y-11733984D02*
X18039229Y-11743508D01*
X18039229Y-11743508D02*
X18048753Y-11753031D01*
X18048753Y-11753031D02*
X18058277Y-11772079D01*
X18058277Y-11772079D02*
X18067801Y-11810174D01*
X18067801Y-11810174D02*
X18067801Y-11857793D01*
X18067801Y-11857793D02*
X18058277Y-11895888D01*
X18058277Y-11895888D02*
X18048753Y-11914936D01*
X18048753Y-11914936D02*
X18039229Y-11924460D01*
X18039229Y-11924460D02*
X18020182Y-11933984D01*
X18020182Y-11933984D02*
X18001134Y-11933984D01*
X18001134Y-11933984D02*
X17982087Y-11924460D01*
X17982087Y-11924460D02*
X17972563Y-11914936D01*
X17972563Y-11914936D02*
X17963039Y-11895888D01*
X17963039Y-11895888D02*
X17953515Y-11857793D01*
X17953515Y-11857793D02*
X17953515Y-11810174D01*
X17953515Y-11810174D02*
X17963039Y-11772079D01*
X17963039Y-11772079D02*
X17972563Y-11753031D01*
X17972563Y-11753031D02*
X17982087Y-11743508D01*
X17982087Y-11743508D02*
X18001134Y-11733984D01*
X18153515Y-11914936D02*
X18163039Y-11924460D01*
X18163039Y-11924460D02*
X18153515Y-11933984D01*
X18153515Y-11933984D02*
X18143991Y-11924460D01*
X18143991Y-11924460D02*
X18153515Y-11914936D01*
X18153515Y-11914936D02*
X18153515Y-11933984D01*
X18286848Y-11733984D02*
X18305896Y-11733984D01*
X18305896Y-11733984D02*
X18324944Y-11743508D01*
X18324944Y-11743508D02*
X18334468Y-11753031D01*
X18334468Y-11753031D02*
X18343991Y-11772079D01*
X18343991Y-11772079D02*
X18353515Y-11810174D01*
X18353515Y-11810174D02*
X18353515Y-11857793D01*
X18353515Y-11857793D02*
X18343991Y-11895888D01*
X18343991Y-11895888D02*
X18334468Y-11914936D01*
X18334468Y-11914936D02*
X18324944Y-11924460D01*
X18324944Y-11924460D02*
X18305896Y-11933984D01*
X18305896Y-11933984D02*
X18286848Y-11933984D01*
X18286848Y-11933984D02*
X18267801Y-11924460D01*
X18267801Y-11924460D02*
X18258277Y-11914936D01*
X18258277Y-11914936D02*
X18248753Y-11895888D01*
X18248753Y-11895888D02*
X18239229Y-11857793D01*
X18239229Y-11857793D02*
X18239229Y-11810174D01*
X18239229Y-11810174D02*
X18248753Y-11772079D01*
X18248753Y-11772079D02*
X18258277Y-11753031D01*
X18258277Y-11753031D02*
X18267801Y-11743508D01*
X18267801Y-11743508D02*
X18286848Y-11733984D01*
X18420182Y-11733984D02*
X18543991Y-11733984D01*
X18543991Y-11733984D02*
X18477325Y-11810174D01*
X18477325Y-11810174D02*
X18505896Y-11810174D01*
X18505896Y-11810174D02*
X18524944Y-11819698D01*
X18524944Y-11819698D02*
X18534468Y-11829222D01*
X18534468Y-11829222D02*
X18543991Y-11848269D01*
X18543991Y-11848269D02*
X18543991Y-11895888D01*
X18543991Y-11895888D02*
X18534468Y-11914936D01*
X18534468Y-11914936D02*
X18524944Y-11924460D01*
X18524944Y-11924460D02*
X18505896Y-11933984D01*
X18505896Y-11933984D02*
X18448753Y-11933984D01*
X18448753Y-11933984D02*
X18429706Y-11924460D01*
X18429706Y-11924460D02*
X18420182Y-11914936D01*
X18639229Y-11933984D02*
X18677325Y-11933984D01*
X18677325Y-11933984D02*
X18696372Y-11924460D01*
X18696372Y-11924460D02*
X18705896Y-11914936D01*
X18705896Y-11914936D02*
X18724944Y-11886365D01*
X18724944Y-11886365D02*
X18734468Y-11848269D01*
X18734468Y-11848269D02*
X18734468Y-11772079D01*
X18734468Y-11772079D02*
X18724944Y-11753031D01*
X18724944Y-11753031D02*
X18715420Y-11743508D01*
X18715420Y-11743508D02*
X18696372Y-11733984D01*
X18696372Y-11733984D02*
X18658277Y-11733984D01*
X18658277Y-11733984D02*
X18639229Y-11743508D01*
X18639229Y-11743508D02*
X18629706Y-11753031D01*
X18629706Y-11753031D02*
X18620182Y-11772079D01*
X18620182Y-11772079D02*
X18620182Y-11819698D01*
X18620182Y-11819698D02*
X18629706Y-11838746D01*
X18629706Y-11838746D02*
X18639229Y-11848269D01*
X18639229Y-11848269D02*
X18658277Y-11857793D01*
X18658277Y-11857793D02*
X18696372Y-11857793D01*
X18696372Y-11857793D02*
X18715420Y-11848269D01*
X18715420Y-11848269D02*
X18724944Y-11838746D01*
X18724944Y-11838746D02*
X18734468Y-11819698D01*
X18858277Y-11733984D02*
X18877325Y-11733984D01*
X18877325Y-11733984D02*
X18896372Y-11743508D01*
X18896372Y-11743508D02*
X18905896Y-11753031D01*
X18905896Y-11753031D02*
X18915420Y-11772079D01*
X18915420Y-11772079D02*
X18924944Y-11810174D01*
X18924944Y-11810174D02*
X18924944Y-11857793D01*
X18924944Y-11857793D02*
X18915420Y-11895888D01*
X18915420Y-11895888D02*
X18905896Y-11914936D01*
X18905896Y-11914936D02*
X18896372Y-11924460D01*
X18896372Y-11924460D02*
X18877325Y-11933984D01*
X18877325Y-11933984D02*
X18858277Y-11933984D01*
X18858277Y-11933984D02*
X18839229Y-11924460D01*
X18839229Y-11924460D02*
X18829706Y-11914936D01*
X18829706Y-11914936D02*
X18820182Y-11895888D01*
X18820182Y-11895888D02*
X18810658Y-11857793D01*
X18810658Y-11857793D02*
X18810658Y-11810174D01*
X18810658Y-11810174D02*
X18820182Y-11772079D01*
X18820182Y-11772079D02*
X18829706Y-11753031D01*
X18829706Y-11753031D02*
X18839229Y-11743508D01*
X18839229Y-11743508D02*
X18858277Y-11733984D01*
X19001134Y-11733984D02*
X19001134Y-11772079D01*
X19077325Y-11733984D02*
X19077325Y-11772079D01*
X19372563Y-12010174D02*
X19363039Y-12000650D01*
X19363039Y-12000650D02*
X19343991Y-11972079D01*
X19343991Y-11972079D02*
X19334468Y-11953031D01*
X19334468Y-11953031D02*
X19324944Y-11924460D01*
X19324944Y-11924460D02*
X19315420Y-11876841D01*
X19315420Y-11876841D02*
X19315420Y-11838746D01*
X19315420Y-11838746D02*
X19324944Y-11791127D01*
X19324944Y-11791127D02*
X19334468Y-11762555D01*
X19334468Y-11762555D02*
X19343991Y-11743508D01*
X19343991Y-11743508D02*
X19363039Y-11714936D01*
X19363039Y-11714936D02*
X19372563Y-11705412D01*
X19429706Y-11733984D02*
X19553515Y-11733984D01*
X19553515Y-11733984D02*
X19486849Y-11810174D01*
X19486849Y-11810174D02*
X19515420Y-11810174D01*
X19515420Y-11810174D02*
X19534468Y-11819698D01*
X19534468Y-11819698D02*
X19543991Y-11829222D01*
X19543991Y-11829222D02*
X19553515Y-11848269D01*
X19553515Y-11848269D02*
X19553515Y-11895888D01*
X19553515Y-11895888D02*
X19543991Y-11914936D01*
X19543991Y-11914936D02*
X19534468Y-11924460D01*
X19534468Y-11924460D02*
X19515420Y-11933984D01*
X19515420Y-11933984D02*
X19458277Y-11933984D01*
X19458277Y-11933984D02*
X19439230Y-11924460D01*
X19439230Y-11924460D02*
X19429706Y-11914936D01*
X19791611Y-11933984D02*
X19791611Y-11733984D01*
X19877325Y-11933984D02*
X19877325Y-11829222D01*
X19877325Y-11829222D02*
X19867801Y-11810174D01*
X19867801Y-11810174D02*
X19848753Y-11800650D01*
X19848753Y-11800650D02*
X19820182Y-11800650D01*
X19820182Y-11800650D02*
X19801134Y-11810174D01*
X19801134Y-11810174D02*
X19791611Y-11819698D01*
X20001134Y-11933984D02*
X19982087Y-11924460D01*
X19982087Y-11924460D02*
X19972563Y-11914936D01*
X19972563Y-11914936D02*
X19963039Y-11895888D01*
X19963039Y-11895888D02*
X19963039Y-11838746D01*
X19963039Y-11838746D02*
X19972563Y-11819698D01*
X19972563Y-11819698D02*
X19982087Y-11810174D01*
X19982087Y-11810174D02*
X20001134Y-11800650D01*
X20001134Y-11800650D02*
X20029706Y-11800650D01*
X20029706Y-11800650D02*
X20048753Y-11810174D01*
X20048753Y-11810174D02*
X20058277Y-11819698D01*
X20058277Y-11819698D02*
X20067801Y-11838746D01*
X20067801Y-11838746D02*
X20067801Y-11895888D01*
X20067801Y-11895888D02*
X20058277Y-11914936D01*
X20058277Y-11914936D02*
X20048753Y-11924460D01*
X20048753Y-11924460D02*
X20029706Y-11933984D01*
X20029706Y-11933984D02*
X20001134Y-11933984D01*
X20182087Y-11933984D02*
X20163039Y-11924460D01*
X20163039Y-11924460D02*
X20153515Y-11905412D01*
X20153515Y-11905412D02*
X20153515Y-11733984D01*
X20334468Y-11924460D02*
X20315420Y-11933984D01*
X20315420Y-11933984D02*
X20277325Y-11933984D01*
X20277325Y-11933984D02*
X20258277Y-11924460D01*
X20258277Y-11924460D02*
X20248753Y-11905412D01*
X20248753Y-11905412D02*
X20248753Y-11829222D01*
X20248753Y-11829222D02*
X20258277Y-11810174D01*
X20258277Y-11810174D02*
X20277325Y-11800650D01*
X20277325Y-11800650D02*
X20315420Y-11800650D01*
X20315420Y-11800650D02*
X20334468Y-11810174D01*
X20334468Y-11810174D02*
X20343992Y-11829222D01*
X20343992Y-11829222D02*
X20343992Y-11848269D01*
X20343992Y-11848269D02*
X20248753Y-11867317D01*
X20420182Y-11924460D02*
X20439230Y-11933984D01*
X20439230Y-11933984D02*
X20477325Y-11933984D01*
X20477325Y-11933984D02*
X20496373Y-11924460D01*
X20496373Y-11924460D02*
X20505896Y-11905412D01*
X20505896Y-11905412D02*
X20505896Y-11895888D01*
X20505896Y-11895888D02*
X20496373Y-11876841D01*
X20496373Y-11876841D02*
X20477325Y-11867317D01*
X20477325Y-11867317D02*
X20448753Y-11867317D01*
X20448753Y-11867317D02*
X20429706Y-11857793D01*
X20429706Y-11857793D02*
X20420182Y-11838746D01*
X20420182Y-11838746D02*
X20420182Y-11829222D01*
X20420182Y-11829222D02*
X20429706Y-11810174D01*
X20429706Y-11810174D02*
X20448753Y-11800650D01*
X20448753Y-11800650D02*
X20477325Y-11800650D01*
X20477325Y-11800650D02*
X20496373Y-11810174D01*
X20572563Y-12010174D02*
X20582087Y-12000650D01*
X20582087Y-12000650D02*
X20601134Y-11972079D01*
X20601134Y-11972079D02*
X20610658Y-11953031D01*
X20610658Y-11953031D02*
X20620182Y-11924460D01*
X20620182Y-11924460D02*
X20629706Y-11876841D01*
X20629706Y-11876841D02*
X20629706Y-11838746D01*
X20629706Y-11838746D02*
X20620182Y-11791127D01*
X20620182Y-11791127D02*
X20610658Y-11762555D01*
X20610658Y-11762555D02*
X20601134Y-11743508D01*
X20601134Y-11743508D02*
X20582087Y-11714936D01*
X20582087Y-11714936D02*
X20572563Y-11705412D01*
X20934468Y-12010174D02*
X20924944Y-12000650D01*
X20924944Y-12000650D02*
X20905896Y-11972079D01*
X20905896Y-11972079D02*
X20896373Y-11953031D01*
X20896373Y-11953031D02*
X20886849Y-11924460D01*
X20886849Y-11924460D02*
X20877325Y-11876841D01*
X20877325Y-11876841D02*
X20877325Y-11838746D01*
X20877325Y-11838746D02*
X20886849Y-11791127D01*
X20886849Y-11791127D02*
X20896373Y-11762555D01*
X20896373Y-11762555D02*
X20905896Y-11743508D01*
X20905896Y-11743508D02*
X20924944Y-11714936D01*
X20924944Y-11714936D02*
X20934468Y-11705412D01*
X21010658Y-11800650D02*
X21010658Y-11933984D01*
X21010658Y-11819698D02*
X21020182Y-11810174D01*
X21020182Y-11810174D02*
X21039230Y-11800650D01*
X21039230Y-11800650D02*
X21067801Y-11800650D01*
X21067801Y-11800650D02*
X21086849Y-11810174D01*
X21086849Y-11810174D02*
X21096373Y-11829222D01*
X21096373Y-11829222D02*
X21096373Y-11933984D01*
X21220182Y-11933984D02*
X21201134Y-11924460D01*
X21201134Y-11924460D02*
X21191611Y-11914936D01*
X21191611Y-11914936D02*
X21182087Y-11895888D01*
X21182087Y-11895888D02*
X21182087Y-11838746D01*
X21182087Y-11838746D02*
X21191611Y-11819698D01*
X21191611Y-11819698D02*
X21201134Y-11810174D01*
X21201134Y-11810174D02*
X21220182Y-11800650D01*
X21220182Y-11800650D02*
X21248754Y-11800650D01*
X21248754Y-11800650D02*
X21267801Y-11810174D01*
X21267801Y-11810174D02*
X21277325Y-11819698D01*
X21277325Y-11819698D02*
X21286849Y-11838746D01*
X21286849Y-11838746D02*
X21286849Y-11895888D01*
X21286849Y-11895888D02*
X21277325Y-11914936D01*
X21277325Y-11914936D02*
X21267801Y-11924460D01*
X21267801Y-11924460D02*
X21248754Y-11933984D01*
X21248754Y-11933984D02*
X21220182Y-11933984D01*
X21343992Y-11800650D02*
X21420182Y-11800650D01*
X21372563Y-11733984D02*
X21372563Y-11905412D01*
X21372563Y-11905412D02*
X21382087Y-11924460D01*
X21382087Y-11924460D02*
X21401134Y-11933984D01*
X21401134Y-11933984D02*
X21420182Y-11933984D01*
X21639230Y-11800650D02*
X21639230Y-12000650D01*
X21639230Y-11810174D02*
X21658277Y-11800650D01*
X21658277Y-11800650D02*
X21696373Y-11800650D01*
X21696373Y-11800650D02*
X21715420Y-11810174D01*
X21715420Y-11810174D02*
X21724944Y-11819698D01*
X21724944Y-11819698D02*
X21734468Y-11838746D01*
X21734468Y-11838746D02*
X21734468Y-11895888D01*
X21734468Y-11895888D02*
X21724944Y-11914936D01*
X21724944Y-11914936D02*
X21715420Y-11924460D01*
X21715420Y-11924460D02*
X21696373Y-11933984D01*
X21696373Y-11933984D02*
X21658277Y-11933984D01*
X21658277Y-11933984D02*
X21639230Y-11924460D01*
X21848754Y-11933984D02*
X21829706Y-11924460D01*
X21829706Y-11924460D02*
X21820182Y-11905412D01*
X21820182Y-11905412D02*
X21820182Y-11733984D01*
X22010658Y-11933984D02*
X22010658Y-11829222D01*
X22010658Y-11829222D02*
X22001135Y-11810174D01*
X22001135Y-11810174D02*
X21982087Y-11800650D01*
X21982087Y-11800650D02*
X21943992Y-11800650D01*
X21943992Y-11800650D02*
X21924944Y-11810174D01*
X22010658Y-11924460D02*
X21991611Y-11933984D01*
X21991611Y-11933984D02*
X21943992Y-11933984D01*
X21943992Y-11933984D02*
X21924944Y-11924460D01*
X21924944Y-11924460D02*
X21915420Y-11905412D01*
X21915420Y-11905412D02*
X21915420Y-11886365D01*
X21915420Y-11886365D02*
X21924944Y-11867317D01*
X21924944Y-11867317D02*
X21943992Y-11857793D01*
X21943992Y-11857793D02*
X21991611Y-11857793D01*
X21991611Y-11857793D02*
X22010658Y-11848269D01*
X22077325Y-11800650D02*
X22153515Y-11800650D01*
X22105896Y-11733984D02*
X22105896Y-11905412D01*
X22105896Y-11905412D02*
X22115420Y-11924460D01*
X22115420Y-11924460D02*
X22134468Y-11933984D01*
X22134468Y-11933984D02*
X22153515Y-11933984D01*
X22296373Y-11924460D02*
X22277325Y-11933984D01*
X22277325Y-11933984D02*
X22239230Y-11933984D01*
X22239230Y-11933984D02*
X22220182Y-11924460D01*
X22220182Y-11924460D02*
X22210658Y-11905412D01*
X22210658Y-11905412D02*
X22210658Y-11829222D01*
X22210658Y-11829222D02*
X22220182Y-11810174D01*
X22220182Y-11810174D02*
X22239230Y-11800650D01*
X22239230Y-11800650D02*
X22277325Y-11800650D01*
X22277325Y-11800650D02*
X22296373Y-11810174D01*
X22296373Y-11810174D02*
X22305896Y-11829222D01*
X22305896Y-11829222D02*
X22305896Y-11848269D01*
X22305896Y-11848269D02*
X22210658Y-11867317D01*
X22477325Y-11933984D02*
X22477325Y-11733984D01*
X22477325Y-11924460D02*
X22458277Y-11933984D01*
X22458277Y-11933984D02*
X22420182Y-11933984D01*
X22420182Y-11933984D02*
X22401134Y-11924460D01*
X22401134Y-11924460D02*
X22391611Y-11914936D01*
X22391611Y-11914936D02*
X22382087Y-11895888D01*
X22382087Y-11895888D02*
X22382087Y-11838746D01*
X22382087Y-11838746D02*
X22391611Y-11819698D01*
X22391611Y-11819698D02*
X22401134Y-11810174D01*
X22401134Y-11810174D02*
X22420182Y-11800650D01*
X22420182Y-11800650D02*
X22458277Y-11800650D01*
X22458277Y-11800650D02*
X22477325Y-11810174D01*
X22553515Y-12010174D02*
X22563039Y-12000650D01*
X22563039Y-12000650D02*
X22582087Y-11972079D01*
X22582087Y-11972079D02*
X22591611Y-11953031D01*
X22591611Y-11953031D02*
X22601134Y-11924460D01*
X22601134Y-11924460D02*
X22610658Y-11876841D01*
X22610658Y-11876841D02*
X22610658Y-11838746D01*
X22610658Y-11838746D02*
X22601134Y-11791127D01*
X22601134Y-11791127D02*
X22591611Y-11762555D01*
X22591611Y-11762555D02*
X22582087Y-11743508D01*
X22582087Y-11743508D02*
X22563039Y-11714936D01*
X22563039Y-11714936D02*
X22553515Y-11705412D01*
D12*
X15797500Y-12106500D02*
G75*
G02*
X15697500Y-12106500I-50000J0D01*
G01*
X15697500Y-12106500D02*
G75*
G02*
X15797500Y-12106500I50000J0D01*
G01*
D11*
X16163039Y-12197984D02*
X16048753Y-12197984D01*
X16105896Y-12197984D02*
X16105896Y-11997984D01*
X16105896Y-11997984D02*
X16086848Y-12026555D01*
X16086848Y-12026555D02*
X16067801Y-12045603D01*
X16067801Y-12045603D02*
X16048753Y-12055127D01*
X16248753Y-12178936D02*
X16258277Y-12188460D01*
X16258277Y-12188460D02*
X16248753Y-12197984D01*
X16248753Y-12197984D02*
X16239229Y-12188460D01*
X16239229Y-12188460D02*
X16248753Y-12178936D01*
X16248753Y-12178936D02*
X16248753Y-12197984D01*
X16382086Y-11997984D02*
X16401134Y-11997984D01*
X16401134Y-11997984D02*
X16420182Y-12007508D01*
X16420182Y-12007508D02*
X16429705Y-12017031D01*
X16429705Y-12017031D02*
X16439229Y-12036079D01*
X16439229Y-12036079D02*
X16448753Y-12074174D01*
X16448753Y-12074174D02*
X16448753Y-12121793D01*
X16448753Y-12121793D02*
X16439229Y-12159888D01*
X16439229Y-12159888D02*
X16429705Y-12178936D01*
X16429705Y-12178936D02*
X16420182Y-12188460D01*
X16420182Y-12188460D02*
X16401134Y-12197984D01*
X16401134Y-12197984D02*
X16382086Y-12197984D01*
X16382086Y-12197984D02*
X16363039Y-12188460D01*
X16363039Y-12188460D02*
X16353515Y-12178936D01*
X16353515Y-12178936D02*
X16343991Y-12159888D01*
X16343991Y-12159888D02*
X16334467Y-12121793D01*
X16334467Y-12121793D02*
X16334467Y-12074174D01*
X16334467Y-12074174D02*
X16343991Y-12036079D01*
X16343991Y-12036079D02*
X16353515Y-12017031D01*
X16353515Y-12017031D02*
X16363039Y-12007508D01*
X16363039Y-12007508D02*
X16382086Y-11997984D01*
X16572562Y-11997984D02*
X16591610Y-11997984D01*
X16591610Y-11997984D02*
X16610658Y-12007508D01*
X16610658Y-12007508D02*
X16620182Y-12017031D01*
X16620182Y-12017031D02*
X16629705Y-12036079D01*
X16629705Y-12036079D02*
X16639229Y-12074174D01*
X16639229Y-12074174D02*
X16639229Y-12121793D01*
X16639229Y-12121793D02*
X16629705Y-12159888D01*
X16629705Y-12159888D02*
X16620182Y-12178936D01*
X16620182Y-12178936D02*
X16610658Y-12188460D01*
X16610658Y-12188460D02*
X16591610Y-12197984D01*
X16591610Y-12197984D02*
X16572562Y-12197984D01*
X16572562Y-12197984D02*
X16553515Y-12188460D01*
X16553515Y-12188460D02*
X16543991Y-12178936D01*
X16543991Y-12178936D02*
X16534467Y-12159888D01*
X16534467Y-12159888D02*
X16524943Y-12121793D01*
X16524943Y-12121793D02*
X16524943Y-12074174D01*
X16524943Y-12074174D02*
X16534467Y-12036079D01*
X16534467Y-12036079D02*
X16543991Y-12017031D01*
X16543991Y-12017031D02*
X16553515Y-12007508D01*
X16553515Y-12007508D02*
X16572562Y-11997984D01*
X16763039Y-11997984D02*
X16782086Y-11997984D01*
X16782086Y-11997984D02*
X16801134Y-12007508D01*
X16801134Y-12007508D02*
X16810658Y-12017031D01*
X16810658Y-12017031D02*
X16820182Y-12036079D01*
X16820182Y-12036079D02*
X16829705Y-12074174D01*
X16829705Y-12074174D02*
X16829705Y-12121793D01*
X16829705Y-12121793D02*
X16820182Y-12159888D01*
X16820182Y-12159888D02*
X16810658Y-12178936D01*
X16810658Y-12178936D02*
X16801134Y-12188460D01*
X16801134Y-12188460D02*
X16782086Y-12197984D01*
X16782086Y-12197984D02*
X16763039Y-12197984D01*
X16763039Y-12197984D02*
X16743991Y-12188460D01*
X16743991Y-12188460D02*
X16734467Y-12178936D01*
X16734467Y-12178936D02*
X16724943Y-12159888D01*
X16724943Y-12159888D02*
X16715420Y-12121793D01*
X16715420Y-12121793D02*
X16715420Y-12074174D01*
X16715420Y-12074174D02*
X16724943Y-12036079D01*
X16724943Y-12036079D02*
X16734467Y-12017031D01*
X16734467Y-12017031D02*
X16743991Y-12007508D01*
X16743991Y-12007508D02*
X16763039Y-11997984D01*
X16915420Y-12197984D02*
X16915420Y-12064650D01*
X16915420Y-12083698D02*
X16924944Y-12074174D01*
X16924944Y-12074174D02*
X16943991Y-12064650D01*
X16943991Y-12064650D02*
X16972563Y-12064650D01*
X16972563Y-12064650D02*
X16991610Y-12074174D01*
X16991610Y-12074174D02*
X17001134Y-12093222D01*
X17001134Y-12093222D02*
X17001134Y-12197984D01*
X17001134Y-12093222D02*
X17010658Y-12074174D01*
X17010658Y-12074174D02*
X17029705Y-12064650D01*
X17029705Y-12064650D02*
X17058277Y-12064650D01*
X17058277Y-12064650D02*
X17077325Y-12074174D01*
X17077325Y-12074174D02*
X17086848Y-12093222D01*
X17086848Y-12093222D02*
X17086848Y-12197984D01*
X17182086Y-12197984D02*
X17182086Y-12064650D01*
X17182086Y-12083698D02*
X17191610Y-12074174D01*
X17191610Y-12074174D02*
X17210658Y-12064650D01*
X17210658Y-12064650D02*
X17239229Y-12064650D01*
X17239229Y-12064650D02*
X17258277Y-12074174D01*
X17258277Y-12074174D02*
X17267801Y-12093222D01*
X17267801Y-12093222D02*
X17267801Y-12197984D01*
X17267801Y-12093222D02*
X17277325Y-12074174D01*
X17277325Y-12074174D02*
X17296372Y-12064650D01*
X17296372Y-12064650D02*
X17324944Y-12064650D01*
X17324944Y-12064650D02*
X17343991Y-12074174D01*
X17343991Y-12074174D02*
X17353515Y-12093222D01*
X17353515Y-12093222D02*
X17353515Y-12197984D01*
X17743991Y-11988460D02*
X17572563Y-12245603D01*
X18001134Y-11997984D02*
X18020182Y-11997984D01*
X18020182Y-11997984D02*
X18039229Y-12007508D01*
X18039229Y-12007508D02*
X18048753Y-12017031D01*
X18048753Y-12017031D02*
X18058277Y-12036079D01*
X18058277Y-12036079D02*
X18067801Y-12074174D01*
X18067801Y-12074174D02*
X18067801Y-12121793D01*
X18067801Y-12121793D02*
X18058277Y-12159888D01*
X18058277Y-12159888D02*
X18048753Y-12178936D01*
X18048753Y-12178936D02*
X18039229Y-12188460D01*
X18039229Y-12188460D02*
X18020182Y-12197984D01*
X18020182Y-12197984D02*
X18001134Y-12197984D01*
X18001134Y-12197984D02*
X17982087Y-12188460D01*
X17982087Y-12188460D02*
X17972563Y-12178936D01*
X17972563Y-12178936D02*
X17963039Y-12159888D01*
X17963039Y-12159888D02*
X17953515Y-12121793D01*
X17953515Y-12121793D02*
X17953515Y-12074174D01*
X17953515Y-12074174D02*
X17963039Y-12036079D01*
X17963039Y-12036079D02*
X17972563Y-12017031D01*
X17972563Y-12017031D02*
X17982087Y-12007508D01*
X17982087Y-12007508D02*
X18001134Y-11997984D01*
X18153515Y-12178936D02*
X18163039Y-12188460D01*
X18163039Y-12188460D02*
X18153515Y-12197984D01*
X18153515Y-12197984D02*
X18143991Y-12188460D01*
X18143991Y-12188460D02*
X18153515Y-12178936D01*
X18153515Y-12178936D02*
X18153515Y-12197984D01*
X18286848Y-11997984D02*
X18305896Y-11997984D01*
X18305896Y-11997984D02*
X18324944Y-12007508D01*
X18324944Y-12007508D02*
X18334468Y-12017031D01*
X18334468Y-12017031D02*
X18343991Y-12036079D01*
X18343991Y-12036079D02*
X18353515Y-12074174D01*
X18353515Y-12074174D02*
X18353515Y-12121793D01*
X18353515Y-12121793D02*
X18343991Y-12159888D01*
X18343991Y-12159888D02*
X18334468Y-12178936D01*
X18334468Y-12178936D02*
X18324944Y-12188460D01*
X18324944Y-12188460D02*
X18305896Y-12197984D01*
X18305896Y-12197984D02*
X18286848Y-12197984D01*
X18286848Y-12197984D02*
X18267801Y-12188460D01*
X18267801Y-12188460D02*
X18258277Y-12178936D01*
X18258277Y-12178936D02*
X18248753Y-12159888D01*
X18248753Y-12159888D02*
X18239229Y-12121793D01*
X18239229Y-12121793D02*
X18239229Y-12074174D01*
X18239229Y-12074174D02*
X18248753Y-12036079D01*
X18248753Y-12036079D02*
X18258277Y-12017031D01*
X18258277Y-12017031D02*
X18267801Y-12007508D01*
X18267801Y-12007508D02*
X18286848Y-11997984D01*
X18420182Y-11997984D02*
X18543991Y-11997984D01*
X18543991Y-11997984D02*
X18477325Y-12074174D01*
X18477325Y-12074174D02*
X18505896Y-12074174D01*
X18505896Y-12074174D02*
X18524944Y-12083698D01*
X18524944Y-12083698D02*
X18534468Y-12093222D01*
X18534468Y-12093222D02*
X18543991Y-12112269D01*
X18543991Y-12112269D02*
X18543991Y-12159888D01*
X18543991Y-12159888D02*
X18534468Y-12178936D01*
X18534468Y-12178936D02*
X18524944Y-12188460D01*
X18524944Y-12188460D02*
X18505896Y-12197984D01*
X18505896Y-12197984D02*
X18448753Y-12197984D01*
X18448753Y-12197984D02*
X18429706Y-12188460D01*
X18429706Y-12188460D02*
X18420182Y-12178936D01*
X18639229Y-12197984D02*
X18677325Y-12197984D01*
X18677325Y-12197984D02*
X18696372Y-12188460D01*
X18696372Y-12188460D02*
X18705896Y-12178936D01*
X18705896Y-12178936D02*
X18724944Y-12150365D01*
X18724944Y-12150365D02*
X18734468Y-12112269D01*
X18734468Y-12112269D02*
X18734468Y-12036079D01*
X18734468Y-12036079D02*
X18724944Y-12017031D01*
X18724944Y-12017031D02*
X18715420Y-12007508D01*
X18715420Y-12007508D02*
X18696372Y-11997984D01*
X18696372Y-11997984D02*
X18658277Y-11997984D01*
X18658277Y-11997984D02*
X18639229Y-12007508D01*
X18639229Y-12007508D02*
X18629706Y-12017031D01*
X18629706Y-12017031D02*
X18620182Y-12036079D01*
X18620182Y-12036079D02*
X18620182Y-12083698D01*
X18620182Y-12083698D02*
X18629706Y-12102746D01*
X18629706Y-12102746D02*
X18639229Y-12112269D01*
X18639229Y-12112269D02*
X18658277Y-12121793D01*
X18658277Y-12121793D02*
X18696372Y-12121793D01*
X18696372Y-12121793D02*
X18715420Y-12112269D01*
X18715420Y-12112269D02*
X18724944Y-12102746D01*
X18724944Y-12102746D02*
X18734468Y-12083698D01*
X18905896Y-12064650D02*
X18905896Y-12197984D01*
X18858277Y-11988460D02*
X18810658Y-12131317D01*
X18810658Y-12131317D02*
X18934468Y-12131317D01*
X19001134Y-11997984D02*
X19001134Y-12036079D01*
X19077325Y-11997984D02*
X19077325Y-12036079D01*
X19372563Y-12274174D02*
X19363039Y-12264650D01*
X19363039Y-12264650D02*
X19343991Y-12236079D01*
X19343991Y-12236079D02*
X19334468Y-12217031D01*
X19334468Y-12217031D02*
X19324944Y-12188460D01*
X19324944Y-12188460D02*
X19315420Y-12140841D01*
X19315420Y-12140841D02*
X19315420Y-12102746D01*
X19315420Y-12102746D02*
X19324944Y-12055127D01*
X19324944Y-12055127D02*
X19334468Y-12026555D01*
X19334468Y-12026555D02*
X19343991Y-12007508D01*
X19343991Y-12007508D02*
X19363039Y-11978936D01*
X19363039Y-11978936D02*
X19372563Y-11969412D01*
X19439230Y-12017031D02*
X19448753Y-12007508D01*
X19448753Y-12007508D02*
X19467801Y-11997984D01*
X19467801Y-11997984D02*
X19515420Y-11997984D01*
X19515420Y-11997984D02*
X19534468Y-12007508D01*
X19534468Y-12007508D02*
X19543991Y-12017031D01*
X19543991Y-12017031D02*
X19553515Y-12036079D01*
X19553515Y-12036079D02*
X19553515Y-12055127D01*
X19553515Y-12055127D02*
X19543991Y-12083698D01*
X19543991Y-12083698D02*
X19429706Y-12197984D01*
X19429706Y-12197984D02*
X19553515Y-12197984D01*
X19791611Y-12197984D02*
X19791611Y-11997984D01*
X19877325Y-12197984D02*
X19877325Y-12093222D01*
X19877325Y-12093222D02*
X19867801Y-12074174D01*
X19867801Y-12074174D02*
X19848753Y-12064650D01*
X19848753Y-12064650D02*
X19820182Y-12064650D01*
X19820182Y-12064650D02*
X19801134Y-12074174D01*
X19801134Y-12074174D02*
X19791611Y-12083698D01*
X20001134Y-12197984D02*
X19982087Y-12188460D01*
X19982087Y-12188460D02*
X19972563Y-12178936D01*
X19972563Y-12178936D02*
X19963039Y-12159888D01*
X19963039Y-12159888D02*
X19963039Y-12102746D01*
X19963039Y-12102746D02*
X19972563Y-12083698D01*
X19972563Y-12083698D02*
X19982087Y-12074174D01*
X19982087Y-12074174D02*
X20001134Y-12064650D01*
X20001134Y-12064650D02*
X20029706Y-12064650D01*
X20029706Y-12064650D02*
X20048753Y-12074174D01*
X20048753Y-12074174D02*
X20058277Y-12083698D01*
X20058277Y-12083698D02*
X20067801Y-12102746D01*
X20067801Y-12102746D02*
X20067801Y-12159888D01*
X20067801Y-12159888D02*
X20058277Y-12178936D01*
X20058277Y-12178936D02*
X20048753Y-12188460D01*
X20048753Y-12188460D02*
X20029706Y-12197984D01*
X20029706Y-12197984D02*
X20001134Y-12197984D01*
X20182087Y-12197984D02*
X20163039Y-12188460D01*
X20163039Y-12188460D02*
X20153515Y-12169412D01*
X20153515Y-12169412D02*
X20153515Y-11997984D01*
X20334468Y-12188460D02*
X20315420Y-12197984D01*
X20315420Y-12197984D02*
X20277325Y-12197984D01*
X20277325Y-12197984D02*
X20258277Y-12188460D01*
X20258277Y-12188460D02*
X20248753Y-12169412D01*
X20248753Y-12169412D02*
X20248753Y-12093222D01*
X20248753Y-12093222D02*
X20258277Y-12074174D01*
X20258277Y-12074174D02*
X20277325Y-12064650D01*
X20277325Y-12064650D02*
X20315420Y-12064650D01*
X20315420Y-12064650D02*
X20334468Y-12074174D01*
X20334468Y-12074174D02*
X20343992Y-12093222D01*
X20343992Y-12093222D02*
X20343992Y-12112269D01*
X20343992Y-12112269D02*
X20248753Y-12131317D01*
X20420182Y-12188460D02*
X20439230Y-12197984D01*
X20439230Y-12197984D02*
X20477325Y-12197984D01*
X20477325Y-12197984D02*
X20496373Y-12188460D01*
X20496373Y-12188460D02*
X20505896Y-12169412D01*
X20505896Y-12169412D02*
X20505896Y-12159888D01*
X20505896Y-12159888D02*
X20496373Y-12140841D01*
X20496373Y-12140841D02*
X20477325Y-12131317D01*
X20477325Y-12131317D02*
X20448753Y-12131317D01*
X20448753Y-12131317D02*
X20429706Y-12121793D01*
X20429706Y-12121793D02*
X20420182Y-12102746D01*
X20420182Y-12102746D02*
X20420182Y-12093222D01*
X20420182Y-12093222D02*
X20429706Y-12074174D01*
X20429706Y-12074174D02*
X20448753Y-12064650D01*
X20448753Y-12064650D02*
X20477325Y-12064650D01*
X20477325Y-12064650D02*
X20496373Y-12074174D01*
X20572563Y-12274174D02*
X20582087Y-12264650D01*
X20582087Y-12264650D02*
X20601134Y-12236079D01*
X20601134Y-12236079D02*
X20610658Y-12217031D01*
X20610658Y-12217031D02*
X20620182Y-12188460D01*
X20620182Y-12188460D02*
X20629706Y-12140841D01*
X20629706Y-12140841D02*
X20629706Y-12102746D01*
X20629706Y-12102746D02*
X20620182Y-12055127D01*
X20620182Y-12055127D02*
X20610658Y-12026555D01*
X20610658Y-12026555D02*
X20601134Y-12007508D01*
X20601134Y-12007508D02*
X20582087Y-11978936D01*
X20582087Y-11978936D02*
X20572563Y-11969412D01*
X20934468Y-12274174D02*
X20924944Y-12264650D01*
X20924944Y-12264650D02*
X20905896Y-12236079D01*
X20905896Y-12236079D02*
X20896373Y-12217031D01*
X20896373Y-12217031D02*
X20886849Y-12188460D01*
X20886849Y-12188460D02*
X20877325Y-12140841D01*
X20877325Y-12140841D02*
X20877325Y-12102746D01*
X20877325Y-12102746D02*
X20886849Y-12055127D01*
X20886849Y-12055127D02*
X20896373Y-12026555D01*
X20896373Y-12026555D02*
X20905896Y-12007508D01*
X20905896Y-12007508D02*
X20924944Y-11978936D01*
X20924944Y-11978936D02*
X20934468Y-11969412D01*
X21010658Y-12064650D02*
X21010658Y-12197984D01*
X21010658Y-12083698D02*
X21020182Y-12074174D01*
X21020182Y-12074174D02*
X21039230Y-12064650D01*
X21039230Y-12064650D02*
X21067801Y-12064650D01*
X21067801Y-12064650D02*
X21086849Y-12074174D01*
X21086849Y-12074174D02*
X21096373Y-12093222D01*
X21096373Y-12093222D02*
X21096373Y-12197984D01*
X21220182Y-12197984D02*
X21201134Y-12188460D01*
X21201134Y-12188460D02*
X21191611Y-12178936D01*
X21191611Y-12178936D02*
X21182087Y-12159888D01*
X21182087Y-12159888D02*
X21182087Y-12102746D01*
X21182087Y-12102746D02*
X21191611Y-12083698D01*
X21191611Y-12083698D02*
X21201134Y-12074174D01*
X21201134Y-12074174D02*
X21220182Y-12064650D01*
X21220182Y-12064650D02*
X21248754Y-12064650D01*
X21248754Y-12064650D02*
X21267801Y-12074174D01*
X21267801Y-12074174D02*
X21277325Y-12083698D01*
X21277325Y-12083698D02*
X21286849Y-12102746D01*
X21286849Y-12102746D02*
X21286849Y-12159888D01*
X21286849Y-12159888D02*
X21277325Y-12178936D01*
X21277325Y-12178936D02*
X21267801Y-12188460D01*
X21267801Y-12188460D02*
X21248754Y-12197984D01*
X21248754Y-12197984D02*
X21220182Y-12197984D01*
X21343992Y-12064650D02*
X21420182Y-12064650D01*
X21372563Y-11997984D02*
X21372563Y-12169412D01*
X21372563Y-12169412D02*
X21382087Y-12188460D01*
X21382087Y-12188460D02*
X21401134Y-12197984D01*
X21401134Y-12197984D02*
X21420182Y-12197984D01*
X21639230Y-12064650D02*
X21639230Y-12264650D01*
X21639230Y-12074174D02*
X21658277Y-12064650D01*
X21658277Y-12064650D02*
X21696373Y-12064650D01*
X21696373Y-12064650D02*
X21715420Y-12074174D01*
X21715420Y-12074174D02*
X21724944Y-12083698D01*
X21724944Y-12083698D02*
X21734468Y-12102746D01*
X21734468Y-12102746D02*
X21734468Y-12159888D01*
X21734468Y-12159888D02*
X21724944Y-12178936D01*
X21724944Y-12178936D02*
X21715420Y-12188460D01*
X21715420Y-12188460D02*
X21696373Y-12197984D01*
X21696373Y-12197984D02*
X21658277Y-12197984D01*
X21658277Y-12197984D02*
X21639230Y-12188460D01*
X21848754Y-12197984D02*
X21829706Y-12188460D01*
X21829706Y-12188460D02*
X21820182Y-12169412D01*
X21820182Y-12169412D02*
X21820182Y-11997984D01*
X22010658Y-12197984D02*
X22010658Y-12093222D01*
X22010658Y-12093222D02*
X22001135Y-12074174D01*
X22001135Y-12074174D02*
X21982087Y-12064650D01*
X21982087Y-12064650D02*
X21943992Y-12064650D01*
X21943992Y-12064650D02*
X21924944Y-12074174D01*
X22010658Y-12188460D02*
X21991611Y-12197984D01*
X21991611Y-12197984D02*
X21943992Y-12197984D01*
X21943992Y-12197984D02*
X21924944Y-12188460D01*
X21924944Y-12188460D02*
X21915420Y-12169412D01*
X21915420Y-12169412D02*
X21915420Y-12150365D01*
X21915420Y-12150365D02*
X21924944Y-12131317D01*
X21924944Y-12131317D02*
X21943992Y-12121793D01*
X21943992Y-12121793D02*
X21991611Y-12121793D01*
X21991611Y-12121793D02*
X22010658Y-12112269D01*
X22077325Y-12064650D02*
X22153515Y-12064650D01*
X22105896Y-11997984D02*
X22105896Y-12169412D01*
X22105896Y-12169412D02*
X22115420Y-12188460D01*
X22115420Y-12188460D02*
X22134468Y-12197984D01*
X22134468Y-12197984D02*
X22153515Y-12197984D01*
X22296373Y-12188460D02*
X22277325Y-12197984D01*
X22277325Y-12197984D02*
X22239230Y-12197984D01*
X22239230Y-12197984D02*
X22220182Y-12188460D01*
X22220182Y-12188460D02*
X22210658Y-12169412D01*
X22210658Y-12169412D02*
X22210658Y-12093222D01*
X22210658Y-12093222D02*
X22220182Y-12074174D01*
X22220182Y-12074174D02*
X22239230Y-12064650D01*
X22239230Y-12064650D02*
X22277325Y-12064650D01*
X22277325Y-12064650D02*
X22296373Y-12074174D01*
X22296373Y-12074174D02*
X22305896Y-12093222D01*
X22305896Y-12093222D02*
X22305896Y-12112269D01*
X22305896Y-12112269D02*
X22210658Y-12131317D01*
X22477325Y-12197984D02*
X22477325Y-11997984D01*
X22477325Y-12188460D02*
X22458277Y-12197984D01*
X22458277Y-12197984D02*
X22420182Y-12197984D01*
X22420182Y-12197984D02*
X22401134Y-12188460D01*
X22401134Y-12188460D02*
X22391611Y-12178936D01*
X22391611Y-12178936D02*
X22382087Y-12159888D01*
X22382087Y-12159888D02*
X22382087Y-12102746D01*
X22382087Y-12102746D02*
X22391611Y-12083698D01*
X22391611Y-12083698D02*
X22401134Y-12074174D01*
X22401134Y-12074174D02*
X22420182Y-12064650D01*
X22420182Y-12064650D02*
X22458277Y-12064650D01*
X22458277Y-12064650D02*
X22477325Y-12074174D01*
X22553515Y-12274174D02*
X22563039Y-12264650D01*
X22563039Y-12264650D02*
X22582087Y-12236079D01*
X22582087Y-12236079D02*
X22591611Y-12217031D01*
X22591611Y-12217031D02*
X22601134Y-12188460D01*
X22601134Y-12188460D02*
X22610658Y-12140841D01*
X22610658Y-12140841D02*
X22610658Y-12102746D01*
X22610658Y-12102746D02*
X22601134Y-12055127D01*
X22601134Y-12055127D02*
X22591611Y-12026555D01*
X22591611Y-12026555D02*
X22582087Y-12007508D01*
X22582087Y-12007508D02*
X22563039Y-11978936D01*
X22563039Y-11978936D02*
X22553515Y-11969412D01*
M02*
