%TF.GenerationSoftware,KiCad,Pcbnew,8.0.4*%
%TF.CreationDate,2024-08-22T20:54:46+02:00*%
%TF.ProjectId,Controller,436f6e74-726f-46c6-9c65-722e6b696361,v0*%
%TF.SameCoordinates,Original*%
%TF.FileFunction,Copper,L1,Top*%
%TF.FilePolarity,Positive*%
%FSLAX46Y46*%
G04 Gerber Fmt 4.6, Leading zero omitted, Abs format (unit mm)*
G04 Created by KiCad (PCBNEW 8.0.4) date 2024-08-22 20:54:46*
%MOMM*%
%LPD*%
G01*
G04 APERTURE LIST*
G04 Aperture macros list*
%AMRoundRect*
0 Rectangle with rounded corners*
0 $1 Rounding radius*
0 $2 $3 $4 $5 $6 $7 $8 $9 X,Y pos of 4 corners*
0 Add a 4 corners polygon primitive as box body*
4,1,4,$2,$3,$4,$5,$6,$7,$8,$9,$2,$3,0*
0 Add four circle primitives for the rounded corners*
1,1,$1+$1,$2,$3*
1,1,$1+$1,$4,$5*
1,1,$1+$1,$6,$7*
1,1,$1+$1,$8,$9*
0 Add four rect primitives between the rounded corners*
20,1,$1+$1,$2,$3,$4,$5,0*
20,1,$1+$1,$4,$5,$6,$7,0*
20,1,$1+$1,$6,$7,$8,$9,0*
20,1,$1+$1,$8,$9,$2,$3,0*%
G04 Aperture macros list end*
%TA.AperFunction,SMDPad,CuDef*%
%ADD10RoundRect,0.200000X-0.200000X-0.275000X0.200000X-0.275000X0.200000X0.275000X-0.200000X0.275000X0*%
%TD*%
%TA.AperFunction,ComponentPad*%
%ADD11C,2.000000*%
%TD*%
%TA.AperFunction,ConnectorPad*%
%ADD12C,0.787400*%
%TD*%
%TA.AperFunction,SMDPad,CuDef*%
%ADD13RoundRect,0.200000X-0.275000X0.200000X-0.275000X-0.200000X0.275000X-0.200000X0.275000X0.200000X0*%
%TD*%
%TA.AperFunction,SMDPad,CuDef*%
%ADD14RoundRect,0.243750X0.456250X-0.243750X0.456250X0.243750X-0.456250X0.243750X-0.456250X-0.243750X0*%
%TD*%
%TA.AperFunction,SMDPad,CuDef*%
%ADD15R,1.000000X0.750000*%
%TD*%
%TA.AperFunction,SMDPad,CuDef*%
%ADD16RoundRect,0.225000X-0.225000X-0.250000X0.225000X-0.250000X0.225000X0.250000X-0.225000X0.250000X0*%
%TD*%
%TA.AperFunction,SMDPad,CuDef*%
%ADD17RoundRect,0.225000X0.250000X-0.225000X0.250000X0.225000X-0.250000X0.225000X-0.250000X-0.225000X0*%
%TD*%
%TA.AperFunction,ComponentPad*%
%ADD18R,2.000000X2.000000*%
%TD*%
%TA.AperFunction,SMDPad,CuDef*%
%ADD19RoundRect,0.250000X0.312500X0.625000X-0.312500X0.625000X-0.312500X-0.625000X0.312500X-0.625000X0*%
%TD*%
%TA.AperFunction,SMDPad,CuDef*%
%ADD20RoundRect,0.150000X-0.150000X0.825000X-0.150000X-0.825000X0.150000X-0.825000X0.150000X0.825000X0*%
%TD*%
%TA.AperFunction,SMDPad,CuDef*%
%ADD21R,0.700000X1.600000*%
%TD*%
%TA.AperFunction,SMDPad,CuDef*%
%ADD22R,1.200000X1.500000*%
%TD*%
%TA.AperFunction,SMDPad,CuDef*%
%ADD23R,1.200000X2.200000*%
%TD*%
%TA.AperFunction,SMDPad,CuDef*%
%ADD24R,1.600000X1.500000*%
%TD*%
%TA.AperFunction,ComponentPad*%
%ADD25C,1.400000*%
%TD*%
%TA.AperFunction,SMDPad,CuDef*%
%ADD26RoundRect,0.218750X0.256250X-0.218750X0.256250X0.218750X-0.256250X0.218750X-0.256250X-0.218750X0*%
%TD*%
%TA.AperFunction,SMDPad,CuDef*%
%ADD27RoundRect,0.075000X0.075000X-0.700000X0.075000X0.700000X-0.075000X0.700000X-0.075000X-0.700000X0*%
%TD*%
%TA.AperFunction,SMDPad,CuDef*%
%ADD28RoundRect,0.075000X0.700000X-0.075000X0.700000X0.075000X-0.700000X0.075000X-0.700000X-0.075000X0*%
%TD*%
%TA.AperFunction,ComponentPad*%
%ADD29R,1.700000X1.700000*%
%TD*%
%TA.AperFunction,ComponentPad*%
%ADD30O,1.700000X1.700000*%
%TD*%
%TA.AperFunction,ViaPad*%
%ADD31C,0.800000*%
%TD*%
%TA.AperFunction,ViaPad*%
%ADD32C,0.450000*%
%TD*%
%TA.AperFunction,Conductor*%
%ADD33C,0.300000*%
%TD*%
%TA.AperFunction,Conductor*%
%ADD34C,0.350000*%
%TD*%
%TA.AperFunction,Conductor*%
%ADD35C,0.250000*%
%TD*%
%TA.AperFunction,Conductor*%
%ADD36C,0.150000*%
%TD*%
G04 APERTURE END LIST*
D10*
%TO.P,R1,1*%
%TO.N,GND*%
X176575000Y-84800000D03*
%TO.P,R1,2*%
%TO.N,Net-(U1-BOOT0)*%
X178225000Y-84800000D03*
%TD*%
D11*
%TO.P,U7,1,4*%
%TO.N,/DIG3_4*%
X237190000Y-101920000D03*
%TO.P,U7,2,C*%
%TO.N,+3V3*%
X237190000Y-104460000D03*
%TO.P,U7,3,1*%
%TO.N,/DIG3_1*%
X237190000Y-107000000D03*
%TO.P,U7,4,8*%
%TO.N,/DIG3_8*%
X244810000Y-107000000D03*
%TO.P,U7,5,C*%
%TO.N,+3V3*%
X244810000Y-104460000D03*
%TO.P,U7,6,2*%
%TO.N,/DIG3_2*%
X244810000Y-101920000D03*
%TD*%
D12*
%TO.P,J5,1,VCC*%
%TO.N,+3V3*%
X165200000Y-57270000D03*
%TO.P,J5,2,SWDIO*%
%TO.N,/SWDIO*%
X163930000Y-57270000D03*
%TO.P,J5,3,~{RESET}*%
%TO.N,/NRST*%
X165200000Y-56000000D03*
%TO.P,J5,4,SWCLK*%
%TO.N,/SWCLK*%
X163930000Y-56000000D03*
%TO.P,J5,5,GND*%
%TO.N,GND*%
X165200000Y-54730000D03*
%TO.P,J5,6,SWO*%
%TO.N,unconnected-(J5-SWO-Pad6)*%
X163930000Y-54730000D03*
%TD*%
D13*
%TO.P,R3,1*%
%TO.N,Net-(JP10-A)*%
X178550000Y-67850000D03*
%TO.P,R3,2*%
%TO.N,+3V3*%
X178550000Y-69500000D03*
%TD*%
%TO.P,R4,1*%
%TO.N,/SPI_MISO*%
X176950000Y-67850000D03*
%TO.P,R4,2*%
%TO.N,+3V3*%
X176950000Y-69500000D03*
%TD*%
%TO.P,R8,1*%
%TO.N,/SPI_SCK*%
X175350000Y-67850000D03*
%TO.P,R8,2*%
%TO.N,+3V3*%
X175350000Y-69500000D03*
%TD*%
D14*
%TO.P,D1,1,K*%
%TO.N,Net-(D1-K)*%
X183800000Y-92400000D03*
%TO.P,D1,2,A*%
%TO.N,/LED_GREEN*%
X183800000Y-90525000D03*
%TD*%
D15*
%TO.P,SW2,1,1*%
%TO.N,GND*%
X169000000Y-85275000D03*
%TO.P,SW2,2,2*%
%TO.N,unconnected-(SW2-Pad2)*%
X163000000Y-85275000D03*
%TO.P,SW2,3,K*%
%TO.N,/SW2*%
X169000000Y-81525000D03*
%TO.P,SW2,4,A*%
%TO.N,unconnected-(SW2-A-Pad4)*%
X163000000Y-81525000D03*
%TD*%
D16*
%TO.P,C6,1*%
%TO.N,GND*%
X187025000Y-92200000D03*
%TO.P,C6,2*%
%TO.N,+3V3*%
X188575000Y-92200000D03*
%TD*%
D17*
%TO.P,C4,1*%
%TO.N,+3V3*%
X178200000Y-87975000D03*
%TO.P,C4,2*%
%TO.N,GND*%
X178200000Y-86425000D03*
%TD*%
D13*
%TO.P,R10,1*%
%TO.N,/SPI_MOSI*%
X172950000Y-67850000D03*
%TO.P,R10,2*%
%TO.N,+3V3*%
X172950000Y-69500000D03*
%TD*%
D17*
%TO.P,C2,1*%
%TO.N,GND*%
X194800000Y-78975000D03*
%TO.P,C2,2*%
%TO.N,+3V3*%
X194800000Y-77425000D03*
%TD*%
D18*
%TO.P,TP2,1,1*%
%TO.N,+3V3*%
X197400000Y-106000000D03*
%TD*%
D19*
%TO.P,R16,1*%
%TO.N,Net-(U3-DIG2)*%
X200262500Y-57200000D03*
%TO.P,R16,2*%
%TO.N,/Salinity_DIG2*%
X197337500Y-57200000D03*
%TD*%
D11*
%TO.P,U6,1,4*%
%TO.N,/DIG2_4*%
X224380000Y-101920000D03*
%TO.P,U6,2,C*%
%TO.N,+3V3*%
X224380000Y-104460000D03*
%TO.P,U6,3,1*%
%TO.N,/DIG2_1*%
X224380000Y-107000000D03*
%TO.P,U6,4,8*%
%TO.N,/DIG2_8*%
X232000000Y-107000000D03*
%TO.P,U6,5,C*%
%TO.N,+3V3*%
X232000000Y-104460000D03*
%TO.P,U6,6,2*%
%TO.N,/DIG2_2*%
X232000000Y-101920000D03*
%TD*%
D13*
%TO.P,R13,1*%
%TO.N,/RS485_uart*%
X170800000Y-103975000D03*
%TO.P,R13,2*%
%TO.N,+3V3*%
X170800000Y-105625000D03*
%TD*%
D19*
%TO.P,R18,1*%
%TO.N,Net-(U4-DIG1)*%
X201062500Y-88400000D03*
%TO.P,R18,2*%
%TO.N,/Depth_DIG1*%
X198137500Y-88400000D03*
%TD*%
%TO.P,R19,1*%
%TO.N,Net-(U4-DIG2)*%
X201062500Y-85200000D03*
%TO.P,R19,2*%
%TO.N,/Depth_DIG2*%
X198137500Y-85200000D03*
%TD*%
D13*
%TO.P,R9,1*%
%TO.N,Net-(D2-K)*%
X181800000Y-93975000D03*
%TO.P,R9,2*%
%TO.N,GND*%
X181800000Y-95625000D03*
%TD*%
D20*
%TO.P,U8,1,RO*%
%TO.N,/RS485_uart*%
X169105000Y-102325000D03*
%TO.P,U8,2,~{RE}*%
%TO.N,/RS485_DE*%
X167835000Y-102325000D03*
%TO.P,U8,3,DE*%
X166565000Y-102325000D03*
%TO.P,U8,4,DI*%
%TO.N,/RS485_uart*%
X165295000Y-102325000D03*
%TO.P,U8,5,GND*%
%TO.N,GND*%
X165295000Y-107275000D03*
%TO.P,U8,6,A*%
%TO.N,/RS485_A*%
X166565000Y-107275000D03*
%TO.P,U8,7,B*%
%TO.N,/RS485_B*%
X167835000Y-107275000D03*
%TO.P,U8,8,VCC*%
%TO.N,+3V3*%
X169105000Y-107275000D03*
%TD*%
D13*
%TO.P,R5,1*%
%TO.N,Net-(D1-K)*%
X183800000Y-93975000D03*
%TO.P,R5,2*%
%TO.N,GND*%
X183800000Y-95625000D03*
%TD*%
D19*
%TO.P,R20,1*%
%TO.N,Net-(U4-DIG3)*%
X201062500Y-81800000D03*
%TO.P,R20,2*%
%TO.N,/Depth_DIG3*%
X198137500Y-81800000D03*
%TD*%
D21*
%TO.P,J2,1,DAT2*%
%TO.N,Net-(J2-DAT2)*%
X177950000Y-64925000D03*
%TO.P,J2,2,DAT3/CD*%
%TO.N,Net-(J2-DAT3{slash}CD)*%
X179050000Y-64925000D03*
%TO.P,J2,3,CMD*%
%TO.N,Net-(J2-CMD)*%
X180150000Y-64925000D03*
%TO.P,J2,4,VDD*%
%TO.N,Net-(J2-VDD)*%
X181250000Y-64925000D03*
%TO.P,J2,5,CLK*%
%TO.N,Net-(J2-CLK)*%
X182350000Y-64925000D03*
%TO.P,J2,6,VSS*%
%TO.N,Net-(J2-VSS)*%
X183450000Y-64925000D03*
%TO.P,J2,7,DAT0*%
%TO.N,Net-(J2-DAT0)*%
X184550000Y-64925000D03*
%TO.P,J2,8,DAT1*%
%TO.N,Net-(J2-DAT1)*%
X185650000Y-64925000D03*
%TO.P,J2,9,DET*%
%TO.N,Net-(J2-DET)*%
X186750000Y-64925000D03*
D22*
%TO.P,J2,10,SHIELD*%
%TO.N,GND*%
X187950000Y-63925000D03*
D23*
X187950000Y-54325000D03*
D24*
X173350000Y-63925000D03*
D23*
X172450000Y-54325000D03*
%TD*%
D17*
%TO.P,C1,1*%
%TO.N,GND*%
X193300000Y-78975000D03*
%TO.P,C1,2*%
%TO.N,+3V3*%
X193300000Y-77425000D03*
%TD*%
D18*
%TO.P,TP3,1,1*%
%TO.N,GND*%
X187600000Y-106000000D03*
%TD*%
D15*
%TO.P,SW1,1,1*%
%TO.N,GND*%
X169000000Y-79675000D03*
%TO.P,SW1,2,2*%
%TO.N,unconnected-(SW1-Pad2)*%
X163000000Y-79675000D03*
%TO.P,SW1,3,K*%
%TO.N,/SW1*%
X169000000Y-75925000D03*
%TO.P,SW1,4,A*%
%TO.N,unconnected-(SW1-A-Pad4)*%
X163000000Y-75925000D03*
%TD*%
D13*
%TO.P,R12,1*%
%TO.N,Net-(JP3-A)*%
X169750000Y-67850000D03*
%TO.P,R12,2*%
%TO.N,+3V3*%
X169750000Y-69500000D03*
%TD*%
D19*
%TO.P,R15,1*%
%TO.N,Net-(U3-DIG3)*%
X200262500Y-60490000D03*
%TO.P,R15,2*%
%TO.N,/Salinity_DIG3*%
X197337500Y-60490000D03*
%TD*%
D25*
%TO.P,U4,1,E*%
%TO.N,/Depth_E*%
X221300000Y-92240000D03*
%TO.P,U4,2,D*%
%TO.N,/Depth_D*%
X223840000Y-92240000D03*
%TO.P,U4,3,DP*%
%TO.N,/Depth_DP*%
X226380000Y-92240000D03*
%TO.P,U4,4,C*%
%TO.N,/Depth_C*%
X228920000Y-92240000D03*
%TO.P,U4,5,G*%
%TO.N,/Depth_G*%
X231460000Y-92240000D03*
%TO.P,U4,6,NC*%
%TO.N,unconnected-(U4-NC-Pad6)*%
X234000000Y-92240000D03*
%TO.P,U4,7,B*%
%TO.N,/Depth_B*%
X234000000Y-77000000D03*
%TO.P,U4,8,DIG3*%
%TO.N,Net-(U4-DIG3)*%
X231460000Y-77000000D03*
%TO.P,U4,9,DIG2*%
%TO.N,Net-(U4-DIG2)*%
X228920000Y-77000000D03*
%TO.P,U4,10,F*%
%TO.N,/Depth_F*%
X226380000Y-77000000D03*
%TO.P,U4,11,A*%
%TO.N,/Depth_A*%
X223840000Y-77000000D03*
%TO.P,U4,12,DIG1*%
%TO.N,Net-(U4-DIG1)*%
X221300000Y-77000000D03*
%TD*%
D19*
%TO.P,R17,1*%
%TO.N,Net-(U3-DIG1)*%
X200262500Y-53910000D03*
%TO.P,R17,2*%
%TO.N,/Salinity_DIG1*%
X197337500Y-53910000D03*
%TD*%
D16*
%TO.P,C5,1*%
%TO.N,GND*%
X187025000Y-90600000D03*
%TO.P,C5,2*%
%TO.N,+3V3*%
X188575000Y-90600000D03*
%TD*%
D13*
%TO.P,R11,1*%
%TO.N,/SPI_NSS*%
X171350000Y-67850000D03*
%TO.P,R11,2*%
%TO.N,+3V3*%
X171350000Y-69500000D03*
%TD*%
D26*
%TO.P,D2,1,K*%
%TO.N,Net-(D2-K)*%
X181800000Y-92400000D03*
%TO.P,D2,2,A*%
%TO.N,/LED_RED*%
X181800000Y-90825000D03*
%TD*%
D10*
%TO.P,R14,1*%
%TO.N,/RS485_A*%
X166175000Y-109600000D03*
%TO.P,R14,2*%
%TO.N,/RS485_B*%
X167825000Y-109600000D03*
%TD*%
D25*
%TO.P,U3,1,E*%
%TO.N,/Salinity_E*%
X221300000Y-70490000D03*
%TO.P,U3,2,D*%
%TO.N,/Salinity_D*%
X223840000Y-70490000D03*
%TO.P,U3,3,DP*%
%TO.N,/Salinity_DP*%
X226380000Y-70490000D03*
%TO.P,U3,4,C*%
%TO.N,/Salinity_C*%
X228920000Y-70490000D03*
%TO.P,U3,5,G*%
%TO.N,/Salinity_G*%
X231460000Y-70490000D03*
%TO.P,U3,6,NC*%
%TO.N,unconnected-(U3-NC-Pad6)*%
X234000000Y-70490000D03*
%TO.P,U3,7,B*%
%TO.N,/Salinity_B*%
X234000000Y-55250000D03*
%TO.P,U3,8,DIG3*%
%TO.N,Net-(U3-DIG3)*%
X231460000Y-55250000D03*
%TO.P,U3,9,DIG2*%
%TO.N,Net-(U3-DIG2)*%
X228920000Y-55250000D03*
%TO.P,U3,10,F*%
%TO.N,/Salinity_F*%
X226380000Y-55250000D03*
%TO.P,U3,11,A*%
%TO.N,/Salinity_A*%
X223840000Y-55250000D03*
%TO.P,U3,12,DIG1*%
%TO.N,Net-(U3-DIG1)*%
X221300000Y-55250000D03*
%TD*%
D27*
%TO.P,U1,1,VDD*%
%TO.N,+3V3*%
X182050000Y-88325000D03*
%TO.P,U1,2,PC13*%
%TO.N,unconnected-(U1-PC13-Pad2)*%
X182550000Y-88325000D03*
%TO.P,U1,3,PC14*%
%TO.N,unconnected-(U1-PC14-Pad3)*%
X183050000Y-88325000D03*
%TO.P,U1,4,PC15*%
%TO.N,unconnected-(U1-PC15-Pad4)*%
X183550000Y-88325000D03*
%TO.P,U1,5,PF0*%
%TO.N,/LED_RED*%
X184050000Y-88325000D03*
%TO.P,U1,6,PF1*%
%TO.N,/LED_GREEN*%
X184550000Y-88325000D03*
%TO.P,U1,7,NRST*%
%TO.N,/NRST*%
X185050000Y-88325000D03*
%TO.P,U1,8,PC0*%
%TO.N,/Salinity_A*%
X185550000Y-88325000D03*
%TO.P,U1,9,PC1*%
%TO.N,/Salinity_B*%
X186050000Y-88325000D03*
%TO.P,U1,10,PC2*%
%TO.N,/Salinity_C*%
X186550000Y-88325000D03*
%TO.P,U1,11,PC3*%
%TO.N,/Salinity_D*%
X187050000Y-88325000D03*
%TO.P,U1,12,VSSA*%
%TO.N,GND*%
X187550000Y-88325000D03*
%TO.P,U1,13,VDDA*%
%TO.N,+3V3*%
X188050000Y-88325000D03*
%TO.P,U1,14,PA0*%
%TO.N,/Depth_A*%
X188550000Y-88325000D03*
%TO.P,U1,15,PA1*%
%TO.N,/Depth_B*%
X189050000Y-88325000D03*
%TO.P,U1,16,PA2*%
%TO.N,/Depth_C*%
X189550000Y-88325000D03*
D28*
%TO.P,U1,17,PA3*%
%TO.N,/Depth_D*%
X191475000Y-86400000D03*
%TO.P,U1,18,PF4*%
%TO.N,/DIG3_1*%
X191475000Y-85900000D03*
%TO.P,U1,19,PF5*%
%TO.N,/DIG3_2*%
X191475000Y-85400000D03*
%TO.P,U1,20,PA4*%
%TO.N,/Depth_E*%
X191475000Y-84900000D03*
%TO.P,U1,21,PA5*%
%TO.N,/Depth_F*%
X191475000Y-84400000D03*
%TO.P,U1,22,PA6*%
%TO.N,/Depth_G*%
X191475000Y-83900000D03*
%TO.P,U1,23,PA7*%
%TO.N,/Depth_DP*%
X191475000Y-83400000D03*
%TO.P,U1,24,PC4*%
%TO.N,/Salinity_E*%
X191475000Y-82900000D03*
%TO.P,U1,25,PC5*%
%TO.N,/Salinity_F*%
X191475000Y-82400000D03*
%TO.P,U1,26,PB0*%
%TO.N,/DIG1_1*%
X191475000Y-81900000D03*
%TO.P,U1,27,PB1*%
%TO.N,/DIG1_2*%
X191475000Y-81400000D03*
%TO.P,U1,28,PB2*%
%TO.N,/DIG1_4*%
X191475000Y-80900000D03*
%TO.P,U1,29,PB10*%
%TO.N,/DIG2_4*%
X191475000Y-80400000D03*
%TO.P,U1,30,PB11*%
%TO.N,/DIG2_8*%
X191475000Y-79900000D03*
%TO.P,U1,31,VSS*%
%TO.N,GND*%
X191475000Y-79400000D03*
%TO.P,U1,32,VDD*%
%TO.N,+3V3*%
X191475000Y-78900000D03*
D27*
%TO.P,U1,33,PB12*%
%TO.N,/SPI_NSS*%
X189550000Y-76975000D03*
%TO.P,U1,34,PB13*%
%TO.N,/SPI_SCK*%
X189050000Y-76975000D03*
%TO.P,U1,35,PB14*%
%TO.N,/SPI_MISO*%
X188550000Y-76975000D03*
%TO.P,U1,36,PB15*%
%TO.N,/SPI_MOSI*%
X188050000Y-76975000D03*
%TO.P,U1,37,PC6*%
%TO.N,/Salinity_G*%
X187550000Y-76975000D03*
%TO.P,U1,38,PC7*%
%TO.N,/Salinity_DP*%
X187050000Y-76975000D03*
%TO.P,U1,39,PC8*%
%TO.N,/Salinity_DIG1*%
X186550000Y-76975000D03*
%TO.P,U1,40,PC9*%
%TO.N,/Salinity_DIG2*%
X186050000Y-76975000D03*
%TO.P,U1,41,PA8*%
%TO.N,/Depth_DIG1*%
X185550000Y-76975000D03*
%TO.P,U1,42,PA9*%
%TO.N,/Depth_DIG2*%
X185050000Y-76975000D03*
%TO.P,U1,43,PA10*%
%TO.N,/Depth_DIG3*%
X184550000Y-76975000D03*
%TO.P,U1,44,PA11*%
%TO.N,unconnected-(U1-PA11-Pad44)*%
X184050000Y-76975000D03*
%TO.P,U1,45,PA12*%
%TO.N,unconnected-(U1-PA12-Pad45)*%
X183550000Y-76975000D03*
%TO.P,U1,46,PA13*%
%TO.N,/SWDIO*%
X183050000Y-76975000D03*
%TO.P,U1,47,PF6*%
%TO.N,/DIG3_4*%
X182550000Y-76975000D03*
%TO.P,U1,48,PF7*%
%TO.N,/DIG3_8*%
X182050000Y-76975000D03*
D28*
%TO.P,U1,49,PA14*%
%TO.N,/SWCLK*%
X180125000Y-78900000D03*
%TO.P,U1,50,PA15*%
%TO.N,unconnected-(U1-PA15-Pad50)*%
X180125000Y-79400000D03*
%TO.P,U1,51,PC10*%
%TO.N,/Salinity_DIG3*%
X180125000Y-79900000D03*
%TO.P,U1,52,PC11*%
%TO.N,unconnected-(U1-PC11-Pad52)*%
X180125000Y-80400000D03*
%TO.P,U1,53,PC12*%
%TO.N,unconnected-(U1-PC12-Pad53)*%
X180125000Y-80900000D03*
%TO.P,U1,54,PD2*%
%TO.N,/CD*%
X180125000Y-81400000D03*
%TO.P,U1,55,PB3*%
%TO.N,/DIG1_8*%
X180125000Y-81900000D03*
%TO.P,U1,56,PB4*%
%TO.N,/SW1*%
X180125000Y-82400000D03*
%TO.P,U1,57,PB5*%
%TO.N,/SW2*%
X180125000Y-82900000D03*
%TO.P,U1,58,PB6*%
%TO.N,/RS485_uart*%
X180125000Y-83400000D03*
%TO.P,U1,59,PB7*%
%TO.N,/RS485_DE*%
X180125000Y-83900000D03*
%TO.P,U1,60,BOOT0*%
%TO.N,Net-(U1-BOOT0)*%
X180125000Y-84400000D03*
%TO.P,U1,61,PB8*%
%TO.N,/DIG2_1*%
X180125000Y-84900000D03*
%TO.P,U1,62,PB9*%
%TO.N,/DIG2_2*%
X180125000Y-85400000D03*
%TO.P,U1,63,VSS*%
%TO.N,GND*%
X180125000Y-85900000D03*
%TO.P,U1,64,VDD*%
%TO.N,+3V3*%
X180125000Y-86400000D03*
%TD*%
D11*
%TO.P,U5,1,4*%
%TO.N,/DIG1_4*%
X211190000Y-101920000D03*
%TO.P,U5,2,C*%
%TO.N,+3V3*%
X211190000Y-104460000D03*
%TO.P,U5,3,1*%
%TO.N,/DIG1_1*%
X211190000Y-107000000D03*
%TO.P,U5,4,8*%
%TO.N,/DIG1_8*%
X218810000Y-107000000D03*
%TO.P,U5,5,C*%
%TO.N,+3V3*%
X218810000Y-104460000D03*
%TO.P,U5,6,2*%
%TO.N,/DIG1_2*%
X218810000Y-101920000D03*
%TD*%
D29*
%TO.P,J4,1,Pin_1*%
%TO.N,+3V3*%
X161600000Y-89720000D03*
D30*
%TO.P,J4,2,Pin_2*%
%TO.N,/RS485_uart*%
X161600000Y-92260000D03*
%TO.P,J4,3,Pin_3*%
%TO.N,/RS485_DE*%
X161600000Y-94800000D03*
%TO.P,J4,4,Pin_4*%
%TO.N,GND*%
X161600000Y-97340000D03*
%TD*%
D29*
%TO.P,J3,1,Pin_1*%
%TO.N,+3V3*%
X161600000Y-102200000D03*
D30*
%TO.P,J3,2,Pin_2*%
%TO.N,/RS485_A*%
X161600000Y-104740000D03*
%TO.P,J3,3,Pin_3*%
%TO.N,/RS485_B*%
X161600000Y-107280000D03*
%TO.P,J3,4,Pin_4*%
%TO.N,GND*%
X161600000Y-109820000D03*
%TD*%
D31*
%TO.N,GND*%
X202200000Y-74800000D03*
X203800000Y-88200000D03*
X206000000Y-108000000D03*
X241200000Y-81600000D03*
X180800000Y-57800000D03*
X185400000Y-97400000D03*
X163600000Y-99600000D03*
X185400000Y-72800000D03*
X195400000Y-94800000D03*
X164400000Y-72600000D03*
X166200000Y-55000000D03*
X175000000Y-108800000D03*
X214400000Y-85400000D03*
X173800000Y-92600000D03*
X195125000Y-80200000D03*
X191800000Y-60400000D03*
X228000000Y-108400000D03*
X179750000Y-68600000D03*
X168600000Y-58200000D03*
X164000000Y-107600000D03*
X175400000Y-100000000D03*
X214800000Y-64000000D03*
X240600000Y-62800000D03*
X212000000Y-60000000D03*
%TO.N,+3V3*%
X193400000Y-74200000D03*
X207000000Y-93800000D03*
X174150000Y-69500000D03*
X191800000Y-77400000D03*
D32*
%TO.N,/SPI_MISO*%
X180350000Y-66800000D03*
X189200000Y-80400000D03*
%TO.N,/SPI_NSS*%
X170950000Y-66900000D03*
X190200000Y-78200000D03*
%TO.N,Net-(J2-DAT1)*%
X185750000Y-62925000D03*
%TO.N,Net-(J2-DAT2)*%
X177950000Y-61000000D03*
%TO.N,/CD*%
X182000000Y-73507107D03*
%TO.N,/SPI_MOSI*%
X172750000Y-66700000D03*
X181000000Y-73800000D03*
X188600000Y-79800000D03*
X179600000Y-73200000D03*
%TO.N,/SPI_SCK*%
X176150000Y-66700000D03*
X189700000Y-79600000D03*
%TO.N,/RS485_DE*%
X166000000Y-95200000D03*
%TO.N,/SWCLK*%
X179200000Y-78200000D03*
X162200000Y-56200000D03*
%TO.N,/NRST*%
X167000000Y-55800000D03*
X185400000Y-90000000D03*
%TO.N,/SWDIO*%
X179200000Y-77200000D03*
X162600000Y-57400000D03*
%TO.N,/DIG2_1*%
X185000000Y-86000000D03*
X222200000Y-99900000D03*
%TO.N,/DIG1_8*%
X221200000Y-99400000D03*
X185050000Y-85200000D03*
%TO.N,/DIG1_2*%
X193600000Y-82200000D03*
X218800000Y-97200000D03*
%TO.N,/DIG1_4*%
X211200000Y-96300000D03*
X193400000Y-81200000D03*
%TO.N,/Depth_G*%
X223916446Y-90483554D03*
%TO.N,/Salinity_B*%
X183200000Y-78400000D03*
%TO.N,/Depth_A*%
X217800000Y-92600000D03*
%TO.N,/DIG3_1*%
X189600000Y-85600000D03*
X235200000Y-99000000D03*
%TO.N,/DIG2_8*%
X230000000Y-97200000D03*
X194000000Y-80200000D03*
%TO.N,/DIG2_4*%
X194200000Y-81200000D03*
X224400000Y-97200000D03*
%TO.N,/Salinity_C*%
X226800000Y-68370000D03*
X184000000Y-78400000D03*
%TO.N,/Salinity_DIG1*%
X186400000Y-78400000D03*
X196400000Y-68200000D03*
%TO.N,/Salinity_G*%
X187600000Y-78400000D03*
%TO.N,/Salinity_DIG2*%
X197000000Y-67600000D03*
X185600000Y-78200000D03*
%TO.N,/DIG2_2*%
X185000000Y-86800000D03*
%TO.N,/DIG3_4*%
X237200000Y-97600000D03*
X185000000Y-83200000D03*
%TO.N,/Salinity_DIG3*%
X197600000Y-65500000D03*
X181400000Y-79800000D03*
%TO.N,/DIG1_1*%
X212600000Y-97300000D03*
X192800000Y-82200000D03*
%TO.N,/Salinity_E*%
X187000000Y-79800000D03*
%TO.N,/Depth_F*%
X219600000Y-90800000D03*
%TO.N,/Salinity_F*%
X187800000Y-79800000D03*
X226400000Y-57400000D03*
X219400000Y-70200000D03*
%TO.N,/DIG3_8*%
X185000000Y-84000000D03*
%TO.N,/Salinity_DP*%
X187000000Y-79000000D03*
X225200000Y-68400000D03*
%TO.N,/DIG3_2*%
X190000000Y-84800000D03*
%TO.N,/Salinity_A*%
X183200000Y-79200000D03*
%TO.N,/Salinity_D*%
X184800000Y-78400000D03*
X222800000Y-68200000D03*
%TO.N,/Depth_B*%
X218598959Y-92401041D03*
%TO.N,Net-(J2-DAT0)*%
X184550000Y-62925000D03*
%TO.N,Net-(J2-DAT3{slash}CD)*%
X178950000Y-61375000D03*
%TO.N,Net-(J2-VSS)*%
X183324438Y-62456835D03*
%TO.N,Net-(J2-DET)*%
X186950000Y-62725000D03*
D31*
%TO.N,Net-(J2-VDD)*%
X181150000Y-62475000D03*
D32*
%TO.N,Net-(J2-CMD)*%
X180150000Y-61875000D03*
%TO.N,Net-(J2-CLK)*%
X182449583Y-62624583D03*
%TO.N,Net-(JP10-A)*%
X182662500Y-67662500D03*
%TO.N,Net-(JP3-A)*%
X169750000Y-66900000D03*
%TO.N,Net-(U4-DIG1)*%
X220000000Y-78800000D03*
%TD*%
D33*
%TO.N,GND*%
X187550000Y-90075000D02*
X187025000Y-90600000D01*
X178725000Y-85900000D02*
X178200000Y-86425000D01*
D34*
X165200000Y-54730000D02*
X165930000Y-54730000D01*
D33*
X191475000Y-79400000D02*
X192875000Y-79400000D01*
X187550000Y-88325000D02*
X187550000Y-90075000D01*
D34*
X165930000Y-54730000D02*
X166200000Y-55000000D01*
D33*
X165295000Y-107275000D02*
X164325000Y-107275000D01*
X180125000Y-85900000D02*
X178725000Y-85900000D01*
X164325000Y-107275000D02*
X164000000Y-107600000D01*
D34*
X194800000Y-78975000D02*
X194800000Y-79875000D01*
D33*
X192875000Y-79400000D02*
X193300000Y-78975000D01*
D34*
X194800000Y-79875000D02*
X195125000Y-80200000D01*
%TO.N,+3V3*%
X161600000Y-69600000D02*
X161600000Y-89720000D01*
X178550000Y-69500000D02*
X188700000Y-69500000D01*
X161600000Y-64400000D02*
X161600000Y-69600000D01*
X179750000Y-86425000D02*
X180125000Y-86425000D01*
X207000000Y-93800000D02*
X207000000Y-94400000D01*
X178200000Y-87975000D02*
X179750000Y-86425000D01*
X159200000Y-90600000D02*
X160080000Y-89720000D01*
X159200000Y-101000000D02*
X159200000Y-90600000D01*
X203800000Y-97600000D02*
X197400000Y-97600000D01*
X178200000Y-87975000D02*
X181675000Y-87975000D01*
D33*
X188050000Y-90075000D02*
X188575000Y-90600000D01*
D34*
X161600000Y-102400000D02*
X161600000Y-102200000D01*
D33*
X191475000Y-77725000D02*
X191800000Y-77400000D01*
D34*
X165800000Y-60200000D02*
X161600000Y-64400000D01*
X169150000Y-107275000D02*
X170800000Y-105625000D01*
X169105000Y-107275000D02*
X169150000Y-107275000D01*
X169105000Y-106823382D02*
X166881618Y-104600000D01*
X161600000Y-102200000D02*
X160400000Y-102200000D01*
D33*
X188050000Y-88325000D02*
X188050000Y-90075000D01*
D34*
X166881618Y-104600000D02*
X163800000Y-104600000D01*
X197400000Y-106000000D02*
X197400000Y-97600000D01*
X178200000Y-98600000D02*
X178200000Y-87975000D01*
X169750000Y-69500000D02*
X174150000Y-69500000D01*
X188600000Y-92200000D02*
X188575000Y-92200000D01*
X169105000Y-107275000D02*
X169105000Y-106823382D01*
X161700000Y-69500000D02*
X161600000Y-69600000D01*
X174150000Y-69500000D02*
X178550000Y-69500000D01*
X169750000Y-69500000D02*
X161700000Y-69500000D01*
X181675000Y-87975000D02*
X182025000Y-88325000D01*
X165800000Y-57870000D02*
X165800000Y-60200000D01*
X163800000Y-104600000D02*
X161600000Y-102400000D01*
X171175000Y-105625000D02*
X178200000Y-98600000D01*
X160400000Y-102200000D02*
X159200000Y-101000000D01*
X160080000Y-89720000D02*
X161600000Y-89720000D01*
D33*
X191475000Y-78900000D02*
X191475000Y-77725000D01*
D34*
X178200000Y-98600000D02*
X190000000Y-98600000D01*
X190000000Y-98600000D02*
X197400000Y-106000000D01*
X197400000Y-97600000D02*
X194000000Y-97600000D01*
X207000000Y-94400000D02*
X203800000Y-97600000D01*
X170800000Y-105625000D02*
X171175000Y-105625000D01*
X194000000Y-97600000D02*
X188600000Y-92200000D01*
X188700000Y-69500000D02*
X193400000Y-74200000D01*
X188575000Y-90600000D02*
X188575000Y-92200000D01*
X194775000Y-77400000D02*
X194800000Y-77425000D01*
X165200000Y-57270000D02*
X165800000Y-57870000D01*
X191800000Y-77400000D02*
X194775000Y-77400000D01*
D35*
%TO.N,/LED_GREEN*%
X184550000Y-88325000D02*
X184550000Y-89775000D01*
X184550000Y-89775000D02*
X183800000Y-90525000D01*
%TO.N,Net-(D1-K)*%
X183800000Y-92400000D02*
X183800000Y-93975000D01*
%TO.N,Net-(D2-K)*%
X181800000Y-92400000D02*
X181800000Y-93975000D01*
%TO.N,/LED_RED*%
X183617764Y-89600000D02*
X183025000Y-89600000D01*
X183025000Y-89600000D02*
X181800000Y-90825000D01*
X184050000Y-89167764D02*
X183617764Y-89600000D01*
X184050000Y-88325000D02*
X184050000Y-89167764D01*
D36*
%TO.N,/SPI_MISO*%
X180350000Y-66800000D02*
X178000000Y-66800000D01*
X188550000Y-77755024D02*
X189200000Y-78405024D01*
X189200000Y-78405024D02*
X189200000Y-80400000D01*
X188550000Y-76975000D02*
X188550000Y-77755024D01*
X178000000Y-66800000D02*
X176950000Y-67850000D01*
%TO.N,/SPI_NSS*%
X170950000Y-66900000D02*
X170950000Y-67450000D01*
X189550000Y-76975000D02*
X189550000Y-77550000D01*
X189550000Y-77550000D02*
X190200000Y-78200000D01*
X170950000Y-67450000D02*
X171350000Y-67850000D01*
%TO.N,Net-(J2-DAT1)*%
X185650000Y-63025000D02*
X185750000Y-62925000D01*
X185650000Y-64925000D02*
X185650000Y-63025000D01*
%TO.N,Net-(J2-DAT2)*%
X177950000Y-64925000D02*
X177950000Y-63074999D01*
X177950000Y-63074999D02*
X177950000Y-61000000D01*
%TO.N,/CD*%
X181853554Y-73653554D02*
X182000000Y-73507108D01*
X182000000Y-73507108D02*
X182000000Y-73507107D01*
X180125000Y-81400000D02*
X179350001Y-81400000D01*
X179350001Y-81400000D02*
X177600000Y-79649999D01*
X177600000Y-79649999D02*
X177600000Y-77907107D01*
X177600000Y-77907107D02*
X181853554Y-73653554D01*
%TO.N,/SPI_MOSI*%
X180800000Y-73600000D02*
X180000000Y-73600000D01*
X188600000Y-78299999D02*
X188600000Y-79800000D01*
X181000000Y-73800000D02*
X180800000Y-73600000D01*
X188050000Y-77749999D02*
X188600000Y-78299999D01*
X172750000Y-67650000D02*
X172950000Y-67850000D01*
X188050000Y-76975000D02*
X188050000Y-77749999D01*
X172750000Y-66700000D02*
X172750000Y-67650000D01*
X180000000Y-73600000D02*
X179600000Y-73200000D01*
%TO.N,/SPI_SCK*%
X176150000Y-66700000D02*
X176150000Y-67050000D01*
X189700000Y-78410050D02*
X189700000Y-79600000D01*
X189050000Y-76975000D02*
X189050000Y-77760050D01*
X189050000Y-77760050D02*
X189700000Y-78410050D01*
X176150000Y-67050000D02*
X175350000Y-67850000D01*
%TO.N,/RS485_A*%
X166565000Y-106300001D02*
X165854999Y-105590000D01*
X166565000Y-107275000D02*
X166565000Y-106300001D01*
X162450000Y-105590000D02*
X161600000Y-104740000D01*
X165854999Y-105590000D02*
X162450000Y-105590000D01*
X166565000Y-109210000D02*
X166175000Y-109600000D01*
X166565000Y-107275000D02*
X166565000Y-109210000D01*
%TO.N,/RS485_B*%
X165120000Y-110800000D02*
X161600000Y-107280000D01*
X167835000Y-109590000D02*
X167825000Y-109600000D01*
X167825000Y-109600000D02*
X166625000Y-110800000D01*
X166625000Y-110800000D02*
X165120000Y-110800000D01*
X167835000Y-107275000D02*
X167835000Y-109590000D01*
%TO.N,/RS485_DE*%
X166565000Y-95200000D02*
X166565000Y-102325000D01*
X180125000Y-83900000D02*
X176322708Y-83900000D01*
D34*
X166565000Y-102325000D02*
X167835000Y-102325000D01*
D36*
X166565000Y-95200000D02*
X166000000Y-95200000D01*
X166565000Y-93657708D02*
X166565000Y-95200000D01*
X176322708Y-83900000D02*
X166565000Y-93657708D01*
%TO.N,/RS485_uart*%
X165295000Y-94432734D02*
X165295000Y-102325000D01*
X169785000Y-103975000D02*
X170800000Y-103975000D01*
X169105000Y-103295000D02*
X169105000Y-102325000D01*
X165295000Y-103299999D02*
X165995001Y-104000000D01*
X169105000Y-103295000D02*
X169785000Y-103975000D01*
X165995001Y-104000000D02*
X168400000Y-104000000D01*
X176327734Y-83400000D02*
X165295000Y-94432734D01*
X180125000Y-83400000D02*
X176327734Y-83400000D01*
X168400000Y-104000000D02*
X169105000Y-103295000D01*
X165295000Y-102325000D02*
X165295000Y-103299999D01*
X165295000Y-94432734D02*
X163772734Y-94432734D01*
X163772734Y-94432734D02*
X161600000Y-92260000D01*
%TO.N,/SWCLK*%
X162800000Y-56000000D02*
X163930000Y-56000000D01*
X180125000Y-78900000D02*
X179900000Y-78900000D01*
X179900000Y-78900000D02*
X179200000Y-78200000D01*
X162600000Y-56200000D02*
X162800000Y-56000000D01*
X162200000Y-56200000D02*
X162600000Y-56200000D01*
%TO.N,/NRST*%
X185050000Y-88325000D02*
X185050000Y-89650000D01*
X185050000Y-89650000D02*
X185400000Y-90000000D01*
X166800000Y-56000000D02*
X165200000Y-56000000D01*
X167000000Y-55800000D02*
X166800000Y-56000000D01*
%TO.N,/SWDIO*%
X182600000Y-75600000D02*
X180800000Y-75600000D01*
X180800000Y-75600000D02*
X179200000Y-77200000D01*
X183050000Y-75852082D02*
X182797918Y-75600000D01*
X162600000Y-57400000D02*
X163800000Y-57400000D01*
X183050000Y-76975000D02*
X183050000Y-75852082D01*
X182797918Y-75600000D02*
X182600000Y-75600000D01*
X163800000Y-57400000D02*
X163930000Y-57270000D01*
%TO.N,Net-(U1-BOOT0)*%
X178625000Y-84400000D02*
X180125000Y-84400000D01*
X178225000Y-84800000D02*
X178625000Y-84400000D01*
%TO.N,/DIG2_1*%
X180125000Y-84900000D02*
X183900000Y-84900000D01*
X222200000Y-99900000D02*
X222200000Y-104820000D01*
X222200000Y-104820000D02*
X224380000Y-107000000D01*
X183900000Y-84900000D02*
X185000000Y-86000000D01*
%TO.N,/Depth_DIG1*%
X186150001Y-75600000D02*
X194600000Y-75600000D01*
X194600000Y-75600000D02*
X195800000Y-76800000D01*
X185550000Y-76975000D02*
X185550000Y-76200001D01*
X195800000Y-76800000D02*
X195800000Y-86062500D01*
X185550000Y-76200001D02*
X186150001Y-75600000D01*
X195800000Y-86062500D02*
X198137500Y-88400000D01*
%TO.N,/DIG1_8*%
X181750000Y-81900000D02*
X185050000Y-85200000D01*
X221200000Y-104610000D02*
X218810000Y-107000000D01*
X221200000Y-99400000D02*
X221200000Y-104610000D01*
X180125000Y-81900000D02*
X181750000Y-81900000D01*
%TO.N,/DIG1_2*%
X218810000Y-98410000D02*
X218810000Y-101920000D01*
X192800000Y-81400000D02*
X193600000Y-82200000D01*
X191475000Y-81400000D02*
X192800000Y-81400000D01*
X218800000Y-98400000D02*
X218810000Y-98410000D01*
X218800000Y-97200000D02*
X218800000Y-98400000D01*
%TO.N,/DIG1_4*%
X211200000Y-96300000D02*
X211200000Y-96800000D01*
X211190000Y-96810000D02*
X211190000Y-101920000D01*
X191475000Y-80900000D02*
X193100000Y-80900000D01*
X211200000Y-96800000D02*
X211190000Y-96810000D01*
X193100000Y-80900000D02*
X193400000Y-81200000D01*
%TO.N,/Depth_G*%
X193952513Y-86647487D02*
X194352513Y-87047488D01*
X194352513Y-87047488D02*
X197455025Y-90150000D01*
X193500000Y-85150001D02*
X193500000Y-86194974D01*
X223582892Y-90150000D02*
X223916446Y-90483554D01*
X193500000Y-86194974D02*
X193952513Y-86647487D01*
X192249999Y-83900000D02*
X193500000Y-85150001D01*
X197455025Y-90150000D02*
X198450000Y-90150000D01*
X198450000Y-90150000D02*
X217000000Y-90150000D01*
X217000000Y-90150000D02*
X223582892Y-90150000D01*
X191475000Y-83900000D02*
X192249999Y-83900000D01*
%TO.N,/Salinity_B*%
X186050000Y-88325000D02*
X186050000Y-81250000D01*
X186050000Y-81250000D02*
X183200000Y-78400000D01*
%TO.N,/Depth_A*%
X188550000Y-88325000D02*
X188550000Y-89099999D01*
X190925001Y-91474999D02*
X191700002Y-92250000D01*
X191700002Y-92250000D02*
X210600000Y-92250000D01*
X188550000Y-89099999D02*
X190925001Y-91474999D01*
X217450000Y-92250000D02*
X217800000Y-92600000D01*
X210600000Y-92250000D02*
X217450000Y-92250000D01*
%TO.N,/DIG3_1*%
X235200000Y-105010000D02*
X237190000Y-107000000D01*
X191475000Y-85900000D02*
X189900000Y-85900000D01*
X235200000Y-99000000D02*
X235200000Y-105010000D01*
X189900000Y-85900000D02*
X189600000Y-85600000D01*
%TO.N,/DIG2_8*%
X193700000Y-79900000D02*
X194000000Y-80200000D01*
X230000000Y-97200000D02*
X230000000Y-105000000D01*
X191475000Y-79900000D02*
X193700000Y-79900000D01*
X230000000Y-105000000D02*
X232000000Y-107000000D01*
%TO.N,/DIG2_4*%
X193400000Y-80400000D02*
X194200000Y-81200000D01*
X224400000Y-97200000D02*
X224380000Y-97220000D01*
X224380000Y-97220000D02*
X224380000Y-101920000D01*
X191475000Y-80400000D02*
X193400000Y-80400000D01*
%TO.N,/Salinity_C*%
X186550000Y-88325000D02*
X186550000Y-80950000D01*
X226800000Y-68370000D02*
X228920000Y-70490000D01*
X186550000Y-80950000D02*
X184000000Y-78400000D01*
%TO.N,/Salinity_DIG1*%
X196150000Y-55097500D02*
X197337500Y-53910000D01*
X186550000Y-78250000D02*
X186400000Y-78400000D01*
X196150000Y-67457107D02*
X196150000Y-55097500D01*
X186550000Y-76975000D02*
X186550000Y-78250000D01*
X196892893Y-68200000D02*
X196150000Y-67457107D01*
X196400000Y-68200000D02*
X196892893Y-68200000D01*
%TO.N,/Depth_D*%
X218600000Y-91200000D02*
X220800000Y-93400000D01*
X220800000Y-93400000D02*
X222680000Y-93400000D01*
X222680000Y-93400000D02*
X223840000Y-92240000D01*
X191475000Y-86400000D02*
X192220101Y-86400000D01*
X193200000Y-87379900D02*
X197020100Y-91200000D01*
X192910051Y-87089950D02*
X193200000Y-87379900D01*
X192220101Y-86400000D02*
X192910051Y-87089950D01*
X197020100Y-91200000D02*
X218600000Y-91200000D01*
%TO.N,/Depth_DIG2*%
X186002946Y-75250000D02*
X194744975Y-75250000D01*
X185050000Y-76202946D02*
X186002946Y-75250000D01*
X194744975Y-75250000D02*
X196150000Y-76655025D01*
X196150000Y-83212500D02*
X198137500Y-85200000D01*
X196150000Y-76655025D02*
X196150000Y-83212500D01*
X185050000Y-76975000D02*
X185050000Y-76202946D01*
%TO.N,/Salinity_G*%
X187550000Y-78350000D02*
X187600000Y-78400000D01*
X187550000Y-76975000D02*
X187550000Y-78350000D01*
%TO.N,/Depth_DP*%
X223940000Y-89800000D02*
X226380000Y-92240000D01*
X197600000Y-89800000D02*
X223940000Y-89800000D01*
X193850000Y-86050000D02*
X197600000Y-89800000D01*
X192249999Y-83400000D02*
X193850000Y-85000001D01*
X193850000Y-85000001D02*
X193850000Y-86050000D01*
X191475000Y-83400000D02*
X192249999Y-83400000D01*
%TO.N,/Salinity_DIG2*%
X186050000Y-77750000D02*
X185600000Y-78200000D01*
X196500000Y-67100000D02*
X196500000Y-58037500D01*
X197000000Y-67600000D02*
X196500000Y-67100000D01*
X196500000Y-58037500D02*
X197337500Y-57200000D01*
X186050000Y-76975000D02*
X186050000Y-77750000D01*
%TO.N,/Depth_C*%
X218455026Y-91550000D02*
X220655026Y-93750000D01*
X189550000Y-88325000D02*
X189550000Y-89105025D01*
X191994975Y-91550000D02*
X218455026Y-91550000D01*
X189550000Y-89105025D02*
X191994975Y-91550000D01*
X227410000Y-93750000D02*
X228920000Y-92240000D01*
X220655026Y-93750000D02*
X227410000Y-93750000D01*
%TO.N,/DIG2_2*%
X183600000Y-85400000D02*
X185000000Y-86800000D01*
X180125000Y-85400000D02*
X183600000Y-85400000D01*
%TO.N,/Depth_E*%
X192249999Y-84900000D02*
X192800000Y-85450001D01*
X192800000Y-86484925D02*
X197165075Y-90850000D01*
X197165075Y-90850000D02*
X218744974Y-90850000D01*
X220134974Y-92240000D02*
X221300000Y-92240000D01*
X191475000Y-84900000D02*
X192249999Y-84900000D01*
X218744974Y-90850000D02*
X220134974Y-92240000D01*
X192800000Y-85450001D02*
X192800000Y-86484925D01*
%TO.N,/DIG3_4*%
X182550000Y-76975000D02*
X182550000Y-81100000D01*
X237190000Y-97610000D02*
X237190000Y-101920000D01*
X182550000Y-81100000D02*
X184650000Y-83200000D01*
X237200000Y-97600000D02*
X237190000Y-97610000D01*
X184650000Y-83200000D02*
X185000000Y-83200000D01*
%TO.N,/Salinity_DIG3*%
X197337500Y-60490000D02*
X197337500Y-65237500D01*
X180125000Y-79900000D02*
X181300000Y-79900000D01*
X197337500Y-65237500D02*
X197600000Y-65500000D01*
X181300000Y-79900000D02*
X181400000Y-79800000D01*
%TO.N,/DIG1_1*%
X212600000Y-97300000D02*
X212600000Y-105590000D01*
X191475000Y-81900000D02*
X192500000Y-81900000D01*
X192500000Y-81900000D02*
X192800000Y-82200000D01*
X212600000Y-105590000D02*
X211190000Y-107000000D01*
%TO.N,/Depth_DIG3*%
X184550000Y-76202946D02*
X185852946Y-74900000D01*
X184550000Y-76975000D02*
X184550000Y-76202946D01*
X196500000Y-80100000D02*
X198200000Y-81800000D01*
X185852946Y-74900000D02*
X194889950Y-74900000D01*
X194889950Y-74900000D02*
X196500000Y-76510050D01*
X196500000Y-76510050D02*
X196500000Y-80100000D01*
%TO.N,/Salinity_E*%
X190100000Y-82900000D02*
X187000000Y-79800000D01*
X191475000Y-82900000D02*
X190100000Y-82900000D01*
%TO.N,/Depth_F*%
X197310050Y-90500000D02*
X216600000Y-90500000D01*
X193150000Y-85300001D02*
X193150000Y-86339950D01*
X192249999Y-84400000D02*
X193150000Y-85300001D01*
X216800000Y-90500000D02*
X219300000Y-90500000D01*
X191475000Y-84400000D02*
X192249999Y-84400000D01*
X193150000Y-86339950D02*
X197310050Y-90500000D01*
X219300000Y-90500000D02*
X219600000Y-90800000D01*
X216600000Y-90500000D02*
X216800000Y-90500000D01*
%TO.N,/Salinity_F*%
X191475000Y-82400000D02*
X190400000Y-82400000D01*
X190400000Y-82400000D02*
X187800000Y-79800000D01*
X219400000Y-64400000D02*
X226400000Y-57400000D01*
X219400000Y-70200000D02*
X219400000Y-64400000D01*
%TO.N,/DIG3_8*%
X182050000Y-81400000D02*
X184650000Y-84000000D01*
X182050000Y-76975000D02*
X182050000Y-81400000D01*
X184650000Y-84000000D02*
X185000000Y-84000000D01*
%TO.N,/Salinity_DP*%
X187050000Y-78950000D02*
X187000000Y-79000000D01*
X225200000Y-68400000D02*
X225200000Y-69310000D01*
X225200000Y-69310000D02*
X226380000Y-70490000D01*
X187050000Y-76975000D02*
X187050000Y-78950000D01*
%TO.N,/DIG3_2*%
X190600000Y-85400000D02*
X190000000Y-84800000D01*
X191475000Y-85400000D02*
X190600000Y-85400000D01*
%TO.N,/Salinity_A*%
X185550000Y-81550000D02*
X183200000Y-79200000D01*
X185550000Y-88325000D02*
X185550000Y-81550000D01*
%TO.N,/Salinity_D*%
X222800000Y-69450000D02*
X223840000Y-70490000D01*
X187050000Y-80650000D02*
X184800000Y-78400000D01*
X222800000Y-68200000D02*
X222800000Y-69450000D01*
X187050000Y-88325000D02*
X187050000Y-80650000D01*
%TO.N,/Depth_B*%
X215400000Y-91900000D02*
X218097918Y-91900000D01*
X218097918Y-91900000D02*
X218598959Y-92401041D01*
X189050000Y-88325000D02*
X189050000Y-89099999D01*
X191200001Y-91250000D02*
X191644975Y-91694975D01*
X189050000Y-89099999D02*
X191200001Y-91250000D01*
X191644975Y-91694975D02*
X191850000Y-91900000D01*
X191850000Y-91900000D02*
X215400000Y-91900000D01*
%TO.N,/SW2*%
X170375000Y-82900000D02*
X169000000Y-81525000D01*
X180125000Y-82900000D02*
X170375000Y-82900000D01*
%TO.N,/SW1*%
X180125000Y-82400000D02*
X175475000Y-82400000D01*
X175475000Y-82400000D02*
X169000000Y-75925000D01*
%TO.N,Net-(J2-DAT0)*%
X184550000Y-64925000D02*
X184550000Y-62925000D01*
%TO.N,Net-(J2-DAT3{slash}CD)*%
X179050000Y-64925000D02*
X179050000Y-61725000D01*
X179050000Y-61475000D02*
X178950000Y-61375000D01*
X179050000Y-61725000D02*
X179050000Y-61475000D01*
%TO.N,Net-(J2-VSS)*%
X183450000Y-64925000D02*
X183450000Y-62582397D01*
X183450000Y-62582397D02*
X183324438Y-62456835D01*
%TO.N,Net-(J2-DET)*%
X186750000Y-64925000D02*
X186750000Y-62925000D01*
X186750000Y-62925000D02*
X186950000Y-62725000D01*
D34*
%TO.N,Net-(J2-VDD)*%
X181250000Y-64925000D02*
X181250000Y-62575000D01*
X181250000Y-62575000D02*
X181150000Y-62475000D01*
D36*
%TO.N,Net-(J2-CMD)*%
X180150000Y-62325000D02*
X180150000Y-61875000D01*
X180150000Y-64925000D02*
X180150000Y-62325000D01*
%TO.N,Net-(J2-CLK)*%
X182350000Y-64925000D02*
X182350000Y-62724166D01*
X182350000Y-62724166D02*
X182449583Y-62624583D01*
%TO.N,Net-(JP10-A)*%
X182475000Y-67850000D02*
X182662500Y-67662500D01*
X178550000Y-67850000D02*
X182475000Y-67850000D01*
%TO.N,Net-(JP3-A)*%
X169750000Y-66900000D02*
X169750000Y-67850000D01*
%TO.N,Net-(U3-DIG1)*%
X201602500Y-55250000D02*
X221300000Y-55250000D01*
X200262500Y-53910000D02*
X201602500Y-55250000D01*
%TO.N,Net-(U3-DIG3)*%
X200262500Y-60490000D02*
X203952500Y-56800000D01*
X229910000Y-56800000D02*
X231460000Y-55250000D01*
X203952500Y-56800000D02*
X229910000Y-56800000D01*
%TO.N,Net-(U3-DIG2)*%
X228920000Y-55250000D02*
X227770000Y-56400000D01*
X227770000Y-56400000D02*
X201062500Y-56400000D01*
X201062500Y-56400000D02*
X200262500Y-57200000D01*
%TO.N,Net-(U4-DIG3)*%
X217600000Y-75600000D02*
X215400000Y-77800000D01*
X230060000Y-75600000D02*
X217600000Y-75600000D01*
X205062500Y-77800000D02*
X201062500Y-81800000D01*
X231460000Y-77000000D02*
X230060000Y-75600000D01*
X215400000Y-77800000D02*
X205062500Y-77800000D01*
%TO.N,Net-(U4-DIG2)*%
X201062500Y-85200000D02*
X208062500Y-78200000D01*
X227720000Y-78200000D02*
X228920000Y-77000000D01*
X208062500Y-78200000D02*
X227720000Y-78200000D01*
%TO.N,Net-(U4-DIG1)*%
X210662500Y-78800000D02*
X220000000Y-78800000D01*
X201062500Y-88400000D02*
X210662500Y-78800000D01*
%TD*%
%TA.AperFunction,Conductor*%
%TO.N,GND*%
G36*
X158605703Y-101334391D02*
G01*
X158627601Y-101359211D01*
X158638201Y-101375076D01*
X158675306Y-101430608D01*
X158675307Y-101430609D01*
X159875305Y-102630606D01*
X159969394Y-102724695D01*
X159969397Y-102724697D01*
X159969398Y-102724698D01*
X160080020Y-102798613D01*
X160080023Y-102798614D01*
X160080031Y-102798620D01*
X160080037Y-102798622D01*
X160080038Y-102798623D01*
X160172952Y-102837109D01*
X160227356Y-102880950D01*
X160249421Y-102947244D01*
X160249500Y-102951669D01*
X160249500Y-103097869D01*
X160249501Y-103097876D01*
X160255908Y-103157483D01*
X160306202Y-103292328D01*
X160306206Y-103292335D01*
X160392452Y-103407544D01*
X160392455Y-103407547D01*
X160507664Y-103493793D01*
X160507671Y-103493797D01*
X160639081Y-103542810D01*
X160695015Y-103584681D01*
X160719432Y-103650145D01*
X160704580Y-103718418D01*
X160683430Y-103746673D01*
X160561503Y-103868600D01*
X160425965Y-104062169D01*
X160425964Y-104062171D01*
X160326098Y-104276335D01*
X160326094Y-104276344D01*
X160264938Y-104504586D01*
X160264936Y-104504596D01*
X160244341Y-104739999D01*
X160244341Y-104740000D01*
X160264936Y-104975403D01*
X160264938Y-104975413D01*
X160326094Y-105203655D01*
X160326096Y-105203659D01*
X160326097Y-105203663D01*
X160410556Y-105384785D01*
X160425965Y-105417830D01*
X160425967Y-105417834D01*
X160561501Y-105611395D01*
X160561506Y-105611402D01*
X160728597Y-105778493D01*
X160728603Y-105778498D01*
X160914158Y-105908425D01*
X160957783Y-105963002D01*
X160964977Y-106032500D01*
X160933454Y-106094855D01*
X160914158Y-106111575D01*
X160728597Y-106241505D01*
X160561505Y-106408597D01*
X160425965Y-106602169D01*
X160425964Y-106602171D01*
X160326098Y-106816335D01*
X160326094Y-106816344D01*
X160264938Y-107044586D01*
X160264936Y-107044596D01*
X160244341Y-107279999D01*
X160244341Y-107280000D01*
X160264936Y-107515403D01*
X160264938Y-107515413D01*
X160326094Y-107743655D01*
X160326096Y-107743659D01*
X160326097Y-107743663D01*
X160410556Y-107924785D01*
X160425965Y-107957830D01*
X160425967Y-107957834D01*
X160561501Y-108151395D01*
X160561506Y-108151402D01*
X160728597Y-108318493D01*
X160728603Y-108318498D01*
X160914594Y-108448730D01*
X160958219Y-108503307D01*
X160965413Y-108572805D01*
X160933890Y-108635160D01*
X160914595Y-108651880D01*
X160728922Y-108781890D01*
X160728920Y-108781891D01*
X160561891Y-108948920D01*
X160561886Y-108948926D01*
X160426400Y-109142420D01*
X160426399Y-109142422D01*
X160326570Y-109356507D01*
X160326567Y-109356513D01*
X160269364Y-109569999D01*
X160269364Y-109570000D01*
X161166988Y-109570000D01*
X161134075Y-109627007D01*
X161100000Y-109754174D01*
X161100000Y-109885826D01*
X161134075Y-110012993D01*
X161166988Y-110070000D01*
X160269364Y-110070000D01*
X160326567Y-110283486D01*
X160326570Y-110283492D01*
X160426399Y-110497578D01*
X160561894Y-110691082D01*
X160728917Y-110858105D01*
X160922421Y-110993600D01*
X161136507Y-111093429D01*
X161136516Y-111093433D01*
X161350000Y-111150634D01*
X161350000Y-110253012D01*
X161407007Y-110285925D01*
X161534174Y-110320000D01*
X161665826Y-110320000D01*
X161792993Y-110285925D01*
X161850000Y-110253012D01*
X161850000Y-111150633D01*
X162063483Y-111093433D01*
X162063492Y-111093429D01*
X162277578Y-110993600D01*
X162471082Y-110858105D01*
X162638105Y-110691082D01*
X162773600Y-110497578D01*
X162873429Y-110283492D01*
X162873432Y-110283486D01*
X162930636Y-110070000D01*
X162033012Y-110070000D01*
X162065925Y-110012993D01*
X162100000Y-109885826D01*
X162100000Y-109754174D01*
X162065925Y-109627007D01*
X162033012Y-109570000D01*
X162948613Y-109570000D01*
X162964149Y-109558655D01*
X163033895Y-109554498D01*
X163093782Y-109587662D01*
X164659485Y-111153365D01*
X164766635Y-111260515D01*
X164897865Y-111336281D01*
X164970433Y-111355725D01*
X165030094Y-111392090D01*
X165060623Y-111454937D01*
X165052328Y-111524312D01*
X165007843Y-111578190D01*
X164941291Y-111599465D01*
X164938340Y-111599500D01*
X158524500Y-111599500D01*
X158457461Y-111579815D01*
X158411706Y-111527011D01*
X158400500Y-111475500D01*
X158400500Y-101428104D01*
X158420185Y-101361065D01*
X158472989Y-101315310D01*
X158542147Y-101305366D01*
X158605703Y-101334391D01*
G37*
%TD.AperFunction*%
%TA.AperFunction,Conductor*%
G36*
X249542539Y-50420185D02*
G01*
X249588294Y-50472989D01*
X249599500Y-50524500D01*
X249599500Y-111475500D01*
X249579815Y-111542539D01*
X249527011Y-111588294D01*
X249475500Y-111599500D01*
X166806660Y-111599500D01*
X166739621Y-111579815D01*
X166693866Y-111527011D01*
X166683922Y-111457853D01*
X166712947Y-111394297D01*
X166771725Y-111356523D01*
X166774542Y-111355731D01*
X166847135Y-111336281D01*
X166978365Y-111260515D01*
X167627060Y-110611818D01*
X167688383Y-110578334D01*
X167714741Y-110575500D01*
X168081613Y-110575500D01*
X168081616Y-110575500D01*
X168152196Y-110569086D01*
X168314606Y-110518478D01*
X168460185Y-110430472D01*
X168580472Y-110310185D01*
X168668478Y-110164606D01*
X168719086Y-110002196D01*
X168725500Y-109931616D01*
X168725500Y-109268384D01*
X168719086Y-109197804D01*
X168668478Y-109035394D01*
X168582581Y-108893304D01*
X168564746Y-108825751D01*
X168586264Y-108759278D01*
X168640304Y-108714990D01*
X168709709Y-108706949D01*
X168723294Y-108710080D01*
X168852426Y-108747597D01*
X168852429Y-108747597D01*
X168852431Y-108747598D01*
X168889306Y-108750500D01*
X168889314Y-108750500D01*
X169320686Y-108750500D01*
X169320694Y-108750500D01*
X169357569Y-108747598D01*
X169357571Y-108747597D01*
X169357573Y-108747597D01*
X169399191Y-108735505D01*
X169515398Y-108701744D01*
X169656865Y-108618081D01*
X169773081Y-108501865D01*
X169856744Y-108360398D01*
X169902598Y-108202569D01*
X169905500Y-108165694D01*
X169905500Y-107526163D01*
X169925185Y-107459124D01*
X169941819Y-107438482D01*
X170818482Y-106561819D01*
X170879805Y-106528334D01*
X170906163Y-106525500D01*
X171131613Y-106525500D01*
X171131616Y-106525500D01*
X171202196Y-106519086D01*
X171364606Y-106468478D01*
X171510185Y-106380472D01*
X171630472Y-106260185D01*
X171718478Y-106114606D01*
X171744595Y-106030789D01*
X171775297Y-105980002D01*
X172803144Y-104952155D01*
X186100000Y-104952155D01*
X186100000Y-105750000D01*
X187166988Y-105750000D01*
X187134075Y-105807007D01*
X187100000Y-105934174D01*
X187100000Y-106065826D01*
X187134075Y-106192993D01*
X187166988Y-106250000D01*
X186100000Y-106250000D01*
X186100000Y-107047844D01*
X186106401Y-107107372D01*
X186106403Y-107107379D01*
X186156645Y-107242086D01*
X186156649Y-107242093D01*
X186242809Y-107357187D01*
X186242812Y-107357190D01*
X186357906Y-107443350D01*
X186357913Y-107443354D01*
X186492620Y-107493596D01*
X186492627Y-107493598D01*
X186552155Y-107499999D01*
X186552172Y-107500000D01*
X187350000Y-107500000D01*
X187350000Y-106433012D01*
X187407007Y-106465925D01*
X187534174Y-106500000D01*
X187665826Y-106500000D01*
X187792993Y-106465925D01*
X187850000Y-106433012D01*
X187850000Y-107500000D01*
X188647828Y-107500000D01*
X188647844Y-107499999D01*
X188707372Y-107493598D01*
X188707379Y-107493596D01*
X188842086Y-107443354D01*
X188842093Y-107443350D01*
X188957187Y-107357190D01*
X188957190Y-107357187D01*
X189043350Y-107242093D01*
X189043354Y-107242086D01*
X189093596Y-107107379D01*
X189093598Y-107107372D01*
X189099999Y-107047844D01*
X189100000Y-107047827D01*
X189100000Y-106250000D01*
X188033012Y-106250000D01*
X188065925Y-106192993D01*
X188100000Y-106065826D01*
X188100000Y-105934174D01*
X188065925Y-105807007D01*
X188033012Y-105750000D01*
X189100000Y-105750000D01*
X189100000Y-104952172D01*
X189099999Y-104952155D01*
X189093598Y-104892627D01*
X189093596Y-104892620D01*
X189043354Y-104757913D01*
X189043350Y-104757906D01*
X188957190Y-104642812D01*
X188957187Y-104642809D01*
X188842093Y-104556649D01*
X188842086Y-104556645D01*
X188707379Y-104506403D01*
X188707372Y-104506401D01*
X188647844Y-104500000D01*
X187850000Y-104500000D01*
X187850000Y-105566988D01*
X187792993Y-105534075D01*
X187665826Y-105500000D01*
X187534174Y-105500000D01*
X187407007Y-105534075D01*
X187350000Y-105566988D01*
X187350000Y-104500000D01*
X186552155Y-104500000D01*
X186492627Y-104506401D01*
X186492620Y-104506403D01*
X186357913Y-104556645D01*
X186357906Y-104556649D01*
X186242812Y-104642809D01*
X186242809Y-104642812D01*
X186156649Y-104757906D01*
X186156645Y-104757913D01*
X186106403Y-104892620D01*
X186106401Y-104892627D01*
X186100000Y-104952155D01*
X172803144Y-104952155D01*
X178443482Y-99311819D01*
X178504805Y-99278334D01*
X178531163Y-99275500D01*
X189668837Y-99275500D01*
X189735876Y-99295185D01*
X189756518Y-99311819D01*
X195863181Y-105418482D01*
X195896666Y-105479805D01*
X195899500Y-105506163D01*
X195899500Y-107047870D01*
X195899501Y-107047876D01*
X195905908Y-107107483D01*
X195956202Y-107242328D01*
X195956206Y-107242335D01*
X196042452Y-107357544D01*
X196042455Y-107357547D01*
X196157664Y-107443793D01*
X196157671Y-107443797D01*
X196292517Y-107494091D01*
X196292516Y-107494091D01*
X196299444Y-107494835D01*
X196352127Y-107500500D01*
X198447872Y-107500499D01*
X198507483Y-107494091D01*
X198642331Y-107443796D01*
X198757546Y-107357546D01*
X198843796Y-107242331D01*
X198894091Y-107107483D01*
X198900500Y-107047873D01*
X198900499Y-104952128D01*
X198894091Y-104892517D01*
X198892287Y-104887681D01*
X198843797Y-104757671D01*
X198843793Y-104757664D01*
X198757547Y-104642455D01*
X198757544Y-104642452D01*
X198642335Y-104556206D01*
X198642328Y-104556202D01*
X198507482Y-104505908D01*
X198507483Y-104505908D01*
X198447883Y-104499501D01*
X198447881Y-104499500D01*
X198447873Y-104499500D01*
X198447865Y-104499500D01*
X198199500Y-104499500D01*
X198132461Y-104479815D01*
X198086706Y-104427011D01*
X198075500Y-104375500D01*
X198075500Y-101919994D01*
X209684357Y-101919994D01*
X209684357Y-101920005D01*
X209704890Y-102167812D01*
X209704892Y-102167824D01*
X209765936Y-102408881D01*
X209865826Y-102636606D01*
X210001833Y-102844782D01*
X210001836Y-102844785D01*
X210170256Y-103027738D01*
X210253008Y-103092147D01*
X210293821Y-103148857D01*
X210297496Y-103218630D01*
X210262864Y-103279313D01*
X210253014Y-103287848D01*
X210194400Y-103333469D01*
X210170257Y-103352261D01*
X210001833Y-103535217D01*
X209865826Y-103743393D01*
X209765936Y-103971118D01*
X209704892Y-104212175D01*
X209704890Y-104212187D01*
X209684357Y-104459994D01*
X209684357Y-104460005D01*
X209704890Y-104707812D01*
X209704892Y-104707824D01*
X209765936Y-104948881D01*
X209865826Y-105176606D01*
X210001833Y-105384782D01*
X210001836Y-105384785D01*
X210170256Y-105567738D01*
X210253008Y-105632147D01*
X210293821Y-105688857D01*
X210297496Y-105758630D01*
X210262864Y-105819313D01*
X210253014Y-105827848D01*
X210194400Y-105873469D01*
X210170257Y-105892261D01*
X210001833Y-106075217D01*
X209865826Y-106283393D01*
X209765936Y-106511118D01*
X209704892Y-106752175D01*
X209704890Y-106752187D01*
X209684357Y-106999994D01*
X209684357Y-107000005D01*
X209704890Y-107247812D01*
X209704892Y-107247824D01*
X209765936Y-107488881D01*
X209865826Y-107716606D01*
X210001833Y-107924782D01*
X210001836Y-107924785D01*
X210170256Y-108107738D01*
X210366491Y-108260474D01*
X210366493Y-108260475D01*
X210550755Y-108360193D01*
X210585190Y-108378828D01*
X210820386Y-108459571D01*
X211065665Y-108500500D01*
X211314335Y-108500500D01*
X211559614Y-108459571D01*
X211794810Y-108378828D01*
X212013509Y-108260474D01*
X212209744Y-108107738D01*
X212378164Y-107924785D01*
X212514173Y-107716607D01*
X212614063Y-107488881D01*
X212675108Y-107247821D01*
X212686737Y-107107482D01*
X212695643Y-107000005D01*
X212695643Y-106999994D01*
X212675109Y-106752187D01*
X212675107Y-106752175D01*
X212672138Y-106740453D01*
X212614063Y-106511119D01*
X212611109Y-106504384D01*
X212602206Y-106435084D01*
X212632184Y-106371972D01*
X212636964Y-106366914D01*
X213060515Y-105943365D01*
X213136281Y-105812135D01*
X213175500Y-105665767D01*
X213175500Y-105514234D01*
X213175500Y-101919994D01*
X217304357Y-101919994D01*
X217304357Y-101920005D01*
X217324890Y-102167812D01*
X217324892Y-102167824D01*
X217385936Y-102408881D01*
X217485826Y-102636606D01*
X217621833Y-102844782D01*
X217621836Y-102844785D01*
X217790256Y-103027738D01*
X217873008Y-103092147D01*
X217913821Y-103148857D01*
X217917496Y-103218630D01*
X217882864Y-103279313D01*
X217873014Y-103287848D01*
X217814400Y-103333469D01*
X217790257Y-103352261D01*
X217621833Y-103535217D01*
X217485826Y-103743393D01*
X217385936Y-103971118D01*
X217324892Y-104212175D01*
X217324890Y-104212187D01*
X217304357Y-104459994D01*
X217304357Y-104460005D01*
X217324890Y-104707812D01*
X217324892Y-104707824D01*
X217385936Y-104948881D01*
X217485826Y-105176606D01*
X217621833Y-105384782D01*
X217621836Y-105384785D01*
X217790256Y-105567738D01*
X217873008Y-105632147D01*
X217913821Y-105688857D01*
X217917496Y-105758630D01*
X217882864Y-105819313D01*
X217873014Y-105827848D01*
X217814400Y-105873469D01*
X217790257Y-105892261D01*
X217621833Y-106075217D01*
X217485826Y-106283393D01*
X217385936Y-106511118D01*
X217324892Y-106752175D01*
X217324890Y-106752187D01*
X217304357Y-106999994D01*
X217304357Y-107000005D01*
X217324890Y-107247812D01*
X217324892Y-107247824D01*
X217385936Y-107488881D01*
X217485826Y-107716606D01*
X217621833Y-107924782D01*
X217621836Y-107924785D01*
X217790256Y-108107738D01*
X217986491Y-108260474D01*
X217986493Y-108260475D01*
X218170755Y-108360193D01*
X218205190Y-108378828D01*
X218440386Y-108459571D01*
X218685665Y-108500500D01*
X218934335Y-108500500D01*
X219179614Y-108459571D01*
X219414810Y-108378828D01*
X219633509Y-108260474D01*
X219829744Y-108107738D01*
X219998164Y-107924785D01*
X220134173Y-107716607D01*
X220234063Y-107488881D01*
X220295108Y-107247821D01*
X220306737Y-107107482D01*
X220315643Y-107000005D01*
X220315643Y-106999994D01*
X220295109Y-106752187D01*
X220295107Y-106752175D01*
X220292138Y-106740453D01*
X220234063Y-106511119D01*
X220231109Y-106504384D01*
X220222206Y-106435084D01*
X220252184Y-106371972D01*
X220256966Y-106366912D01*
X221519447Y-105104431D01*
X221580768Y-105070948D01*
X221650460Y-105075932D01*
X221706393Y-105117804D01*
X221714512Y-105130112D01*
X221717562Y-105135394D01*
X221739485Y-105173365D01*
X221739487Y-105173367D01*
X222933015Y-106366895D01*
X222966500Y-106428218D01*
X222961516Y-106497910D01*
X222958894Y-106504377D01*
X222955937Y-106511119D01*
X222955935Y-106511123D01*
X222894892Y-106752175D01*
X222894890Y-106752187D01*
X222874357Y-106999994D01*
X222874357Y-107000005D01*
X222894890Y-107247812D01*
X222894892Y-107247824D01*
X222955936Y-107488881D01*
X223055826Y-107716606D01*
X223191833Y-107924782D01*
X223191836Y-107924785D01*
X223360256Y-108107738D01*
X223556491Y-108260474D01*
X223556493Y-108260475D01*
X223740755Y-108360193D01*
X223775190Y-108378828D01*
X224010386Y-108459571D01*
X224255665Y-108500500D01*
X224504335Y-108500500D01*
X224749614Y-108459571D01*
X224984810Y-108378828D01*
X225203509Y-108260474D01*
X225399744Y-108107738D01*
X225568164Y-107924785D01*
X225704173Y-107716607D01*
X225804063Y-107488881D01*
X225865108Y-107247821D01*
X225876737Y-107107482D01*
X225885643Y-107000005D01*
X225885643Y-106999994D01*
X225865109Y-106752187D01*
X225865107Y-106752175D01*
X225804063Y-106511118D01*
X225704173Y-106283393D01*
X225568166Y-106075217D01*
X225508129Y-106010000D01*
X225399744Y-105892262D01*
X225316991Y-105827852D01*
X225276179Y-105771143D01*
X225272504Y-105701370D01*
X225307136Y-105640687D01*
X225316985Y-105632151D01*
X225399744Y-105567738D01*
X225568164Y-105384785D01*
X225704173Y-105176607D01*
X225804063Y-104948881D01*
X225865108Y-104707821D01*
X225865109Y-104707812D01*
X225885643Y-104460005D01*
X225885643Y-104459994D01*
X225865109Y-104212187D01*
X225865107Y-104212175D01*
X225804063Y-103971118D01*
X225704173Y-103743393D01*
X225568166Y-103535217D01*
X225530032Y-103493793D01*
X225399744Y-103352262D01*
X225316991Y-103287852D01*
X225276179Y-103231143D01*
X225272504Y-103161370D01*
X225307136Y-103100687D01*
X225316985Y-103092151D01*
X225399744Y-103027738D01*
X225568164Y-102844785D01*
X225704173Y-102636607D01*
X225804063Y-102408881D01*
X225865108Y-102167821D01*
X225885643Y-101920000D01*
X225865108Y-101672179D01*
X225804063Y-101431119D01*
X225803839Y-101430609D01*
X225704173Y-101203393D01*
X225568166Y-100995217D01*
X225511323Y-100933469D01*
X225399744Y-100812262D01*
X225203509Y-100659526D01*
X225203508Y-100659525D01*
X225203505Y-100659523D01*
X225203503Y-100659522D01*
X225020483Y-100560477D01*
X224970892Y-100511257D01*
X224955500Y-100451422D01*
X224955500Y-97715290D01*
X224974507Y-97649317D01*
X224975500Y-97647736D01*
X225057789Y-97516775D01*
X225111786Y-97362461D01*
X225111787Y-97362455D01*
X225130091Y-97200003D01*
X225130091Y-97199996D01*
X229269909Y-97199996D01*
X229269909Y-97200003D01*
X229288212Y-97362457D01*
X229342210Y-97516774D01*
X229342213Y-97516779D01*
X229405493Y-97617487D01*
X229424500Y-97683460D01*
X229424500Y-104924234D01*
X229424500Y-105075766D01*
X229432181Y-105104433D01*
X229463719Y-105222136D01*
X229469493Y-105232136D01*
X229539485Y-105353365D01*
X229539487Y-105353367D01*
X230553015Y-106366895D01*
X230586500Y-106428218D01*
X230581516Y-106497910D01*
X230578894Y-106504377D01*
X230575937Y-106511119D01*
X230575935Y-106511123D01*
X230514892Y-106752175D01*
X230514890Y-106752187D01*
X230494357Y-106999994D01*
X230494357Y-107000005D01*
X230514890Y-107247812D01*
X230514892Y-107247824D01*
X230575936Y-107488881D01*
X230675826Y-107716606D01*
X230811833Y-107924782D01*
X230811836Y-107924785D01*
X230980256Y-108107738D01*
X231176491Y-108260474D01*
X231176493Y-108260475D01*
X231360755Y-108360193D01*
X231395190Y-108378828D01*
X231630386Y-108459571D01*
X231875665Y-108500500D01*
X232124335Y-108500500D01*
X232369614Y-108459571D01*
X232604810Y-108378828D01*
X232823509Y-108260474D01*
X233019744Y-108107738D01*
X233188164Y-107924785D01*
X233324173Y-107716607D01*
X233424063Y-107488881D01*
X233485108Y-107247821D01*
X233496737Y-107107482D01*
X233505643Y-107000005D01*
X233505643Y-106999994D01*
X233485109Y-106752187D01*
X233485107Y-106752175D01*
X233424063Y-106511118D01*
X233324173Y-106283393D01*
X233188166Y-106075217D01*
X233128129Y-106010000D01*
X233019744Y-105892262D01*
X232936991Y-105827852D01*
X232896179Y-105771143D01*
X232892504Y-105701370D01*
X232927136Y-105640687D01*
X232936985Y-105632151D01*
X233019744Y-105567738D01*
X233188164Y-105384785D01*
X233324173Y-105176607D01*
X233424063Y-104948881D01*
X233485108Y-104707821D01*
X233485109Y-104707812D01*
X233505643Y-104460005D01*
X233505643Y-104459994D01*
X233485109Y-104212187D01*
X233485107Y-104212175D01*
X233424063Y-103971118D01*
X233324173Y-103743393D01*
X233188166Y-103535217D01*
X233150032Y-103493793D01*
X233019744Y-103352262D01*
X232936991Y-103287852D01*
X232896179Y-103231143D01*
X232892504Y-103161370D01*
X232927136Y-103100687D01*
X232936985Y-103092151D01*
X233019744Y-103027738D01*
X233188164Y-102844785D01*
X233324173Y-102636607D01*
X233424063Y-102408881D01*
X233485108Y-102167821D01*
X233505643Y-101920000D01*
X233485108Y-101672179D01*
X233424063Y-101431119D01*
X233423839Y-101430609D01*
X233324173Y-101203393D01*
X233188166Y-100995217D01*
X233131323Y-100933469D01*
X233019744Y-100812262D01*
X232823509Y-100659526D01*
X232823507Y-100659525D01*
X232823506Y-100659524D01*
X232604811Y-100541172D01*
X232604802Y-100541169D01*
X232369616Y-100460429D01*
X232124335Y-100419500D01*
X231875665Y-100419500D01*
X231630383Y-100460429D01*
X231395197Y-100541169D01*
X231395188Y-100541172D01*
X231176493Y-100659524D01*
X230980257Y-100812261D01*
X230811833Y-100995218D01*
X230803307Y-101008268D01*
X230750160Y-101053624D01*
X230680928Y-101063045D01*
X230617593Y-101033542D01*
X230580263Y-100974481D01*
X230575500Y-100940444D01*
X230575500Y-98999996D01*
X234469909Y-98999996D01*
X234469909Y-99000003D01*
X234488212Y-99162457D01*
X234542210Y-99316774D01*
X234542213Y-99316779D01*
X234605493Y-99417487D01*
X234624500Y-99483460D01*
X234624500Y-104934234D01*
X234624500Y-105085766D01*
X234636382Y-105130112D01*
X234663719Y-105232136D01*
X234688756Y-105275500D01*
X234739485Y-105363365D01*
X234739487Y-105363367D01*
X235743015Y-106366895D01*
X235776500Y-106428218D01*
X235771516Y-106497910D01*
X235768894Y-106504377D01*
X235765937Y-106511119D01*
X235765935Y-106511123D01*
X235704892Y-106752175D01*
X235704890Y-106752187D01*
X235684357Y-106999994D01*
X235684357Y-107000005D01*
X235704890Y-107247812D01*
X235704892Y-107247824D01*
X235765936Y-107488881D01*
X235865826Y-107716606D01*
X236001833Y-107924782D01*
X236001836Y-107924785D01*
X236170256Y-108107738D01*
X236366491Y-108260474D01*
X236366493Y-108260475D01*
X236550755Y-108360193D01*
X236585190Y-108378828D01*
X236820386Y-108459571D01*
X237065665Y-108500500D01*
X237314335Y-108500500D01*
X237559614Y-108459571D01*
X237794810Y-108378828D01*
X238013509Y-108260474D01*
X238209744Y-108107738D01*
X238378164Y-107924785D01*
X238514173Y-107716607D01*
X238614063Y-107488881D01*
X238675108Y-107247821D01*
X238686737Y-107107482D01*
X238695643Y-107000005D01*
X238695643Y-106999994D01*
X238675109Y-106752187D01*
X238675107Y-106752175D01*
X238614063Y-106511118D01*
X238514173Y-106283393D01*
X238378166Y-106075217D01*
X238318129Y-106010000D01*
X238209744Y-105892262D01*
X238126991Y-105827852D01*
X238086179Y-105771143D01*
X238082504Y-105701370D01*
X238117136Y-105640687D01*
X238126985Y-105632151D01*
X238209744Y-105567738D01*
X238378164Y-105384785D01*
X238514173Y-105176607D01*
X238614063Y-104948881D01*
X238675108Y-104707821D01*
X238675109Y-104707812D01*
X238695643Y-104460005D01*
X238695643Y-104459994D01*
X238675109Y-104212187D01*
X238675107Y-104212175D01*
X238614063Y-103971118D01*
X238514173Y-103743393D01*
X238378166Y-103535217D01*
X238340032Y-103493793D01*
X238209744Y-103352262D01*
X238126991Y-103287852D01*
X238086179Y-103231143D01*
X238082504Y-103161370D01*
X238117136Y-103100687D01*
X238126985Y-103092151D01*
X238209744Y-103027738D01*
X238378164Y-102844785D01*
X238514173Y-102636607D01*
X238614063Y-102408881D01*
X238675108Y-102167821D01*
X238695643Y-101920000D01*
X238695643Y-101919994D01*
X243304357Y-101919994D01*
X243304357Y-101920005D01*
X243324890Y-102167812D01*
X243324892Y-102167824D01*
X243385936Y-102408881D01*
X243485826Y-102636606D01*
X243621833Y-102844782D01*
X243621836Y-102844785D01*
X243790256Y-103027738D01*
X243873008Y-103092147D01*
X243913821Y-103148857D01*
X243917496Y-103218630D01*
X243882864Y-103279313D01*
X243873014Y-103287848D01*
X243814400Y-103333469D01*
X243790257Y-103352261D01*
X243621833Y-103535217D01*
X243485826Y-103743393D01*
X243385936Y-103971118D01*
X243324892Y-104212175D01*
X243324890Y-104212187D01*
X243304357Y-104459994D01*
X243304357Y-104460005D01*
X243324890Y-104707812D01*
X243324892Y-104707824D01*
X243385936Y-104948881D01*
X243485826Y-105176606D01*
X243621833Y-105384782D01*
X243621836Y-105384785D01*
X243790256Y-105567738D01*
X243873008Y-105632147D01*
X243913821Y-105688857D01*
X243917496Y-105758630D01*
X243882864Y-105819313D01*
X243873014Y-105827848D01*
X243814400Y-105873469D01*
X243790257Y-105892261D01*
X243621833Y-106075217D01*
X243485826Y-106283393D01*
X243385936Y-106511118D01*
X243324892Y-106752175D01*
X243324890Y-106752187D01*
X243304357Y-106999994D01*
X243304357Y-107000005D01*
X243324890Y-107247812D01*
X243324892Y-107247824D01*
X243385936Y-107488881D01*
X243485826Y-107716606D01*
X243621833Y-107924782D01*
X243621836Y-107924785D01*
X243790256Y-108107738D01*
X243986491Y-108260474D01*
X243986493Y-108260475D01*
X244170755Y-108360193D01*
X244205190Y-108378828D01*
X244440386Y-108459571D01*
X244685665Y-108500500D01*
X244934335Y-108500500D01*
X245179614Y-108459571D01*
X245414810Y-108378828D01*
X245633509Y-108260474D01*
X245829744Y-108107738D01*
X245998164Y-107924785D01*
X246134173Y-107716607D01*
X246234063Y-107488881D01*
X246295108Y-107247821D01*
X246306737Y-107107482D01*
X246315643Y-107000005D01*
X246315643Y-106999994D01*
X246295109Y-106752187D01*
X246295107Y-106752175D01*
X246234063Y-106511118D01*
X246134173Y-106283393D01*
X245998166Y-106075217D01*
X245938129Y-106010000D01*
X245829744Y-105892262D01*
X245746991Y-105827852D01*
X245706179Y-105771143D01*
X245702504Y-105701370D01*
X245737136Y-105640687D01*
X245746985Y-105632151D01*
X245829744Y-105567738D01*
X245998164Y-105384785D01*
X246134173Y-105176607D01*
X246234063Y-104948881D01*
X246295108Y-104707821D01*
X246295109Y-104707812D01*
X246315643Y-104460005D01*
X246315643Y-104459994D01*
X246295109Y-104212187D01*
X246295107Y-104212175D01*
X246234063Y-103971118D01*
X246134173Y-103743393D01*
X245998166Y-103535217D01*
X245960032Y-103493793D01*
X245829744Y-103352262D01*
X245746991Y-103287852D01*
X245706179Y-103231143D01*
X245702504Y-103161370D01*
X245737136Y-103100687D01*
X245746985Y-103092151D01*
X245829744Y-103027738D01*
X245998164Y-102844785D01*
X246134173Y-102636607D01*
X246234063Y-102408881D01*
X246295108Y-102167821D01*
X246315643Y-101920000D01*
X246295108Y-101672179D01*
X246234063Y-101431119D01*
X246233839Y-101430609D01*
X246134173Y-101203393D01*
X245998166Y-100995217D01*
X245941323Y-100933469D01*
X245829744Y-100812262D01*
X245633509Y-100659526D01*
X245633507Y-100659525D01*
X245633506Y-100659524D01*
X245414811Y-100541172D01*
X245414802Y-100541169D01*
X245179616Y-100460429D01*
X244934335Y-100419500D01*
X244685665Y-100419500D01*
X244440383Y-100460429D01*
X244205197Y-100541169D01*
X244205188Y-100541172D01*
X243986493Y-100659524D01*
X243790257Y-100812261D01*
X243621833Y-100995217D01*
X243485826Y-101203393D01*
X243385936Y-101431118D01*
X243324892Y-101672175D01*
X243324890Y-101672187D01*
X243304357Y-101919994D01*
X238695643Y-101919994D01*
X238675108Y-101672179D01*
X238614063Y-101431119D01*
X238613839Y-101430609D01*
X238514173Y-101203393D01*
X238378166Y-100995217D01*
X238321323Y-100933469D01*
X238209744Y-100812262D01*
X238013509Y-100659526D01*
X238013508Y-100659525D01*
X238013505Y-100659523D01*
X238013503Y-100659522D01*
X237830483Y-100560477D01*
X237780892Y-100511257D01*
X237765500Y-100451422D01*
X237765500Y-98099375D01*
X237784507Y-98033402D01*
X237857789Y-97916775D01*
X237911786Y-97762461D01*
X237914306Y-97740099D01*
X237930091Y-97600003D01*
X237930091Y-97599996D01*
X237911787Y-97437544D01*
X237911786Y-97437542D01*
X237911786Y-97437539D01*
X237857789Y-97283225D01*
X237770808Y-97144796D01*
X237655204Y-97029192D01*
X237582048Y-96983225D01*
X237516774Y-96942210D01*
X237362455Y-96888212D01*
X237200004Y-96869909D01*
X237199996Y-96869909D01*
X237037544Y-96888212D01*
X236883225Y-96942210D01*
X236744795Y-97029192D01*
X236629192Y-97144795D01*
X236542210Y-97283225D01*
X236488212Y-97437544D01*
X236469909Y-97599996D01*
X236469909Y-97600003D01*
X236488212Y-97762457D01*
X236515346Y-97840000D01*
X236542211Y-97916775D01*
X236595493Y-98001572D01*
X236614500Y-98067544D01*
X236614500Y-100451422D01*
X236594815Y-100518461D01*
X236549517Y-100560477D01*
X236366496Y-100659522D01*
X236366494Y-100659523D01*
X236170257Y-100812261D01*
X236001830Y-100995220D01*
X235998683Y-100999265D01*
X235997242Y-100998143D01*
X235950143Y-101038325D01*
X235880910Y-101047737D01*
X235817579Y-101018224D01*
X235780258Y-100959157D01*
X235775500Y-100925138D01*
X235775500Y-99483460D01*
X235794507Y-99417487D01*
X235807057Y-99397513D01*
X235857789Y-99316775D01*
X235911786Y-99162461D01*
X235911786Y-99162459D01*
X235911787Y-99162457D01*
X235930091Y-99000003D01*
X235930091Y-98999996D01*
X235911787Y-98837544D01*
X235911786Y-98837542D01*
X235911786Y-98837539D01*
X235857789Y-98683225D01*
X235770808Y-98544796D01*
X235655204Y-98429192D01*
X235573900Y-98378105D01*
X235516774Y-98342210D01*
X235362455Y-98288212D01*
X235200004Y-98269909D01*
X235199996Y-98269909D01*
X235037544Y-98288212D01*
X234883225Y-98342210D01*
X234744795Y-98429192D01*
X234629192Y-98544795D01*
X234542210Y-98683225D01*
X234488212Y-98837544D01*
X234469909Y-98999996D01*
X230575500Y-98999996D01*
X230575500Y-97683460D01*
X230594507Y-97617487D01*
X230611778Y-97590000D01*
X230657789Y-97516775D01*
X230711786Y-97362461D01*
X230711786Y-97362459D01*
X230711787Y-97362457D01*
X230730091Y-97200003D01*
X230730091Y-97199996D01*
X230711787Y-97037544D01*
X230711786Y-97037542D01*
X230711786Y-97037539D01*
X230657789Y-96883225D01*
X230570808Y-96744796D01*
X230455204Y-96629192D01*
X230360856Y-96569909D01*
X230316774Y-96542210D01*
X230162455Y-96488212D01*
X230000004Y-96469909D01*
X229999996Y-96469909D01*
X229837544Y-96488212D01*
X229683225Y-96542210D01*
X229544795Y-96629192D01*
X229429192Y-96744795D01*
X229342210Y-96883225D01*
X229288212Y-97037544D01*
X229269909Y-97199996D01*
X225130091Y-97199996D01*
X225111787Y-97037544D01*
X225111786Y-97037542D01*
X225111786Y-97037539D01*
X225057789Y-96883225D01*
X224970808Y-96744796D01*
X224855204Y-96629192D01*
X224760856Y-96569909D01*
X224716774Y-96542210D01*
X224562455Y-96488212D01*
X224400004Y-96469909D01*
X224399996Y-96469909D01*
X224237544Y-96488212D01*
X224083225Y-96542210D01*
X223944795Y-96629192D01*
X223829192Y-96744795D01*
X223742210Y-96883225D01*
X223688212Y-97037544D01*
X223669909Y-97199996D01*
X223669909Y-97200003D01*
X223688212Y-97362455D01*
X223742211Y-97516776D01*
X223785493Y-97585658D01*
X223804500Y-97651631D01*
X223804500Y-100451422D01*
X223784815Y-100518461D01*
X223739517Y-100560477D01*
X223556496Y-100659522D01*
X223556494Y-100659523D01*
X223360257Y-100812261D01*
X223191833Y-100995217D01*
X223055826Y-101203393D01*
X223013056Y-101300900D01*
X222968100Y-101354386D01*
X222901364Y-101375076D01*
X222834036Y-101356401D01*
X222787493Y-101304291D01*
X222775500Y-101251090D01*
X222775500Y-100383460D01*
X222794507Y-100317487D01*
X222857786Y-100216779D01*
X222857789Y-100216775D01*
X222911786Y-100062461D01*
X222911786Y-100062459D01*
X222911787Y-100062457D01*
X222930091Y-99900003D01*
X222930091Y-99899996D01*
X222911787Y-99737544D01*
X222911786Y-99737542D01*
X222911786Y-99737539D01*
X222857789Y-99583225D01*
X222770808Y-99444796D01*
X222655204Y-99329192D01*
X222627555Y-99311819D01*
X222516774Y-99242210D01*
X222362455Y-99188212D01*
X222200004Y-99169909D01*
X222199996Y-99169909D01*
X222037540Y-99188213D01*
X222037539Y-99188213D01*
X222027166Y-99191843D01*
X221957387Y-99195404D01*
X221896760Y-99160674D01*
X221869171Y-99115754D01*
X221857789Y-99083224D01*
X221770807Y-98944795D01*
X221655204Y-98829192D01*
X221516774Y-98742210D01*
X221362455Y-98688212D01*
X221200004Y-98669909D01*
X221199996Y-98669909D01*
X221037544Y-98688212D01*
X220883225Y-98742210D01*
X220744795Y-98829192D01*
X220629192Y-98944795D01*
X220542210Y-99083225D01*
X220488212Y-99237544D01*
X220469909Y-99399996D01*
X220469909Y-99400003D01*
X220488212Y-99562457D01*
X220542210Y-99716774D01*
X220542213Y-99716779D01*
X220605493Y-99817487D01*
X220624500Y-99883460D01*
X220624500Y-104320257D01*
X220604815Y-104387296D01*
X220588181Y-104407938D01*
X220521680Y-104474439D01*
X220460357Y-104507924D01*
X220390665Y-104502940D01*
X220334732Y-104461068D01*
X220310423Y-104396998D01*
X220295109Y-104212187D01*
X220295107Y-104212175D01*
X220234063Y-103971118D01*
X220134173Y-103743393D01*
X219998166Y-103535217D01*
X219960032Y-103493793D01*
X219829744Y-103352262D01*
X219746991Y-103287852D01*
X219706179Y-103231143D01*
X219702504Y-103161370D01*
X219737136Y-103100687D01*
X219746985Y-103092151D01*
X219829744Y-103027738D01*
X219998164Y-102844785D01*
X220134173Y-102636607D01*
X220234063Y-102408881D01*
X220295108Y-102167821D01*
X220315643Y-101920000D01*
X220295108Y-101672179D01*
X220234063Y-101431119D01*
X220233839Y-101430609D01*
X220134173Y-101203393D01*
X219998166Y-100995217D01*
X219941323Y-100933469D01*
X219829744Y-100812262D01*
X219633509Y-100659526D01*
X219633508Y-100659525D01*
X219633505Y-100659523D01*
X219633503Y-100659522D01*
X219450483Y-100560477D01*
X219400892Y-100511257D01*
X219385500Y-100451422D01*
X219385500Y-98334236D01*
X219385499Y-98334232D01*
X219382820Y-98324234D01*
X219379725Y-98312680D01*
X219375500Y-98280588D01*
X219375500Y-97683460D01*
X219394507Y-97617487D01*
X219411778Y-97590000D01*
X219457789Y-97516775D01*
X219511786Y-97362461D01*
X219511786Y-97362459D01*
X219511787Y-97362457D01*
X219530091Y-97200003D01*
X219530091Y-97199996D01*
X219511787Y-97037544D01*
X219511786Y-97037542D01*
X219511786Y-97037539D01*
X219457789Y-96883225D01*
X219370808Y-96744796D01*
X219255204Y-96629192D01*
X219160856Y-96569909D01*
X219116774Y-96542210D01*
X218962455Y-96488212D01*
X218800004Y-96469909D01*
X218799996Y-96469909D01*
X218637544Y-96488212D01*
X218483225Y-96542210D01*
X218344795Y-96629192D01*
X218229192Y-96744795D01*
X218142210Y-96883225D01*
X218088212Y-97037544D01*
X218069909Y-97199996D01*
X218069909Y-97200003D01*
X218088212Y-97362457D01*
X218142210Y-97516774D01*
X218142213Y-97516779D01*
X218205493Y-97617487D01*
X218224500Y-97683460D01*
X218224500Y-98475765D01*
X218230275Y-98497318D01*
X218234500Y-98529411D01*
X218234500Y-100451422D01*
X218214815Y-100518461D01*
X218169517Y-100560477D01*
X217986496Y-100659522D01*
X217986494Y-100659523D01*
X217790257Y-100812261D01*
X217621833Y-100995217D01*
X217485826Y-101203393D01*
X217385936Y-101431118D01*
X217324892Y-101672175D01*
X217324890Y-101672187D01*
X217304357Y-101919994D01*
X213175500Y-101919994D01*
X213175500Y-97783460D01*
X213194507Y-97717487D01*
X213233642Y-97655204D01*
X213257789Y-97616775D01*
X213311786Y-97462461D01*
X213311786Y-97462459D01*
X213311787Y-97462457D01*
X213330091Y-97300003D01*
X213330091Y-97299996D01*
X213311787Y-97137544D01*
X213311786Y-97137542D01*
X213311786Y-97137539D01*
X213257789Y-96983225D01*
X213170808Y-96844796D01*
X213055204Y-96729192D01*
X212948941Y-96662422D01*
X212916774Y-96642210D01*
X212762455Y-96588212D01*
X212600004Y-96569909D01*
X212599996Y-96569909D01*
X212437544Y-96588212D01*
X212283225Y-96642210D01*
X212144795Y-96729192D01*
X212029192Y-96844795D01*
X212029190Y-96844798D01*
X212004493Y-96884103D01*
X211952158Y-96930394D01*
X211883104Y-96941041D01*
X211819256Y-96912665D01*
X211780885Y-96854275D01*
X211775500Y-96818130D01*
X211775500Y-96783460D01*
X211794507Y-96717487D01*
X211841807Y-96642210D01*
X211857789Y-96616775D01*
X211911786Y-96462461D01*
X211911786Y-96462459D01*
X211911787Y-96462457D01*
X211930091Y-96300003D01*
X211930091Y-96299996D01*
X211911787Y-96137544D01*
X211911786Y-96137542D01*
X211911786Y-96137539D01*
X211857789Y-95983225D01*
X211770808Y-95844796D01*
X211655204Y-95729192D01*
X211563232Y-95671402D01*
X211516774Y-95642210D01*
X211362455Y-95588212D01*
X211200004Y-95569909D01*
X211199996Y-95569909D01*
X211037544Y-95588212D01*
X210883225Y-95642210D01*
X210744795Y-95729192D01*
X210629192Y-95844795D01*
X210542210Y-95983225D01*
X210488212Y-96137544D01*
X210469909Y-96299996D01*
X210469909Y-96300003D01*
X210488212Y-96462457D01*
X210532216Y-96588212D01*
X210542211Y-96616775D01*
X210595493Y-96701572D01*
X210614500Y-96767544D01*
X210614500Y-100451422D01*
X210594815Y-100518461D01*
X210549517Y-100560477D01*
X210366496Y-100659522D01*
X210366494Y-100659523D01*
X210170257Y-100812261D01*
X210001833Y-100995217D01*
X209865826Y-101203393D01*
X209765936Y-101431118D01*
X209704892Y-101672175D01*
X209704890Y-101672187D01*
X209684357Y-101919994D01*
X198075500Y-101919994D01*
X198075500Y-98399500D01*
X198095185Y-98332461D01*
X198147989Y-98286706D01*
X198199500Y-98275500D01*
X203866532Y-98275500D01*
X203866533Y-98275499D01*
X203997036Y-98249541D01*
X204119969Y-98198620D01*
X204230606Y-98124695D01*
X207524695Y-94830606D01*
X207545145Y-94800000D01*
X207598620Y-94719969D01*
X207649540Y-94597036D01*
X207667790Y-94505290D01*
X207675500Y-94466533D01*
X207675500Y-94443156D01*
X207695185Y-94376117D01*
X207707351Y-94360183D01*
X207714744Y-94351972D01*
X207732533Y-94332216D01*
X207827179Y-94168284D01*
X207885674Y-93988256D01*
X207905460Y-93800000D01*
X207885674Y-93611744D01*
X207830033Y-93440500D01*
X207827181Y-93431722D01*
X207827180Y-93431721D01*
X207827179Y-93431716D01*
X207732533Y-93267784D01*
X207605871Y-93127112D01*
X207586211Y-93112828D01*
X207499485Y-93049818D01*
X207456819Y-92994488D01*
X207450840Y-92924875D01*
X207483446Y-92863080D01*
X207544284Y-92828723D01*
X207572370Y-92825500D01*
X210524234Y-92825500D01*
X217022290Y-92825500D01*
X217089329Y-92845185D01*
X217135084Y-92897989D01*
X217139331Y-92908544D01*
X217142211Y-92916776D01*
X217142212Y-92916777D01*
X217208690Y-93022575D01*
X217229192Y-93055204D01*
X217344796Y-93170808D01*
X217483225Y-93257789D01*
X217637539Y-93311786D01*
X217637542Y-93311786D01*
X217637544Y-93311787D01*
X217799996Y-93330091D01*
X217800000Y-93330091D01*
X217800004Y-93330091D01*
X217962455Y-93311787D01*
X217962456Y-93311786D01*
X217962461Y-93311786D01*
X218116775Y-93257789D01*
X218255204Y-93170808D01*
X218290055Y-93135957D01*
X218351377Y-93102471D01*
X218418690Y-93106595D01*
X218436498Y-93112827D01*
X218436501Y-93112827D01*
X218436503Y-93112828D01*
X218598955Y-93131132D01*
X218598959Y-93131132D01*
X218598963Y-93131132D01*
X218761414Y-93112828D01*
X218761415Y-93112827D01*
X218761420Y-93112827D01*
X218915734Y-93058830D01*
X218975858Y-93021050D01*
X219043092Y-93002051D01*
X219109927Y-93022418D01*
X219129510Y-93038364D01*
X220194511Y-94103365D01*
X220301661Y-94210515D01*
X220432891Y-94286281D01*
X220579260Y-94325500D01*
X220579262Y-94325500D01*
X227485764Y-94325500D01*
X227485766Y-94325500D01*
X227632135Y-94286281D01*
X227763365Y-94210515D01*
X228530533Y-93443345D01*
X228591854Y-93409862D01*
X228640992Y-93409139D01*
X228808757Y-93440500D01*
X228808760Y-93440500D01*
X229031241Y-93440500D01*
X229031243Y-93440500D01*
X229249940Y-93399618D01*
X229457401Y-93319247D01*
X229646562Y-93202124D01*
X229810981Y-93052236D01*
X229945058Y-92874689D01*
X230044229Y-92675528D01*
X230070734Y-92582371D01*
X230108013Y-92523278D01*
X230171323Y-92493721D01*
X230240562Y-92503083D01*
X230293749Y-92548393D01*
X230309266Y-92582372D01*
X230335769Y-92675523D01*
X230335775Y-92675538D01*
X230434938Y-92874683D01*
X230434943Y-92874691D01*
X230569020Y-93052238D01*
X230733437Y-93202123D01*
X230733439Y-93202125D01*
X230922595Y-93319245D01*
X230922596Y-93319245D01*
X230922599Y-93319247D01*
X231130060Y-93399618D01*
X231348757Y-93440500D01*
X231348759Y-93440500D01*
X231571241Y-93440500D01*
X231571243Y-93440500D01*
X231789940Y-93399618D01*
X231997401Y-93319247D01*
X232186562Y-93202124D01*
X232350981Y-93052236D01*
X232485058Y-92874689D01*
X232584229Y-92675528D01*
X232610734Y-92582371D01*
X232648013Y-92523278D01*
X232711323Y-92493721D01*
X232780562Y-92503083D01*
X232833749Y-92548393D01*
X232849266Y-92582372D01*
X232875769Y-92675523D01*
X232875775Y-92675538D01*
X232974938Y-92874683D01*
X232974943Y-92874691D01*
X233109020Y-93052238D01*
X233273437Y-93202123D01*
X233273439Y-93202125D01*
X233462595Y-93319245D01*
X233462596Y-93319245D01*
X233462599Y-93319247D01*
X233670060Y-93399618D01*
X233888757Y-93440500D01*
X233888759Y-93440500D01*
X234111241Y-93440500D01*
X234111243Y-93440500D01*
X234329940Y-93399618D01*
X234537401Y-93319247D01*
X234726562Y-93202124D01*
X234890981Y-93052236D01*
X235025058Y-92874689D01*
X235124229Y-92675528D01*
X235185115Y-92461536D01*
X235205643Y-92240000D01*
X235185115Y-92018464D01*
X235124229Y-91804472D01*
X235123194Y-91802393D01*
X235025061Y-91605316D01*
X235025056Y-91605308D01*
X234890979Y-91427761D01*
X234726562Y-91277876D01*
X234726560Y-91277874D01*
X234537404Y-91160754D01*
X234537398Y-91160752D01*
X234537388Y-91160748D01*
X234329940Y-91080382D01*
X234111243Y-91039500D01*
X233888757Y-91039500D01*
X233670060Y-91080382D01*
X233576122Y-91116774D01*
X233462601Y-91160752D01*
X233462595Y-91160754D01*
X233273439Y-91277874D01*
X233273437Y-91277876D01*
X233109020Y-91427761D01*
X232974943Y-91605308D01*
X232974938Y-91605316D01*
X232875775Y-91804461D01*
X232875769Y-91804476D01*
X232849266Y-91897627D01*
X232811987Y-91956721D01*
X232748677Y-91986278D01*
X232679438Y-91976916D01*
X232626251Y-91931606D01*
X232610734Y-91897627D01*
X232584230Y-91804476D01*
X232584229Y-91804472D01*
X232583194Y-91802393D01*
X232485061Y-91605316D01*
X232485056Y-91605308D01*
X232350979Y-91427761D01*
X232186562Y-91277876D01*
X232186560Y-91277874D01*
X231997404Y-91160754D01*
X231997398Y-91160752D01*
X231997388Y-91160748D01*
X231789940Y-91080382D01*
X231571243Y-91039500D01*
X231348757Y-91039500D01*
X231130060Y-91080382D01*
X231036122Y-91116774D01*
X230922601Y-91160752D01*
X230922595Y-91160754D01*
X230733439Y-91277874D01*
X230733437Y-91277876D01*
X230569020Y-91427761D01*
X230434943Y-91605308D01*
X230434938Y-91605316D01*
X230335775Y-91804461D01*
X230335769Y-91804476D01*
X230309266Y-91897627D01*
X230271987Y-91956721D01*
X230208677Y-91986278D01*
X230139438Y-91976916D01*
X230086251Y-91931606D01*
X230070734Y-91897627D01*
X230044230Y-91804476D01*
X230044229Y-91804472D01*
X230043194Y-91802393D01*
X229945061Y-91605316D01*
X229945056Y-91605308D01*
X229810979Y-91427761D01*
X229646562Y-91277876D01*
X229646560Y-91277874D01*
X229457404Y-91160754D01*
X229457398Y-91160752D01*
X229457388Y-91160748D01*
X229249940Y-91080382D01*
X229031243Y-91039500D01*
X228808757Y-91039500D01*
X228590060Y-91080382D01*
X228496122Y-91116774D01*
X228382601Y-91160752D01*
X228382595Y-91160754D01*
X228193439Y-91277874D01*
X228193437Y-91277876D01*
X228029020Y-91427761D01*
X227894943Y-91605308D01*
X227894938Y-91605316D01*
X227795775Y-91804461D01*
X227795769Y-91804476D01*
X227769266Y-91897627D01*
X227731987Y-91956721D01*
X227668677Y-91986278D01*
X227599438Y-91976916D01*
X227546251Y-91931606D01*
X227530734Y-91897627D01*
X227504230Y-91804476D01*
X227504229Y-91804472D01*
X227503194Y-91802393D01*
X227405061Y-91605316D01*
X227405056Y-91605308D01*
X227270979Y-91427761D01*
X227106562Y-91277876D01*
X227106560Y-91277874D01*
X226917404Y-91160754D01*
X226917398Y-91160752D01*
X226917388Y-91160748D01*
X226709940Y-91080382D01*
X226491243Y-91039500D01*
X226268757Y-91039500D01*
X226100998Y-91070860D01*
X226031483Y-91063829D01*
X225990532Y-91036652D01*
X224293367Y-89339487D01*
X224293365Y-89339485D01*
X224227750Y-89301602D01*
X224162136Y-89263719D01*
X224088950Y-89244109D01*
X224015766Y-89224500D01*
X224015765Y-89224500D01*
X202247541Y-89224500D01*
X202180502Y-89204815D01*
X202134747Y-89152011D01*
X202124183Y-89087896D01*
X202125500Y-89075009D01*
X202125499Y-88202240D01*
X202145183Y-88135202D01*
X202161813Y-88114565D01*
X210864560Y-79411819D01*
X210925883Y-79378334D01*
X210952241Y-79375500D01*
X219516539Y-79375500D01*
X219582510Y-79394505D01*
X219683225Y-79457789D01*
X219837539Y-79511786D01*
X219837542Y-79511786D01*
X219837544Y-79511787D01*
X219999996Y-79530091D01*
X220000000Y-79530091D01*
X220000004Y-79530091D01*
X220162455Y-79511787D01*
X220162456Y-79511786D01*
X220162461Y-79511786D01*
X220316775Y-79457789D01*
X220455204Y-79370808D01*
X220570808Y-79255204D01*
X220657789Y-79116775D01*
X220711786Y-78962461D01*
X220714000Y-78942812D01*
X220720445Y-78885616D01*
X220747511Y-78821203D01*
X220805106Y-78781647D01*
X220843665Y-78775500D01*
X227795764Y-78775500D01*
X227795766Y-78775500D01*
X227942135Y-78736281D01*
X228073365Y-78660515D01*
X228530533Y-78203344D01*
X228591853Y-78169862D01*
X228640992Y-78169139D01*
X228808757Y-78200500D01*
X228808759Y-78200500D01*
X229031241Y-78200500D01*
X229031243Y-78200500D01*
X229249940Y-78159618D01*
X229457401Y-78079247D01*
X229646562Y-77962124D01*
X229810981Y-77812236D01*
X229945058Y-77634689D01*
X230044229Y-77435528D01*
X230070734Y-77342371D01*
X230108013Y-77283278D01*
X230171323Y-77253721D01*
X230240562Y-77263083D01*
X230293749Y-77308393D01*
X230309266Y-77342372D01*
X230335769Y-77435523D01*
X230335775Y-77435538D01*
X230434938Y-77634683D01*
X230434943Y-77634691D01*
X230569020Y-77812238D01*
X230733437Y-77962123D01*
X230733439Y-77962125D01*
X230922595Y-78079245D01*
X230922596Y-78079245D01*
X230922599Y-78079247D01*
X231130060Y-78159618D01*
X231348757Y-78200500D01*
X231348759Y-78200500D01*
X231571241Y-78200500D01*
X231571243Y-78200500D01*
X231789940Y-78159618D01*
X231997401Y-78079247D01*
X232186562Y-77962124D01*
X232350981Y-77812236D01*
X232485058Y-77634689D01*
X232584229Y-77435528D01*
X232610734Y-77342371D01*
X232648013Y-77283278D01*
X232711323Y-77253721D01*
X232780562Y-77263083D01*
X232833749Y-77308393D01*
X232849266Y-77342372D01*
X232875769Y-77435523D01*
X232875775Y-77435538D01*
X232974938Y-77634683D01*
X232974943Y-77634691D01*
X233109020Y-77812238D01*
X233273437Y-77962123D01*
X233273439Y-77962125D01*
X233462595Y-78079245D01*
X233462596Y-78079245D01*
X233462599Y-78079247D01*
X233670060Y-78159618D01*
X233888757Y-78200500D01*
X233888759Y-78200500D01*
X234111241Y-78200500D01*
X234111243Y-78200500D01*
X234329940Y-78159618D01*
X234537401Y-78079247D01*
X234726562Y-77962124D01*
X234890981Y-77812236D01*
X235025058Y-77634689D01*
X235124229Y-77435528D01*
X235185115Y-77221536D01*
X235205643Y-77000000D01*
X235185115Y-76778464D01*
X235124229Y-76564472D01*
X235113206Y-76542335D01*
X235025061Y-76365316D01*
X235025056Y-76365308D01*
X234890979Y-76187761D01*
X234726562Y-76037876D01*
X234726560Y-76037874D01*
X234537404Y-75920754D01*
X234537398Y-75920752D01*
X234329940Y-75840382D01*
X234111243Y-75799500D01*
X233888757Y-75799500D01*
X233670060Y-75840382D01*
X233538864Y-75891207D01*
X233462601Y-75920752D01*
X233462595Y-75920754D01*
X233273439Y-76037874D01*
X233273437Y-76037876D01*
X233109020Y-76187761D01*
X232974943Y-76365308D01*
X232974938Y-76365316D01*
X232875775Y-76564461D01*
X232875769Y-76564476D01*
X232849266Y-76657627D01*
X232811987Y-76716721D01*
X232748677Y-76746278D01*
X232679438Y-76736916D01*
X232626251Y-76691606D01*
X232610734Y-76657627D01*
X232584230Y-76564476D01*
X232584229Y-76564472D01*
X232573206Y-76542335D01*
X232485061Y-76365316D01*
X232485056Y-76365308D01*
X232350979Y-76187761D01*
X232186562Y-76037876D01*
X232186560Y-76037874D01*
X231997404Y-75920754D01*
X231997398Y-75920752D01*
X231789940Y-75840382D01*
X231571243Y-75799500D01*
X231348757Y-75799500D01*
X231180998Y-75830860D01*
X231111483Y-75823829D01*
X231070532Y-75796652D01*
X230413367Y-75139487D01*
X230413365Y-75139485D01*
X230344201Y-75099553D01*
X230282136Y-75063719D01*
X230198558Y-75041325D01*
X230135766Y-75024500D01*
X217675767Y-75024500D01*
X217524234Y-75024500D01*
X217377863Y-75063719D01*
X217246635Y-75139485D01*
X217246632Y-75139487D01*
X215197939Y-77188181D01*
X215136616Y-77221666D01*
X215110258Y-77224500D01*
X204986733Y-77224500D01*
X204852328Y-77260512D01*
X204852329Y-77260513D01*
X204840364Y-77263719D01*
X204709135Y-77339485D01*
X204709132Y-77339487D01*
X204601983Y-77446637D01*
X201646175Y-80402443D01*
X201584852Y-80435928D01*
X201532546Y-80436017D01*
X201527799Y-80435001D01*
X201425010Y-80424500D01*
X200699998Y-80424500D01*
X200699980Y-80424501D01*
X200597203Y-80435000D01*
X200597200Y-80435001D01*
X200430668Y-80490185D01*
X200430663Y-80490187D01*
X200281342Y-80582289D01*
X200157289Y-80706342D01*
X200065187Y-80855663D01*
X200065185Y-80855668D01*
X200047954Y-80907669D01*
X200010001Y-81022203D01*
X200010001Y-81022204D01*
X200010000Y-81022204D01*
X199999500Y-81124983D01*
X199999500Y-82475001D01*
X199999501Y-82475018D01*
X200010000Y-82577796D01*
X200010001Y-82577799D01*
X200065185Y-82744331D01*
X200065187Y-82744336D01*
X200081515Y-82770808D01*
X200157288Y-82893656D01*
X200281344Y-83017712D01*
X200430666Y-83109814D01*
X200597203Y-83164999D01*
X200699991Y-83175500D01*
X201425008Y-83175499D01*
X201425016Y-83175498D01*
X201425019Y-83175498D01*
X201511096Y-83166705D01*
X201527797Y-83164999D01*
X201694334Y-83109814D01*
X201843656Y-83017712D01*
X201967712Y-82893656D01*
X202059814Y-82744334D01*
X202114999Y-82577797D01*
X202125500Y-82475009D01*
X202125499Y-81602240D01*
X202145183Y-81535202D01*
X202161813Y-81514565D01*
X205264560Y-78411819D01*
X205325883Y-78378334D01*
X205352241Y-78375500D01*
X206773758Y-78375500D01*
X206840797Y-78395185D01*
X206886552Y-78447989D01*
X206896496Y-78517147D01*
X206867471Y-78580703D01*
X206861439Y-78587181D01*
X201646175Y-83802443D01*
X201584852Y-83835928D01*
X201532546Y-83836017D01*
X201527799Y-83835001D01*
X201425010Y-83824500D01*
X200699998Y-83824500D01*
X200699980Y-83824501D01*
X200597203Y-83835000D01*
X200597200Y-83835001D01*
X200430668Y-83890185D01*
X200430663Y-83890187D01*
X200281342Y-83982289D01*
X200157289Y-84106342D01*
X200065187Y-84255663D01*
X200065185Y-84255668D01*
X200042481Y-84324184D01*
X200010001Y-84422203D01*
X200010001Y-84422204D01*
X200010000Y-84422204D01*
X199999500Y-84524983D01*
X199999500Y-85875001D01*
X199999501Y-85875018D01*
X200010000Y-85977796D01*
X200010001Y-85977799D01*
X200065185Y-86144331D01*
X200065187Y-86144336D01*
X200081515Y-86170808D01*
X200157288Y-86293656D01*
X200281344Y-86417712D01*
X200430666Y-86509814D01*
X200597203Y-86564999D01*
X200699991Y-86575500D01*
X201425008Y-86575499D01*
X201425016Y-86575498D01*
X201425019Y-86575498D01*
X201481302Y-86569748D01*
X201527797Y-86564999D01*
X201694334Y-86509814D01*
X201843656Y-86417712D01*
X201967712Y-86293656D01*
X202059814Y-86144334D01*
X202114999Y-85977797D01*
X202125500Y-85875009D01*
X202125499Y-85002240D01*
X202145183Y-84935202D01*
X202161813Y-84914565D01*
X208264561Y-78811819D01*
X208325884Y-78778334D01*
X208352242Y-78775500D01*
X209573759Y-78775500D01*
X209640798Y-78795185D01*
X209686553Y-78847989D01*
X209696497Y-78917147D01*
X209667472Y-78980703D01*
X209661440Y-78987181D01*
X201646175Y-87002443D01*
X201584852Y-87035928D01*
X201532546Y-87036017D01*
X201527799Y-87035001D01*
X201425010Y-87024500D01*
X200699998Y-87024500D01*
X200699980Y-87024501D01*
X200597203Y-87035000D01*
X200597200Y-87035001D01*
X200430668Y-87090185D01*
X200430663Y-87090187D01*
X200281342Y-87182289D01*
X200157289Y-87306342D01*
X200065187Y-87455663D01*
X200065185Y-87455668D01*
X200037349Y-87539670D01*
X200010001Y-87622203D01*
X200010001Y-87622204D01*
X200010000Y-87622204D01*
X199999500Y-87724983D01*
X199999500Y-89075001D01*
X199999501Y-89075008D01*
X200000817Y-89087894D01*
X200000818Y-89087896D01*
X199988050Y-89156589D01*
X199940170Y-89207474D01*
X199877460Y-89224500D01*
X199322541Y-89224500D01*
X199255502Y-89204815D01*
X199209747Y-89152011D01*
X199199183Y-89087896D01*
X199200500Y-89075009D01*
X199200499Y-87724992D01*
X199189999Y-87622203D01*
X199134814Y-87455666D01*
X199042712Y-87306344D01*
X198918656Y-87182288D01*
X198804644Y-87111965D01*
X198769336Y-87090187D01*
X198769331Y-87090185D01*
X198722208Y-87074570D01*
X198602797Y-87035001D01*
X198602795Y-87035000D01*
X198500010Y-87024500D01*
X197774998Y-87024500D01*
X197774980Y-87024501D01*
X197672199Y-87035001D01*
X197667459Y-87036016D01*
X197597784Y-87030800D01*
X197553824Y-87002444D01*
X196411819Y-85860439D01*
X196378334Y-85799116D01*
X196375500Y-85772758D01*
X196375500Y-84551242D01*
X196395185Y-84484203D01*
X196447989Y-84438448D01*
X196517147Y-84428504D01*
X196580703Y-84457529D01*
X196587181Y-84463561D01*
X197038181Y-84914561D01*
X197071666Y-84975884D01*
X197074500Y-85002242D01*
X197074500Y-85875001D01*
X197074501Y-85875019D01*
X197085000Y-85977796D01*
X197085001Y-85977799D01*
X197140185Y-86144331D01*
X197140187Y-86144336D01*
X197156515Y-86170808D01*
X197232288Y-86293656D01*
X197356344Y-86417712D01*
X197505666Y-86509814D01*
X197672203Y-86564999D01*
X197774991Y-86575500D01*
X198500008Y-86575499D01*
X198500016Y-86575498D01*
X198500019Y-86575498D01*
X198556302Y-86569748D01*
X198602797Y-86564999D01*
X198769334Y-86509814D01*
X198918656Y-86417712D01*
X199042712Y-86293656D01*
X199134814Y-86144334D01*
X199189999Y-85977797D01*
X199200500Y-85875009D01*
X199200499Y-84524992D01*
X199196232Y-84483225D01*
X199189999Y-84422203D01*
X199189998Y-84422200D01*
X199157623Y-84324500D01*
X199134814Y-84255666D01*
X199042712Y-84106344D01*
X198918656Y-83982288D01*
X198769334Y-83890186D01*
X198602797Y-83835001D01*
X198602795Y-83835000D01*
X198500010Y-83824500D01*
X197774998Y-83824500D01*
X197774980Y-83824501D01*
X197672199Y-83835001D01*
X197667459Y-83836016D01*
X197597784Y-83830800D01*
X197553824Y-83802444D01*
X196761819Y-83010439D01*
X196728334Y-82949116D01*
X196725500Y-82922758D01*
X196725500Y-81438742D01*
X196745185Y-81371703D01*
X196797989Y-81325948D01*
X196867147Y-81316004D01*
X196930703Y-81345029D01*
X196937181Y-81351061D01*
X197038181Y-81452061D01*
X197071666Y-81513384D01*
X197074500Y-81539742D01*
X197074500Y-82475001D01*
X197074501Y-82475019D01*
X197085000Y-82577796D01*
X197085001Y-82577799D01*
X197140185Y-82744331D01*
X197140187Y-82744336D01*
X197156515Y-82770808D01*
X197232288Y-82893656D01*
X197356344Y-83017712D01*
X197505666Y-83109814D01*
X197672203Y-83164999D01*
X197774991Y-83175500D01*
X198500008Y-83175499D01*
X198500016Y-83175498D01*
X198500019Y-83175498D01*
X198586096Y-83166705D01*
X198602797Y-83164999D01*
X198769334Y-83109814D01*
X198918656Y-83017712D01*
X199042712Y-82893656D01*
X199134814Y-82744334D01*
X199189999Y-82577797D01*
X199200500Y-82475009D01*
X199200499Y-81124992D01*
X199198163Y-81102128D01*
X199189999Y-81022203D01*
X199189998Y-81022200D01*
X199178532Y-80987599D01*
X199134814Y-80855666D01*
X199042712Y-80706344D01*
X198918656Y-80582288D01*
X198785341Y-80500059D01*
X198769336Y-80490187D01*
X198769331Y-80490185D01*
X198767862Y-80489698D01*
X198602797Y-80435001D01*
X198602795Y-80435000D01*
X198500010Y-80424500D01*
X197774998Y-80424500D01*
X197774977Y-80424502D01*
X197709658Y-80431174D01*
X197640965Y-80418404D01*
X197609377Y-80395497D01*
X197111819Y-79897939D01*
X197078334Y-79836616D01*
X197075500Y-79810258D01*
X197075500Y-76434286D01*
X197075500Y-76434284D01*
X197036281Y-76287915D01*
X196960515Y-76156685D01*
X196853365Y-76049535D01*
X195243315Y-74439485D01*
X195177700Y-74401602D01*
X195112086Y-74363719D01*
X195038900Y-74344109D01*
X194965716Y-74324500D01*
X194965715Y-74324500D01*
X194429460Y-74324500D01*
X194362421Y-74304815D01*
X194316666Y-74252011D01*
X194306743Y-74206399D01*
X194306139Y-74206463D01*
X194305561Y-74200964D01*
X194305460Y-74200500D01*
X194305460Y-74200002D01*
X194302742Y-74174142D01*
X194285674Y-74011744D01*
X194227179Y-73831716D01*
X194132533Y-73667784D01*
X194005871Y-73527112D01*
X194005870Y-73527111D01*
X193852734Y-73415851D01*
X193852729Y-73415848D01*
X193679807Y-73338857D01*
X193679802Y-73338855D01*
X193494639Y-73299498D01*
X193493776Y-73299408D01*
X193493310Y-73299216D01*
X193488289Y-73298149D01*
X193488484Y-73297230D01*
X193429165Y-73272817D01*
X193419071Y-73263770D01*
X189130609Y-68975307D01*
X189130605Y-68975304D01*
X189019975Y-68901383D01*
X189019965Y-68901378D01*
X188897036Y-68850459D01*
X188897028Y-68850457D01*
X188766535Y-68824500D01*
X188766531Y-68824500D01*
X179391519Y-68824500D01*
X179324480Y-68804815D01*
X179303838Y-68788181D01*
X179278338Y-68762681D01*
X179244853Y-68701358D01*
X179249837Y-68631666D01*
X179278336Y-68587320D01*
X179380472Y-68485185D01*
X179380474Y-68485180D01*
X179385094Y-68479285D01*
X179386117Y-68480087D01*
X179431904Y-68438160D01*
X179486489Y-68425500D01*
X182550763Y-68425500D01*
X182550766Y-68425500D01*
X182672660Y-68392838D01*
X182690868Y-68389394D01*
X182824955Y-68374287D01*
X182824957Y-68374286D01*
X182824961Y-68374286D01*
X182824964Y-68374284D01*
X182824968Y-68374284D01*
X182979272Y-68320290D01*
X182979271Y-68320290D01*
X182979275Y-68320289D01*
X183117704Y-68233308D01*
X183233308Y-68117704D01*
X183320289Y-67979275D01*
X183374286Y-67824961D01*
X183374287Y-67824955D01*
X183392591Y-67662503D01*
X183392591Y-67662496D01*
X183374287Y-67500044D01*
X183374286Y-67500042D01*
X183374286Y-67500039D01*
X183320289Y-67345725D01*
X183233308Y-67207296D01*
X183117704Y-67091692D01*
X183071183Y-67062461D01*
X182979274Y-67004710D01*
X182824955Y-66950712D01*
X182662504Y-66932409D01*
X182662496Y-66932409D01*
X182500044Y-66950712D01*
X182345725Y-67004710D01*
X182207295Y-67091692D01*
X182091692Y-67207295D01*
X182091692Y-67207296D01*
X182085928Y-67216470D01*
X182033594Y-67262762D01*
X181980933Y-67274500D01*
X181127361Y-67274500D01*
X181060322Y-67254815D01*
X181014567Y-67202011D01*
X181004623Y-67132853D01*
X181010319Y-67109546D01*
X181036970Y-67033380D01*
X181061786Y-66962461D01*
X181061787Y-66962455D01*
X181080091Y-66800003D01*
X181080091Y-66799996D01*
X181061787Y-66637544D01*
X181061786Y-66637542D01*
X181061786Y-66637539D01*
X181007789Y-66483225D01*
X180983642Y-66444796D01*
X180965217Y-66415472D01*
X180946216Y-66348235D01*
X180966583Y-66281400D01*
X181019851Y-66236185D01*
X181070206Y-66225499D01*
X181647872Y-66225499D01*
X181707483Y-66219091D01*
X181756665Y-66200746D01*
X181826355Y-66195761D01*
X181843333Y-66200747D01*
X181892508Y-66219088D01*
X181892511Y-66219088D01*
X181892517Y-66219091D01*
X181952127Y-66225500D01*
X182747872Y-66225499D01*
X182807483Y-66219091D01*
X182856665Y-66200746D01*
X182926355Y-66195761D01*
X182943333Y-66200747D01*
X182992508Y-66219088D01*
X182992511Y-66219088D01*
X182992517Y-66219091D01*
X183052127Y-66225500D01*
X183847872Y-66225499D01*
X183907483Y-66219091D01*
X183956665Y-66200746D01*
X184026355Y-66195761D01*
X184043333Y-66200747D01*
X184092508Y-66219088D01*
X184092511Y-66219088D01*
X184092517Y-66219091D01*
X184152127Y-66225500D01*
X184947872Y-66225499D01*
X185007483Y-66219091D01*
X185056665Y-66200746D01*
X185126355Y-66195761D01*
X185143333Y-66200747D01*
X185192508Y-66219088D01*
X185192511Y-66219088D01*
X185192517Y-66219091D01*
X185252127Y-66225500D01*
X186047872Y-66225499D01*
X186107483Y-66219091D01*
X186156665Y-66200746D01*
X186226355Y-66195761D01*
X186243333Y-66200747D01*
X186292508Y-66219088D01*
X186292511Y-66219088D01*
X186292517Y-66219091D01*
X186352127Y-66225500D01*
X187147872Y-66225499D01*
X187207483Y-66219091D01*
X187342331Y-66168796D01*
X187457546Y-66082546D01*
X187543796Y-65967331D01*
X187594091Y-65832483D01*
X187600500Y-65772873D01*
X187600500Y-65299000D01*
X187620185Y-65231961D01*
X187672989Y-65186206D01*
X187724500Y-65175000D01*
X188597828Y-65175000D01*
X188597844Y-65174999D01*
X188657372Y-65168598D01*
X188657379Y-65168596D01*
X188790421Y-65118974D01*
X187684128Y-64012681D01*
X187650643Y-63951358D01*
X187652528Y-63924999D01*
X188303553Y-63924999D01*
X188303553Y-63925000D01*
X189049999Y-64671447D01*
X189050000Y-64671446D01*
X189050000Y-63178553D01*
X189049999Y-63178552D01*
X188303553Y-63924999D01*
X187652528Y-63924999D01*
X187655627Y-63881666D01*
X187684128Y-63837319D01*
X187950000Y-63571447D01*
X188790421Y-62731024D01*
X188790420Y-62731023D01*
X188657380Y-62681403D01*
X188657372Y-62681401D01*
X188597844Y-62675000D01*
X187785271Y-62675000D01*
X187718232Y-62655315D01*
X187672477Y-62602511D01*
X187662051Y-62564886D01*
X187661787Y-62562545D01*
X187661786Y-62562541D01*
X187661786Y-62562539D01*
X187607789Y-62408225D01*
X187520808Y-62269796D01*
X187405204Y-62154192D01*
X187382713Y-62140060D01*
X187266774Y-62067210D01*
X187112455Y-62013212D01*
X186950004Y-61994909D01*
X186949996Y-61994909D01*
X186787544Y-62013212D01*
X186633225Y-62067210D01*
X186494795Y-62154192D01*
X186379192Y-62269795D01*
X186379190Y-62269798D01*
X186357895Y-62303689D01*
X186305560Y-62349980D01*
X186236507Y-62360627D01*
X186186929Y-62342709D01*
X186066776Y-62267211D01*
X185912455Y-62213212D01*
X185750004Y-62194909D01*
X185749996Y-62194909D01*
X185587544Y-62213212D01*
X185433225Y-62267210D01*
X185294795Y-62354192D01*
X185237681Y-62411307D01*
X185176358Y-62444792D01*
X185106666Y-62439808D01*
X185062319Y-62411307D01*
X185005204Y-62354192D01*
X184866774Y-62267210D01*
X184712455Y-62213212D01*
X184550004Y-62194909D01*
X184549996Y-62194909D01*
X184387544Y-62213212D01*
X184233223Y-62267211D01*
X184195595Y-62290854D01*
X184128358Y-62309853D01*
X184061523Y-62289484D01*
X184016310Y-62236216D01*
X184012583Y-62226813D01*
X184001419Y-62194909D01*
X183982227Y-62140060D01*
X183895246Y-62001631D01*
X183779642Y-61886027D01*
X183746972Y-61865499D01*
X183641212Y-61799045D01*
X183486893Y-61745047D01*
X183324442Y-61726744D01*
X183324434Y-61726744D01*
X183161982Y-61745047D01*
X183007663Y-61799045D01*
X182869230Y-61886029D01*
X182837828Y-61917431D01*
X182776504Y-61950916D01*
X182709194Y-61946791D01*
X182612038Y-61912795D01*
X182449587Y-61894492D01*
X182449579Y-61894492D01*
X182287127Y-61912795D01*
X182132805Y-61966794D01*
X182068323Y-62007311D01*
X182001086Y-62026311D01*
X181934251Y-62005943D01*
X181894964Y-61964316D01*
X181882532Y-61942783D01*
X181855533Y-61912797D01*
X181755871Y-61802112D01*
X181752708Y-61799814D01*
X181602734Y-61690851D01*
X181602729Y-61690848D01*
X181429807Y-61613857D01*
X181429802Y-61613855D01*
X181284001Y-61582865D01*
X181244646Y-61574500D01*
X181055354Y-61574500D01*
X180930680Y-61600999D01*
X180861014Y-61595683D01*
X180805281Y-61553545D01*
X180799907Y-61545681D01*
X180720807Y-61419795D01*
X180605204Y-61304192D01*
X180466774Y-61217210D01*
X180324155Y-61167306D01*
X180312461Y-61163214D01*
X180312460Y-61163213D01*
X180312455Y-61163212D01*
X180150004Y-61144909D01*
X180149996Y-61144909D01*
X179987544Y-61163212D01*
X179833220Y-61217212D01*
X179825678Y-61221951D01*
X179758440Y-61240947D01*
X179691606Y-61220576D01*
X179646395Y-61167306D01*
X179642670Y-61157909D01*
X179638121Y-61144909D01*
X179607789Y-61058225D01*
X179520808Y-60919796D01*
X179405204Y-60804192D01*
X179266774Y-60717210D01*
X179112455Y-60663212D01*
X178950004Y-60644909D01*
X178949996Y-60644909D01*
X178787543Y-60663212D01*
X178723215Y-60685721D01*
X178653436Y-60689282D01*
X178592809Y-60654552D01*
X178577269Y-60634651D01*
X178520812Y-60544801D01*
X178520807Y-60544795D01*
X178405204Y-60429192D01*
X178266774Y-60342210D01*
X178112455Y-60288212D01*
X177950004Y-60269909D01*
X177949996Y-60269909D01*
X177787544Y-60288212D01*
X177633225Y-60342210D01*
X177494795Y-60429192D01*
X177379192Y-60544795D01*
X177292210Y-60683225D01*
X177238212Y-60837544D01*
X177219909Y-60999996D01*
X177219909Y-61000003D01*
X177238212Y-61162457D01*
X177292210Y-61316774D01*
X177292213Y-61316779D01*
X177355493Y-61417487D01*
X177374500Y-61483460D01*
X177374500Y-63606534D01*
X177354815Y-63673573D01*
X177324812Y-63705800D01*
X177242452Y-63767455D01*
X177156206Y-63882664D01*
X177156202Y-63882671D01*
X177105908Y-64017517D01*
X177099501Y-64077116D01*
X177099500Y-64077135D01*
X177099500Y-65772870D01*
X177099501Y-65772876D01*
X177105908Y-65832483D01*
X177156202Y-65967328D01*
X177156206Y-65967335D01*
X177242452Y-66082544D01*
X177242455Y-66082547D01*
X177357664Y-66168793D01*
X177357671Y-66168797D01*
X177492509Y-66219088D01*
X177492517Y-66219091D01*
X177492519Y-66219091D01*
X177498164Y-66220425D01*
X177558882Y-66254996D01*
X177591270Y-66316906D01*
X177585046Y-66386497D01*
X177557338Y-66428782D01*
X177539485Y-66446635D01*
X177539483Y-66446637D01*
X177079111Y-66907008D01*
X177017788Y-66940493D01*
X176948096Y-66935509D01*
X176892163Y-66893637D01*
X176867746Y-66828173D01*
X176868210Y-66805443D01*
X176868824Y-66800000D01*
X176880091Y-66700000D01*
X176873053Y-66637539D01*
X176861787Y-66537544D01*
X176861786Y-66537542D01*
X176861786Y-66537539D01*
X176807789Y-66383225D01*
X176720808Y-66244796D01*
X176605204Y-66129192D01*
X176530968Y-66082546D01*
X176466774Y-66042210D01*
X176312455Y-65988212D01*
X176150004Y-65969909D01*
X176149996Y-65969909D01*
X175987544Y-65988212D01*
X175833225Y-66042210D01*
X175694795Y-66129192D01*
X175579192Y-66244795D01*
X175492210Y-66383225D01*
X175438212Y-66537544D01*
X175419909Y-66699996D01*
X175419909Y-66700002D01*
X175432485Y-66811616D01*
X175420431Y-66880438D01*
X175373082Y-66931818D01*
X175309265Y-66949500D01*
X175018384Y-66949500D01*
X174999145Y-66951248D01*
X174947807Y-66955913D01*
X174785393Y-67006522D01*
X174639811Y-67094530D01*
X174519530Y-67214811D01*
X174431522Y-67360393D01*
X174380913Y-67522807D01*
X174379150Y-67542210D01*
X174374500Y-67593384D01*
X174374500Y-68106616D01*
X174376423Y-68127778D01*
X174380913Y-68177192D01*
X174380913Y-68177194D01*
X174380914Y-68177196D01*
X174411629Y-68275765D01*
X174431522Y-68339606D01*
X174491273Y-68438446D01*
X174509109Y-68506001D01*
X174487591Y-68572475D01*
X174433551Y-68616762D01*
X174364145Y-68624803D01*
X174359376Y-68623886D01*
X174244646Y-68599500D01*
X174055354Y-68599500D01*
X174055352Y-68599500D01*
X173940623Y-68623886D01*
X173870956Y-68618570D01*
X173815223Y-68576432D01*
X173791118Y-68510852D01*
X173806295Y-68442651D01*
X173808707Y-68438478D01*
X173868478Y-68339606D01*
X173919086Y-68177196D01*
X173925500Y-68106616D01*
X173925500Y-67593384D01*
X173919086Y-67522804D01*
X173868478Y-67360394D01*
X173780472Y-67214815D01*
X173780470Y-67214813D01*
X173780469Y-67214811D01*
X173660188Y-67094530D01*
X173655493Y-67091692D01*
X173515533Y-67007082D01*
X173468346Y-66955555D01*
X173456508Y-66886695D01*
X173460506Y-66869307D01*
X173460237Y-66869246D01*
X173461783Y-66862467D01*
X173461786Y-66862461D01*
X173467515Y-66811616D01*
X173480091Y-66700003D01*
X173480091Y-66699996D01*
X173461787Y-66537544D01*
X173461786Y-66537542D01*
X173461786Y-66537539D01*
X173407789Y-66383225D01*
X173320808Y-66244796D01*
X173205204Y-66129192D01*
X173130968Y-66082546D01*
X173066774Y-66042210D01*
X172912455Y-65988212D01*
X172750004Y-65969909D01*
X172749996Y-65969909D01*
X172587544Y-65988212D01*
X172433225Y-66042210D01*
X172294795Y-66129192D01*
X172179192Y-66244795D01*
X172092210Y-66383225D01*
X172038212Y-66537544D01*
X172019909Y-66699996D01*
X172019909Y-66700003D01*
X172038262Y-66862894D01*
X172026207Y-66931716D01*
X171978858Y-66983095D01*
X171911248Y-67000719D01*
X171878154Y-66995163D01*
X171761264Y-66958739D01*
X171703117Y-66920002D01*
X171675143Y-66855977D01*
X171674935Y-66854237D01*
X171661787Y-66737544D01*
X171661786Y-66737542D01*
X171661786Y-66737539D01*
X171607789Y-66583225D01*
X171520808Y-66444796D01*
X171405204Y-66329192D01*
X171296227Y-66260717D01*
X171266774Y-66242210D01*
X171112455Y-66188212D01*
X170950004Y-66169909D01*
X170949996Y-66169909D01*
X170787544Y-66188212D01*
X170633225Y-66242210D01*
X170494795Y-66329192D01*
X170437681Y-66386307D01*
X170376358Y-66419792D01*
X170306666Y-66414808D01*
X170262319Y-66386307D01*
X170205204Y-66329192D01*
X170066774Y-66242210D01*
X169912455Y-66188212D01*
X169750004Y-66169909D01*
X169749996Y-66169909D01*
X169587544Y-66188212D01*
X169433225Y-66242210D01*
X169294795Y-66329192D01*
X169179192Y-66444795D01*
X169092210Y-66583225D01*
X169038212Y-66737544D01*
X169019909Y-66899996D01*
X169019909Y-66900004D01*
X169034936Y-67033380D01*
X169022881Y-67102202D01*
X168999398Y-67134944D01*
X168919529Y-67214813D01*
X168831522Y-67360393D01*
X168780913Y-67522807D01*
X168779150Y-67542210D01*
X168774500Y-67593384D01*
X168774500Y-68106616D01*
X168776423Y-68127778D01*
X168780913Y-68177192D01*
X168780913Y-68177194D01*
X168780914Y-68177196D01*
X168831522Y-68339606D01*
X168919527Y-68485184D01*
X168919530Y-68485188D01*
X169021661Y-68587319D01*
X169055146Y-68648642D01*
X169050162Y-68718334D01*
X169021663Y-68762680D01*
X168996161Y-68788181D01*
X168934841Y-68821666D01*
X168908481Y-68824500D01*
X162399500Y-68824500D01*
X162332461Y-68804815D01*
X162286706Y-68752011D01*
X162275500Y-68700500D01*
X162275500Y-65170279D01*
X172458272Y-65170279D01*
X172502180Y-65174999D01*
X172502181Y-65175000D01*
X174197819Y-65175000D01*
X174197835Y-65174999D01*
X174241725Y-65170280D01*
X174241726Y-65170278D01*
X173350001Y-64278553D01*
X173350000Y-64278553D01*
X172458272Y-65170279D01*
X162275500Y-65170279D01*
X162275500Y-64731163D01*
X162295185Y-64664124D01*
X162311819Y-64643482D01*
X163828146Y-63127155D01*
X172050000Y-63127155D01*
X172050000Y-64722844D01*
X172056401Y-64782372D01*
X172056403Y-64782380D01*
X172078858Y-64842586D01*
X172078859Y-64842587D01*
X172996447Y-63925000D01*
X172996446Y-63924999D01*
X173703553Y-63924999D01*
X173703553Y-63925000D01*
X174621139Y-64842587D01*
X174643598Y-64782371D01*
X174649999Y-64722844D01*
X174650000Y-64722827D01*
X174650000Y-63127172D01*
X174649999Y-63127155D01*
X174643598Y-63067623D01*
X174621139Y-63007411D01*
X173703553Y-63924999D01*
X172996446Y-63924999D01*
X172078859Y-63007412D01*
X172078858Y-63007412D01*
X172056402Y-63067622D01*
X172056401Y-63067624D01*
X172050000Y-63127155D01*
X163828146Y-63127155D01*
X164275582Y-62679719D01*
X172458272Y-62679719D01*
X173350000Y-63571446D01*
X173350001Y-63571446D01*
X174241725Y-62679719D01*
X174197830Y-62675000D01*
X172502170Y-62675000D01*
X172458272Y-62679719D01*
X164275582Y-62679719D01*
X166324692Y-60630609D01*
X166324695Y-60630606D01*
X166398620Y-60519969D01*
X166449541Y-60397036D01*
X166475500Y-60266531D01*
X166475500Y-60133469D01*
X166475500Y-57803469D01*
X166475500Y-57803466D01*
X166449541Y-57672969D01*
X166449540Y-57672968D01*
X166449540Y-57672964D01*
X166398620Y-57550031D01*
X166355579Y-57485616D01*
X166324698Y-57439398D01*
X166324697Y-57439397D01*
X166324695Y-57439394D01*
X166230606Y-57345305D01*
X166123577Y-57238276D01*
X166090092Y-57176953D01*
X166087940Y-57163576D01*
X166079478Y-57083061D01*
X166021392Y-56904293D01*
X165938951Y-56761500D01*
X165922478Y-56693599D01*
X165945331Y-56627572D01*
X166000252Y-56584382D01*
X166046338Y-56575500D01*
X166875764Y-56575500D01*
X166875766Y-56575500D01*
X167022135Y-56536281D01*
X167022139Y-56536278D01*
X167029646Y-56533170D01*
X167030216Y-56534547D01*
X167066535Y-56522594D01*
X167162452Y-56511787D01*
X167162451Y-56511787D01*
X167162461Y-56511786D01*
X167316775Y-56457789D01*
X167455204Y-56370808D01*
X167570808Y-56255204D01*
X167657789Y-56116775D01*
X167711786Y-55962461D01*
X167716007Y-55924999D01*
X167730091Y-55800003D01*
X167730091Y-55799996D01*
X167718648Y-55698438D01*
X171430113Y-55698438D01*
X171492805Y-55782182D01*
X171492814Y-55782191D01*
X171607906Y-55868350D01*
X171607913Y-55868354D01*
X171742620Y-55918596D01*
X171742627Y-55918598D01*
X171802155Y-55924999D01*
X171802172Y-55925000D01*
X173097828Y-55925000D01*
X173097844Y-55924999D01*
X173157372Y-55918598D01*
X173157379Y-55918596D01*
X173292086Y-55868354D01*
X173292093Y-55868350D01*
X173407186Y-55782190D01*
X173469883Y-55698438D01*
X186930113Y-55698438D01*
X186992805Y-55782182D01*
X186992814Y-55782191D01*
X187107906Y-55868350D01*
X187107913Y-55868354D01*
X187242620Y-55918596D01*
X187242627Y-55918598D01*
X187302155Y-55924999D01*
X187302172Y-55925000D01*
X188597828Y-55925000D01*
X188597844Y-55924999D01*
X188657372Y-55918598D01*
X188657379Y-55918596D01*
X188792086Y-55868354D01*
X188792093Y-55868350D01*
X188907186Y-55782190D01*
X188969884Y-55698436D01*
X187950000Y-54678553D01*
X186930114Y-55698437D01*
X186930113Y-55698438D01*
X173469883Y-55698438D01*
X173469884Y-55698436D01*
X172450000Y-54678553D01*
X171430114Y-55698437D01*
X171430113Y-55698438D01*
X167718648Y-55698438D01*
X167711787Y-55637544D01*
X167711786Y-55637542D01*
X167711786Y-55637539D01*
X167657789Y-55483225D01*
X167570808Y-55344796D01*
X167455204Y-55229192D01*
X167321023Y-55144880D01*
X167316774Y-55142210D01*
X167162455Y-55088212D01*
X167013655Y-55071447D01*
X171350000Y-55071447D01*
X172096447Y-54325000D01*
X172096447Y-54324999D01*
X172803553Y-54324999D01*
X172803553Y-54325000D01*
X173549999Y-55071447D01*
X186850000Y-55071447D01*
X187596447Y-54325000D01*
X187596447Y-54324999D01*
X188303553Y-54324999D01*
X188303553Y-54325000D01*
X189049999Y-55071447D01*
X189050000Y-55071446D01*
X189050000Y-55021734D01*
X195574500Y-55021734D01*
X195574500Y-67532872D01*
X195613719Y-67679243D01*
X195650074Y-67742210D01*
X195689485Y-67810472D01*
X195689487Y-67810474D01*
X195692308Y-67813295D01*
X195693926Y-67816259D01*
X195694432Y-67816918D01*
X195694329Y-67816996D01*
X195725793Y-67874618D01*
X195721669Y-67941930D01*
X195688212Y-68037544D01*
X195669909Y-68199996D01*
X195669909Y-68200003D01*
X195688212Y-68362455D01*
X195742210Y-68516774D01*
X195810090Y-68624803D01*
X195829192Y-68655204D01*
X195944796Y-68770808D01*
X196083225Y-68857789D01*
X196237539Y-68911786D01*
X196237542Y-68911786D01*
X196237544Y-68911787D01*
X196399996Y-68930091D01*
X196400000Y-68930091D01*
X196400004Y-68930091D01*
X196562455Y-68911787D01*
X196562456Y-68911786D01*
X196562461Y-68911786D01*
X196716775Y-68857789D01*
X196817489Y-68794505D01*
X196883461Y-68775500D01*
X196968657Y-68775500D01*
X196968659Y-68775500D01*
X197115028Y-68736281D01*
X197146113Y-68718334D01*
X197170033Y-68704524D01*
X197170034Y-68704523D01*
X197177002Y-68700500D01*
X197246258Y-68660515D01*
X197353408Y-68553365D01*
X197429174Y-68422135D01*
X197468393Y-68275766D01*
X197468393Y-68208981D01*
X197488078Y-68141942D01*
X197504712Y-68121300D01*
X197519399Y-68106613D01*
X197570808Y-68055204D01*
X197657789Y-67916775D01*
X197711786Y-67762461D01*
X197711787Y-67762455D01*
X197730091Y-67600003D01*
X197730091Y-67599996D01*
X197711787Y-67437544D01*
X197711786Y-67437542D01*
X197711786Y-67437539D01*
X197657789Y-67283225D01*
X197570808Y-67144796D01*
X197455204Y-67029192D01*
X197316775Y-66942211D01*
X197162461Y-66888214D01*
X197162459Y-66888213D01*
X197158545Y-66886844D01*
X197101769Y-66846122D01*
X197076022Y-66781169D01*
X197075500Y-66769802D01*
X197075500Y-66251628D01*
X197095185Y-66184589D01*
X197147989Y-66138834D01*
X197217147Y-66128890D01*
X197265473Y-66146635D01*
X197274190Y-66152112D01*
X197283225Y-66157789D01*
X197437539Y-66211786D01*
X197437542Y-66211786D01*
X197437544Y-66211787D01*
X197599996Y-66230091D01*
X197600000Y-66230091D01*
X197600004Y-66230091D01*
X197762455Y-66211787D01*
X197762456Y-66211786D01*
X197762461Y-66211786D01*
X197916775Y-66157789D01*
X198055204Y-66070808D01*
X198170808Y-65955204D01*
X198257789Y-65816775D01*
X198311786Y-65662461D01*
X198330091Y-65500000D01*
X198311786Y-65337539D01*
X198257789Y-65183225D01*
X198170808Y-65044796D01*
X198055204Y-64929192D01*
X197971027Y-64876299D01*
X197924737Y-64823966D01*
X197913000Y-64771307D01*
X197913000Y-61903767D01*
X197932685Y-61836728D01*
X197971901Y-61798230D01*
X198118656Y-61707712D01*
X198242712Y-61583656D01*
X198334814Y-61434334D01*
X198389999Y-61267797D01*
X198400500Y-61165009D01*
X198400499Y-59814992D01*
X198389999Y-59712203D01*
X198334814Y-59545666D01*
X198242712Y-59396344D01*
X198118656Y-59272288D01*
X198016145Y-59209059D01*
X197969336Y-59180187D01*
X197969331Y-59180185D01*
X197967862Y-59179698D01*
X197802797Y-59125001D01*
X197802795Y-59125000D01*
X197700016Y-59114500D01*
X197700009Y-59114500D01*
X197199500Y-59114500D01*
X197132461Y-59094815D01*
X197086706Y-59042011D01*
X197075500Y-58990500D01*
X197075500Y-58699499D01*
X197095185Y-58632460D01*
X197147989Y-58586705D01*
X197199500Y-58575499D01*
X197700002Y-58575499D01*
X197700008Y-58575499D01*
X197802797Y-58564999D01*
X197969334Y-58509814D01*
X198118656Y-58417712D01*
X198242712Y-58293656D01*
X198334814Y-58144334D01*
X198389999Y-57977797D01*
X198400500Y-57875009D01*
X198400499Y-56524992D01*
X198389999Y-56422203D01*
X198334814Y-56255666D01*
X198242712Y-56106344D01*
X198118656Y-55982288D01*
X198025775Y-55924999D01*
X197969336Y-55890187D01*
X197969331Y-55890185D01*
X197948327Y-55883225D01*
X197802797Y-55835001D01*
X197802795Y-55835000D01*
X197700010Y-55824500D01*
X196974998Y-55824500D01*
X196974980Y-55824501D01*
X196865468Y-55835689D01*
X196865249Y-55833545D01*
X196805756Y-55829079D01*
X196749971Y-55787010D01*
X196725785Y-55721460D01*
X196725500Y-55713051D01*
X196725500Y-55396948D01*
X196745185Y-55329909D01*
X196797989Y-55284154D01*
X196865453Y-55274453D01*
X196865468Y-55274311D01*
X196866038Y-55274369D01*
X196867147Y-55274210D01*
X196870701Y-55274845D01*
X196872200Y-55274998D01*
X196872203Y-55274999D01*
X196974991Y-55285500D01*
X197700008Y-55285499D01*
X197700016Y-55285498D01*
X197700019Y-55285498D01*
X197756302Y-55279748D01*
X197802797Y-55274999D01*
X197969334Y-55219814D01*
X198118656Y-55127712D01*
X198242712Y-55003656D01*
X198334814Y-54854334D01*
X198389999Y-54687797D01*
X198400500Y-54585009D01*
X198400499Y-53234992D01*
X198400498Y-53234983D01*
X199199500Y-53234983D01*
X199199500Y-54585001D01*
X199199501Y-54585018D01*
X199210000Y-54687796D01*
X199210001Y-54687799D01*
X199251973Y-54814461D01*
X199265186Y-54854334D01*
X199357288Y-55003656D01*
X199481344Y-55127712D01*
X199630666Y-55219814D01*
X199797203Y-55274999D01*
X199899991Y-55285500D01*
X200625008Y-55285499D01*
X200625016Y-55285498D01*
X200625019Y-55285498D01*
X200640171Y-55283950D01*
X200727797Y-55274999D01*
X200727809Y-55274994D01*
X200732529Y-55273985D01*
X200802204Y-55279195D01*
X200846176Y-55307555D01*
X201137644Y-55599023D01*
X201137665Y-55599046D01*
X201151438Y-55612819D01*
X201184923Y-55674142D01*
X201179939Y-55743834D01*
X201138067Y-55799767D01*
X201072603Y-55824184D01*
X201063757Y-55824500D01*
X200986732Y-55824500D01*
X200861900Y-55857948D01*
X200792051Y-55856285D01*
X200790804Y-55855879D01*
X200727798Y-55835001D01*
X200625010Y-55824500D01*
X199899998Y-55824500D01*
X199899980Y-55824501D01*
X199797203Y-55835000D01*
X199797200Y-55835001D01*
X199630668Y-55890185D01*
X199630663Y-55890187D01*
X199481342Y-55982289D01*
X199357289Y-56106342D01*
X199265187Y-56255663D01*
X199265186Y-56255666D01*
X199210001Y-56422203D01*
X199210001Y-56422204D01*
X199210000Y-56422204D01*
X199199500Y-56524983D01*
X199199500Y-57875001D01*
X199199501Y-57875018D01*
X199210000Y-57977796D01*
X199210001Y-57977799D01*
X199265185Y-58144331D01*
X199265187Y-58144336D01*
X199277439Y-58164200D01*
X199357288Y-58293656D01*
X199481344Y-58417712D01*
X199630666Y-58509814D01*
X199797203Y-58564999D01*
X199899991Y-58575500D01*
X200625008Y-58575499D01*
X200625016Y-58575498D01*
X200625019Y-58575498D01*
X200681302Y-58569748D01*
X200727797Y-58564999D01*
X200894334Y-58509814D01*
X201043656Y-58417712D01*
X201167712Y-58293656D01*
X201259814Y-58144334D01*
X201314999Y-57977797D01*
X201325500Y-57875009D01*
X201325499Y-57099499D01*
X201345183Y-57032461D01*
X201397987Y-56986706D01*
X201449499Y-56975500D01*
X202663758Y-56975500D01*
X202730797Y-56995185D01*
X202776552Y-57047989D01*
X202786496Y-57117147D01*
X202757471Y-57180703D01*
X202751439Y-57187181D01*
X200846175Y-59092443D01*
X200784852Y-59125928D01*
X200732546Y-59126017D01*
X200727799Y-59125001D01*
X200625010Y-59114500D01*
X199899998Y-59114500D01*
X199899980Y-59114501D01*
X199797203Y-59125000D01*
X199797200Y-59125001D01*
X199630668Y-59180185D01*
X199630663Y-59180187D01*
X199481342Y-59272289D01*
X199357289Y-59396342D01*
X199265187Y-59545663D01*
X199265186Y-59545666D01*
X199210001Y-59712203D01*
X199210001Y-59712204D01*
X199210000Y-59712204D01*
X199199500Y-59814983D01*
X199199500Y-61165001D01*
X199199501Y-61165018D01*
X199210000Y-61267796D01*
X199210001Y-61267799D01*
X199226232Y-61316779D01*
X199265186Y-61434334D01*
X199357288Y-61583656D01*
X199481344Y-61707712D01*
X199630666Y-61799814D01*
X199797203Y-61854999D01*
X199899991Y-61865500D01*
X200625008Y-61865499D01*
X200625016Y-61865498D01*
X200625019Y-61865498D01*
X200681302Y-61859748D01*
X200727797Y-61854999D01*
X200894334Y-61799814D01*
X201043656Y-61707712D01*
X201167712Y-61583656D01*
X201259814Y-61434334D01*
X201314999Y-61267797D01*
X201325500Y-61165009D01*
X201325499Y-60292240D01*
X201345183Y-60225202D01*
X201361813Y-60204565D01*
X204154561Y-57411819D01*
X204215884Y-57378334D01*
X204242242Y-57375500D01*
X225311258Y-57375500D01*
X225378297Y-57395185D01*
X225424052Y-57447989D01*
X225433996Y-57517147D01*
X225404971Y-57580703D01*
X225398939Y-57587181D01*
X218939487Y-64046632D01*
X218939485Y-64046635D01*
X218863719Y-64177863D01*
X218856992Y-64202971D01*
X218824501Y-64324233D01*
X218824500Y-64324235D01*
X218824500Y-69716538D01*
X218805494Y-69782510D01*
X218742210Y-69883225D01*
X218688212Y-70037544D01*
X218669909Y-70199996D01*
X218669909Y-70200003D01*
X218688212Y-70362455D01*
X218742210Y-70516774D01*
X218742211Y-70516775D01*
X218829192Y-70655204D01*
X218944796Y-70770808D01*
X219083225Y-70857789D01*
X219237539Y-70911786D01*
X219237542Y-70911786D01*
X219237544Y-70911787D01*
X219399996Y-70930091D01*
X219400000Y-70930091D01*
X219400004Y-70930091D01*
X219562455Y-70911787D01*
X219562456Y-70911786D01*
X219562461Y-70911786D01*
X219716775Y-70857789D01*
X219855204Y-70770808D01*
X219921294Y-70704717D01*
X219982613Y-70671235D01*
X220052305Y-70676219D01*
X220108239Y-70718090D01*
X220128238Y-70758467D01*
X220175769Y-70925523D01*
X220175775Y-70925538D01*
X220274938Y-71124683D01*
X220274943Y-71124691D01*
X220409020Y-71302238D01*
X220573437Y-71452123D01*
X220573439Y-71452125D01*
X220762595Y-71569245D01*
X220762596Y-71569245D01*
X220762599Y-71569247D01*
X220970060Y-71649618D01*
X221188757Y-71690500D01*
X221188759Y-71690500D01*
X221411241Y-71690500D01*
X221411243Y-71690500D01*
X221629940Y-71649618D01*
X221837401Y-71569247D01*
X222026562Y-71452124D01*
X222190981Y-71302236D01*
X222325058Y-71124689D01*
X222424229Y-70925528D01*
X222450734Y-70832371D01*
X222488013Y-70773278D01*
X222551323Y-70743721D01*
X222620562Y-70753083D01*
X222673749Y-70798393D01*
X222689266Y-70832372D01*
X222715769Y-70925523D01*
X222715775Y-70925538D01*
X222814938Y-71124683D01*
X222814943Y-71124691D01*
X222949020Y-71302238D01*
X223113437Y-71452123D01*
X223113439Y-71452125D01*
X223302595Y-71569245D01*
X223302596Y-71569245D01*
X223302599Y-71569247D01*
X223510060Y-71649618D01*
X223728757Y-71690500D01*
X223728759Y-71690500D01*
X223951241Y-71690500D01*
X223951243Y-71690500D01*
X224169940Y-71649618D01*
X224377401Y-71569247D01*
X224566562Y-71452124D01*
X224730981Y-71302236D01*
X224865058Y-71124689D01*
X224964229Y-70925528D01*
X224990734Y-70832371D01*
X225028013Y-70773278D01*
X225091323Y-70743721D01*
X225160562Y-70753083D01*
X225213749Y-70798393D01*
X225229266Y-70832372D01*
X225255769Y-70925523D01*
X225255775Y-70925538D01*
X225354938Y-71124683D01*
X225354943Y-71124691D01*
X225489020Y-71302238D01*
X225653437Y-71452123D01*
X225653439Y-71452125D01*
X225842595Y-71569245D01*
X225842596Y-71569245D01*
X225842599Y-71569247D01*
X226050060Y-71649618D01*
X226268757Y-71690500D01*
X226268759Y-71690500D01*
X226491241Y-71690500D01*
X226491243Y-71690500D01*
X226709940Y-71649618D01*
X226917401Y-71569247D01*
X227106562Y-71452124D01*
X227270981Y-71302236D01*
X227405058Y-71124689D01*
X227504229Y-70925528D01*
X227530734Y-70832371D01*
X227568013Y-70773278D01*
X227631323Y-70743721D01*
X227700562Y-70753083D01*
X227753749Y-70798393D01*
X227769266Y-70832372D01*
X227795769Y-70925523D01*
X227795775Y-70925538D01*
X227894938Y-71124683D01*
X227894943Y-71124691D01*
X228029020Y-71302238D01*
X228193437Y-71452123D01*
X228193439Y-71452125D01*
X228382595Y-71569245D01*
X228382596Y-71569245D01*
X228382599Y-71569247D01*
X228590060Y-71649618D01*
X228808757Y-71690500D01*
X228808759Y-71690500D01*
X229031241Y-71690500D01*
X229031243Y-71690500D01*
X229249940Y-71649618D01*
X229457401Y-71569247D01*
X229646562Y-71452124D01*
X229810981Y-71302236D01*
X229945058Y-71124689D01*
X230044229Y-70925528D01*
X230070734Y-70832371D01*
X230108013Y-70773278D01*
X230171323Y-70743721D01*
X230240562Y-70753083D01*
X230293749Y-70798393D01*
X230309266Y-70832372D01*
X230335769Y-70925523D01*
X230335775Y-70925538D01*
X230434938Y-71124683D01*
X230434943Y-71124691D01*
X230569020Y-71302238D01*
X230733437Y-71452123D01*
X230733439Y-71452125D01*
X230922595Y-71569245D01*
X230922596Y-71569245D01*
X230922599Y-71569247D01*
X231130060Y-71649618D01*
X231348757Y-71690500D01*
X231348759Y-71690500D01*
X231571241Y-71690500D01*
X231571243Y-71690500D01*
X231789940Y-71649618D01*
X231997401Y-71569247D01*
X232186562Y-71452124D01*
X232350981Y-71302236D01*
X232485058Y-71124689D01*
X232584229Y-70925528D01*
X232610734Y-70832371D01*
X232648013Y-70773278D01*
X232711323Y-70743721D01*
X232780562Y-70753083D01*
X232833749Y-70798393D01*
X232849266Y-70832372D01*
X232875769Y-70925523D01*
X232875775Y-70925538D01*
X232974938Y-71124683D01*
X232974943Y-71124691D01*
X233109020Y-71302238D01*
X233273437Y-71452123D01*
X233273439Y-71452125D01*
X233462595Y-71569245D01*
X233462596Y-71569245D01*
X233462599Y-71569247D01*
X233670060Y-71649618D01*
X233888757Y-71690500D01*
X233888759Y-71690500D01*
X234111241Y-71690500D01*
X234111243Y-71690500D01*
X234329940Y-71649618D01*
X234537401Y-71569247D01*
X234726562Y-71452124D01*
X234890981Y-71302236D01*
X235025058Y-71124689D01*
X235124229Y-70925528D01*
X235185115Y-70711536D01*
X235205643Y-70490000D01*
X235185115Y-70268464D01*
X235124229Y-70054472D01*
X235115800Y-70037544D01*
X235025061Y-69855316D01*
X235025056Y-69855308D01*
X234890979Y-69677761D01*
X234726562Y-69527876D01*
X234726560Y-69527874D01*
X234537404Y-69410754D01*
X234537398Y-69410752D01*
X234530723Y-69408166D01*
X234329940Y-69330382D01*
X234111243Y-69289500D01*
X233888757Y-69289500D01*
X233670060Y-69330382D01*
X233556865Y-69374234D01*
X233462601Y-69410752D01*
X233462595Y-69410754D01*
X233273439Y-69527874D01*
X233273437Y-69527876D01*
X233109020Y-69677761D01*
X232974943Y-69855308D01*
X232974938Y-69855316D01*
X232875775Y-70054461D01*
X232875769Y-70054476D01*
X232849266Y-70147627D01*
X232811987Y-70206721D01*
X232748677Y-70236278D01*
X232679438Y-70226916D01*
X232626251Y-70181606D01*
X232610734Y-70147627D01*
X232584230Y-70054476D01*
X232584229Y-70054472D01*
X232575800Y-70037544D01*
X232485061Y-69855316D01*
X232485056Y-69855308D01*
X232350979Y-69677761D01*
X232186562Y-69527876D01*
X232186560Y-69527874D01*
X231997404Y-69410754D01*
X231997398Y-69410752D01*
X231990723Y-69408166D01*
X231789940Y-69330382D01*
X231571243Y-69289500D01*
X231348757Y-69289500D01*
X231130060Y-69330382D01*
X231016865Y-69374234D01*
X230922601Y-69410752D01*
X230922595Y-69410754D01*
X230733439Y-69527874D01*
X230733437Y-69527876D01*
X230569020Y-69677761D01*
X230434943Y-69855308D01*
X230434938Y-69855316D01*
X230335775Y-70054461D01*
X230335769Y-70054476D01*
X230309266Y-70147627D01*
X230271987Y-70206721D01*
X230208677Y-70236278D01*
X230139438Y-70226916D01*
X230086251Y-70181606D01*
X230070734Y-70147627D01*
X230044230Y-70054476D01*
X230044229Y-70054472D01*
X230035800Y-70037544D01*
X229945061Y-69855316D01*
X229945056Y-69855308D01*
X229810979Y-69677761D01*
X229646562Y-69527876D01*
X229646560Y-69527874D01*
X229457404Y-69410754D01*
X229457398Y-69410752D01*
X229450723Y-69408166D01*
X229249940Y-69330382D01*
X229031243Y-69289500D01*
X228808757Y-69289500D01*
X228640998Y-69320860D01*
X228571483Y-69313829D01*
X228530532Y-69286652D01*
X227550132Y-68306252D01*
X227516647Y-68244929D01*
X227514594Y-68232465D01*
X227511786Y-68207539D01*
X227511785Y-68207536D01*
X227511784Y-68207531D01*
X227457790Y-68053227D01*
X227389658Y-67944796D01*
X227370808Y-67914796D01*
X227255204Y-67799192D01*
X227164518Y-67742210D01*
X227116774Y-67712210D01*
X226962455Y-67658212D01*
X226800004Y-67639909D01*
X226799996Y-67639909D01*
X226637544Y-67658212D01*
X226483225Y-67712210D01*
X226344795Y-67799192D01*
X226229192Y-67914795D01*
X226142209Y-68053227D01*
X226111792Y-68140154D01*
X226071071Y-68196930D01*
X226006118Y-68222677D01*
X225937556Y-68209221D01*
X225887154Y-68160833D01*
X225877709Y-68140153D01*
X225857789Y-68083225D01*
X225829082Y-68037539D01*
X225770808Y-67944796D01*
X225655204Y-67829192D01*
X225625415Y-67810474D01*
X225516774Y-67742210D01*
X225362455Y-67688212D01*
X225200004Y-67669909D01*
X225199996Y-67669909D01*
X225037544Y-67688212D01*
X224883225Y-67742210D01*
X224744795Y-67829192D01*
X224629192Y-67944795D01*
X224542210Y-68083225D01*
X224488212Y-68237544D01*
X224469909Y-68399996D01*
X224469909Y-68400003D01*
X224488212Y-68562457D01*
X224542210Y-68716774D01*
X224542213Y-68716779D01*
X224605493Y-68817487D01*
X224624500Y-68883460D01*
X224624500Y-69341127D01*
X224604815Y-69408166D01*
X224552011Y-69453921D01*
X224482853Y-69463865D01*
X224435223Y-69446554D01*
X224377404Y-69410755D01*
X224377405Y-69410755D01*
X224377401Y-69410753D01*
X224169940Y-69330382D01*
X223951243Y-69289500D01*
X223728757Y-69289500D01*
X223560998Y-69320860D01*
X223491483Y-69313829D01*
X223450532Y-69286652D01*
X223411819Y-69247939D01*
X223378334Y-69186616D01*
X223375500Y-69160258D01*
X223375500Y-68683460D01*
X223394507Y-68617487D01*
X223430140Y-68560777D01*
X223457789Y-68516775D01*
X223511786Y-68362461D01*
X223511786Y-68362459D01*
X223511787Y-68362457D01*
X223530091Y-68200003D01*
X223530091Y-68199996D01*
X223511787Y-68037544D01*
X223511786Y-68037542D01*
X223511786Y-68037539D01*
X223457789Y-67883225D01*
X223370808Y-67744796D01*
X223255204Y-67629192D01*
X223208750Y-67600003D01*
X223116774Y-67542210D01*
X222962455Y-67488212D01*
X222800004Y-67469909D01*
X222799996Y-67469909D01*
X222637544Y-67488212D01*
X222483225Y-67542210D01*
X222344795Y-67629192D01*
X222229192Y-67744795D01*
X222142210Y-67883225D01*
X222088212Y-68037544D01*
X222069909Y-68199996D01*
X222069909Y-68200003D01*
X222088212Y-68362457D01*
X222142210Y-68516774D01*
X222142213Y-68516779D01*
X222205493Y-68617487D01*
X222224500Y-68683460D01*
X222224500Y-69428326D01*
X222204815Y-69495365D01*
X222152011Y-69541120D01*
X222082853Y-69551064D01*
X222032053Y-69529897D01*
X222031437Y-69530894D01*
X221837404Y-69410754D01*
X221837398Y-69410752D01*
X221830723Y-69408166D01*
X221629940Y-69330382D01*
X221411243Y-69289500D01*
X221188757Y-69289500D01*
X220970060Y-69330382D01*
X220856865Y-69374234D01*
X220762601Y-69410752D01*
X220762595Y-69410754D01*
X220573439Y-69527874D01*
X220573437Y-69527876D01*
X220409020Y-69677761D01*
X220274943Y-69855308D01*
X220274939Y-69855315D01*
X220269645Y-69865947D01*
X220222139Y-69917182D01*
X220154475Y-69934600D01*
X220088136Y-69912671D01*
X220053653Y-69876642D01*
X219994506Y-69782510D01*
X219975500Y-69716538D01*
X219975500Y-64689741D01*
X219995185Y-64622702D01*
X220011814Y-64602065D01*
X226463748Y-58150130D01*
X226525069Y-58116647D01*
X226537531Y-58114594D01*
X226562461Y-58111786D01*
X226562465Y-58111784D01*
X226562468Y-58111784D01*
X226716772Y-58057790D01*
X226716771Y-58057790D01*
X226716775Y-58057789D01*
X226855204Y-57970808D01*
X226970808Y-57855204D01*
X227057789Y-57716775D01*
X227111786Y-57562461D01*
X227116892Y-57517147D01*
X227120445Y-57485616D01*
X227147511Y-57421203D01*
X227205106Y-57381647D01*
X227243665Y-57375500D01*
X229985764Y-57375500D01*
X229985766Y-57375500D01*
X230132135Y-57336281D01*
X230263365Y-57260515D01*
X231070533Y-56453345D01*
X231131854Y-56419862D01*
X231180992Y-56419139D01*
X231348757Y-56450500D01*
X231348760Y-56450500D01*
X231571241Y-56450500D01*
X231571243Y-56450500D01*
X231789940Y-56409618D01*
X231997401Y-56329247D01*
X232186562Y-56212124D01*
X232350981Y-56062236D01*
X232485058Y-55884689D01*
X232584229Y-55685528D01*
X232610734Y-55592371D01*
X232648013Y-55533278D01*
X232711323Y-55503721D01*
X232780562Y-55513083D01*
X232833749Y-55558393D01*
X232849265Y-55592370D01*
X232855531Y-55614395D01*
X232875769Y-55685523D01*
X232875775Y-55685538D01*
X232974938Y-55884683D01*
X232974943Y-55884691D01*
X233109020Y-56062238D01*
X233273437Y-56212123D01*
X233273439Y-56212125D01*
X233462595Y-56329245D01*
X233462596Y-56329245D01*
X233462599Y-56329247D01*
X233670060Y-56409618D01*
X233888757Y-56450500D01*
X233888759Y-56450500D01*
X234111241Y-56450500D01*
X234111243Y-56450500D01*
X234329940Y-56409618D01*
X234537401Y-56329247D01*
X234726562Y-56212124D01*
X234890981Y-56062236D01*
X235025058Y-55884689D01*
X235124229Y-55685528D01*
X235185115Y-55471536D01*
X235205643Y-55250000D01*
X235185115Y-55028464D01*
X235124229Y-54814472D01*
X235124224Y-54814461D01*
X235025061Y-54615316D01*
X235025056Y-54615308D01*
X234890979Y-54437761D01*
X234726562Y-54287876D01*
X234726560Y-54287874D01*
X234537404Y-54170754D01*
X234537398Y-54170752D01*
X234329940Y-54090382D01*
X234111243Y-54049500D01*
X233888757Y-54049500D01*
X233670060Y-54090382D01*
X233569529Y-54129328D01*
X233462601Y-54170752D01*
X233462595Y-54170754D01*
X233273439Y-54287874D01*
X233273437Y-54287876D01*
X233109020Y-54437761D01*
X232974943Y-54615308D01*
X232974938Y-54615316D01*
X232875775Y-54814461D01*
X232875769Y-54814476D01*
X232849266Y-54907627D01*
X232811987Y-54966721D01*
X232748677Y-54996278D01*
X232679438Y-54986916D01*
X232626251Y-54941606D01*
X232610734Y-54907627D01*
X232584230Y-54814476D01*
X232584229Y-54814472D01*
X232584224Y-54814461D01*
X232485061Y-54615316D01*
X232485056Y-54615308D01*
X232350979Y-54437761D01*
X232186562Y-54287876D01*
X232186560Y-54287874D01*
X231997404Y-54170754D01*
X231997398Y-54170752D01*
X231789940Y-54090382D01*
X231571243Y-54049500D01*
X231348757Y-54049500D01*
X231130060Y-54090382D01*
X231029529Y-54129328D01*
X230922601Y-54170752D01*
X230922595Y-54170754D01*
X230733439Y-54287874D01*
X230733437Y-54287876D01*
X230569020Y-54437761D01*
X230434943Y-54615308D01*
X230434938Y-54615316D01*
X230335775Y-54814461D01*
X230335769Y-54814476D01*
X230309266Y-54907627D01*
X230271987Y-54966721D01*
X230208677Y-54996278D01*
X230139438Y-54986916D01*
X230086251Y-54941606D01*
X230070734Y-54907627D01*
X230044230Y-54814476D01*
X230044229Y-54814472D01*
X230044224Y-54814461D01*
X229945061Y-54615316D01*
X229945056Y-54615308D01*
X229810979Y-54437761D01*
X229646562Y-54287876D01*
X229646560Y-54287874D01*
X229457404Y-54170754D01*
X229457398Y-54170752D01*
X229249940Y-54090382D01*
X229031243Y-54049500D01*
X228808757Y-54049500D01*
X228590060Y-54090382D01*
X228489529Y-54129328D01*
X228382601Y-54170752D01*
X228382595Y-54170754D01*
X228193439Y-54287874D01*
X228193437Y-54287876D01*
X228029020Y-54437761D01*
X227894943Y-54615308D01*
X227894938Y-54615316D01*
X227795775Y-54814461D01*
X227795769Y-54814476D01*
X227769266Y-54907627D01*
X227731987Y-54966721D01*
X227668677Y-54996278D01*
X227599438Y-54986916D01*
X227546251Y-54941606D01*
X227530734Y-54907627D01*
X227504230Y-54814476D01*
X227504229Y-54814472D01*
X227504224Y-54814461D01*
X227405061Y-54615316D01*
X227405056Y-54615308D01*
X227270979Y-54437761D01*
X227106562Y-54287876D01*
X227106560Y-54287874D01*
X226917404Y-54170754D01*
X226917398Y-54170752D01*
X226709940Y-54090382D01*
X226491243Y-54049500D01*
X226268757Y-54049500D01*
X226050060Y-54090382D01*
X225949529Y-54129328D01*
X225842601Y-54170752D01*
X225842595Y-54170754D01*
X225653439Y-54287874D01*
X225653437Y-54287876D01*
X225489020Y-54437761D01*
X225354943Y-54615308D01*
X225354938Y-54615316D01*
X225255775Y-54814461D01*
X225255769Y-54814476D01*
X225229266Y-54907627D01*
X225191987Y-54966721D01*
X225128677Y-54996278D01*
X225059438Y-54986916D01*
X225006251Y-54941606D01*
X224990734Y-54907627D01*
X224964230Y-54814476D01*
X224964229Y-54814472D01*
X224964224Y-54814461D01*
X224865061Y-54615316D01*
X224865056Y-54615308D01*
X224730979Y-54437761D01*
X224566562Y-54287876D01*
X224566560Y-54287874D01*
X224377404Y-54170754D01*
X224377398Y-54170752D01*
X224169940Y-54090382D01*
X223951243Y-54049500D01*
X223728757Y-54049500D01*
X223510060Y-54090382D01*
X223409529Y-54129328D01*
X223302601Y-54170752D01*
X223302595Y-54170754D01*
X223113439Y-54287874D01*
X223113437Y-54287876D01*
X222949020Y-54437761D01*
X222814943Y-54615308D01*
X222814938Y-54615316D01*
X222715775Y-54814461D01*
X222715769Y-54814476D01*
X222689266Y-54907627D01*
X222651987Y-54966721D01*
X222588677Y-54996278D01*
X222519438Y-54986916D01*
X222466251Y-54941606D01*
X222450734Y-54907627D01*
X222424230Y-54814476D01*
X222424229Y-54814472D01*
X222424224Y-54814461D01*
X222325061Y-54615316D01*
X222325056Y-54615308D01*
X222190979Y-54437761D01*
X222026562Y-54287876D01*
X222026560Y-54287874D01*
X221837404Y-54170754D01*
X221837398Y-54170752D01*
X221629940Y-54090382D01*
X221411243Y-54049500D01*
X221188757Y-54049500D01*
X220970060Y-54090382D01*
X220869529Y-54129328D01*
X220762601Y-54170752D01*
X220762595Y-54170754D01*
X220573439Y-54287874D01*
X220573437Y-54287876D01*
X220409020Y-54437761D01*
X220274939Y-54615313D01*
X220274653Y-54615777D01*
X220274457Y-54615951D01*
X220271487Y-54619886D01*
X220270717Y-54619304D01*
X220222625Y-54662413D01*
X220169226Y-54674500D01*
X201892241Y-54674500D01*
X201825202Y-54654815D01*
X201804560Y-54638181D01*
X201361818Y-54195439D01*
X201328333Y-54134116D01*
X201325499Y-54107758D01*
X201325499Y-53234998D01*
X201325498Y-53234981D01*
X201314999Y-53132203D01*
X201314998Y-53132200D01*
X201259814Y-52965666D01*
X201167712Y-52816344D01*
X201043656Y-52692288D01*
X200894334Y-52600186D01*
X200727797Y-52545001D01*
X200727795Y-52545000D01*
X200625010Y-52534500D01*
X199899998Y-52534500D01*
X199899980Y-52534501D01*
X199797203Y-52545000D01*
X199797200Y-52545001D01*
X199630668Y-52600185D01*
X199630663Y-52600187D01*
X199481342Y-52692289D01*
X199357289Y-52816342D01*
X199265187Y-52965663D01*
X199265186Y-52965666D01*
X199210001Y-53132203D01*
X199210001Y-53132204D01*
X199210000Y-53132204D01*
X199199500Y-53234983D01*
X198400498Y-53234983D01*
X198389999Y-53132203D01*
X198334814Y-52965666D01*
X198242712Y-52816344D01*
X198118656Y-52692288D01*
X197969334Y-52600186D01*
X197802797Y-52545001D01*
X197802795Y-52545000D01*
X197700010Y-52534500D01*
X196974998Y-52534500D01*
X196974980Y-52534501D01*
X196872203Y-52545000D01*
X196872200Y-52545001D01*
X196705668Y-52600185D01*
X196705663Y-52600187D01*
X196556342Y-52692289D01*
X196432289Y-52816342D01*
X196340187Y-52965663D01*
X196340186Y-52965666D01*
X196285001Y-53132203D01*
X196285001Y-53132204D01*
X196285000Y-53132204D01*
X196274500Y-53234983D01*
X196274500Y-54107757D01*
X196254815Y-54174796D01*
X196238181Y-54195438D01*
X195796635Y-54636985D01*
X195689487Y-54744132D01*
X195689485Y-54744135D01*
X195613719Y-54875363D01*
X195574500Y-55021734D01*
X189050000Y-55021734D01*
X189050000Y-53578553D01*
X189049999Y-53578552D01*
X188303553Y-54324999D01*
X187596447Y-54324999D01*
X186850000Y-53578552D01*
X186850000Y-55071447D01*
X173549999Y-55071447D01*
X173550000Y-55071446D01*
X173550000Y-53993995D01*
X176449499Y-53993995D01*
X176476418Y-54129322D01*
X176476421Y-54129332D01*
X176529221Y-54256804D01*
X176529228Y-54256817D01*
X176605885Y-54371541D01*
X176605888Y-54371545D01*
X176703454Y-54469111D01*
X176703458Y-54469114D01*
X176818182Y-54545771D01*
X176818195Y-54545778D01*
X176912925Y-54585016D01*
X176945672Y-54598580D01*
X176945676Y-54598580D01*
X176945677Y-54598581D01*
X177081004Y-54625500D01*
X177081007Y-54625500D01*
X177218995Y-54625500D01*
X177310041Y-54607389D01*
X177354328Y-54598580D01*
X177481811Y-54545775D01*
X177596542Y-54469114D01*
X177694114Y-54371542D01*
X177770775Y-54256811D01*
X177823580Y-54129328D01*
X177835342Y-54070198D01*
X177850500Y-53993995D01*
X184449499Y-53993995D01*
X184476418Y-54129322D01*
X184476421Y-54129332D01*
X184529221Y-54256804D01*
X184529228Y-54256817D01*
X184605885Y-54371541D01*
X184605888Y-54371545D01*
X184703454Y-54469111D01*
X184703458Y-54469114D01*
X184818182Y-54545771D01*
X184818195Y-54545778D01*
X184912925Y-54585016D01*
X184945672Y-54598580D01*
X184945676Y-54598580D01*
X184945677Y-54598581D01*
X185081004Y-54625500D01*
X185081007Y-54625500D01*
X185218995Y-54625500D01*
X185310041Y-54607389D01*
X185354328Y-54598580D01*
X185481811Y-54545775D01*
X185596542Y-54469114D01*
X185694114Y-54371542D01*
X185770775Y-54256811D01*
X185823580Y-54129328D01*
X185835342Y-54070198D01*
X185850500Y-53993995D01*
X185850500Y-53856004D01*
X185823581Y-53720677D01*
X185823580Y-53720676D01*
X185823580Y-53720672D01*
X185823578Y-53720667D01*
X185770778Y-53593195D01*
X185770771Y-53593182D01*
X185694114Y-53478458D01*
X185694111Y-53478454D01*
X185596545Y-53380888D01*
X185596541Y-53380885D01*
X185481817Y-53304228D01*
X185481804Y-53304221D01*
X185354332Y-53251421D01*
X185354322Y-53251418D01*
X185218995Y-53224500D01*
X185218993Y-53224500D01*
X185081007Y-53224500D01*
X185081005Y-53224500D01*
X184945677Y-53251418D01*
X184945667Y-53251421D01*
X184818195Y-53304221D01*
X184818182Y-53304228D01*
X184703458Y-53380885D01*
X184703454Y-53380888D01*
X184605888Y-53478454D01*
X184605885Y-53478458D01*
X184529228Y-53593182D01*
X184529221Y-53593195D01*
X184476421Y-53720667D01*
X184476418Y-53720677D01*
X184449500Y-53856004D01*
X184449500Y-53856007D01*
X184449500Y-53993993D01*
X184449500Y-53993995D01*
X184449499Y-53993995D01*
X177850500Y-53993995D01*
X177850500Y-53856004D01*
X177823581Y-53720677D01*
X177823580Y-53720676D01*
X177823580Y-53720672D01*
X177823578Y-53720667D01*
X177770778Y-53593195D01*
X177770771Y-53593182D01*
X177694114Y-53478458D01*
X177694111Y-53478454D01*
X177596545Y-53380888D01*
X177596541Y-53380885D01*
X177481817Y-53304228D01*
X177481804Y-53304221D01*
X177354332Y-53251421D01*
X177354322Y-53251418D01*
X177218995Y-53224500D01*
X177218993Y-53224500D01*
X177081007Y-53224500D01*
X177081005Y-53224500D01*
X176945677Y-53251418D01*
X176945667Y-53251421D01*
X176818195Y-53304221D01*
X176818182Y-53304228D01*
X176703458Y-53380885D01*
X176703454Y-53380888D01*
X176605888Y-53478454D01*
X176605885Y-53478458D01*
X176529228Y-53593182D01*
X176529221Y-53593195D01*
X176476421Y-53720667D01*
X176476418Y-53720677D01*
X176449500Y-53856004D01*
X176449500Y-53856007D01*
X176449500Y-53993993D01*
X176449500Y-53993995D01*
X176449499Y-53993995D01*
X173550000Y-53993995D01*
X173550000Y-53578553D01*
X173549999Y-53578552D01*
X172803553Y-54324999D01*
X172096447Y-54324999D01*
X171350000Y-53578552D01*
X171350000Y-55071447D01*
X167013655Y-55071447D01*
X167000004Y-55069909D01*
X166999996Y-55069909D01*
X166837544Y-55088212D01*
X166683225Y-55142210D01*
X166544795Y-55229192D01*
X166429190Y-55344797D01*
X166429188Y-55344800D01*
X166415572Y-55366471D01*
X166363238Y-55412763D01*
X166310578Y-55424500D01*
X166045760Y-55424500D01*
X165978721Y-55404815D01*
X165932966Y-55352011D01*
X165923022Y-55282853D01*
X165938373Y-55238500D01*
X166020932Y-55095503D01*
X166020935Y-55095497D01*
X166078984Y-54916837D01*
X166098622Y-54730000D01*
X166078984Y-54543162D01*
X166020935Y-54364502D01*
X166020932Y-54364496D01*
X165928341Y-54204125D01*
X165911868Y-54136225D01*
X165934720Y-54070198D01*
X165966834Y-54039024D01*
X166024547Y-54000463D01*
X166121463Y-53903547D01*
X166197610Y-53789585D01*
X166250061Y-53662957D01*
X166276800Y-53528530D01*
X166276800Y-53391470D01*
X166250061Y-53257043D01*
X166240927Y-53234991D01*
X166197613Y-53130421D01*
X166197606Y-53130408D01*
X166121463Y-53016453D01*
X166121460Y-53016449D01*
X166056571Y-52951560D01*
X171430114Y-52951560D01*
X171430114Y-52951561D01*
X172450000Y-53971447D01*
X172450001Y-53971447D01*
X173469884Y-52951561D01*
X173469885Y-52951560D01*
X186930114Y-52951560D01*
X186930114Y-52951561D01*
X187950000Y-53971447D01*
X187950001Y-53971447D01*
X188969884Y-52951561D01*
X188969885Y-52951560D01*
X188907194Y-52867817D01*
X188907185Y-52867808D01*
X188792093Y-52781649D01*
X188792086Y-52781645D01*
X188657379Y-52731403D01*
X188657372Y-52731401D01*
X188597844Y-52725000D01*
X187302155Y-52725000D01*
X187242627Y-52731401D01*
X187242620Y-52731403D01*
X187107913Y-52781645D01*
X187107906Y-52781649D01*
X186992812Y-52867809D01*
X186930114Y-52951560D01*
X173469885Y-52951560D01*
X173407194Y-52867817D01*
X173407185Y-52867808D01*
X173292093Y-52781649D01*
X173292086Y-52781645D01*
X173157379Y-52731403D01*
X173157372Y-52731401D01*
X173097844Y-52725000D01*
X171802155Y-52725000D01*
X171742627Y-52731401D01*
X171742620Y-52731403D01*
X171607913Y-52781645D01*
X171607906Y-52781649D01*
X171492812Y-52867809D01*
X171430114Y-52951560D01*
X166056571Y-52951560D01*
X166024550Y-52919539D01*
X166024546Y-52919536D01*
X165910591Y-52843393D01*
X165910578Y-52843386D01*
X165783961Y-52790940D01*
X165783949Y-52790937D01*
X165649534Y-52764200D01*
X165649530Y-52764200D01*
X165512470Y-52764200D01*
X165512465Y-52764200D01*
X165378050Y-52790937D01*
X165378038Y-52790940D01*
X165251421Y-52843386D01*
X165251408Y-52843393D01*
X165137453Y-52919536D01*
X165137449Y-52919539D01*
X165040539Y-53016449D01*
X165040536Y-53016453D01*
X164964393Y-53130408D01*
X164964386Y-53130421D01*
X164911940Y-53257038D01*
X164911937Y-53257050D01*
X164885200Y-53391465D01*
X164885200Y-53528534D01*
X164911937Y-53662949D01*
X164911939Y-53662957D01*
X164941416Y-53734122D01*
X164941608Y-53734584D01*
X164949077Y-53804054D01*
X164917802Y-53866533D01*
X164877484Y-53895316D01*
X164750688Y-53951770D01*
X164638310Y-54033417D01*
X164572503Y-54056896D01*
X164504449Y-54041070D01*
X164492540Y-54033416D01*
X164379567Y-53951336D01*
X164379564Y-53951334D01*
X164379563Y-53951334D01*
X164272230Y-53903546D01*
X164252708Y-53894854D01*
X164199471Y-53849604D01*
X164179150Y-53782755D01*
X164188582Y-53734124D01*
X164218061Y-53662957D01*
X164244800Y-53528530D01*
X164244800Y-53391470D01*
X164218061Y-53257043D01*
X164208927Y-53234991D01*
X164165613Y-53130421D01*
X164165606Y-53130408D01*
X164089463Y-53016453D01*
X164089460Y-53016449D01*
X163992550Y-52919539D01*
X163992546Y-52919536D01*
X163878591Y-52843393D01*
X163878578Y-52843386D01*
X163751961Y-52790940D01*
X163751949Y-52790937D01*
X163617534Y-52764200D01*
X163617530Y-52764200D01*
X163480470Y-52764200D01*
X163480465Y-52764200D01*
X163346050Y-52790937D01*
X163346038Y-52790940D01*
X163219421Y-52843386D01*
X163219408Y-52843393D01*
X163105453Y-52919536D01*
X163105449Y-52919539D01*
X163008539Y-53016449D01*
X163008536Y-53016453D01*
X162932393Y-53130408D01*
X162932386Y-53130421D01*
X162879940Y-53257038D01*
X162879937Y-53257050D01*
X162853200Y-53391465D01*
X162853200Y-53528534D01*
X162879937Y-53662949D01*
X162879940Y-53662961D01*
X162932386Y-53789578D01*
X162932393Y-53789591D01*
X163008536Y-53903546D01*
X163008539Y-53903550D01*
X163105449Y-54000460D01*
X163105453Y-54000463D01*
X163162744Y-54038744D01*
X163207549Y-54092356D01*
X163216256Y-54161681D01*
X163201241Y-54203845D01*
X163108607Y-54364295D01*
X163108605Y-54364299D01*
X163050523Y-54543056D01*
X163050522Y-54543058D01*
X163030874Y-54730000D01*
X163050522Y-54916941D01*
X163050523Y-54916943D01*
X163108605Y-55095700D01*
X163108608Y-55095707D01*
X163191049Y-55238500D01*
X163207522Y-55306401D01*
X163184669Y-55372428D01*
X163129748Y-55415618D01*
X163083662Y-55424500D01*
X162724234Y-55424500D01*
X162577865Y-55463719D01*
X162577864Y-55463719D01*
X162519425Y-55497459D01*
X162451525Y-55513930D01*
X162416472Y-55507113D01*
X162362458Y-55488213D01*
X162200004Y-55469909D01*
X162199996Y-55469909D01*
X162037544Y-55488212D01*
X161883225Y-55542210D01*
X161744795Y-55629192D01*
X161629192Y-55744795D01*
X161542210Y-55883225D01*
X161488212Y-56037544D01*
X161469909Y-56199996D01*
X161469909Y-56200003D01*
X161488212Y-56362455D01*
X161542210Y-56516774D01*
X161553378Y-56534547D01*
X161629192Y-56655204D01*
X161744796Y-56770808D01*
X161814010Y-56814298D01*
X161883226Y-56857790D01*
X161900931Y-56863985D01*
X161957708Y-56904706D01*
X161983456Y-56969658D01*
X161970000Y-57038220D01*
X161964973Y-57046997D01*
X161942211Y-57083223D01*
X161888212Y-57237544D01*
X161869909Y-57399996D01*
X161869909Y-57400003D01*
X161888212Y-57562455D01*
X161942210Y-57716774D01*
X162029192Y-57855204D01*
X162144796Y-57970808D01*
X162283225Y-58057789D01*
X162437539Y-58111786D01*
X162437542Y-58111786D01*
X162437544Y-58111787D01*
X162599996Y-58130091D01*
X162600000Y-58130091D01*
X162600004Y-58130091D01*
X162762455Y-58111787D01*
X162762456Y-58111786D01*
X162762461Y-58111786D01*
X162916775Y-58057789D01*
X163017489Y-57994505D01*
X163083461Y-57975500D01*
X163339442Y-57975500D01*
X163406481Y-57995185D01*
X163412327Y-57999182D01*
X163480432Y-58048663D01*
X163480433Y-58048663D01*
X163480437Y-58048666D01*
X163583173Y-58094407D01*
X163652149Y-58125118D01*
X163652152Y-58125118D01*
X163652155Y-58125120D01*
X163811054Y-58158894D01*
X163872536Y-58192086D01*
X163906313Y-58253249D01*
X163901661Y-58322963D01*
X163899836Y-58327635D01*
X163895939Y-58337042D01*
X163895937Y-58337050D01*
X163869200Y-58471465D01*
X163869200Y-58608534D01*
X163895937Y-58742949D01*
X163895940Y-58742961D01*
X163948386Y-58869578D01*
X163948393Y-58869591D01*
X164024536Y-58983546D01*
X164024539Y-58983550D01*
X164121449Y-59080460D01*
X164121453Y-59080463D01*
X164235408Y-59156606D01*
X164235421Y-59156613D01*
X164362038Y-59209059D01*
X164362043Y-59209061D01*
X164492312Y-59234973D01*
X164496465Y-59235799D01*
X164496469Y-59235800D01*
X164496470Y-59235800D01*
X164633531Y-59235800D01*
X164633532Y-59235799D01*
X164767957Y-59209061D01*
X164894585Y-59156610D01*
X164931608Y-59131871D01*
X164998285Y-59110993D01*
X165065665Y-59129476D01*
X165112356Y-59181455D01*
X165124500Y-59234973D01*
X165124500Y-59868836D01*
X165104815Y-59935875D01*
X165088181Y-59956517D01*
X161075307Y-63969390D01*
X161075304Y-63969394D01*
X161001383Y-64080024D01*
X161001378Y-64080034D01*
X160950459Y-64202963D01*
X160950457Y-64202971D01*
X160935423Y-64278553D01*
X160926337Y-64324234D01*
X160924500Y-64333469D01*
X160924500Y-64333470D01*
X160924500Y-88245500D01*
X160904815Y-88312539D01*
X160852011Y-88358294D01*
X160800501Y-88369500D01*
X160702130Y-88369500D01*
X160702123Y-88369501D01*
X160642516Y-88375908D01*
X160507671Y-88426202D01*
X160507664Y-88426206D01*
X160392455Y-88512452D01*
X160392452Y-88512455D01*
X160306206Y-88627664D01*
X160306202Y-88627671D01*
X160255908Y-88762517D01*
X160249501Y-88822116D01*
X160249501Y-88822123D01*
X160249500Y-88822135D01*
X160249500Y-88920500D01*
X160229815Y-88987539D01*
X160177011Y-89033294D01*
X160125500Y-89044500D01*
X160013464Y-89044500D01*
X159882971Y-89070457D01*
X159882963Y-89070459D01*
X159760034Y-89121378D01*
X159760024Y-89121383D01*
X159649394Y-89195304D01*
X159649390Y-89195307D01*
X158675307Y-90169390D01*
X158675304Y-90169394D01*
X158627602Y-90240786D01*
X158573990Y-90285591D01*
X158504665Y-90294298D01*
X158441637Y-90264144D01*
X158404918Y-90204701D01*
X158400500Y-90171895D01*
X158400500Y-50524500D01*
X158420185Y-50457461D01*
X158472989Y-50411706D01*
X158524500Y-50400500D01*
X249475500Y-50400500D01*
X249542539Y-50420185D01*
G37*
%TD.AperFunction*%
%TA.AperFunction,Conductor*%
G36*
X164452665Y-106185185D02*
G01*
X164498420Y-106237989D01*
X164508364Y-106307147D01*
X164504702Y-106324095D01*
X164497900Y-106347504D01*
X164497899Y-106347510D01*
X164495000Y-106384350D01*
X164495000Y-107025000D01*
X165421000Y-107025000D01*
X165488039Y-107044685D01*
X165533794Y-107097489D01*
X165545000Y-107149000D01*
X165545000Y-108712980D01*
X165525315Y-108780019D01*
X165508681Y-108800661D01*
X165419531Y-108889810D01*
X165419530Y-108889811D01*
X165331522Y-109035393D01*
X165280913Y-109197807D01*
X165274500Y-109268386D01*
X165274500Y-109841258D01*
X165254815Y-109908297D01*
X165202011Y-109954052D01*
X165132853Y-109963996D01*
X165069297Y-109934971D01*
X165062819Y-109928939D01*
X163299529Y-108165649D01*
X164495000Y-108165649D01*
X164497899Y-108202489D01*
X164497900Y-108202495D01*
X164543716Y-108360193D01*
X164543717Y-108360196D01*
X164627314Y-108501552D01*
X164627321Y-108501561D01*
X164743438Y-108617678D01*
X164743447Y-108617685D01*
X164884801Y-108701281D01*
X165042514Y-108747100D01*
X165042511Y-108747100D01*
X165044998Y-108747295D01*
X165045000Y-108747295D01*
X165045000Y-107525000D01*
X164495000Y-107525000D01*
X164495000Y-108165649D01*
X163299529Y-108165649D01*
X162925294Y-107791414D01*
X162891809Y-107730091D01*
X162893199Y-107671644D01*
X162935063Y-107515408D01*
X162955659Y-107280000D01*
X162952342Y-107242093D01*
X162940556Y-107107379D01*
X162935063Y-107044592D01*
X162873903Y-106816337D01*
X162774035Y-106602171D01*
X162745781Y-106561819D01*
X162638494Y-106408597D01*
X162607078Y-106377181D01*
X162573593Y-106315858D01*
X162578577Y-106246166D01*
X162620449Y-106190233D01*
X162685913Y-106165816D01*
X162694759Y-106165500D01*
X164385626Y-106165500D01*
X164452665Y-106185185D01*
G37*
%TD.AperFunction*%
%TA.AperFunction,Conductor*%
G36*
X181342539Y-88670185D02*
G01*
X181388294Y-88722989D01*
X181399500Y-88774500D01*
X181399500Y-89062727D01*
X181407223Y-89121383D01*
X181414313Y-89175236D01*
X181472302Y-89315233D01*
X181564549Y-89435451D01*
X181684767Y-89527698D01*
X181824764Y-89585687D01*
X181867040Y-89591252D01*
X181930936Y-89619517D01*
X181969408Y-89677841D01*
X181970240Y-89747706D01*
X181938538Y-89801870D01*
X181889731Y-89850679D01*
X181828409Y-89884166D01*
X181802048Y-89887000D01*
X181495818Y-89887000D01*
X181397316Y-89897063D01*
X181397315Y-89897064D01*
X181318219Y-89923273D01*
X181237715Y-89949950D01*
X181237704Y-89949955D01*
X181094612Y-90038216D01*
X181094608Y-90038219D01*
X180975719Y-90157108D01*
X180975716Y-90157112D01*
X180887455Y-90300204D01*
X180887451Y-90300213D01*
X180834564Y-90459815D01*
X180834564Y-90459816D01*
X180834563Y-90459816D01*
X180824500Y-90558318D01*
X180824500Y-91091681D01*
X180834563Y-91190183D01*
X180887450Y-91349784D01*
X180887455Y-91349795D01*
X180975716Y-91492887D01*
X180975719Y-91492891D01*
X181007647Y-91524819D01*
X181041132Y-91586142D01*
X181036148Y-91655834D01*
X181007647Y-91700181D01*
X180975719Y-91732108D01*
X180975716Y-91732112D01*
X180887455Y-91875204D01*
X180887450Y-91875215D01*
X180878600Y-91901923D01*
X180834564Y-92034815D01*
X180834564Y-92034816D01*
X180834563Y-92034816D01*
X180824500Y-92133318D01*
X180824500Y-92666681D01*
X180834563Y-92765183D01*
X180887450Y-92924784D01*
X180887455Y-92924795D01*
X180975716Y-93067887D01*
X180975719Y-93067891D01*
X181020904Y-93113076D01*
X181054389Y-93174399D01*
X181049405Y-93244091D01*
X181020904Y-93288438D01*
X180969531Y-93339810D01*
X180969530Y-93339811D01*
X180881522Y-93485393D01*
X180830913Y-93647807D01*
X180825782Y-93704275D01*
X180824500Y-93718384D01*
X180824500Y-94231616D01*
X180826423Y-94252778D01*
X180830913Y-94302192D01*
X180830913Y-94302194D01*
X180830914Y-94302196D01*
X180881522Y-94464606D01*
X180961575Y-94597030D01*
X180969530Y-94610188D01*
X181072015Y-94712673D01*
X181105500Y-94773996D01*
X181100516Y-94843688D01*
X181072015Y-94888035D01*
X180969928Y-94990121D01*
X180969927Y-94990122D01*
X180881980Y-95135604D01*
X180831409Y-95297893D01*
X180825000Y-95368427D01*
X180825000Y-95375000D01*
X184774999Y-95375000D01*
X184774999Y-95368417D01*
X184768591Y-95297897D01*
X184768590Y-95297892D01*
X184718018Y-95135603D01*
X184630072Y-94990122D01*
X184527984Y-94888034D01*
X184494499Y-94826711D01*
X184499483Y-94757019D01*
X184527983Y-94712673D01*
X184630472Y-94610185D01*
X184718478Y-94464606D01*
X184769086Y-94302196D01*
X184775500Y-94231616D01*
X184775500Y-93718384D01*
X184769086Y-93647804D01*
X184718478Y-93485394D01*
X184670954Y-93406781D01*
X184653119Y-93339227D01*
X184674637Y-93272753D01*
X184711975Y-93237094D01*
X184721003Y-93231526D01*
X184844026Y-93108503D01*
X184935362Y-92960425D01*
X184990087Y-92795275D01*
X185000500Y-92693348D01*
X185000500Y-92498322D01*
X186075001Y-92498322D01*
X186085144Y-92597607D01*
X186138452Y-92758481D01*
X186138457Y-92758492D01*
X186227424Y-92902728D01*
X186227427Y-92902732D01*
X186347267Y-93022572D01*
X186347271Y-93022575D01*
X186491507Y-93111542D01*
X186491518Y-93111547D01*
X186652393Y-93164855D01*
X186751683Y-93174999D01*
X186775000Y-93174998D01*
X186775000Y-92450000D01*
X186075001Y-92450000D01*
X186075001Y-92498322D01*
X185000500Y-92498322D01*
X185000500Y-92106652D01*
X184990087Y-92004725D01*
X184955940Y-91901677D01*
X186075000Y-91901677D01*
X186075000Y-91950000D01*
X186775000Y-91950000D01*
X186775000Y-90850000D01*
X186075001Y-90850000D01*
X186075001Y-90898322D01*
X186085144Y-90997607D01*
X186138452Y-91158481D01*
X186138457Y-91158492D01*
X186227424Y-91302728D01*
X186227427Y-91302732D01*
X186237014Y-91312319D01*
X186270499Y-91373642D01*
X186265515Y-91443334D01*
X186237014Y-91487681D01*
X186227427Y-91497267D01*
X186227424Y-91497271D01*
X186138457Y-91641507D01*
X186138452Y-91641518D01*
X186085144Y-91802393D01*
X186075000Y-91901677D01*
X184955940Y-91901677D01*
X184935362Y-91839575D01*
X184935358Y-91839569D01*
X184935357Y-91839566D01*
X184844028Y-91691500D01*
X184844025Y-91691496D01*
X184721004Y-91568475D01*
X184721003Y-91568474D01*
X184720301Y-91568041D01*
X184719921Y-91567618D01*
X184715336Y-91563993D01*
X184715955Y-91563209D01*
X184673575Y-91516098D01*
X184662349Y-91447136D01*
X184690188Y-91383052D01*
X184715455Y-91361157D01*
X184715336Y-91361007D01*
X184718687Y-91358356D01*
X184720299Y-91356959D01*
X184721003Y-91356526D01*
X184844026Y-91233503D01*
X184935362Y-91085425D01*
X184990087Y-90920275D01*
X185000500Y-90818348D01*
X185000500Y-90803603D01*
X185020185Y-90736564D01*
X185072989Y-90690809D01*
X185142147Y-90680865D01*
X185165446Y-90686559D01*
X185237539Y-90711786D01*
X185237543Y-90711786D01*
X185237545Y-90711787D01*
X185237542Y-90711787D01*
X185399996Y-90730091D01*
X185400000Y-90730091D01*
X185400004Y-90730091D01*
X185562455Y-90711787D01*
X185562456Y-90711786D01*
X185562461Y-90711786D01*
X185716775Y-90657789D01*
X185855204Y-90570808D01*
X185970808Y-90455204D01*
X186000450Y-90408028D01*
X186052784Y-90361737D01*
X186105444Y-90350000D01*
X187151000Y-90350000D01*
X187218039Y-90369685D01*
X187263794Y-90422489D01*
X187275000Y-90474000D01*
X187275000Y-93174999D01*
X187298308Y-93174999D01*
X187298322Y-93174998D01*
X187397607Y-93164855D01*
X187558481Y-93111547D01*
X187558492Y-93111542D01*
X187702731Y-93022573D01*
X187711959Y-93013345D01*
X187773279Y-92979856D01*
X187842971Y-92984835D01*
X187887327Y-93013339D01*
X187896955Y-93022967D01*
X187896959Y-93022970D01*
X188041294Y-93111998D01*
X188041297Y-93111999D01*
X188041303Y-93112003D01*
X188202292Y-93165349D01*
X188301655Y-93175500D01*
X188568836Y-93175499D01*
X188635875Y-93195183D01*
X188656517Y-93211818D01*
X193475305Y-98030606D01*
X193569394Y-98124695D01*
X193569397Y-98124697D01*
X193569398Y-98124698D01*
X193680020Y-98198613D01*
X193680023Y-98198614D01*
X193680031Y-98198620D01*
X193802964Y-98249540D01*
X193802968Y-98249540D01*
X193802969Y-98249541D01*
X193933466Y-98275500D01*
X193933469Y-98275500D01*
X194066531Y-98275500D01*
X196600500Y-98275500D01*
X196667539Y-98295185D01*
X196713294Y-98347989D01*
X196724500Y-98399500D01*
X196724500Y-104069836D01*
X196704815Y-104136875D01*
X196652011Y-104182630D01*
X196582853Y-104192574D01*
X196519297Y-104163549D01*
X196512819Y-104157517D01*
X190430609Y-98075307D01*
X190430605Y-98075304D01*
X190319975Y-98001383D01*
X190319965Y-98001378D01*
X190197036Y-97950459D01*
X190197028Y-97950457D01*
X190066535Y-97924500D01*
X190066531Y-97924500D01*
X178999500Y-97924500D01*
X178932461Y-97904815D01*
X178886706Y-97852011D01*
X178875500Y-97800500D01*
X178875500Y-95881582D01*
X180825001Y-95881582D01*
X180831408Y-95952102D01*
X180831409Y-95952107D01*
X180881981Y-96114396D01*
X180969927Y-96259877D01*
X181090122Y-96380072D01*
X181235604Y-96468019D01*
X181235603Y-96468019D01*
X181397894Y-96518590D01*
X181397892Y-96518590D01*
X181468418Y-96524999D01*
X182050000Y-96524999D01*
X182131581Y-96524999D01*
X182202102Y-96518591D01*
X182202107Y-96518590D01*
X182364396Y-96468018D01*
X182509877Y-96380072D01*
X182630072Y-96259877D01*
X182693883Y-96154322D01*
X182745411Y-96107135D01*
X182814270Y-96095296D01*
X182878599Y-96122565D01*
X182906117Y-96154322D01*
X182969927Y-96259877D01*
X183090122Y-96380072D01*
X183235604Y-96468019D01*
X183235603Y-96468019D01*
X183397894Y-96518590D01*
X183397892Y-96518590D01*
X183468418Y-96524999D01*
X184050000Y-96524999D01*
X184131581Y-96524999D01*
X184202102Y-96518591D01*
X184202107Y-96518590D01*
X184364396Y-96468018D01*
X184509877Y-96380072D01*
X184630072Y-96259877D01*
X184718019Y-96114395D01*
X184768590Y-95952106D01*
X184775000Y-95881572D01*
X184775000Y-95875000D01*
X184050000Y-95875000D01*
X184050000Y-96524999D01*
X183468418Y-96524999D01*
X183549999Y-96524998D01*
X183550000Y-96524998D01*
X183550000Y-95875000D01*
X182050000Y-95875000D01*
X182050000Y-96524999D01*
X181468418Y-96524999D01*
X181549999Y-96524998D01*
X181550000Y-96524998D01*
X181550000Y-95875000D01*
X180825001Y-95875000D01*
X180825001Y-95881582D01*
X178875500Y-95881582D01*
X178875500Y-88851874D01*
X178895185Y-88784835D01*
X178911819Y-88764193D01*
X178989193Y-88686819D01*
X179050516Y-88653334D01*
X179076874Y-88650500D01*
X181275500Y-88650500D01*
X181342539Y-88670185D01*
G37*
%TD.AperFunction*%
%TA.AperFunction,Conductor*%
G36*
X160202109Y-90655705D02*
G01*
X160258042Y-90697577D01*
X160274957Y-90728554D01*
X160306202Y-90812328D01*
X160306206Y-90812335D01*
X160392452Y-90927544D01*
X160392455Y-90927547D01*
X160507664Y-91013793D01*
X160507671Y-91013797D01*
X160639081Y-91062810D01*
X160695015Y-91104681D01*
X160719432Y-91170145D01*
X160704580Y-91238418D01*
X160683430Y-91266673D01*
X160561503Y-91388600D01*
X160425965Y-91582169D01*
X160425964Y-91582171D01*
X160326098Y-91796335D01*
X160326094Y-91796344D01*
X160264938Y-92024586D01*
X160264936Y-92024596D01*
X160244341Y-92259999D01*
X160244341Y-92260000D01*
X160264936Y-92495403D01*
X160264938Y-92495413D01*
X160326094Y-92723655D01*
X160326096Y-92723659D01*
X160326097Y-92723663D01*
X160409744Y-92903044D01*
X160425965Y-92937830D01*
X160425967Y-92937834D01*
X160561501Y-93131395D01*
X160561506Y-93131402D01*
X160728597Y-93298493D01*
X160728603Y-93298498D01*
X160914158Y-93428425D01*
X160957783Y-93483002D01*
X160964977Y-93552500D01*
X160933454Y-93614855D01*
X160914158Y-93631575D01*
X160728597Y-93761505D01*
X160561505Y-93928597D01*
X160425965Y-94122169D01*
X160425964Y-94122171D01*
X160326098Y-94336335D01*
X160326094Y-94336344D01*
X160264938Y-94564586D01*
X160264936Y-94564596D01*
X160244341Y-94799997D01*
X160264936Y-95035403D01*
X160264938Y-95035413D01*
X160326094Y-95263655D01*
X160326096Y-95263659D01*
X160326097Y-95263663D01*
X160425965Y-95477830D01*
X160425967Y-95477834D01*
X160561501Y-95671395D01*
X160561506Y-95671402D01*
X160728597Y-95838493D01*
X160728603Y-95838498D01*
X160816403Y-95899976D01*
X160890846Y-95952102D01*
X160914594Y-95968730D01*
X160958219Y-96023307D01*
X160965413Y-96092805D01*
X160933890Y-96155160D01*
X160914595Y-96171880D01*
X160728922Y-96301890D01*
X160728920Y-96301891D01*
X160561891Y-96468920D01*
X160561886Y-96468926D01*
X160426400Y-96662420D01*
X160426399Y-96662422D01*
X160326570Y-96876507D01*
X160326567Y-96876513D01*
X160269364Y-97089999D01*
X160269364Y-97090000D01*
X161166988Y-97090000D01*
X161134075Y-97147007D01*
X161100000Y-97274174D01*
X161100000Y-97405826D01*
X161134075Y-97532993D01*
X161166988Y-97590000D01*
X160269364Y-97590000D01*
X160326567Y-97803486D01*
X160326570Y-97803492D01*
X160426399Y-98017578D01*
X160561894Y-98211082D01*
X160728917Y-98378105D01*
X160922421Y-98513600D01*
X161136507Y-98613429D01*
X161136516Y-98613433D01*
X161350000Y-98670634D01*
X161350000Y-97773012D01*
X161407007Y-97805925D01*
X161534174Y-97840000D01*
X161665826Y-97840000D01*
X161792993Y-97805925D01*
X161850000Y-97773012D01*
X161850000Y-98670633D01*
X162063483Y-98613433D01*
X162063492Y-98613429D01*
X162277578Y-98513600D01*
X162471082Y-98378105D01*
X162638105Y-98211082D01*
X162773600Y-98017578D01*
X162873429Y-97803492D01*
X162873432Y-97803486D01*
X162930636Y-97590000D01*
X162033012Y-97590000D01*
X162065925Y-97532993D01*
X162100000Y-97405826D01*
X162100000Y-97274174D01*
X162065925Y-97147007D01*
X162033012Y-97090000D01*
X162930636Y-97090000D01*
X162930635Y-97089999D01*
X162873432Y-96876513D01*
X162873429Y-96876507D01*
X162773600Y-96662422D01*
X162773599Y-96662420D01*
X162638113Y-96468926D01*
X162638108Y-96468920D01*
X162471078Y-96301890D01*
X162285405Y-96171879D01*
X162241780Y-96117302D01*
X162234588Y-96047804D01*
X162266110Y-95985449D01*
X162285406Y-95968730D01*
X162309146Y-95952107D01*
X162471401Y-95838495D01*
X162638495Y-95671401D01*
X162774035Y-95477830D01*
X162873903Y-95263663D01*
X162935063Y-95035408D01*
X162955659Y-94800000D01*
X162949833Y-94733410D01*
X162963599Y-94664911D01*
X163012214Y-94614728D01*
X163080243Y-94598794D01*
X163146087Y-94622169D01*
X163161042Y-94634922D01*
X163419369Y-94893249D01*
X163550599Y-94969015D01*
X163696968Y-95008234D01*
X163848501Y-95008234D01*
X164595500Y-95008234D01*
X164662539Y-95027919D01*
X164708294Y-95080723D01*
X164719500Y-95132234D01*
X164719500Y-100954191D01*
X164699815Y-101021230D01*
X164683181Y-101041872D01*
X164626923Y-101098129D01*
X164626917Y-101098137D01*
X164543255Y-101239603D01*
X164543254Y-101239606D01*
X164497402Y-101397426D01*
X164497401Y-101397432D01*
X164494500Y-101434298D01*
X164494500Y-103215701D01*
X164497401Y-103252567D01*
X164497402Y-103252573D01*
X164543254Y-103410393D01*
X164543255Y-103410396D01*
X164626917Y-103551862D01*
X164626923Y-103551870D01*
X164743129Y-103668076D01*
X164743138Y-103668083D01*
X164786569Y-103693768D01*
X164834253Y-103744837D01*
X164846756Y-103813579D01*
X164820111Y-103878168D01*
X164762775Y-103918098D01*
X164723448Y-103924500D01*
X164131163Y-103924500D01*
X164064124Y-103904815D01*
X164043482Y-103888181D01*
X162986818Y-102831517D01*
X162953333Y-102770194D01*
X162950499Y-102743836D01*
X162950499Y-101302129D01*
X162950498Y-101302123D01*
X162944091Y-101242516D01*
X162893797Y-101107671D01*
X162893793Y-101107664D01*
X162807547Y-100992455D01*
X162807544Y-100992452D01*
X162692335Y-100906206D01*
X162692328Y-100906202D01*
X162557482Y-100855908D01*
X162557483Y-100855908D01*
X162497883Y-100849501D01*
X162497881Y-100849500D01*
X162497873Y-100849500D01*
X162497864Y-100849500D01*
X160702129Y-100849500D01*
X160702123Y-100849501D01*
X160642516Y-100855908D01*
X160507671Y-100906202D01*
X160507664Y-100906206D01*
X160392455Y-100992452D01*
X160373453Y-101017836D01*
X160317519Y-101059706D01*
X160247827Y-101064690D01*
X160186506Y-101031205D01*
X159911819Y-100756518D01*
X159878334Y-100695195D01*
X159875500Y-100668837D01*
X159875500Y-90931162D01*
X159895185Y-90864123D01*
X159911815Y-90843485D01*
X160071095Y-90684205D01*
X160132417Y-90650721D01*
X160202109Y-90655705D01*
G37*
%TD.AperFunction*%
%TA.AperFunction,Conductor*%
G36*
X176768039Y-84569685D02*
G01*
X176813794Y-84622489D01*
X176825000Y-84674000D01*
X176825000Y-85774999D01*
X176831581Y-85774999D01*
X176902102Y-85768591D01*
X176902107Y-85768590D01*
X177064398Y-85718018D01*
X177153335Y-85664253D01*
X177220890Y-85646416D01*
X177287363Y-85667933D01*
X177331652Y-85721973D01*
X177339693Y-85791378D01*
X177323025Y-85835465D01*
X177288456Y-85891509D01*
X177288452Y-85891518D01*
X177235144Y-86052393D01*
X177225000Y-86151677D01*
X177225000Y-86175000D01*
X178326000Y-86175000D01*
X178393039Y-86194685D01*
X178438794Y-86247489D01*
X178450000Y-86299000D01*
X178450000Y-86551000D01*
X178430315Y-86618039D01*
X178377511Y-86663794D01*
X178326000Y-86675000D01*
X177225001Y-86675000D01*
X177225001Y-86698322D01*
X177235144Y-86797607D01*
X177288452Y-86958481D01*
X177288457Y-86958492D01*
X177377424Y-87102728D01*
X177377427Y-87102732D01*
X177386660Y-87111965D01*
X177420145Y-87173288D01*
X177415161Y-87242980D01*
X177386663Y-87287324D01*
X177377033Y-87296953D01*
X177377029Y-87296959D01*
X177288001Y-87441294D01*
X177287996Y-87441305D01*
X177234651Y-87602290D01*
X177224500Y-87701647D01*
X177224500Y-88248337D01*
X177224501Y-88248355D01*
X177234650Y-88347707D01*
X177234651Y-88347710D01*
X177287996Y-88508694D01*
X177288001Y-88508705D01*
X177377029Y-88653040D01*
X177377032Y-88653044D01*
X177488181Y-88764193D01*
X177521666Y-88825516D01*
X177524500Y-88851874D01*
X177524500Y-98268837D01*
X177504815Y-98335876D01*
X177488181Y-98356518D01*
X171987181Y-103857518D01*
X171925858Y-103891003D01*
X171856166Y-103886019D01*
X171800233Y-103844147D01*
X171775816Y-103778683D01*
X171775500Y-103769837D01*
X171775500Y-103718386D01*
X171770929Y-103668083D01*
X171769086Y-103647804D01*
X171718478Y-103485394D01*
X171630472Y-103339815D01*
X171630470Y-103339813D01*
X171630469Y-103339811D01*
X171510188Y-103219530D01*
X171508699Y-103218630D01*
X171364606Y-103131522D01*
X171202196Y-103080914D01*
X171202194Y-103080913D01*
X171202192Y-103080913D01*
X171152778Y-103076423D01*
X171131616Y-103074500D01*
X170468384Y-103074500D01*
X170449145Y-103076248D01*
X170397807Y-103080913D01*
X170235393Y-103131522D01*
X170154418Y-103180474D01*
X170093648Y-103217210D01*
X170026095Y-103235046D01*
X169959622Y-103213528D01*
X169915334Y-103159488D01*
X169905500Y-103111093D01*
X169905500Y-101434313D01*
X169905499Y-101434298D01*
X169905208Y-101430606D01*
X169902598Y-101397431D01*
X169896103Y-101375076D01*
X169868836Y-101281224D01*
X169856744Y-101239602D01*
X169773081Y-101098135D01*
X169773079Y-101098133D01*
X169773076Y-101098129D01*
X169656870Y-100981923D01*
X169656862Y-100981917D01*
X169515396Y-100898255D01*
X169515393Y-100898254D01*
X169357573Y-100852402D01*
X169357567Y-100852401D01*
X169320701Y-100849500D01*
X169320694Y-100849500D01*
X168889306Y-100849500D01*
X168889298Y-100849500D01*
X168852432Y-100852401D01*
X168852426Y-100852402D01*
X168694606Y-100898254D01*
X168694603Y-100898255D01*
X168553137Y-100981917D01*
X168546969Y-100986702D01*
X168545072Y-100984256D01*
X168496358Y-101010857D01*
X168426666Y-101005873D01*
X168394296Y-100985069D01*
X168393031Y-100986702D01*
X168386862Y-100981917D01*
X168245396Y-100898255D01*
X168245393Y-100898254D01*
X168087573Y-100852402D01*
X168087567Y-100852401D01*
X168050701Y-100849500D01*
X168050694Y-100849500D01*
X167619306Y-100849500D01*
X167619298Y-100849500D01*
X167582432Y-100852401D01*
X167582426Y-100852402D01*
X167424606Y-100898254D01*
X167424603Y-100898255D01*
X167327621Y-100955610D01*
X167259897Y-100972793D01*
X167193634Y-100950633D01*
X167149871Y-100896167D01*
X167140500Y-100848878D01*
X167140500Y-93947449D01*
X167160185Y-93880410D01*
X167176814Y-93859773D01*
X175597541Y-85439046D01*
X175658860Y-85405564D01*
X175728552Y-85410548D01*
X175784485Y-85452420D01*
X175791335Y-85462580D01*
X175819927Y-85509877D01*
X175940122Y-85630072D01*
X176085604Y-85718019D01*
X176085603Y-85718019D01*
X176247894Y-85768590D01*
X176247893Y-85768590D01*
X176318408Y-85774998D01*
X176318426Y-85774999D01*
X176324999Y-85774998D01*
X176325000Y-85774998D01*
X176325000Y-84762950D01*
X176344685Y-84695911D01*
X176361319Y-84675269D01*
X176450269Y-84586319D01*
X176511592Y-84552834D01*
X176537950Y-84550000D01*
X176701000Y-84550000D01*
X176768039Y-84569685D01*
G37*
%TD.AperFunction*%
%TA.AperFunction,Conductor*%
G36*
X189654667Y-91027593D02*
G01*
X189686990Y-91050869D01*
X190079456Y-91443334D01*
X190464486Y-91828364D01*
X191239487Y-92603365D01*
X191346637Y-92710515D01*
X191477867Y-92786281D01*
X191624236Y-92825500D01*
X206427630Y-92825500D01*
X206494669Y-92845185D01*
X206540424Y-92897989D01*
X206550368Y-92967147D01*
X206521343Y-93030703D01*
X206500515Y-93049818D01*
X206394129Y-93127111D01*
X206267466Y-93267785D01*
X206172821Y-93431715D01*
X206172818Y-93431722D01*
X206114327Y-93611740D01*
X206114326Y-93611744D01*
X206094540Y-93800000D01*
X206114326Y-93988256D01*
X206114327Y-93988259D01*
X206174744Y-94174204D01*
X206176739Y-94244045D01*
X206144494Y-94300203D01*
X203556518Y-96888181D01*
X203495195Y-96921666D01*
X203468837Y-96924500D01*
X194331163Y-96924500D01*
X194264124Y-96904815D01*
X194243482Y-96888181D01*
X189561818Y-92206517D01*
X189528333Y-92145194D01*
X189525499Y-92118836D01*
X189525499Y-91901662D01*
X189525498Y-91901644D01*
X189515349Y-91802292D01*
X189515348Y-91802289D01*
X189492093Y-91732109D01*
X189462003Y-91641303D01*
X189461999Y-91641297D01*
X189461998Y-91641294D01*
X189372970Y-91496959D01*
X189372967Y-91496955D01*
X189363693Y-91487681D01*
X189330208Y-91426358D01*
X189335192Y-91356666D01*
X189363693Y-91312319D01*
X189372968Y-91303044D01*
X189462003Y-91158697D01*
X189481604Y-91099544D01*
X189521375Y-91042101D01*
X189585891Y-91015278D01*
X189654667Y-91027593D01*
G37*
%TD.AperFunction*%
%TA.AperFunction,Conductor*%
G36*
X168975520Y-70195185D02*
G01*
X168996163Y-70211820D01*
X169039811Y-70255468D01*
X169039811Y-70255469D01*
X169039813Y-70255470D01*
X169039815Y-70255472D01*
X169185394Y-70343478D01*
X169347804Y-70394086D01*
X169418384Y-70400500D01*
X169418387Y-70400500D01*
X170081613Y-70400500D01*
X170081616Y-70400500D01*
X170152196Y-70394086D01*
X170314606Y-70343478D01*
X170460185Y-70255472D01*
X170462313Y-70253344D01*
X170464255Y-70252282D01*
X170466094Y-70250843D01*
X170466333Y-70251148D01*
X170523634Y-70219855D01*
X170593326Y-70224834D01*
X170633868Y-70250890D01*
X170633906Y-70250843D01*
X170634410Y-70251238D01*
X170637687Y-70253344D01*
X170639812Y-70255470D01*
X170639814Y-70255471D01*
X170639815Y-70255472D01*
X170785394Y-70343478D01*
X170947804Y-70394086D01*
X171018384Y-70400500D01*
X171018387Y-70400500D01*
X171681613Y-70400500D01*
X171681616Y-70400500D01*
X171752196Y-70394086D01*
X171914606Y-70343478D01*
X172060185Y-70255472D01*
X172062313Y-70253344D01*
X172064255Y-70252282D01*
X172066094Y-70250843D01*
X172066333Y-70251148D01*
X172123634Y-70219855D01*
X172193326Y-70224834D01*
X172233868Y-70250890D01*
X172233906Y-70250843D01*
X172234410Y-70251238D01*
X172237687Y-70253344D01*
X172239812Y-70255470D01*
X172239814Y-70255471D01*
X172239815Y-70255472D01*
X172385394Y-70343478D01*
X172547804Y-70394086D01*
X172618384Y-70400500D01*
X172618387Y-70400500D01*
X173281613Y-70400500D01*
X173281616Y-70400500D01*
X173352196Y-70394086D01*
X173514606Y-70343478D01*
X173593172Y-70295982D01*
X173660726Y-70278146D01*
X173707754Y-70288818D01*
X173870197Y-70361144D01*
X174055354Y-70400500D01*
X174055355Y-70400500D01*
X174244644Y-70400500D01*
X174244646Y-70400500D01*
X174429803Y-70361144D01*
X174592244Y-70288819D01*
X174661491Y-70279534D01*
X174706825Y-70295981D01*
X174785394Y-70343478D01*
X174947804Y-70394086D01*
X175018384Y-70400500D01*
X175018387Y-70400500D01*
X175681613Y-70400500D01*
X175681616Y-70400500D01*
X175752196Y-70394086D01*
X175914606Y-70343478D01*
X176060185Y-70255472D01*
X176062313Y-70253344D01*
X176064255Y-70252282D01*
X176066094Y-70250843D01*
X176066333Y-70251148D01*
X176123634Y-70219855D01*
X176193326Y-70224834D01*
X176233868Y-70250890D01*
X176233906Y-70250843D01*
X176234410Y-70251238D01*
X176237687Y-70253344D01*
X176239812Y-70255470D01*
X176239814Y-70255471D01*
X176239815Y-70255472D01*
X176385394Y-70343478D01*
X176547804Y-70394086D01*
X176618384Y-70400500D01*
X176618387Y-70400500D01*
X177281613Y-70400500D01*
X177281616Y-70400500D01*
X177352196Y-70394086D01*
X177514606Y-70343478D01*
X177660185Y-70255472D01*
X177662313Y-70253344D01*
X177664255Y-70252282D01*
X177666094Y-70250843D01*
X177666333Y-70251148D01*
X177723634Y-70219855D01*
X177793326Y-70224834D01*
X177833868Y-70250890D01*
X177833906Y-70250843D01*
X177834410Y-70251238D01*
X177837687Y-70253344D01*
X177839812Y-70255470D01*
X177839814Y-70255471D01*
X177839815Y-70255472D01*
X177985394Y-70343478D01*
X178147804Y-70394086D01*
X178218384Y-70400500D01*
X178218387Y-70400500D01*
X178881613Y-70400500D01*
X178881616Y-70400500D01*
X178952196Y-70394086D01*
X179114606Y-70343478D01*
X179260185Y-70255472D01*
X179303837Y-70211820D01*
X179365160Y-70178334D01*
X179391519Y-70175500D01*
X188368837Y-70175500D01*
X188435876Y-70195185D01*
X188456518Y-70211819D01*
X192357518Y-74112819D01*
X192391003Y-74174142D01*
X192386019Y-74243834D01*
X192344147Y-74299767D01*
X192278683Y-74324184D01*
X192269837Y-74324500D01*
X185777180Y-74324500D01*
X185630809Y-74363719D01*
X185499581Y-74439485D01*
X185499578Y-74439487D01*
X184273864Y-75665200D01*
X184212541Y-75698685D01*
X184170000Y-75700458D01*
X184162722Y-75699500D01*
X184162720Y-75699500D01*
X183937280Y-75699500D01*
X183937272Y-75699500D01*
X183850393Y-75710938D01*
X183824764Y-75714313D01*
X183824762Y-75714313D01*
X183816708Y-75715374D01*
X183816316Y-75712399D01*
X183783684Y-75712399D01*
X183783292Y-75715374D01*
X183775237Y-75714313D01*
X183775236Y-75714313D01*
X183712806Y-75706094D01*
X183683321Y-75702212D01*
X183619425Y-75673945D01*
X183591820Y-75636134D01*
X183590345Y-75636986D01*
X183512488Y-75502135D01*
X183510515Y-75498717D01*
X183403365Y-75391567D01*
X183151283Y-75139485D01*
X183082119Y-75099553D01*
X183020054Y-75063719D01*
X182936476Y-75041325D01*
X182873684Y-75024500D01*
X182873683Y-75024500D01*
X181595850Y-75024500D01*
X181528811Y-75004815D01*
X181483056Y-74952011D01*
X181473112Y-74882853D01*
X181502137Y-74819297D01*
X181508169Y-74812819D01*
X181881502Y-74439485D01*
X182063749Y-74257237D01*
X182125070Y-74223754D01*
X182137530Y-74221701D01*
X182162461Y-74218893D01*
X182162465Y-74218891D01*
X182162468Y-74218891D01*
X182316772Y-74164897D01*
X182316771Y-74164897D01*
X182316775Y-74164896D01*
X182455204Y-74077915D01*
X182570808Y-73962311D01*
X182657789Y-73823882D01*
X182711786Y-73669568D01*
X182711987Y-73667784D01*
X182730091Y-73507110D01*
X182730091Y-73507103D01*
X182711787Y-73344651D01*
X182711786Y-73344649D01*
X182711786Y-73344646D01*
X182657789Y-73190332D01*
X182570808Y-73051903D01*
X182455204Y-72936299D01*
X182316774Y-72849317D01*
X182162455Y-72795319D01*
X182000004Y-72777016D01*
X181999996Y-72777016D01*
X181837544Y-72795319D01*
X181683225Y-72849317D01*
X181544795Y-72936299D01*
X181429194Y-73051900D01*
X181429189Y-73051906D01*
X181415021Y-73074454D01*
X181362685Y-73120743D01*
X181293631Y-73131389D01*
X181269076Y-73125520D01*
X181162455Y-73088212D01*
X181066532Y-73077404D01*
X181030213Y-73065454D01*
X181029644Y-73066829D01*
X181022134Y-73063718D01*
X180914984Y-73035008D01*
X180875766Y-73024500D01*
X180875765Y-73024500D01*
X180395206Y-73024500D01*
X180328167Y-73004815D01*
X180282412Y-72952011D01*
X180278164Y-72941454D01*
X180257788Y-72883223D01*
X180170807Y-72744795D01*
X180055204Y-72629192D01*
X179916774Y-72542210D01*
X179762455Y-72488212D01*
X179600004Y-72469909D01*
X179599996Y-72469909D01*
X179437544Y-72488212D01*
X179283225Y-72542210D01*
X179144795Y-72629192D01*
X179029192Y-72744795D01*
X178942210Y-72883225D01*
X178888212Y-73037544D01*
X178869909Y-73199996D01*
X178869909Y-73200003D01*
X178888212Y-73362455D01*
X178942210Y-73516774D01*
X178948706Y-73527112D01*
X179029192Y-73655204D01*
X179144796Y-73770808D01*
X179241740Y-73831722D01*
X179283227Y-73857790D01*
X179437531Y-73911784D01*
X179437536Y-73911785D01*
X179437539Y-73911786D01*
X179462453Y-73914593D01*
X179526866Y-73941657D01*
X179536252Y-73950132D01*
X179539485Y-73953365D01*
X179646635Y-74060515D01*
X179777865Y-74136281D01*
X179924233Y-74175500D01*
X179924234Y-74175500D01*
X180218364Y-74175500D01*
X180285403Y-74195185D01*
X180331158Y-74247989D01*
X180341102Y-74317147D01*
X180312077Y-74380703D01*
X180306045Y-74387181D01*
X177139487Y-77553739D01*
X177139483Y-77553745D01*
X177063720Y-77684969D01*
X177063719Y-77684972D01*
X177024648Y-77830790D01*
X177024500Y-77831341D01*
X177024500Y-77831342D01*
X177024500Y-79725764D01*
X177063719Y-79872135D01*
X177085001Y-79908995D01*
X177139485Y-80003364D01*
X177139487Y-80003366D01*
X178748940Y-81612819D01*
X178782425Y-81674142D01*
X178777441Y-81743834D01*
X178735569Y-81799767D01*
X178670105Y-81824184D01*
X178661259Y-81824500D01*
X175764742Y-81824500D01*
X175697703Y-81804815D01*
X175677061Y-81788181D01*
X170036818Y-76147938D01*
X170003333Y-76086615D01*
X170000499Y-76060257D01*
X170000499Y-75502129D01*
X170000498Y-75502123D01*
X170000497Y-75502116D01*
X169994091Y-75442517D01*
X169943796Y-75307669D01*
X169943795Y-75307668D01*
X169943793Y-75307664D01*
X169857547Y-75192455D01*
X169857544Y-75192452D01*
X169742335Y-75106206D01*
X169742328Y-75106202D01*
X169607482Y-75055908D01*
X169607483Y-75055908D01*
X169547883Y-75049501D01*
X169547881Y-75049500D01*
X169547873Y-75049500D01*
X169547864Y-75049500D01*
X168452129Y-75049500D01*
X168452123Y-75049501D01*
X168392516Y-75055908D01*
X168257671Y-75106202D01*
X168257664Y-75106206D01*
X168142455Y-75192452D01*
X168142452Y-75192455D01*
X168056206Y-75307664D01*
X168056202Y-75307671D01*
X168005908Y-75442517D01*
X167999866Y-75498720D01*
X167999501Y-75502123D01*
X167999500Y-75502135D01*
X167999500Y-76347870D01*
X167999501Y-76347876D01*
X168005908Y-76407483D01*
X168056202Y-76542328D01*
X168056206Y-76542335D01*
X168142452Y-76657544D01*
X168142455Y-76657547D01*
X168257664Y-76743793D01*
X168257671Y-76743797D01*
X168302618Y-76760561D01*
X168392517Y-76794091D01*
X168452127Y-76800500D01*
X169010257Y-76800499D01*
X169077296Y-76820183D01*
X169097938Y-76836818D01*
X174373939Y-82112819D01*
X174407424Y-82174142D01*
X174402440Y-82243834D01*
X174360568Y-82299767D01*
X174295104Y-82324184D01*
X174286258Y-82324500D01*
X170664742Y-82324500D01*
X170597703Y-82304815D01*
X170577061Y-82288181D01*
X170036818Y-81747938D01*
X170003333Y-81686615D01*
X170000499Y-81660257D01*
X170000499Y-81102129D01*
X170000498Y-81102123D01*
X170000497Y-81102116D01*
X169994091Y-81042517D01*
X169992236Y-81037544D01*
X169943797Y-80907671D01*
X169943793Y-80907664D01*
X169857547Y-80792455D01*
X169857544Y-80792452D01*
X169735231Y-80700888D01*
X169736827Y-80698754D01*
X169697212Y-80659140D01*
X169682360Y-80590867D01*
X169706776Y-80525403D01*
X169736029Y-80500059D01*
X169734989Y-80498669D01*
X169857187Y-80407190D01*
X169857190Y-80407187D01*
X169943350Y-80292093D01*
X169943354Y-80292086D01*
X169993596Y-80157379D01*
X169993598Y-80157372D01*
X169999999Y-80097844D01*
X170000000Y-80097827D01*
X170000000Y-79925000D01*
X168000000Y-79925000D01*
X168000000Y-80097844D01*
X168006401Y-80157372D01*
X168006403Y-80157379D01*
X168056645Y-80292086D01*
X168056649Y-80292093D01*
X168142809Y-80407187D01*
X168142812Y-80407190D01*
X168265011Y-80498669D01*
X168263365Y-80500866D01*
X168302782Y-80540276D01*
X168317640Y-80608547D01*
X168293229Y-80674014D01*
X168263766Y-80699548D01*
X168264769Y-80700888D01*
X168142455Y-80792452D01*
X168142452Y-80792455D01*
X168056206Y-80907664D01*
X168056202Y-80907671D01*
X168005908Y-81042517D01*
X168001880Y-81079990D01*
X167999501Y-81102123D01*
X167999500Y-81102135D01*
X167999500Y-81947870D01*
X167999501Y-81947876D01*
X168005908Y-82007483D01*
X168056202Y-82142328D01*
X168056206Y-82142335D01*
X168142452Y-82257544D01*
X168142455Y-82257547D01*
X168257664Y-82343793D01*
X168257671Y-82343797D01*
X168302618Y-82360561D01*
X168392517Y-82394091D01*
X168452127Y-82400500D01*
X169010257Y-82400499D01*
X169077296Y-82420183D01*
X169097938Y-82436818D01*
X169914485Y-83253365D01*
X170021635Y-83360515D01*
X170152865Y-83436281D01*
X170299234Y-83475500D01*
X175138992Y-83475500D01*
X175206031Y-83495185D01*
X175251786Y-83547989D01*
X175261730Y-83617147D01*
X175232705Y-83680703D01*
X175226673Y-83687181D01*
X165092939Y-93820915D01*
X165031616Y-93854400D01*
X165005258Y-93857234D01*
X164062476Y-93857234D01*
X163995437Y-93837549D01*
X163974795Y-93820915D01*
X162925294Y-92771414D01*
X162891809Y-92710091D01*
X162893199Y-92651644D01*
X162935063Y-92495408D01*
X162955659Y-92260000D01*
X162935063Y-92024592D01*
X162882485Y-91828364D01*
X162873905Y-91796344D01*
X162873904Y-91796343D01*
X162873903Y-91796337D01*
X162774035Y-91582171D01*
X162764444Y-91568474D01*
X162638496Y-91388600D01*
X162599680Y-91349784D01*
X162516567Y-91266671D01*
X162483084Y-91205351D01*
X162488068Y-91135659D01*
X162529939Y-91079725D01*
X162560915Y-91062810D01*
X162692331Y-91013796D01*
X162807546Y-90927546D01*
X162893796Y-90812331D01*
X162944091Y-90677483D01*
X162950500Y-90617873D01*
X162950499Y-88822128D01*
X162944091Y-88762517D01*
X162909653Y-88670185D01*
X162893797Y-88627671D01*
X162893793Y-88627664D01*
X162807547Y-88512455D01*
X162807544Y-88512452D01*
X162692335Y-88426206D01*
X162692328Y-88426202D01*
X162557482Y-88375908D01*
X162557483Y-88375908D01*
X162497883Y-88369501D01*
X162497881Y-88369500D01*
X162497873Y-88369500D01*
X162497865Y-88369500D01*
X162399500Y-88369500D01*
X162332461Y-88349815D01*
X162286706Y-88297011D01*
X162275500Y-88245500D01*
X162275500Y-86269556D01*
X162295185Y-86202517D01*
X162347989Y-86156762D01*
X162412756Y-86146267D01*
X162452127Y-86150500D01*
X163547872Y-86150499D01*
X163607483Y-86144091D01*
X163742331Y-86093796D01*
X163857546Y-86007546D01*
X163943796Y-85892331D01*
X163994091Y-85757483D01*
X164000500Y-85697873D01*
X164000500Y-85697844D01*
X168000000Y-85697844D01*
X168006401Y-85757372D01*
X168006403Y-85757379D01*
X168056645Y-85892086D01*
X168056649Y-85892093D01*
X168142809Y-86007187D01*
X168142812Y-86007190D01*
X168257906Y-86093350D01*
X168257913Y-86093354D01*
X168392620Y-86143596D01*
X168392627Y-86143598D01*
X168452155Y-86149999D01*
X168452172Y-86150000D01*
X168750000Y-86150000D01*
X169250000Y-86150000D01*
X169547828Y-86150000D01*
X169547844Y-86149999D01*
X169607372Y-86143598D01*
X169607379Y-86143596D01*
X169742086Y-86093354D01*
X169742093Y-86093350D01*
X169857187Y-86007190D01*
X169857190Y-86007187D01*
X169943350Y-85892093D01*
X169943354Y-85892086D01*
X169993596Y-85757379D01*
X169993598Y-85757372D01*
X169999999Y-85697844D01*
X170000000Y-85697827D01*
X170000000Y-85525000D01*
X169250000Y-85525000D01*
X169250000Y-86150000D01*
X168750000Y-86150000D01*
X168750000Y-85525000D01*
X168000000Y-85525000D01*
X168000000Y-85697844D01*
X164000500Y-85697844D01*
X164000499Y-84852155D01*
X168000000Y-84852155D01*
X168000000Y-85025000D01*
X168750000Y-85025000D01*
X169250000Y-85025000D01*
X170000000Y-85025000D01*
X170000000Y-84852172D01*
X169999999Y-84852155D01*
X169993598Y-84792627D01*
X169993596Y-84792620D01*
X169943354Y-84657913D01*
X169943350Y-84657906D01*
X169857190Y-84542812D01*
X169857187Y-84542809D01*
X169742093Y-84456649D01*
X169742086Y-84456645D01*
X169607379Y-84406403D01*
X169607372Y-84406401D01*
X169547844Y-84400000D01*
X169250000Y-84400000D01*
X169250000Y-85025000D01*
X168750000Y-85025000D01*
X168750000Y-84400000D01*
X168452155Y-84400000D01*
X168392627Y-84406401D01*
X168392620Y-84406403D01*
X168257913Y-84456645D01*
X168257906Y-84456649D01*
X168142812Y-84542809D01*
X168142809Y-84542812D01*
X168056649Y-84657906D01*
X168056645Y-84657913D01*
X168006403Y-84792620D01*
X168006401Y-84792627D01*
X168000000Y-84852155D01*
X164000499Y-84852155D01*
X164000499Y-84852128D01*
X163994091Y-84792517D01*
X163988626Y-84777865D01*
X163943797Y-84657671D01*
X163943793Y-84657664D01*
X163857547Y-84542455D01*
X163857544Y-84542452D01*
X163742335Y-84456206D01*
X163742328Y-84456202D01*
X163607482Y-84405908D01*
X163607483Y-84405908D01*
X163547883Y-84399501D01*
X163547881Y-84399500D01*
X163547873Y-84399500D01*
X163547864Y-84399500D01*
X162452129Y-84399500D01*
X162452120Y-84399501D01*
X162412752Y-84403733D01*
X162343993Y-84391325D01*
X162292857Y-84343714D01*
X162275500Y-84280443D01*
X162275500Y-82519556D01*
X162295185Y-82452517D01*
X162347989Y-82406762D01*
X162412756Y-82396267D01*
X162452127Y-82400500D01*
X163547872Y-82400499D01*
X163607483Y-82394091D01*
X163742331Y-82343796D01*
X163857546Y-82257546D01*
X163943796Y-82142331D01*
X163994091Y-82007483D01*
X164000500Y-81947873D01*
X164000499Y-81102128D01*
X163994091Y-81042517D01*
X163992236Y-81037544D01*
X163943797Y-80907671D01*
X163943793Y-80907664D01*
X163857547Y-80792455D01*
X163857544Y-80792452D01*
X163735231Y-80700888D01*
X163736930Y-80698617D01*
X163697743Y-80659435D01*
X163682886Y-80591163D01*
X163707298Y-80525697D01*
X163736311Y-80500556D01*
X163735231Y-80499112D01*
X163825983Y-80431174D01*
X163857546Y-80407546D01*
X163943796Y-80292331D01*
X163994091Y-80157483D01*
X164000500Y-80097873D01*
X164000499Y-79252155D01*
X168000000Y-79252155D01*
X168000000Y-79425000D01*
X168750000Y-79425000D01*
X169250000Y-79425000D01*
X170000000Y-79425000D01*
X170000000Y-79252172D01*
X169999999Y-79252155D01*
X169993598Y-79192627D01*
X169993596Y-79192620D01*
X169943354Y-79057913D01*
X169943350Y-79057906D01*
X169857190Y-78942812D01*
X169857187Y-78942809D01*
X169742093Y-78856649D01*
X169742086Y-78856645D01*
X169607379Y-78806403D01*
X169607372Y-78806401D01*
X169547844Y-78800000D01*
X169250000Y-78800000D01*
X169250000Y-79425000D01*
X168750000Y-79425000D01*
X168750000Y-78800000D01*
X168452155Y-78800000D01*
X168392627Y-78806401D01*
X168392620Y-78806403D01*
X168257913Y-78856645D01*
X168257906Y-78856649D01*
X168142812Y-78942809D01*
X168142809Y-78942812D01*
X168056649Y-79057906D01*
X168056645Y-79057913D01*
X168006403Y-79192620D01*
X168006401Y-79192627D01*
X168000000Y-79252155D01*
X164000499Y-79252155D01*
X164000499Y-79252128D01*
X163994091Y-79192517D01*
X163978233Y-79150000D01*
X163943797Y-79057671D01*
X163943793Y-79057664D01*
X163857547Y-78942455D01*
X163857544Y-78942452D01*
X163742335Y-78856206D01*
X163742328Y-78856202D01*
X163607482Y-78805908D01*
X163607483Y-78805908D01*
X163547883Y-78799501D01*
X163547881Y-78799500D01*
X163547873Y-78799500D01*
X163547864Y-78799500D01*
X162452129Y-78799500D01*
X162452120Y-78799501D01*
X162412752Y-78803733D01*
X162343993Y-78791325D01*
X162292857Y-78743714D01*
X162275500Y-78680443D01*
X162275500Y-76919556D01*
X162295185Y-76852517D01*
X162347989Y-76806762D01*
X162412756Y-76796267D01*
X162452127Y-76800500D01*
X163547872Y-76800499D01*
X163607483Y-76794091D01*
X163742331Y-76743796D01*
X163857546Y-76657546D01*
X163943796Y-76542331D01*
X163994091Y-76407483D01*
X164000500Y-76347873D01*
X164000499Y-75502128D01*
X163994091Y-75442517D01*
X163943796Y-75307669D01*
X163943795Y-75307668D01*
X163943793Y-75307664D01*
X163857547Y-75192455D01*
X163857544Y-75192452D01*
X163742335Y-75106206D01*
X163742328Y-75106202D01*
X163607482Y-75055908D01*
X163607483Y-75055908D01*
X163547883Y-75049501D01*
X163547881Y-75049500D01*
X163547873Y-75049500D01*
X163547864Y-75049500D01*
X162452129Y-75049500D01*
X162452120Y-75049501D01*
X162412752Y-75053733D01*
X162343993Y-75041325D01*
X162292857Y-74993714D01*
X162275500Y-74930443D01*
X162275500Y-70299500D01*
X162295185Y-70232461D01*
X162347989Y-70186706D01*
X162399500Y-70175500D01*
X168908481Y-70175500D01*
X168975520Y-70195185D01*
G37*
%TD.AperFunction*%
%TA.AperFunction,Conductor*%
G36*
X194993039Y-78744685D02*
G01*
X195038794Y-78797489D01*
X195050000Y-78849000D01*
X195050000Y-79924999D01*
X195100500Y-79924999D01*
X195167539Y-79944684D01*
X195213294Y-79997488D01*
X195224500Y-80048999D01*
X195224500Y-85986734D01*
X195224500Y-86138266D01*
X195239617Y-86194685D01*
X195263720Y-86284637D01*
X195263720Y-86284638D01*
X195291660Y-86333031D01*
X195308133Y-86400931D01*
X195285281Y-86466958D01*
X195230359Y-86510149D01*
X195160806Y-86516790D01*
X195098703Y-86484774D01*
X195096592Y-86482712D01*
X194461819Y-85847939D01*
X194428334Y-85786616D01*
X194425500Y-85760258D01*
X194425500Y-84924236D01*
X194425500Y-84924235D01*
X194417794Y-84895477D01*
X194386281Y-84777866D01*
X194310515Y-84646636D01*
X192796905Y-83133026D01*
X192763420Y-83071703D01*
X192768404Y-83002011D01*
X192810276Y-82946078D01*
X192870703Y-82922125D01*
X192962455Y-82911787D01*
X192962456Y-82911786D01*
X192962461Y-82911786D01*
X193116775Y-82857789D01*
X193134027Y-82846948D01*
X193201263Y-82827948D01*
X193265972Y-82846948D01*
X193283225Y-82857789D01*
X193437539Y-82911786D01*
X193437542Y-82911786D01*
X193437544Y-82911787D01*
X193599996Y-82930091D01*
X193600000Y-82930091D01*
X193600004Y-82930091D01*
X193762455Y-82911787D01*
X193762456Y-82911786D01*
X193762461Y-82911786D01*
X193916775Y-82857789D01*
X194055204Y-82770808D01*
X194170808Y-82655204D01*
X194257789Y-82516775D01*
X194311786Y-82362461D01*
X194313889Y-82343796D01*
X194330091Y-82200003D01*
X194330091Y-82199996D01*
X194311149Y-82031879D01*
X194323204Y-81963058D01*
X194370553Y-81911678D01*
X194393409Y-81900956D01*
X194516775Y-81857789D01*
X194655204Y-81770808D01*
X194770808Y-81655204D01*
X194857789Y-81516775D01*
X194911786Y-81362461D01*
X194911787Y-81362455D01*
X194930091Y-81200003D01*
X194930091Y-81199996D01*
X194911787Y-81037544D01*
X194911786Y-81037542D01*
X194911786Y-81037539D01*
X194857789Y-80883225D01*
X194770808Y-80744796D01*
X194682621Y-80656609D01*
X194649136Y-80595286D01*
X194654120Y-80525594D01*
X194657372Y-80517965D01*
X194657787Y-80516777D01*
X194657789Y-80516775D01*
X194711786Y-80362461D01*
X194711786Y-80362459D01*
X194711787Y-80362457D01*
X194730091Y-80200003D01*
X194730091Y-80199996D01*
X194711787Y-80037544D01*
X194711786Y-80037542D01*
X194711786Y-80037539D01*
X194657789Y-79883225D01*
X194570808Y-79744796D01*
X194569006Y-79741928D01*
X194550000Y-79675956D01*
X194550000Y-79225000D01*
X193174000Y-79225000D01*
X193106961Y-79205315D01*
X193061206Y-79152511D01*
X193050000Y-79101000D01*
X193050000Y-78849000D01*
X193069685Y-78781961D01*
X193122489Y-78736206D01*
X193174000Y-78725000D01*
X194926000Y-78725000D01*
X194993039Y-78744685D01*
G37*
%TD.AperFunction*%
%TD*%
M02*
