%TF.GenerationSoftware,KiCad,Pcbnew,8.0.4*%
%TF.CreationDate,2024-08-28T18:13:53+02:00*%
%TF.ProjectId,Controller,436f6e74-726f-46c6-9c65-722e6b696361,v0*%
%TF.SameCoordinates,Original*%
%TF.FileFunction,Drillmap*%
%TF.FilePolarity,Positive*%
%FSLAX45Y45*%
G04 Gerber Fmt 4.5, Leading zero omitted, Abs format (unit mm)*
G04 Created by KiCad (PCBNEW 8.0.4) date 2024-08-28 18:13:53*
%MOMM*%
%LPD*%
G01*
G04 APERTURE LIST*
%ADD10C,0.100000*%
%ADD11C,0.200000*%
G04 APERTURE END LIST*
D10*
X15800000Y-5300000D02*
G75*
G02*
X16100000Y-5000000I300000J0D01*
G01*
X24700000Y-5000000D02*
G75*
G02*
X25000000Y-5300000I0J-300000D01*
G01*
X25000000Y-10900000D02*
G75*
G02*
X24700000Y-11200000I-300000J0D01*
G01*
X25000000Y-5300000D02*
X25000000Y-10900000D01*
X24700000Y-11200000D02*
X16100000Y-11200000D01*
X15800000Y-10900000D02*
X15800000Y-5300000D01*
X16100000Y-5000000D02*
X24700000Y-5000000D01*
X16100000Y-11200000D02*
G75*
G02*
X15800000Y-10900000I0J300000D01*
G01*
D11*
D10*
X16305370Y-5296470D02*
X16404430Y-5395530D01*
X16404430Y-5296470D02*
X16305370Y-5395530D01*
X16406970Y-5804470D02*
X16506030Y-5903530D01*
X16506030Y-5804470D02*
X16406970Y-5903530D01*
X16508570Y-5296470D02*
X16607630Y-5395530D01*
X16607630Y-5296470D02*
X16508570Y-5395530D01*
X17765000Y-5392500D02*
G75*
G02*
X17665000Y-5392500I-50000J0D01*
G01*
X17665000Y-5392500D02*
G75*
G02*
X17765000Y-5392500I50000J0D01*
G01*
X18565000Y-5392500D02*
G75*
G02*
X18465000Y-5392500I-50000J0D01*
G01*
X18465000Y-5392500D02*
G75*
G02*
X18565000Y-5392500I50000J0D01*
G01*
D11*
X16055777Y-11516484D02*
X16055777Y-11316484D01*
X16055777Y-11316484D02*
X16103396Y-11316484D01*
X16103396Y-11316484D02*
X16131967Y-11326008D01*
X16131967Y-11326008D02*
X16151015Y-11345055D01*
X16151015Y-11345055D02*
X16160539Y-11364103D01*
X16160539Y-11364103D02*
X16170062Y-11402198D01*
X16170062Y-11402198D02*
X16170062Y-11430769D01*
X16170062Y-11430769D02*
X16160539Y-11468865D01*
X16160539Y-11468865D02*
X16151015Y-11487912D01*
X16151015Y-11487912D02*
X16131967Y-11506960D01*
X16131967Y-11506960D02*
X16103396Y-11516484D01*
X16103396Y-11516484D02*
X16055777Y-11516484D01*
X16255777Y-11516484D02*
X16255777Y-11383150D01*
X16255777Y-11421246D02*
X16265301Y-11402198D01*
X16265301Y-11402198D02*
X16274824Y-11392674D01*
X16274824Y-11392674D02*
X16293872Y-11383150D01*
X16293872Y-11383150D02*
X16312920Y-11383150D01*
X16379586Y-11516484D02*
X16379586Y-11383150D01*
X16379586Y-11316484D02*
X16370062Y-11326008D01*
X16370062Y-11326008D02*
X16379586Y-11335531D01*
X16379586Y-11335531D02*
X16389110Y-11326008D01*
X16389110Y-11326008D02*
X16379586Y-11316484D01*
X16379586Y-11316484D02*
X16379586Y-11335531D01*
X16503396Y-11516484D02*
X16484348Y-11506960D01*
X16484348Y-11506960D02*
X16474824Y-11487912D01*
X16474824Y-11487912D02*
X16474824Y-11316484D01*
X16608158Y-11516484D02*
X16589110Y-11506960D01*
X16589110Y-11506960D02*
X16579586Y-11487912D01*
X16579586Y-11487912D02*
X16579586Y-11316484D01*
X16836729Y-11516484D02*
X16836729Y-11316484D01*
X16836729Y-11316484D02*
X16903396Y-11459341D01*
X16903396Y-11459341D02*
X16970063Y-11316484D01*
X16970063Y-11316484D02*
X16970063Y-11516484D01*
X17151015Y-11516484D02*
X17151015Y-11411722D01*
X17151015Y-11411722D02*
X17141491Y-11392674D01*
X17141491Y-11392674D02*
X17122444Y-11383150D01*
X17122444Y-11383150D02*
X17084348Y-11383150D01*
X17084348Y-11383150D02*
X17065301Y-11392674D01*
X17151015Y-11506960D02*
X17131967Y-11516484D01*
X17131967Y-11516484D02*
X17084348Y-11516484D01*
X17084348Y-11516484D02*
X17065301Y-11506960D01*
X17065301Y-11506960D02*
X17055777Y-11487912D01*
X17055777Y-11487912D02*
X17055777Y-11468865D01*
X17055777Y-11468865D02*
X17065301Y-11449817D01*
X17065301Y-11449817D02*
X17084348Y-11440293D01*
X17084348Y-11440293D02*
X17131967Y-11440293D01*
X17131967Y-11440293D02*
X17151015Y-11430769D01*
X17246253Y-11383150D02*
X17246253Y-11583150D01*
X17246253Y-11392674D02*
X17265301Y-11383150D01*
X17265301Y-11383150D02*
X17303396Y-11383150D01*
X17303396Y-11383150D02*
X17322444Y-11392674D01*
X17322444Y-11392674D02*
X17331967Y-11402198D01*
X17331967Y-11402198D02*
X17341491Y-11421246D01*
X17341491Y-11421246D02*
X17341491Y-11478388D01*
X17341491Y-11478388D02*
X17331967Y-11497436D01*
X17331967Y-11497436D02*
X17322444Y-11506960D01*
X17322444Y-11506960D02*
X17303396Y-11516484D01*
X17303396Y-11516484D02*
X17265301Y-11516484D01*
X17265301Y-11516484D02*
X17246253Y-11506960D01*
X17427205Y-11497436D02*
X17436729Y-11506960D01*
X17436729Y-11506960D02*
X17427205Y-11516484D01*
X17427205Y-11516484D02*
X17417682Y-11506960D01*
X17417682Y-11506960D02*
X17427205Y-11497436D01*
X17427205Y-11497436D02*
X17427205Y-11516484D01*
X17427205Y-11392674D02*
X17436729Y-11402198D01*
X17436729Y-11402198D02*
X17427205Y-11411722D01*
X17427205Y-11411722D02*
X17417682Y-11402198D01*
X17417682Y-11402198D02*
X17427205Y-11392674D01*
X17427205Y-11392674D02*
X17427205Y-11411722D01*
D10*
X15695940Y-11795470D02*
X15795000Y-11894530D01*
X15795000Y-11795470D02*
X15695940Y-11894530D01*
D11*
X16093872Y-11736484D02*
X16112920Y-11736484D01*
X16112920Y-11736484D02*
X16131967Y-11746008D01*
X16131967Y-11746008D02*
X16141491Y-11755531D01*
X16141491Y-11755531D02*
X16151015Y-11774579D01*
X16151015Y-11774579D02*
X16160539Y-11812674D01*
X16160539Y-11812674D02*
X16160539Y-11860293D01*
X16160539Y-11860293D02*
X16151015Y-11898388D01*
X16151015Y-11898388D02*
X16141491Y-11917436D01*
X16141491Y-11917436D02*
X16131967Y-11926960D01*
X16131967Y-11926960D02*
X16112920Y-11936484D01*
X16112920Y-11936484D02*
X16093872Y-11936484D01*
X16093872Y-11936484D02*
X16074824Y-11926960D01*
X16074824Y-11926960D02*
X16065301Y-11917436D01*
X16065301Y-11917436D02*
X16055777Y-11898388D01*
X16055777Y-11898388D02*
X16046253Y-11860293D01*
X16046253Y-11860293D02*
X16046253Y-11812674D01*
X16046253Y-11812674D02*
X16055777Y-11774579D01*
X16055777Y-11774579D02*
X16065301Y-11755531D01*
X16065301Y-11755531D02*
X16074824Y-11746008D01*
X16074824Y-11746008D02*
X16093872Y-11736484D01*
X16246253Y-11917436D02*
X16255777Y-11926960D01*
X16255777Y-11926960D02*
X16246253Y-11936484D01*
X16246253Y-11936484D02*
X16236729Y-11926960D01*
X16236729Y-11926960D02*
X16246253Y-11917436D01*
X16246253Y-11917436D02*
X16246253Y-11936484D01*
X16351015Y-11936484D02*
X16389110Y-11936484D01*
X16389110Y-11936484D02*
X16408158Y-11926960D01*
X16408158Y-11926960D02*
X16417682Y-11917436D01*
X16417682Y-11917436D02*
X16436729Y-11888865D01*
X16436729Y-11888865D02*
X16446253Y-11850769D01*
X16446253Y-11850769D02*
X16446253Y-11774579D01*
X16446253Y-11774579D02*
X16436729Y-11755531D01*
X16436729Y-11755531D02*
X16427205Y-11746008D01*
X16427205Y-11746008D02*
X16408158Y-11736484D01*
X16408158Y-11736484D02*
X16370062Y-11736484D01*
X16370062Y-11736484D02*
X16351015Y-11746008D01*
X16351015Y-11746008D02*
X16341491Y-11755531D01*
X16341491Y-11755531D02*
X16331967Y-11774579D01*
X16331967Y-11774579D02*
X16331967Y-11822198D01*
X16331967Y-11822198D02*
X16341491Y-11841246D01*
X16341491Y-11841246D02*
X16351015Y-11850769D01*
X16351015Y-11850769D02*
X16370062Y-11860293D01*
X16370062Y-11860293D02*
X16408158Y-11860293D01*
X16408158Y-11860293D02*
X16427205Y-11850769D01*
X16427205Y-11850769D02*
X16436729Y-11841246D01*
X16436729Y-11841246D02*
X16446253Y-11822198D01*
X16541491Y-11936484D02*
X16579586Y-11936484D01*
X16579586Y-11936484D02*
X16598634Y-11926960D01*
X16598634Y-11926960D02*
X16608158Y-11917436D01*
X16608158Y-11917436D02*
X16627205Y-11888865D01*
X16627205Y-11888865D02*
X16636729Y-11850769D01*
X16636729Y-11850769D02*
X16636729Y-11774579D01*
X16636729Y-11774579D02*
X16627205Y-11755531D01*
X16627205Y-11755531D02*
X16617682Y-11746008D01*
X16617682Y-11746008D02*
X16598634Y-11736484D01*
X16598634Y-11736484D02*
X16560539Y-11736484D01*
X16560539Y-11736484D02*
X16541491Y-11746008D01*
X16541491Y-11746008D02*
X16531967Y-11755531D01*
X16531967Y-11755531D02*
X16522443Y-11774579D01*
X16522443Y-11774579D02*
X16522443Y-11822198D01*
X16522443Y-11822198D02*
X16531967Y-11841246D01*
X16531967Y-11841246D02*
X16541491Y-11850769D01*
X16541491Y-11850769D02*
X16560539Y-11860293D01*
X16560539Y-11860293D02*
X16598634Y-11860293D01*
X16598634Y-11860293D02*
X16617682Y-11850769D01*
X16617682Y-11850769D02*
X16627205Y-11841246D01*
X16627205Y-11841246D02*
X16636729Y-11822198D01*
X16827205Y-11936484D02*
X16712920Y-11936484D01*
X16770062Y-11936484D02*
X16770062Y-11736484D01*
X16770062Y-11736484D02*
X16751015Y-11765055D01*
X16751015Y-11765055D02*
X16731967Y-11784103D01*
X16731967Y-11784103D02*
X16712920Y-11793627D01*
X16912920Y-11936484D02*
X16912920Y-11803150D01*
X16912920Y-11822198D02*
X16922444Y-11812674D01*
X16922444Y-11812674D02*
X16941491Y-11803150D01*
X16941491Y-11803150D02*
X16970063Y-11803150D01*
X16970063Y-11803150D02*
X16989110Y-11812674D01*
X16989110Y-11812674D02*
X16998634Y-11831722D01*
X16998634Y-11831722D02*
X16998634Y-11936484D01*
X16998634Y-11831722D02*
X17008158Y-11812674D01*
X17008158Y-11812674D02*
X17027205Y-11803150D01*
X17027205Y-11803150D02*
X17055777Y-11803150D01*
X17055777Y-11803150D02*
X17074825Y-11812674D01*
X17074825Y-11812674D02*
X17084348Y-11831722D01*
X17084348Y-11831722D02*
X17084348Y-11936484D01*
X17179586Y-11936484D02*
X17179586Y-11803150D01*
X17179586Y-11822198D02*
X17189110Y-11812674D01*
X17189110Y-11812674D02*
X17208158Y-11803150D01*
X17208158Y-11803150D02*
X17236729Y-11803150D01*
X17236729Y-11803150D02*
X17255777Y-11812674D01*
X17255777Y-11812674D02*
X17265301Y-11831722D01*
X17265301Y-11831722D02*
X17265301Y-11936484D01*
X17265301Y-11831722D02*
X17274825Y-11812674D01*
X17274825Y-11812674D02*
X17293872Y-11803150D01*
X17293872Y-11803150D02*
X17322444Y-11803150D01*
X17322444Y-11803150D02*
X17341491Y-11812674D01*
X17341491Y-11812674D02*
X17351015Y-11831722D01*
X17351015Y-11831722D02*
X17351015Y-11936484D01*
X17741491Y-11726960D02*
X17570063Y-11984103D01*
X17998634Y-11736484D02*
X18017682Y-11736484D01*
X18017682Y-11736484D02*
X18036729Y-11746008D01*
X18036729Y-11746008D02*
X18046253Y-11755531D01*
X18046253Y-11755531D02*
X18055777Y-11774579D01*
X18055777Y-11774579D02*
X18065301Y-11812674D01*
X18065301Y-11812674D02*
X18065301Y-11860293D01*
X18065301Y-11860293D02*
X18055777Y-11898388D01*
X18055777Y-11898388D02*
X18046253Y-11917436D01*
X18046253Y-11917436D02*
X18036729Y-11926960D01*
X18036729Y-11926960D02*
X18017682Y-11936484D01*
X18017682Y-11936484D02*
X17998634Y-11936484D01*
X17998634Y-11936484D02*
X17979587Y-11926960D01*
X17979587Y-11926960D02*
X17970063Y-11917436D01*
X17970063Y-11917436D02*
X17960539Y-11898388D01*
X17960539Y-11898388D02*
X17951015Y-11860293D01*
X17951015Y-11860293D02*
X17951015Y-11812674D01*
X17951015Y-11812674D02*
X17960539Y-11774579D01*
X17960539Y-11774579D02*
X17970063Y-11755531D01*
X17970063Y-11755531D02*
X17979587Y-11746008D01*
X17979587Y-11746008D02*
X17998634Y-11736484D01*
X18151015Y-11917436D02*
X18160539Y-11926960D01*
X18160539Y-11926960D02*
X18151015Y-11936484D01*
X18151015Y-11936484D02*
X18141491Y-11926960D01*
X18141491Y-11926960D02*
X18151015Y-11917436D01*
X18151015Y-11917436D02*
X18151015Y-11936484D01*
X18284348Y-11736484D02*
X18303396Y-11736484D01*
X18303396Y-11736484D02*
X18322444Y-11746008D01*
X18322444Y-11746008D02*
X18331968Y-11755531D01*
X18331968Y-11755531D02*
X18341491Y-11774579D01*
X18341491Y-11774579D02*
X18351015Y-11812674D01*
X18351015Y-11812674D02*
X18351015Y-11860293D01*
X18351015Y-11860293D02*
X18341491Y-11898388D01*
X18341491Y-11898388D02*
X18331968Y-11917436D01*
X18331968Y-11917436D02*
X18322444Y-11926960D01*
X18322444Y-11926960D02*
X18303396Y-11936484D01*
X18303396Y-11936484D02*
X18284348Y-11936484D01*
X18284348Y-11936484D02*
X18265301Y-11926960D01*
X18265301Y-11926960D02*
X18255777Y-11917436D01*
X18255777Y-11917436D02*
X18246253Y-11898388D01*
X18246253Y-11898388D02*
X18236729Y-11860293D01*
X18236729Y-11860293D02*
X18236729Y-11812674D01*
X18236729Y-11812674D02*
X18246253Y-11774579D01*
X18246253Y-11774579D02*
X18255777Y-11755531D01*
X18255777Y-11755531D02*
X18265301Y-11746008D01*
X18265301Y-11746008D02*
X18284348Y-11736484D01*
X18417682Y-11736484D02*
X18541491Y-11736484D01*
X18541491Y-11736484D02*
X18474825Y-11812674D01*
X18474825Y-11812674D02*
X18503396Y-11812674D01*
X18503396Y-11812674D02*
X18522444Y-11822198D01*
X18522444Y-11822198D02*
X18531968Y-11831722D01*
X18531968Y-11831722D02*
X18541491Y-11850769D01*
X18541491Y-11850769D02*
X18541491Y-11898388D01*
X18541491Y-11898388D02*
X18531968Y-11917436D01*
X18531968Y-11917436D02*
X18522444Y-11926960D01*
X18522444Y-11926960D02*
X18503396Y-11936484D01*
X18503396Y-11936484D02*
X18446253Y-11936484D01*
X18446253Y-11936484D02*
X18427206Y-11926960D01*
X18427206Y-11926960D02*
X18417682Y-11917436D01*
X18636729Y-11936484D02*
X18674825Y-11936484D01*
X18674825Y-11936484D02*
X18693872Y-11926960D01*
X18693872Y-11926960D02*
X18703396Y-11917436D01*
X18703396Y-11917436D02*
X18722444Y-11888865D01*
X18722444Y-11888865D02*
X18731968Y-11850769D01*
X18731968Y-11850769D02*
X18731968Y-11774579D01*
X18731968Y-11774579D02*
X18722444Y-11755531D01*
X18722444Y-11755531D02*
X18712920Y-11746008D01*
X18712920Y-11746008D02*
X18693872Y-11736484D01*
X18693872Y-11736484D02*
X18655777Y-11736484D01*
X18655777Y-11736484D02*
X18636729Y-11746008D01*
X18636729Y-11746008D02*
X18627206Y-11755531D01*
X18627206Y-11755531D02*
X18617682Y-11774579D01*
X18617682Y-11774579D02*
X18617682Y-11822198D01*
X18617682Y-11822198D02*
X18627206Y-11841246D01*
X18627206Y-11841246D02*
X18636729Y-11850769D01*
X18636729Y-11850769D02*
X18655777Y-11860293D01*
X18655777Y-11860293D02*
X18693872Y-11860293D01*
X18693872Y-11860293D02*
X18712920Y-11850769D01*
X18712920Y-11850769D02*
X18722444Y-11841246D01*
X18722444Y-11841246D02*
X18731968Y-11822198D01*
X18855777Y-11736484D02*
X18874825Y-11736484D01*
X18874825Y-11736484D02*
X18893872Y-11746008D01*
X18893872Y-11746008D02*
X18903396Y-11755531D01*
X18903396Y-11755531D02*
X18912920Y-11774579D01*
X18912920Y-11774579D02*
X18922444Y-11812674D01*
X18922444Y-11812674D02*
X18922444Y-11860293D01*
X18922444Y-11860293D02*
X18912920Y-11898388D01*
X18912920Y-11898388D02*
X18903396Y-11917436D01*
X18903396Y-11917436D02*
X18893872Y-11926960D01*
X18893872Y-11926960D02*
X18874825Y-11936484D01*
X18874825Y-11936484D02*
X18855777Y-11936484D01*
X18855777Y-11936484D02*
X18836729Y-11926960D01*
X18836729Y-11926960D02*
X18827206Y-11917436D01*
X18827206Y-11917436D02*
X18817682Y-11898388D01*
X18817682Y-11898388D02*
X18808158Y-11860293D01*
X18808158Y-11860293D02*
X18808158Y-11812674D01*
X18808158Y-11812674D02*
X18817682Y-11774579D01*
X18817682Y-11774579D02*
X18827206Y-11755531D01*
X18827206Y-11755531D02*
X18836729Y-11746008D01*
X18836729Y-11746008D02*
X18855777Y-11736484D01*
X18998634Y-11736484D02*
X18998634Y-11774579D01*
X19074825Y-11736484D02*
X19074825Y-11774579D01*
X19370063Y-12012674D02*
X19360539Y-12003150D01*
X19360539Y-12003150D02*
X19341491Y-11974579D01*
X19341491Y-11974579D02*
X19331968Y-11955531D01*
X19331968Y-11955531D02*
X19322444Y-11926960D01*
X19322444Y-11926960D02*
X19312920Y-11879341D01*
X19312920Y-11879341D02*
X19312920Y-11841246D01*
X19312920Y-11841246D02*
X19322444Y-11793627D01*
X19322444Y-11793627D02*
X19331968Y-11765055D01*
X19331968Y-11765055D02*
X19341491Y-11746008D01*
X19341491Y-11746008D02*
X19360539Y-11717436D01*
X19360539Y-11717436D02*
X19370063Y-11707912D01*
X19427206Y-11736484D02*
X19551015Y-11736484D01*
X19551015Y-11736484D02*
X19484349Y-11812674D01*
X19484349Y-11812674D02*
X19512920Y-11812674D01*
X19512920Y-11812674D02*
X19531968Y-11822198D01*
X19531968Y-11822198D02*
X19541491Y-11831722D01*
X19541491Y-11831722D02*
X19551015Y-11850769D01*
X19551015Y-11850769D02*
X19551015Y-11898388D01*
X19551015Y-11898388D02*
X19541491Y-11917436D01*
X19541491Y-11917436D02*
X19531968Y-11926960D01*
X19531968Y-11926960D02*
X19512920Y-11936484D01*
X19512920Y-11936484D02*
X19455777Y-11936484D01*
X19455777Y-11936484D02*
X19436730Y-11926960D01*
X19436730Y-11926960D02*
X19427206Y-11917436D01*
X19789111Y-11936484D02*
X19789111Y-11736484D01*
X19874825Y-11936484D02*
X19874825Y-11831722D01*
X19874825Y-11831722D02*
X19865301Y-11812674D01*
X19865301Y-11812674D02*
X19846253Y-11803150D01*
X19846253Y-11803150D02*
X19817682Y-11803150D01*
X19817682Y-11803150D02*
X19798634Y-11812674D01*
X19798634Y-11812674D02*
X19789111Y-11822198D01*
X19998634Y-11936484D02*
X19979587Y-11926960D01*
X19979587Y-11926960D02*
X19970063Y-11917436D01*
X19970063Y-11917436D02*
X19960539Y-11898388D01*
X19960539Y-11898388D02*
X19960539Y-11841246D01*
X19960539Y-11841246D02*
X19970063Y-11822198D01*
X19970063Y-11822198D02*
X19979587Y-11812674D01*
X19979587Y-11812674D02*
X19998634Y-11803150D01*
X19998634Y-11803150D02*
X20027206Y-11803150D01*
X20027206Y-11803150D02*
X20046253Y-11812674D01*
X20046253Y-11812674D02*
X20055777Y-11822198D01*
X20055777Y-11822198D02*
X20065301Y-11841246D01*
X20065301Y-11841246D02*
X20065301Y-11898388D01*
X20065301Y-11898388D02*
X20055777Y-11917436D01*
X20055777Y-11917436D02*
X20046253Y-11926960D01*
X20046253Y-11926960D02*
X20027206Y-11936484D01*
X20027206Y-11936484D02*
X19998634Y-11936484D01*
X20179587Y-11936484D02*
X20160539Y-11926960D01*
X20160539Y-11926960D02*
X20151015Y-11907912D01*
X20151015Y-11907912D02*
X20151015Y-11736484D01*
X20331968Y-11926960D02*
X20312920Y-11936484D01*
X20312920Y-11936484D02*
X20274825Y-11936484D01*
X20274825Y-11936484D02*
X20255777Y-11926960D01*
X20255777Y-11926960D02*
X20246253Y-11907912D01*
X20246253Y-11907912D02*
X20246253Y-11831722D01*
X20246253Y-11831722D02*
X20255777Y-11812674D01*
X20255777Y-11812674D02*
X20274825Y-11803150D01*
X20274825Y-11803150D02*
X20312920Y-11803150D01*
X20312920Y-11803150D02*
X20331968Y-11812674D01*
X20331968Y-11812674D02*
X20341492Y-11831722D01*
X20341492Y-11831722D02*
X20341492Y-11850769D01*
X20341492Y-11850769D02*
X20246253Y-11869817D01*
X20417682Y-11926960D02*
X20436730Y-11936484D01*
X20436730Y-11936484D02*
X20474825Y-11936484D01*
X20474825Y-11936484D02*
X20493873Y-11926960D01*
X20493873Y-11926960D02*
X20503396Y-11907912D01*
X20503396Y-11907912D02*
X20503396Y-11898388D01*
X20503396Y-11898388D02*
X20493873Y-11879341D01*
X20493873Y-11879341D02*
X20474825Y-11869817D01*
X20474825Y-11869817D02*
X20446253Y-11869817D01*
X20446253Y-11869817D02*
X20427206Y-11860293D01*
X20427206Y-11860293D02*
X20417682Y-11841246D01*
X20417682Y-11841246D02*
X20417682Y-11831722D01*
X20417682Y-11831722D02*
X20427206Y-11812674D01*
X20427206Y-11812674D02*
X20446253Y-11803150D01*
X20446253Y-11803150D02*
X20474825Y-11803150D01*
X20474825Y-11803150D02*
X20493873Y-11812674D01*
X20570063Y-12012674D02*
X20579587Y-12003150D01*
X20579587Y-12003150D02*
X20598634Y-11974579D01*
X20598634Y-11974579D02*
X20608158Y-11955531D01*
X20608158Y-11955531D02*
X20617682Y-11926960D01*
X20617682Y-11926960D02*
X20627206Y-11879341D01*
X20627206Y-11879341D02*
X20627206Y-11841246D01*
X20627206Y-11841246D02*
X20617682Y-11793627D01*
X20617682Y-11793627D02*
X20608158Y-11765055D01*
X20608158Y-11765055D02*
X20598634Y-11746008D01*
X20598634Y-11746008D02*
X20579587Y-11717436D01*
X20579587Y-11717436D02*
X20570063Y-11707912D01*
X20931968Y-12012674D02*
X20922444Y-12003150D01*
X20922444Y-12003150D02*
X20903396Y-11974579D01*
X20903396Y-11974579D02*
X20893873Y-11955531D01*
X20893873Y-11955531D02*
X20884349Y-11926960D01*
X20884349Y-11926960D02*
X20874825Y-11879341D01*
X20874825Y-11879341D02*
X20874825Y-11841246D01*
X20874825Y-11841246D02*
X20884349Y-11793627D01*
X20884349Y-11793627D02*
X20893873Y-11765055D01*
X20893873Y-11765055D02*
X20903396Y-11746008D01*
X20903396Y-11746008D02*
X20922444Y-11717436D01*
X20922444Y-11717436D02*
X20931968Y-11707912D01*
X21008158Y-11803150D02*
X21008158Y-11936484D01*
X21008158Y-11822198D02*
X21017682Y-11812674D01*
X21017682Y-11812674D02*
X21036730Y-11803150D01*
X21036730Y-11803150D02*
X21065301Y-11803150D01*
X21065301Y-11803150D02*
X21084349Y-11812674D01*
X21084349Y-11812674D02*
X21093873Y-11831722D01*
X21093873Y-11831722D02*
X21093873Y-11936484D01*
X21217682Y-11936484D02*
X21198634Y-11926960D01*
X21198634Y-11926960D02*
X21189111Y-11917436D01*
X21189111Y-11917436D02*
X21179587Y-11898388D01*
X21179587Y-11898388D02*
X21179587Y-11841246D01*
X21179587Y-11841246D02*
X21189111Y-11822198D01*
X21189111Y-11822198D02*
X21198634Y-11812674D01*
X21198634Y-11812674D02*
X21217682Y-11803150D01*
X21217682Y-11803150D02*
X21246254Y-11803150D01*
X21246254Y-11803150D02*
X21265301Y-11812674D01*
X21265301Y-11812674D02*
X21274825Y-11822198D01*
X21274825Y-11822198D02*
X21284349Y-11841246D01*
X21284349Y-11841246D02*
X21284349Y-11898388D01*
X21284349Y-11898388D02*
X21274825Y-11917436D01*
X21274825Y-11917436D02*
X21265301Y-11926960D01*
X21265301Y-11926960D02*
X21246254Y-11936484D01*
X21246254Y-11936484D02*
X21217682Y-11936484D01*
X21341492Y-11803150D02*
X21417682Y-11803150D01*
X21370063Y-11736484D02*
X21370063Y-11907912D01*
X21370063Y-11907912D02*
X21379587Y-11926960D01*
X21379587Y-11926960D02*
X21398634Y-11936484D01*
X21398634Y-11936484D02*
X21417682Y-11936484D01*
X21636730Y-11803150D02*
X21636730Y-12003150D01*
X21636730Y-11812674D02*
X21655777Y-11803150D01*
X21655777Y-11803150D02*
X21693873Y-11803150D01*
X21693873Y-11803150D02*
X21712920Y-11812674D01*
X21712920Y-11812674D02*
X21722444Y-11822198D01*
X21722444Y-11822198D02*
X21731968Y-11841246D01*
X21731968Y-11841246D02*
X21731968Y-11898388D01*
X21731968Y-11898388D02*
X21722444Y-11917436D01*
X21722444Y-11917436D02*
X21712920Y-11926960D01*
X21712920Y-11926960D02*
X21693873Y-11936484D01*
X21693873Y-11936484D02*
X21655777Y-11936484D01*
X21655777Y-11936484D02*
X21636730Y-11926960D01*
X21846254Y-11936484D02*
X21827206Y-11926960D01*
X21827206Y-11926960D02*
X21817682Y-11907912D01*
X21817682Y-11907912D02*
X21817682Y-11736484D01*
X22008158Y-11936484D02*
X22008158Y-11831722D01*
X22008158Y-11831722D02*
X21998635Y-11812674D01*
X21998635Y-11812674D02*
X21979587Y-11803150D01*
X21979587Y-11803150D02*
X21941492Y-11803150D01*
X21941492Y-11803150D02*
X21922444Y-11812674D01*
X22008158Y-11926960D02*
X21989111Y-11936484D01*
X21989111Y-11936484D02*
X21941492Y-11936484D01*
X21941492Y-11936484D02*
X21922444Y-11926960D01*
X21922444Y-11926960D02*
X21912920Y-11907912D01*
X21912920Y-11907912D02*
X21912920Y-11888865D01*
X21912920Y-11888865D02*
X21922444Y-11869817D01*
X21922444Y-11869817D02*
X21941492Y-11860293D01*
X21941492Y-11860293D02*
X21989111Y-11860293D01*
X21989111Y-11860293D02*
X22008158Y-11850769D01*
X22074825Y-11803150D02*
X22151015Y-11803150D01*
X22103396Y-11736484D02*
X22103396Y-11907912D01*
X22103396Y-11907912D02*
X22112920Y-11926960D01*
X22112920Y-11926960D02*
X22131968Y-11936484D01*
X22131968Y-11936484D02*
X22151015Y-11936484D01*
X22293873Y-11926960D02*
X22274825Y-11936484D01*
X22274825Y-11936484D02*
X22236730Y-11936484D01*
X22236730Y-11936484D02*
X22217682Y-11926960D01*
X22217682Y-11926960D02*
X22208158Y-11907912D01*
X22208158Y-11907912D02*
X22208158Y-11831722D01*
X22208158Y-11831722D02*
X22217682Y-11812674D01*
X22217682Y-11812674D02*
X22236730Y-11803150D01*
X22236730Y-11803150D02*
X22274825Y-11803150D01*
X22274825Y-11803150D02*
X22293873Y-11812674D01*
X22293873Y-11812674D02*
X22303396Y-11831722D01*
X22303396Y-11831722D02*
X22303396Y-11850769D01*
X22303396Y-11850769D02*
X22208158Y-11869817D01*
X22474825Y-11936484D02*
X22474825Y-11736484D01*
X22474825Y-11926960D02*
X22455777Y-11936484D01*
X22455777Y-11936484D02*
X22417682Y-11936484D01*
X22417682Y-11936484D02*
X22398634Y-11926960D01*
X22398634Y-11926960D02*
X22389111Y-11917436D01*
X22389111Y-11917436D02*
X22379587Y-11898388D01*
X22379587Y-11898388D02*
X22379587Y-11841246D01*
X22379587Y-11841246D02*
X22389111Y-11822198D01*
X22389111Y-11822198D02*
X22398634Y-11812674D01*
X22398634Y-11812674D02*
X22417682Y-11803150D01*
X22417682Y-11803150D02*
X22455777Y-11803150D01*
X22455777Y-11803150D02*
X22474825Y-11812674D01*
X22551015Y-12012674D02*
X22560539Y-12003150D01*
X22560539Y-12003150D02*
X22579587Y-11974579D01*
X22579587Y-11974579D02*
X22589111Y-11955531D01*
X22589111Y-11955531D02*
X22598634Y-11926960D01*
X22598634Y-11926960D02*
X22608158Y-11879341D01*
X22608158Y-11879341D02*
X22608158Y-11841246D01*
X22608158Y-11841246D02*
X22598634Y-11793627D01*
X22598634Y-11793627D02*
X22589111Y-11765055D01*
X22589111Y-11765055D02*
X22579587Y-11746008D01*
X22579587Y-11746008D02*
X22560539Y-11717436D01*
X22560539Y-11717436D02*
X22551015Y-11707912D01*
D10*
X15795000Y-12109000D02*
G75*
G02*
X15695000Y-12109000I-50000J0D01*
G01*
X15695000Y-12109000D02*
G75*
G02*
X15795000Y-12109000I50000J0D01*
G01*
D11*
X16160539Y-12200484D02*
X16046253Y-12200484D01*
X16103396Y-12200484D02*
X16103396Y-12000484D01*
X16103396Y-12000484D02*
X16084348Y-12029055D01*
X16084348Y-12029055D02*
X16065301Y-12048103D01*
X16065301Y-12048103D02*
X16046253Y-12057627D01*
X16246253Y-12181436D02*
X16255777Y-12190960D01*
X16255777Y-12190960D02*
X16246253Y-12200484D01*
X16246253Y-12200484D02*
X16236729Y-12190960D01*
X16236729Y-12190960D02*
X16246253Y-12181436D01*
X16246253Y-12181436D02*
X16246253Y-12200484D01*
X16379586Y-12000484D02*
X16398634Y-12000484D01*
X16398634Y-12000484D02*
X16417682Y-12010008D01*
X16417682Y-12010008D02*
X16427205Y-12019531D01*
X16427205Y-12019531D02*
X16436729Y-12038579D01*
X16436729Y-12038579D02*
X16446253Y-12076674D01*
X16446253Y-12076674D02*
X16446253Y-12124293D01*
X16446253Y-12124293D02*
X16436729Y-12162388D01*
X16436729Y-12162388D02*
X16427205Y-12181436D01*
X16427205Y-12181436D02*
X16417682Y-12190960D01*
X16417682Y-12190960D02*
X16398634Y-12200484D01*
X16398634Y-12200484D02*
X16379586Y-12200484D01*
X16379586Y-12200484D02*
X16360539Y-12190960D01*
X16360539Y-12190960D02*
X16351015Y-12181436D01*
X16351015Y-12181436D02*
X16341491Y-12162388D01*
X16341491Y-12162388D02*
X16331967Y-12124293D01*
X16331967Y-12124293D02*
X16331967Y-12076674D01*
X16331967Y-12076674D02*
X16341491Y-12038579D01*
X16341491Y-12038579D02*
X16351015Y-12019531D01*
X16351015Y-12019531D02*
X16360539Y-12010008D01*
X16360539Y-12010008D02*
X16379586Y-12000484D01*
X16570062Y-12000484D02*
X16589110Y-12000484D01*
X16589110Y-12000484D02*
X16608158Y-12010008D01*
X16608158Y-12010008D02*
X16617682Y-12019531D01*
X16617682Y-12019531D02*
X16627205Y-12038579D01*
X16627205Y-12038579D02*
X16636729Y-12076674D01*
X16636729Y-12076674D02*
X16636729Y-12124293D01*
X16636729Y-12124293D02*
X16627205Y-12162388D01*
X16627205Y-12162388D02*
X16617682Y-12181436D01*
X16617682Y-12181436D02*
X16608158Y-12190960D01*
X16608158Y-12190960D02*
X16589110Y-12200484D01*
X16589110Y-12200484D02*
X16570062Y-12200484D01*
X16570062Y-12200484D02*
X16551015Y-12190960D01*
X16551015Y-12190960D02*
X16541491Y-12181436D01*
X16541491Y-12181436D02*
X16531967Y-12162388D01*
X16531967Y-12162388D02*
X16522443Y-12124293D01*
X16522443Y-12124293D02*
X16522443Y-12076674D01*
X16522443Y-12076674D02*
X16531967Y-12038579D01*
X16531967Y-12038579D02*
X16541491Y-12019531D01*
X16541491Y-12019531D02*
X16551015Y-12010008D01*
X16551015Y-12010008D02*
X16570062Y-12000484D01*
X16760539Y-12000484D02*
X16779586Y-12000484D01*
X16779586Y-12000484D02*
X16798634Y-12010008D01*
X16798634Y-12010008D02*
X16808158Y-12019531D01*
X16808158Y-12019531D02*
X16817682Y-12038579D01*
X16817682Y-12038579D02*
X16827205Y-12076674D01*
X16827205Y-12076674D02*
X16827205Y-12124293D01*
X16827205Y-12124293D02*
X16817682Y-12162388D01*
X16817682Y-12162388D02*
X16808158Y-12181436D01*
X16808158Y-12181436D02*
X16798634Y-12190960D01*
X16798634Y-12190960D02*
X16779586Y-12200484D01*
X16779586Y-12200484D02*
X16760539Y-12200484D01*
X16760539Y-12200484D02*
X16741491Y-12190960D01*
X16741491Y-12190960D02*
X16731967Y-12181436D01*
X16731967Y-12181436D02*
X16722443Y-12162388D01*
X16722443Y-12162388D02*
X16712920Y-12124293D01*
X16712920Y-12124293D02*
X16712920Y-12076674D01*
X16712920Y-12076674D02*
X16722443Y-12038579D01*
X16722443Y-12038579D02*
X16731967Y-12019531D01*
X16731967Y-12019531D02*
X16741491Y-12010008D01*
X16741491Y-12010008D02*
X16760539Y-12000484D01*
X16912920Y-12200484D02*
X16912920Y-12067150D01*
X16912920Y-12086198D02*
X16922444Y-12076674D01*
X16922444Y-12076674D02*
X16941491Y-12067150D01*
X16941491Y-12067150D02*
X16970063Y-12067150D01*
X16970063Y-12067150D02*
X16989110Y-12076674D01*
X16989110Y-12076674D02*
X16998634Y-12095722D01*
X16998634Y-12095722D02*
X16998634Y-12200484D01*
X16998634Y-12095722D02*
X17008158Y-12076674D01*
X17008158Y-12076674D02*
X17027205Y-12067150D01*
X17027205Y-12067150D02*
X17055777Y-12067150D01*
X17055777Y-12067150D02*
X17074825Y-12076674D01*
X17074825Y-12076674D02*
X17084348Y-12095722D01*
X17084348Y-12095722D02*
X17084348Y-12200484D01*
X17179586Y-12200484D02*
X17179586Y-12067150D01*
X17179586Y-12086198D02*
X17189110Y-12076674D01*
X17189110Y-12076674D02*
X17208158Y-12067150D01*
X17208158Y-12067150D02*
X17236729Y-12067150D01*
X17236729Y-12067150D02*
X17255777Y-12076674D01*
X17255777Y-12076674D02*
X17265301Y-12095722D01*
X17265301Y-12095722D02*
X17265301Y-12200484D01*
X17265301Y-12095722D02*
X17274825Y-12076674D01*
X17274825Y-12076674D02*
X17293872Y-12067150D01*
X17293872Y-12067150D02*
X17322444Y-12067150D01*
X17322444Y-12067150D02*
X17341491Y-12076674D01*
X17341491Y-12076674D02*
X17351015Y-12095722D01*
X17351015Y-12095722D02*
X17351015Y-12200484D01*
X17741491Y-11990960D02*
X17570063Y-12248103D01*
X17998634Y-12000484D02*
X18017682Y-12000484D01*
X18017682Y-12000484D02*
X18036729Y-12010008D01*
X18036729Y-12010008D02*
X18046253Y-12019531D01*
X18046253Y-12019531D02*
X18055777Y-12038579D01*
X18055777Y-12038579D02*
X18065301Y-12076674D01*
X18065301Y-12076674D02*
X18065301Y-12124293D01*
X18065301Y-12124293D02*
X18055777Y-12162388D01*
X18055777Y-12162388D02*
X18046253Y-12181436D01*
X18046253Y-12181436D02*
X18036729Y-12190960D01*
X18036729Y-12190960D02*
X18017682Y-12200484D01*
X18017682Y-12200484D02*
X17998634Y-12200484D01*
X17998634Y-12200484D02*
X17979587Y-12190960D01*
X17979587Y-12190960D02*
X17970063Y-12181436D01*
X17970063Y-12181436D02*
X17960539Y-12162388D01*
X17960539Y-12162388D02*
X17951015Y-12124293D01*
X17951015Y-12124293D02*
X17951015Y-12076674D01*
X17951015Y-12076674D02*
X17960539Y-12038579D01*
X17960539Y-12038579D02*
X17970063Y-12019531D01*
X17970063Y-12019531D02*
X17979587Y-12010008D01*
X17979587Y-12010008D02*
X17998634Y-12000484D01*
X18151015Y-12181436D02*
X18160539Y-12190960D01*
X18160539Y-12190960D02*
X18151015Y-12200484D01*
X18151015Y-12200484D02*
X18141491Y-12190960D01*
X18141491Y-12190960D02*
X18151015Y-12181436D01*
X18151015Y-12181436D02*
X18151015Y-12200484D01*
X18284348Y-12000484D02*
X18303396Y-12000484D01*
X18303396Y-12000484D02*
X18322444Y-12010008D01*
X18322444Y-12010008D02*
X18331968Y-12019531D01*
X18331968Y-12019531D02*
X18341491Y-12038579D01*
X18341491Y-12038579D02*
X18351015Y-12076674D01*
X18351015Y-12076674D02*
X18351015Y-12124293D01*
X18351015Y-12124293D02*
X18341491Y-12162388D01*
X18341491Y-12162388D02*
X18331968Y-12181436D01*
X18331968Y-12181436D02*
X18322444Y-12190960D01*
X18322444Y-12190960D02*
X18303396Y-12200484D01*
X18303396Y-12200484D02*
X18284348Y-12200484D01*
X18284348Y-12200484D02*
X18265301Y-12190960D01*
X18265301Y-12190960D02*
X18255777Y-12181436D01*
X18255777Y-12181436D02*
X18246253Y-12162388D01*
X18246253Y-12162388D02*
X18236729Y-12124293D01*
X18236729Y-12124293D02*
X18236729Y-12076674D01*
X18236729Y-12076674D02*
X18246253Y-12038579D01*
X18246253Y-12038579D02*
X18255777Y-12019531D01*
X18255777Y-12019531D02*
X18265301Y-12010008D01*
X18265301Y-12010008D02*
X18284348Y-12000484D01*
X18417682Y-12000484D02*
X18541491Y-12000484D01*
X18541491Y-12000484D02*
X18474825Y-12076674D01*
X18474825Y-12076674D02*
X18503396Y-12076674D01*
X18503396Y-12076674D02*
X18522444Y-12086198D01*
X18522444Y-12086198D02*
X18531968Y-12095722D01*
X18531968Y-12095722D02*
X18541491Y-12114769D01*
X18541491Y-12114769D02*
X18541491Y-12162388D01*
X18541491Y-12162388D02*
X18531968Y-12181436D01*
X18531968Y-12181436D02*
X18522444Y-12190960D01*
X18522444Y-12190960D02*
X18503396Y-12200484D01*
X18503396Y-12200484D02*
X18446253Y-12200484D01*
X18446253Y-12200484D02*
X18427206Y-12190960D01*
X18427206Y-12190960D02*
X18417682Y-12181436D01*
X18636729Y-12200484D02*
X18674825Y-12200484D01*
X18674825Y-12200484D02*
X18693872Y-12190960D01*
X18693872Y-12190960D02*
X18703396Y-12181436D01*
X18703396Y-12181436D02*
X18722444Y-12152865D01*
X18722444Y-12152865D02*
X18731968Y-12114769D01*
X18731968Y-12114769D02*
X18731968Y-12038579D01*
X18731968Y-12038579D02*
X18722444Y-12019531D01*
X18722444Y-12019531D02*
X18712920Y-12010008D01*
X18712920Y-12010008D02*
X18693872Y-12000484D01*
X18693872Y-12000484D02*
X18655777Y-12000484D01*
X18655777Y-12000484D02*
X18636729Y-12010008D01*
X18636729Y-12010008D02*
X18627206Y-12019531D01*
X18627206Y-12019531D02*
X18617682Y-12038579D01*
X18617682Y-12038579D02*
X18617682Y-12086198D01*
X18617682Y-12086198D02*
X18627206Y-12105246D01*
X18627206Y-12105246D02*
X18636729Y-12114769D01*
X18636729Y-12114769D02*
X18655777Y-12124293D01*
X18655777Y-12124293D02*
X18693872Y-12124293D01*
X18693872Y-12124293D02*
X18712920Y-12114769D01*
X18712920Y-12114769D02*
X18722444Y-12105246D01*
X18722444Y-12105246D02*
X18731968Y-12086198D01*
X18903396Y-12067150D02*
X18903396Y-12200484D01*
X18855777Y-11990960D02*
X18808158Y-12133817D01*
X18808158Y-12133817D02*
X18931968Y-12133817D01*
X18998634Y-12000484D02*
X18998634Y-12038579D01*
X19074825Y-12000484D02*
X19074825Y-12038579D01*
X19370063Y-12276674D02*
X19360539Y-12267150D01*
X19360539Y-12267150D02*
X19341491Y-12238579D01*
X19341491Y-12238579D02*
X19331968Y-12219531D01*
X19331968Y-12219531D02*
X19322444Y-12190960D01*
X19322444Y-12190960D02*
X19312920Y-12143341D01*
X19312920Y-12143341D02*
X19312920Y-12105246D01*
X19312920Y-12105246D02*
X19322444Y-12057627D01*
X19322444Y-12057627D02*
X19331968Y-12029055D01*
X19331968Y-12029055D02*
X19341491Y-12010008D01*
X19341491Y-12010008D02*
X19360539Y-11981436D01*
X19360539Y-11981436D02*
X19370063Y-11971912D01*
X19436730Y-12019531D02*
X19446253Y-12010008D01*
X19446253Y-12010008D02*
X19465301Y-12000484D01*
X19465301Y-12000484D02*
X19512920Y-12000484D01*
X19512920Y-12000484D02*
X19531968Y-12010008D01*
X19531968Y-12010008D02*
X19541491Y-12019531D01*
X19541491Y-12019531D02*
X19551015Y-12038579D01*
X19551015Y-12038579D02*
X19551015Y-12057627D01*
X19551015Y-12057627D02*
X19541491Y-12086198D01*
X19541491Y-12086198D02*
X19427206Y-12200484D01*
X19427206Y-12200484D02*
X19551015Y-12200484D01*
X19789111Y-12200484D02*
X19789111Y-12000484D01*
X19874825Y-12200484D02*
X19874825Y-12095722D01*
X19874825Y-12095722D02*
X19865301Y-12076674D01*
X19865301Y-12076674D02*
X19846253Y-12067150D01*
X19846253Y-12067150D02*
X19817682Y-12067150D01*
X19817682Y-12067150D02*
X19798634Y-12076674D01*
X19798634Y-12076674D02*
X19789111Y-12086198D01*
X19998634Y-12200484D02*
X19979587Y-12190960D01*
X19979587Y-12190960D02*
X19970063Y-12181436D01*
X19970063Y-12181436D02*
X19960539Y-12162388D01*
X19960539Y-12162388D02*
X19960539Y-12105246D01*
X19960539Y-12105246D02*
X19970063Y-12086198D01*
X19970063Y-12086198D02*
X19979587Y-12076674D01*
X19979587Y-12076674D02*
X19998634Y-12067150D01*
X19998634Y-12067150D02*
X20027206Y-12067150D01*
X20027206Y-12067150D02*
X20046253Y-12076674D01*
X20046253Y-12076674D02*
X20055777Y-12086198D01*
X20055777Y-12086198D02*
X20065301Y-12105246D01*
X20065301Y-12105246D02*
X20065301Y-12162388D01*
X20065301Y-12162388D02*
X20055777Y-12181436D01*
X20055777Y-12181436D02*
X20046253Y-12190960D01*
X20046253Y-12190960D02*
X20027206Y-12200484D01*
X20027206Y-12200484D02*
X19998634Y-12200484D01*
X20179587Y-12200484D02*
X20160539Y-12190960D01*
X20160539Y-12190960D02*
X20151015Y-12171912D01*
X20151015Y-12171912D02*
X20151015Y-12000484D01*
X20331968Y-12190960D02*
X20312920Y-12200484D01*
X20312920Y-12200484D02*
X20274825Y-12200484D01*
X20274825Y-12200484D02*
X20255777Y-12190960D01*
X20255777Y-12190960D02*
X20246253Y-12171912D01*
X20246253Y-12171912D02*
X20246253Y-12095722D01*
X20246253Y-12095722D02*
X20255777Y-12076674D01*
X20255777Y-12076674D02*
X20274825Y-12067150D01*
X20274825Y-12067150D02*
X20312920Y-12067150D01*
X20312920Y-12067150D02*
X20331968Y-12076674D01*
X20331968Y-12076674D02*
X20341492Y-12095722D01*
X20341492Y-12095722D02*
X20341492Y-12114769D01*
X20341492Y-12114769D02*
X20246253Y-12133817D01*
X20417682Y-12190960D02*
X20436730Y-12200484D01*
X20436730Y-12200484D02*
X20474825Y-12200484D01*
X20474825Y-12200484D02*
X20493873Y-12190960D01*
X20493873Y-12190960D02*
X20503396Y-12171912D01*
X20503396Y-12171912D02*
X20503396Y-12162388D01*
X20503396Y-12162388D02*
X20493873Y-12143341D01*
X20493873Y-12143341D02*
X20474825Y-12133817D01*
X20474825Y-12133817D02*
X20446253Y-12133817D01*
X20446253Y-12133817D02*
X20427206Y-12124293D01*
X20427206Y-12124293D02*
X20417682Y-12105246D01*
X20417682Y-12105246D02*
X20417682Y-12095722D01*
X20417682Y-12095722D02*
X20427206Y-12076674D01*
X20427206Y-12076674D02*
X20446253Y-12067150D01*
X20446253Y-12067150D02*
X20474825Y-12067150D01*
X20474825Y-12067150D02*
X20493873Y-12076674D01*
X20570063Y-12276674D02*
X20579587Y-12267150D01*
X20579587Y-12267150D02*
X20598634Y-12238579D01*
X20598634Y-12238579D02*
X20608158Y-12219531D01*
X20608158Y-12219531D02*
X20617682Y-12190960D01*
X20617682Y-12190960D02*
X20627206Y-12143341D01*
X20627206Y-12143341D02*
X20627206Y-12105246D01*
X20627206Y-12105246D02*
X20617682Y-12057627D01*
X20617682Y-12057627D02*
X20608158Y-12029055D01*
X20608158Y-12029055D02*
X20598634Y-12010008D01*
X20598634Y-12010008D02*
X20579587Y-11981436D01*
X20579587Y-11981436D02*
X20570063Y-11971912D01*
X20931968Y-12276674D02*
X20922444Y-12267150D01*
X20922444Y-12267150D02*
X20903396Y-12238579D01*
X20903396Y-12238579D02*
X20893873Y-12219531D01*
X20893873Y-12219531D02*
X20884349Y-12190960D01*
X20884349Y-12190960D02*
X20874825Y-12143341D01*
X20874825Y-12143341D02*
X20874825Y-12105246D01*
X20874825Y-12105246D02*
X20884349Y-12057627D01*
X20884349Y-12057627D02*
X20893873Y-12029055D01*
X20893873Y-12029055D02*
X20903396Y-12010008D01*
X20903396Y-12010008D02*
X20922444Y-11981436D01*
X20922444Y-11981436D02*
X20931968Y-11971912D01*
X21008158Y-12067150D02*
X21008158Y-12200484D01*
X21008158Y-12086198D02*
X21017682Y-12076674D01*
X21017682Y-12076674D02*
X21036730Y-12067150D01*
X21036730Y-12067150D02*
X21065301Y-12067150D01*
X21065301Y-12067150D02*
X21084349Y-12076674D01*
X21084349Y-12076674D02*
X21093873Y-12095722D01*
X21093873Y-12095722D02*
X21093873Y-12200484D01*
X21217682Y-12200484D02*
X21198634Y-12190960D01*
X21198634Y-12190960D02*
X21189111Y-12181436D01*
X21189111Y-12181436D02*
X21179587Y-12162388D01*
X21179587Y-12162388D02*
X21179587Y-12105246D01*
X21179587Y-12105246D02*
X21189111Y-12086198D01*
X21189111Y-12086198D02*
X21198634Y-12076674D01*
X21198634Y-12076674D02*
X21217682Y-12067150D01*
X21217682Y-12067150D02*
X21246254Y-12067150D01*
X21246254Y-12067150D02*
X21265301Y-12076674D01*
X21265301Y-12076674D02*
X21274825Y-12086198D01*
X21274825Y-12086198D02*
X21284349Y-12105246D01*
X21284349Y-12105246D02*
X21284349Y-12162388D01*
X21284349Y-12162388D02*
X21274825Y-12181436D01*
X21274825Y-12181436D02*
X21265301Y-12190960D01*
X21265301Y-12190960D02*
X21246254Y-12200484D01*
X21246254Y-12200484D02*
X21217682Y-12200484D01*
X21341492Y-12067150D02*
X21417682Y-12067150D01*
X21370063Y-12000484D02*
X21370063Y-12171912D01*
X21370063Y-12171912D02*
X21379587Y-12190960D01*
X21379587Y-12190960D02*
X21398634Y-12200484D01*
X21398634Y-12200484D02*
X21417682Y-12200484D01*
X21636730Y-12067150D02*
X21636730Y-12267150D01*
X21636730Y-12076674D02*
X21655777Y-12067150D01*
X21655777Y-12067150D02*
X21693873Y-12067150D01*
X21693873Y-12067150D02*
X21712920Y-12076674D01*
X21712920Y-12076674D02*
X21722444Y-12086198D01*
X21722444Y-12086198D02*
X21731968Y-12105246D01*
X21731968Y-12105246D02*
X21731968Y-12162388D01*
X21731968Y-12162388D02*
X21722444Y-12181436D01*
X21722444Y-12181436D02*
X21712920Y-12190960D01*
X21712920Y-12190960D02*
X21693873Y-12200484D01*
X21693873Y-12200484D02*
X21655777Y-12200484D01*
X21655777Y-12200484D02*
X21636730Y-12190960D01*
X21846254Y-12200484D02*
X21827206Y-12190960D01*
X21827206Y-12190960D02*
X21817682Y-12171912D01*
X21817682Y-12171912D02*
X21817682Y-12000484D01*
X22008158Y-12200484D02*
X22008158Y-12095722D01*
X22008158Y-12095722D02*
X21998635Y-12076674D01*
X21998635Y-12076674D02*
X21979587Y-12067150D01*
X21979587Y-12067150D02*
X21941492Y-12067150D01*
X21941492Y-12067150D02*
X21922444Y-12076674D01*
X22008158Y-12190960D02*
X21989111Y-12200484D01*
X21989111Y-12200484D02*
X21941492Y-12200484D01*
X21941492Y-12200484D02*
X21922444Y-12190960D01*
X21922444Y-12190960D02*
X21912920Y-12171912D01*
X21912920Y-12171912D02*
X21912920Y-12152865D01*
X21912920Y-12152865D02*
X21922444Y-12133817D01*
X21922444Y-12133817D02*
X21941492Y-12124293D01*
X21941492Y-12124293D02*
X21989111Y-12124293D01*
X21989111Y-12124293D02*
X22008158Y-12114769D01*
X22074825Y-12067150D02*
X22151015Y-12067150D01*
X22103396Y-12000484D02*
X22103396Y-12171912D01*
X22103396Y-12171912D02*
X22112920Y-12190960D01*
X22112920Y-12190960D02*
X22131968Y-12200484D01*
X22131968Y-12200484D02*
X22151015Y-12200484D01*
X22293873Y-12190960D02*
X22274825Y-12200484D01*
X22274825Y-12200484D02*
X22236730Y-12200484D01*
X22236730Y-12200484D02*
X22217682Y-12190960D01*
X22217682Y-12190960D02*
X22208158Y-12171912D01*
X22208158Y-12171912D02*
X22208158Y-12095722D01*
X22208158Y-12095722D02*
X22217682Y-12076674D01*
X22217682Y-12076674D02*
X22236730Y-12067150D01*
X22236730Y-12067150D02*
X22274825Y-12067150D01*
X22274825Y-12067150D02*
X22293873Y-12076674D01*
X22293873Y-12076674D02*
X22303396Y-12095722D01*
X22303396Y-12095722D02*
X22303396Y-12114769D01*
X22303396Y-12114769D02*
X22208158Y-12133817D01*
X22474825Y-12200484D02*
X22474825Y-12000484D01*
X22474825Y-12190960D02*
X22455777Y-12200484D01*
X22455777Y-12200484D02*
X22417682Y-12200484D01*
X22417682Y-12200484D02*
X22398634Y-12190960D01*
X22398634Y-12190960D02*
X22389111Y-12181436D01*
X22389111Y-12181436D02*
X22379587Y-12162388D01*
X22379587Y-12162388D02*
X22379587Y-12105246D01*
X22379587Y-12105246D02*
X22389111Y-12086198D01*
X22389111Y-12086198D02*
X22398634Y-12076674D01*
X22398634Y-12076674D02*
X22417682Y-12067150D01*
X22417682Y-12067150D02*
X22455777Y-12067150D01*
X22455777Y-12067150D02*
X22474825Y-12076674D01*
X22551015Y-12276674D02*
X22560539Y-12267150D01*
X22560539Y-12267150D02*
X22579587Y-12238579D01*
X22579587Y-12238579D02*
X22589111Y-12219531D01*
X22589111Y-12219531D02*
X22598634Y-12190960D01*
X22598634Y-12190960D02*
X22608158Y-12143341D01*
X22608158Y-12143341D02*
X22608158Y-12105246D01*
X22608158Y-12105246D02*
X22598634Y-12057627D01*
X22598634Y-12057627D02*
X22589111Y-12029055D01*
X22589111Y-12029055D02*
X22579587Y-12010008D01*
X22579587Y-12010008D02*
X22560539Y-11981436D01*
X22560539Y-11981436D02*
X22551015Y-11971912D01*
M02*
