%TF.GenerationSoftware,KiCad,Pcbnew,8.0.4*%
%TF.CreationDate,2024-08-22T20:54:47+02:00*%
%TF.ProjectId,Controller,436f6e74-726f-46c6-9c65-722e6b696361,v0*%
%TF.SameCoordinates,Original*%
%TF.FileFunction,Drillmap*%
%TF.FilePolarity,Positive*%
%FSLAX45Y45*%
G04 Gerber Fmt 4.5, Leading zero omitted, Abs format (unit mm)*
G04 Created by KiCad (PCBNEW 8.0.4) date 2024-08-22 20:54:47*
%MOMM*%
%LPD*%
G01*
G04 APERTURE LIST*
%ADD10C,0.050000*%
%ADD11C,0.200000*%
%ADD12C,0.100000*%
G04 APERTURE END LIST*
D10*
X15800000Y-5000000D02*
X25000000Y-5000000D01*
X25000000Y-11200000D01*
X15800000Y-11200000D01*
X15800000Y-5000000D01*
D11*
D12*
X16205000Y-5605000D02*
X16235000Y-5635000D01*
X16235000Y-5605000D02*
X16205000Y-5635000D01*
X16245000Y-5725000D02*
X16275000Y-5755000D01*
X16275000Y-5725000D02*
X16245000Y-5755000D01*
X16585000Y-9505000D02*
X16615000Y-9535000D01*
X16615000Y-9505000D02*
X16585000Y-9535000D01*
X16685000Y-5565000D02*
X16715000Y-5595000D01*
X16715000Y-5565000D02*
X16685000Y-5595000D01*
X16960000Y-6675000D02*
X16990000Y-6705000D01*
X16990000Y-6675000D02*
X16960000Y-6705000D01*
X17080000Y-6675000D02*
X17110000Y-6705000D01*
X17110000Y-6675000D02*
X17080000Y-6705000D01*
X17260000Y-6655000D02*
X17290000Y-6685000D01*
X17290000Y-6655000D02*
X17260000Y-6685000D01*
X17600000Y-6655000D02*
X17630000Y-6685000D01*
X17630000Y-6655000D02*
X17600000Y-6685000D01*
X17780000Y-6085000D02*
X17810000Y-6115000D01*
X17810000Y-6085000D02*
X17780000Y-6115000D01*
X17880000Y-6122500D02*
X17910000Y-6152500D01*
X17910000Y-6122500D02*
X17880000Y-6152500D01*
X17905000Y-7705000D02*
X17935000Y-7735000D01*
X17935000Y-7705000D02*
X17905000Y-7735000D01*
X17905000Y-7805000D02*
X17935000Y-7835000D01*
X17935000Y-7805000D02*
X17905000Y-7835000D01*
X17945000Y-7305000D02*
X17975000Y-7335000D01*
X17975000Y-7305000D02*
X17945000Y-7335000D01*
X18000000Y-6172500D02*
X18030000Y-6202500D01*
X18030000Y-6172500D02*
X18000000Y-6202500D01*
X18020000Y-6665000D02*
X18050000Y-6695000D01*
X18050000Y-6665000D02*
X18020000Y-6695000D01*
X18085000Y-7365000D02*
X18115000Y-7395000D01*
X18115000Y-7365000D02*
X18085000Y-7395000D01*
X18125000Y-7965000D02*
X18155000Y-7995000D01*
X18155000Y-7965000D02*
X18125000Y-7995000D01*
X18185000Y-7335711D02*
X18215000Y-7365711D01*
X18215000Y-7335711D02*
X18185000Y-7365711D01*
X18229958Y-6247458D02*
X18259958Y-6277458D01*
X18259958Y-6247458D02*
X18229958Y-6277458D01*
X18251250Y-6751250D02*
X18281250Y-6781250D01*
X18281250Y-6751250D02*
X18251250Y-6781250D01*
X18305000Y-7825000D02*
X18335000Y-7855000D01*
X18335000Y-7825000D02*
X18305000Y-7855000D01*
X18305000Y-7905000D02*
X18335000Y-7935000D01*
X18335000Y-7905000D02*
X18305000Y-7935000D01*
X18317444Y-6230683D02*
X18347444Y-6260683D01*
X18347444Y-6230683D02*
X18317444Y-6260683D01*
X18385000Y-7825000D02*
X18415000Y-7855000D01*
X18415000Y-7825000D02*
X18385000Y-7855000D01*
X18440000Y-6277500D02*
X18470000Y-6307500D01*
X18470000Y-6277500D02*
X18440000Y-6307500D01*
X18465000Y-7825000D02*
X18495000Y-7855000D01*
X18495000Y-7825000D02*
X18465000Y-7855000D01*
X18485000Y-8305000D02*
X18515000Y-8335000D01*
X18515000Y-8305000D02*
X18485000Y-8335000D01*
X18485000Y-8385000D02*
X18515000Y-8415000D01*
X18515000Y-8385000D02*
X18485000Y-8415000D01*
X18485000Y-8585000D02*
X18515000Y-8615000D01*
X18515000Y-8585000D02*
X18485000Y-8615000D01*
X18485000Y-8665000D02*
X18515000Y-8695000D01*
X18515000Y-8665000D02*
X18485000Y-8695000D01*
X18490000Y-8505000D02*
X18520000Y-8535000D01*
X18520000Y-8505000D02*
X18490000Y-8535000D01*
X18525000Y-8985000D02*
X18555000Y-9015000D01*
X18555000Y-8985000D02*
X18525000Y-9015000D01*
X18545000Y-7805000D02*
X18575000Y-7835000D01*
X18575000Y-7805000D02*
X18545000Y-7835000D01*
X18560000Y-6277500D02*
X18590000Y-6307500D01*
X18590000Y-6277500D02*
X18560000Y-6307500D01*
X18625000Y-7825000D02*
X18655000Y-7855000D01*
X18655000Y-7825000D02*
X18625000Y-7855000D01*
X18680000Y-6257500D02*
X18710000Y-6287500D01*
X18710000Y-6257500D02*
X18680000Y-6287500D01*
X18685000Y-7885000D02*
X18715000Y-7915000D01*
X18715000Y-7885000D02*
X18685000Y-7915000D01*
X18685000Y-7965000D02*
X18715000Y-7995000D01*
X18715000Y-7965000D02*
X18685000Y-7995000D01*
X18745000Y-7825000D02*
X18775000Y-7855000D01*
X18775000Y-7825000D02*
X18745000Y-7855000D01*
X18765000Y-7965000D02*
X18795000Y-7995000D01*
X18795000Y-7965000D02*
X18765000Y-7995000D01*
X18845000Y-7965000D02*
X18875000Y-7995000D01*
X18875000Y-7965000D02*
X18845000Y-7995000D01*
X18905000Y-8025000D02*
X18935000Y-8055000D01*
X18935000Y-8025000D02*
X18905000Y-8055000D01*
X18945000Y-8545000D02*
X18975000Y-8575000D01*
X18975000Y-8545000D02*
X18945000Y-8575000D01*
X18955000Y-7945000D02*
X18985000Y-7975000D01*
X18985000Y-7945000D02*
X18955000Y-7975000D01*
X18985000Y-8465000D02*
X19015000Y-8495000D01*
X19015000Y-8465000D02*
X18985000Y-8495000D01*
X19005000Y-7805000D02*
X19035000Y-7835000D01*
X19035000Y-7805000D02*
X19005000Y-7835000D01*
X19265000Y-8205000D02*
X19295000Y-8235000D01*
X19295000Y-8205000D02*
X19265000Y-8235000D01*
X19325000Y-8105000D02*
X19355000Y-8135000D01*
X19355000Y-8105000D02*
X19325000Y-8135000D01*
X19345000Y-8205000D02*
X19375000Y-8235000D01*
X19375000Y-8205000D02*
X19345000Y-8235000D01*
X19385000Y-8005000D02*
X19415000Y-8035000D01*
X19415000Y-8005000D02*
X19385000Y-8035000D01*
X19405000Y-8105000D02*
X19435000Y-8135000D01*
X19435000Y-8105000D02*
X19405000Y-8135000D01*
X19625000Y-6805000D02*
X19655000Y-6835000D01*
X19655000Y-6805000D02*
X19625000Y-6835000D01*
X19685000Y-6745000D02*
X19715000Y-6775000D01*
X19715000Y-6745000D02*
X19685000Y-6775000D01*
X19745000Y-6535000D02*
X19775000Y-6565000D01*
X19775000Y-6535000D02*
X19745000Y-6565000D01*
X21105000Y-9615000D02*
X21135000Y-9645000D01*
X21135000Y-9615000D02*
X21105000Y-9645000D01*
X21245000Y-9715000D02*
X21275000Y-9745000D01*
X21275000Y-9715000D02*
X21245000Y-9745000D01*
X21765000Y-9245000D02*
X21795000Y-9275000D01*
X21795000Y-9245000D02*
X21765000Y-9275000D01*
X21844896Y-9225104D02*
X21874896Y-9255104D01*
X21874896Y-9225104D02*
X21844896Y-9255104D01*
X21865000Y-9705000D02*
X21895000Y-9735000D01*
X21895000Y-9705000D02*
X21865000Y-9735000D01*
X21925000Y-7005000D02*
X21955000Y-7035000D01*
X21955000Y-7005000D02*
X21925000Y-7035000D01*
X21945000Y-9065000D02*
X21975000Y-9095000D01*
X21975000Y-9065000D02*
X21945000Y-9095000D01*
X21985000Y-7865000D02*
X22015000Y-7895000D01*
X22015000Y-7865000D02*
X21985000Y-7895000D01*
X22105000Y-9925000D02*
X22135000Y-9955000D01*
X22135000Y-9925000D02*
X22105000Y-9955000D01*
X22205000Y-9975000D02*
X22235000Y-10005000D01*
X22235000Y-9975000D02*
X22205000Y-10005000D01*
X22265000Y-6805000D02*
X22295000Y-6835000D01*
X22295000Y-6805000D02*
X22265000Y-6835000D01*
X22376645Y-9033355D02*
X22406645Y-9063355D01*
X22406645Y-9033355D02*
X22376645Y-9063355D01*
X22425000Y-9705000D02*
X22455000Y-9735000D01*
X22455000Y-9705000D02*
X22425000Y-9735000D01*
X22505000Y-6825000D02*
X22535000Y-6855000D01*
X22535000Y-6825000D02*
X22505000Y-6855000D01*
X22625000Y-5725000D02*
X22655000Y-5755000D01*
X22655000Y-5725000D02*
X22625000Y-5755000D01*
X22665000Y-6822000D02*
X22695000Y-6852000D01*
X22695000Y-6822000D02*
X22665000Y-6852000D01*
X22985000Y-9705000D02*
X23015000Y-9735000D01*
X23015000Y-9705000D02*
X22985000Y-9735000D01*
X23505000Y-9885000D02*
X23535000Y-9915000D01*
X23535000Y-9885000D02*
X23505000Y-9915000D01*
X23705000Y-9745000D02*
X23735000Y-9775000D01*
X23735000Y-9745000D02*
X23705000Y-9775000D01*
X16380000Y-9960000D02*
G75*
G02*
X16340000Y-9960000I-20000J0D01*
G01*
X16340000Y-9960000D02*
G75*
G02*
X16380000Y-9960000I20000J0D01*
G01*
X16420000Y-10760000D02*
G75*
G02*
X16380000Y-10760000I-20000J0D01*
G01*
X16380000Y-10760000D02*
G75*
G02*
X16420000Y-10760000I20000J0D01*
G01*
X16460000Y-7260000D02*
G75*
G02*
X16420000Y-7260000I-20000J0D01*
G01*
X16420000Y-7260000D02*
G75*
G02*
X16460000Y-7260000I20000J0D01*
G01*
X16640000Y-5500000D02*
G75*
G02*
X16600000Y-5500000I-20000J0D01*
G01*
X16600000Y-5500000D02*
G75*
G02*
X16640000Y-5500000I20000J0D01*
G01*
X16880000Y-5820000D02*
G75*
G02*
X16840000Y-5820000I-20000J0D01*
G01*
X16840000Y-5820000D02*
G75*
G02*
X16880000Y-5820000I20000J0D01*
G01*
X17400000Y-9260000D02*
G75*
G02*
X17360000Y-9260000I-20000J0D01*
G01*
X17360000Y-9260000D02*
G75*
G02*
X17400000Y-9260000I20000J0D01*
G01*
X17435000Y-6950000D02*
G75*
G02*
X17395000Y-6950000I-20000J0D01*
G01*
X17395000Y-6950000D02*
G75*
G02*
X17435000Y-6950000I20000J0D01*
G01*
X17520000Y-10880000D02*
G75*
G02*
X17480000Y-10880000I-20000J0D01*
G01*
X17480000Y-10880000D02*
G75*
G02*
X17520000Y-10880000I20000J0D01*
G01*
X17560000Y-10000000D02*
G75*
G02*
X17520000Y-10000000I-20000J0D01*
G01*
X17520000Y-10000000D02*
G75*
G02*
X17560000Y-10000000I20000J0D01*
G01*
X17995000Y-6860000D02*
G75*
G02*
X17955000Y-6860000I-20000J0D01*
G01*
X17955000Y-6860000D02*
G75*
G02*
X17995000Y-6860000I20000J0D01*
G01*
X18100000Y-5780000D02*
G75*
G02*
X18060000Y-5780000I-20000J0D01*
G01*
X18060000Y-5780000D02*
G75*
G02*
X18100000Y-5780000I20000J0D01*
G01*
X18135000Y-6247500D02*
G75*
G02*
X18095000Y-6247500I-20000J0D01*
G01*
X18095000Y-6247500D02*
G75*
G02*
X18135000Y-6247500I20000J0D01*
G01*
X18560000Y-7280000D02*
G75*
G02*
X18520000Y-7280000I-20000J0D01*
G01*
X18520000Y-7280000D02*
G75*
G02*
X18560000Y-7280000I20000J0D01*
G01*
X18560000Y-9740000D02*
G75*
G02*
X18520000Y-9740000I-20000J0D01*
G01*
X18520000Y-9740000D02*
G75*
G02*
X18560000Y-9740000I20000J0D01*
G01*
X19200000Y-6040000D02*
G75*
G02*
X19160000Y-6040000I-20000J0D01*
G01*
X19160000Y-6040000D02*
G75*
G02*
X19200000Y-6040000I20000J0D01*
G01*
X19200000Y-7740000D02*
G75*
G02*
X19160000Y-7740000I-20000J0D01*
G01*
X19160000Y-7740000D02*
G75*
G02*
X19200000Y-7740000I20000J0D01*
G01*
X19360000Y-7420000D02*
G75*
G02*
X19320000Y-7420000I-20000J0D01*
G01*
X19320000Y-7420000D02*
G75*
G02*
X19360000Y-7420000I20000J0D01*
G01*
X19532500Y-8020000D02*
G75*
G02*
X19492500Y-8020000I-20000J0D01*
G01*
X19492500Y-8020000D02*
G75*
G02*
X19532500Y-8020000I20000J0D01*
G01*
X19560000Y-9480000D02*
G75*
G02*
X19520000Y-9480000I-20000J0D01*
G01*
X19520000Y-9480000D02*
G75*
G02*
X19560000Y-9480000I20000J0D01*
G01*
X20240000Y-7480000D02*
G75*
G02*
X20200000Y-7480000I-20000J0D01*
G01*
X20200000Y-7480000D02*
G75*
G02*
X20240000Y-7480000I20000J0D01*
G01*
X20400000Y-8820000D02*
G75*
G02*
X20360000Y-8820000I-20000J0D01*
G01*
X20360000Y-8820000D02*
G75*
G02*
X20400000Y-8820000I20000J0D01*
G01*
X20620000Y-10800000D02*
G75*
G02*
X20580000Y-10800000I-20000J0D01*
G01*
X20580000Y-10800000D02*
G75*
G02*
X20620000Y-10800000I20000J0D01*
G01*
X20720000Y-9380000D02*
G75*
G02*
X20680000Y-9380000I-20000J0D01*
G01*
X20680000Y-9380000D02*
G75*
G02*
X20720000Y-9380000I20000J0D01*
G01*
X21220000Y-6000000D02*
G75*
G02*
X21180000Y-6000000I-20000J0D01*
G01*
X21180000Y-6000000D02*
G75*
G02*
X21220000Y-6000000I20000J0D01*
G01*
X21460000Y-8540000D02*
G75*
G02*
X21420000Y-8540000I-20000J0D01*
G01*
X21420000Y-8540000D02*
G75*
G02*
X21460000Y-8540000I20000J0D01*
G01*
X21500000Y-6400000D02*
G75*
G02*
X21460000Y-6400000I-20000J0D01*
G01*
X21460000Y-6400000D02*
G75*
G02*
X21500000Y-6400000I20000J0D01*
G01*
X22820000Y-10840000D02*
G75*
G02*
X22780000Y-10840000I-20000J0D01*
G01*
X22780000Y-10840000D02*
G75*
G02*
X22820000Y-10840000I20000J0D01*
G01*
X24080000Y-6280000D02*
G75*
G02*
X24040000Y-6280000I-20000J0D01*
G01*
X24040000Y-6280000D02*
G75*
G02*
X24080000Y-6280000I20000J0D01*
G01*
X24140000Y-8160000D02*
G75*
G02*
X24100000Y-8160000I-20000J0D01*
G01*
X24100000Y-8160000D02*
G75*
G02*
X24140000Y-8160000I20000J0D01*
G01*
X21119000Y-10152000D02*
X21119000Y-10232000D01*
X21079000Y-10192000D02*
X21159000Y-10192000D01*
X21119000Y-10406000D02*
X21119000Y-10486000D01*
X21079000Y-10446000D02*
X21159000Y-10446000D01*
X21119000Y-10660000D02*
X21119000Y-10740000D01*
X21079000Y-10700000D02*
X21159000Y-10700000D01*
X21881000Y-10152000D02*
X21881000Y-10232000D01*
X21841000Y-10192000D02*
X21921000Y-10192000D01*
X21881000Y-10406000D02*
X21881000Y-10486000D01*
X21841000Y-10446000D02*
X21921000Y-10446000D01*
X21881000Y-10660000D02*
X21881000Y-10740000D01*
X21841000Y-10700000D02*
X21921000Y-10700000D01*
X22130000Y-5485000D02*
X22130000Y-5565000D01*
X22090000Y-5525000D02*
X22170000Y-5525000D01*
X22130000Y-7009000D02*
X22130000Y-7089000D01*
X22090000Y-7049000D02*
X22170000Y-7049000D01*
X22130000Y-7660000D02*
X22130000Y-7740000D01*
X22090000Y-7700000D02*
X22170000Y-7700000D01*
X22130000Y-9184000D02*
X22130000Y-9264000D01*
X22090000Y-9224000D02*
X22170000Y-9224000D01*
X22384000Y-5485000D02*
X22384000Y-5565000D01*
X22344000Y-5525000D02*
X22424000Y-5525000D01*
X22384000Y-7009000D02*
X22384000Y-7089000D01*
X22344000Y-7049000D02*
X22424000Y-7049000D01*
X22384000Y-7660000D02*
X22384000Y-7740000D01*
X22344000Y-7700000D02*
X22424000Y-7700000D01*
X22384000Y-9184000D02*
X22384000Y-9264000D01*
X22344000Y-9224000D02*
X22424000Y-9224000D01*
X22438000Y-10152000D02*
X22438000Y-10232000D01*
X22398000Y-10192000D02*
X22478000Y-10192000D01*
X22438000Y-10406000D02*
X22438000Y-10486000D01*
X22398000Y-10446000D02*
X22478000Y-10446000D01*
X22438000Y-10660000D02*
X22438000Y-10740000D01*
X22398000Y-10700000D02*
X22478000Y-10700000D01*
X22638000Y-5485000D02*
X22638000Y-5565000D01*
X22598000Y-5525000D02*
X22678000Y-5525000D01*
X22638000Y-7009000D02*
X22638000Y-7089000D01*
X22598000Y-7049000D02*
X22678000Y-7049000D01*
X22638000Y-7660000D02*
X22638000Y-7740000D01*
X22598000Y-7700000D02*
X22678000Y-7700000D01*
X22638000Y-9184000D02*
X22638000Y-9264000D01*
X22598000Y-9224000D02*
X22678000Y-9224000D01*
X22892000Y-5485000D02*
X22892000Y-5565000D01*
X22852000Y-5525000D02*
X22932000Y-5525000D01*
X22892000Y-7009000D02*
X22892000Y-7089000D01*
X22852000Y-7049000D02*
X22932000Y-7049000D01*
X22892000Y-7660000D02*
X22892000Y-7740000D01*
X22852000Y-7700000D02*
X22932000Y-7700000D01*
X22892000Y-9184000D02*
X22892000Y-9264000D01*
X22852000Y-9224000D02*
X22932000Y-9224000D01*
X23146000Y-5485000D02*
X23146000Y-5565000D01*
X23106000Y-5525000D02*
X23186000Y-5525000D01*
X23146000Y-7009000D02*
X23146000Y-7089000D01*
X23106000Y-7049000D02*
X23186000Y-7049000D01*
X23146000Y-7660000D02*
X23146000Y-7740000D01*
X23106000Y-7700000D02*
X23186000Y-7700000D01*
X23146000Y-9184000D02*
X23146000Y-9264000D01*
X23106000Y-9224000D02*
X23186000Y-9224000D01*
X23200000Y-10152000D02*
X23200000Y-10232000D01*
X23160000Y-10192000D02*
X23240000Y-10192000D01*
X23200000Y-10406000D02*
X23200000Y-10486000D01*
X23160000Y-10446000D02*
X23240000Y-10446000D01*
X23200000Y-10660000D02*
X23200000Y-10740000D01*
X23160000Y-10700000D02*
X23240000Y-10700000D01*
X23400000Y-5485000D02*
X23400000Y-5565000D01*
X23360000Y-5525000D02*
X23440000Y-5525000D01*
X23400000Y-7009000D02*
X23400000Y-7089000D01*
X23360000Y-7049000D02*
X23440000Y-7049000D01*
X23400000Y-7660000D02*
X23400000Y-7740000D01*
X23360000Y-7700000D02*
X23440000Y-7700000D01*
X23400000Y-9184000D02*
X23400000Y-9264000D01*
X23360000Y-9224000D02*
X23440000Y-9224000D01*
X23719000Y-10152000D02*
X23719000Y-10232000D01*
X23679000Y-10192000D02*
X23759000Y-10192000D01*
X23719000Y-10406000D02*
X23719000Y-10486000D01*
X23679000Y-10446000D02*
X23759000Y-10446000D01*
X23719000Y-10660000D02*
X23719000Y-10740000D01*
X23679000Y-10700000D02*
X23759000Y-10700000D01*
X24481000Y-10152000D02*
X24481000Y-10232000D01*
X24441000Y-10192000D02*
X24521000Y-10192000D01*
X24481000Y-10406000D02*
X24481000Y-10486000D01*
X24441000Y-10446000D02*
X24521000Y-10446000D01*
X24481000Y-10660000D02*
X24481000Y-10740000D01*
X24441000Y-10700000D02*
X24521000Y-10700000D01*
X16195356Y-9007356D02*
X16195356Y-8936644D01*
X16124644Y-8936644D01*
X16124644Y-9007356D01*
X16195356Y-9007356D01*
X16195356Y-9261356D02*
X16195356Y-9190644D01*
X16124644Y-9190644D01*
X16124644Y-9261356D01*
X16195356Y-9261356D01*
X16195356Y-9515356D02*
X16195356Y-9444644D01*
X16124644Y-9444644D01*
X16124644Y-9515356D01*
X16195356Y-9515356D01*
X16195356Y-9769356D02*
X16195356Y-9698644D01*
X16124644Y-9698644D01*
X16124644Y-9769356D01*
X16195356Y-9769356D01*
X16195356Y-10255356D02*
X16195356Y-10184644D01*
X16124644Y-10184644D01*
X16124644Y-10255356D01*
X16195356Y-10255356D01*
X16195356Y-10509356D02*
X16195356Y-10438644D01*
X16124644Y-10438644D01*
X16124644Y-10509356D01*
X16195356Y-10509356D01*
X16195356Y-10763356D02*
X16195356Y-10692644D01*
X16124644Y-10692644D01*
X16124644Y-10763356D01*
X16195356Y-10763356D01*
X16195356Y-11017356D02*
X16195356Y-10946644D01*
X16124644Y-10946644D01*
X16124644Y-11017356D01*
X16195356Y-11017356D01*
X18795356Y-10635356D02*
X18795356Y-10564644D01*
X18724644Y-10564644D01*
X18724644Y-10635356D01*
X18795356Y-10635356D01*
X19775356Y-10635356D02*
X19775356Y-10564644D01*
X19704644Y-10564644D01*
X19704644Y-10635356D01*
X19775356Y-10635356D01*
D11*
X16058277Y-11513984D02*
X16058277Y-11313984D01*
X16058277Y-11313984D02*
X16105896Y-11313984D01*
X16105896Y-11313984D02*
X16134467Y-11323508D01*
X16134467Y-11323508D02*
X16153515Y-11342555D01*
X16153515Y-11342555D02*
X16163039Y-11361603D01*
X16163039Y-11361603D02*
X16172562Y-11399698D01*
X16172562Y-11399698D02*
X16172562Y-11428269D01*
X16172562Y-11428269D02*
X16163039Y-11466365D01*
X16163039Y-11466365D02*
X16153515Y-11485412D01*
X16153515Y-11485412D02*
X16134467Y-11504460D01*
X16134467Y-11504460D02*
X16105896Y-11513984D01*
X16105896Y-11513984D02*
X16058277Y-11513984D01*
X16258277Y-11513984D02*
X16258277Y-11380650D01*
X16258277Y-11418746D02*
X16267801Y-11399698D01*
X16267801Y-11399698D02*
X16277324Y-11390174D01*
X16277324Y-11390174D02*
X16296372Y-11380650D01*
X16296372Y-11380650D02*
X16315420Y-11380650D01*
X16382086Y-11513984D02*
X16382086Y-11380650D01*
X16382086Y-11313984D02*
X16372562Y-11323508D01*
X16372562Y-11323508D02*
X16382086Y-11333031D01*
X16382086Y-11333031D02*
X16391610Y-11323508D01*
X16391610Y-11323508D02*
X16382086Y-11313984D01*
X16382086Y-11313984D02*
X16382086Y-11333031D01*
X16505896Y-11513984D02*
X16486848Y-11504460D01*
X16486848Y-11504460D02*
X16477324Y-11485412D01*
X16477324Y-11485412D02*
X16477324Y-11313984D01*
X16610658Y-11513984D02*
X16591610Y-11504460D01*
X16591610Y-11504460D02*
X16582086Y-11485412D01*
X16582086Y-11485412D02*
X16582086Y-11313984D01*
X16839229Y-11513984D02*
X16839229Y-11313984D01*
X16839229Y-11313984D02*
X16905896Y-11456841D01*
X16905896Y-11456841D02*
X16972563Y-11313984D01*
X16972563Y-11313984D02*
X16972563Y-11513984D01*
X17153515Y-11513984D02*
X17153515Y-11409222D01*
X17153515Y-11409222D02*
X17143991Y-11390174D01*
X17143991Y-11390174D02*
X17124944Y-11380650D01*
X17124944Y-11380650D02*
X17086848Y-11380650D01*
X17086848Y-11380650D02*
X17067801Y-11390174D01*
X17153515Y-11504460D02*
X17134467Y-11513984D01*
X17134467Y-11513984D02*
X17086848Y-11513984D01*
X17086848Y-11513984D02*
X17067801Y-11504460D01*
X17067801Y-11504460D02*
X17058277Y-11485412D01*
X17058277Y-11485412D02*
X17058277Y-11466365D01*
X17058277Y-11466365D02*
X17067801Y-11447317D01*
X17067801Y-11447317D02*
X17086848Y-11437793D01*
X17086848Y-11437793D02*
X17134467Y-11437793D01*
X17134467Y-11437793D02*
X17153515Y-11428269D01*
X17248753Y-11380650D02*
X17248753Y-11580650D01*
X17248753Y-11390174D02*
X17267801Y-11380650D01*
X17267801Y-11380650D02*
X17305896Y-11380650D01*
X17305896Y-11380650D02*
X17324944Y-11390174D01*
X17324944Y-11390174D02*
X17334467Y-11399698D01*
X17334467Y-11399698D02*
X17343991Y-11418746D01*
X17343991Y-11418746D02*
X17343991Y-11475888D01*
X17343991Y-11475888D02*
X17334467Y-11494936D01*
X17334467Y-11494936D02*
X17324944Y-11504460D01*
X17324944Y-11504460D02*
X17305896Y-11513984D01*
X17305896Y-11513984D02*
X17267801Y-11513984D01*
X17267801Y-11513984D02*
X17248753Y-11504460D01*
X17429705Y-11494936D02*
X17439229Y-11504460D01*
X17439229Y-11504460D02*
X17429705Y-11513984D01*
X17429705Y-11513984D02*
X17420182Y-11504460D01*
X17420182Y-11504460D02*
X17429705Y-11494936D01*
X17429705Y-11494936D02*
X17429705Y-11513984D01*
X17429705Y-11390174D02*
X17439229Y-11399698D01*
X17439229Y-11399698D02*
X17429705Y-11409222D01*
X17429705Y-11409222D02*
X17420182Y-11399698D01*
X17420182Y-11399698D02*
X17429705Y-11390174D01*
X17429705Y-11390174D02*
X17429705Y-11409222D01*
D12*
X15767500Y-11827500D02*
X15797500Y-11857500D01*
X15797500Y-11827500D02*
X15767500Y-11857500D01*
D11*
X16096372Y-11733984D02*
X16115420Y-11733984D01*
X16115420Y-11733984D02*
X16134467Y-11743508D01*
X16134467Y-11743508D02*
X16143991Y-11753031D01*
X16143991Y-11753031D02*
X16153515Y-11772079D01*
X16153515Y-11772079D02*
X16163039Y-11810174D01*
X16163039Y-11810174D02*
X16163039Y-11857793D01*
X16163039Y-11857793D02*
X16153515Y-11895888D01*
X16153515Y-11895888D02*
X16143991Y-11914936D01*
X16143991Y-11914936D02*
X16134467Y-11924460D01*
X16134467Y-11924460D02*
X16115420Y-11933984D01*
X16115420Y-11933984D02*
X16096372Y-11933984D01*
X16096372Y-11933984D02*
X16077324Y-11924460D01*
X16077324Y-11924460D02*
X16067801Y-11914936D01*
X16067801Y-11914936D02*
X16058277Y-11895888D01*
X16058277Y-11895888D02*
X16048753Y-11857793D01*
X16048753Y-11857793D02*
X16048753Y-11810174D01*
X16048753Y-11810174D02*
X16058277Y-11772079D01*
X16058277Y-11772079D02*
X16067801Y-11753031D01*
X16067801Y-11753031D02*
X16077324Y-11743508D01*
X16077324Y-11743508D02*
X16096372Y-11733984D01*
X16248753Y-11914936D02*
X16258277Y-11924460D01*
X16258277Y-11924460D02*
X16248753Y-11933984D01*
X16248753Y-11933984D02*
X16239229Y-11924460D01*
X16239229Y-11924460D02*
X16248753Y-11914936D01*
X16248753Y-11914936D02*
X16248753Y-11933984D01*
X16324943Y-11733984D02*
X16448753Y-11733984D01*
X16448753Y-11733984D02*
X16382086Y-11810174D01*
X16382086Y-11810174D02*
X16410658Y-11810174D01*
X16410658Y-11810174D02*
X16429705Y-11819698D01*
X16429705Y-11819698D02*
X16439229Y-11829222D01*
X16439229Y-11829222D02*
X16448753Y-11848269D01*
X16448753Y-11848269D02*
X16448753Y-11895888D01*
X16448753Y-11895888D02*
X16439229Y-11914936D01*
X16439229Y-11914936D02*
X16429705Y-11924460D01*
X16429705Y-11924460D02*
X16410658Y-11933984D01*
X16410658Y-11933984D02*
X16353515Y-11933984D01*
X16353515Y-11933984D02*
X16334467Y-11924460D01*
X16334467Y-11924460D02*
X16324943Y-11914936D01*
X16572562Y-11733984D02*
X16591610Y-11733984D01*
X16591610Y-11733984D02*
X16610658Y-11743508D01*
X16610658Y-11743508D02*
X16620182Y-11753031D01*
X16620182Y-11753031D02*
X16629705Y-11772079D01*
X16629705Y-11772079D02*
X16639229Y-11810174D01*
X16639229Y-11810174D02*
X16639229Y-11857793D01*
X16639229Y-11857793D02*
X16629705Y-11895888D01*
X16629705Y-11895888D02*
X16620182Y-11914936D01*
X16620182Y-11914936D02*
X16610658Y-11924460D01*
X16610658Y-11924460D02*
X16591610Y-11933984D01*
X16591610Y-11933984D02*
X16572562Y-11933984D01*
X16572562Y-11933984D02*
X16553515Y-11924460D01*
X16553515Y-11924460D02*
X16543991Y-11914936D01*
X16543991Y-11914936D02*
X16534467Y-11895888D01*
X16534467Y-11895888D02*
X16524943Y-11857793D01*
X16524943Y-11857793D02*
X16524943Y-11810174D01*
X16524943Y-11810174D02*
X16534467Y-11772079D01*
X16534467Y-11772079D02*
X16543991Y-11753031D01*
X16543991Y-11753031D02*
X16553515Y-11743508D01*
X16553515Y-11743508D02*
X16572562Y-11733984D01*
X16763039Y-11733984D02*
X16782086Y-11733984D01*
X16782086Y-11733984D02*
X16801134Y-11743508D01*
X16801134Y-11743508D02*
X16810658Y-11753031D01*
X16810658Y-11753031D02*
X16820182Y-11772079D01*
X16820182Y-11772079D02*
X16829705Y-11810174D01*
X16829705Y-11810174D02*
X16829705Y-11857793D01*
X16829705Y-11857793D02*
X16820182Y-11895888D01*
X16820182Y-11895888D02*
X16810658Y-11914936D01*
X16810658Y-11914936D02*
X16801134Y-11924460D01*
X16801134Y-11924460D02*
X16782086Y-11933984D01*
X16782086Y-11933984D02*
X16763039Y-11933984D01*
X16763039Y-11933984D02*
X16743991Y-11924460D01*
X16743991Y-11924460D02*
X16734467Y-11914936D01*
X16734467Y-11914936D02*
X16724943Y-11895888D01*
X16724943Y-11895888D02*
X16715420Y-11857793D01*
X16715420Y-11857793D02*
X16715420Y-11810174D01*
X16715420Y-11810174D02*
X16724943Y-11772079D01*
X16724943Y-11772079D02*
X16734467Y-11753031D01*
X16734467Y-11753031D02*
X16743991Y-11743508D01*
X16743991Y-11743508D02*
X16763039Y-11733984D01*
X16915420Y-11933984D02*
X16915420Y-11800650D01*
X16915420Y-11819698D02*
X16924944Y-11810174D01*
X16924944Y-11810174D02*
X16943991Y-11800650D01*
X16943991Y-11800650D02*
X16972563Y-11800650D01*
X16972563Y-11800650D02*
X16991610Y-11810174D01*
X16991610Y-11810174D02*
X17001134Y-11829222D01*
X17001134Y-11829222D02*
X17001134Y-11933984D01*
X17001134Y-11829222D02*
X17010658Y-11810174D01*
X17010658Y-11810174D02*
X17029705Y-11800650D01*
X17029705Y-11800650D02*
X17058277Y-11800650D01*
X17058277Y-11800650D02*
X17077325Y-11810174D01*
X17077325Y-11810174D02*
X17086848Y-11829222D01*
X17086848Y-11829222D02*
X17086848Y-11933984D01*
X17182086Y-11933984D02*
X17182086Y-11800650D01*
X17182086Y-11819698D02*
X17191610Y-11810174D01*
X17191610Y-11810174D02*
X17210658Y-11800650D01*
X17210658Y-11800650D02*
X17239229Y-11800650D01*
X17239229Y-11800650D02*
X17258277Y-11810174D01*
X17258277Y-11810174D02*
X17267801Y-11829222D01*
X17267801Y-11829222D02*
X17267801Y-11933984D01*
X17267801Y-11829222D02*
X17277325Y-11810174D01*
X17277325Y-11810174D02*
X17296372Y-11800650D01*
X17296372Y-11800650D02*
X17324944Y-11800650D01*
X17324944Y-11800650D02*
X17343991Y-11810174D01*
X17343991Y-11810174D02*
X17353515Y-11829222D01*
X17353515Y-11829222D02*
X17353515Y-11933984D01*
X17743991Y-11724460D02*
X17572563Y-11981603D01*
X18001134Y-11733984D02*
X18020182Y-11733984D01*
X18020182Y-11733984D02*
X18039229Y-11743508D01*
X18039229Y-11743508D02*
X18048753Y-11753031D01*
X18048753Y-11753031D02*
X18058277Y-11772079D01*
X18058277Y-11772079D02*
X18067801Y-11810174D01*
X18067801Y-11810174D02*
X18067801Y-11857793D01*
X18067801Y-11857793D02*
X18058277Y-11895888D01*
X18058277Y-11895888D02*
X18048753Y-11914936D01*
X18048753Y-11914936D02*
X18039229Y-11924460D01*
X18039229Y-11924460D02*
X18020182Y-11933984D01*
X18020182Y-11933984D02*
X18001134Y-11933984D01*
X18001134Y-11933984D02*
X17982087Y-11924460D01*
X17982087Y-11924460D02*
X17972563Y-11914936D01*
X17972563Y-11914936D02*
X17963039Y-11895888D01*
X17963039Y-11895888D02*
X17953515Y-11857793D01*
X17953515Y-11857793D02*
X17953515Y-11810174D01*
X17953515Y-11810174D02*
X17963039Y-11772079D01*
X17963039Y-11772079D02*
X17972563Y-11753031D01*
X17972563Y-11753031D02*
X17982087Y-11743508D01*
X17982087Y-11743508D02*
X18001134Y-11733984D01*
X18153515Y-11914936D02*
X18163039Y-11924460D01*
X18163039Y-11924460D02*
X18153515Y-11933984D01*
X18153515Y-11933984D02*
X18143991Y-11924460D01*
X18143991Y-11924460D02*
X18153515Y-11914936D01*
X18153515Y-11914936D02*
X18153515Y-11933984D01*
X18286848Y-11733984D02*
X18305896Y-11733984D01*
X18305896Y-11733984D02*
X18324944Y-11743508D01*
X18324944Y-11743508D02*
X18334468Y-11753031D01*
X18334468Y-11753031D02*
X18343991Y-11772079D01*
X18343991Y-11772079D02*
X18353515Y-11810174D01*
X18353515Y-11810174D02*
X18353515Y-11857793D01*
X18353515Y-11857793D02*
X18343991Y-11895888D01*
X18343991Y-11895888D02*
X18334468Y-11914936D01*
X18334468Y-11914936D02*
X18324944Y-11924460D01*
X18324944Y-11924460D02*
X18305896Y-11933984D01*
X18305896Y-11933984D02*
X18286848Y-11933984D01*
X18286848Y-11933984D02*
X18267801Y-11924460D01*
X18267801Y-11924460D02*
X18258277Y-11914936D01*
X18258277Y-11914936D02*
X18248753Y-11895888D01*
X18248753Y-11895888D02*
X18239229Y-11857793D01*
X18239229Y-11857793D02*
X18239229Y-11810174D01*
X18239229Y-11810174D02*
X18248753Y-11772079D01*
X18248753Y-11772079D02*
X18258277Y-11753031D01*
X18258277Y-11753031D02*
X18267801Y-11743508D01*
X18267801Y-11743508D02*
X18286848Y-11733984D01*
X18543991Y-11933984D02*
X18429706Y-11933984D01*
X18486848Y-11933984D02*
X18486848Y-11733984D01*
X18486848Y-11733984D02*
X18467801Y-11762555D01*
X18467801Y-11762555D02*
X18448753Y-11781603D01*
X18448753Y-11781603D02*
X18429706Y-11791127D01*
X18734468Y-11933984D02*
X18620182Y-11933984D01*
X18677325Y-11933984D02*
X18677325Y-11733984D01*
X18677325Y-11733984D02*
X18658277Y-11762555D01*
X18658277Y-11762555D02*
X18639229Y-11781603D01*
X18639229Y-11781603D02*
X18620182Y-11791127D01*
X18848753Y-11819698D02*
X18829706Y-11810174D01*
X18829706Y-11810174D02*
X18820182Y-11800650D01*
X18820182Y-11800650D02*
X18810658Y-11781603D01*
X18810658Y-11781603D02*
X18810658Y-11772079D01*
X18810658Y-11772079D02*
X18820182Y-11753031D01*
X18820182Y-11753031D02*
X18829706Y-11743508D01*
X18829706Y-11743508D02*
X18848753Y-11733984D01*
X18848753Y-11733984D02*
X18886849Y-11733984D01*
X18886849Y-11733984D02*
X18905896Y-11743508D01*
X18905896Y-11743508D02*
X18915420Y-11753031D01*
X18915420Y-11753031D02*
X18924944Y-11772079D01*
X18924944Y-11772079D02*
X18924944Y-11781603D01*
X18924944Y-11781603D02*
X18915420Y-11800650D01*
X18915420Y-11800650D02*
X18905896Y-11810174D01*
X18905896Y-11810174D02*
X18886849Y-11819698D01*
X18886849Y-11819698D02*
X18848753Y-11819698D01*
X18848753Y-11819698D02*
X18829706Y-11829222D01*
X18829706Y-11829222D02*
X18820182Y-11838746D01*
X18820182Y-11838746D02*
X18810658Y-11857793D01*
X18810658Y-11857793D02*
X18810658Y-11895888D01*
X18810658Y-11895888D02*
X18820182Y-11914936D01*
X18820182Y-11914936D02*
X18829706Y-11924460D01*
X18829706Y-11924460D02*
X18848753Y-11933984D01*
X18848753Y-11933984D02*
X18886849Y-11933984D01*
X18886849Y-11933984D02*
X18905896Y-11924460D01*
X18905896Y-11924460D02*
X18915420Y-11914936D01*
X18915420Y-11914936D02*
X18924944Y-11895888D01*
X18924944Y-11895888D02*
X18924944Y-11857793D01*
X18924944Y-11857793D02*
X18915420Y-11838746D01*
X18915420Y-11838746D02*
X18905896Y-11829222D01*
X18905896Y-11829222D02*
X18886849Y-11819698D01*
X19001134Y-11733984D02*
X19001134Y-11772079D01*
X19077325Y-11733984D02*
X19077325Y-11772079D01*
X19372563Y-12010174D02*
X19363039Y-12000650D01*
X19363039Y-12000650D02*
X19343991Y-11972079D01*
X19343991Y-11972079D02*
X19334468Y-11953031D01*
X19334468Y-11953031D02*
X19324944Y-11924460D01*
X19324944Y-11924460D02*
X19315420Y-11876841D01*
X19315420Y-11876841D02*
X19315420Y-11838746D01*
X19315420Y-11838746D02*
X19324944Y-11791127D01*
X19324944Y-11791127D02*
X19334468Y-11762555D01*
X19334468Y-11762555D02*
X19343991Y-11743508D01*
X19343991Y-11743508D02*
X19363039Y-11714936D01*
X19363039Y-11714936D02*
X19372563Y-11705412D01*
X19429706Y-11733984D02*
X19563039Y-11733984D01*
X19563039Y-11733984D02*
X19477325Y-11933984D01*
X19620182Y-11733984D02*
X19743991Y-11733984D01*
X19743991Y-11733984D02*
X19677325Y-11810174D01*
X19677325Y-11810174D02*
X19705896Y-11810174D01*
X19705896Y-11810174D02*
X19724944Y-11819698D01*
X19724944Y-11819698D02*
X19734468Y-11829222D01*
X19734468Y-11829222D02*
X19743991Y-11848269D01*
X19743991Y-11848269D02*
X19743991Y-11895888D01*
X19743991Y-11895888D02*
X19734468Y-11914936D01*
X19734468Y-11914936D02*
X19724944Y-11924460D01*
X19724944Y-11924460D02*
X19705896Y-11933984D01*
X19705896Y-11933984D02*
X19648753Y-11933984D01*
X19648753Y-11933984D02*
X19629706Y-11924460D01*
X19629706Y-11924460D02*
X19620182Y-11914936D01*
X19982087Y-11933984D02*
X19982087Y-11733984D01*
X20067801Y-11933984D02*
X20067801Y-11829222D01*
X20067801Y-11829222D02*
X20058277Y-11810174D01*
X20058277Y-11810174D02*
X20039230Y-11800650D01*
X20039230Y-11800650D02*
X20010658Y-11800650D01*
X20010658Y-11800650D02*
X19991611Y-11810174D01*
X19991611Y-11810174D02*
X19982087Y-11819698D01*
X20191611Y-11933984D02*
X20172563Y-11924460D01*
X20172563Y-11924460D02*
X20163039Y-11914936D01*
X20163039Y-11914936D02*
X20153515Y-11895888D01*
X20153515Y-11895888D02*
X20153515Y-11838746D01*
X20153515Y-11838746D02*
X20163039Y-11819698D01*
X20163039Y-11819698D02*
X20172563Y-11810174D01*
X20172563Y-11810174D02*
X20191611Y-11800650D01*
X20191611Y-11800650D02*
X20220182Y-11800650D01*
X20220182Y-11800650D02*
X20239230Y-11810174D01*
X20239230Y-11810174D02*
X20248753Y-11819698D01*
X20248753Y-11819698D02*
X20258277Y-11838746D01*
X20258277Y-11838746D02*
X20258277Y-11895888D01*
X20258277Y-11895888D02*
X20248753Y-11914936D01*
X20248753Y-11914936D02*
X20239230Y-11924460D01*
X20239230Y-11924460D02*
X20220182Y-11933984D01*
X20220182Y-11933984D02*
X20191611Y-11933984D01*
X20372563Y-11933984D02*
X20353515Y-11924460D01*
X20353515Y-11924460D02*
X20343992Y-11905412D01*
X20343992Y-11905412D02*
X20343992Y-11733984D01*
X20524944Y-11924460D02*
X20505896Y-11933984D01*
X20505896Y-11933984D02*
X20467801Y-11933984D01*
X20467801Y-11933984D02*
X20448753Y-11924460D01*
X20448753Y-11924460D02*
X20439230Y-11905412D01*
X20439230Y-11905412D02*
X20439230Y-11829222D01*
X20439230Y-11829222D02*
X20448753Y-11810174D01*
X20448753Y-11810174D02*
X20467801Y-11800650D01*
X20467801Y-11800650D02*
X20505896Y-11800650D01*
X20505896Y-11800650D02*
X20524944Y-11810174D01*
X20524944Y-11810174D02*
X20534468Y-11829222D01*
X20534468Y-11829222D02*
X20534468Y-11848269D01*
X20534468Y-11848269D02*
X20439230Y-11867317D01*
X20610658Y-11924460D02*
X20629706Y-11933984D01*
X20629706Y-11933984D02*
X20667801Y-11933984D01*
X20667801Y-11933984D02*
X20686849Y-11924460D01*
X20686849Y-11924460D02*
X20696373Y-11905412D01*
X20696373Y-11905412D02*
X20696373Y-11895888D01*
X20696373Y-11895888D02*
X20686849Y-11876841D01*
X20686849Y-11876841D02*
X20667801Y-11867317D01*
X20667801Y-11867317D02*
X20639230Y-11867317D01*
X20639230Y-11867317D02*
X20620182Y-11857793D01*
X20620182Y-11857793D02*
X20610658Y-11838746D01*
X20610658Y-11838746D02*
X20610658Y-11829222D01*
X20610658Y-11829222D02*
X20620182Y-11810174D01*
X20620182Y-11810174D02*
X20639230Y-11800650D01*
X20639230Y-11800650D02*
X20667801Y-11800650D01*
X20667801Y-11800650D02*
X20686849Y-11810174D01*
X20763039Y-12010174D02*
X20772563Y-12000650D01*
X20772563Y-12000650D02*
X20791611Y-11972079D01*
X20791611Y-11972079D02*
X20801134Y-11953031D01*
X20801134Y-11953031D02*
X20810658Y-11924460D01*
X20810658Y-11924460D02*
X20820182Y-11876841D01*
X20820182Y-11876841D02*
X20820182Y-11838746D01*
X20820182Y-11838746D02*
X20810658Y-11791127D01*
X20810658Y-11791127D02*
X20801134Y-11762555D01*
X20801134Y-11762555D02*
X20791611Y-11743508D01*
X20791611Y-11743508D02*
X20772563Y-11714936D01*
X20772563Y-11714936D02*
X20763039Y-11705412D01*
D12*
X15797500Y-12106500D02*
G75*
G02*
X15757500Y-12106500I-20000J0D01*
G01*
X15757500Y-12106500D02*
G75*
G02*
X15797500Y-12106500I20000J0D01*
G01*
D11*
X16096372Y-11997984D02*
X16115420Y-11997984D01*
X16115420Y-11997984D02*
X16134467Y-12007508D01*
X16134467Y-12007508D02*
X16143991Y-12017031D01*
X16143991Y-12017031D02*
X16153515Y-12036079D01*
X16153515Y-12036079D02*
X16163039Y-12074174D01*
X16163039Y-12074174D02*
X16163039Y-12121793D01*
X16163039Y-12121793D02*
X16153515Y-12159888D01*
X16153515Y-12159888D02*
X16143991Y-12178936D01*
X16143991Y-12178936D02*
X16134467Y-12188460D01*
X16134467Y-12188460D02*
X16115420Y-12197984D01*
X16115420Y-12197984D02*
X16096372Y-12197984D01*
X16096372Y-12197984D02*
X16077324Y-12188460D01*
X16077324Y-12188460D02*
X16067801Y-12178936D01*
X16067801Y-12178936D02*
X16058277Y-12159888D01*
X16058277Y-12159888D02*
X16048753Y-12121793D01*
X16048753Y-12121793D02*
X16048753Y-12074174D01*
X16048753Y-12074174D02*
X16058277Y-12036079D01*
X16058277Y-12036079D02*
X16067801Y-12017031D01*
X16067801Y-12017031D02*
X16077324Y-12007508D01*
X16077324Y-12007508D02*
X16096372Y-11997984D01*
X16248753Y-12178936D02*
X16258277Y-12188460D01*
X16258277Y-12188460D02*
X16248753Y-12197984D01*
X16248753Y-12197984D02*
X16239229Y-12188460D01*
X16239229Y-12188460D02*
X16248753Y-12178936D01*
X16248753Y-12178936D02*
X16248753Y-12197984D01*
X16429705Y-12064650D02*
X16429705Y-12197984D01*
X16382086Y-11988460D02*
X16334467Y-12131317D01*
X16334467Y-12131317D02*
X16458277Y-12131317D01*
X16572562Y-11997984D02*
X16591610Y-11997984D01*
X16591610Y-11997984D02*
X16610658Y-12007508D01*
X16610658Y-12007508D02*
X16620182Y-12017031D01*
X16620182Y-12017031D02*
X16629705Y-12036079D01*
X16629705Y-12036079D02*
X16639229Y-12074174D01*
X16639229Y-12074174D02*
X16639229Y-12121793D01*
X16639229Y-12121793D02*
X16629705Y-12159888D01*
X16629705Y-12159888D02*
X16620182Y-12178936D01*
X16620182Y-12178936D02*
X16610658Y-12188460D01*
X16610658Y-12188460D02*
X16591610Y-12197984D01*
X16591610Y-12197984D02*
X16572562Y-12197984D01*
X16572562Y-12197984D02*
X16553515Y-12188460D01*
X16553515Y-12188460D02*
X16543991Y-12178936D01*
X16543991Y-12178936D02*
X16534467Y-12159888D01*
X16534467Y-12159888D02*
X16524943Y-12121793D01*
X16524943Y-12121793D02*
X16524943Y-12074174D01*
X16524943Y-12074174D02*
X16534467Y-12036079D01*
X16534467Y-12036079D02*
X16543991Y-12017031D01*
X16543991Y-12017031D02*
X16553515Y-12007508D01*
X16553515Y-12007508D02*
X16572562Y-11997984D01*
X16763039Y-11997984D02*
X16782086Y-11997984D01*
X16782086Y-11997984D02*
X16801134Y-12007508D01*
X16801134Y-12007508D02*
X16810658Y-12017031D01*
X16810658Y-12017031D02*
X16820182Y-12036079D01*
X16820182Y-12036079D02*
X16829705Y-12074174D01*
X16829705Y-12074174D02*
X16829705Y-12121793D01*
X16829705Y-12121793D02*
X16820182Y-12159888D01*
X16820182Y-12159888D02*
X16810658Y-12178936D01*
X16810658Y-12178936D02*
X16801134Y-12188460D01*
X16801134Y-12188460D02*
X16782086Y-12197984D01*
X16782086Y-12197984D02*
X16763039Y-12197984D01*
X16763039Y-12197984D02*
X16743991Y-12188460D01*
X16743991Y-12188460D02*
X16734467Y-12178936D01*
X16734467Y-12178936D02*
X16724943Y-12159888D01*
X16724943Y-12159888D02*
X16715420Y-12121793D01*
X16715420Y-12121793D02*
X16715420Y-12074174D01*
X16715420Y-12074174D02*
X16724943Y-12036079D01*
X16724943Y-12036079D02*
X16734467Y-12017031D01*
X16734467Y-12017031D02*
X16743991Y-12007508D01*
X16743991Y-12007508D02*
X16763039Y-11997984D01*
X16915420Y-12197984D02*
X16915420Y-12064650D01*
X16915420Y-12083698D02*
X16924944Y-12074174D01*
X16924944Y-12074174D02*
X16943991Y-12064650D01*
X16943991Y-12064650D02*
X16972563Y-12064650D01*
X16972563Y-12064650D02*
X16991610Y-12074174D01*
X16991610Y-12074174D02*
X17001134Y-12093222D01*
X17001134Y-12093222D02*
X17001134Y-12197984D01*
X17001134Y-12093222D02*
X17010658Y-12074174D01*
X17010658Y-12074174D02*
X17029705Y-12064650D01*
X17029705Y-12064650D02*
X17058277Y-12064650D01*
X17058277Y-12064650D02*
X17077325Y-12074174D01*
X17077325Y-12074174D02*
X17086848Y-12093222D01*
X17086848Y-12093222D02*
X17086848Y-12197984D01*
X17182086Y-12197984D02*
X17182086Y-12064650D01*
X17182086Y-12083698D02*
X17191610Y-12074174D01*
X17191610Y-12074174D02*
X17210658Y-12064650D01*
X17210658Y-12064650D02*
X17239229Y-12064650D01*
X17239229Y-12064650D02*
X17258277Y-12074174D01*
X17258277Y-12074174D02*
X17267801Y-12093222D01*
X17267801Y-12093222D02*
X17267801Y-12197984D01*
X17267801Y-12093222D02*
X17277325Y-12074174D01*
X17277325Y-12074174D02*
X17296372Y-12064650D01*
X17296372Y-12064650D02*
X17324944Y-12064650D01*
X17324944Y-12064650D02*
X17343991Y-12074174D01*
X17343991Y-12074174D02*
X17353515Y-12093222D01*
X17353515Y-12093222D02*
X17353515Y-12197984D01*
X17743991Y-11988460D02*
X17572563Y-12245603D01*
X18001134Y-11997984D02*
X18020182Y-11997984D01*
X18020182Y-11997984D02*
X18039229Y-12007508D01*
X18039229Y-12007508D02*
X18048753Y-12017031D01*
X18048753Y-12017031D02*
X18058277Y-12036079D01*
X18058277Y-12036079D02*
X18067801Y-12074174D01*
X18067801Y-12074174D02*
X18067801Y-12121793D01*
X18067801Y-12121793D02*
X18058277Y-12159888D01*
X18058277Y-12159888D02*
X18048753Y-12178936D01*
X18048753Y-12178936D02*
X18039229Y-12188460D01*
X18039229Y-12188460D02*
X18020182Y-12197984D01*
X18020182Y-12197984D02*
X18001134Y-12197984D01*
X18001134Y-12197984D02*
X17982087Y-12188460D01*
X17982087Y-12188460D02*
X17972563Y-12178936D01*
X17972563Y-12178936D02*
X17963039Y-12159888D01*
X17963039Y-12159888D02*
X17953515Y-12121793D01*
X17953515Y-12121793D02*
X17953515Y-12074174D01*
X17953515Y-12074174D02*
X17963039Y-12036079D01*
X17963039Y-12036079D02*
X17972563Y-12017031D01*
X17972563Y-12017031D02*
X17982087Y-12007508D01*
X17982087Y-12007508D02*
X18001134Y-11997984D01*
X18153515Y-12178936D02*
X18163039Y-12188460D01*
X18163039Y-12188460D02*
X18153515Y-12197984D01*
X18153515Y-12197984D02*
X18143991Y-12188460D01*
X18143991Y-12188460D02*
X18153515Y-12178936D01*
X18153515Y-12178936D02*
X18153515Y-12197984D01*
X18286848Y-11997984D02*
X18305896Y-11997984D01*
X18305896Y-11997984D02*
X18324944Y-12007508D01*
X18324944Y-12007508D02*
X18334468Y-12017031D01*
X18334468Y-12017031D02*
X18343991Y-12036079D01*
X18343991Y-12036079D02*
X18353515Y-12074174D01*
X18353515Y-12074174D02*
X18353515Y-12121793D01*
X18353515Y-12121793D02*
X18343991Y-12159888D01*
X18343991Y-12159888D02*
X18334468Y-12178936D01*
X18334468Y-12178936D02*
X18324944Y-12188460D01*
X18324944Y-12188460D02*
X18305896Y-12197984D01*
X18305896Y-12197984D02*
X18286848Y-12197984D01*
X18286848Y-12197984D02*
X18267801Y-12188460D01*
X18267801Y-12188460D02*
X18258277Y-12178936D01*
X18258277Y-12178936D02*
X18248753Y-12159888D01*
X18248753Y-12159888D02*
X18239229Y-12121793D01*
X18239229Y-12121793D02*
X18239229Y-12074174D01*
X18239229Y-12074174D02*
X18248753Y-12036079D01*
X18248753Y-12036079D02*
X18258277Y-12017031D01*
X18258277Y-12017031D02*
X18267801Y-12007508D01*
X18267801Y-12007508D02*
X18286848Y-11997984D01*
X18543991Y-12197984D02*
X18429706Y-12197984D01*
X18486848Y-12197984D02*
X18486848Y-11997984D01*
X18486848Y-11997984D02*
X18467801Y-12026555D01*
X18467801Y-12026555D02*
X18448753Y-12045603D01*
X18448753Y-12045603D02*
X18429706Y-12055127D01*
X18724944Y-11997984D02*
X18629706Y-11997984D01*
X18629706Y-11997984D02*
X18620182Y-12093222D01*
X18620182Y-12093222D02*
X18629706Y-12083698D01*
X18629706Y-12083698D02*
X18648753Y-12074174D01*
X18648753Y-12074174D02*
X18696372Y-12074174D01*
X18696372Y-12074174D02*
X18715420Y-12083698D01*
X18715420Y-12083698D02*
X18724944Y-12093222D01*
X18724944Y-12093222D02*
X18734468Y-12112269D01*
X18734468Y-12112269D02*
X18734468Y-12159888D01*
X18734468Y-12159888D02*
X18724944Y-12178936D01*
X18724944Y-12178936D02*
X18715420Y-12188460D01*
X18715420Y-12188460D02*
X18696372Y-12197984D01*
X18696372Y-12197984D02*
X18648753Y-12197984D01*
X18648753Y-12197984D02*
X18629706Y-12188460D01*
X18629706Y-12188460D02*
X18620182Y-12178936D01*
X18801134Y-11997984D02*
X18934468Y-11997984D01*
X18934468Y-11997984D02*
X18848753Y-12197984D01*
X19001134Y-11997984D02*
X19001134Y-12036079D01*
X19077325Y-11997984D02*
X19077325Y-12036079D01*
X19372563Y-12274174D02*
X19363039Y-12264650D01*
X19363039Y-12264650D02*
X19343991Y-12236079D01*
X19343991Y-12236079D02*
X19334468Y-12217031D01*
X19334468Y-12217031D02*
X19324944Y-12188460D01*
X19324944Y-12188460D02*
X19315420Y-12140841D01*
X19315420Y-12140841D02*
X19315420Y-12102746D01*
X19315420Y-12102746D02*
X19324944Y-12055127D01*
X19324944Y-12055127D02*
X19334468Y-12026555D01*
X19334468Y-12026555D02*
X19343991Y-12007508D01*
X19343991Y-12007508D02*
X19363039Y-11978936D01*
X19363039Y-11978936D02*
X19372563Y-11969412D01*
X19439230Y-12017031D02*
X19448753Y-12007508D01*
X19448753Y-12007508D02*
X19467801Y-11997984D01*
X19467801Y-11997984D02*
X19515420Y-11997984D01*
X19515420Y-11997984D02*
X19534468Y-12007508D01*
X19534468Y-12007508D02*
X19543991Y-12017031D01*
X19543991Y-12017031D02*
X19553515Y-12036079D01*
X19553515Y-12036079D02*
X19553515Y-12055127D01*
X19553515Y-12055127D02*
X19543991Y-12083698D01*
X19543991Y-12083698D02*
X19429706Y-12197984D01*
X19429706Y-12197984D02*
X19553515Y-12197984D01*
X19648753Y-12197984D02*
X19686849Y-12197984D01*
X19686849Y-12197984D02*
X19705896Y-12188460D01*
X19705896Y-12188460D02*
X19715420Y-12178936D01*
X19715420Y-12178936D02*
X19734468Y-12150365D01*
X19734468Y-12150365D02*
X19743991Y-12112269D01*
X19743991Y-12112269D02*
X19743991Y-12036079D01*
X19743991Y-12036079D02*
X19734468Y-12017031D01*
X19734468Y-12017031D02*
X19724944Y-12007508D01*
X19724944Y-12007508D02*
X19705896Y-11997984D01*
X19705896Y-11997984D02*
X19667801Y-11997984D01*
X19667801Y-11997984D02*
X19648753Y-12007508D01*
X19648753Y-12007508D02*
X19639230Y-12017031D01*
X19639230Y-12017031D02*
X19629706Y-12036079D01*
X19629706Y-12036079D02*
X19629706Y-12083698D01*
X19629706Y-12083698D02*
X19639230Y-12102746D01*
X19639230Y-12102746D02*
X19648753Y-12112269D01*
X19648753Y-12112269D02*
X19667801Y-12121793D01*
X19667801Y-12121793D02*
X19705896Y-12121793D01*
X19705896Y-12121793D02*
X19724944Y-12112269D01*
X19724944Y-12112269D02*
X19734468Y-12102746D01*
X19734468Y-12102746D02*
X19743991Y-12083698D01*
X19982087Y-12197984D02*
X19982087Y-11997984D01*
X20067801Y-12197984D02*
X20067801Y-12093222D01*
X20067801Y-12093222D02*
X20058277Y-12074174D01*
X20058277Y-12074174D02*
X20039230Y-12064650D01*
X20039230Y-12064650D02*
X20010658Y-12064650D01*
X20010658Y-12064650D02*
X19991611Y-12074174D01*
X19991611Y-12074174D02*
X19982087Y-12083698D01*
X20191611Y-12197984D02*
X20172563Y-12188460D01*
X20172563Y-12188460D02*
X20163039Y-12178936D01*
X20163039Y-12178936D02*
X20153515Y-12159888D01*
X20153515Y-12159888D02*
X20153515Y-12102746D01*
X20153515Y-12102746D02*
X20163039Y-12083698D01*
X20163039Y-12083698D02*
X20172563Y-12074174D01*
X20172563Y-12074174D02*
X20191611Y-12064650D01*
X20191611Y-12064650D02*
X20220182Y-12064650D01*
X20220182Y-12064650D02*
X20239230Y-12074174D01*
X20239230Y-12074174D02*
X20248753Y-12083698D01*
X20248753Y-12083698D02*
X20258277Y-12102746D01*
X20258277Y-12102746D02*
X20258277Y-12159888D01*
X20258277Y-12159888D02*
X20248753Y-12178936D01*
X20248753Y-12178936D02*
X20239230Y-12188460D01*
X20239230Y-12188460D02*
X20220182Y-12197984D01*
X20220182Y-12197984D02*
X20191611Y-12197984D01*
X20372563Y-12197984D02*
X20353515Y-12188460D01*
X20353515Y-12188460D02*
X20343992Y-12169412D01*
X20343992Y-12169412D02*
X20343992Y-11997984D01*
X20524944Y-12188460D02*
X20505896Y-12197984D01*
X20505896Y-12197984D02*
X20467801Y-12197984D01*
X20467801Y-12197984D02*
X20448753Y-12188460D01*
X20448753Y-12188460D02*
X20439230Y-12169412D01*
X20439230Y-12169412D02*
X20439230Y-12093222D01*
X20439230Y-12093222D02*
X20448753Y-12074174D01*
X20448753Y-12074174D02*
X20467801Y-12064650D01*
X20467801Y-12064650D02*
X20505896Y-12064650D01*
X20505896Y-12064650D02*
X20524944Y-12074174D01*
X20524944Y-12074174D02*
X20534468Y-12093222D01*
X20534468Y-12093222D02*
X20534468Y-12112269D01*
X20534468Y-12112269D02*
X20439230Y-12131317D01*
X20610658Y-12188460D02*
X20629706Y-12197984D01*
X20629706Y-12197984D02*
X20667801Y-12197984D01*
X20667801Y-12197984D02*
X20686849Y-12188460D01*
X20686849Y-12188460D02*
X20696373Y-12169412D01*
X20696373Y-12169412D02*
X20696373Y-12159888D01*
X20696373Y-12159888D02*
X20686849Y-12140841D01*
X20686849Y-12140841D02*
X20667801Y-12131317D01*
X20667801Y-12131317D02*
X20639230Y-12131317D01*
X20639230Y-12131317D02*
X20620182Y-12121793D01*
X20620182Y-12121793D02*
X20610658Y-12102746D01*
X20610658Y-12102746D02*
X20610658Y-12093222D01*
X20610658Y-12093222D02*
X20620182Y-12074174D01*
X20620182Y-12074174D02*
X20639230Y-12064650D01*
X20639230Y-12064650D02*
X20667801Y-12064650D01*
X20667801Y-12064650D02*
X20686849Y-12074174D01*
X20763039Y-12274174D02*
X20772563Y-12264650D01*
X20772563Y-12264650D02*
X20791611Y-12236079D01*
X20791611Y-12236079D02*
X20801134Y-12217031D01*
X20801134Y-12217031D02*
X20810658Y-12188460D01*
X20810658Y-12188460D02*
X20820182Y-12140841D01*
X20820182Y-12140841D02*
X20820182Y-12102746D01*
X20820182Y-12102746D02*
X20810658Y-12055127D01*
X20810658Y-12055127D02*
X20801134Y-12026555D01*
X20801134Y-12026555D02*
X20791611Y-12007508D01*
X20791611Y-12007508D02*
X20772563Y-11978936D01*
X20772563Y-11978936D02*
X20763039Y-11969412D01*
D12*
X15757500Y-12330500D02*
X15757500Y-12410500D01*
X15717500Y-12370500D02*
X15797500Y-12370500D01*
D11*
X16096372Y-12261984D02*
X16115420Y-12261984D01*
X16115420Y-12261984D02*
X16134467Y-12271508D01*
X16134467Y-12271508D02*
X16143991Y-12281031D01*
X16143991Y-12281031D02*
X16153515Y-12300079D01*
X16153515Y-12300079D02*
X16163039Y-12338174D01*
X16163039Y-12338174D02*
X16163039Y-12385793D01*
X16163039Y-12385793D02*
X16153515Y-12423888D01*
X16153515Y-12423888D02*
X16143991Y-12442936D01*
X16143991Y-12442936D02*
X16134467Y-12452460D01*
X16134467Y-12452460D02*
X16115420Y-12461984D01*
X16115420Y-12461984D02*
X16096372Y-12461984D01*
X16096372Y-12461984D02*
X16077324Y-12452460D01*
X16077324Y-12452460D02*
X16067801Y-12442936D01*
X16067801Y-12442936D02*
X16058277Y-12423888D01*
X16058277Y-12423888D02*
X16048753Y-12385793D01*
X16048753Y-12385793D02*
X16048753Y-12338174D01*
X16048753Y-12338174D02*
X16058277Y-12300079D01*
X16058277Y-12300079D02*
X16067801Y-12281031D01*
X16067801Y-12281031D02*
X16077324Y-12271508D01*
X16077324Y-12271508D02*
X16096372Y-12261984D01*
X16248753Y-12442936D02*
X16258277Y-12452460D01*
X16258277Y-12452460D02*
X16248753Y-12461984D01*
X16248753Y-12461984D02*
X16239229Y-12452460D01*
X16239229Y-12452460D02*
X16248753Y-12442936D01*
X16248753Y-12442936D02*
X16248753Y-12461984D01*
X16372562Y-12347698D02*
X16353515Y-12338174D01*
X16353515Y-12338174D02*
X16343991Y-12328650D01*
X16343991Y-12328650D02*
X16334467Y-12309603D01*
X16334467Y-12309603D02*
X16334467Y-12300079D01*
X16334467Y-12300079D02*
X16343991Y-12281031D01*
X16343991Y-12281031D02*
X16353515Y-12271508D01*
X16353515Y-12271508D02*
X16372562Y-12261984D01*
X16372562Y-12261984D02*
X16410658Y-12261984D01*
X16410658Y-12261984D02*
X16429705Y-12271508D01*
X16429705Y-12271508D02*
X16439229Y-12281031D01*
X16439229Y-12281031D02*
X16448753Y-12300079D01*
X16448753Y-12300079D02*
X16448753Y-12309603D01*
X16448753Y-12309603D02*
X16439229Y-12328650D01*
X16439229Y-12328650D02*
X16429705Y-12338174D01*
X16429705Y-12338174D02*
X16410658Y-12347698D01*
X16410658Y-12347698D02*
X16372562Y-12347698D01*
X16372562Y-12347698D02*
X16353515Y-12357222D01*
X16353515Y-12357222D02*
X16343991Y-12366746D01*
X16343991Y-12366746D02*
X16334467Y-12385793D01*
X16334467Y-12385793D02*
X16334467Y-12423888D01*
X16334467Y-12423888D02*
X16343991Y-12442936D01*
X16343991Y-12442936D02*
X16353515Y-12452460D01*
X16353515Y-12452460D02*
X16372562Y-12461984D01*
X16372562Y-12461984D02*
X16410658Y-12461984D01*
X16410658Y-12461984D02*
X16429705Y-12452460D01*
X16429705Y-12452460D02*
X16439229Y-12442936D01*
X16439229Y-12442936D02*
X16448753Y-12423888D01*
X16448753Y-12423888D02*
X16448753Y-12385793D01*
X16448753Y-12385793D02*
X16439229Y-12366746D01*
X16439229Y-12366746D02*
X16429705Y-12357222D01*
X16429705Y-12357222D02*
X16410658Y-12347698D01*
X16572562Y-12261984D02*
X16591610Y-12261984D01*
X16591610Y-12261984D02*
X16610658Y-12271508D01*
X16610658Y-12271508D02*
X16620182Y-12281031D01*
X16620182Y-12281031D02*
X16629705Y-12300079D01*
X16629705Y-12300079D02*
X16639229Y-12338174D01*
X16639229Y-12338174D02*
X16639229Y-12385793D01*
X16639229Y-12385793D02*
X16629705Y-12423888D01*
X16629705Y-12423888D02*
X16620182Y-12442936D01*
X16620182Y-12442936D02*
X16610658Y-12452460D01*
X16610658Y-12452460D02*
X16591610Y-12461984D01*
X16591610Y-12461984D02*
X16572562Y-12461984D01*
X16572562Y-12461984D02*
X16553515Y-12452460D01*
X16553515Y-12452460D02*
X16543991Y-12442936D01*
X16543991Y-12442936D02*
X16534467Y-12423888D01*
X16534467Y-12423888D02*
X16524943Y-12385793D01*
X16524943Y-12385793D02*
X16524943Y-12338174D01*
X16524943Y-12338174D02*
X16534467Y-12300079D01*
X16534467Y-12300079D02*
X16543991Y-12281031D01*
X16543991Y-12281031D02*
X16553515Y-12271508D01*
X16553515Y-12271508D02*
X16572562Y-12261984D01*
X16763039Y-12261984D02*
X16782086Y-12261984D01*
X16782086Y-12261984D02*
X16801134Y-12271508D01*
X16801134Y-12271508D02*
X16810658Y-12281031D01*
X16810658Y-12281031D02*
X16820182Y-12300079D01*
X16820182Y-12300079D02*
X16829705Y-12338174D01*
X16829705Y-12338174D02*
X16829705Y-12385793D01*
X16829705Y-12385793D02*
X16820182Y-12423888D01*
X16820182Y-12423888D02*
X16810658Y-12442936D01*
X16810658Y-12442936D02*
X16801134Y-12452460D01*
X16801134Y-12452460D02*
X16782086Y-12461984D01*
X16782086Y-12461984D02*
X16763039Y-12461984D01*
X16763039Y-12461984D02*
X16743991Y-12452460D01*
X16743991Y-12452460D02*
X16734467Y-12442936D01*
X16734467Y-12442936D02*
X16724943Y-12423888D01*
X16724943Y-12423888D02*
X16715420Y-12385793D01*
X16715420Y-12385793D02*
X16715420Y-12338174D01*
X16715420Y-12338174D02*
X16724943Y-12300079D01*
X16724943Y-12300079D02*
X16734467Y-12281031D01*
X16734467Y-12281031D02*
X16743991Y-12271508D01*
X16743991Y-12271508D02*
X16763039Y-12261984D01*
X16915420Y-12461984D02*
X16915420Y-12328650D01*
X16915420Y-12347698D02*
X16924944Y-12338174D01*
X16924944Y-12338174D02*
X16943991Y-12328650D01*
X16943991Y-12328650D02*
X16972563Y-12328650D01*
X16972563Y-12328650D02*
X16991610Y-12338174D01*
X16991610Y-12338174D02*
X17001134Y-12357222D01*
X17001134Y-12357222D02*
X17001134Y-12461984D01*
X17001134Y-12357222D02*
X17010658Y-12338174D01*
X17010658Y-12338174D02*
X17029705Y-12328650D01*
X17029705Y-12328650D02*
X17058277Y-12328650D01*
X17058277Y-12328650D02*
X17077325Y-12338174D01*
X17077325Y-12338174D02*
X17086848Y-12357222D01*
X17086848Y-12357222D02*
X17086848Y-12461984D01*
X17182086Y-12461984D02*
X17182086Y-12328650D01*
X17182086Y-12347698D02*
X17191610Y-12338174D01*
X17191610Y-12338174D02*
X17210658Y-12328650D01*
X17210658Y-12328650D02*
X17239229Y-12328650D01*
X17239229Y-12328650D02*
X17258277Y-12338174D01*
X17258277Y-12338174D02*
X17267801Y-12357222D01*
X17267801Y-12357222D02*
X17267801Y-12461984D01*
X17267801Y-12357222D02*
X17277325Y-12338174D01*
X17277325Y-12338174D02*
X17296372Y-12328650D01*
X17296372Y-12328650D02*
X17324944Y-12328650D01*
X17324944Y-12328650D02*
X17343991Y-12338174D01*
X17343991Y-12338174D02*
X17353515Y-12357222D01*
X17353515Y-12357222D02*
X17353515Y-12461984D01*
X17743991Y-12252460D02*
X17572563Y-12509603D01*
X18001134Y-12261984D02*
X18020182Y-12261984D01*
X18020182Y-12261984D02*
X18039229Y-12271508D01*
X18039229Y-12271508D02*
X18048753Y-12281031D01*
X18048753Y-12281031D02*
X18058277Y-12300079D01*
X18058277Y-12300079D02*
X18067801Y-12338174D01*
X18067801Y-12338174D02*
X18067801Y-12385793D01*
X18067801Y-12385793D02*
X18058277Y-12423888D01*
X18058277Y-12423888D02*
X18048753Y-12442936D01*
X18048753Y-12442936D02*
X18039229Y-12452460D01*
X18039229Y-12452460D02*
X18020182Y-12461984D01*
X18020182Y-12461984D02*
X18001134Y-12461984D01*
X18001134Y-12461984D02*
X17982087Y-12452460D01*
X17982087Y-12452460D02*
X17972563Y-12442936D01*
X17972563Y-12442936D02*
X17963039Y-12423888D01*
X17963039Y-12423888D02*
X17953515Y-12385793D01*
X17953515Y-12385793D02*
X17953515Y-12338174D01*
X17953515Y-12338174D02*
X17963039Y-12300079D01*
X17963039Y-12300079D02*
X17972563Y-12281031D01*
X17972563Y-12281031D02*
X17982087Y-12271508D01*
X17982087Y-12271508D02*
X18001134Y-12261984D01*
X18153515Y-12442936D02*
X18163039Y-12452460D01*
X18163039Y-12452460D02*
X18153515Y-12461984D01*
X18153515Y-12461984D02*
X18143991Y-12452460D01*
X18143991Y-12452460D02*
X18153515Y-12442936D01*
X18153515Y-12442936D02*
X18153515Y-12461984D01*
X18286848Y-12261984D02*
X18305896Y-12261984D01*
X18305896Y-12261984D02*
X18324944Y-12271508D01*
X18324944Y-12271508D02*
X18334468Y-12281031D01*
X18334468Y-12281031D02*
X18343991Y-12300079D01*
X18343991Y-12300079D02*
X18353515Y-12338174D01*
X18353515Y-12338174D02*
X18353515Y-12385793D01*
X18353515Y-12385793D02*
X18343991Y-12423888D01*
X18343991Y-12423888D02*
X18334468Y-12442936D01*
X18334468Y-12442936D02*
X18324944Y-12452460D01*
X18324944Y-12452460D02*
X18305896Y-12461984D01*
X18305896Y-12461984D02*
X18286848Y-12461984D01*
X18286848Y-12461984D02*
X18267801Y-12452460D01*
X18267801Y-12452460D02*
X18258277Y-12442936D01*
X18258277Y-12442936D02*
X18248753Y-12423888D01*
X18248753Y-12423888D02*
X18239229Y-12385793D01*
X18239229Y-12385793D02*
X18239229Y-12338174D01*
X18239229Y-12338174D02*
X18248753Y-12300079D01*
X18248753Y-12300079D02*
X18258277Y-12281031D01*
X18258277Y-12281031D02*
X18267801Y-12271508D01*
X18267801Y-12271508D02*
X18286848Y-12261984D01*
X18420182Y-12261984D02*
X18543991Y-12261984D01*
X18543991Y-12261984D02*
X18477325Y-12338174D01*
X18477325Y-12338174D02*
X18505896Y-12338174D01*
X18505896Y-12338174D02*
X18524944Y-12347698D01*
X18524944Y-12347698D02*
X18534468Y-12357222D01*
X18534468Y-12357222D02*
X18543991Y-12376269D01*
X18543991Y-12376269D02*
X18543991Y-12423888D01*
X18543991Y-12423888D02*
X18534468Y-12442936D01*
X18534468Y-12442936D02*
X18524944Y-12452460D01*
X18524944Y-12452460D02*
X18505896Y-12461984D01*
X18505896Y-12461984D02*
X18448753Y-12461984D01*
X18448753Y-12461984D02*
X18429706Y-12452460D01*
X18429706Y-12452460D02*
X18420182Y-12442936D01*
X18734468Y-12461984D02*
X18620182Y-12461984D01*
X18677325Y-12461984D02*
X18677325Y-12261984D01*
X18677325Y-12261984D02*
X18658277Y-12290555D01*
X18658277Y-12290555D02*
X18639229Y-12309603D01*
X18639229Y-12309603D02*
X18620182Y-12319127D01*
X18915420Y-12261984D02*
X18820182Y-12261984D01*
X18820182Y-12261984D02*
X18810658Y-12357222D01*
X18810658Y-12357222D02*
X18820182Y-12347698D01*
X18820182Y-12347698D02*
X18839229Y-12338174D01*
X18839229Y-12338174D02*
X18886849Y-12338174D01*
X18886849Y-12338174D02*
X18905896Y-12347698D01*
X18905896Y-12347698D02*
X18915420Y-12357222D01*
X18915420Y-12357222D02*
X18924944Y-12376269D01*
X18924944Y-12376269D02*
X18924944Y-12423888D01*
X18924944Y-12423888D02*
X18915420Y-12442936D01*
X18915420Y-12442936D02*
X18905896Y-12452460D01*
X18905896Y-12452460D02*
X18886849Y-12461984D01*
X18886849Y-12461984D02*
X18839229Y-12461984D01*
X18839229Y-12461984D02*
X18820182Y-12452460D01*
X18820182Y-12452460D02*
X18810658Y-12442936D01*
X19001134Y-12261984D02*
X19001134Y-12300079D01*
X19077325Y-12261984D02*
X19077325Y-12300079D01*
X19372563Y-12538174D02*
X19363039Y-12528650D01*
X19363039Y-12528650D02*
X19343991Y-12500079D01*
X19343991Y-12500079D02*
X19334468Y-12481031D01*
X19334468Y-12481031D02*
X19324944Y-12452460D01*
X19324944Y-12452460D02*
X19315420Y-12404841D01*
X19315420Y-12404841D02*
X19315420Y-12366746D01*
X19315420Y-12366746D02*
X19324944Y-12319127D01*
X19324944Y-12319127D02*
X19334468Y-12290555D01*
X19334468Y-12290555D02*
X19343991Y-12271508D01*
X19343991Y-12271508D02*
X19363039Y-12242936D01*
X19363039Y-12242936D02*
X19372563Y-12233412D01*
X19534468Y-12328650D02*
X19534468Y-12461984D01*
X19486849Y-12252460D02*
X19439230Y-12395317D01*
X19439230Y-12395317D02*
X19563039Y-12395317D01*
X19629706Y-12281031D02*
X19639230Y-12271508D01*
X19639230Y-12271508D02*
X19658277Y-12261984D01*
X19658277Y-12261984D02*
X19705896Y-12261984D01*
X19705896Y-12261984D02*
X19724944Y-12271508D01*
X19724944Y-12271508D02*
X19734468Y-12281031D01*
X19734468Y-12281031D02*
X19743991Y-12300079D01*
X19743991Y-12300079D02*
X19743991Y-12319127D01*
X19743991Y-12319127D02*
X19734468Y-12347698D01*
X19734468Y-12347698D02*
X19620182Y-12461984D01*
X19620182Y-12461984D02*
X19743991Y-12461984D01*
X19982087Y-12461984D02*
X19982087Y-12261984D01*
X20067801Y-12461984D02*
X20067801Y-12357222D01*
X20067801Y-12357222D02*
X20058277Y-12338174D01*
X20058277Y-12338174D02*
X20039230Y-12328650D01*
X20039230Y-12328650D02*
X20010658Y-12328650D01*
X20010658Y-12328650D02*
X19991611Y-12338174D01*
X19991611Y-12338174D02*
X19982087Y-12347698D01*
X20191611Y-12461984D02*
X20172563Y-12452460D01*
X20172563Y-12452460D02*
X20163039Y-12442936D01*
X20163039Y-12442936D02*
X20153515Y-12423888D01*
X20153515Y-12423888D02*
X20153515Y-12366746D01*
X20153515Y-12366746D02*
X20163039Y-12347698D01*
X20163039Y-12347698D02*
X20172563Y-12338174D01*
X20172563Y-12338174D02*
X20191611Y-12328650D01*
X20191611Y-12328650D02*
X20220182Y-12328650D01*
X20220182Y-12328650D02*
X20239230Y-12338174D01*
X20239230Y-12338174D02*
X20248753Y-12347698D01*
X20248753Y-12347698D02*
X20258277Y-12366746D01*
X20258277Y-12366746D02*
X20258277Y-12423888D01*
X20258277Y-12423888D02*
X20248753Y-12442936D01*
X20248753Y-12442936D02*
X20239230Y-12452460D01*
X20239230Y-12452460D02*
X20220182Y-12461984D01*
X20220182Y-12461984D02*
X20191611Y-12461984D01*
X20372563Y-12461984D02*
X20353515Y-12452460D01*
X20353515Y-12452460D02*
X20343992Y-12433412D01*
X20343992Y-12433412D02*
X20343992Y-12261984D01*
X20524944Y-12452460D02*
X20505896Y-12461984D01*
X20505896Y-12461984D02*
X20467801Y-12461984D01*
X20467801Y-12461984D02*
X20448753Y-12452460D01*
X20448753Y-12452460D02*
X20439230Y-12433412D01*
X20439230Y-12433412D02*
X20439230Y-12357222D01*
X20439230Y-12357222D02*
X20448753Y-12338174D01*
X20448753Y-12338174D02*
X20467801Y-12328650D01*
X20467801Y-12328650D02*
X20505896Y-12328650D01*
X20505896Y-12328650D02*
X20524944Y-12338174D01*
X20524944Y-12338174D02*
X20534468Y-12357222D01*
X20534468Y-12357222D02*
X20534468Y-12376269D01*
X20534468Y-12376269D02*
X20439230Y-12395317D01*
X20610658Y-12452460D02*
X20629706Y-12461984D01*
X20629706Y-12461984D02*
X20667801Y-12461984D01*
X20667801Y-12461984D02*
X20686849Y-12452460D01*
X20686849Y-12452460D02*
X20696373Y-12433412D01*
X20696373Y-12433412D02*
X20696373Y-12423888D01*
X20696373Y-12423888D02*
X20686849Y-12404841D01*
X20686849Y-12404841D02*
X20667801Y-12395317D01*
X20667801Y-12395317D02*
X20639230Y-12395317D01*
X20639230Y-12395317D02*
X20620182Y-12385793D01*
X20620182Y-12385793D02*
X20610658Y-12366746D01*
X20610658Y-12366746D02*
X20610658Y-12357222D01*
X20610658Y-12357222D02*
X20620182Y-12338174D01*
X20620182Y-12338174D02*
X20639230Y-12328650D01*
X20639230Y-12328650D02*
X20667801Y-12328650D01*
X20667801Y-12328650D02*
X20686849Y-12338174D01*
X20763039Y-12538174D02*
X20772563Y-12528650D01*
X20772563Y-12528650D02*
X20791611Y-12500079D01*
X20791611Y-12500079D02*
X20801134Y-12481031D01*
X20801134Y-12481031D02*
X20810658Y-12452460D01*
X20810658Y-12452460D02*
X20820182Y-12404841D01*
X20820182Y-12404841D02*
X20820182Y-12366746D01*
X20820182Y-12366746D02*
X20810658Y-12319127D01*
X20810658Y-12319127D02*
X20801134Y-12290555D01*
X20801134Y-12290555D02*
X20791611Y-12271508D01*
X20791611Y-12271508D02*
X20772563Y-12242936D01*
X20772563Y-12242936D02*
X20763039Y-12233412D01*
D12*
X15782856Y-12669856D02*
X15782856Y-12599144D01*
X15712144Y-12599144D01*
X15712144Y-12669856D01*
X15782856Y-12669856D01*
D11*
X16163039Y-12725984D02*
X16048753Y-12725984D01*
X16105896Y-12725984D02*
X16105896Y-12525984D01*
X16105896Y-12525984D02*
X16086848Y-12554555D01*
X16086848Y-12554555D02*
X16067801Y-12573603D01*
X16067801Y-12573603D02*
X16048753Y-12583127D01*
X16248753Y-12706936D02*
X16258277Y-12716460D01*
X16258277Y-12716460D02*
X16248753Y-12725984D01*
X16248753Y-12725984D02*
X16239229Y-12716460D01*
X16239229Y-12716460D02*
X16248753Y-12706936D01*
X16248753Y-12706936D02*
X16248753Y-12725984D01*
X16382086Y-12525984D02*
X16401134Y-12525984D01*
X16401134Y-12525984D02*
X16420182Y-12535508D01*
X16420182Y-12535508D02*
X16429705Y-12545031D01*
X16429705Y-12545031D02*
X16439229Y-12564079D01*
X16439229Y-12564079D02*
X16448753Y-12602174D01*
X16448753Y-12602174D02*
X16448753Y-12649793D01*
X16448753Y-12649793D02*
X16439229Y-12687888D01*
X16439229Y-12687888D02*
X16429705Y-12706936D01*
X16429705Y-12706936D02*
X16420182Y-12716460D01*
X16420182Y-12716460D02*
X16401134Y-12725984D01*
X16401134Y-12725984D02*
X16382086Y-12725984D01*
X16382086Y-12725984D02*
X16363039Y-12716460D01*
X16363039Y-12716460D02*
X16353515Y-12706936D01*
X16353515Y-12706936D02*
X16343991Y-12687888D01*
X16343991Y-12687888D02*
X16334467Y-12649793D01*
X16334467Y-12649793D02*
X16334467Y-12602174D01*
X16334467Y-12602174D02*
X16343991Y-12564079D01*
X16343991Y-12564079D02*
X16353515Y-12545031D01*
X16353515Y-12545031D02*
X16363039Y-12535508D01*
X16363039Y-12535508D02*
X16382086Y-12525984D01*
X16572562Y-12525984D02*
X16591610Y-12525984D01*
X16591610Y-12525984D02*
X16610658Y-12535508D01*
X16610658Y-12535508D02*
X16620182Y-12545031D01*
X16620182Y-12545031D02*
X16629705Y-12564079D01*
X16629705Y-12564079D02*
X16639229Y-12602174D01*
X16639229Y-12602174D02*
X16639229Y-12649793D01*
X16639229Y-12649793D02*
X16629705Y-12687888D01*
X16629705Y-12687888D02*
X16620182Y-12706936D01*
X16620182Y-12706936D02*
X16610658Y-12716460D01*
X16610658Y-12716460D02*
X16591610Y-12725984D01*
X16591610Y-12725984D02*
X16572562Y-12725984D01*
X16572562Y-12725984D02*
X16553515Y-12716460D01*
X16553515Y-12716460D02*
X16543991Y-12706936D01*
X16543991Y-12706936D02*
X16534467Y-12687888D01*
X16534467Y-12687888D02*
X16524943Y-12649793D01*
X16524943Y-12649793D02*
X16524943Y-12602174D01*
X16524943Y-12602174D02*
X16534467Y-12564079D01*
X16534467Y-12564079D02*
X16543991Y-12545031D01*
X16543991Y-12545031D02*
X16553515Y-12535508D01*
X16553515Y-12535508D02*
X16572562Y-12525984D01*
X16763039Y-12525984D02*
X16782086Y-12525984D01*
X16782086Y-12525984D02*
X16801134Y-12535508D01*
X16801134Y-12535508D02*
X16810658Y-12545031D01*
X16810658Y-12545031D02*
X16820182Y-12564079D01*
X16820182Y-12564079D02*
X16829705Y-12602174D01*
X16829705Y-12602174D02*
X16829705Y-12649793D01*
X16829705Y-12649793D02*
X16820182Y-12687888D01*
X16820182Y-12687888D02*
X16810658Y-12706936D01*
X16810658Y-12706936D02*
X16801134Y-12716460D01*
X16801134Y-12716460D02*
X16782086Y-12725984D01*
X16782086Y-12725984D02*
X16763039Y-12725984D01*
X16763039Y-12725984D02*
X16743991Y-12716460D01*
X16743991Y-12716460D02*
X16734467Y-12706936D01*
X16734467Y-12706936D02*
X16724943Y-12687888D01*
X16724943Y-12687888D02*
X16715420Y-12649793D01*
X16715420Y-12649793D02*
X16715420Y-12602174D01*
X16715420Y-12602174D02*
X16724943Y-12564079D01*
X16724943Y-12564079D02*
X16734467Y-12545031D01*
X16734467Y-12545031D02*
X16743991Y-12535508D01*
X16743991Y-12535508D02*
X16763039Y-12525984D01*
X16915420Y-12725984D02*
X16915420Y-12592650D01*
X16915420Y-12611698D02*
X16924944Y-12602174D01*
X16924944Y-12602174D02*
X16943991Y-12592650D01*
X16943991Y-12592650D02*
X16972563Y-12592650D01*
X16972563Y-12592650D02*
X16991610Y-12602174D01*
X16991610Y-12602174D02*
X17001134Y-12621222D01*
X17001134Y-12621222D02*
X17001134Y-12725984D01*
X17001134Y-12621222D02*
X17010658Y-12602174D01*
X17010658Y-12602174D02*
X17029705Y-12592650D01*
X17029705Y-12592650D02*
X17058277Y-12592650D01*
X17058277Y-12592650D02*
X17077325Y-12602174D01*
X17077325Y-12602174D02*
X17086848Y-12621222D01*
X17086848Y-12621222D02*
X17086848Y-12725984D01*
X17182086Y-12725984D02*
X17182086Y-12592650D01*
X17182086Y-12611698D02*
X17191610Y-12602174D01*
X17191610Y-12602174D02*
X17210658Y-12592650D01*
X17210658Y-12592650D02*
X17239229Y-12592650D01*
X17239229Y-12592650D02*
X17258277Y-12602174D01*
X17258277Y-12602174D02*
X17267801Y-12621222D01*
X17267801Y-12621222D02*
X17267801Y-12725984D01*
X17267801Y-12621222D02*
X17277325Y-12602174D01*
X17277325Y-12602174D02*
X17296372Y-12592650D01*
X17296372Y-12592650D02*
X17324944Y-12592650D01*
X17324944Y-12592650D02*
X17343991Y-12602174D01*
X17343991Y-12602174D02*
X17353515Y-12621222D01*
X17353515Y-12621222D02*
X17353515Y-12725984D01*
X17743991Y-12516460D02*
X17572563Y-12773603D01*
X18001134Y-12525984D02*
X18020182Y-12525984D01*
X18020182Y-12525984D02*
X18039229Y-12535508D01*
X18039229Y-12535508D02*
X18048753Y-12545031D01*
X18048753Y-12545031D02*
X18058277Y-12564079D01*
X18058277Y-12564079D02*
X18067801Y-12602174D01*
X18067801Y-12602174D02*
X18067801Y-12649793D01*
X18067801Y-12649793D02*
X18058277Y-12687888D01*
X18058277Y-12687888D02*
X18048753Y-12706936D01*
X18048753Y-12706936D02*
X18039229Y-12716460D01*
X18039229Y-12716460D02*
X18020182Y-12725984D01*
X18020182Y-12725984D02*
X18001134Y-12725984D01*
X18001134Y-12725984D02*
X17982087Y-12716460D01*
X17982087Y-12716460D02*
X17972563Y-12706936D01*
X17972563Y-12706936D02*
X17963039Y-12687888D01*
X17963039Y-12687888D02*
X17953515Y-12649793D01*
X17953515Y-12649793D02*
X17953515Y-12602174D01*
X17953515Y-12602174D02*
X17963039Y-12564079D01*
X17963039Y-12564079D02*
X17972563Y-12545031D01*
X17972563Y-12545031D02*
X17982087Y-12535508D01*
X17982087Y-12535508D02*
X18001134Y-12525984D01*
X18153515Y-12706936D02*
X18163039Y-12716460D01*
X18163039Y-12716460D02*
X18153515Y-12725984D01*
X18153515Y-12725984D02*
X18143991Y-12716460D01*
X18143991Y-12716460D02*
X18153515Y-12706936D01*
X18153515Y-12706936D02*
X18153515Y-12725984D01*
X18286848Y-12525984D02*
X18305896Y-12525984D01*
X18305896Y-12525984D02*
X18324944Y-12535508D01*
X18324944Y-12535508D02*
X18334468Y-12545031D01*
X18334468Y-12545031D02*
X18343991Y-12564079D01*
X18343991Y-12564079D02*
X18353515Y-12602174D01*
X18353515Y-12602174D02*
X18353515Y-12649793D01*
X18353515Y-12649793D02*
X18343991Y-12687888D01*
X18343991Y-12687888D02*
X18334468Y-12706936D01*
X18334468Y-12706936D02*
X18324944Y-12716460D01*
X18324944Y-12716460D02*
X18305896Y-12725984D01*
X18305896Y-12725984D02*
X18286848Y-12725984D01*
X18286848Y-12725984D02*
X18267801Y-12716460D01*
X18267801Y-12716460D02*
X18258277Y-12706936D01*
X18258277Y-12706936D02*
X18248753Y-12687888D01*
X18248753Y-12687888D02*
X18239229Y-12649793D01*
X18239229Y-12649793D02*
X18239229Y-12602174D01*
X18239229Y-12602174D02*
X18248753Y-12564079D01*
X18248753Y-12564079D02*
X18258277Y-12545031D01*
X18258277Y-12545031D02*
X18267801Y-12535508D01*
X18267801Y-12535508D02*
X18286848Y-12525984D01*
X18420182Y-12525984D02*
X18543991Y-12525984D01*
X18543991Y-12525984D02*
X18477325Y-12602174D01*
X18477325Y-12602174D02*
X18505896Y-12602174D01*
X18505896Y-12602174D02*
X18524944Y-12611698D01*
X18524944Y-12611698D02*
X18534468Y-12621222D01*
X18534468Y-12621222D02*
X18543991Y-12640269D01*
X18543991Y-12640269D02*
X18543991Y-12687888D01*
X18543991Y-12687888D02*
X18534468Y-12706936D01*
X18534468Y-12706936D02*
X18524944Y-12716460D01*
X18524944Y-12716460D02*
X18505896Y-12725984D01*
X18505896Y-12725984D02*
X18448753Y-12725984D01*
X18448753Y-12725984D02*
X18429706Y-12716460D01*
X18429706Y-12716460D02*
X18420182Y-12706936D01*
X18639229Y-12725984D02*
X18677325Y-12725984D01*
X18677325Y-12725984D02*
X18696372Y-12716460D01*
X18696372Y-12716460D02*
X18705896Y-12706936D01*
X18705896Y-12706936D02*
X18724944Y-12678365D01*
X18724944Y-12678365D02*
X18734468Y-12640269D01*
X18734468Y-12640269D02*
X18734468Y-12564079D01*
X18734468Y-12564079D02*
X18724944Y-12545031D01*
X18724944Y-12545031D02*
X18715420Y-12535508D01*
X18715420Y-12535508D02*
X18696372Y-12525984D01*
X18696372Y-12525984D02*
X18658277Y-12525984D01*
X18658277Y-12525984D02*
X18639229Y-12535508D01*
X18639229Y-12535508D02*
X18629706Y-12545031D01*
X18629706Y-12545031D02*
X18620182Y-12564079D01*
X18620182Y-12564079D02*
X18620182Y-12611698D01*
X18620182Y-12611698D02*
X18629706Y-12630746D01*
X18629706Y-12630746D02*
X18639229Y-12640269D01*
X18639229Y-12640269D02*
X18658277Y-12649793D01*
X18658277Y-12649793D02*
X18696372Y-12649793D01*
X18696372Y-12649793D02*
X18715420Y-12640269D01*
X18715420Y-12640269D02*
X18724944Y-12630746D01*
X18724944Y-12630746D02*
X18734468Y-12611698D01*
X18905896Y-12592650D02*
X18905896Y-12725984D01*
X18858277Y-12516460D02*
X18810658Y-12659317D01*
X18810658Y-12659317D02*
X18934468Y-12659317D01*
X19001134Y-12525984D02*
X19001134Y-12564079D01*
X19077325Y-12525984D02*
X19077325Y-12564079D01*
X19372563Y-12802174D02*
X19363039Y-12792650D01*
X19363039Y-12792650D02*
X19343991Y-12764079D01*
X19343991Y-12764079D02*
X19334468Y-12745031D01*
X19334468Y-12745031D02*
X19324944Y-12716460D01*
X19324944Y-12716460D02*
X19315420Y-12668841D01*
X19315420Y-12668841D02*
X19315420Y-12630746D01*
X19315420Y-12630746D02*
X19324944Y-12583127D01*
X19324944Y-12583127D02*
X19334468Y-12554555D01*
X19334468Y-12554555D02*
X19343991Y-12535508D01*
X19343991Y-12535508D02*
X19363039Y-12506936D01*
X19363039Y-12506936D02*
X19372563Y-12497412D01*
X19553515Y-12725984D02*
X19439230Y-12725984D01*
X19496372Y-12725984D02*
X19496372Y-12525984D01*
X19496372Y-12525984D02*
X19477325Y-12554555D01*
X19477325Y-12554555D02*
X19458277Y-12573603D01*
X19458277Y-12573603D02*
X19439230Y-12583127D01*
X19677325Y-12525984D02*
X19696372Y-12525984D01*
X19696372Y-12525984D02*
X19715420Y-12535508D01*
X19715420Y-12535508D02*
X19724944Y-12545031D01*
X19724944Y-12545031D02*
X19734468Y-12564079D01*
X19734468Y-12564079D02*
X19743991Y-12602174D01*
X19743991Y-12602174D02*
X19743991Y-12649793D01*
X19743991Y-12649793D02*
X19734468Y-12687888D01*
X19734468Y-12687888D02*
X19724944Y-12706936D01*
X19724944Y-12706936D02*
X19715420Y-12716460D01*
X19715420Y-12716460D02*
X19696372Y-12725984D01*
X19696372Y-12725984D02*
X19677325Y-12725984D01*
X19677325Y-12725984D02*
X19658277Y-12716460D01*
X19658277Y-12716460D02*
X19648753Y-12706936D01*
X19648753Y-12706936D02*
X19639230Y-12687888D01*
X19639230Y-12687888D02*
X19629706Y-12649793D01*
X19629706Y-12649793D02*
X19629706Y-12602174D01*
X19629706Y-12602174D02*
X19639230Y-12564079D01*
X19639230Y-12564079D02*
X19648753Y-12545031D01*
X19648753Y-12545031D02*
X19658277Y-12535508D01*
X19658277Y-12535508D02*
X19677325Y-12525984D01*
X19982087Y-12725984D02*
X19982087Y-12525984D01*
X20067801Y-12725984D02*
X20067801Y-12621222D01*
X20067801Y-12621222D02*
X20058277Y-12602174D01*
X20058277Y-12602174D02*
X20039230Y-12592650D01*
X20039230Y-12592650D02*
X20010658Y-12592650D01*
X20010658Y-12592650D02*
X19991611Y-12602174D01*
X19991611Y-12602174D02*
X19982087Y-12611698D01*
X20191611Y-12725984D02*
X20172563Y-12716460D01*
X20172563Y-12716460D02*
X20163039Y-12706936D01*
X20163039Y-12706936D02*
X20153515Y-12687888D01*
X20153515Y-12687888D02*
X20153515Y-12630746D01*
X20153515Y-12630746D02*
X20163039Y-12611698D01*
X20163039Y-12611698D02*
X20172563Y-12602174D01*
X20172563Y-12602174D02*
X20191611Y-12592650D01*
X20191611Y-12592650D02*
X20220182Y-12592650D01*
X20220182Y-12592650D02*
X20239230Y-12602174D01*
X20239230Y-12602174D02*
X20248753Y-12611698D01*
X20248753Y-12611698D02*
X20258277Y-12630746D01*
X20258277Y-12630746D02*
X20258277Y-12687888D01*
X20258277Y-12687888D02*
X20248753Y-12706936D01*
X20248753Y-12706936D02*
X20239230Y-12716460D01*
X20239230Y-12716460D02*
X20220182Y-12725984D01*
X20220182Y-12725984D02*
X20191611Y-12725984D01*
X20372563Y-12725984D02*
X20353515Y-12716460D01*
X20353515Y-12716460D02*
X20343992Y-12697412D01*
X20343992Y-12697412D02*
X20343992Y-12525984D01*
X20524944Y-12716460D02*
X20505896Y-12725984D01*
X20505896Y-12725984D02*
X20467801Y-12725984D01*
X20467801Y-12725984D02*
X20448753Y-12716460D01*
X20448753Y-12716460D02*
X20439230Y-12697412D01*
X20439230Y-12697412D02*
X20439230Y-12621222D01*
X20439230Y-12621222D02*
X20448753Y-12602174D01*
X20448753Y-12602174D02*
X20467801Y-12592650D01*
X20467801Y-12592650D02*
X20505896Y-12592650D01*
X20505896Y-12592650D02*
X20524944Y-12602174D01*
X20524944Y-12602174D02*
X20534468Y-12621222D01*
X20534468Y-12621222D02*
X20534468Y-12640269D01*
X20534468Y-12640269D02*
X20439230Y-12659317D01*
X20610658Y-12716460D02*
X20629706Y-12725984D01*
X20629706Y-12725984D02*
X20667801Y-12725984D01*
X20667801Y-12725984D02*
X20686849Y-12716460D01*
X20686849Y-12716460D02*
X20696373Y-12697412D01*
X20696373Y-12697412D02*
X20696373Y-12687888D01*
X20696373Y-12687888D02*
X20686849Y-12668841D01*
X20686849Y-12668841D02*
X20667801Y-12659317D01*
X20667801Y-12659317D02*
X20639230Y-12659317D01*
X20639230Y-12659317D02*
X20620182Y-12649793D01*
X20620182Y-12649793D02*
X20610658Y-12630746D01*
X20610658Y-12630746D02*
X20610658Y-12621222D01*
X20610658Y-12621222D02*
X20620182Y-12602174D01*
X20620182Y-12602174D02*
X20639230Y-12592650D01*
X20639230Y-12592650D02*
X20667801Y-12592650D01*
X20667801Y-12592650D02*
X20686849Y-12602174D01*
X20763039Y-12802174D02*
X20772563Y-12792650D01*
X20772563Y-12792650D02*
X20791611Y-12764079D01*
X20791611Y-12764079D02*
X20801134Y-12745031D01*
X20801134Y-12745031D02*
X20810658Y-12716460D01*
X20810658Y-12716460D02*
X20820182Y-12668841D01*
X20820182Y-12668841D02*
X20820182Y-12630746D01*
X20820182Y-12630746D02*
X20810658Y-12583127D01*
X20810658Y-12583127D02*
X20801134Y-12554555D01*
X20801134Y-12554555D02*
X20791611Y-12535508D01*
X20791611Y-12535508D02*
X20772563Y-12506936D01*
X20772563Y-12506936D02*
X20763039Y-12497412D01*
M02*
