%TF.GenerationSoftware,KiCad,Pcbnew,8.0.4*%
%TF.CreationDate,2024-08-22T20:54:46+02:00*%
%TF.ProjectId,Controller,436f6e74-726f-46c6-9c65-722e6b696361,v0*%
%TF.SameCoordinates,Original*%
%TF.FileFunction,Legend,Bot*%
%TF.FilePolarity,Positive*%
%FSLAX46Y46*%
G04 Gerber Fmt 4.6, Leading zero omitted, Abs format (unit mm)*
G04 Created by KiCad (PCBNEW 8.0.4) date 2024-08-22 20:54:46*
%MOMM*%
%LPD*%
G01*
G04 APERTURE LIST*
%ADD10C,0.150000*%
%ADD11C,0.120000*%
%ADD12C,2.000000*%
%ADD13C,0.990600*%
%ADD14R,2.000000X2.000000*%
%ADD15C,1.000000*%
%ADD16C,1.400000*%
%ADD17R,1.500000X1.000000*%
%ADD18R,1.700000X1.700000*%
%ADD19O,1.700000X1.700000*%
G04 APERTURE END LIST*
D10*
X195910839Y-92544328D02*
X195434649Y-92544328D01*
X196006077Y-92830043D02*
X195672744Y-91830043D01*
X195672744Y-91830043D02*
X195339411Y-92830043D01*
X194577506Y-92163376D02*
X194577506Y-92830043D01*
X195006077Y-92163376D02*
X195006077Y-92687185D01*
X195006077Y-92687185D02*
X194958458Y-92782424D01*
X194958458Y-92782424D02*
X194863220Y-92830043D01*
X194863220Y-92830043D02*
X194720363Y-92830043D01*
X194720363Y-92830043D02*
X194625125Y-92782424D01*
X194625125Y-92782424D02*
X194577506Y-92734804D01*
X194244172Y-92163376D02*
X193863220Y-92163376D01*
X194101315Y-91830043D02*
X194101315Y-92687185D01*
X194101315Y-92687185D02*
X194053696Y-92782424D01*
X194053696Y-92782424D02*
X193958458Y-92830043D01*
X193958458Y-92830043D02*
X193863220Y-92830043D01*
X193529886Y-92830043D02*
X193529886Y-91830043D01*
X193101315Y-92830043D02*
X193101315Y-92306233D01*
X193101315Y-92306233D02*
X193148934Y-92210995D01*
X193148934Y-92210995D02*
X193244172Y-92163376D01*
X193244172Y-92163376D02*
X193387029Y-92163376D01*
X193387029Y-92163376D02*
X193482267Y-92210995D01*
X193482267Y-92210995D02*
X193529886Y-92258614D01*
X192482267Y-92830043D02*
X192577505Y-92782424D01*
X192577505Y-92782424D02*
X192625124Y-92734804D01*
X192625124Y-92734804D02*
X192672743Y-92639566D01*
X192672743Y-92639566D02*
X192672743Y-92353852D01*
X192672743Y-92353852D02*
X192625124Y-92258614D01*
X192625124Y-92258614D02*
X192577505Y-92210995D01*
X192577505Y-92210995D02*
X192482267Y-92163376D01*
X192482267Y-92163376D02*
X192339410Y-92163376D01*
X192339410Y-92163376D02*
X192244172Y-92210995D01*
X192244172Y-92210995D02*
X192196553Y-92258614D01*
X192196553Y-92258614D02*
X192148934Y-92353852D01*
X192148934Y-92353852D02*
X192148934Y-92639566D01*
X192148934Y-92639566D02*
X192196553Y-92734804D01*
X192196553Y-92734804D02*
X192244172Y-92782424D01*
X192244172Y-92782424D02*
X192339410Y-92830043D01*
X192339410Y-92830043D02*
X192482267Y-92830043D01*
X191720362Y-92830043D02*
X191720362Y-92163376D01*
X191720362Y-92353852D02*
X191672743Y-92258614D01*
X191672743Y-92258614D02*
X191625124Y-92210995D01*
X191625124Y-92210995D02*
X191529886Y-92163376D01*
X191529886Y-92163376D02*
X191434648Y-92163376D01*
X191101314Y-92734804D02*
X191053695Y-92782424D01*
X191053695Y-92782424D02*
X191101314Y-92830043D01*
X191101314Y-92830043D02*
X191148933Y-92782424D01*
X191148933Y-92782424D02*
X191101314Y-92734804D01*
X191101314Y-92734804D02*
X191101314Y-92830043D01*
X191101314Y-92210995D02*
X191053695Y-92258614D01*
X191053695Y-92258614D02*
X191101314Y-92306233D01*
X191101314Y-92306233D02*
X191148933Y-92258614D01*
X191148933Y-92258614D02*
X191101314Y-92210995D01*
X191101314Y-92210995D02*
X191101314Y-92306233D01*
X189291791Y-92734804D02*
X189339410Y-92782424D01*
X189339410Y-92782424D02*
X189482267Y-92830043D01*
X189482267Y-92830043D02*
X189577505Y-92830043D01*
X189577505Y-92830043D02*
X189720362Y-92782424D01*
X189720362Y-92782424D02*
X189815600Y-92687185D01*
X189815600Y-92687185D02*
X189863219Y-92591947D01*
X189863219Y-92591947D02*
X189910838Y-92401471D01*
X189910838Y-92401471D02*
X189910838Y-92258614D01*
X189910838Y-92258614D02*
X189863219Y-92068138D01*
X189863219Y-92068138D02*
X189815600Y-91972900D01*
X189815600Y-91972900D02*
X189720362Y-91877662D01*
X189720362Y-91877662D02*
X189577505Y-91830043D01*
X189577505Y-91830043D02*
X189482267Y-91830043D01*
X189482267Y-91830043D02*
X189339410Y-91877662D01*
X189339410Y-91877662D02*
X189291791Y-91925281D01*
X188434648Y-92830043D02*
X188434648Y-92306233D01*
X188434648Y-92306233D02*
X188482267Y-92210995D01*
X188482267Y-92210995D02*
X188577505Y-92163376D01*
X188577505Y-92163376D02*
X188767981Y-92163376D01*
X188767981Y-92163376D02*
X188863219Y-92210995D01*
X188434648Y-92782424D02*
X188529886Y-92830043D01*
X188529886Y-92830043D02*
X188767981Y-92830043D01*
X188767981Y-92830043D02*
X188863219Y-92782424D01*
X188863219Y-92782424D02*
X188910838Y-92687185D01*
X188910838Y-92687185D02*
X188910838Y-92591947D01*
X188910838Y-92591947D02*
X188863219Y-92496709D01*
X188863219Y-92496709D02*
X188767981Y-92449090D01*
X188767981Y-92449090D02*
X188529886Y-92449090D01*
X188529886Y-92449090D02*
X188434648Y-92401471D01*
X187958457Y-92830043D02*
X187958457Y-92163376D01*
X187958457Y-92258614D02*
X187910838Y-92210995D01*
X187910838Y-92210995D02*
X187815600Y-92163376D01*
X187815600Y-92163376D02*
X187672743Y-92163376D01*
X187672743Y-92163376D02*
X187577505Y-92210995D01*
X187577505Y-92210995D02*
X187529886Y-92306233D01*
X187529886Y-92306233D02*
X187529886Y-92830043D01*
X187529886Y-92306233D02*
X187482267Y-92210995D01*
X187482267Y-92210995D02*
X187387029Y-92163376D01*
X187387029Y-92163376D02*
X187244172Y-92163376D01*
X187244172Y-92163376D02*
X187148933Y-92210995D01*
X187148933Y-92210995D02*
X187101314Y-92306233D01*
X187101314Y-92306233D02*
X187101314Y-92830043D01*
X186244172Y-92782424D02*
X186339410Y-92830043D01*
X186339410Y-92830043D02*
X186529886Y-92830043D01*
X186529886Y-92830043D02*
X186625124Y-92782424D01*
X186625124Y-92782424D02*
X186672743Y-92687185D01*
X186672743Y-92687185D02*
X186672743Y-92306233D01*
X186672743Y-92306233D02*
X186625124Y-92210995D01*
X186625124Y-92210995D02*
X186529886Y-92163376D01*
X186529886Y-92163376D02*
X186339410Y-92163376D01*
X186339410Y-92163376D02*
X186244172Y-92210995D01*
X186244172Y-92210995D02*
X186196553Y-92306233D01*
X186196553Y-92306233D02*
X186196553Y-92401471D01*
X186196553Y-92401471D02*
X186672743Y-92496709D01*
X185767981Y-92830043D02*
X185767981Y-92163376D01*
X185767981Y-92353852D02*
X185720362Y-92258614D01*
X185720362Y-92258614D02*
X185672743Y-92210995D01*
X185672743Y-92210995D02*
X185577505Y-92163376D01*
X185577505Y-92163376D02*
X185482267Y-92163376D01*
X185006076Y-92830043D02*
X185101314Y-92782424D01*
X185101314Y-92782424D02*
X185148933Y-92734804D01*
X185148933Y-92734804D02*
X185196552Y-92639566D01*
X185196552Y-92639566D02*
X185196552Y-92353852D01*
X185196552Y-92353852D02*
X185148933Y-92258614D01*
X185148933Y-92258614D02*
X185101314Y-92210995D01*
X185101314Y-92210995D02*
X185006076Y-92163376D01*
X185006076Y-92163376D02*
X184863219Y-92163376D01*
X184863219Y-92163376D02*
X184767981Y-92210995D01*
X184767981Y-92210995D02*
X184720362Y-92258614D01*
X184720362Y-92258614D02*
X184672743Y-92353852D01*
X184672743Y-92353852D02*
X184672743Y-92639566D01*
X184672743Y-92639566D02*
X184720362Y-92734804D01*
X184720362Y-92734804D02*
X184767981Y-92782424D01*
X184767981Y-92782424D02*
X184863219Y-92830043D01*
X184863219Y-92830043D02*
X185006076Y-92830043D01*
X184244171Y-92163376D02*
X184244171Y-92830043D01*
X184244171Y-92258614D02*
X184196552Y-92210995D01*
X184196552Y-92210995D02*
X184101314Y-92163376D01*
X184101314Y-92163376D02*
X183958457Y-92163376D01*
X183958457Y-92163376D02*
X183863219Y-92210995D01*
X183863219Y-92210995D02*
X183815600Y-92306233D01*
X183815600Y-92306233D02*
X183815600Y-92830043D01*
X182006076Y-92734804D02*
X182053695Y-92782424D01*
X182053695Y-92782424D02*
X182196552Y-92830043D01*
X182196552Y-92830043D02*
X182291790Y-92830043D01*
X182291790Y-92830043D02*
X182434647Y-92782424D01*
X182434647Y-92782424D02*
X182529885Y-92687185D01*
X182529885Y-92687185D02*
X182577504Y-92591947D01*
X182577504Y-92591947D02*
X182625123Y-92401471D01*
X182625123Y-92401471D02*
X182625123Y-92258614D01*
X182625123Y-92258614D02*
X182577504Y-92068138D01*
X182577504Y-92068138D02*
X182529885Y-91972900D01*
X182529885Y-91972900D02*
X182434647Y-91877662D01*
X182434647Y-91877662D02*
X182291790Y-91830043D01*
X182291790Y-91830043D02*
X182196552Y-91830043D01*
X182196552Y-91830043D02*
X182053695Y-91877662D01*
X182053695Y-91877662D02*
X182006076Y-91925281D01*
X181434647Y-92830043D02*
X181529885Y-92782424D01*
X181529885Y-92782424D02*
X181577504Y-92687185D01*
X181577504Y-92687185D02*
X181577504Y-91830043D01*
X180625123Y-92830043D02*
X180625123Y-92306233D01*
X180625123Y-92306233D02*
X180672742Y-92210995D01*
X180672742Y-92210995D02*
X180767980Y-92163376D01*
X180767980Y-92163376D02*
X180958456Y-92163376D01*
X180958456Y-92163376D02*
X181053694Y-92210995D01*
X180625123Y-92782424D02*
X180720361Y-92830043D01*
X180720361Y-92830043D02*
X180958456Y-92830043D01*
X180958456Y-92830043D02*
X181053694Y-92782424D01*
X181053694Y-92782424D02*
X181101313Y-92687185D01*
X181101313Y-92687185D02*
X181101313Y-92591947D01*
X181101313Y-92591947D02*
X181053694Y-92496709D01*
X181053694Y-92496709D02*
X180958456Y-92449090D01*
X180958456Y-92449090D02*
X180720361Y-92449090D01*
X180720361Y-92449090D02*
X180625123Y-92401471D01*
X180148932Y-92830043D02*
X180148932Y-92163376D01*
X180148932Y-92353852D02*
X180101313Y-92258614D01*
X180101313Y-92258614D02*
X180053694Y-92210995D01*
X180053694Y-92210995D02*
X179958456Y-92163376D01*
X179958456Y-92163376D02*
X179863218Y-92163376D01*
X179529884Y-92830043D02*
X179529884Y-91830043D01*
X179434646Y-92449090D02*
X179148932Y-92830043D01*
X179148932Y-92163376D02*
X179529884Y-92544328D01*
X195863220Y-93439987D02*
X195863220Y-94249510D01*
X195863220Y-94249510D02*
X195815601Y-94344748D01*
X195815601Y-94344748D02*
X195767982Y-94392368D01*
X195767982Y-94392368D02*
X195672744Y-94439987D01*
X195672744Y-94439987D02*
X195482268Y-94439987D01*
X195482268Y-94439987D02*
X195387030Y-94392368D01*
X195387030Y-94392368D02*
X195339411Y-94344748D01*
X195339411Y-94344748D02*
X195291792Y-94249510D01*
X195291792Y-94249510D02*
X195291792Y-93439987D01*
X194815601Y-93773320D02*
X194815601Y-94439987D01*
X194815601Y-93868558D02*
X194767982Y-93820939D01*
X194767982Y-93820939D02*
X194672744Y-93773320D01*
X194672744Y-93773320D02*
X194529887Y-93773320D01*
X194529887Y-93773320D02*
X194434649Y-93820939D01*
X194434649Y-93820939D02*
X194387030Y-93916177D01*
X194387030Y-93916177D02*
X194387030Y-94439987D01*
X193910839Y-94439987D02*
X193910839Y-93773320D01*
X193910839Y-93439987D02*
X193958458Y-93487606D01*
X193958458Y-93487606D02*
X193910839Y-93535225D01*
X193910839Y-93535225D02*
X193863220Y-93487606D01*
X193863220Y-93487606D02*
X193910839Y-93439987D01*
X193910839Y-93439987D02*
X193910839Y-93535225D01*
X193529887Y-93773320D02*
X193291792Y-94439987D01*
X193291792Y-94439987D02*
X193053697Y-93773320D01*
X192291792Y-94392368D02*
X192387030Y-94439987D01*
X192387030Y-94439987D02*
X192577506Y-94439987D01*
X192577506Y-94439987D02*
X192672744Y-94392368D01*
X192672744Y-94392368D02*
X192720363Y-94297129D01*
X192720363Y-94297129D02*
X192720363Y-93916177D01*
X192720363Y-93916177D02*
X192672744Y-93820939D01*
X192672744Y-93820939D02*
X192577506Y-93773320D01*
X192577506Y-93773320D02*
X192387030Y-93773320D01*
X192387030Y-93773320D02*
X192291792Y-93820939D01*
X192291792Y-93820939D02*
X192244173Y-93916177D01*
X192244173Y-93916177D02*
X192244173Y-94011415D01*
X192244173Y-94011415D02*
X192720363Y-94106653D01*
X191815601Y-94439987D02*
X191815601Y-93773320D01*
X191815601Y-93963796D02*
X191767982Y-93868558D01*
X191767982Y-93868558D02*
X191720363Y-93820939D01*
X191720363Y-93820939D02*
X191625125Y-93773320D01*
X191625125Y-93773320D02*
X191529887Y-93773320D01*
X191244172Y-94392368D02*
X191148934Y-94439987D01*
X191148934Y-94439987D02*
X190958458Y-94439987D01*
X190958458Y-94439987D02*
X190863220Y-94392368D01*
X190863220Y-94392368D02*
X190815601Y-94297129D01*
X190815601Y-94297129D02*
X190815601Y-94249510D01*
X190815601Y-94249510D02*
X190863220Y-94154272D01*
X190863220Y-94154272D02*
X190958458Y-94106653D01*
X190958458Y-94106653D02*
X191101315Y-94106653D01*
X191101315Y-94106653D02*
X191196553Y-94059034D01*
X191196553Y-94059034D02*
X191244172Y-93963796D01*
X191244172Y-93963796D02*
X191244172Y-93916177D01*
X191244172Y-93916177D02*
X191196553Y-93820939D01*
X191196553Y-93820939D02*
X191101315Y-93773320D01*
X191101315Y-93773320D02*
X190958458Y-93773320D01*
X190958458Y-93773320D02*
X190863220Y-93820939D01*
X190387029Y-94439987D02*
X190387029Y-93773320D01*
X190387029Y-93439987D02*
X190434648Y-93487606D01*
X190434648Y-93487606D02*
X190387029Y-93535225D01*
X190387029Y-93535225D02*
X190339410Y-93487606D01*
X190339410Y-93487606D02*
X190387029Y-93439987D01*
X190387029Y-93439987D02*
X190387029Y-93535225D01*
X190053696Y-93773320D02*
X189672744Y-93773320D01*
X189910839Y-93439987D02*
X189910839Y-94297129D01*
X189910839Y-94297129D02*
X189863220Y-94392368D01*
X189863220Y-94392368D02*
X189767982Y-94439987D01*
X189767982Y-94439987D02*
X189672744Y-94439987D01*
X189434648Y-93773320D02*
X189196553Y-94439987D01*
X188958458Y-93773320D02*
X189196553Y-94439987D01*
X189196553Y-94439987D02*
X189291791Y-94678082D01*
X189291791Y-94678082D02*
X189339410Y-94725701D01*
X189339410Y-94725701D02*
X189434648Y-94773320D01*
X187672743Y-94439987D02*
X187767981Y-94392368D01*
X187767981Y-94392368D02*
X187815600Y-94344748D01*
X187815600Y-94344748D02*
X187863219Y-94249510D01*
X187863219Y-94249510D02*
X187863219Y-93963796D01*
X187863219Y-93963796D02*
X187815600Y-93868558D01*
X187815600Y-93868558D02*
X187767981Y-93820939D01*
X187767981Y-93820939D02*
X187672743Y-93773320D01*
X187672743Y-93773320D02*
X187529886Y-93773320D01*
X187529886Y-93773320D02*
X187434648Y-93820939D01*
X187434648Y-93820939D02*
X187387029Y-93868558D01*
X187387029Y-93868558D02*
X187339410Y-93963796D01*
X187339410Y-93963796D02*
X187339410Y-94249510D01*
X187339410Y-94249510D02*
X187387029Y-94344748D01*
X187387029Y-94344748D02*
X187434648Y-94392368D01*
X187434648Y-94392368D02*
X187529886Y-94439987D01*
X187529886Y-94439987D02*
X187672743Y-94439987D01*
X187053695Y-93773320D02*
X186672743Y-93773320D01*
X186910838Y-94439987D02*
X186910838Y-93582844D01*
X186910838Y-93582844D02*
X186863219Y-93487606D01*
X186863219Y-93487606D02*
X186767981Y-93439987D01*
X186767981Y-93439987D02*
X186672743Y-93439987D01*
X185006076Y-94344748D02*
X185053695Y-94392368D01*
X185053695Y-94392368D02*
X185196552Y-94439987D01*
X185196552Y-94439987D02*
X185291790Y-94439987D01*
X185291790Y-94439987D02*
X185434647Y-94392368D01*
X185434647Y-94392368D02*
X185529885Y-94297129D01*
X185529885Y-94297129D02*
X185577504Y-94201891D01*
X185577504Y-94201891D02*
X185625123Y-94011415D01*
X185625123Y-94011415D02*
X185625123Y-93868558D01*
X185625123Y-93868558D02*
X185577504Y-93678082D01*
X185577504Y-93678082D02*
X185529885Y-93582844D01*
X185529885Y-93582844D02*
X185434647Y-93487606D01*
X185434647Y-93487606D02*
X185291790Y-93439987D01*
X185291790Y-93439987D02*
X185196552Y-93439987D01*
X185196552Y-93439987D02*
X185053695Y-93487606D01*
X185053695Y-93487606D02*
X185006076Y-93535225D01*
X184148933Y-94439987D02*
X184148933Y-93916177D01*
X184148933Y-93916177D02*
X184196552Y-93820939D01*
X184196552Y-93820939D02*
X184291790Y-93773320D01*
X184291790Y-93773320D02*
X184482266Y-93773320D01*
X184482266Y-93773320D02*
X184577504Y-93820939D01*
X184148933Y-94392368D02*
X184244171Y-94439987D01*
X184244171Y-94439987D02*
X184482266Y-94439987D01*
X184482266Y-94439987D02*
X184577504Y-94392368D01*
X184577504Y-94392368D02*
X184625123Y-94297129D01*
X184625123Y-94297129D02*
X184625123Y-94201891D01*
X184625123Y-94201891D02*
X184577504Y-94106653D01*
X184577504Y-94106653D02*
X184482266Y-94059034D01*
X184482266Y-94059034D02*
X184244171Y-94059034D01*
X184244171Y-94059034D02*
X184148933Y-94011415D01*
X183672742Y-93773320D02*
X183672742Y-94773320D01*
X183672742Y-93820939D02*
X183577504Y-93773320D01*
X183577504Y-93773320D02*
X183387028Y-93773320D01*
X183387028Y-93773320D02*
X183291790Y-93820939D01*
X183291790Y-93820939D02*
X183244171Y-93868558D01*
X183244171Y-93868558D02*
X183196552Y-93963796D01*
X183196552Y-93963796D02*
X183196552Y-94249510D01*
X183196552Y-94249510D02*
X183244171Y-94344748D01*
X183244171Y-94344748D02*
X183291790Y-94392368D01*
X183291790Y-94392368D02*
X183387028Y-94439987D01*
X183387028Y-94439987D02*
X183577504Y-94439987D01*
X183577504Y-94439987D02*
X183672742Y-94392368D01*
X182387028Y-94392368D02*
X182482266Y-94439987D01*
X182482266Y-94439987D02*
X182672742Y-94439987D01*
X182672742Y-94439987D02*
X182767980Y-94392368D01*
X182767980Y-94392368D02*
X182815599Y-94297129D01*
X182815599Y-94297129D02*
X182815599Y-93916177D01*
X182815599Y-93916177D02*
X182767980Y-93820939D01*
X182767980Y-93820939D02*
X182672742Y-93773320D01*
X182672742Y-93773320D02*
X182482266Y-93773320D01*
X182482266Y-93773320D02*
X182387028Y-93820939D01*
X182387028Y-93820939D02*
X182339409Y-93916177D01*
X182339409Y-93916177D02*
X182339409Y-94011415D01*
X182339409Y-94011415D02*
X182815599Y-94106653D01*
X181291789Y-93439987D02*
X180720361Y-93439987D01*
X181006075Y-94439987D02*
X181006075Y-93439987D01*
X180244170Y-94439987D02*
X180339408Y-94392368D01*
X180339408Y-94392368D02*
X180387027Y-94344748D01*
X180387027Y-94344748D02*
X180434646Y-94249510D01*
X180434646Y-94249510D02*
X180434646Y-93963796D01*
X180434646Y-93963796D02*
X180387027Y-93868558D01*
X180387027Y-93868558D02*
X180339408Y-93820939D01*
X180339408Y-93820939D02*
X180244170Y-93773320D01*
X180244170Y-93773320D02*
X180101313Y-93773320D01*
X180101313Y-93773320D02*
X180006075Y-93820939D01*
X180006075Y-93820939D02*
X179958456Y-93868558D01*
X179958456Y-93868558D02*
X179910837Y-93963796D01*
X179910837Y-93963796D02*
X179910837Y-94249510D01*
X179910837Y-94249510D02*
X179958456Y-94344748D01*
X179958456Y-94344748D02*
X180006075Y-94392368D01*
X180006075Y-94392368D02*
X180101313Y-94439987D01*
X180101313Y-94439987D02*
X180244170Y-94439987D01*
X179577503Y-93773320D02*
X179387027Y-94439987D01*
X179387027Y-94439987D02*
X179196551Y-93963796D01*
X179196551Y-93963796D02*
X179006075Y-94439987D01*
X179006075Y-94439987D02*
X178815599Y-93773320D01*
X178434646Y-93773320D02*
X178434646Y-94439987D01*
X178434646Y-93868558D02*
X178387027Y-93820939D01*
X178387027Y-93820939D02*
X178291789Y-93773320D01*
X178291789Y-93773320D02*
X178148932Y-93773320D01*
X178148932Y-93773320D02*
X178053694Y-93820939D01*
X178053694Y-93820939D02*
X178006075Y-93916177D01*
X178006075Y-93916177D02*
X178006075Y-94439987D01*
X195910839Y-97612256D02*
X195767982Y-97659875D01*
X195767982Y-97659875D02*
X195529887Y-97659875D01*
X195529887Y-97659875D02*
X195434649Y-97612256D01*
X195434649Y-97612256D02*
X195387030Y-97564636D01*
X195387030Y-97564636D02*
X195339411Y-97469398D01*
X195339411Y-97469398D02*
X195339411Y-97374160D01*
X195339411Y-97374160D02*
X195387030Y-97278922D01*
X195387030Y-97278922D02*
X195434649Y-97231303D01*
X195434649Y-97231303D02*
X195529887Y-97183684D01*
X195529887Y-97183684D02*
X195720363Y-97136065D01*
X195720363Y-97136065D02*
X195815601Y-97088446D01*
X195815601Y-97088446D02*
X195863220Y-97040827D01*
X195863220Y-97040827D02*
X195910839Y-96945589D01*
X195910839Y-96945589D02*
X195910839Y-96850351D01*
X195910839Y-96850351D02*
X195863220Y-96755113D01*
X195863220Y-96755113D02*
X195815601Y-96707494D01*
X195815601Y-96707494D02*
X195720363Y-96659875D01*
X195720363Y-96659875D02*
X195482268Y-96659875D01*
X195482268Y-96659875D02*
X195339411Y-96707494D01*
X194482268Y-97659875D02*
X194482268Y-97136065D01*
X194482268Y-97136065D02*
X194529887Y-97040827D01*
X194529887Y-97040827D02*
X194625125Y-96993208D01*
X194625125Y-96993208D02*
X194815601Y-96993208D01*
X194815601Y-96993208D02*
X194910839Y-97040827D01*
X194482268Y-97612256D02*
X194577506Y-97659875D01*
X194577506Y-97659875D02*
X194815601Y-97659875D01*
X194815601Y-97659875D02*
X194910839Y-97612256D01*
X194910839Y-97612256D02*
X194958458Y-97517017D01*
X194958458Y-97517017D02*
X194958458Y-97421779D01*
X194958458Y-97421779D02*
X194910839Y-97326541D01*
X194910839Y-97326541D02*
X194815601Y-97278922D01*
X194815601Y-97278922D02*
X194577506Y-97278922D01*
X194577506Y-97278922D02*
X194482268Y-97231303D01*
X193863220Y-97659875D02*
X193958458Y-97612256D01*
X193958458Y-97612256D02*
X194006077Y-97517017D01*
X194006077Y-97517017D02*
X194006077Y-96659875D01*
X193482267Y-97659875D02*
X193482267Y-96993208D01*
X193482267Y-96659875D02*
X193529886Y-96707494D01*
X193529886Y-96707494D02*
X193482267Y-96755113D01*
X193482267Y-96755113D02*
X193434648Y-96707494D01*
X193434648Y-96707494D02*
X193482267Y-96659875D01*
X193482267Y-96659875D02*
X193482267Y-96755113D01*
X193006077Y-96993208D02*
X193006077Y-97659875D01*
X193006077Y-97088446D02*
X192958458Y-97040827D01*
X192958458Y-97040827D02*
X192863220Y-96993208D01*
X192863220Y-96993208D02*
X192720363Y-96993208D01*
X192720363Y-96993208D02*
X192625125Y-97040827D01*
X192625125Y-97040827D02*
X192577506Y-97136065D01*
X192577506Y-97136065D02*
X192577506Y-97659875D01*
X191958458Y-97659875D02*
X192053696Y-97612256D01*
X192053696Y-97612256D02*
X192101315Y-97564636D01*
X192101315Y-97564636D02*
X192148934Y-97469398D01*
X192148934Y-97469398D02*
X192148934Y-97183684D01*
X192148934Y-97183684D02*
X192101315Y-97088446D01*
X192101315Y-97088446D02*
X192053696Y-97040827D01*
X192053696Y-97040827D02*
X191958458Y-96993208D01*
X191958458Y-96993208D02*
X191815601Y-96993208D01*
X191815601Y-96993208D02*
X191720363Y-97040827D01*
X191720363Y-97040827D02*
X191672744Y-97088446D01*
X191672744Y-97088446D02*
X191625125Y-97183684D01*
X191625125Y-97183684D02*
X191625125Y-97469398D01*
X191625125Y-97469398D02*
X191672744Y-97564636D01*
X191672744Y-97564636D02*
X191720363Y-97612256D01*
X191720363Y-97612256D02*
X191815601Y-97659875D01*
X191815601Y-97659875D02*
X191958458Y-97659875D01*
X191196553Y-97659875D02*
X191196553Y-96993208D01*
X191196553Y-97088446D02*
X191148934Y-97040827D01*
X191148934Y-97040827D02*
X191053696Y-96993208D01*
X191053696Y-96993208D02*
X190910839Y-96993208D01*
X190910839Y-96993208D02*
X190815601Y-97040827D01*
X190815601Y-97040827D02*
X190767982Y-97136065D01*
X190767982Y-97136065D02*
X190767982Y-97659875D01*
X190767982Y-97136065D02*
X190720363Y-97040827D01*
X190720363Y-97040827D02*
X190625125Y-96993208D01*
X190625125Y-96993208D02*
X190482268Y-96993208D01*
X190482268Y-96993208D02*
X190387029Y-97040827D01*
X190387029Y-97040827D02*
X190339410Y-97136065D01*
X190339410Y-97136065D02*
X190339410Y-97659875D01*
X189482268Y-97612256D02*
X189577506Y-97659875D01*
X189577506Y-97659875D02*
X189767982Y-97659875D01*
X189767982Y-97659875D02*
X189863220Y-97612256D01*
X189863220Y-97612256D02*
X189910839Y-97517017D01*
X189910839Y-97517017D02*
X189910839Y-97136065D01*
X189910839Y-97136065D02*
X189863220Y-97040827D01*
X189863220Y-97040827D02*
X189767982Y-96993208D01*
X189767982Y-96993208D02*
X189577506Y-96993208D01*
X189577506Y-96993208D02*
X189482268Y-97040827D01*
X189482268Y-97040827D02*
X189434649Y-97136065D01*
X189434649Y-97136065D02*
X189434649Y-97231303D01*
X189434649Y-97231303D02*
X189910839Y-97326541D01*
X189148934Y-96993208D02*
X188767982Y-96993208D01*
X189006077Y-96659875D02*
X189006077Y-97517017D01*
X189006077Y-97517017D02*
X188958458Y-97612256D01*
X188958458Y-97612256D02*
X188863220Y-97659875D01*
X188863220Y-97659875D02*
X188767982Y-97659875D01*
X188053696Y-97612256D02*
X188148934Y-97659875D01*
X188148934Y-97659875D02*
X188339410Y-97659875D01*
X188339410Y-97659875D02*
X188434648Y-97612256D01*
X188434648Y-97612256D02*
X188482267Y-97517017D01*
X188482267Y-97517017D02*
X188482267Y-97136065D01*
X188482267Y-97136065D02*
X188434648Y-97040827D01*
X188434648Y-97040827D02*
X188339410Y-96993208D01*
X188339410Y-96993208D02*
X188148934Y-96993208D01*
X188148934Y-96993208D02*
X188053696Y-97040827D01*
X188053696Y-97040827D02*
X188006077Y-97136065D01*
X188006077Y-97136065D02*
X188006077Y-97231303D01*
X188006077Y-97231303D02*
X188482267Y-97326541D01*
X187577505Y-97659875D02*
X187577505Y-96993208D01*
X187577505Y-97183684D02*
X187529886Y-97088446D01*
X187529886Y-97088446D02*
X187482267Y-97040827D01*
X187482267Y-97040827D02*
X187387029Y-96993208D01*
X187387029Y-96993208D02*
X187291791Y-96993208D01*
X185625124Y-97564636D02*
X185672743Y-97612256D01*
X185672743Y-97612256D02*
X185815600Y-97659875D01*
X185815600Y-97659875D02*
X185910838Y-97659875D01*
X185910838Y-97659875D02*
X186053695Y-97612256D01*
X186053695Y-97612256D02*
X186148933Y-97517017D01*
X186148933Y-97517017D02*
X186196552Y-97421779D01*
X186196552Y-97421779D02*
X186244171Y-97231303D01*
X186244171Y-97231303D02*
X186244171Y-97088446D01*
X186244171Y-97088446D02*
X186196552Y-96897970D01*
X186196552Y-96897970D02*
X186148933Y-96802732D01*
X186148933Y-96802732D02*
X186053695Y-96707494D01*
X186053695Y-96707494D02*
X185910838Y-96659875D01*
X185910838Y-96659875D02*
X185815600Y-96659875D01*
X185815600Y-96659875D02*
X185672743Y-96707494D01*
X185672743Y-96707494D02*
X185625124Y-96755113D01*
X185053695Y-97659875D02*
X185148933Y-97612256D01*
X185148933Y-97612256D02*
X185196552Y-97564636D01*
X185196552Y-97564636D02*
X185244171Y-97469398D01*
X185244171Y-97469398D02*
X185244171Y-97183684D01*
X185244171Y-97183684D02*
X185196552Y-97088446D01*
X185196552Y-97088446D02*
X185148933Y-97040827D01*
X185148933Y-97040827D02*
X185053695Y-96993208D01*
X185053695Y-96993208D02*
X184910838Y-96993208D01*
X184910838Y-96993208D02*
X184815600Y-97040827D01*
X184815600Y-97040827D02*
X184767981Y-97088446D01*
X184767981Y-97088446D02*
X184720362Y-97183684D01*
X184720362Y-97183684D02*
X184720362Y-97469398D01*
X184720362Y-97469398D02*
X184767981Y-97564636D01*
X184767981Y-97564636D02*
X184815600Y-97612256D01*
X184815600Y-97612256D02*
X184910838Y-97659875D01*
X184910838Y-97659875D02*
X185053695Y-97659875D01*
X184291790Y-96993208D02*
X184291790Y-97659875D01*
X184291790Y-97088446D02*
X184244171Y-97040827D01*
X184244171Y-97040827D02*
X184148933Y-96993208D01*
X184148933Y-96993208D02*
X184006076Y-96993208D01*
X184006076Y-96993208D02*
X183910838Y-97040827D01*
X183910838Y-97040827D02*
X183863219Y-97136065D01*
X183863219Y-97136065D02*
X183863219Y-97659875D01*
X183529885Y-96993208D02*
X183148933Y-96993208D01*
X183387028Y-96659875D02*
X183387028Y-97517017D01*
X183387028Y-97517017D02*
X183339409Y-97612256D01*
X183339409Y-97612256D02*
X183244171Y-97659875D01*
X183244171Y-97659875D02*
X183148933Y-97659875D01*
X182815599Y-97659875D02*
X182815599Y-96993208D01*
X182815599Y-97183684D02*
X182767980Y-97088446D01*
X182767980Y-97088446D02*
X182720361Y-97040827D01*
X182720361Y-97040827D02*
X182625123Y-96993208D01*
X182625123Y-96993208D02*
X182529885Y-96993208D01*
X182053694Y-97659875D02*
X182148932Y-97612256D01*
X182148932Y-97612256D02*
X182196551Y-97564636D01*
X182196551Y-97564636D02*
X182244170Y-97469398D01*
X182244170Y-97469398D02*
X182244170Y-97183684D01*
X182244170Y-97183684D02*
X182196551Y-97088446D01*
X182196551Y-97088446D02*
X182148932Y-97040827D01*
X182148932Y-97040827D02*
X182053694Y-96993208D01*
X182053694Y-96993208D02*
X181910837Y-96993208D01*
X181910837Y-96993208D02*
X181815599Y-97040827D01*
X181815599Y-97040827D02*
X181767980Y-97088446D01*
X181767980Y-97088446D02*
X181720361Y-97183684D01*
X181720361Y-97183684D02*
X181720361Y-97469398D01*
X181720361Y-97469398D02*
X181767980Y-97564636D01*
X181767980Y-97564636D02*
X181815599Y-97612256D01*
X181815599Y-97612256D02*
X181910837Y-97659875D01*
X181910837Y-97659875D02*
X182053694Y-97659875D01*
X181148932Y-97659875D02*
X181244170Y-97612256D01*
X181244170Y-97612256D02*
X181291789Y-97517017D01*
X181291789Y-97517017D02*
X181291789Y-96659875D01*
X180625122Y-97659875D02*
X180720360Y-97612256D01*
X180720360Y-97612256D02*
X180767979Y-97517017D01*
X180767979Y-97517017D02*
X180767979Y-96659875D01*
X179863217Y-97612256D02*
X179958455Y-97659875D01*
X179958455Y-97659875D02*
X180148931Y-97659875D01*
X180148931Y-97659875D02*
X180244169Y-97612256D01*
X180244169Y-97612256D02*
X180291788Y-97517017D01*
X180291788Y-97517017D02*
X180291788Y-97136065D01*
X180291788Y-97136065D02*
X180244169Y-97040827D01*
X180244169Y-97040827D02*
X180148931Y-96993208D01*
X180148931Y-96993208D02*
X179958455Y-96993208D01*
X179958455Y-96993208D02*
X179863217Y-97040827D01*
X179863217Y-97040827D02*
X179815598Y-97136065D01*
X179815598Y-97136065D02*
X179815598Y-97231303D01*
X179815598Y-97231303D02*
X180291788Y-97326541D01*
X179387026Y-97659875D02*
X179387026Y-96993208D01*
X179387026Y-97183684D02*
X179339407Y-97088446D01*
X179339407Y-97088446D02*
X179291788Y-97040827D01*
X179291788Y-97040827D02*
X179196550Y-96993208D01*
X179196550Y-96993208D02*
X179101312Y-96993208D01*
X177672740Y-97136065D02*
X177529883Y-97183684D01*
X177529883Y-97183684D02*
X177482264Y-97231303D01*
X177482264Y-97231303D02*
X177434645Y-97326541D01*
X177434645Y-97326541D02*
X177434645Y-97469398D01*
X177434645Y-97469398D02*
X177482264Y-97564636D01*
X177482264Y-97564636D02*
X177529883Y-97612256D01*
X177529883Y-97612256D02*
X177625121Y-97659875D01*
X177625121Y-97659875D02*
X178006073Y-97659875D01*
X178006073Y-97659875D02*
X178006073Y-96659875D01*
X178006073Y-96659875D02*
X177672740Y-96659875D01*
X177672740Y-96659875D02*
X177577502Y-96707494D01*
X177577502Y-96707494D02*
X177529883Y-96755113D01*
X177529883Y-96755113D02*
X177482264Y-96850351D01*
X177482264Y-96850351D02*
X177482264Y-96945589D01*
X177482264Y-96945589D02*
X177529883Y-97040827D01*
X177529883Y-97040827D02*
X177577502Y-97088446D01*
X177577502Y-97088446D02*
X177672740Y-97136065D01*
X177672740Y-97136065D02*
X178006073Y-97136065D01*
X176863216Y-97659875D02*
X176958454Y-97612256D01*
X176958454Y-97612256D02*
X177006073Y-97564636D01*
X177006073Y-97564636D02*
X177053692Y-97469398D01*
X177053692Y-97469398D02*
X177053692Y-97183684D01*
X177053692Y-97183684D02*
X177006073Y-97088446D01*
X177006073Y-97088446D02*
X176958454Y-97040827D01*
X176958454Y-97040827D02*
X176863216Y-96993208D01*
X176863216Y-96993208D02*
X176720359Y-96993208D01*
X176720359Y-96993208D02*
X176625121Y-97040827D01*
X176625121Y-97040827D02*
X176577502Y-97088446D01*
X176577502Y-97088446D02*
X176529883Y-97183684D01*
X176529883Y-97183684D02*
X176529883Y-97469398D01*
X176529883Y-97469398D02*
X176577502Y-97564636D01*
X176577502Y-97564636D02*
X176625121Y-97612256D01*
X176625121Y-97612256D02*
X176720359Y-97659875D01*
X176720359Y-97659875D02*
X176863216Y-97659875D01*
X175672740Y-97659875D02*
X175672740Y-97136065D01*
X175672740Y-97136065D02*
X175720359Y-97040827D01*
X175720359Y-97040827D02*
X175815597Y-96993208D01*
X175815597Y-96993208D02*
X176006073Y-96993208D01*
X176006073Y-96993208D02*
X176101311Y-97040827D01*
X175672740Y-97612256D02*
X175767978Y-97659875D01*
X175767978Y-97659875D02*
X176006073Y-97659875D01*
X176006073Y-97659875D02*
X176101311Y-97612256D01*
X176101311Y-97612256D02*
X176148930Y-97517017D01*
X176148930Y-97517017D02*
X176148930Y-97421779D01*
X176148930Y-97421779D02*
X176101311Y-97326541D01*
X176101311Y-97326541D02*
X176006073Y-97278922D01*
X176006073Y-97278922D02*
X175767978Y-97278922D01*
X175767978Y-97278922D02*
X175672740Y-97231303D01*
X175196549Y-97659875D02*
X175196549Y-96993208D01*
X175196549Y-97183684D02*
X175148930Y-97088446D01*
X175148930Y-97088446D02*
X175101311Y-97040827D01*
X175101311Y-97040827D02*
X175006073Y-96993208D01*
X175006073Y-96993208D02*
X174910835Y-96993208D01*
X174148930Y-97659875D02*
X174148930Y-96659875D01*
X174148930Y-97612256D02*
X174244168Y-97659875D01*
X174244168Y-97659875D02*
X174434644Y-97659875D01*
X174434644Y-97659875D02*
X174529882Y-97612256D01*
X174529882Y-97612256D02*
X174577501Y-97564636D01*
X174577501Y-97564636D02*
X174625120Y-97469398D01*
X174625120Y-97469398D02*
X174625120Y-97183684D01*
X174625120Y-97183684D02*
X174577501Y-97088446D01*
X174577501Y-97088446D02*
X174529882Y-97040827D01*
X174529882Y-97040827D02*
X174434644Y-96993208D01*
X174434644Y-96993208D02*
X174244168Y-96993208D01*
X174244168Y-96993208D02*
X174148930Y-97040827D01*
X173006072Y-96993208D02*
X172767977Y-97659875D01*
X172767977Y-97659875D02*
X172529882Y-96993208D01*
X171958453Y-96659875D02*
X171863215Y-96659875D01*
X171863215Y-96659875D02*
X171767977Y-96707494D01*
X171767977Y-96707494D02*
X171720358Y-96755113D01*
X171720358Y-96755113D02*
X171672739Y-96850351D01*
X171672739Y-96850351D02*
X171625120Y-97040827D01*
X171625120Y-97040827D02*
X171625120Y-97278922D01*
X171625120Y-97278922D02*
X171672739Y-97469398D01*
X171672739Y-97469398D02*
X171720358Y-97564636D01*
X171720358Y-97564636D02*
X171767977Y-97612256D01*
X171767977Y-97612256D02*
X171863215Y-97659875D01*
X171863215Y-97659875D02*
X171958453Y-97659875D01*
X171958453Y-97659875D02*
X172053691Y-97612256D01*
X172053691Y-97612256D02*
X172101310Y-97564636D01*
X172101310Y-97564636D02*
X172148929Y-97469398D01*
X172148929Y-97469398D02*
X172196548Y-97278922D01*
X172196548Y-97278922D02*
X172196548Y-97040827D01*
X172196548Y-97040827D02*
X172148929Y-96850351D01*
X172148929Y-96850351D02*
X172101310Y-96755113D01*
X172101310Y-96755113D02*
X172053691Y-96707494D01*
X172053691Y-96707494D02*
X171958453Y-96659875D01*
X195910839Y-98365057D02*
X195863220Y-98317438D01*
X195863220Y-98317438D02*
X195767982Y-98269819D01*
X195767982Y-98269819D02*
X195529887Y-98269819D01*
X195529887Y-98269819D02*
X195434649Y-98317438D01*
X195434649Y-98317438D02*
X195387030Y-98365057D01*
X195387030Y-98365057D02*
X195339411Y-98460295D01*
X195339411Y-98460295D02*
X195339411Y-98555533D01*
X195339411Y-98555533D02*
X195387030Y-98698390D01*
X195387030Y-98698390D02*
X195958458Y-99269819D01*
X195958458Y-99269819D02*
X195339411Y-99269819D01*
X194958458Y-98365057D02*
X194910839Y-98317438D01*
X194910839Y-98317438D02*
X194815601Y-98269819D01*
X194815601Y-98269819D02*
X194577506Y-98269819D01*
X194577506Y-98269819D02*
X194482268Y-98317438D01*
X194482268Y-98317438D02*
X194434649Y-98365057D01*
X194434649Y-98365057D02*
X194387030Y-98460295D01*
X194387030Y-98460295D02*
X194387030Y-98555533D01*
X194387030Y-98555533D02*
X194434649Y-98698390D01*
X194434649Y-98698390D02*
X195006077Y-99269819D01*
X195006077Y-99269819D02*
X194387030Y-99269819D01*
X193244173Y-98222200D02*
X194101315Y-99507914D01*
X192720363Y-98269819D02*
X192625125Y-98269819D01*
X192625125Y-98269819D02*
X192529887Y-98317438D01*
X192529887Y-98317438D02*
X192482268Y-98365057D01*
X192482268Y-98365057D02*
X192434649Y-98460295D01*
X192434649Y-98460295D02*
X192387030Y-98650771D01*
X192387030Y-98650771D02*
X192387030Y-98888866D01*
X192387030Y-98888866D02*
X192434649Y-99079342D01*
X192434649Y-99079342D02*
X192482268Y-99174580D01*
X192482268Y-99174580D02*
X192529887Y-99222200D01*
X192529887Y-99222200D02*
X192625125Y-99269819D01*
X192625125Y-99269819D02*
X192720363Y-99269819D01*
X192720363Y-99269819D02*
X192815601Y-99222200D01*
X192815601Y-99222200D02*
X192863220Y-99174580D01*
X192863220Y-99174580D02*
X192910839Y-99079342D01*
X192910839Y-99079342D02*
X192958458Y-98888866D01*
X192958458Y-98888866D02*
X192958458Y-98650771D01*
X192958458Y-98650771D02*
X192910839Y-98460295D01*
X192910839Y-98460295D02*
X192863220Y-98365057D01*
X192863220Y-98365057D02*
X192815601Y-98317438D01*
X192815601Y-98317438D02*
X192720363Y-98269819D01*
X191815601Y-98698390D02*
X191910839Y-98650771D01*
X191910839Y-98650771D02*
X191958458Y-98603152D01*
X191958458Y-98603152D02*
X192006077Y-98507914D01*
X192006077Y-98507914D02*
X192006077Y-98460295D01*
X192006077Y-98460295D02*
X191958458Y-98365057D01*
X191958458Y-98365057D02*
X191910839Y-98317438D01*
X191910839Y-98317438D02*
X191815601Y-98269819D01*
X191815601Y-98269819D02*
X191625125Y-98269819D01*
X191625125Y-98269819D02*
X191529887Y-98317438D01*
X191529887Y-98317438D02*
X191482268Y-98365057D01*
X191482268Y-98365057D02*
X191434649Y-98460295D01*
X191434649Y-98460295D02*
X191434649Y-98507914D01*
X191434649Y-98507914D02*
X191482268Y-98603152D01*
X191482268Y-98603152D02*
X191529887Y-98650771D01*
X191529887Y-98650771D02*
X191625125Y-98698390D01*
X191625125Y-98698390D02*
X191815601Y-98698390D01*
X191815601Y-98698390D02*
X191910839Y-98746009D01*
X191910839Y-98746009D02*
X191958458Y-98793628D01*
X191958458Y-98793628D02*
X192006077Y-98888866D01*
X192006077Y-98888866D02*
X192006077Y-99079342D01*
X192006077Y-99079342D02*
X191958458Y-99174580D01*
X191958458Y-99174580D02*
X191910839Y-99222200D01*
X191910839Y-99222200D02*
X191815601Y-99269819D01*
X191815601Y-99269819D02*
X191625125Y-99269819D01*
X191625125Y-99269819D02*
X191529887Y-99222200D01*
X191529887Y-99222200D02*
X191482268Y-99174580D01*
X191482268Y-99174580D02*
X191434649Y-99079342D01*
X191434649Y-99079342D02*
X191434649Y-98888866D01*
X191434649Y-98888866D02*
X191482268Y-98793628D01*
X191482268Y-98793628D02*
X191529887Y-98746009D01*
X191529887Y-98746009D02*
X191625125Y-98698390D01*
X190291792Y-98222200D02*
X191148934Y-99507914D01*
X190006077Y-98365057D02*
X189958458Y-98317438D01*
X189958458Y-98317438D02*
X189863220Y-98269819D01*
X189863220Y-98269819D02*
X189625125Y-98269819D01*
X189625125Y-98269819D02*
X189529887Y-98317438D01*
X189529887Y-98317438D02*
X189482268Y-98365057D01*
X189482268Y-98365057D02*
X189434649Y-98460295D01*
X189434649Y-98460295D02*
X189434649Y-98555533D01*
X189434649Y-98555533D02*
X189482268Y-98698390D01*
X189482268Y-98698390D02*
X190053696Y-99269819D01*
X190053696Y-99269819D02*
X189434649Y-99269819D01*
X188815601Y-98269819D02*
X188720363Y-98269819D01*
X188720363Y-98269819D02*
X188625125Y-98317438D01*
X188625125Y-98317438D02*
X188577506Y-98365057D01*
X188577506Y-98365057D02*
X188529887Y-98460295D01*
X188529887Y-98460295D02*
X188482268Y-98650771D01*
X188482268Y-98650771D02*
X188482268Y-98888866D01*
X188482268Y-98888866D02*
X188529887Y-99079342D01*
X188529887Y-99079342D02*
X188577506Y-99174580D01*
X188577506Y-99174580D02*
X188625125Y-99222200D01*
X188625125Y-99222200D02*
X188720363Y-99269819D01*
X188720363Y-99269819D02*
X188815601Y-99269819D01*
X188815601Y-99269819D02*
X188910839Y-99222200D01*
X188910839Y-99222200D02*
X188958458Y-99174580D01*
X188958458Y-99174580D02*
X189006077Y-99079342D01*
X189006077Y-99079342D02*
X189053696Y-98888866D01*
X189053696Y-98888866D02*
X189053696Y-98650771D01*
X189053696Y-98650771D02*
X189006077Y-98460295D01*
X189006077Y-98460295D02*
X188958458Y-98365057D01*
X188958458Y-98365057D02*
X188910839Y-98317438D01*
X188910839Y-98317438D02*
X188815601Y-98269819D01*
X188101315Y-98365057D02*
X188053696Y-98317438D01*
X188053696Y-98317438D02*
X187958458Y-98269819D01*
X187958458Y-98269819D02*
X187720363Y-98269819D01*
X187720363Y-98269819D02*
X187625125Y-98317438D01*
X187625125Y-98317438D02*
X187577506Y-98365057D01*
X187577506Y-98365057D02*
X187529887Y-98460295D01*
X187529887Y-98460295D02*
X187529887Y-98555533D01*
X187529887Y-98555533D02*
X187577506Y-98698390D01*
X187577506Y-98698390D02*
X188148934Y-99269819D01*
X188148934Y-99269819D02*
X187529887Y-99269819D01*
X186672744Y-98603152D02*
X186672744Y-99269819D01*
X186910839Y-98222200D02*
X187148934Y-98936485D01*
X187148934Y-98936485D02*
X186529887Y-98936485D01*
X164584104Y-104439160D02*
X164584104Y-104915350D01*
X164869819Y-104343922D02*
X163869819Y-104677255D01*
X163869819Y-104677255D02*
X164869819Y-105010588D01*
X163944819Y-88234159D02*
X163944819Y-88853206D01*
X163944819Y-88853206D02*
X164325771Y-88519873D01*
X164325771Y-88519873D02*
X164325771Y-88662730D01*
X164325771Y-88662730D02*
X164373390Y-88757968D01*
X164373390Y-88757968D02*
X164421009Y-88805587D01*
X164421009Y-88805587D02*
X164516247Y-88853206D01*
X164516247Y-88853206D02*
X164754342Y-88853206D01*
X164754342Y-88853206D02*
X164849580Y-88805587D01*
X164849580Y-88805587D02*
X164897200Y-88757968D01*
X164897200Y-88757968D02*
X164944819Y-88662730D01*
X164944819Y-88662730D02*
X164944819Y-88377016D01*
X164944819Y-88377016D02*
X164897200Y-88281778D01*
X164897200Y-88281778D02*
X164849580Y-88234159D01*
X163944819Y-89138921D02*
X164944819Y-89472254D01*
X164944819Y-89472254D02*
X163944819Y-89805587D01*
X163944819Y-90043683D02*
X163944819Y-90662730D01*
X163944819Y-90662730D02*
X164325771Y-90329397D01*
X164325771Y-90329397D02*
X164325771Y-90472254D01*
X164325771Y-90472254D02*
X164373390Y-90567492D01*
X164373390Y-90567492D02*
X164421009Y-90615111D01*
X164421009Y-90615111D02*
X164516247Y-90662730D01*
X164516247Y-90662730D02*
X164754342Y-90662730D01*
X164754342Y-90662730D02*
X164849580Y-90615111D01*
X164849580Y-90615111D02*
X164897200Y-90567492D01*
X164897200Y-90567492D02*
X164944819Y-90472254D01*
X164944819Y-90472254D02*
X164944819Y-90186540D01*
X164944819Y-90186540D02*
X164897200Y-90091302D01*
X164897200Y-90091302D02*
X164849580Y-90043683D01*
X163944819Y-91686540D02*
X163944819Y-92257968D01*
X164944819Y-91972254D02*
X163944819Y-91972254D01*
X164944819Y-92496064D02*
X164278152Y-93019873D01*
X164278152Y-92496064D02*
X164944819Y-93019873D01*
X163917438Y-109260588D02*
X163869819Y-109165350D01*
X163869819Y-109165350D02*
X163869819Y-109022493D01*
X163869819Y-109022493D02*
X163917438Y-108879636D01*
X163917438Y-108879636D02*
X164012676Y-108784398D01*
X164012676Y-108784398D02*
X164107914Y-108736779D01*
X164107914Y-108736779D02*
X164298390Y-108689160D01*
X164298390Y-108689160D02*
X164441247Y-108689160D01*
X164441247Y-108689160D02*
X164631723Y-108736779D01*
X164631723Y-108736779D02*
X164726961Y-108784398D01*
X164726961Y-108784398D02*
X164822200Y-108879636D01*
X164822200Y-108879636D02*
X164869819Y-109022493D01*
X164869819Y-109022493D02*
X164869819Y-109117731D01*
X164869819Y-109117731D02*
X164822200Y-109260588D01*
X164822200Y-109260588D02*
X164774580Y-109308207D01*
X164774580Y-109308207D02*
X164441247Y-109308207D01*
X164441247Y-109308207D02*
X164441247Y-109117731D01*
X164869819Y-109736779D02*
X163869819Y-109736779D01*
X163869819Y-109736779D02*
X164869819Y-110308207D01*
X164869819Y-110308207D02*
X163869819Y-110308207D01*
X164869819Y-110784398D02*
X163869819Y-110784398D01*
X163869819Y-110784398D02*
X163869819Y-111022493D01*
X163869819Y-111022493D02*
X163917438Y-111165350D01*
X163917438Y-111165350D02*
X164012676Y-111260588D01*
X164012676Y-111260588D02*
X164107914Y-111308207D01*
X164107914Y-111308207D02*
X164298390Y-111355826D01*
X164298390Y-111355826D02*
X164441247Y-111355826D01*
X164441247Y-111355826D02*
X164631723Y-111308207D01*
X164631723Y-111308207D02*
X164726961Y-111260588D01*
X164726961Y-111260588D02*
X164822200Y-111165350D01*
X164822200Y-111165350D02*
X164869819Y-111022493D01*
X164869819Y-111022493D02*
X164869819Y-110784398D01*
X163869819Y-100641541D02*
X163869819Y-101260588D01*
X163869819Y-101260588D02*
X164250771Y-100927255D01*
X164250771Y-100927255D02*
X164250771Y-101070112D01*
X164250771Y-101070112D02*
X164298390Y-101165350D01*
X164298390Y-101165350D02*
X164346009Y-101212969D01*
X164346009Y-101212969D02*
X164441247Y-101260588D01*
X164441247Y-101260588D02*
X164679342Y-101260588D01*
X164679342Y-101260588D02*
X164774580Y-101212969D01*
X164774580Y-101212969D02*
X164822200Y-101165350D01*
X164822200Y-101165350D02*
X164869819Y-101070112D01*
X164869819Y-101070112D02*
X164869819Y-100784398D01*
X164869819Y-100784398D02*
X164822200Y-100689160D01*
X164822200Y-100689160D02*
X164774580Y-100641541D01*
X163869819Y-101546303D02*
X164869819Y-101879636D01*
X164869819Y-101879636D02*
X163869819Y-102212969D01*
X163869819Y-102451065D02*
X163869819Y-103070112D01*
X163869819Y-103070112D02*
X164250771Y-102736779D01*
X164250771Y-102736779D02*
X164250771Y-102879636D01*
X164250771Y-102879636D02*
X164298390Y-102974874D01*
X164298390Y-102974874D02*
X164346009Y-103022493D01*
X164346009Y-103022493D02*
X164441247Y-103070112D01*
X164441247Y-103070112D02*
X164679342Y-103070112D01*
X164679342Y-103070112D02*
X164774580Y-103022493D01*
X164774580Y-103022493D02*
X164822200Y-102974874D01*
X164822200Y-102974874D02*
X164869819Y-102879636D01*
X164869819Y-102879636D02*
X164869819Y-102593922D01*
X164869819Y-102593922D02*
X164822200Y-102498684D01*
X164822200Y-102498684D02*
X164774580Y-102451065D01*
X164944819Y-94758207D02*
X164468628Y-94424874D01*
X164944819Y-94186779D02*
X163944819Y-94186779D01*
X163944819Y-94186779D02*
X163944819Y-94567731D01*
X163944819Y-94567731D02*
X163992438Y-94662969D01*
X163992438Y-94662969D02*
X164040057Y-94710588D01*
X164040057Y-94710588D02*
X164135295Y-94758207D01*
X164135295Y-94758207D02*
X164278152Y-94758207D01*
X164278152Y-94758207D02*
X164373390Y-94710588D01*
X164373390Y-94710588D02*
X164421009Y-94662969D01*
X164421009Y-94662969D02*
X164468628Y-94567731D01*
X164468628Y-94567731D02*
X164468628Y-94186779D01*
X164944819Y-95091541D02*
X164278152Y-95615350D01*
X164278152Y-95091541D02*
X164944819Y-95615350D01*
X166669819Y-104508207D02*
X166193628Y-104174874D01*
X166669819Y-103936779D02*
X165669819Y-103936779D01*
X165669819Y-103936779D02*
X165669819Y-104317731D01*
X165669819Y-104317731D02*
X165717438Y-104412969D01*
X165717438Y-104412969D02*
X165765057Y-104460588D01*
X165765057Y-104460588D02*
X165860295Y-104508207D01*
X165860295Y-104508207D02*
X166003152Y-104508207D01*
X166003152Y-104508207D02*
X166098390Y-104460588D01*
X166098390Y-104460588D02*
X166146009Y-104412969D01*
X166146009Y-104412969D02*
X166193628Y-104317731D01*
X166193628Y-104317731D02*
X166193628Y-103936779D01*
X166622200Y-104889160D02*
X166669819Y-105032017D01*
X166669819Y-105032017D02*
X166669819Y-105270112D01*
X166669819Y-105270112D02*
X166622200Y-105365350D01*
X166622200Y-105365350D02*
X166574580Y-105412969D01*
X166574580Y-105412969D02*
X166479342Y-105460588D01*
X166479342Y-105460588D02*
X166384104Y-105460588D01*
X166384104Y-105460588D02*
X166288866Y-105412969D01*
X166288866Y-105412969D02*
X166241247Y-105365350D01*
X166241247Y-105365350D02*
X166193628Y-105270112D01*
X166193628Y-105270112D02*
X166146009Y-105079636D01*
X166146009Y-105079636D02*
X166098390Y-104984398D01*
X166098390Y-104984398D02*
X166050771Y-104936779D01*
X166050771Y-104936779D02*
X165955533Y-104889160D01*
X165955533Y-104889160D02*
X165860295Y-104889160D01*
X165860295Y-104889160D02*
X165765057Y-104936779D01*
X165765057Y-104936779D02*
X165717438Y-104984398D01*
X165717438Y-104984398D02*
X165669819Y-105079636D01*
X165669819Y-105079636D02*
X165669819Y-105317731D01*
X165669819Y-105317731D02*
X165717438Y-105460588D01*
X166003152Y-106317731D02*
X166669819Y-106317731D01*
X165622200Y-106079636D02*
X166336485Y-105841541D01*
X166336485Y-105841541D02*
X166336485Y-106460588D01*
X166098390Y-106984398D02*
X166050771Y-106889160D01*
X166050771Y-106889160D02*
X166003152Y-106841541D01*
X166003152Y-106841541D02*
X165907914Y-106793922D01*
X165907914Y-106793922D02*
X165860295Y-106793922D01*
X165860295Y-106793922D02*
X165765057Y-106841541D01*
X165765057Y-106841541D02*
X165717438Y-106889160D01*
X165717438Y-106889160D02*
X165669819Y-106984398D01*
X165669819Y-106984398D02*
X165669819Y-107174874D01*
X165669819Y-107174874D02*
X165717438Y-107270112D01*
X165717438Y-107270112D02*
X165765057Y-107317731D01*
X165765057Y-107317731D02*
X165860295Y-107365350D01*
X165860295Y-107365350D02*
X165907914Y-107365350D01*
X165907914Y-107365350D02*
X166003152Y-107317731D01*
X166003152Y-107317731D02*
X166050771Y-107270112D01*
X166050771Y-107270112D02*
X166098390Y-107174874D01*
X166098390Y-107174874D02*
X166098390Y-106984398D01*
X166098390Y-106984398D02*
X166146009Y-106889160D01*
X166146009Y-106889160D02*
X166193628Y-106841541D01*
X166193628Y-106841541D02*
X166288866Y-106793922D01*
X166288866Y-106793922D02*
X166479342Y-106793922D01*
X166479342Y-106793922D02*
X166574580Y-106841541D01*
X166574580Y-106841541D02*
X166622200Y-106889160D01*
X166622200Y-106889160D02*
X166669819Y-106984398D01*
X166669819Y-106984398D02*
X166669819Y-107174874D01*
X166669819Y-107174874D02*
X166622200Y-107270112D01*
X166622200Y-107270112D02*
X166574580Y-107317731D01*
X166574580Y-107317731D02*
X166479342Y-107365350D01*
X166479342Y-107365350D02*
X166288866Y-107365350D01*
X166288866Y-107365350D02*
X166193628Y-107317731D01*
X166193628Y-107317731D02*
X166146009Y-107270112D01*
X166146009Y-107270112D02*
X166098390Y-107174874D01*
X165669819Y-108270112D02*
X165669819Y-107793922D01*
X165669819Y-107793922D02*
X166146009Y-107746303D01*
X166146009Y-107746303D02*
X166098390Y-107793922D01*
X166098390Y-107793922D02*
X166050771Y-107889160D01*
X166050771Y-107889160D02*
X166050771Y-108127255D01*
X166050771Y-108127255D02*
X166098390Y-108222493D01*
X166098390Y-108222493D02*
X166146009Y-108270112D01*
X166146009Y-108270112D02*
X166241247Y-108317731D01*
X166241247Y-108317731D02*
X166479342Y-108317731D01*
X166479342Y-108317731D02*
X166574580Y-108270112D01*
X166574580Y-108270112D02*
X166622200Y-108222493D01*
X166622200Y-108222493D02*
X166669819Y-108127255D01*
X166669819Y-108127255D02*
X166669819Y-107889160D01*
X166669819Y-107889160D02*
X166622200Y-107793922D01*
X166622200Y-107793922D02*
X166574580Y-107746303D01*
X164346009Y-107320112D02*
X164393628Y-107462969D01*
X164393628Y-107462969D02*
X164441247Y-107510588D01*
X164441247Y-107510588D02*
X164536485Y-107558207D01*
X164536485Y-107558207D02*
X164679342Y-107558207D01*
X164679342Y-107558207D02*
X164774580Y-107510588D01*
X164774580Y-107510588D02*
X164822200Y-107462969D01*
X164822200Y-107462969D02*
X164869819Y-107367731D01*
X164869819Y-107367731D02*
X164869819Y-106986779D01*
X164869819Y-106986779D02*
X163869819Y-106986779D01*
X163869819Y-106986779D02*
X163869819Y-107320112D01*
X163869819Y-107320112D02*
X163917438Y-107415350D01*
X163917438Y-107415350D02*
X163965057Y-107462969D01*
X163965057Y-107462969D02*
X164060295Y-107510588D01*
X164060295Y-107510588D02*
X164155533Y-107510588D01*
X164155533Y-107510588D02*
X164250771Y-107462969D01*
X164250771Y-107462969D02*
X164298390Y-107415350D01*
X164298390Y-107415350D02*
X164346009Y-107320112D01*
X164346009Y-107320112D02*
X164346009Y-106986779D01*
X165669819Y-92336779D02*
X166479342Y-92336779D01*
X166479342Y-92336779D02*
X166574580Y-92384398D01*
X166574580Y-92384398D02*
X166622200Y-92432017D01*
X166622200Y-92432017D02*
X166669819Y-92527255D01*
X166669819Y-92527255D02*
X166669819Y-92717731D01*
X166669819Y-92717731D02*
X166622200Y-92812969D01*
X166622200Y-92812969D02*
X166574580Y-92860588D01*
X166574580Y-92860588D02*
X166479342Y-92908207D01*
X166479342Y-92908207D02*
X165669819Y-92908207D01*
X166384104Y-93336779D02*
X166384104Y-93812969D01*
X166669819Y-93241541D02*
X165669819Y-93574874D01*
X165669819Y-93574874D02*
X166669819Y-93908207D01*
X166669819Y-94812969D02*
X166193628Y-94479636D01*
X166669819Y-94241541D02*
X165669819Y-94241541D01*
X165669819Y-94241541D02*
X165669819Y-94622493D01*
X165669819Y-94622493D02*
X165717438Y-94717731D01*
X165717438Y-94717731D02*
X165765057Y-94765350D01*
X165765057Y-94765350D02*
X165860295Y-94812969D01*
X165860295Y-94812969D02*
X166003152Y-94812969D01*
X166003152Y-94812969D02*
X166098390Y-94765350D01*
X166098390Y-94765350D02*
X166146009Y-94717731D01*
X166146009Y-94717731D02*
X166193628Y-94622493D01*
X166193628Y-94622493D02*
X166193628Y-94241541D01*
X165669819Y-95098684D02*
X165669819Y-95670112D01*
X166669819Y-95384398D02*
X165669819Y-95384398D01*
X163992438Y-96853206D02*
X163944819Y-96757968D01*
X163944819Y-96757968D02*
X163944819Y-96615111D01*
X163944819Y-96615111D02*
X163992438Y-96472254D01*
X163992438Y-96472254D02*
X164087676Y-96377016D01*
X164087676Y-96377016D02*
X164182914Y-96329397D01*
X164182914Y-96329397D02*
X164373390Y-96281778D01*
X164373390Y-96281778D02*
X164516247Y-96281778D01*
X164516247Y-96281778D02*
X164706723Y-96329397D01*
X164706723Y-96329397D02*
X164801961Y-96377016D01*
X164801961Y-96377016D02*
X164897200Y-96472254D01*
X164897200Y-96472254D02*
X164944819Y-96615111D01*
X164944819Y-96615111D02*
X164944819Y-96710349D01*
X164944819Y-96710349D02*
X164897200Y-96853206D01*
X164897200Y-96853206D02*
X164849580Y-96900825D01*
X164849580Y-96900825D02*
X164516247Y-96900825D01*
X164516247Y-96900825D02*
X164516247Y-96710349D01*
X164944819Y-97329397D02*
X163944819Y-97329397D01*
X163944819Y-97329397D02*
X164944819Y-97900825D01*
X164944819Y-97900825D02*
X163944819Y-97900825D01*
X164944819Y-98377016D02*
X163944819Y-98377016D01*
X163944819Y-98377016D02*
X163944819Y-98615111D01*
X163944819Y-98615111D02*
X163992438Y-98757968D01*
X163992438Y-98757968D02*
X164087676Y-98853206D01*
X164087676Y-98853206D02*
X164182914Y-98900825D01*
X164182914Y-98900825D02*
X164373390Y-98948444D01*
X164373390Y-98948444D02*
X164516247Y-98948444D01*
X164516247Y-98948444D02*
X164706723Y-98900825D01*
X164706723Y-98900825D02*
X164801961Y-98853206D01*
X164801961Y-98853206D02*
X164897200Y-98757968D01*
X164897200Y-98757968D02*
X164944819Y-98615111D01*
X164944819Y-98615111D02*
X164944819Y-98377016D01*
D11*
%TO.C,JP7*%
X175950000Y-63525000D02*
X177950000Y-63525000D01*
X175950000Y-66325000D02*
X175950000Y-63525000D01*
X177950000Y-63525000D02*
X177950000Y-66325000D01*
X177950000Y-66325000D02*
X175950000Y-66325000D01*
%TO.C,JP9*%
X181150000Y-63525000D02*
X183150000Y-63525000D01*
X181150000Y-66325000D02*
X181150000Y-63525000D01*
X183150000Y-63525000D02*
X183150000Y-66325000D01*
X183150000Y-66325000D02*
X181150000Y-66325000D01*
%TO.C,JP6*%
X173350000Y-63525000D02*
X175350000Y-63525000D01*
X173350000Y-66325000D02*
X173350000Y-63525000D01*
X175350000Y-63525000D02*
X175350000Y-66325000D01*
X175350000Y-66325000D02*
X173350000Y-66325000D01*
%TO.C,JP3*%
X165550000Y-63525000D02*
X167550000Y-63525000D01*
X165550000Y-66325000D02*
X165550000Y-63525000D01*
X167550000Y-63525000D02*
X167550000Y-66325000D01*
X167550000Y-66325000D02*
X165550000Y-66325000D01*
%TO.C,JP11*%
X186350000Y-63525000D02*
X188350000Y-63525000D01*
X186350000Y-66325000D02*
X186350000Y-63525000D01*
X188350000Y-63525000D02*
X188350000Y-66325000D01*
X188350000Y-66325000D02*
X186350000Y-66325000D01*
%TO.C,J4*%
X160270000Y-90990000D02*
X162930000Y-90990000D01*
X160270000Y-98670000D02*
X160270000Y-90990000D01*
X160270000Y-98670000D02*
X162930000Y-98670000D01*
X161600000Y-88390000D02*
X162930000Y-88390000D01*
X162930000Y-88390000D02*
X162930000Y-89720000D01*
X162930000Y-98670000D02*
X162930000Y-90990000D01*
%TO.C,JP10*%
X183750000Y-63525000D02*
X185750000Y-63525000D01*
X183750000Y-66325000D02*
X183750000Y-63525000D01*
X185750000Y-63525000D02*
X185750000Y-66325000D01*
X185750000Y-66325000D02*
X183750000Y-66325000D01*
%TO.C,JP5*%
X170750000Y-63525000D02*
X172750000Y-63525000D01*
X170750000Y-66325000D02*
X170750000Y-63525000D01*
X172750000Y-63525000D02*
X172750000Y-66325000D01*
X172750000Y-66325000D02*
X170750000Y-66325000D01*
%TO.C,JP8*%
X178550000Y-63525000D02*
X180550000Y-63525000D01*
X178550000Y-66325000D02*
X178550000Y-63525000D01*
X180550000Y-63525000D02*
X180550000Y-66325000D01*
X180550000Y-66325000D02*
X178550000Y-66325000D01*
%TO.C,JP4*%
X168150000Y-63525000D02*
X170150000Y-63525000D01*
X168150000Y-66325000D02*
X168150000Y-63525000D01*
X170150000Y-63525000D02*
X170150000Y-66325000D01*
X170150000Y-66325000D02*
X168150000Y-66325000D01*
%TO.C,J3*%
X160270000Y-103470000D02*
X162930000Y-103470000D01*
X160270000Y-111150000D02*
X160270000Y-103470000D01*
X160270000Y-111150000D02*
X162930000Y-111150000D01*
X161600000Y-100870000D02*
X162930000Y-100870000D01*
X162930000Y-100870000D02*
X162930000Y-102200000D01*
X162930000Y-111150000D02*
X162930000Y-103470000D01*
%TD*%
%LPC*%
D12*
%TO.C,U7*%
X237190000Y-101920000D03*
X237190000Y-104460000D03*
X237190000Y-107000000D03*
X244810000Y-107000000D03*
X244810000Y-104460000D03*
X244810000Y-101920000D03*
%TD*%
D13*
%TO.C,J5*%
X164565000Y-58540000D03*
X163549000Y-53460000D03*
X165581000Y-53460000D03*
%TD*%
D14*
%TO.C,TP2*%
X197400000Y-106000000D03*
%TD*%
D12*
%TO.C,U6*%
X224380000Y-101920000D03*
X224380000Y-104460000D03*
X224380000Y-107000000D03*
X232000000Y-107000000D03*
X232000000Y-104460000D03*
X232000000Y-101920000D03*
%TD*%
D15*
%TO.C,J2*%
X185150000Y-53925000D03*
X177150000Y-53925000D03*
%TD*%
D14*
%TO.C,TP3*%
X187600000Y-106000000D03*
%TD*%
D16*
%TO.C,U4*%
X221300000Y-92240000D03*
X223840000Y-92240000D03*
X226380000Y-92240000D03*
X228920000Y-92240000D03*
X231460000Y-92240000D03*
X234000000Y-92240000D03*
X234000000Y-77000000D03*
X231460000Y-77000000D03*
X228920000Y-77000000D03*
X226380000Y-77000000D03*
X223840000Y-77000000D03*
X221300000Y-77000000D03*
%TD*%
%TO.C,U3*%
X221300000Y-70490000D03*
X223840000Y-70490000D03*
X226380000Y-70490000D03*
X228920000Y-70490000D03*
X231460000Y-70490000D03*
X234000000Y-70490000D03*
X234000000Y-55250000D03*
X231460000Y-55250000D03*
X228920000Y-55250000D03*
X226380000Y-55250000D03*
X223840000Y-55250000D03*
X221300000Y-55250000D03*
%TD*%
D12*
%TO.C,U5*%
X211190000Y-101920000D03*
X211190000Y-104460000D03*
X211190000Y-107000000D03*
X218810000Y-107000000D03*
X218810000Y-104460000D03*
X218810000Y-101920000D03*
%TD*%
D17*
%TO.C,JP7*%
X176950000Y-65575000D03*
X176950000Y-64275000D03*
%TD*%
%TO.C,JP9*%
X182150000Y-65575000D03*
X182150000Y-64275000D03*
%TD*%
%TO.C,JP6*%
X174350000Y-65575000D03*
X174350000Y-64275000D03*
%TD*%
%TO.C,JP3*%
X166550000Y-65575000D03*
X166550000Y-64275000D03*
%TD*%
%TO.C,JP11*%
X187350000Y-65575000D03*
X187350000Y-64275000D03*
%TD*%
D18*
%TO.C,J4*%
X161600000Y-89720000D03*
D19*
X161600000Y-92260000D03*
X161600000Y-94800000D03*
X161600000Y-97340000D03*
%TD*%
D17*
%TO.C,JP10*%
X184750000Y-65575000D03*
X184750000Y-64275000D03*
%TD*%
%TO.C,JP5*%
X171750000Y-65575000D03*
X171750000Y-64275000D03*
%TD*%
%TO.C,JP8*%
X179550000Y-65575000D03*
X179550000Y-64275000D03*
%TD*%
%TO.C,JP4*%
X169150000Y-65575000D03*
X169150000Y-64275000D03*
%TD*%
D18*
%TO.C,J3*%
X161600000Y-102200000D03*
D19*
X161600000Y-104740000D03*
X161600000Y-107280000D03*
X161600000Y-109820000D03*
%TD*%
%LPD*%
M02*
