%TF.GenerationSoftware,KiCad,Pcbnew,8.0.4*%
%TF.CreationDate,2024-08-28T18:13:50+02:00*%
%TF.ProjectId,Controller,436f6e74-726f-46c6-9c65-722e6b696361,v0*%
%TF.SameCoordinates,Original*%
%TF.FileFunction,Legend,Top*%
%TF.FilePolarity,Positive*%
%FSLAX46Y46*%
G04 Gerber Fmt 4.6, Leading zero omitted, Abs format (unit mm)*
G04 Created by KiCad (PCBNEW 8.0.4) date 2024-08-28 18:13:50*
%MOMM*%
%LPD*%
G01*
G04 APERTURE LIST*
G04 Aperture macros list*
%AMRoundRect*
0 Rectangle with rounded corners*
0 $1 Rounding radius*
0 $2 $3 $4 $5 $6 $7 $8 $9 X,Y pos of 4 corners*
0 Add a 4 corners polygon primitive as box body*
4,1,4,$2,$3,$4,$5,$6,$7,$8,$9,$2,$3,0*
0 Add four circle primitives for the rounded corners*
1,1,$1+$1,$2,$3*
1,1,$1+$1,$4,$5*
1,1,$1+$1,$6,$7*
1,1,$1+$1,$8,$9*
0 Add four rect primitives between the rounded corners*
20,1,$1+$1,$2,$3,$4,$5,0*
20,1,$1+$1,$4,$5,$6,$7,0*
20,1,$1+$1,$6,$7,$8,$9,0*
20,1,$1+$1,$8,$9,$2,$3,0*%
G04 Aperture macros list end*
%ADD10C,0.150000*%
%ADD11C,0.450000*%
%ADD12C,0.120000*%
%ADD13C,0.400000*%
%ADD14RoundRect,0.200000X-0.200000X-0.275000X0.200000X-0.275000X0.200000X0.275000X-0.200000X0.275000X0*%
%ADD15C,2.000000*%
%ADD16C,0.990600*%
%ADD17C,0.787400*%
%ADD18RoundRect,0.200000X-0.275000X0.200000X-0.275000X-0.200000X0.275000X-0.200000X0.275000X0.200000X0*%
%ADD19RoundRect,0.243750X0.456250X-0.243750X0.456250X0.243750X-0.456250X0.243750X-0.456250X-0.243750X0*%
%ADD20R,1.000000X0.750000*%
%ADD21RoundRect,0.225000X-0.225000X-0.250000X0.225000X-0.250000X0.225000X0.250000X-0.225000X0.250000X0*%
%ADD22RoundRect,0.225000X0.250000X-0.225000X0.250000X0.225000X-0.250000X0.225000X-0.250000X-0.225000X0*%
%ADD23R,2.000000X2.000000*%
%ADD24RoundRect,0.250000X0.312500X0.625000X-0.312500X0.625000X-0.312500X-0.625000X0.312500X-0.625000X0*%
%ADD25RoundRect,0.150000X-0.150000X0.825000X-0.150000X-0.825000X0.150000X-0.825000X0.150000X0.825000X0*%
%ADD26C,1.000000*%
%ADD27R,0.700000X1.600000*%
%ADD28R,1.200000X1.500000*%
%ADD29R,1.200000X2.200000*%
%ADD30R,1.600000X1.500000*%
%ADD31C,1.400000*%
%ADD32RoundRect,0.218750X0.256250X-0.218750X0.256250X0.218750X-0.256250X0.218750X-0.256250X-0.218750X0*%
%ADD33RoundRect,0.075000X0.075000X-0.700000X0.075000X0.700000X-0.075000X0.700000X-0.075000X-0.700000X0*%
%ADD34RoundRect,0.075000X0.700000X-0.075000X0.700000X0.075000X-0.700000X0.075000X-0.700000X-0.075000X0*%
%ADD35R,1.700000X1.700000*%
%ADD36O,1.700000X1.700000*%
G04 APERTURE END LIST*
D10*
X186760588Y-108917438D02*
X186665350Y-108869819D01*
X186665350Y-108869819D02*
X186522493Y-108869819D01*
X186522493Y-108869819D02*
X186379636Y-108917438D01*
X186379636Y-108917438D02*
X186284398Y-109012676D01*
X186284398Y-109012676D02*
X186236779Y-109107914D01*
X186236779Y-109107914D02*
X186189160Y-109298390D01*
X186189160Y-109298390D02*
X186189160Y-109441247D01*
X186189160Y-109441247D02*
X186236779Y-109631723D01*
X186236779Y-109631723D02*
X186284398Y-109726961D01*
X186284398Y-109726961D02*
X186379636Y-109822200D01*
X186379636Y-109822200D02*
X186522493Y-109869819D01*
X186522493Y-109869819D02*
X186617731Y-109869819D01*
X186617731Y-109869819D02*
X186760588Y-109822200D01*
X186760588Y-109822200D02*
X186808207Y-109774580D01*
X186808207Y-109774580D02*
X186808207Y-109441247D01*
X186808207Y-109441247D02*
X186617731Y-109441247D01*
X187236779Y-109869819D02*
X187236779Y-108869819D01*
X187236779Y-108869819D02*
X187808207Y-109869819D01*
X187808207Y-109869819D02*
X187808207Y-108869819D01*
X188284398Y-109869819D02*
X188284398Y-108869819D01*
X188284398Y-108869819D02*
X188522493Y-108869819D01*
X188522493Y-108869819D02*
X188665350Y-108917438D01*
X188665350Y-108917438D02*
X188760588Y-109012676D01*
X188760588Y-109012676D02*
X188808207Y-109107914D01*
X188808207Y-109107914D02*
X188855826Y-109298390D01*
X188855826Y-109298390D02*
X188855826Y-109441247D01*
X188855826Y-109441247D02*
X188808207Y-109631723D01*
X188808207Y-109631723D02*
X188760588Y-109726961D01*
X188760588Y-109726961D02*
X188665350Y-109822200D01*
X188665350Y-109822200D02*
X188522493Y-109869819D01*
X188522493Y-109869819D02*
X188284398Y-109869819D01*
X196341541Y-109169819D02*
X196960588Y-109169819D01*
X196960588Y-109169819D02*
X196627255Y-109550771D01*
X196627255Y-109550771D02*
X196770112Y-109550771D01*
X196770112Y-109550771D02*
X196865350Y-109598390D01*
X196865350Y-109598390D02*
X196912969Y-109646009D01*
X196912969Y-109646009D02*
X196960588Y-109741247D01*
X196960588Y-109741247D02*
X196960588Y-109979342D01*
X196960588Y-109979342D02*
X196912969Y-110074580D01*
X196912969Y-110074580D02*
X196865350Y-110122200D01*
X196865350Y-110122200D02*
X196770112Y-110169819D01*
X196770112Y-110169819D02*
X196484398Y-110169819D01*
X196484398Y-110169819D02*
X196389160Y-110122200D01*
X196389160Y-110122200D02*
X196341541Y-110074580D01*
X197246303Y-109169819D02*
X197579636Y-110169819D01*
X197579636Y-110169819D02*
X197912969Y-109169819D01*
X198151065Y-109169819D02*
X198770112Y-109169819D01*
X198770112Y-109169819D02*
X198436779Y-109550771D01*
X198436779Y-109550771D02*
X198579636Y-109550771D01*
X198579636Y-109550771D02*
X198674874Y-109598390D01*
X198674874Y-109598390D02*
X198722493Y-109646009D01*
X198722493Y-109646009D02*
X198770112Y-109741247D01*
X198770112Y-109741247D02*
X198770112Y-109979342D01*
X198770112Y-109979342D02*
X198722493Y-110074580D01*
X198722493Y-110074580D02*
X198674874Y-110122200D01*
X198674874Y-110122200D02*
X198579636Y-110169819D01*
X198579636Y-110169819D02*
X198293922Y-110169819D01*
X198293922Y-110169819D02*
X198198684Y-110122200D01*
X198198684Y-110122200D02*
X198151065Y-110074580D01*
D11*
X206609457Y-90789662D02*
X203609457Y-90789662D01*
X203609457Y-90789662D02*
X203609457Y-90075376D01*
X203609457Y-90075376D02*
X203752314Y-89646805D01*
X203752314Y-89646805D02*
X204038028Y-89361090D01*
X204038028Y-89361090D02*
X204323742Y-89218233D01*
X204323742Y-89218233D02*
X204895171Y-89075376D01*
X204895171Y-89075376D02*
X205323742Y-89075376D01*
X205323742Y-89075376D02*
X205895171Y-89218233D01*
X205895171Y-89218233D02*
X206180885Y-89361090D01*
X206180885Y-89361090D02*
X206466600Y-89646805D01*
X206466600Y-89646805D02*
X206609457Y-90075376D01*
X206609457Y-90075376D02*
X206609457Y-90789662D01*
X206466600Y-86646805D02*
X206609457Y-86932519D01*
X206609457Y-86932519D02*
X206609457Y-87503948D01*
X206609457Y-87503948D02*
X206466600Y-87789662D01*
X206466600Y-87789662D02*
X206180885Y-87932519D01*
X206180885Y-87932519D02*
X205038028Y-87932519D01*
X205038028Y-87932519D02*
X204752314Y-87789662D01*
X204752314Y-87789662D02*
X204609457Y-87503948D01*
X204609457Y-87503948D02*
X204609457Y-86932519D01*
X204609457Y-86932519D02*
X204752314Y-86646805D01*
X204752314Y-86646805D02*
X205038028Y-86503948D01*
X205038028Y-86503948D02*
X205323742Y-86503948D01*
X205323742Y-86503948D02*
X205609457Y-87932519D01*
X204609457Y-85218233D02*
X207609457Y-85218233D01*
X204752314Y-85218233D02*
X204609457Y-84932519D01*
X204609457Y-84932519D02*
X204609457Y-84361090D01*
X204609457Y-84361090D02*
X204752314Y-84075376D01*
X204752314Y-84075376D02*
X204895171Y-83932519D01*
X204895171Y-83932519D02*
X205180885Y-83789661D01*
X205180885Y-83789661D02*
X206038028Y-83789661D01*
X206038028Y-83789661D02*
X206323742Y-83932519D01*
X206323742Y-83932519D02*
X206466600Y-84075376D01*
X206466600Y-84075376D02*
X206609457Y-84361090D01*
X206609457Y-84361090D02*
X206609457Y-84932519D01*
X206609457Y-84932519D02*
X206466600Y-85218233D01*
X204609457Y-82932518D02*
X204609457Y-81789661D01*
X203609457Y-82503947D02*
X206180885Y-82503947D01*
X206180885Y-82503947D02*
X206466600Y-82361090D01*
X206466600Y-82361090D02*
X206609457Y-82075375D01*
X206609457Y-82075375D02*
X206609457Y-81789661D01*
X206609457Y-80789661D02*
X203609457Y-80789661D01*
X206609457Y-79503947D02*
X205038028Y-79503947D01*
X205038028Y-79503947D02*
X204752314Y-79646804D01*
X204752314Y-79646804D02*
X204609457Y-79932518D01*
X204609457Y-79932518D02*
X204609457Y-80361089D01*
X204609457Y-80361089D02*
X204752314Y-80646804D01*
X204752314Y-80646804D02*
X204895171Y-80789661D01*
X206266600Y-70732519D02*
X206409457Y-70303948D01*
X206409457Y-70303948D02*
X206409457Y-69589662D01*
X206409457Y-69589662D02*
X206266600Y-69303948D01*
X206266600Y-69303948D02*
X206123742Y-69161090D01*
X206123742Y-69161090D02*
X205838028Y-69018233D01*
X205838028Y-69018233D02*
X205552314Y-69018233D01*
X205552314Y-69018233D02*
X205266600Y-69161090D01*
X205266600Y-69161090D02*
X205123742Y-69303948D01*
X205123742Y-69303948D02*
X204980885Y-69589662D01*
X204980885Y-69589662D02*
X204838028Y-70161090D01*
X204838028Y-70161090D02*
X204695171Y-70446805D01*
X204695171Y-70446805D02*
X204552314Y-70589662D01*
X204552314Y-70589662D02*
X204266600Y-70732519D01*
X204266600Y-70732519D02*
X203980885Y-70732519D01*
X203980885Y-70732519D02*
X203695171Y-70589662D01*
X203695171Y-70589662D02*
X203552314Y-70446805D01*
X203552314Y-70446805D02*
X203409457Y-70161090D01*
X203409457Y-70161090D02*
X203409457Y-69446805D01*
X203409457Y-69446805D02*
X203552314Y-69018233D01*
X206409457Y-66446805D02*
X204838028Y-66446805D01*
X204838028Y-66446805D02*
X204552314Y-66589662D01*
X204552314Y-66589662D02*
X204409457Y-66875376D01*
X204409457Y-66875376D02*
X204409457Y-67446805D01*
X204409457Y-67446805D02*
X204552314Y-67732519D01*
X206266600Y-66446805D02*
X206409457Y-66732519D01*
X206409457Y-66732519D02*
X206409457Y-67446805D01*
X206409457Y-67446805D02*
X206266600Y-67732519D01*
X206266600Y-67732519D02*
X205980885Y-67875376D01*
X205980885Y-67875376D02*
X205695171Y-67875376D01*
X205695171Y-67875376D02*
X205409457Y-67732519D01*
X205409457Y-67732519D02*
X205266600Y-67446805D01*
X205266600Y-67446805D02*
X205266600Y-66732519D01*
X205266600Y-66732519D02*
X205123742Y-66446805D01*
X206409457Y-64589661D02*
X206266600Y-64875376D01*
X206266600Y-64875376D02*
X205980885Y-65018233D01*
X205980885Y-65018233D02*
X203409457Y-65018233D01*
X206409457Y-63446804D02*
X204409457Y-63446804D01*
X203409457Y-63446804D02*
X203552314Y-63589661D01*
X203552314Y-63589661D02*
X203695171Y-63446804D01*
X203695171Y-63446804D02*
X203552314Y-63303947D01*
X203552314Y-63303947D02*
X203409457Y-63446804D01*
X203409457Y-63446804D02*
X203695171Y-63446804D01*
X204409457Y-62018233D02*
X206409457Y-62018233D01*
X204695171Y-62018233D02*
X204552314Y-61875376D01*
X204552314Y-61875376D02*
X204409457Y-61589661D01*
X204409457Y-61589661D02*
X204409457Y-61161090D01*
X204409457Y-61161090D02*
X204552314Y-60875376D01*
X204552314Y-60875376D02*
X204838028Y-60732519D01*
X204838028Y-60732519D02*
X206409457Y-60732519D01*
X206409457Y-59303947D02*
X204409457Y-59303947D01*
X203409457Y-59303947D02*
X203552314Y-59446804D01*
X203552314Y-59446804D02*
X203695171Y-59303947D01*
X203695171Y-59303947D02*
X203552314Y-59161090D01*
X203552314Y-59161090D02*
X203409457Y-59303947D01*
X203409457Y-59303947D02*
X203695171Y-59303947D01*
X204409457Y-58303947D02*
X204409457Y-57161090D01*
X203409457Y-57875376D02*
X205980885Y-57875376D01*
X205980885Y-57875376D02*
X206266600Y-57732519D01*
X206266600Y-57732519D02*
X206409457Y-57446804D01*
X206409457Y-57446804D02*
X206409457Y-57161090D01*
X204409457Y-56446804D02*
X206409457Y-55732518D01*
X204409457Y-55018233D02*
X206409457Y-55732518D01*
X206409457Y-55732518D02*
X207123742Y-56018233D01*
X207123742Y-56018233D02*
X207266600Y-56161090D01*
X207266600Y-56161090D02*
X207409457Y-56446804D01*
D10*
X177054819Y-86766666D02*
X176578628Y-87099999D01*
X177054819Y-87338094D02*
X176054819Y-87338094D01*
X176054819Y-87338094D02*
X176054819Y-86957142D01*
X176054819Y-86957142D02*
X176102438Y-86861904D01*
X176102438Y-86861904D02*
X176150057Y-86814285D01*
X176150057Y-86814285D02*
X176245295Y-86766666D01*
X176245295Y-86766666D02*
X176388152Y-86766666D01*
X176388152Y-86766666D02*
X176483390Y-86814285D01*
X176483390Y-86814285D02*
X176531009Y-86861904D01*
X176531009Y-86861904D02*
X176578628Y-86957142D01*
X176578628Y-86957142D02*
X176578628Y-87338094D01*
X177054819Y-85814285D02*
X177054819Y-86385713D01*
X177054819Y-86099999D02*
X176054819Y-86099999D01*
X176054819Y-86099999D02*
X176197676Y-86195237D01*
X176197676Y-86195237D02*
X176292914Y-86290475D01*
X176292914Y-86290475D02*
X176340533Y-86385713D01*
X234204819Y-105221904D02*
X235014342Y-105221904D01*
X235014342Y-105221904D02*
X235109580Y-105174285D01*
X235109580Y-105174285D02*
X235157200Y-105126666D01*
X235157200Y-105126666D02*
X235204819Y-105031428D01*
X235204819Y-105031428D02*
X235204819Y-104840952D01*
X235204819Y-104840952D02*
X235157200Y-104745714D01*
X235157200Y-104745714D02*
X235109580Y-104698095D01*
X235109580Y-104698095D02*
X235014342Y-104650476D01*
X235014342Y-104650476D02*
X234204819Y-104650476D01*
X234204819Y-104269523D02*
X234204819Y-103602857D01*
X234204819Y-103602857D02*
X235204819Y-104031428D01*
X166719819Y-56333333D02*
X167434104Y-56333333D01*
X167434104Y-56333333D02*
X167576961Y-56380952D01*
X167576961Y-56380952D02*
X167672200Y-56476190D01*
X167672200Y-56476190D02*
X167719819Y-56619047D01*
X167719819Y-56619047D02*
X167719819Y-56714285D01*
X166719819Y-55380952D02*
X166719819Y-55857142D01*
X166719819Y-55857142D02*
X167196009Y-55904761D01*
X167196009Y-55904761D02*
X167148390Y-55857142D01*
X167148390Y-55857142D02*
X167100771Y-55761904D01*
X167100771Y-55761904D02*
X167100771Y-55523809D01*
X167100771Y-55523809D02*
X167148390Y-55428571D01*
X167148390Y-55428571D02*
X167196009Y-55380952D01*
X167196009Y-55380952D02*
X167291247Y-55333333D01*
X167291247Y-55333333D02*
X167529342Y-55333333D01*
X167529342Y-55333333D02*
X167624580Y-55380952D01*
X167624580Y-55380952D02*
X167672200Y-55428571D01*
X167672200Y-55428571D02*
X167719819Y-55523809D01*
X167719819Y-55523809D02*
X167719819Y-55761904D01*
X167719819Y-55761904D02*
X167672200Y-55857142D01*
X167672200Y-55857142D02*
X167624580Y-55904761D01*
X179004819Y-71441666D02*
X178528628Y-71774999D01*
X179004819Y-72013094D02*
X178004819Y-72013094D01*
X178004819Y-72013094D02*
X178004819Y-71632142D01*
X178004819Y-71632142D02*
X178052438Y-71536904D01*
X178052438Y-71536904D02*
X178100057Y-71489285D01*
X178100057Y-71489285D02*
X178195295Y-71441666D01*
X178195295Y-71441666D02*
X178338152Y-71441666D01*
X178338152Y-71441666D02*
X178433390Y-71489285D01*
X178433390Y-71489285D02*
X178481009Y-71536904D01*
X178481009Y-71536904D02*
X178528628Y-71632142D01*
X178528628Y-71632142D02*
X178528628Y-72013094D01*
X178004819Y-71108332D02*
X178004819Y-70489285D01*
X178004819Y-70489285D02*
X178385771Y-70822618D01*
X178385771Y-70822618D02*
X178385771Y-70679761D01*
X178385771Y-70679761D02*
X178433390Y-70584523D01*
X178433390Y-70584523D02*
X178481009Y-70536904D01*
X178481009Y-70536904D02*
X178576247Y-70489285D01*
X178576247Y-70489285D02*
X178814342Y-70489285D01*
X178814342Y-70489285D02*
X178909580Y-70536904D01*
X178909580Y-70536904D02*
X178957200Y-70584523D01*
X178957200Y-70584523D02*
X179004819Y-70679761D01*
X179004819Y-70679761D02*
X179004819Y-70965475D01*
X179004819Y-70965475D02*
X178957200Y-71060713D01*
X178957200Y-71060713D02*
X178909580Y-71108332D01*
X177404819Y-71441666D02*
X176928628Y-71774999D01*
X177404819Y-72013094D02*
X176404819Y-72013094D01*
X176404819Y-72013094D02*
X176404819Y-71632142D01*
X176404819Y-71632142D02*
X176452438Y-71536904D01*
X176452438Y-71536904D02*
X176500057Y-71489285D01*
X176500057Y-71489285D02*
X176595295Y-71441666D01*
X176595295Y-71441666D02*
X176738152Y-71441666D01*
X176738152Y-71441666D02*
X176833390Y-71489285D01*
X176833390Y-71489285D02*
X176881009Y-71536904D01*
X176881009Y-71536904D02*
X176928628Y-71632142D01*
X176928628Y-71632142D02*
X176928628Y-72013094D01*
X176738152Y-70584523D02*
X177404819Y-70584523D01*
X176357200Y-70822618D02*
X177071485Y-71060713D01*
X177071485Y-71060713D02*
X177071485Y-70441666D01*
X175804819Y-71441666D02*
X175328628Y-71774999D01*
X175804819Y-72013094D02*
X174804819Y-72013094D01*
X174804819Y-72013094D02*
X174804819Y-71632142D01*
X174804819Y-71632142D02*
X174852438Y-71536904D01*
X174852438Y-71536904D02*
X174900057Y-71489285D01*
X174900057Y-71489285D02*
X174995295Y-71441666D01*
X174995295Y-71441666D02*
X175138152Y-71441666D01*
X175138152Y-71441666D02*
X175233390Y-71489285D01*
X175233390Y-71489285D02*
X175281009Y-71536904D01*
X175281009Y-71536904D02*
X175328628Y-71632142D01*
X175328628Y-71632142D02*
X175328628Y-72013094D01*
X175233390Y-70870237D02*
X175185771Y-70965475D01*
X175185771Y-70965475D02*
X175138152Y-71013094D01*
X175138152Y-71013094D02*
X175042914Y-71060713D01*
X175042914Y-71060713D02*
X174995295Y-71060713D01*
X174995295Y-71060713D02*
X174900057Y-71013094D01*
X174900057Y-71013094D02*
X174852438Y-70965475D01*
X174852438Y-70965475D02*
X174804819Y-70870237D01*
X174804819Y-70870237D02*
X174804819Y-70679761D01*
X174804819Y-70679761D02*
X174852438Y-70584523D01*
X174852438Y-70584523D02*
X174900057Y-70536904D01*
X174900057Y-70536904D02*
X174995295Y-70489285D01*
X174995295Y-70489285D02*
X175042914Y-70489285D01*
X175042914Y-70489285D02*
X175138152Y-70536904D01*
X175138152Y-70536904D02*
X175185771Y-70584523D01*
X175185771Y-70584523D02*
X175233390Y-70679761D01*
X175233390Y-70679761D02*
X175233390Y-70870237D01*
X175233390Y-70870237D02*
X175281009Y-70965475D01*
X175281009Y-70965475D02*
X175328628Y-71013094D01*
X175328628Y-71013094D02*
X175423866Y-71060713D01*
X175423866Y-71060713D02*
X175614342Y-71060713D01*
X175614342Y-71060713D02*
X175709580Y-71013094D01*
X175709580Y-71013094D02*
X175757200Y-70965475D01*
X175757200Y-70965475D02*
X175804819Y-70870237D01*
X175804819Y-70870237D02*
X175804819Y-70679761D01*
X175804819Y-70679761D02*
X175757200Y-70584523D01*
X175757200Y-70584523D02*
X175709580Y-70536904D01*
X175709580Y-70536904D02*
X175614342Y-70489285D01*
X175614342Y-70489285D02*
X175423866Y-70489285D01*
X175423866Y-70489285D02*
X175328628Y-70536904D01*
X175328628Y-70536904D02*
X175281009Y-70584523D01*
X175281009Y-70584523D02*
X175233390Y-70679761D01*
X186054819Y-93338094D02*
X185054819Y-93338094D01*
X185054819Y-93338094D02*
X185054819Y-93099999D01*
X185054819Y-93099999D02*
X185102438Y-92957142D01*
X185102438Y-92957142D02*
X185197676Y-92861904D01*
X185197676Y-92861904D02*
X185292914Y-92814285D01*
X185292914Y-92814285D02*
X185483390Y-92766666D01*
X185483390Y-92766666D02*
X185626247Y-92766666D01*
X185626247Y-92766666D02*
X185816723Y-92814285D01*
X185816723Y-92814285D02*
X185911961Y-92861904D01*
X185911961Y-92861904D02*
X186007200Y-92957142D01*
X186007200Y-92957142D02*
X186054819Y-93099999D01*
X186054819Y-93099999D02*
X186054819Y-93338094D01*
X186054819Y-91814285D02*
X186054819Y-92385713D01*
X186054819Y-92099999D02*
X185054819Y-92099999D01*
X185054819Y-92099999D02*
X185197676Y-92195237D01*
X185197676Y-92195237D02*
X185292914Y-92290475D01*
X185292914Y-92290475D02*
X185340533Y-92385713D01*
X161807200Y-84733332D02*
X161854819Y-84590475D01*
X161854819Y-84590475D02*
X161854819Y-84352380D01*
X161854819Y-84352380D02*
X161807200Y-84257142D01*
X161807200Y-84257142D02*
X161759580Y-84209523D01*
X161759580Y-84209523D02*
X161664342Y-84161904D01*
X161664342Y-84161904D02*
X161569104Y-84161904D01*
X161569104Y-84161904D02*
X161473866Y-84209523D01*
X161473866Y-84209523D02*
X161426247Y-84257142D01*
X161426247Y-84257142D02*
X161378628Y-84352380D01*
X161378628Y-84352380D02*
X161331009Y-84542856D01*
X161331009Y-84542856D02*
X161283390Y-84638094D01*
X161283390Y-84638094D02*
X161235771Y-84685713D01*
X161235771Y-84685713D02*
X161140533Y-84733332D01*
X161140533Y-84733332D02*
X161045295Y-84733332D01*
X161045295Y-84733332D02*
X160950057Y-84685713D01*
X160950057Y-84685713D02*
X160902438Y-84638094D01*
X160902438Y-84638094D02*
X160854819Y-84542856D01*
X160854819Y-84542856D02*
X160854819Y-84304761D01*
X160854819Y-84304761D02*
X160902438Y-84161904D01*
X160854819Y-83828570D02*
X161854819Y-83590475D01*
X161854819Y-83590475D02*
X161140533Y-83399999D01*
X161140533Y-83399999D02*
X161854819Y-83209523D01*
X161854819Y-83209523D02*
X160854819Y-82971428D01*
X160950057Y-82638094D02*
X160902438Y-82590475D01*
X160902438Y-82590475D02*
X160854819Y-82495237D01*
X160854819Y-82495237D02*
X160854819Y-82257142D01*
X160854819Y-82257142D02*
X160902438Y-82161904D01*
X160902438Y-82161904D02*
X160950057Y-82114285D01*
X160950057Y-82114285D02*
X161045295Y-82066666D01*
X161045295Y-82066666D02*
X161140533Y-82066666D01*
X161140533Y-82066666D02*
X161283390Y-82114285D01*
X161283390Y-82114285D02*
X161854819Y-82685713D01*
X161854819Y-82685713D02*
X161854819Y-82066666D01*
X190033333Y-92559580D02*
X189985714Y-92607200D01*
X189985714Y-92607200D02*
X189842857Y-92654819D01*
X189842857Y-92654819D02*
X189747619Y-92654819D01*
X189747619Y-92654819D02*
X189604762Y-92607200D01*
X189604762Y-92607200D02*
X189509524Y-92511961D01*
X189509524Y-92511961D02*
X189461905Y-92416723D01*
X189461905Y-92416723D02*
X189414286Y-92226247D01*
X189414286Y-92226247D02*
X189414286Y-92083390D01*
X189414286Y-92083390D02*
X189461905Y-91892914D01*
X189461905Y-91892914D02*
X189509524Y-91797676D01*
X189509524Y-91797676D02*
X189604762Y-91702438D01*
X189604762Y-91702438D02*
X189747619Y-91654819D01*
X189747619Y-91654819D02*
X189842857Y-91654819D01*
X189842857Y-91654819D02*
X189985714Y-91702438D01*
X189985714Y-91702438D02*
X190033333Y-91750057D01*
X190890476Y-91654819D02*
X190700000Y-91654819D01*
X190700000Y-91654819D02*
X190604762Y-91702438D01*
X190604762Y-91702438D02*
X190557143Y-91750057D01*
X190557143Y-91750057D02*
X190461905Y-91892914D01*
X190461905Y-91892914D02*
X190414286Y-92083390D01*
X190414286Y-92083390D02*
X190414286Y-92464342D01*
X190414286Y-92464342D02*
X190461905Y-92559580D01*
X190461905Y-92559580D02*
X190509524Y-92607200D01*
X190509524Y-92607200D02*
X190604762Y-92654819D01*
X190604762Y-92654819D02*
X190795238Y-92654819D01*
X190795238Y-92654819D02*
X190890476Y-92607200D01*
X190890476Y-92607200D02*
X190938095Y-92559580D01*
X190938095Y-92559580D02*
X190985714Y-92464342D01*
X190985714Y-92464342D02*
X190985714Y-92226247D01*
X190985714Y-92226247D02*
X190938095Y-92131009D01*
X190938095Y-92131009D02*
X190890476Y-92083390D01*
X190890476Y-92083390D02*
X190795238Y-92035771D01*
X190795238Y-92035771D02*
X190604762Y-92035771D01*
X190604762Y-92035771D02*
X190509524Y-92083390D01*
X190509524Y-92083390D02*
X190461905Y-92131009D01*
X190461905Y-92131009D02*
X190414286Y-92226247D01*
X180159580Y-87966666D02*
X180207200Y-88014285D01*
X180207200Y-88014285D02*
X180254819Y-88157142D01*
X180254819Y-88157142D02*
X180254819Y-88252380D01*
X180254819Y-88252380D02*
X180207200Y-88395237D01*
X180207200Y-88395237D02*
X180111961Y-88490475D01*
X180111961Y-88490475D02*
X180016723Y-88538094D01*
X180016723Y-88538094D02*
X179826247Y-88585713D01*
X179826247Y-88585713D02*
X179683390Y-88585713D01*
X179683390Y-88585713D02*
X179492914Y-88538094D01*
X179492914Y-88538094D02*
X179397676Y-88490475D01*
X179397676Y-88490475D02*
X179302438Y-88395237D01*
X179302438Y-88395237D02*
X179254819Y-88252380D01*
X179254819Y-88252380D02*
X179254819Y-88157142D01*
X179254819Y-88157142D02*
X179302438Y-88014285D01*
X179302438Y-88014285D02*
X179350057Y-87966666D01*
X179588152Y-87109523D02*
X180254819Y-87109523D01*
X179207200Y-87347618D02*
X179921485Y-87585713D01*
X179921485Y-87585713D02*
X179921485Y-86966666D01*
X173404819Y-72317857D02*
X172928628Y-72651190D01*
X173404819Y-72889285D02*
X172404819Y-72889285D01*
X172404819Y-72889285D02*
X172404819Y-72508333D01*
X172404819Y-72508333D02*
X172452438Y-72413095D01*
X172452438Y-72413095D02*
X172500057Y-72365476D01*
X172500057Y-72365476D02*
X172595295Y-72317857D01*
X172595295Y-72317857D02*
X172738152Y-72317857D01*
X172738152Y-72317857D02*
X172833390Y-72365476D01*
X172833390Y-72365476D02*
X172881009Y-72413095D01*
X172881009Y-72413095D02*
X172928628Y-72508333D01*
X172928628Y-72508333D02*
X172928628Y-72889285D01*
X173404819Y-71365476D02*
X173404819Y-71936904D01*
X173404819Y-71651190D02*
X172404819Y-71651190D01*
X172404819Y-71651190D02*
X172547676Y-71746428D01*
X172547676Y-71746428D02*
X172642914Y-71841666D01*
X172642914Y-71841666D02*
X172690533Y-71936904D01*
X172404819Y-70746428D02*
X172404819Y-70651190D01*
X172404819Y-70651190D02*
X172452438Y-70555952D01*
X172452438Y-70555952D02*
X172500057Y-70508333D01*
X172500057Y-70508333D02*
X172595295Y-70460714D01*
X172595295Y-70460714D02*
X172785771Y-70413095D01*
X172785771Y-70413095D02*
X173023866Y-70413095D01*
X173023866Y-70413095D02*
X173214342Y-70460714D01*
X173214342Y-70460714D02*
X173309580Y-70508333D01*
X173309580Y-70508333D02*
X173357200Y-70555952D01*
X173357200Y-70555952D02*
X173404819Y-70651190D01*
X173404819Y-70651190D02*
X173404819Y-70746428D01*
X173404819Y-70746428D02*
X173357200Y-70841666D01*
X173357200Y-70841666D02*
X173309580Y-70889285D01*
X173309580Y-70889285D02*
X173214342Y-70936904D01*
X173214342Y-70936904D02*
X173023866Y-70984523D01*
X173023866Y-70984523D02*
X172785771Y-70984523D01*
X172785771Y-70984523D02*
X172595295Y-70936904D01*
X172595295Y-70936904D02*
X172500057Y-70889285D01*
X172500057Y-70889285D02*
X172452438Y-70841666D01*
X172452438Y-70841666D02*
X172404819Y-70746428D01*
X195159580Y-75766666D02*
X195207200Y-75814285D01*
X195207200Y-75814285D02*
X195254819Y-75957142D01*
X195254819Y-75957142D02*
X195254819Y-76052380D01*
X195254819Y-76052380D02*
X195207200Y-76195237D01*
X195207200Y-76195237D02*
X195111961Y-76290475D01*
X195111961Y-76290475D02*
X195016723Y-76338094D01*
X195016723Y-76338094D02*
X194826247Y-76385713D01*
X194826247Y-76385713D02*
X194683390Y-76385713D01*
X194683390Y-76385713D02*
X194492914Y-76338094D01*
X194492914Y-76338094D02*
X194397676Y-76290475D01*
X194397676Y-76290475D02*
X194302438Y-76195237D01*
X194302438Y-76195237D02*
X194254819Y-76052380D01*
X194254819Y-76052380D02*
X194254819Y-75957142D01*
X194254819Y-75957142D02*
X194302438Y-75814285D01*
X194302438Y-75814285D02*
X194350057Y-75766666D01*
X194350057Y-75385713D02*
X194302438Y-75338094D01*
X194302438Y-75338094D02*
X194254819Y-75242856D01*
X194254819Y-75242856D02*
X194254819Y-75004761D01*
X194254819Y-75004761D02*
X194302438Y-74909523D01*
X194302438Y-74909523D02*
X194350057Y-74861904D01*
X194350057Y-74861904D02*
X194445295Y-74814285D01*
X194445295Y-74814285D02*
X194540533Y-74814285D01*
X194540533Y-74814285D02*
X194683390Y-74861904D01*
X194683390Y-74861904D02*
X195254819Y-75433332D01*
X195254819Y-75433332D02*
X195254819Y-74814285D01*
X194157142Y-57654819D02*
X193823809Y-57178628D01*
X193585714Y-57654819D02*
X193585714Y-56654819D01*
X193585714Y-56654819D02*
X193966666Y-56654819D01*
X193966666Y-56654819D02*
X194061904Y-56702438D01*
X194061904Y-56702438D02*
X194109523Y-56750057D01*
X194109523Y-56750057D02*
X194157142Y-56845295D01*
X194157142Y-56845295D02*
X194157142Y-56988152D01*
X194157142Y-56988152D02*
X194109523Y-57083390D01*
X194109523Y-57083390D02*
X194061904Y-57131009D01*
X194061904Y-57131009D02*
X193966666Y-57178628D01*
X193966666Y-57178628D02*
X193585714Y-57178628D01*
X195109523Y-57654819D02*
X194538095Y-57654819D01*
X194823809Y-57654819D02*
X194823809Y-56654819D01*
X194823809Y-56654819D02*
X194728571Y-56797676D01*
X194728571Y-56797676D02*
X194633333Y-56892914D01*
X194633333Y-56892914D02*
X194538095Y-56940533D01*
X195966666Y-56654819D02*
X195776190Y-56654819D01*
X195776190Y-56654819D02*
X195680952Y-56702438D01*
X195680952Y-56702438D02*
X195633333Y-56750057D01*
X195633333Y-56750057D02*
X195538095Y-56892914D01*
X195538095Y-56892914D02*
X195490476Y-57083390D01*
X195490476Y-57083390D02*
X195490476Y-57464342D01*
X195490476Y-57464342D02*
X195538095Y-57559580D01*
X195538095Y-57559580D02*
X195585714Y-57607200D01*
X195585714Y-57607200D02*
X195680952Y-57654819D01*
X195680952Y-57654819D02*
X195871428Y-57654819D01*
X195871428Y-57654819D02*
X195966666Y-57607200D01*
X195966666Y-57607200D02*
X196014285Y-57559580D01*
X196014285Y-57559580D02*
X196061904Y-57464342D01*
X196061904Y-57464342D02*
X196061904Y-57226247D01*
X196061904Y-57226247D02*
X196014285Y-57131009D01*
X196014285Y-57131009D02*
X195966666Y-57083390D01*
X195966666Y-57083390D02*
X195871428Y-57035771D01*
X195871428Y-57035771D02*
X195680952Y-57035771D01*
X195680952Y-57035771D02*
X195585714Y-57083390D01*
X195585714Y-57083390D02*
X195538095Y-57131009D01*
X195538095Y-57131009D02*
X195490476Y-57226247D01*
X221394819Y-105221904D02*
X222204342Y-105221904D01*
X222204342Y-105221904D02*
X222299580Y-105174285D01*
X222299580Y-105174285D02*
X222347200Y-105126666D01*
X222347200Y-105126666D02*
X222394819Y-105031428D01*
X222394819Y-105031428D02*
X222394819Y-104840952D01*
X222394819Y-104840952D02*
X222347200Y-104745714D01*
X222347200Y-104745714D02*
X222299580Y-104698095D01*
X222299580Y-104698095D02*
X222204342Y-104650476D01*
X222204342Y-104650476D02*
X221394819Y-104650476D01*
X221394819Y-103745714D02*
X221394819Y-103936190D01*
X221394819Y-103936190D02*
X221442438Y-104031428D01*
X221442438Y-104031428D02*
X221490057Y-104079047D01*
X221490057Y-104079047D02*
X221632914Y-104174285D01*
X221632914Y-104174285D02*
X221823390Y-104221904D01*
X221823390Y-104221904D02*
X222204342Y-104221904D01*
X222204342Y-104221904D02*
X222299580Y-104174285D01*
X222299580Y-104174285D02*
X222347200Y-104126666D01*
X222347200Y-104126666D02*
X222394819Y-104031428D01*
X222394819Y-104031428D02*
X222394819Y-103840952D01*
X222394819Y-103840952D02*
X222347200Y-103745714D01*
X222347200Y-103745714D02*
X222299580Y-103698095D01*
X222299580Y-103698095D02*
X222204342Y-103650476D01*
X222204342Y-103650476D02*
X221966247Y-103650476D01*
X221966247Y-103650476D02*
X221871009Y-103698095D01*
X221871009Y-103698095D02*
X221823390Y-103745714D01*
X221823390Y-103745714D02*
X221775771Y-103840952D01*
X221775771Y-103840952D02*
X221775771Y-104031428D01*
X221775771Y-104031428D02*
X221823390Y-104126666D01*
X221823390Y-104126666D02*
X221871009Y-104174285D01*
X221871009Y-104174285D02*
X221966247Y-104221904D01*
X171254819Y-108642857D02*
X170778628Y-108976190D01*
X171254819Y-109214285D02*
X170254819Y-109214285D01*
X170254819Y-109214285D02*
X170254819Y-108833333D01*
X170254819Y-108833333D02*
X170302438Y-108738095D01*
X170302438Y-108738095D02*
X170350057Y-108690476D01*
X170350057Y-108690476D02*
X170445295Y-108642857D01*
X170445295Y-108642857D02*
X170588152Y-108642857D01*
X170588152Y-108642857D02*
X170683390Y-108690476D01*
X170683390Y-108690476D02*
X170731009Y-108738095D01*
X170731009Y-108738095D02*
X170778628Y-108833333D01*
X170778628Y-108833333D02*
X170778628Y-109214285D01*
X171254819Y-107690476D02*
X171254819Y-108261904D01*
X171254819Y-107976190D02*
X170254819Y-107976190D01*
X170254819Y-107976190D02*
X170397676Y-108071428D01*
X170397676Y-108071428D02*
X170492914Y-108166666D01*
X170492914Y-108166666D02*
X170540533Y-108261904D01*
X170254819Y-107357142D02*
X170254819Y-106738095D01*
X170254819Y-106738095D02*
X170635771Y-107071428D01*
X170635771Y-107071428D02*
X170635771Y-106928571D01*
X170635771Y-106928571D02*
X170683390Y-106833333D01*
X170683390Y-106833333D02*
X170731009Y-106785714D01*
X170731009Y-106785714D02*
X170826247Y-106738095D01*
X170826247Y-106738095D02*
X171064342Y-106738095D01*
X171064342Y-106738095D02*
X171159580Y-106785714D01*
X171159580Y-106785714D02*
X171207200Y-106833333D01*
X171207200Y-106833333D02*
X171254819Y-106928571D01*
X171254819Y-106928571D02*
X171254819Y-107214285D01*
X171254819Y-107214285D02*
X171207200Y-107309523D01*
X171207200Y-107309523D02*
X171159580Y-107357142D01*
X195157142Y-88964819D02*
X194823809Y-88488628D01*
X194585714Y-88964819D02*
X194585714Y-87964819D01*
X194585714Y-87964819D02*
X194966666Y-87964819D01*
X194966666Y-87964819D02*
X195061904Y-88012438D01*
X195061904Y-88012438D02*
X195109523Y-88060057D01*
X195109523Y-88060057D02*
X195157142Y-88155295D01*
X195157142Y-88155295D02*
X195157142Y-88298152D01*
X195157142Y-88298152D02*
X195109523Y-88393390D01*
X195109523Y-88393390D02*
X195061904Y-88441009D01*
X195061904Y-88441009D02*
X194966666Y-88488628D01*
X194966666Y-88488628D02*
X194585714Y-88488628D01*
X196109523Y-88964819D02*
X195538095Y-88964819D01*
X195823809Y-88964819D02*
X195823809Y-87964819D01*
X195823809Y-87964819D02*
X195728571Y-88107676D01*
X195728571Y-88107676D02*
X195633333Y-88202914D01*
X195633333Y-88202914D02*
X195538095Y-88250533D01*
X196680952Y-88393390D02*
X196585714Y-88345771D01*
X196585714Y-88345771D02*
X196538095Y-88298152D01*
X196538095Y-88298152D02*
X196490476Y-88202914D01*
X196490476Y-88202914D02*
X196490476Y-88155295D01*
X196490476Y-88155295D02*
X196538095Y-88060057D01*
X196538095Y-88060057D02*
X196585714Y-88012438D01*
X196585714Y-88012438D02*
X196680952Y-87964819D01*
X196680952Y-87964819D02*
X196871428Y-87964819D01*
X196871428Y-87964819D02*
X196966666Y-88012438D01*
X196966666Y-88012438D02*
X197014285Y-88060057D01*
X197014285Y-88060057D02*
X197061904Y-88155295D01*
X197061904Y-88155295D02*
X197061904Y-88202914D01*
X197061904Y-88202914D02*
X197014285Y-88298152D01*
X197014285Y-88298152D02*
X196966666Y-88345771D01*
X196966666Y-88345771D02*
X196871428Y-88393390D01*
X196871428Y-88393390D02*
X196680952Y-88393390D01*
X196680952Y-88393390D02*
X196585714Y-88441009D01*
X196585714Y-88441009D02*
X196538095Y-88488628D01*
X196538095Y-88488628D02*
X196490476Y-88583866D01*
X196490476Y-88583866D02*
X196490476Y-88774342D01*
X196490476Y-88774342D02*
X196538095Y-88869580D01*
X196538095Y-88869580D02*
X196585714Y-88917200D01*
X196585714Y-88917200D02*
X196680952Y-88964819D01*
X196680952Y-88964819D02*
X196871428Y-88964819D01*
X196871428Y-88964819D02*
X196966666Y-88917200D01*
X196966666Y-88917200D02*
X197014285Y-88869580D01*
X197014285Y-88869580D02*
X197061904Y-88774342D01*
X197061904Y-88774342D02*
X197061904Y-88583866D01*
X197061904Y-88583866D02*
X197014285Y-88488628D01*
X197014285Y-88488628D02*
X196966666Y-88441009D01*
X196966666Y-88441009D02*
X196871428Y-88393390D01*
X194957142Y-85654819D02*
X194623809Y-85178628D01*
X194385714Y-85654819D02*
X194385714Y-84654819D01*
X194385714Y-84654819D02*
X194766666Y-84654819D01*
X194766666Y-84654819D02*
X194861904Y-84702438D01*
X194861904Y-84702438D02*
X194909523Y-84750057D01*
X194909523Y-84750057D02*
X194957142Y-84845295D01*
X194957142Y-84845295D02*
X194957142Y-84988152D01*
X194957142Y-84988152D02*
X194909523Y-85083390D01*
X194909523Y-85083390D02*
X194861904Y-85131009D01*
X194861904Y-85131009D02*
X194766666Y-85178628D01*
X194766666Y-85178628D02*
X194385714Y-85178628D01*
X195909523Y-85654819D02*
X195338095Y-85654819D01*
X195623809Y-85654819D02*
X195623809Y-84654819D01*
X195623809Y-84654819D02*
X195528571Y-84797676D01*
X195528571Y-84797676D02*
X195433333Y-84892914D01*
X195433333Y-84892914D02*
X195338095Y-84940533D01*
X196385714Y-85654819D02*
X196576190Y-85654819D01*
X196576190Y-85654819D02*
X196671428Y-85607200D01*
X196671428Y-85607200D02*
X196719047Y-85559580D01*
X196719047Y-85559580D02*
X196814285Y-85416723D01*
X196814285Y-85416723D02*
X196861904Y-85226247D01*
X196861904Y-85226247D02*
X196861904Y-84845295D01*
X196861904Y-84845295D02*
X196814285Y-84750057D01*
X196814285Y-84750057D02*
X196766666Y-84702438D01*
X196766666Y-84702438D02*
X196671428Y-84654819D01*
X196671428Y-84654819D02*
X196480952Y-84654819D01*
X196480952Y-84654819D02*
X196385714Y-84702438D01*
X196385714Y-84702438D02*
X196338095Y-84750057D01*
X196338095Y-84750057D02*
X196290476Y-84845295D01*
X196290476Y-84845295D02*
X196290476Y-85083390D01*
X196290476Y-85083390D02*
X196338095Y-85178628D01*
X196338095Y-85178628D02*
X196385714Y-85226247D01*
X196385714Y-85226247D02*
X196480952Y-85273866D01*
X196480952Y-85273866D02*
X196671428Y-85273866D01*
X196671428Y-85273866D02*
X196766666Y-85226247D01*
X196766666Y-85226247D02*
X196814285Y-85178628D01*
X196814285Y-85178628D02*
X196861904Y-85083390D01*
X180854819Y-94966666D02*
X180378628Y-95299999D01*
X180854819Y-95538094D02*
X179854819Y-95538094D01*
X179854819Y-95538094D02*
X179854819Y-95157142D01*
X179854819Y-95157142D02*
X179902438Y-95061904D01*
X179902438Y-95061904D02*
X179950057Y-95014285D01*
X179950057Y-95014285D02*
X180045295Y-94966666D01*
X180045295Y-94966666D02*
X180188152Y-94966666D01*
X180188152Y-94966666D02*
X180283390Y-95014285D01*
X180283390Y-95014285D02*
X180331009Y-95061904D01*
X180331009Y-95061904D02*
X180378628Y-95157142D01*
X180378628Y-95157142D02*
X180378628Y-95538094D01*
X180854819Y-94490475D02*
X180854819Y-94299999D01*
X180854819Y-94299999D02*
X180807200Y-94204761D01*
X180807200Y-94204761D02*
X180759580Y-94157142D01*
X180759580Y-94157142D02*
X180616723Y-94061904D01*
X180616723Y-94061904D02*
X180426247Y-94014285D01*
X180426247Y-94014285D02*
X180045295Y-94014285D01*
X180045295Y-94014285D02*
X179950057Y-94061904D01*
X179950057Y-94061904D02*
X179902438Y-94109523D01*
X179902438Y-94109523D02*
X179854819Y-94204761D01*
X179854819Y-94204761D02*
X179854819Y-94395237D01*
X179854819Y-94395237D02*
X179902438Y-94490475D01*
X179902438Y-94490475D02*
X179950057Y-94538094D01*
X179950057Y-94538094D02*
X180045295Y-94585713D01*
X180045295Y-94585713D02*
X180283390Y-94585713D01*
X180283390Y-94585713D02*
X180378628Y-94538094D01*
X180378628Y-94538094D02*
X180426247Y-94490475D01*
X180426247Y-94490475D02*
X180473866Y-94395237D01*
X180473866Y-94395237D02*
X180473866Y-94204761D01*
X180473866Y-94204761D02*
X180426247Y-94109523D01*
X180426247Y-94109523D02*
X180378628Y-94061904D01*
X180378628Y-94061904D02*
X180283390Y-94014285D01*
X170454819Y-102961904D02*
X171264342Y-102961904D01*
X171264342Y-102961904D02*
X171359580Y-102914285D01*
X171359580Y-102914285D02*
X171407200Y-102866666D01*
X171407200Y-102866666D02*
X171454819Y-102771428D01*
X171454819Y-102771428D02*
X171454819Y-102580952D01*
X171454819Y-102580952D02*
X171407200Y-102485714D01*
X171407200Y-102485714D02*
X171359580Y-102438095D01*
X171359580Y-102438095D02*
X171264342Y-102390476D01*
X171264342Y-102390476D02*
X170454819Y-102390476D01*
X170883390Y-101771428D02*
X170835771Y-101866666D01*
X170835771Y-101866666D02*
X170788152Y-101914285D01*
X170788152Y-101914285D02*
X170692914Y-101961904D01*
X170692914Y-101961904D02*
X170645295Y-101961904D01*
X170645295Y-101961904D02*
X170550057Y-101914285D01*
X170550057Y-101914285D02*
X170502438Y-101866666D01*
X170502438Y-101866666D02*
X170454819Y-101771428D01*
X170454819Y-101771428D02*
X170454819Y-101580952D01*
X170454819Y-101580952D02*
X170502438Y-101485714D01*
X170502438Y-101485714D02*
X170550057Y-101438095D01*
X170550057Y-101438095D02*
X170645295Y-101390476D01*
X170645295Y-101390476D02*
X170692914Y-101390476D01*
X170692914Y-101390476D02*
X170788152Y-101438095D01*
X170788152Y-101438095D02*
X170835771Y-101485714D01*
X170835771Y-101485714D02*
X170883390Y-101580952D01*
X170883390Y-101580952D02*
X170883390Y-101771428D01*
X170883390Y-101771428D02*
X170931009Y-101866666D01*
X170931009Y-101866666D02*
X170978628Y-101914285D01*
X170978628Y-101914285D02*
X171073866Y-101961904D01*
X171073866Y-101961904D02*
X171264342Y-101961904D01*
X171264342Y-101961904D02*
X171359580Y-101914285D01*
X171359580Y-101914285D02*
X171407200Y-101866666D01*
X171407200Y-101866666D02*
X171454819Y-101771428D01*
X171454819Y-101771428D02*
X171454819Y-101580952D01*
X171454819Y-101580952D02*
X171407200Y-101485714D01*
X171407200Y-101485714D02*
X171359580Y-101438095D01*
X171359580Y-101438095D02*
X171264342Y-101390476D01*
X171264342Y-101390476D02*
X171073866Y-101390476D01*
X171073866Y-101390476D02*
X170978628Y-101438095D01*
X170978628Y-101438095D02*
X170931009Y-101485714D01*
X170931009Y-101485714D02*
X170883390Y-101580952D01*
X185684819Y-94966666D02*
X185208628Y-95299999D01*
X185684819Y-95538094D02*
X184684819Y-95538094D01*
X184684819Y-95538094D02*
X184684819Y-95157142D01*
X184684819Y-95157142D02*
X184732438Y-95061904D01*
X184732438Y-95061904D02*
X184780057Y-95014285D01*
X184780057Y-95014285D02*
X184875295Y-94966666D01*
X184875295Y-94966666D02*
X185018152Y-94966666D01*
X185018152Y-94966666D02*
X185113390Y-95014285D01*
X185113390Y-95014285D02*
X185161009Y-95061904D01*
X185161009Y-95061904D02*
X185208628Y-95157142D01*
X185208628Y-95157142D02*
X185208628Y-95538094D01*
X184684819Y-94061904D02*
X184684819Y-94538094D01*
X184684819Y-94538094D02*
X185161009Y-94585713D01*
X185161009Y-94585713D02*
X185113390Y-94538094D01*
X185113390Y-94538094D02*
X185065771Y-94442856D01*
X185065771Y-94442856D02*
X185065771Y-94204761D01*
X185065771Y-94204761D02*
X185113390Y-94109523D01*
X185113390Y-94109523D02*
X185161009Y-94061904D01*
X185161009Y-94061904D02*
X185256247Y-94014285D01*
X185256247Y-94014285D02*
X185494342Y-94014285D01*
X185494342Y-94014285D02*
X185589580Y-94061904D01*
X185589580Y-94061904D02*
X185637200Y-94109523D01*
X185637200Y-94109523D02*
X185684819Y-94204761D01*
X185684819Y-94204761D02*
X185684819Y-94442856D01*
X185684819Y-94442856D02*
X185637200Y-94538094D01*
X185637200Y-94538094D02*
X185589580Y-94585713D01*
X194957142Y-82144819D02*
X194623809Y-81668628D01*
X194385714Y-82144819D02*
X194385714Y-81144819D01*
X194385714Y-81144819D02*
X194766666Y-81144819D01*
X194766666Y-81144819D02*
X194861904Y-81192438D01*
X194861904Y-81192438D02*
X194909523Y-81240057D01*
X194909523Y-81240057D02*
X194957142Y-81335295D01*
X194957142Y-81335295D02*
X194957142Y-81478152D01*
X194957142Y-81478152D02*
X194909523Y-81573390D01*
X194909523Y-81573390D02*
X194861904Y-81621009D01*
X194861904Y-81621009D02*
X194766666Y-81668628D01*
X194766666Y-81668628D02*
X194385714Y-81668628D01*
X195338095Y-81240057D02*
X195385714Y-81192438D01*
X195385714Y-81192438D02*
X195480952Y-81144819D01*
X195480952Y-81144819D02*
X195719047Y-81144819D01*
X195719047Y-81144819D02*
X195814285Y-81192438D01*
X195814285Y-81192438D02*
X195861904Y-81240057D01*
X195861904Y-81240057D02*
X195909523Y-81335295D01*
X195909523Y-81335295D02*
X195909523Y-81430533D01*
X195909523Y-81430533D02*
X195861904Y-81573390D01*
X195861904Y-81573390D02*
X195290476Y-82144819D01*
X195290476Y-82144819D02*
X195909523Y-82144819D01*
X196528571Y-81144819D02*
X196623809Y-81144819D01*
X196623809Y-81144819D02*
X196719047Y-81192438D01*
X196719047Y-81192438D02*
X196766666Y-81240057D01*
X196766666Y-81240057D02*
X196814285Y-81335295D01*
X196814285Y-81335295D02*
X196861904Y-81525771D01*
X196861904Y-81525771D02*
X196861904Y-81763866D01*
X196861904Y-81763866D02*
X196814285Y-81954342D01*
X196814285Y-81954342D02*
X196766666Y-82049580D01*
X196766666Y-82049580D02*
X196719047Y-82097200D01*
X196719047Y-82097200D02*
X196623809Y-82144819D01*
X196623809Y-82144819D02*
X196528571Y-82144819D01*
X196528571Y-82144819D02*
X196433333Y-82097200D01*
X196433333Y-82097200D02*
X196385714Y-82049580D01*
X196385714Y-82049580D02*
X196338095Y-81954342D01*
X196338095Y-81954342D02*
X196290476Y-81763866D01*
X196290476Y-81763866D02*
X196290476Y-81525771D01*
X196290476Y-81525771D02*
X196338095Y-81335295D01*
X196338095Y-81335295D02*
X196385714Y-81240057D01*
X196385714Y-81240057D02*
X196433333Y-81192438D01*
X196433333Y-81192438D02*
X196528571Y-81144819D01*
X193659580Y-75766666D02*
X193707200Y-75814285D01*
X193707200Y-75814285D02*
X193754819Y-75957142D01*
X193754819Y-75957142D02*
X193754819Y-76052380D01*
X193754819Y-76052380D02*
X193707200Y-76195237D01*
X193707200Y-76195237D02*
X193611961Y-76290475D01*
X193611961Y-76290475D02*
X193516723Y-76338094D01*
X193516723Y-76338094D02*
X193326247Y-76385713D01*
X193326247Y-76385713D02*
X193183390Y-76385713D01*
X193183390Y-76385713D02*
X192992914Y-76338094D01*
X192992914Y-76338094D02*
X192897676Y-76290475D01*
X192897676Y-76290475D02*
X192802438Y-76195237D01*
X192802438Y-76195237D02*
X192754819Y-76052380D01*
X192754819Y-76052380D02*
X192754819Y-75957142D01*
X192754819Y-75957142D02*
X192802438Y-75814285D01*
X192802438Y-75814285D02*
X192850057Y-75766666D01*
X193754819Y-74814285D02*
X193754819Y-75385713D01*
X193754819Y-75099999D02*
X192754819Y-75099999D01*
X192754819Y-75099999D02*
X192897676Y-75195237D01*
X192897676Y-75195237D02*
X192992914Y-75290475D01*
X192992914Y-75290475D02*
X193040533Y-75385713D01*
X161807200Y-79333332D02*
X161854819Y-79190475D01*
X161854819Y-79190475D02*
X161854819Y-78952380D01*
X161854819Y-78952380D02*
X161807200Y-78857142D01*
X161807200Y-78857142D02*
X161759580Y-78809523D01*
X161759580Y-78809523D02*
X161664342Y-78761904D01*
X161664342Y-78761904D02*
X161569104Y-78761904D01*
X161569104Y-78761904D02*
X161473866Y-78809523D01*
X161473866Y-78809523D02*
X161426247Y-78857142D01*
X161426247Y-78857142D02*
X161378628Y-78952380D01*
X161378628Y-78952380D02*
X161331009Y-79142856D01*
X161331009Y-79142856D02*
X161283390Y-79238094D01*
X161283390Y-79238094D02*
X161235771Y-79285713D01*
X161235771Y-79285713D02*
X161140533Y-79333332D01*
X161140533Y-79333332D02*
X161045295Y-79333332D01*
X161045295Y-79333332D02*
X160950057Y-79285713D01*
X160950057Y-79285713D02*
X160902438Y-79238094D01*
X160902438Y-79238094D02*
X160854819Y-79142856D01*
X160854819Y-79142856D02*
X160854819Y-78904761D01*
X160854819Y-78904761D02*
X160902438Y-78761904D01*
X160854819Y-78428570D02*
X161854819Y-78190475D01*
X161854819Y-78190475D02*
X161140533Y-77999999D01*
X161140533Y-77999999D02*
X161854819Y-77809523D01*
X161854819Y-77809523D02*
X160854819Y-77571428D01*
X161854819Y-76666666D02*
X161854819Y-77238094D01*
X161854819Y-76952380D02*
X160854819Y-76952380D01*
X160854819Y-76952380D02*
X160997676Y-77047618D01*
X160997676Y-77047618D02*
X161092914Y-77142856D01*
X161092914Y-77142856D02*
X161140533Y-77238094D01*
X170204819Y-72317857D02*
X169728628Y-72651190D01*
X170204819Y-72889285D02*
X169204819Y-72889285D01*
X169204819Y-72889285D02*
X169204819Y-72508333D01*
X169204819Y-72508333D02*
X169252438Y-72413095D01*
X169252438Y-72413095D02*
X169300057Y-72365476D01*
X169300057Y-72365476D02*
X169395295Y-72317857D01*
X169395295Y-72317857D02*
X169538152Y-72317857D01*
X169538152Y-72317857D02*
X169633390Y-72365476D01*
X169633390Y-72365476D02*
X169681009Y-72413095D01*
X169681009Y-72413095D02*
X169728628Y-72508333D01*
X169728628Y-72508333D02*
X169728628Y-72889285D01*
X170204819Y-71365476D02*
X170204819Y-71936904D01*
X170204819Y-71651190D02*
X169204819Y-71651190D01*
X169204819Y-71651190D02*
X169347676Y-71746428D01*
X169347676Y-71746428D02*
X169442914Y-71841666D01*
X169442914Y-71841666D02*
X169490533Y-71936904D01*
X169300057Y-70984523D02*
X169252438Y-70936904D01*
X169252438Y-70936904D02*
X169204819Y-70841666D01*
X169204819Y-70841666D02*
X169204819Y-70603571D01*
X169204819Y-70603571D02*
X169252438Y-70508333D01*
X169252438Y-70508333D02*
X169300057Y-70460714D01*
X169300057Y-70460714D02*
X169395295Y-70413095D01*
X169395295Y-70413095D02*
X169490533Y-70413095D01*
X169490533Y-70413095D02*
X169633390Y-70460714D01*
X169633390Y-70460714D02*
X170204819Y-71032142D01*
X170204819Y-71032142D02*
X170204819Y-70413095D01*
X194157142Y-61054819D02*
X193823809Y-60578628D01*
X193585714Y-61054819D02*
X193585714Y-60054819D01*
X193585714Y-60054819D02*
X193966666Y-60054819D01*
X193966666Y-60054819D02*
X194061904Y-60102438D01*
X194061904Y-60102438D02*
X194109523Y-60150057D01*
X194109523Y-60150057D02*
X194157142Y-60245295D01*
X194157142Y-60245295D02*
X194157142Y-60388152D01*
X194157142Y-60388152D02*
X194109523Y-60483390D01*
X194109523Y-60483390D02*
X194061904Y-60531009D01*
X194061904Y-60531009D02*
X193966666Y-60578628D01*
X193966666Y-60578628D02*
X193585714Y-60578628D01*
X195109523Y-61054819D02*
X194538095Y-61054819D01*
X194823809Y-61054819D02*
X194823809Y-60054819D01*
X194823809Y-60054819D02*
X194728571Y-60197676D01*
X194728571Y-60197676D02*
X194633333Y-60292914D01*
X194633333Y-60292914D02*
X194538095Y-60340533D01*
X196014285Y-60054819D02*
X195538095Y-60054819D01*
X195538095Y-60054819D02*
X195490476Y-60531009D01*
X195490476Y-60531009D02*
X195538095Y-60483390D01*
X195538095Y-60483390D02*
X195633333Y-60435771D01*
X195633333Y-60435771D02*
X195871428Y-60435771D01*
X195871428Y-60435771D02*
X195966666Y-60483390D01*
X195966666Y-60483390D02*
X196014285Y-60531009D01*
X196014285Y-60531009D02*
X196061904Y-60626247D01*
X196061904Y-60626247D02*
X196061904Y-60864342D01*
X196061904Y-60864342D02*
X196014285Y-60959580D01*
X196014285Y-60959580D02*
X195966666Y-61007200D01*
X195966666Y-61007200D02*
X195871428Y-61054819D01*
X195871428Y-61054819D02*
X195633333Y-61054819D01*
X195633333Y-61054819D02*
X195538095Y-61007200D01*
X195538095Y-61007200D02*
X195490476Y-60959580D01*
X226888095Y-73474819D02*
X226888095Y-74284342D01*
X226888095Y-74284342D02*
X226935714Y-74379580D01*
X226935714Y-74379580D02*
X226983333Y-74427200D01*
X226983333Y-74427200D02*
X227078571Y-74474819D01*
X227078571Y-74474819D02*
X227269047Y-74474819D01*
X227269047Y-74474819D02*
X227364285Y-74427200D01*
X227364285Y-74427200D02*
X227411904Y-74379580D01*
X227411904Y-74379580D02*
X227459523Y-74284342D01*
X227459523Y-74284342D02*
X227459523Y-73474819D01*
X228364285Y-73808152D02*
X228364285Y-74474819D01*
X228126190Y-73427200D02*
X227888095Y-74141485D01*
X227888095Y-74141485D02*
X228507142Y-74141485D01*
X194157142Y-54454819D02*
X193823809Y-53978628D01*
X193585714Y-54454819D02*
X193585714Y-53454819D01*
X193585714Y-53454819D02*
X193966666Y-53454819D01*
X193966666Y-53454819D02*
X194061904Y-53502438D01*
X194061904Y-53502438D02*
X194109523Y-53550057D01*
X194109523Y-53550057D02*
X194157142Y-53645295D01*
X194157142Y-53645295D02*
X194157142Y-53788152D01*
X194157142Y-53788152D02*
X194109523Y-53883390D01*
X194109523Y-53883390D02*
X194061904Y-53931009D01*
X194061904Y-53931009D02*
X193966666Y-53978628D01*
X193966666Y-53978628D02*
X193585714Y-53978628D01*
X195109523Y-54454819D02*
X194538095Y-54454819D01*
X194823809Y-54454819D02*
X194823809Y-53454819D01*
X194823809Y-53454819D02*
X194728571Y-53597676D01*
X194728571Y-53597676D02*
X194633333Y-53692914D01*
X194633333Y-53692914D02*
X194538095Y-53740533D01*
X195442857Y-53454819D02*
X196109523Y-53454819D01*
X196109523Y-53454819D02*
X195680952Y-54454819D01*
X190233333Y-91159580D02*
X190185714Y-91207200D01*
X190185714Y-91207200D02*
X190042857Y-91254819D01*
X190042857Y-91254819D02*
X189947619Y-91254819D01*
X189947619Y-91254819D02*
X189804762Y-91207200D01*
X189804762Y-91207200D02*
X189709524Y-91111961D01*
X189709524Y-91111961D02*
X189661905Y-91016723D01*
X189661905Y-91016723D02*
X189614286Y-90826247D01*
X189614286Y-90826247D02*
X189614286Y-90683390D01*
X189614286Y-90683390D02*
X189661905Y-90492914D01*
X189661905Y-90492914D02*
X189709524Y-90397676D01*
X189709524Y-90397676D02*
X189804762Y-90302438D01*
X189804762Y-90302438D02*
X189947619Y-90254819D01*
X189947619Y-90254819D02*
X190042857Y-90254819D01*
X190042857Y-90254819D02*
X190185714Y-90302438D01*
X190185714Y-90302438D02*
X190233333Y-90350057D01*
X191138095Y-90254819D02*
X190661905Y-90254819D01*
X190661905Y-90254819D02*
X190614286Y-90731009D01*
X190614286Y-90731009D02*
X190661905Y-90683390D01*
X190661905Y-90683390D02*
X190757143Y-90635771D01*
X190757143Y-90635771D02*
X190995238Y-90635771D01*
X190995238Y-90635771D02*
X191090476Y-90683390D01*
X191090476Y-90683390D02*
X191138095Y-90731009D01*
X191138095Y-90731009D02*
X191185714Y-90826247D01*
X191185714Y-90826247D02*
X191185714Y-91064342D01*
X191185714Y-91064342D02*
X191138095Y-91159580D01*
X191138095Y-91159580D02*
X191090476Y-91207200D01*
X191090476Y-91207200D02*
X190995238Y-91254819D01*
X190995238Y-91254819D02*
X190757143Y-91254819D01*
X190757143Y-91254819D02*
X190661905Y-91207200D01*
X190661905Y-91207200D02*
X190614286Y-91159580D01*
X171804819Y-72317857D02*
X171328628Y-72651190D01*
X171804819Y-72889285D02*
X170804819Y-72889285D01*
X170804819Y-72889285D02*
X170804819Y-72508333D01*
X170804819Y-72508333D02*
X170852438Y-72413095D01*
X170852438Y-72413095D02*
X170900057Y-72365476D01*
X170900057Y-72365476D02*
X170995295Y-72317857D01*
X170995295Y-72317857D02*
X171138152Y-72317857D01*
X171138152Y-72317857D02*
X171233390Y-72365476D01*
X171233390Y-72365476D02*
X171281009Y-72413095D01*
X171281009Y-72413095D02*
X171328628Y-72508333D01*
X171328628Y-72508333D02*
X171328628Y-72889285D01*
X171804819Y-71365476D02*
X171804819Y-71936904D01*
X171804819Y-71651190D02*
X170804819Y-71651190D01*
X170804819Y-71651190D02*
X170947676Y-71746428D01*
X170947676Y-71746428D02*
X171042914Y-71841666D01*
X171042914Y-71841666D02*
X171090533Y-71936904D01*
X171804819Y-70413095D02*
X171804819Y-70984523D01*
X171804819Y-70698809D02*
X170804819Y-70698809D01*
X170804819Y-70698809D02*
X170947676Y-70794047D01*
X170947676Y-70794047D02*
X171042914Y-70889285D01*
X171042914Y-70889285D02*
X171090533Y-70984523D01*
X180654819Y-92738094D02*
X179654819Y-92738094D01*
X179654819Y-92738094D02*
X179654819Y-92499999D01*
X179654819Y-92499999D02*
X179702438Y-92357142D01*
X179702438Y-92357142D02*
X179797676Y-92261904D01*
X179797676Y-92261904D02*
X179892914Y-92214285D01*
X179892914Y-92214285D02*
X180083390Y-92166666D01*
X180083390Y-92166666D02*
X180226247Y-92166666D01*
X180226247Y-92166666D02*
X180416723Y-92214285D01*
X180416723Y-92214285D02*
X180511961Y-92261904D01*
X180511961Y-92261904D02*
X180607200Y-92357142D01*
X180607200Y-92357142D02*
X180654819Y-92499999D01*
X180654819Y-92499999D02*
X180654819Y-92738094D01*
X179750057Y-91785713D02*
X179702438Y-91738094D01*
X179702438Y-91738094D02*
X179654819Y-91642856D01*
X179654819Y-91642856D02*
X179654819Y-91404761D01*
X179654819Y-91404761D02*
X179702438Y-91309523D01*
X179702438Y-91309523D02*
X179750057Y-91261904D01*
X179750057Y-91261904D02*
X179845295Y-91214285D01*
X179845295Y-91214285D02*
X179940533Y-91214285D01*
X179940533Y-91214285D02*
X180083390Y-91261904D01*
X180083390Y-91261904D02*
X180654819Y-91833332D01*
X180654819Y-91833332D02*
X180654819Y-91214285D01*
X169357142Y-110854819D02*
X169023809Y-110378628D01*
X168785714Y-110854819D02*
X168785714Y-109854819D01*
X168785714Y-109854819D02*
X169166666Y-109854819D01*
X169166666Y-109854819D02*
X169261904Y-109902438D01*
X169261904Y-109902438D02*
X169309523Y-109950057D01*
X169309523Y-109950057D02*
X169357142Y-110045295D01*
X169357142Y-110045295D02*
X169357142Y-110188152D01*
X169357142Y-110188152D02*
X169309523Y-110283390D01*
X169309523Y-110283390D02*
X169261904Y-110331009D01*
X169261904Y-110331009D02*
X169166666Y-110378628D01*
X169166666Y-110378628D02*
X168785714Y-110378628D01*
X170309523Y-110854819D02*
X169738095Y-110854819D01*
X170023809Y-110854819D02*
X170023809Y-109854819D01*
X170023809Y-109854819D02*
X169928571Y-109997676D01*
X169928571Y-109997676D02*
X169833333Y-110092914D01*
X169833333Y-110092914D02*
X169738095Y-110140533D01*
X171166666Y-110188152D02*
X171166666Y-110854819D01*
X170928571Y-109807200D02*
X170690476Y-110521485D01*
X170690476Y-110521485D02*
X171309523Y-110521485D01*
X226888095Y-51724819D02*
X226888095Y-52534342D01*
X226888095Y-52534342D02*
X226935714Y-52629580D01*
X226935714Y-52629580D02*
X226983333Y-52677200D01*
X226983333Y-52677200D02*
X227078571Y-52724819D01*
X227078571Y-52724819D02*
X227269047Y-52724819D01*
X227269047Y-52724819D02*
X227364285Y-52677200D01*
X227364285Y-52677200D02*
X227411904Y-52629580D01*
X227411904Y-52629580D02*
X227459523Y-52534342D01*
X227459523Y-52534342D02*
X227459523Y-51724819D01*
X227840476Y-51724819D02*
X228459523Y-51724819D01*
X228459523Y-51724819D02*
X228126190Y-52105771D01*
X228126190Y-52105771D02*
X228269047Y-52105771D01*
X228269047Y-52105771D02*
X228364285Y-52153390D01*
X228364285Y-52153390D02*
X228411904Y-52201009D01*
X228411904Y-52201009D02*
X228459523Y-52296247D01*
X228459523Y-52296247D02*
X228459523Y-52534342D01*
X228459523Y-52534342D02*
X228411904Y-52629580D01*
X228411904Y-52629580D02*
X228364285Y-52677200D01*
X228364285Y-52677200D02*
X228269047Y-52724819D01*
X228269047Y-52724819D02*
X227983333Y-52724819D01*
X227983333Y-52724819D02*
X227888095Y-52677200D01*
X227888095Y-52677200D02*
X227840476Y-52629580D01*
X177854819Y-83411904D02*
X178664342Y-83411904D01*
X178664342Y-83411904D02*
X178759580Y-83364285D01*
X178759580Y-83364285D02*
X178807200Y-83316666D01*
X178807200Y-83316666D02*
X178854819Y-83221428D01*
X178854819Y-83221428D02*
X178854819Y-83030952D01*
X178854819Y-83030952D02*
X178807200Y-82935714D01*
X178807200Y-82935714D02*
X178759580Y-82888095D01*
X178759580Y-82888095D02*
X178664342Y-82840476D01*
X178664342Y-82840476D02*
X177854819Y-82840476D01*
X178854819Y-81840476D02*
X178854819Y-82411904D01*
X178854819Y-82126190D02*
X177854819Y-82126190D01*
X177854819Y-82126190D02*
X177997676Y-82221428D01*
X177997676Y-82221428D02*
X178092914Y-82316666D01*
X178092914Y-82316666D02*
X178140533Y-82411904D01*
X208204819Y-105221904D02*
X209014342Y-105221904D01*
X209014342Y-105221904D02*
X209109580Y-105174285D01*
X209109580Y-105174285D02*
X209157200Y-105126666D01*
X209157200Y-105126666D02*
X209204819Y-105031428D01*
X209204819Y-105031428D02*
X209204819Y-104840952D01*
X209204819Y-104840952D02*
X209157200Y-104745714D01*
X209157200Y-104745714D02*
X209109580Y-104698095D01*
X209109580Y-104698095D02*
X209014342Y-104650476D01*
X209014342Y-104650476D02*
X208204819Y-104650476D01*
X208204819Y-103698095D02*
X208204819Y-104174285D01*
X208204819Y-104174285D02*
X208681009Y-104221904D01*
X208681009Y-104221904D02*
X208633390Y-104174285D01*
X208633390Y-104174285D02*
X208585771Y-104079047D01*
X208585771Y-104079047D02*
X208585771Y-103840952D01*
X208585771Y-103840952D02*
X208633390Y-103745714D01*
X208633390Y-103745714D02*
X208681009Y-103698095D01*
X208681009Y-103698095D02*
X208776247Y-103650476D01*
X208776247Y-103650476D02*
X209014342Y-103650476D01*
X209014342Y-103650476D02*
X209109580Y-103698095D01*
X209109580Y-103698095D02*
X209157200Y-103745714D01*
X209157200Y-103745714D02*
X209204819Y-103840952D01*
X209204819Y-103840952D02*
X209204819Y-104079047D01*
X209204819Y-104079047D02*
X209157200Y-104174285D01*
X209157200Y-104174285D02*
X209109580Y-104221904D01*
D12*
%TO.C,R1*%
X177162742Y-84277500D02*
X177637258Y-84277500D01*
X177162742Y-85322500D02*
X177637258Y-85322500D01*
%TO.C,U7*%
D10*
X235750000Y-109710000D02*
X246250000Y-109710000D01*
X246250000Y-99210000D01*
X235750000Y-99210000D01*
X235750000Y-109710000D01*
X235603553Y-98710000D02*
G75*
G02*
X234896447Y-98710000I-353553J0D01*
G01*
X234896447Y-98710000D02*
G75*
G02*
X235603553Y-98710000I353553J0D01*
G01*
D12*
%TO.C,J5*%
X165835000Y-57270000D02*
X165835000Y-57905000D01*
X165835000Y-57905000D02*
X165200000Y-57905000D01*
%TO.C,R3*%
X178027500Y-68437742D02*
X178027500Y-68912258D01*
X179072500Y-68437742D02*
X179072500Y-68912258D01*
%TO.C,R4*%
X176427500Y-68437742D02*
X176427500Y-68912258D01*
X177472500Y-68437742D02*
X177472500Y-68912258D01*
%TO.C,R8*%
X174827500Y-68437742D02*
X174827500Y-68912258D01*
X175872500Y-68437742D02*
X175872500Y-68912258D01*
%TO.C,D1*%
X182840000Y-90462500D02*
X182840000Y-93147500D01*
X182840000Y-93147500D02*
X184760000Y-93147500D01*
X184760000Y-93147500D02*
X184760000Y-90462500D01*
D10*
%TO.C,SW2*%
X163000000Y-82400000D02*
X163300000Y-82100000D01*
X163000000Y-84300000D02*
X163000000Y-82400000D01*
X163000000Y-84300000D02*
X163300000Y-84600000D01*
X164000000Y-81400000D02*
X163700000Y-81700000D01*
X164000000Y-81400000D02*
X168000000Y-81400000D01*
X164000000Y-85400000D02*
X163700000Y-85100000D01*
X168000000Y-81400000D02*
X168300000Y-81700000D01*
X168000000Y-85400000D02*
X164000000Y-85400000D01*
X168000000Y-85400000D02*
X168300000Y-85100000D01*
X169000000Y-82400000D02*
X168700000Y-82100000D01*
X169000000Y-82400000D02*
X169000000Y-84400000D01*
X169000000Y-84400000D02*
X168700000Y-84700000D01*
D12*
%TO.C,C6*%
X187659420Y-91690000D02*
X187940580Y-91690000D01*
X187659420Y-92710000D02*
X187940580Y-92710000D01*
%TO.C,C4*%
X177690000Y-87340580D02*
X177690000Y-87059420D01*
X178710000Y-87340580D02*
X178710000Y-87059420D01*
%TO.C,R10*%
X172427500Y-68437742D02*
X172427500Y-68912258D01*
X173472500Y-68437742D02*
X173472500Y-68912258D01*
%TO.C,C2*%
X194290000Y-78340580D02*
X194290000Y-78059420D01*
X195310000Y-78340580D02*
X195310000Y-78059420D01*
%TO.C,TP2*%
X196200000Y-104800000D02*
X198600000Y-104800000D01*
X196200000Y-107200000D02*
X196200000Y-104800000D01*
X198600000Y-104800000D02*
X198600000Y-107200000D01*
X198600000Y-107200000D02*
X196200000Y-107200000D01*
%TO.C,R16*%
X199527064Y-56290000D02*
X198072936Y-56290000D01*
X199527064Y-58110000D02*
X198072936Y-58110000D01*
%TO.C,U6*%
D10*
X222940000Y-109710000D02*
X233440000Y-109710000D01*
X233440000Y-99210000D01*
X222940000Y-99210000D01*
X222940000Y-109710000D01*
X222793553Y-98710000D02*
G75*
G02*
X222086447Y-98710000I-353553J0D01*
G01*
X222086447Y-98710000D02*
G75*
G02*
X222793553Y-98710000I353553J0D01*
G01*
D12*
%TO.C,R13*%
X170277500Y-104562742D02*
X170277500Y-105037258D01*
X171322500Y-104562742D02*
X171322500Y-105037258D01*
%TO.C,R18*%
X200327064Y-87490000D02*
X198872936Y-87490000D01*
X200327064Y-89310000D02*
X198872936Y-89310000D01*
%TO.C,R19*%
X200327064Y-84290000D02*
X198872936Y-84290000D01*
X200327064Y-86110000D02*
X198872936Y-86110000D01*
%TO.C,R9*%
X181277500Y-94562742D02*
X181277500Y-95037258D01*
X182322500Y-94562742D02*
X182322500Y-95037258D01*
%TO.C,U8*%
X164640000Y-104800000D02*
X164640000Y-102850000D01*
X164640000Y-104800000D02*
X164640000Y-106750000D01*
X169760000Y-104800000D02*
X169760000Y-102850000D01*
X169760000Y-104800000D02*
X169760000Y-106750000D01*
X169995000Y-102340000D02*
X169665000Y-102100000D01*
X169995000Y-101860000D01*
X169995000Y-102340000D01*
G36*
X169995000Y-102340000D02*
G01*
X169665000Y-102100000D01*
X169995000Y-101860000D01*
X169995000Y-102340000D01*
G37*
%TO.C,R5*%
X183277500Y-94562742D02*
X183277500Y-95037258D01*
X184322500Y-94562742D02*
X184322500Y-95037258D01*
%TO.C,R20*%
X200327064Y-80890000D02*
X198872936Y-80890000D01*
X200327064Y-82710000D02*
X198872936Y-82710000D01*
D10*
%TO.C,J2*%
X172000000Y-50125000D02*
X187400000Y-50125000D01*
X172000000Y-52875000D02*
X172000000Y-50125000D01*
X172000000Y-62925000D02*
X172000000Y-55875000D01*
X174400000Y-62925000D02*
X172000000Y-62925000D01*
X174400000Y-64925000D02*
X174400000Y-62925000D01*
X177400000Y-64925000D02*
X174400000Y-64925000D01*
X187400000Y-50125000D02*
X187400000Y-52875000D01*
X187400000Y-55875000D02*
X187400000Y-62925000D01*
X177200000Y-64325000D02*
G75*
G02*
X176800000Y-64325000I-200000J0D01*
G01*
X176800000Y-64325000D02*
G75*
G02*
X177200000Y-64325000I200000J0D01*
G01*
D12*
%TO.C,C1*%
X192790000Y-78340580D02*
X192790000Y-78059420D01*
X193810000Y-78340580D02*
X193810000Y-78059420D01*
%TO.C,TP3*%
X186400000Y-104800000D02*
X188800000Y-104800000D01*
X186400000Y-107200000D02*
X186400000Y-104800000D01*
X188800000Y-104800000D02*
X188800000Y-107200000D01*
X188800000Y-107200000D02*
X186400000Y-107200000D01*
D10*
%TO.C,SW1*%
X163000000Y-76800000D02*
X163300000Y-76500000D01*
X163000000Y-78700000D02*
X163000000Y-76800000D01*
X163000000Y-78700000D02*
X163300000Y-79000000D01*
X164000000Y-75800000D02*
X163700000Y-76100000D01*
X164000000Y-75800000D02*
X168000000Y-75800000D01*
X164000000Y-79800000D02*
X163700000Y-79500000D01*
X168000000Y-75800000D02*
X168300000Y-76100000D01*
X168000000Y-79800000D02*
X164000000Y-79800000D01*
X168000000Y-79800000D02*
X168300000Y-79500000D01*
X169000000Y-76800000D02*
X168700000Y-76500000D01*
X169000000Y-76800000D02*
X169000000Y-78800000D01*
X169000000Y-78800000D02*
X168700000Y-79100000D01*
D12*
%TO.C,R12*%
X169227500Y-68437742D02*
X169227500Y-68912258D01*
X170272500Y-68437742D02*
X170272500Y-68912258D01*
%TO.C,R15*%
X199527064Y-59580000D02*
X198072936Y-59580000D01*
X199527064Y-61400000D02*
X198072936Y-61400000D01*
%TO.C,U4*%
D10*
X208850000Y-75120000D02*
X246450000Y-75120000D01*
X246450000Y-94120000D01*
X208850000Y-94120000D01*
X208850000Y-75120000D01*
D13*
X216750000Y-79520000D02*
X221750000Y-79520000D01*
X221750000Y-84520000D01*
X216750000Y-84520000D01*
X216750000Y-79520000D01*
X216750000Y-84520000D02*
X221750000Y-84520000D01*
X221750000Y-89520000D01*
X216750000Y-89520000D01*
X216750000Y-84520000D01*
X225150000Y-79620000D02*
X230150000Y-79620000D01*
X230150000Y-84620000D01*
X225150000Y-84620000D01*
X225150000Y-79620000D01*
X225150000Y-84620000D02*
X230150000Y-84620000D01*
X230150000Y-89620000D01*
X225150000Y-89620000D01*
X225150000Y-84620000D01*
X233450000Y-79720000D02*
X238450000Y-79720000D01*
X238450000Y-84720000D01*
X233450000Y-84720000D01*
X233450000Y-79720000D01*
X233450000Y-84720000D02*
X238450000Y-84720000D01*
X238450000Y-89720000D01*
X233450000Y-89720000D01*
X233450000Y-84720000D01*
X224350000Y-88720000D02*
G75*
G02*
X222550000Y-88720000I-900000J0D01*
G01*
X222550000Y-88720000D02*
G75*
G02*
X224350000Y-88720000I900000J0D01*
G01*
X232750000Y-88820000D02*
G75*
G02*
X230950000Y-88820000I-900000J0D01*
G01*
X230950000Y-88820000D02*
G75*
G02*
X232750000Y-88820000I900000J0D01*
G01*
X241050000Y-88920000D02*
G75*
G02*
X239250000Y-88920000I-900000J0D01*
G01*
X239250000Y-88920000D02*
G75*
G02*
X241050000Y-88920000I900000J0D01*
G01*
D12*
%TO.C,R17*%
X199527064Y-53000000D02*
X198072936Y-53000000D01*
X199527064Y-54820000D02*
X198072936Y-54820000D01*
%TO.C,C5*%
X187659420Y-90090000D02*
X187940580Y-90090000D01*
X187659420Y-91110000D02*
X187940580Y-91110000D01*
%TO.C,R11*%
X170827500Y-68437742D02*
X170827500Y-68912258D01*
X171872500Y-68437742D02*
X171872500Y-68912258D01*
%TO.C,D2*%
X181065000Y-90812500D02*
X181065000Y-93097500D01*
X181065000Y-93097500D02*
X182535000Y-93097500D01*
X182535000Y-93097500D02*
X182535000Y-90812500D01*
%TO.C,R14*%
X166762742Y-109077500D02*
X167237258Y-109077500D01*
X166762742Y-110122500D02*
X167237258Y-110122500D01*
%TO.C,U3*%
D10*
X208850000Y-53370000D02*
X246450000Y-53370000D01*
X246450000Y-72370000D01*
X208850000Y-72370000D01*
X208850000Y-53370000D01*
D13*
X216750000Y-57770000D02*
X221750000Y-57770000D01*
X221750000Y-62770000D01*
X216750000Y-62770000D01*
X216750000Y-57770000D01*
X216750000Y-62770000D02*
X221750000Y-62770000D01*
X221750000Y-67770000D01*
X216750000Y-67770000D01*
X216750000Y-62770000D01*
X225150000Y-57870000D02*
X230150000Y-57870000D01*
X230150000Y-62870000D01*
X225150000Y-62870000D01*
X225150000Y-57870000D01*
X225150000Y-62870000D02*
X230150000Y-62870000D01*
X230150000Y-67870000D01*
X225150000Y-67870000D01*
X225150000Y-62870000D01*
X233450000Y-57970000D02*
X238450000Y-57970000D01*
X238450000Y-62970000D01*
X233450000Y-62970000D01*
X233450000Y-57970000D01*
X233450000Y-62970000D02*
X238450000Y-62970000D01*
X238450000Y-67970000D01*
X233450000Y-67970000D01*
X233450000Y-62970000D01*
X224350000Y-66970000D02*
G75*
G02*
X222550000Y-66970000I-900000J0D01*
G01*
X222550000Y-66970000D02*
G75*
G02*
X224350000Y-66970000I900000J0D01*
G01*
X232750000Y-67070000D02*
G75*
G02*
X230950000Y-67070000I-900000J0D01*
G01*
X230950000Y-67070000D02*
G75*
G02*
X232750000Y-67070000I900000J0D01*
G01*
X241050000Y-67170000D02*
G75*
G02*
X239250000Y-67170000I-900000J0D01*
G01*
X239250000Y-67170000D02*
G75*
G02*
X241050000Y-67170000I900000J0D01*
G01*
D12*
%TO.C,U1*%
X180690000Y-77540000D02*
X181640000Y-77540000D01*
X180690000Y-78490000D02*
X180690000Y-77540000D01*
X180690000Y-86810000D02*
X180690000Y-87760000D01*
X180690000Y-87760000D02*
X181640000Y-87760000D01*
X190910000Y-77540000D02*
X189960000Y-77540000D01*
X190910000Y-78490000D02*
X190910000Y-77540000D01*
X190910000Y-86810000D02*
X190910000Y-87760000D01*
X190910000Y-87760000D02*
X189960000Y-87760000D01*
X181640000Y-88375000D02*
X181170000Y-88715000D01*
X181170000Y-88035000D01*
X181640000Y-88375000D01*
G36*
X181640000Y-88375000D02*
G01*
X181170000Y-88715000D01*
X181170000Y-88035000D01*
X181640000Y-88375000D01*
G37*
%TO.C,U5*%
D10*
X209750000Y-109710000D02*
X220250000Y-109710000D01*
X220250000Y-99210000D01*
X209750000Y-99210000D01*
X209750000Y-109710000D01*
X209603553Y-98710000D02*
G75*
G02*
X208896447Y-98710000I-353553J0D01*
G01*
X208896447Y-98710000D02*
G75*
G02*
X209603553Y-98710000I353553J0D01*
G01*
%TD*%
%LPC*%
D14*
%TO.C,R1*%
X176575000Y-84800000D03*
X178225000Y-84800000D03*
%TD*%
D15*
%TO.C,U7*%
X237190000Y-101920000D03*
X237190000Y-104460000D03*
X237190000Y-107000000D03*
X244810000Y-107000000D03*
X244810000Y-104460000D03*
X244810000Y-101920000D03*
%TD*%
D16*
%TO.C,J5*%
X164565000Y-58540000D03*
X163549000Y-53460000D03*
X165581000Y-53460000D03*
D17*
X165200000Y-57270000D03*
X163930000Y-57270000D03*
X165200000Y-56000000D03*
X163930000Y-56000000D03*
X165200000Y-54730000D03*
X163930000Y-54730000D03*
%TD*%
D18*
%TO.C,R3*%
X178550000Y-67850000D03*
X178550000Y-69500000D03*
%TD*%
%TO.C,R4*%
X176950000Y-67850000D03*
X176950000Y-69500000D03*
%TD*%
%TO.C,R8*%
X175350000Y-67850000D03*
X175350000Y-69500000D03*
%TD*%
D19*
%TO.C,D1*%
X183800000Y-92400000D03*
X183800000Y-90525000D03*
%TD*%
D20*
%TO.C,SW2*%
X169000000Y-85275000D03*
X163000000Y-85275000D03*
X169000000Y-81525000D03*
X163000000Y-81525000D03*
%TD*%
D21*
%TO.C,C6*%
X187025000Y-92200000D03*
X188575000Y-92200000D03*
%TD*%
D22*
%TO.C,C4*%
X178200000Y-87975000D03*
X178200000Y-86425000D03*
%TD*%
D18*
%TO.C,R10*%
X172950000Y-67850000D03*
X172950000Y-69500000D03*
%TD*%
D22*
%TO.C,C2*%
X194800000Y-78975000D03*
X194800000Y-77425000D03*
%TD*%
D23*
%TO.C,TP2*%
X197400000Y-106000000D03*
%TD*%
D24*
%TO.C,R16*%
X200262500Y-57200000D03*
X197337500Y-57200000D03*
%TD*%
D15*
%TO.C,U6*%
X224380000Y-101920000D03*
X224380000Y-104460000D03*
X224380000Y-107000000D03*
X232000000Y-107000000D03*
X232000000Y-104460000D03*
X232000000Y-101920000D03*
%TD*%
D18*
%TO.C,R13*%
X170800000Y-103975000D03*
X170800000Y-105625000D03*
%TD*%
D24*
%TO.C,R18*%
X201062500Y-88400000D03*
X198137500Y-88400000D03*
%TD*%
%TO.C,R19*%
X201062500Y-85200000D03*
X198137500Y-85200000D03*
%TD*%
D18*
%TO.C,R9*%
X181800000Y-93975000D03*
X181800000Y-95625000D03*
%TD*%
D25*
%TO.C,U8*%
X169105000Y-102325000D03*
X167835000Y-102325000D03*
X166565000Y-102325000D03*
X165295000Y-102325000D03*
X165295000Y-107275000D03*
X166565000Y-107275000D03*
X167835000Y-107275000D03*
X169105000Y-107275000D03*
%TD*%
D18*
%TO.C,R5*%
X183800000Y-93975000D03*
X183800000Y-95625000D03*
%TD*%
D24*
%TO.C,R20*%
X201062500Y-81800000D03*
X198137500Y-81800000D03*
%TD*%
D26*
%TO.C,J2*%
X185150000Y-53925000D03*
X177150000Y-53925000D03*
D27*
X177950000Y-64925000D03*
X179050000Y-64925000D03*
X180150000Y-64925000D03*
X181250000Y-64925000D03*
X182350000Y-64925000D03*
X183450000Y-64925000D03*
X184550000Y-64925000D03*
X185650000Y-64925000D03*
X186750000Y-64925000D03*
D28*
X187950000Y-63925000D03*
D29*
X187950000Y-54325000D03*
D30*
X173350000Y-63925000D03*
D29*
X172450000Y-54325000D03*
%TD*%
D22*
%TO.C,C1*%
X193300000Y-78975000D03*
X193300000Y-77425000D03*
%TD*%
D23*
%TO.C,TP3*%
X187600000Y-106000000D03*
%TD*%
D20*
%TO.C,SW1*%
X169000000Y-79675000D03*
X163000000Y-79675000D03*
X169000000Y-75925000D03*
X163000000Y-75925000D03*
%TD*%
D18*
%TO.C,R12*%
X169750000Y-67850000D03*
X169750000Y-69500000D03*
%TD*%
D24*
%TO.C,R15*%
X200262500Y-60490000D03*
X197337500Y-60490000D03*
%TD*%
D31*
%TO.C,U4*%
X221300000Y-92240000D03*
X223840000Y-92240000D03*
X226380000Y-92240000D03*
X228920000Y-92240000D03*
X231460000Y-92240000D03*
X234000000Y-92240000D03*
X234000000Y-77000000D03*
X231460000Y-77000000D03*
X228920000Y-77000000D03*
X226380000Y-77000000D03*
X223840000Y-77000000D03*
X221300000Y-77000000D03*
%TD*%
D24*
%TO.C,R17*%
X200262500Y-53910000D03*
X197337500Y-53910000D03*
%TD*%
D21*
%TO.C,C5*%
X187025000Y-90600000D03*
X188575000Y-90600000D03*
%TD*%
D18*
%TO.C,R11*%
X171350000Y-67850000D03*
X171350000Y-69500000D03*
%TD*%
D32*
%TO.C,D2*%
X181800000Y-92400000D03*
X181800000Y-90825000D03*
%TD*%
D14*
%TO.C,R14*%
X166175000Y-109600000D03*
X167825000Y-109600000D03*
%TD*%
D31*
%TO.C,U3*%
X221300000Y-70490000D03*
X223840000Y-70490000D03*
X226380000Y-70490000D03*
X228920000Y-70490000D03*
X231460000Y-70490000D03*
X234000000Y-70490000D03*
X234000000Y-55250000D03*
X231460000Y-55250000D03*
X228920000Y-55250000D03*
X226380000Y-55250000D03*
X223840000Y-55250000D03*
X221300000Y-55250000D03*
%TD*%
D33*
%TO.C,U1*%
X182050000Y-88325000D03*
X182550000Y-88325000D03*
X183050000Y-88325000D03*
X183550000Y-88325000D03*
X184050000Y-88325000D03*
X184550000Y-88325000D03*
X185050000Y-88325000D03*
X185550000Y-88325000D03*
X186050000Y-88325000D03*
X186550000Y-88325000D03*
X187050000Y-88325000D03*
X187550000Y-88325000D03*
X188050000Y-88325000D03*
X188550000Y-88325000D03*
X189050000Y-88325000D03*
X189550000Y-88325000D03*
D34*
X191475000Y-86400000D03*
X191475000Y-85900000D03*
X191475000Y-85400000D03*
X191475000Y-84900000D03*
X191475000Y-84400000D03*
X191475000Y-83900000D03*
X191475000Y-83400000D03*
X191475000Y-82900000D03*
X191475000Y-82400000D03*
X191475000Y-81900000D03*
X191475000Y-81400000D03*
X191475000Y-80900000D03*
X191475000Y-80400000D03*
X191475000Y-79900000D03*
X191475000Y-79400000D03*
X191475000Y-78900000D03*
D33*
X189550000Y-76975000D03*
X189050000Y-76975000D03*
X188550000Y-76975000D03*
X188050000Y-76975000D03*
X187550000Y-76975000D03*
X187050000Y-76975000D03*
X186550000Y-76975000D03*
X186050000Y-76975000D03*
X185550000Y-76975000D03*
X185050000Y-76975000D03*
X184550000Y-76975000D03*
X184050000Y-76975000D03*
X183550000Y-76975000D03*
X183050000Y-76975000D03*
X182550000Y-76975000D03*
X182050000Y-76975000D03*
D34*
X180125000Y-78900000D03*
X180125000Y-79400000D03*
X180125000Y-79900000D03*
X180125000Y-80400000D03*
X180125000Y-80900000D03*
X180125000Y-81400000D03*
X180125000Y-81900000D03*
X180125000Y-82400000D03*
X180125000Y-82900000D03*
X180125000Y-83400000D03*
X180125000Y-83900000D03*
X180125000Y-84400000D03*
X180125000Y-84900000D03*
X180125000Y-85400000D03*
X180125000Y-85900000D03*
X180125000Y-86400000D03*
%TD*%
D15*
%TO.C,U5*%
X211190000Y-101920000D03*
X211190000Y-104460000D03*
X211190000Y-107000000D03*
X218810000Y-107000000D03*
X218810000Y-104460000D03*
X218810000Y-101920000D03*
%TD*%
D35*
%TO.C,J4*%
X161600000Y-89720000D03*
D36*
X161600000Y-92260000D03*
X161600000Y-94800000D03*
X161600000Y-97340000D03*
%TD*%
D35*
%TO.C,J3*%
X161600000Y-102200000D03*
D36*
X161600000Y-104740000D03*
X161600000Y-107280000D03*
X161600000Y-109820000D03*
%TD*%
%LPD*%
M02*
