%TF.GenerationSoftware,KiCad,Pcbnew,8.0.4*%
%TF.CreationDate,2024-08-28T18:13:50+02:00*%
%TF.ProjectId,Controller,436f6e74-726f-46c6-9c65-722e6b696361,v0*%
%TF.SameCoordinates,Original*%
%TF.FileFunction,Copper,L2,Bot*%
%TF.FilePolarity,Positive*%
%FSLAX46Y46*%
G04 Gerber Fmt 4.6, Leading zero omitted, Abs format (unit mm)*
G04 Created by KiCad (PCBNEW 8.0.4) date 2024-08-28 18:13:50*
%MOMM*%
%LPD*%
G01*
G04 APERTURE LIST*
%TA.AperFunction,EtchedComponent*%
%ADD10C,0.000000*%
%TD*%
%TA.AperFunction,ComponentPad*%
%ADD11C,2.000000*%
%TD*%
%TA.AperFunction,ComponentPad*%
%ADD12R,2.000000X2.000000*%
%TD*%
%TA.AperFunction,ComponentPad*%
%ADD13C,1.400000*%
%TD*%
%TA.AperFunction,SMDPad,CuDef*%
%ADD14R,1.500000X1.000000*%
%TD*%
%TA.AperFunction,ComponentPad*%
%ADD15R,1.700000X1.700000*%
%TD*%
%TA.AperFunction,ComponentPad*%
%ADD16O,1.700000X1.700000*%
%TD*%
%TA.AperFunction,ViaPad*%
%ADD17C,0.800000*%
%TD*%
%TA.AperFunction,ViaPad*%
%ADD18C,0.450000*%
%TD*%
%TA.AperFunction,Conductor*%
%ADD19C,0.350000*%
%TD*%
%TA.AperFunction,Conductor*%
%ADD20C,0.150000*%
%TD*%
G04 APERTURE END LIST*
D10*
%TA.AperFunction,EtchedComponent*%
%TO.C,JP7*%
G36*
X177250000Y-65175000D02*
G01*
X176650000Y-65175000D01*
X176650000Y-64675000D01*
X177250000Y-64675000D01*
X177250000Y-65175000D01*
G37*
%TD.AperFunction*%
%TA.AperFunction,EtchedComponent*%
%TO.C,JP9*%
G36*
X182450000Y-65175000D02*
G01*
X181850000Y-65175000D01*
X181850000Y-64675000D01*
X182450000Y-64675000D01*
X182450000Y-65175000D01*
G37*
%TD.AperFunction*%
%TA.AperFunction,EtchedComponent*%
%TO.C,JP6*%
G36*
X174650000Y-65175000D02*
G01*
X174050000Y-65175000D01*
X174050000Y-64675000D01*
X174650000Y-64675000D01*
X174650000Y-65175000D01*
G37*
%TD.AperFunction*%
%TA.AperFunction,EtchedComponent*%
%TO.C,JP3*%
G36*
X166850000Y-65175000D02*
G01*
X166250000Y-65175000D01*
X166250000Y-64675000D01*
X166850000Y-64675000D01*
X166850000Y-65175000D01*
G37*
%TD.AperFunction*%
%TA.AperFunction,EtchedComponent*%
%TO.C,JP11*%
G36*
X187650000Y-65175000D02*
G01*
X187050000Y-65175000D01*
X187050000Y-64675000D01*
X187650000Y-64675000D01*
X187650000Y-65175000D01*
G37*
%TD.AperFunction*%
%TA.AperFunction,EtchedComponent*%
%TO.C,JP10*%
G36*
X185050000Y-65175000D02*
G01*
X184450000Y-65175000D01*
X184450000Y-64675000D01*
X185050000Y-64675000D01*
X185050000Y-65175000D01*
G37*
%TD.AperFunction*%
%TA.AperFunction,EtchedComponent*%
%TO.C,JP5*%
G36*
X172050000Y-65175000D02*
G01*
X171450000Y-65175000D01*
X171450000Y-64675000D01*
X172050000Y-64675000D01*
X172050000Y-65175000D01*
G37*
%TD.AperFunction*%
%TA.AperFunction,EtchedComponent*%
%TO.C,JP8*%
G36*
X179850000Y-65175000D02*
G01*
X179250000Y-65175000D01*
X179250000Y-64675000D01*
X179850000Y-64675000D01*
X179850000Y-65175000D01*
G37*
%TD.AperFunction*%
%TA.AperFunction,EtchedComponent*%
%TO.C,JP4*%
G36*
X169450000Y-65175000D02*
G01*
X168850000Y-65175000D01*
X168850000Y-64675000D01*
X169450000Y-64675000D01*
X169450000Y-65175000D01*
G37*
%TD.AperFunction*%
%TD*%
D11*
%TO.P,U7,1,4*%
%TO.N,/DIG3_4*%
X237190000Y-101920000D03*
%TO.P,U7,2,C*%
%TO.N,+3V3*%
X237190000Y-104460000D03*
%TO.P,U7,3,1*%
%TO.N,/DIG3_1*%
X237190000Y-107000000D03*
%TO.P,U7,4,8*%
%TO.N,/DIG3_8*%
X244810000Y-107000000D03*
%TO.P,U7,5,C*%
%TO.N,+3V3*%
X244810000Y-104460000D03*
%TO.P,U7,6,2*%
%TO.N,/DIG3_2*%
X244810000Y-101920000D03*
%TD*%
D12*
%TO.P,TP2,1,1*%
%TO.N,+3V3*%
X197400000Y-106000000D03*
%TD*%
D11*
%TO.P,U6,1,4*%
%TO.N,/DIG2_4*%
X224380000Y-101920000D03*
%TO.P,U6,2,C*%
%TO.N,+3V3*%
X224380000Y-104460000D03*
%TO.P,U6,3,1*%
%TO.N,/DIG2_1*%
X224380000Y-107000000D03*
%TO.P,U6,4,8*%
%TO.N,/DIG2_8*%
X232000000Y-107000000D03*
%TO.P,U6,5,C*%
%TO.N,+3V3*%
X232000000Y-104460000D03*
%TO.P,U6,6,2*%
%TO.N,/DIG2_2*%
X232000000Y-101920000D03*
%TD*%
D12*
%TO.P,TP3,1,1*%
%TO.N,GND*%
X187600000Y-106000000D03*
%TD*%
D13*
%TO.P,U4,1,E*%
%TO.N,/Depth_E*%
X221300000Y-92240000D03*
%TO.P,U4,2,D*%
%TO.N,/Depth_D*%
X223840000Y-92240000D03*
%TO.P,U4,3,DP*%
%TO.N,/Depth_DP*%
X226380000Y-92240000D03*
%TO.P,U4,4,C*%
%TO.N,/Depth_C*%
X228920000Y-92240000D03*
%TO.P,U4,5,G*%
%TO.N,/Depth_G*%
X231460000Y-92240000D03*
%TO.P,U4,6,NC*%
%TO.N,unconnected-(U4-NC-Pad6)*%
X234000000Y-92240000D03*
%TO.P,U4,7,B*%
%TO.N,/Depth_B*%
X234000000Y-77000000D03*
%TO.P,U4,8,DIG3*%
%TO.N,Net-(U4-DIG3)*%
X231460000Y-77000000D03*
%TO.P,U4,9,DIG2*%
%TO.N,Net-(U4-DIG2)*%
X228920000Y-77000000D03*
%TO.P,U4,10,F*%
%TO.N,/Depth_F*%
X226380000Y-77000000D03*
%TO.P,U4,11,A*%
%TO.N,/Depth_A*%
X223840000Y-77000000D03*
%TO.P,U4,12,DIG1*%
%TO.N,Net-(U4-DIG1)*%
X221300000Y-77000000D03*
%TD*%
%TO.P,U3,1,E*%
%TO.N,/Salinity_E*%
X221300000Y-70490000D03*
%TO.P,U3,2,D*%
%TO.N,/Salinity_D*%
X223840000Y-70490000D03*
%TO.P,U3,3,DP*%
%TO.N,/Salinity_DP*%
X226380000Y-70490000D03*
%TO.P,U3,4,C*%
%TO.N,/Salinity_C*%
X228920000Y-70490000D03*
%TO.P,U3,5,G*%
%TO.N,/Salinity_G*%
X231460000Y-70490000D03*
%TO.P,U3,6,NC*%
%TO.N,unconnected-(U3-NC-Pad6)*%
X234000000Y-70490000D03*
%TO.P,U3,7,B*%
%TO.N,/Salinity_B*%
X234000000Y-55250000D03*
%TO.P,U3,8,DIG3*%
%TO.N,Net-(U3-DIG3)*%
X231460000Y-55250000D03*
%TO.P,U3,9,DIG2*%
%TO.N,Net-(U3-DIG2)*%
X228920000Y-55250000D03*
%TO.P,U3,10,F*%
%TO.N,/Salinity_F*%
X226380000Y-55250000D03*
%TO.P,U3,11,A*%
%TO.N,/Salinity_A*%
X223840000Y-55250000D03*
%TO.P,U3,12,DIG1*%
%TO.N,Net-(U3-DIG1)*%
X221300000Y-55250000D03*
%TD*%
D11*
%TO.P,U5,1,4*%
%TO.N,/DIG1_4*%
X211190000Y-101920000D03*
%TO.P,U5,2,C*%
%TO.N,+3V3*%
X211190000Y-104460000D03*
%TO.P,U5,3,1*%
%TO.N,/DIG1_1*%
X211190000Y-107000000D03*
%TO.P,U5,4,8*%
%TO.N,/DIG1_8*%
X218810000Y-107000000D03*
%TO.P,U5,5,C*%
%TO.N,+3V3*%
X218810000Y-104460000D03*
%TO.P,U5,6,2*%
%TO.N,/DIG1_2*%
X218810000Y-101920000D03*
%TD*%
D14*
%TO.P,JP7,1,A*%
%TO.N,/SPI_SCK*%
X176950000Y-65575000D03*
%TO.P,JP7,2,B*%
%TO.N,Net-(J2-CLK)*%
X176950000Y-64275000D03*
%TD*%
%TO.P,JP9,1,A*%
%TO.N,/SPI_MISO*%
X182150000Y-65575000D03*
%TO.P,JP9,2,B*%
%TO.N,Net-(J2-DAT0)*%
X182150000Y-64275000D03*
%TD*%
%TO.P,JP6,1,A*%
%TO.N,+3V3*%
X174350000Y-65575000D03*
%TO.P,JP6,2,B*%
%TO.N,Net-(J2-VDD)*%
X174350000Y-64275000D03*
%TD*%
%TO.P,JP3,1,A*%
%TO.N,Net-(JP3-A)*%
X166550000Y-65575000D03*
%TO.P,JP3,2,B*%
%TO.N,Net-(J2-DAT2)*%
X166550000Y-64275000D03*
%TD*%
%TO.P,JP11,1,A*%
%TO.N,/CD*%
X187350000Y-65575000D03*
%TO.P,JP11,2,B*%
%TO.N,Net-(J2-DET)*%
X187350000Y-64275000D03*
%TD*%
D15*
%TO.P,J4,1,Pin_1*%
%TO.N,+3V3*%
X161600000Y-89720000D03*
D16*
%TO.P,J4,2,Pin_2*%
%TO.N,/RS485_uart*%
X161600000Y-92260000D03*
%TO.P,J4,3,Pin_3*%
%TO.N,/RS485_DE*%
X161600000Y-94800000D03*
%TO.P,J4,4,Pin_4*%
%TO.N,GND*%
X161600000Y-97340000D03*
%TD*%
D14*
%TO.P,JP10,1,A*%
%TO.N,Net-(JP10-A)*%
X184750000Y-65575000D03*
%TO.P,JP10,2,B*%
%TO.N,Net-(J2-DAT1)*%
X184750000Y-64275000D03*
%TD*%
%TO.P,JP5,1,A*%
%TO.N,/SPI_MOSI*%
X171750000Y-65575000D03*
%TO.P,JP5,2,B*%
%TO.N,Net-(J2-CMD)*%
X171750000Y-64275000D03*
%TD*%
%TO.P,JP8,1,A*%
%TO.N,GND*%
X179550000Y-65575000D03*
%TO.P,JP8,2,B*%
%TO.N,Net-(J2-VSS)*%
X179550000Y-64275000D03*
%TD*%
%TO.P,JP4,1,A*%
%TO.N,/SPI_NSS*%
X169150000Y-65575000D03*
%TO.P,JP4,2,B*%
%TO.N,Net-(J2-DAT3{slash}CD)*%
X169150000Y-64275000D03*
%TD*%
D15*
%TO.P,J3,1,Pin_1*%
%TO.N,+3V3*%
X161600000Y-102200000D03*
D16*
%TO.P,J3,2,Pin_2*%
%TO.N,/RS485_A*%
X161600000Y-104740000D03*
%TO.P,J3,3,Pin_3*%
%TO.N,/RS485_B*%
X161600000Y-107280000D03*
%TO.P,J3,4,Pin_4*%
%TO.N,GND*%
X161600000Y-109820000D03*
%TD*%
D17*
%TO.N,GND*%
X202200000Y-74800000D03*
X203800000Y-88200000D03*
X206000000Y-108000000D03*
X241200000Y-81600000D03*
X180800000Y-57800000D03*
X185400000Y-97400000D03*
X163600000Y-99600000D03*
X185400000Y-72800000D03*
X195400000Y-94800000D03*
X164400000Y-72600000D03*
X166200000Y-55000000D03*
X175000000Y-108800000D03*
X214400000Y-85400000D03*
X173800000Y-92600000D03*
X195125000Y-80200000D03*
X191800000Y-60400000D03*
X228000000Y-108400000D03*
X179750000Y-68600000D03*
X168600000Y-58200000D03*
X164000000Y-107600000D03*
X175400000Y-100000000D03*
X214800000Y-64000000D03*
X240600000Y-62800000D03*
X212000000Y-60000000D03*
%TO.N,+3V3*%
X193400000Y-74200000D03*
X207000000Y-93800000D03*
X174150000Y-69500000D03*
X191800000Y-77400000D03*
D18*
%TO.N,/SPI_MISO*%
X180350000Y-66800000D03*
X189200000Y-80400000D03*
%TO.N,/SPI_NSS*%
X170950000Y-66900000D03*
X190200000Y-78200000D03*
%TO.N,Net-(J2-DAT1)*%
X185750000Y-62925000D03*
%TO.N,Net-(J2-DAT2)*%
X177950000Y-61000000D03*
%TO.N,/CD*%
X182000000Y-73507107D03*
%TO.N,/SPI_MOSI*%
X172750000Y-66700000D03*
X181000000Y-73800000D03*
X188600000Y-79800000D03*
X179600000Y-73200000D03*
%TO.N,/SPI_SCK*%
X176150000Y-66700000D03*
X189700000Y-79600000D03*
%TO.N,/RS485_DE*%
X166000000Y-95200000D03*
%TO.N,/SWCLK*%
X179200000Y-78200000D03*
X162200000Y-56200000D03*
%TO.N,/NRST*%
X167000000Y-55800000D03*
X185400000Y-90000000D03*
%TO.N,/SWDIO*%
X179200000Y-77200000D03*
X162600000Y-57400000D03*
%TO.N,/DIG2_1*%
X185000000Y-86000000D03*
X222200000Y-99900000D03*
%TO.N,/DIG1_8*%
X221200000Y-99400000D03*
X185050000Y-85200000D03*
%TO.N,/DIG1_2*%
X193600000Y-82200000D03*
X218800000Y-97200000D03*
%TO.N,/DIG1_4*%
X211200000Y-96300000D03*
X193400000Y-81200000D03*
%TO.N,/Depth_G*%
X223916446Y-90483554D03*
%TO.N,/Salinity_B*%
X183200000Y-78400000D03*
%TO.N,/Depth_A*%
X217800000Y-92600000D03*
%TO.N,/DIG3_1*%
X189600000Y-85600000D03*
X235200000Y-99000000D03*
%TO.N,/DIG2_8*%
X230000000Y-97200000D03*
X194000000Y-80200000D03*
%TO.N,/DIG2_4*%
X194200000Y-81200000D03*
X224400000Y-97200000D03*
%TO.N,/Salinity_C*%
X226800000Y-68370000D03*
X184000000Y-78400000D03*
%TO.N,/Salinity_DIG1*%
X186400000Y-78400000D03*
X196400000Y-68200000D03*
%TO.N,/Salinity_G*%
X187600000Y-78400000D03*
%TO.N,/Salinity_DIG2*%
X197000000Y-67600000D03*
X185600000Y-78200000D03*
%TO.N,/DIG2_2*%
X185000000Y-86800000D03*
%TO.N,/DIG3_4*%
X237200000Y-97600000D03*
X185000000Y-83200000D03*
%TO.N,/Salinity_DIG3*%
X197600000Y-65500000D03*
X181400000Y-79800000D03*
%TO.N,/DIG1_1*%
X212600000Y-97300000D03*
X192800000Y-82200000D03*
%TO.N,/Salinity_E*%
X187000000Y-79800000D03*
%TO.N,/Depth_F*%
X219600000Y-90800000D03*
%TO.N,/Salinity_F*%
X187800000Y-79800000D03*
X226400000Y-57400000D03*
X219400000Y-70200000D03*
%TO.N,/DIG3_8*%
X185000000Y-84000000D03*
%TO.N,/Salinity_DP*%
X187000000Y-79000000D03*
X225200000Y-68400000D03*
%TO.N,/DIG3_2*%
X190000000Y-84800000D03*
%TO.N,/Salinity_A*%
X183200000Y-79200000D03*
%TO.N,/Salinity_D*%
X184800000Y-78400000D03*
X222800000Y-68200000D03*
%TO.N,/Depth_B*%
X218598959Y-92401041D03*
%TO.N,Net-(J2-DAT0)*%
X184550000Y-62925000D03*
%TO.N,Net-(J2-DAT3{slash}CD)*%
X178950000Y-61375000D03*
%TO.N,Net-(J2-VSS)*%
X183324438Y-62456835D03*
%TO.N,Net-(J2-DET)*%
X186950000Y-62725000D03*
D17*
%TO.N,Net-(J2-VDD)*%
X181150000Y-62475000D03*
D18*
%TO.N,Net-(J2-CMD)*%
X180150000Y-61875000D03*
%TO.N,Net-(J2-CLK)*%
X182449583Y-62624583D03*
%TO.N,Net-(JP10-A)*%
X182662500Y-67662500D03*
%TO.N,Net-(JP3-A)*%
X169750000Y-66900000D03*
%TO.N,Net-(U4-DIG1)*%
X220000000Y-78800000D03*
%TD*%
D19*
%TO.N,GND*%
X179550000Y-65575000D02*
X179550000Y-68400000D01*
X179550000Y-68400000D02*
X179750000Y-68600000D01*
%TO.N,+3V3*%
X197600000Y-79200000D02*
X207000000Y-88600000D01*
X203942500Y-106000000D02*
X197400000Y-106000000D01*
X205482500Y-104460000D02*
X203942500Y-106000000D01*
X174350000Y-69300000D02*
X174150000Y-69500000D01*
X174350000Y-65575000D02*
X174350000Y-69300000D01*
X211190000Y-104460000D02*
X244810000Y-104460000D01*
X205482500Y-104460000D02*
X211190000Y-104460000D01*
X195800000Y-77400000D02*
X197600000Y-79200000D01*
X191800000Y-77400000D02*
X195800000Y-77400000D01*
X193400000Y-74200000D02*
X191800000Y-75800000D01*
X191800000Y-75800000D02*
X191800000Y-77400000D01*
X207000000Y-88600000D02*
X207000000Y-93800000D01*
D20*
%TO.N,/SPI_MISO*%
X188950000Y-80650000D02*
X181000000Y-80650000D01*
X182150000Y-65575000D02*
X180925000Y-66800000D01*
X189200000Y-80400000D02*
X188950000Y-80650000D01*
X180450000Y-80100000D02*
X180450000Y-66900000D01*
X180925000Y-66800000D02*
X180350000Y-66800000D01*
X180450000Y-66900000D02*
X180350000Y-66800000D01*
X181000000Y-80650000D02*
X180450000Y-80100000D01*
%TO.N,/SPI_NSS*%
X179150000Y-73550000D02*
X176750431Y-73550000D01*
X179750000Y-74150000D02*
X179150000Y-73550000D01*
X190200000Y-80602082D02*
X189452082Y-81350000D01*
X170950000Y-67749569D02*
X170950000Y-66900000D01*
X169150000Y-65575000D02*
X169625000Y-65575000D01*
X176750431Y-73550000D02*
X170950000Y-67749569D01*
X179750000Y-80389950D02*
X179750000Y-74150000D01*
X189452082Y-81350000D02*
X180710050Y-81350000D01*
X190200000Y-78200000D02*
X190200000Y-80602082D01*
X169625000Y-65575000D02*
X170950000Y-66900000D01*
X180710050Y-81350000D02*
X179750000Y-80389950D01*
%TO.N,Net-(J2-DAT1)*%
X185750000Y-63275000D02*
X184750000Y-64275000D01*
X185750000Y-62925000D02*
X185750000Y-63275000D01*
%TO.N,Net-(J2-DAT2)*%
X177950000Y-61000000D02*
X174652513Y-61000000D01*
X174652513Y-61000000D02*
X172950000Y-62702513D01*
X172950000Y-62702513D02*
X168122487Y-62702513D01*
X168122487Y-62702513D02*
X166550000Y-64275000D01*
%TO.N,/CD*%
X182000000Y-73507107D02*
X187350000Y-68157107D01*
X187350000Y-68157107D02*
X187350000Y-65575000D01*
X187400000Y-65625000D02*
X187350000Y-65575000D01*
%TO.N,/SPI_MOSI*%
X181200000Y-80300000D02*
X181192893Y-80300000D01*
X180800000Y-74400000D02*
X180800000Y-74000000D01*
X180800000Y-74000000D02*
X181000000Y-73800000D01*
X172750000Y-69054595D02*
X172750000Y-66700000D01*
X176895405Y-73200000D02*
X172750000Y-69054595D01*
X171750000Y-65575000D02*
X171750000Y-65700000D01*
X180800000Y-79907107D02*
X180800000Y-74400000D01*
X171750000Y-65700000D02*
X172750000Y-66700000D01*
X181192893Y-80300000D02*
X180800000Y-79907107D01*
X179600000Y-73200000D02*
X176895405Y-73200000D01*
X188600000Y-79800000D02*
X188100000Y-80300000D01*
X188100000Y-80300000D02*
X181200000Y-80300000D01*
%TO.N,/SPI_SCK*%
X180100000Y-80244975D02*
X180100000Y-70650000D01*
X180855025Y-81000000D02*
X180100000Y-80244975D01*
X189700000Y-79600000D02*
X189700000Y-80607107D01*
X189307107Y-81000000D02*
X180855025Y-81000000D01*
X180100000Y-70650000D02*
X176150000Y-66700000D01*
X189700000Y-80607107D02*
X189307107Y-81000000D01*
X176950000Y-65900000D02*
X176150000Y-66700000D01*
X176950000Y-65575000D02*
X176950000Y-65900000D01*
%TO.N,/RS485_DE*%
X165800000Y-95200000D02*
X165400000Y-94800000D01*
X166000000Y-95200000D02*
X165800000Y-95200000D01*
X165400000Y-94800000D02*
X161600000Y-94800000D01*
%TO.N,/SWCLK*%
X162100000Y-56300000D02*
X162200000Y-56200000D01*
X162100000Y-63994975D02*
X162100000Y-56300000D01*
X179200000Y-78200000D02*
X176305025Y-78200000D01*
X176305025Y-78200000D02*
X164600000Y-66494975D01*
X164600000Y-66494975D02*
X162100000Y-63994975D01*
%TO.N,/NRST*%
X161700000Y-52500000D02*
X162000000Y-52200000D01*
X175805025Y-80405025D02*
X175805025Y-78194974D01*
X175805025Y-78194974D02*
X169605025Y-71994975D01*
X161700000Y-64089950D02*
X161700000Y-52500000D01*
X167000000Y-52800000D02*
X167000000Y-55800000D01*
X169605025Y-71994975D02*
X164250000Y-66639950D01*
X164250000Y-66639950D02*
X161700000Y-64089950D01*
X185400000Y-90000000D02*
X175805025Y-80405025D01*
X162000000Y-52200000D02*
X166400000Y-52200000D01*
X166400000Y-52200000D02*
X167000000Y-52800000D01*
%TO.N,/SWDIO*%
X162600000Y-64000000D02*
X162600000Y-57400000D01*
X175800000Y-77200000D02*
X165600000Y-67000000D01*
X165600000Y-67000000D02*
X165000000Y-66400000D01*
X179200000Y-77200000D02*
X175800000Y-77200000D01*
X165000000Y-66400000D02*
X162600000Y-64000000D01*
%TO.N,/DIG2_1*%
X204447487Y-98152513D02*
X206194974Y-99900000D01*
X200447487Y-94152513D02*
X204447487Y-98152513D01*
X185000000Y-86000000D02*
X185450000Y-86450000D01*
X192744975Y-86450000D02*
X192744975Y-86450001D01*
X206194974Y-99900000D02*
X222200000Y-99900000D01*
X185450000Y-86450000D02*
X192744975Y-86450000D01*
X192744975Y-86450001D02*
X200447487Y-94152513D01*
%TO.N,/DIG1_8*%
X185050000Y-85200000D02*
X185950000Y-86100000D01*
X185950000Y-86100000D02*
X190800000Y-86100000D01*
X204700000Y-97900000D02*
X206200000Y-99400000D01*
X190800000Y-86100000D02*
X192900000Y-86100000D01*
X200400000Y-93600000D02*
X204700000Y-97900000D01*
X192900000Y-86100000D02*
X195600000Y-88800000D01*
X195600000Y-88800000D02*
X200400000Y-93600000D01*
X206200000Y-99400000D02*
X221200000Y-99400000D01*
%TO.N,/DIG1_2*%
X212600000Y-96800000D02*
X218400000Y-96800000D01*
X193600000Y-83800000D02*
X205400000Y-95600000D01*
X205400000Y-95600000D02*
X205500000Y-95700000D01*
X218400000Y-96800000D02*
X218800000Y-97200000D01*
X205500000Y-95700000D02*
X206600000Y-96800000D01*
X206600000Y-96800000D02*
X212600000Y-96800000D01*
X193600000Y-82200000D02*
X193600000Y-83800000D01*
%TO.N,/DIG1_4*%
X194147487Y-81947487D02*
X194147487Y-83852513D01*
X205744974Y-95450000D02*
X206594974Y-96300000D01*
X193400000Y-81200000D02*
X194147487Y-81947487D01*
X206594974Y-96300000D02*
X211200000Y-96300000D01*
X194147487Y-83852513D02*
X205744974Y-95450000D01*
%TO.N,/Depth_G*%
X229703554Y-90483554D02*
X231460000Y-92240000D01*
X223916446Y-90483554D02*
X229703554Y-90483554D01*
%TO.N,/Salinity_B*%
X183200000Y-78400000D02*
X185342461Y-76257539D01*
X210800000Y-66400000D02*
X219200000Y-58000000D01*
X219300000Y-57900000D02*
X219200000Y-58000000D01*
X195915077Y-66400000D02*
X210800000Y-66400000D01*
X186057539Y-76257539D02*
X191362565Y-70952513D01*
X234000000Y-55250000D02*
X231350000Y-57900000D01*
X231350000Y-57900000D02*
X219300000Y-57900000D01*
X185342461Y-76257539D02*
X186057539Y-76257539D01*
X191362565Y-70952513D02*
X192705025Y-69610052D01*
X192705025Y-69610052D02*
X195915077Y-66400000D01*
%TO.N,/Depth_A*%
X217800000Y-91892893D02*
X220046447Y-89646447D01*
X223840000Y-85852894D02*
X220046447Y-89646447D01*
X217800000Y-92600000D02*
X217800000Y-91892893D01*
X223840000Y-77000000D02*
X223840000Y-85852894D01*
%TO.N,/DIG3_1*%
X235100000Y-98900000D02*
X235200000Y-99000000D01*
X189750000Y-85750000D02*
X193044975Y-85750000D01*
X206194976Y-98900000D02*
X235100000Y-98900000D01*
X193044975Y-85750000D02*
X197547488Y-90252512D01*
X204747488Y-97452512D02*
X206194976Y-98900000D01*
X197547488Y-90252512D02*
X204747488Y-97452512D01*
X189600000Y-85600000D02*
X189750000Y-85750000D01*
%TO.N,/DIG2_8*%
X194000000Y-80200000D02*
X195242461Y-81442461D01*
X195242461Y-83957539D02*
X206034922Y-94750000D01*
X228200000Y-95400000D02*
X230000000Y-97200000D01*
X194000000Y-80200000D02*
X194200000Y-80200000D01*
X206034922Y-94750000D02*
X206684922Y-95400000D01*
X195242461Y-81442461D02*
X195242461Y-83957539D01*
X222200000Y-95400000D02*
X228200000Y-95400000D01*
X206684922Y-95400000D02*
X222200000Y-95400000D01*
%TO.N,/DIG2_4*%
X206589948Y-95800000D02*
X211200000Y-95800000D01*
X205889948Y-95100000D02*
X206589948Y-95800000D01*
X194200000Y-81200000D02*
X194694974Y-81694974D01*
X223000000Y-95800000D02*
X224400000Y-97200000D01*
X211200000Y-95800000D02*
X223000000Y-95800000D01*
X194694974Y-83905026D02*
X205889948Y-95100000D01*
X194694974Y-81694974D02*
X194694974Y-83905026D01*
%TO.N,/Salinity_C*%
X186005026Y-76805026D02*
X191507539Y-71302513D01*
X196010051Y-66800000D02*
X196060049Y-66750000D01*
X191507539Y-71302513D02*
X193055025Y-69755026D01*
X196060049Y-66750000D02*
X225180000Y-66750000D01*
X193055025Y-69755026D02*
X196010051Y-66800000D01*
X225180000Y-66750000D02*
X226800000Y-68370000D01*
X185594974Y-76805026D02*
X186005026Y-76805026D01*
X184000000Y-78400000D02*
X185594974Y-76805026D01*
%TO.N,/Salinity_DIG1*%
X191147487Y-73147487D02*
X193694974Y-70600000D01*
X196094974Y-68200000D02*
X196400000Y-68200000D01*
X186400000Y-78400000D02*
X186400000Y-78397918D01*
X186400000Y-77894974D02*
X191147487Y-73147487D01*
X193694974Y-70600000D02*
X196094974Y-68200000D01*
X186400000Y-78400000D02*
X186400000Y-77894974D01*
%TO.N,/Salinity_G*%
X187600000Y-78400000D02*
X187600000Y-77684922D01*
X196084922Y-69200000D02*
X230170000Y-69200000D01*
X230170000Y-69200000D02*
X231460000Y-70490000D01*
X187600000Y-77684922D02*
X196084922Y-69200000D01*
%TO.N,/Salinity_DIG2*%
X185600000Y-78200000D02*
X188200000Y-75600000D01*
X188200000Y-75599999D02*
X193549999Y-70250000D01*
X193549999Y-70250000D02*
X196199999Y-67600000D01*
X188200000Y-75600000D02*
X188200000Y-75599999D01*
X196199999Y-67600000D02*
X197000000Y-67600000D01*
%TO.N,/DIG2_2*%
X206200000Y-100400000D02*
X230480000Y-100400000D01*
X185000000Y-86800000D02*
X192600000Y-86800000D01*
X192600000Y-86800000D02*
X200900000Y-95100000D01*
X230480000Y-100400000D02*
X232000000Y-101920000D01*
X200900000Y-95100000D02*
X206200000Y-100400000D01*
%TO.N,/DIG3_4*%
X185000000Y-83200000D02*
X192000000Y-83200000D01*
X227000000Y-97800000D02*
X237000000Y-97800000D01*
X237000000Y-97800000D02*
X237200000Y-97600000D01*
X206600000Y-97800000D02*
X227000000Y-97800000D01*
X205300000Y-96500000D02*
X206600000Y-97800000D01*
X192000000Y-83200000D02*
X194300000Y-85500000D01*
X194300000Y-85500000D02*
X205300000Y-96500000D01*
%TO.N,/Salinity_DIG3*%
X184837435Y-75162565D02*
X186162565Y-75162565D01*
X181400000Y-78600000D02*
X184837435Y-75162565D01*
X195825128Y-65500000D02*
X197600000Y-65500000D01*
X190062565Y-71262565D02*
X190062565Y-71262563D01*
X190062565Y-71262563D02*
X195825128Y-65500000D01*
X186162565Y-75162565D02*
X190062565Y-71262565D01*
X181400000Y-79800000D02*
X181400000Y-78600000D01*
%TO.N,/DIG1_1*%
X192800000Y-82200000D02*
X192800000Y-83505026D01*
X205444974Y-96150000D02*
X206594974Y-97300000D01*
X192800000Y-83505026D02*
X193447487Y-84152513D01*
X206594974Y-97300000D02*
X212600000Y-97300000D01*
X193447487Y-84152513D02*
X205444974Y-96150000D01*
%TO.N,/Salinity_E*%
X188089948Y-77689948D02*
X188189948Y-77589948D01*
X195310000Y-70490000D02*
X196200000Y-69600000D01*
X193089948Y-72689947D02*
X193689947Y-72089947D01*
X188189948Y-77589948D02*
X193089948Y-72689948D01*
X188100000Y-77700000D02*
X188089948Y-77689948D01*
X188100000Y-78700000D02*
X188100000Y-77700000D01*
X196200000Y-69600000D02*
X220410000Y-69600000D01*
X193089948Y-72689948D02*
X193089948Y-72689947D01*
X195289894Y-70490000D02*
X193689947Y-72089947D01*
X195289894Y-70490000D02*
X195310000Y-70490000D01*
X220410000Y-69600000D02*
X221300000Y-70490000D01*
X187000000Y-79800000D02*
X188100000Y-78700000D01*
%TO.N,/Depth_F*%
X226380000Y-84020000D02*
X219600000Y-90800000D01*
X226380000Y-77000000D02*
X226380000Y-84020000D01*
%TO.N,/Salinity_F*%
X187800000Y-79800000D02*
X187800000Y-79600000D01*
X193439948Y-72834920D02*
X195434868Y-70840000D01*
X193439948Y-72834922D02*
X193439948Y-72834920D01*
X188539948Y-78860052D02*
X188539948Y-77734922D01*
X188539948Y-77734922D02*
X193337435Y-72937435D01*
X193337435Y-72937435D02*
X193439948Y-72834922D01*
X187800000Y-79600000D02*
X188539948Y-78860052D01*
X196344975Y-69950000D02*
X197000000Y-69950000D01*
X195454975Y-70840000D02*
X196344975Y-69950000D01*
X219150000Y-69950000D02*
X219400000Y-70200000D01*
X197000000Y-69950000D02*
X219150000Y-69950000D01*
X226380000Y-57380000D02*
X226380000Y-55250000D01*
X195434868Y-70840000D02*
X195454975Y-70840000D01*
X226400000Y-57400000D02*
X226380000Y-57380000D01*
%TO.N,/DIG3_8*%
X192284924Y-84000000D02*
X206434924Y-98150000D01*
X246600000Y-105210000D02*
X244810000Y-107000000D01*
X246600000Y-101400000D02*
X246600000Y-105210000D01*
X206434924Y-98150000D02*
X243350000Y-98150000D01*
X185000000Y-84000000D02*
X192284924Y-84000000D01*
X243350000Y-98150000D02*
X246600000Y-101400000D01*
%TO.N,/Salinity_DP*%
X224800000Y-68800000D02*
X225200000Y-68400000D01*
X187000000Y-77789948D02*
X192894974Y-71894974D01*
X193839948Y-70950000D02*
X195989948Y-68800000D01*
X187000000Y-79000000D02*
X187000000Y-77789948D01*
X192894974Y-71894974D02*
X193839948Y-70950000D01*
X195989948Y-68800000D02*
X222200000Y-68800000D01*
X222200000Y-68800000D02*
X224800000Y-68800000D01*
%TO.N,/DIG3_2*%
X241390000Y-98500000D02*
X244810000Y-101920000D01*
X206289950Y-98500000D02*
X241390000Y-98500000D01*
X190600000Y-85400000D02*
X193189949Y-85400000D01*
X190000000Y-84800000D02*
X190600000Y-85400000D01*
X193189949Y-85400000D02*
X197294975Y-89505025D01*
X197294975Y-89505025D02*
X206289950Y-98500000D01*
%TO.N,/Salinity_A*%
X190515078Y-71305026D02*
X190515078Y-71305024D01*
X220200000Y-56400000D02*
X222690000Y-56400000D01*
X182700000Y-78700000D02*
X182700000Y-78100000D01*
X210600000Y-66000000D02*
X220200000Y-56400000D01*
X185089948Y-75710052D02*
X186110052Y-75710052D01*
X183200000Y-79200000D02*
X182700000Y-78700000D01*
X182700000Y-78100000D02*
X185089948Y-75710052D01*
X195820102Y-66000000D02*
X210600000Y-66000000D01*
X222690000Y-56400000D02*
X223840000Y-55250000D01*
X190515078Y-71305024D02*
X195820102Y-66000000D01*
X186110052Y-75710052D02*
X190515078Y-71305026D01*
%TO.N,/Salinity_D*%
X221700000Y-67100000D02*
X222800000Y-68200000D01*
X196205024Y-67100000D02*
X221700000Y-67100000D01*
X184800000Y-78400000D02*
X184800000Y-78292893D01*
X185852513Y-77452513D02*
X191552513Y-71752513D01*
X185640380Y-77452513D02*
X185852513Y-77452513D01*
X193505026Y-69800000D02*
X193505026Y-69799998D01*
X184800000Y-78292893D02*
X185640380Y-77452513D01*
X193505026Y-69799998D02*
X196205024Y-67100000D01*
X191552513Y-71752512D02*
X193199999Y-70105026D01*
X193199999Y-70105026D02*
X193505026Y-69800000D01*
%TO.N,/Depth_B*%
X218706066Y-92401041D02*
X233800000Y-77307107D01*
X233800000Y-77307107D02*
X233800000Y-77200000D01*
X218598959Y-92401041D02*
X218706066Y-92401041D01*
%TO.N,Net-(J2-DAT0)*%
X183500000Y-62925000D02*
X184550000Y-62925000D01*
X182150000Y-64275000D02*
X183500000Y-62925000D01*
%TO.N,Net-(J2-DAT3{slash}CD)*%
X178950000Y-61375000D02*
X178825000Y-61500000D01*
X173277513Y-63052513D02*
X170372487Y-63052513D01*
X174830026Y-61500000D02*
X173277513Y-63052513D01*
X170372487Y-63052513D02*
X169150000Y-64275000D01*
X178825000Y-61500000D02*
X174830026Y-61500000D01*
%TO.N,Net-(J2-VSS)*%
X183324438Y-62456835D02*
X182281273Y-63500000D01*
X180325000Y-63500000D02*
X179550000Y-64275000D01*
X182281273Y-63500000D02*
X180325000Y-63500000D01*
%TO.N,Net-(J2-DET)*%
X186950000Y-62725000D02*
X186950000Y-63325000D01*
X187350000Y-63725000D02*
X187350000Y-64275000D01*
X186950000Y-63325000D02*
X187350000Y-63725000D01*
D19*
%TO.N,Net-(J2-VDD)*%
X176150000Y-62475000D02*
X174350000Y-64275000D01*
X181150000Y-62475000D02*
X176150000Y-62475000D01*
D20*
%TO.N,Net-(J2-CMD)*%
X180150000Y-61875000D02*
X174950000Y-61875000D01*
X172550000Y-64275000D02*
X171750000Y-64275000D01*
X174950000Y-61875000D02*
X172550000Y-64275000D01*
%TO.N,Net-(J2-CLK)*%
X178075000Y-63150000D02*
X176950000Y-64275000D01*
X181924166Y-63150000D02*
X178075000Y-63150000D01*
X182449583Y-62624583D02*
X181924166Y-63150000D01*
%TO.N,Net-(JP10-A)*%
X184750000Y-65575000D02*
X183537500Y-66787500D01*
X183537500Y-66787500D02*
X182762500Y-67562500D01*
X182762500Y-67562500D02*
X182662500Y-67662500D01*
%TO.N,Net-(JP3-A)*%
X166550000Y-65575000D02*
X167875000Y-66900000D01*
X167875000Y-66900000D02*
X169750000Y-66900000D01*
%TO.N,Net-(U4-DIG1)*%
X220000000Y-78300000D02*
X221300000Y-77000000D01*
X220000000Y-78800000D02*
X220000000Y-78300000D01*
%TD*%
%TA.AperFunction,Conductor*%
%TO.N,GND*%
G36*
X179743039Y-65344685D02*
G01*
X179788794Y-65397489D01*
X179800000Y-65449000D01*
X179800000Y-66275956D01*
X179780994Y-66341928D01*
X179692210Y-66483225D01*
X179638212Y-66637544D01*
X179619909Y-66799996D01*
X179619909Y-66800003D01*
X179638212Y-66962455D01*
X179692210Y-67116774D01*
X179779192Y-67255204D01*
X179838181Y-67314193D01*
X179871666Y-67375516D01*
X179874500Y-67401874D01*
X179874500Y-69311258D01*
X179854815Y-69378297D01*
X179802011Y-69424052D01*
X179732853Y-69433996D01*
X179669297Y-69404971D01*
X179662819Y-69398939D01*
X177051561Y-66787681D01*
X177018076Y-66726358D01*
X177023060Y-66656666D01*
X177051561Y-66612319D01*
X177052062Y-66611818D01*
X177113385Y-66578333D01*
X177139743Y-66575499D01*
X177747871Y-66575499D01*
X177747872Y-66575499D01*
X177807483Y-66569091D01*
X177942331Y-66518796D01*
X178057546Y-66432546D01*
X178125383Y-66341928D01*
X178149112Y-66310231D01*
X178151248Y-66311830D01*
X178190835Y-66272226D01*
X178259104Y-66257358D01*
X178324574Y-66281760D01*
X178349942Y-66311028D01*
X178351331Y-66309989D01*
X178442809Y-66432187D01*
X178442812Y-66432190D01*
X178557906Y-66518350D01*
X178557913Y-66518354D01*
X178692620Y-66568596D01*
X178692627Y-66568598D01*
X178752155Y-66574999D01*
X178752172Y-66575000D01*
X179300000Y-66575000D01*
X179300000Y-65449000D01*
X179319685Y-65381961D01*
X179372489Y-65336206D01*
X179424000Y-65325000D01*
X179676000Y-65325000D01*
X179743039Y-65344685D01*
G37*
%TD.AperFunction*%
%TA.AperFunction,Conductor*%
G36*
X247003471Y-50400695D02*
G01*
X247041470Y-50402828D01*
X247284106Y-50416454D01*
X247297909Y-50418010D01*
X247571584Y-50464509D01*
X247585123Y-50467599D01*
X247851874Y-50544449D01*
X247864993Y-50549040D01*
X248121445Y-50655265D01*
X248133967Y-50661294D01*
X248320623Y-50764456D01*
X248376921Y-50795571D01*
X248388695Y-50802969D01*
X248615081Y-50963598D01*
X248625953Y-50972268D01*
X248832931Y-51157235D01*
X248842764Y-51167068D01*
X249027731Y-51374046D01*
X249036401Y-51384918D01*
X249197030Y-51611304D01*
X249204428Y-51623078D01*
X249338701Y-51866025D01*
X249344734Y-51878554D01*
X249450959Y-52135006D01*
X249455552Y-52148130D01*
X249532397Y-52414865D01*
X249535491Y-52428422D01*
X249581988Y-52702082D01*
X249583545Y-52715900D01*
X249599305Y-52996527D01*
X249599500Y-53003480D01*
X249599500Y-108996519D01*
X249599305Y-109003472D01*
X249583545Y-109284099D01*
X249581988Y-109297917D01*
X249535491Y-109571577D01*
X249532397Y-109585134D01*
X249455552Y-109851869D01*
X249450959Y-109864993D01*
X249344734Y-110121445D01*
X249338701Y-110133974D01*
X249204428Y-110376921D01*
X249197030Y-110388695D01*
X249036401Y-110615081D01*
X249027731Y-110625953D01*
X248842764Y-110832931D01*
X248832931Y-110842764D01*
X248625953Y-111027731D01*
X248615081Y-111036401D01*
X248388695Y-111197030D01*
X248376921Y-111204428D01*
X248133974Y-111338701D01*
X248121445Y-111344734D01*
X247864993Y-111450959D01*
X247851869Y-111455552D01*
X247585134Y-111532397D01*
X247571577Y-111535491D01*
X247297917Y-111581988D01*
X247284099Y-111583545D01*
X247003472Y-111599305D01*
X246996519Y-111599500D01*
X161003481Y-111599500D01*
X160996528Y-111599305D01*
X160715900Y-111583545D01*
X160702082Y-111581988D01*
X160428422Y-111535491D01*
X160414865Y-111532397D01*
X160148130Y-111455552D01*
X160135006Y-111450959D01*
X159878554Y-111344734D01*
X159866025Y-111338701D01*
X159623078Y-111204428D01*
X159611304Y-111197030D01*
X159384918Y-111036401D01*
X159374046Y-111027731D01*
X159167068Y-110842764D01*
X159157235Y-110832931D01*
X158972268Y-110625953D01*
X158963598Y-110615081D01*
X158802969Y-110388695D01*
X158795571Y-110376921D01*
X158661298Y-110133974D01*
X158655265Y-110121445D01*
X158549040Y-109864993D01*
X158544447Y-109851869D01*
X158516302Y-109754174D01*
X158467599Y-109585123D01*
X158464508Y-109571577D01*
X158457900Y-109532685D01*
X158418010Y-109297909D01*
X158416454Y-109284106D01*
X158400695Y-109003471D01*
X158400500Y-108996519D01*
X158400500Y-104739999D01*
X160244341Y-104739999D01*
X160244341Y-104740000D01*
X160264936Y-104975403D01*
X160264938Y-104975413D01*
X160326094Y-105203655D01*
X160326096Y-105203659D01*
X160326097Y-105203663D01*
X160410556Y-105384785D01*
X160425965Y-105417830D01*
X160425967Y-105417834D01*
X160561501Y-105611395D01*
X160561506Y-105611402D01*
X160728597Y-105778493D01*
X160728603Y-105778498D01*
X160914158Y-105908425D01*
X160957783Y-105963002D01*
X160964977Y-106032500D01*
X160933454Y-106094855D01*
X160914158Y-106111575D01*
X160728597Y-106241505D01*
X160561505Y-106408597D01*
X160425965Y-106602169D01*
X160425964Y-106602171D01*
X160326098Y-106816335D01*
X160326094Y-106816344D01*
X160264938Y-107044586D01*
X160264936Y-107044596D01*
X160244341Y-107279999D01*
X160244341Y-107280000D01*
X160264936Y-107515403D01*
X160264938Y-107515413D01*
X160326094Y-107743655D01*
X160326096Y-107743659D01*
X160326097Y-107743663D01*
X160410556Y-107924785D01*
X160425965Y-107957830D01*
X160425967Y-107957834D01*
X160561501Y-108151395D01*
X160561506Y-108151402D01*
X160728597Y-108318493D01*
X160728603Y-108318498D01*
X160914594Y-108448730D01*
X160958219Y-108503307D01*
X160965413Y-108572805D01*
X160933890Y-108635160D01*
X160914595Y-108651880D01*
X160728922Y-108781890D01*
X160728920Y-108781891D01*
X160561891Y-108948920D01*
X160561886Y-108948926D01*
X160426400Y-109142420D01*
X160426399Y-109142422D01*
X160326570Y-109356507D01*
X160326567Y-109356513D01*
X160269364Y-109569999D01*
X160269364Y-109570000D01*
X161166988Y-109570000D01*
X161134075Y-109627007D01*
X161100000Y-109754174D01*
X161100000Y-109885826D01*
X161134075Y-110012993D01*
X161166988Y-110070000D01*
X160269364Y-110070000D01*
X160326567Y-110283486D01*
X160326570Y-110283492D01*
X160426399Y-110497578D01*
X160561894Y-110691082D01*
X160728917Y-110858105D01*
X160922421Y-110993600D01*
X161136507Y-111093429D01*
X161136516Y-111093433D01*
X161350000Y-111150634D01*
X161350000Y-110253012D01*
X161407007Y-110285925D01*
X161534174Y-110320000D01*
X161665826Y-110320000D01*
X161792993Y-110285925D01*
X161850000Y-110253012D01*
X161850000Y-111150633D01*
X162063483Y-111093433D01*
X162063492Y-111093429D01*
X162277578Y-110993600D01*
X162471082Y-110858105D01*
X162638105Y-110691082D01*
X162773600Y-110497578D01*
X162873429Y-110283492D01*
X162873432Y-110283486D01*
X162930636Y-110070000D01*
X162033012Y-110070000D01*
X162065925Y-110012993D01*
X162100000Y-109885826D01*
X162100000Y-109754174D01*
X162065925Y-109627007D01*
X162033012Y-109570000D01*
X162930636Y-109570000D01*
X162930635Y-109569999D01*
X162873432Y-109356513D01*
X162873429Y-109356507D01*
X162773600Y-109142422D01*
X162773599Y-109142420D01*
X162638113Y-108948926D01*
X162638108Y-108948920D01*
X162471078Y-108781890D01*
X162285405Y-108651879D01*
X162241780Y-108597302D01*
X162234588Y-108527804D01*
X162266110Y-108465449D01*
X162285406Y-108448730D01*
X162471401Y-108318495D01*
X162638495Y-108151401D01*
X162774035Y-107957830D01*
X162873903Y-107743663D01*
X162935063Y-107515408D01*
X162955659Y-107280000D01*
X162952342Y-107242093D01*
X162940556Y-107107379D01*
X162935063Y-107044592D01*
X162873903Y-106816337D01*
X162774035Y-106602171D01*
X162771550Y-106598621D01*
X162638494Y-106408597D01*
X162471402Y-106241506D01*
X162471396Y-106241501D01*
X162285842Y-106111575D01*
X162242217Y-106056998D01*
X162235023Y-105987500D01*
X162266546Y-105925145D01*
X162285842Y-105908425D01*
X162400909Y-105827854D01*
X162471401Y-105778495D01*
X162638495Y-105611401D01*
X162774035Y-105417830D01*
X162873903Y-105203663D01*
X162935063Y-104975408D01*
X162937097Y-104952155D01*
X186100000Y-104952155D01*
X186100000Y-105750000D01*
X187166988Y-105750000D01*
X187134075Y-105807007D01*
X187100000Y-105934174D01*
X187100000Y-106065826D01*
X187134075Y-106192993D01*
X187166988Y-106250000D01*
X186100000Y-106250000D01*
X186100000Y-107047844D01*
X186106401Y-107107372D01*
X186106403Y-107107379D01*
X186156645Y-107242086D01*
X186156649Y-107242093D01*
X186242809Y-107357187D01*
X186242812Y-107357190D01*
X186357906Y-107443350D01*
X186357913Y-107443354D01*
X186492620Y-107493596D01*
X186492627Y-107493598D01*
X186552155Y-107499999D01*
X186552172Y-107500000D01*
X187350000Y-107500000D01*
X187350000Y-106433012D01*
X187407007Y-106465925D01*
X187534174Y-106500000D01*
X187665826Y-106500000D01*
X187792993Y-106465925D01*
X187850000Y-106433012D01*
X187850000Y-107500000D01*
X188647828Y-107500000D01*
X188647844Y-107499999D01*
X188707372Y-107493598D01*
X188707379Y-107493596D01*
X188842086Y-107443354D01*
X188842093Y-107443350D01*
X188957187Y-107357190D01*
X188957190Y-107357187D01*
X189043350Y-107242093D01*
X189043354Y-107242086D01*
X189093596Y-107107379D01*
X189093598Y-107107372D01*
X189099999Y-107047844D01*
X189100000Y-107047827D01*
X189100000Y-106250000D01*
X188033012Y-106250000D01*
X188065925Y-106192993D01*
X188100000Y-106065826D01*
X188100000Y-105934174D01*
X188065925Y-105807007D01*
X188033012Y-105750000D01*
X189100000Y-105750000D01*
X189100000Y-104952172D01*
X189099999Y-104952155D01*
X189093598Y-104892627D01*
X189093596Y-104892620D01*
X189043354Y-104757913D01*
X189043350Y-104757906D01*
X188957190Y-104642812D01*
X188957187Y-104642809D01*
X188842093Y-104556649D01*
X188842086Y-104556645D01*
X188707379Y-104506403D01*
X188707372Y-104506401D01*
X188647844Y-104500000D01*
X187850000Y-104500000D01*
X187850000Y-105566988D01*
X187792993Y-105534075D01*
X187665826Y-105500000D01*
X187534174Y-105500000D01*
X187407007Y-105534075D01*
X187350000Y-105566988D01*
X187350000Y-104500000D01*
X186552155Y-104500000D01*
X186492627Y-104506401D01*
X186492620Y-104506403D01*
X186357913Y-104556645D01*
X186357906Y-104556649D01*
X186242812Y-104642809D01*
X186242809Y-104642812D01*
X186156649Y-104757906D01*
X186156645Y-104757913D01*
X186106403Y-104892620D01*
X186106401Y-104892627D01*
X186100000Y-104952155D01*
X162937097Y-104952155D01*
X162955659Y-104740000D01*
X162935063Y-104504592D01*
X162873903Y-104276337D01*
X162774035Y-104062171D01*
X162685204Y-103935307D01*
X162638496Y-103868600D01*
X162580353Y-103810457D01*
X162516567Y-103746671D01*
X162483084Y-103685351D01*
X162488068Y-103615659D01*
X162529939Y-103559725D01*
X162560915Y-103542810D01*
X162692331Y-103493796D01*
X162807546Y-103407546D01*
X162893796Y-103292331D01*
X162944091Y-103157483D01*
X162950500Y-103097873D01*
X162950499Y-101302128D01*
X162944091Y-101242517D01*
X162919977Y-101177865D01*
X162893797Y-101107671D01*
X162893793Y-101107664D01*
X162807547Y-100992455D01*
X162807544Y-100992452D01*
X162692335Y-100906206D01*
X162692328Y-100906202D01*
X162557482Y-100855908D01*
X162557483Y-100855908D01*
X162497883Y-100849501D01*
X162497881Y-100849500D01*
X162497873Y-100849500D01*
X162497864Y-100849500D01*
X160702129Y-100849500D01*
X160702123Y-100849501D01*
X160642516Y-100855908D01*
X160507671Y-100906202D01*
X160507664Y-100906206D01*
X160392455Y-100992452D01*
X160392452Y-100992455D01*
X160306206Y-101107664D01*
X160306202Y-101107671D01*
X160255908Y-101242517D01*
X160249501Y-101302116D01*
X160249501Y-101302123D01*
X160249500Y-101302135D01*
X160249500Y-103097870D01*
X160249501Y-103097876D01*
X160255908Y-103157483D01*
X160306202Y-103292328D01*
X160306206Y-103292335D01*
X160392452Y-103407544D01*
X160392455Y-103407547D01*
X160507664Y-103493793D01*
X160507671Y-103493797D01*
X160639081Y-103542810D01*
X160695015Y-103584681D01*
X160719432Y-103650145D01*
X160704580Y-103718418D01*
X160683430Y-103746673D01*
X160561503Y-103868600D01*
X160425965Y-104062169D01*
X160425964Y-104062171D01*
X160326098Y-104276335D01*
X160326094Y-104276344D01*
X160264938Y-104504586D01*
X160264936Y-104504596D01*
X160244341Y-104739999D01*
X158400500Y-104739999D01*
X158400500Y-92259999D01*
X160244341Y-92259999D01*
X160244341Y-92260000D01*
X160264936Y-92495403D01*
X160264938Y-92495413D01*
X160326094Y-92723655D01*
X160326096Y-92723659D01*
X160326097Y-92723663D01*
X160344186Y-92762455D01*
X160425965Y-92937830D01*
X160425967Y-92937834D01*
X160561501Y-93131395D01*
X160561506Y-93131402D01*
X160728597Y-93298493D01*
X160728603Y-93298498D01*
X160914158Y-93428425D01*
X160957783Y-93483002D01*
X160964977Y-93552500D01*
X160933454Y-93614855D01*
X160914158Y-93631575D01*
X160728597Y-93761505D01*
X160561505Y-93928597D01*
X160425965Y-94122169D01*
X160425964Y-94122171D01*
X160326098Y-94336335D01*
X160326094Y-94336344D01*
X160264938Y-94564586D01*
X160264936Y-94564596D01*
X160244341Y-94799999D01*
X160244341Y-94800000D01*
X160264936Y-95035403D01*
X160264938Y-95035413D01*
X160326094Y-95263655D01*
X160326096Y-95263659D01*
X160326097Y-95263663D01*
X160411633Y-95447094D01*
X160425965Y-95477830D01*
X160425967Y-95477834D01*
X160478855Y-95553365D01*
X160535587Y-95634387D01*
X160561501Y-95671395D01*
X160561506Y-95671402D01*
X160728597Y-95838493D01*
X160728603Y-95838498D01*
X160914594Y-95968730D01*
X160958219Y-96023307D01*
X160965413Y-96092805D01*
X160933890Y-96155160D01*
X160914595Y-96171880D01*
X160728922Y-96301890D01*
X160728920Y-96301891D01*
X160561891Y-96468920D01*
X160561886Y-96468926D01*
X160426400Y-96662420D01*
X160426399Y-96662422D01*
X160326570Y-96876507D01*
X160326567Y-96876513D01*
X160269364Y-97089999D01*
X160269364Y-97090000D01*
X161166988Y-97090000D01*
X161134075Y-97147007D01*
X161100000Y-97274174D01*
X161100000Y-97405826D01*
X161134075Y-97532993D01*
X161166988Y-97590000D01*
X160269364Y-97590000D01*
X160326567Y-97803486D01*
X160326570Y-97803492D01*
X160426399Y-98017578D01*
X160561894Y-98211082D01*
X160728917Y-98378105D01*
X160922421Y-98513600D01*
X161136507Y-98613429D01*
X161136516Y-98613433D01*
X161350000Y-98670634D01*
X161350000Y-97773012D01*
X161407007Y-97805925D01*
X161534174Y-97840000D01*
X161665826Y-97840000D01*
X161792993Y-97805925D01*
X161850000Y-97773012D01*
X161850000Y-98670633D01*
X162063483Y-98613433D01*
X162063492Y-98613429D01*
X162277578Y-98513600D01*
X162471082Y-98378105D01*
X162638105Y-98211082D01*
X162773600Y-98017578D01*
X162873429Y-97803492D01*
X162873432Y-97803486D01*
X162930636Y-97590000D01*
X162033012Y-97590000D01*
X162065925Y-97532993D01*
X162100000Y-97405826D01*
X162100000Y-97274174D01*
X162065925Y-97147007D01*
X162033012Y-97090000D01*
X162930636Y-97090000D01*
X162930635Y-97089999D01*
X162873432Y-96876513D01*
X162873429Y-96876507D01*
X162773600Y-96662422D01*
X162773599Y-96662420D01*
X162638113Y-96468926D01*
X162638108Y-96468920D01*
X162471078Y-96301890D01*
X162285405Y-96171879D01*
X162241780Y-96117302D01*
X162234588Y-96047804D01*
X162266110Y-95985449D01*
X162285406Y-95968730D01*
X162366729Y-95911787D01*
X162471401Y-95838495D01*
X162638495Y-95671401D01*
X162774035Y-95477830D01*
X162788367Y-95447093D01*
X162834540Y-95394656D01*
X162900749Y-95375500D01*
X165110258Y-95375500D01*
X165177297Y-95395185D01*
X165197939Y-95411819D01*
X165398800Y-95612680D01*
X165416111Y-95634387D01*
X165426497Y-95650915D01*
X165429192Y-95655204D01*
X165544796Y-95770808D01*
X165683225Y-95857789D01*
X165837539Y-95911786D01*
X165837542Y-95911786D01*
X165837544Y-95911787D01*
X165999996Y-95930091D01*
X166000000Y-95930091D01*
X166000004Y-95930091D01*
X166162455Y-95911787D01*
X166162456Y-95911786D01*
X166162461Y-95911786D01*
X166316775Y-95857789D01*
X166455204Y-95770808D01*
X166570808Y-95655204D01*
X166657789Y-95516775D01*
X166711786Y-95362461D01*
X166730091Y-95200000D01*
X166711786Y-95037539D01*
X166657789Y-94883225D01*
X166570808Y-94744796D01*
X166455204Y-94629192D01*
X166383517Y-94584148D01*
X166316774Y-94542210D01*
X166162455Y-94488212D01*
X166000004Y-94469909D01*
X166000001Y-94469909D01*
X166000000Y-94469909D01*
X165954893Y-94474990D01*
X165886072Y-94462935D01*
X165853331Y-94439451D01*
X165753367Y-94339487D01*
X165753365Y-94339485D01*
X165687750Y-94301602D01*
X165622136Y-94263719D01*
X165548950Y-94244109D01*
X165475766Y-94224500D01*
X165475765Y-94224500D01*
X162900748Y-94224500D01*
X162833709Y-94204815D01*
X162788366Y-94152904D01*
X162774036Y-94122174D01*
X162774035Y-94122171D01*
X162774033Y-94122168D01*
X162774032Y-94122166D01*
X162638494Y-93928597D01*
X162471402Y-93761506D01*
X162471396Y-93761501D01*
X162285842Y-93631575D01*
X162242217Y-93576998D01*
X162235023Y-93507500D01*
X162266546Y-93445145D01*
X162285842Y-93428425D01*
X162308026Y-93412891D01*
X162471401Y-93298495D01*
X162638495Y-93131401D01*
X162774035Y-92937830D01*
X162873903Y-92723663D01*
X162935063Y-92495408D01*
X162955659Y-92260000D01*
X162935063Y-92024592D01*
X162873903Y-91796337D01*
X162774035Y-91582171D01*
X162744178Y-91539531D01*
X162638496Y-91388600D01*
X162638495Y-91388599D01*
X162516567Y-91266671D01*
X162483084Y-91205351D01*
X162488068Y-91135659D01*
X162529939Y-91079725D01*
X162560915Y-91062810D01*
X162692331Y-91013796D01*
X162807546Y-90927546D01*
X162893796Y-90812331D01*
X162944091Y-90677483D01*
X162950500Y-90617873D01*
X162950499Y-88822128D01*
X162944091Y-88762517D01*
X162893796Y-88627669D01*
X162893795Y-88627668D01*
X162893793Y-88627664D01*
X162807547Y-88512455D01*
X162807544Y-88512452D01*
X162692335Y-88426206D01*
X162692328Y-88426202D01*
X162557482Y-88375908D01*
X162557483Y-88375908D01*
X162497883Y-88369501D01*
X162497881Y-88369500D01*
X162497873Y-88369500D01*
X162497864Y-88369500D01*
X160702129Y-88369500D01*
X160702123Y-88369501D01*
X160642516Y-88375908D01*
X160507671Y-88426202D01*
X160507664Y-88426206D01*
X160392455Y-88512452D01*
X160392452Y-88512455D01*
X160306206Y-88627664D01*
X160306202Y-88627671D01*
X160255908Y-88762517D01*
X160249501Y-88822116D01*
X160249501Y-88822123D01*
X160249500Y-88822135D01*
X160249500Y-90617870D01*
X160249501Y-90617876D01*
X160255908Y-90677483D01*
X160306202Y-90812328D01*
X160306206Y-90812335D01*
X160392452Y-90927544D01*
X160392455Y-90927547D01*
X160507664Y-91013793D01*
X160507671Y-91013797D01*
X160639081Y-91062810D01*
X160695015Y-91104681D01*
X160719432Y-91170145D01*
X160704580Y-91238418D01*
X160683430Y-91266673D01*
X160561503Y-91388600D01*
X160425965Y-91582169D01*
X160425964Y-91582171D01*
X160326098Y-91796335D01*
X160326094Y-91796344D01*
X160264938Y-92024586D01*
X160264936Y-92024596D01*
X160244341Y-92259999D01*
X158400500Y-92259999D01*
X158400500Y-53003480D01*
X158400695Y-52996528D01*
X158408577Y-52856166D01*
X158416455Y-52715891D01*
X158418009Y-52702092D01*
X158464510Y-52428412D01*
X158465463Y-52424234D01*
X161124500Y-52424234D01*
X161124500Y-64165715D01*
X161163719Y-64312086D01*
X161201602Y-64377700D01*
X161239485Y-64443315D01*
X161239487Y-64443317D01*
X169144510Y-72348340D01*
X175193206Y-78397035D01*
X175226691Y-78458358D01*
X175229525Y-78484716D01*
X175229525Y-80480790D01*
X175268744Y-80627161D01*
X175269917Y-80629192D01*
X175344510Y-80758390D01*
X175344512Y-80758392D01*
X184649867Y-90063747D01*
X184683352Y-90125070D01*
X184685406Y-90137541D01*
X184688214Y-90162460D01*
X184742210Y-90316774D01*
X184742211Y-90316775D01*
X184829192Y-90455204D01*
X184944796Y-90570808D01*
X185083225Y-90657789D01*
X185237539Y-90711786D01*
X185237542Y-90711786D01*
X185237544Y-90711787D01*
X185399996Y-90730091D01*
X185400000Y-90730091D01*
X185400004Y-90730091D01*
X185562455Y-90711787D01*
X185562456Y-90711786D01*
X185562461Y-90711786D01*
X185716775Y-90657789D01*
X185855204Y-90570808D01*
X185970808Y-90455204D01*
X186057789Y-90316775D01*
X186111786Y-90162461D01*
X186115999Y-90125070D01*
X186130091Y-90000003D01*
X186130091Y-89999996D01*
X186111787Y-89837544D01*
X186111786Y-89837542D01*
X186111786Y-89837539D01*
X186057789Y-89683225D01*
X185970808Y-89544796D01*
X185855204Y-89429192D01*
X185716774Y-89342210D01*
X185616457Y-89307108D01*
X185562461Y-89288214D01*
X185537540Y-89285405D01*
X185473128Y-89258337D01*
X185463747Y-89249867D01*
X176416844Y-80202964D01*
X176383359Y-80141641D01*
X176380525Y-80115283D01*
X176380525Y-78899500D01*
X176400210Y-78832461D01*
X176453014Y-78786706D01*
X176504525Y-78775500D01*
X178716539Y-78775500D01*
X178782510Y-78794505D01*
X178852334Y-78838379D01*
X178883227Y-78857790D01*
X179037531Y-78911784D01*
X179037535Y-78911784D01*
X179037539Y-78911786D01*
X179064382Y-78914810D01*
X179128794Y-78941874D01*
X179168351Y-78999467D01*
X179174500Y-79038030D01*
X179174500Y-80465715D01*
X179213719Y-80612086D01*
X179251602Y-80677700D01*
X179289485Y-80743315D01*
X180356685Y-81810515D01*
X180487915Y-81886281D01*
X180634284Y-81925500D01*
X180634286Y-81925500D01*
X189527846Y-81925500D01*
X189527848Y-81925500D01*
X189674217Y-81886281D01*
X189805447Y-81810515D01*
X190660515Y-80955447D01*
X190736281Y-80824217D01*
X190775500Y-80677848D01*
X190775500Y-80526315D01*
X190775500Y-78683460D01*
X190794507Y-78617487D01*
X190857786Y-78516779D01*
X190857789Y-78516775D01*
X190911786Y-78362461D01*
X190911786Y-78362459D01*
X190911787Y-78362457D01*
X190930091Y-78200003D01*
X190930091Y-78199997D01*
X190919233Y-78103634D01*
X190931287Y-78034812D01*
X190978636Y-77983433D01*
X191046246Y-77965808D01*
X191112652Y-77987534D01*
X191134603Y-78006778D01*
X191194129Y-78072888D01*
X191347265Y-78184148D01*
X191347270Y-78184151D01*
X191520192Y-78261142D01*
X191520197Y-78261144D01*
X191705354Y-78300500D01*
X191705355Y-78300500D01*
X191894644Y-78300500D01*
X191894646Y-78300500D01*
X192079803Y-78261144D01*
X192252730Y-78184151D01*
X192363553Y-78103634D01*
X192369681Y-78099182D01*
X192435487Y-78075702D01*
X192442566Y-78075500D01*
X195468837Y-78075500D01*
X195535876Y-78095185D01*
X195556518Y-78111819D01*
X206288181Y-88843482D01*
X206321666Y-88904805D01*
X206324500Y-88931163D01*
X206324500Y-93156842D01*
X206304815Y-93223881D01*
X206292650Y-93239814D01*
X206267470Y-93267778D01*
X206267465Y-93267785D01*
X206172821Y-93431715D01*
X206172818Y-93431722D01*
X206114327Y-93611740D01*
X206114326Y-93611744D01*
X206112242Y-93631575D01*
X206103098Y-93718575D01*
X206076513Y-93783190D01*
X206019216Y-93823174D01*
X205949397Y-93825834D01*
X205892096Y-93793294D01*
X195854280Y-83755478D01*
X195820795Y-83694155D01*
X195817961Y-83667797D01*
X195817961Y-81366693D01*
X195815315Y-81356822D01*
X195815312Y-81356812D01*
X195778742Y-81220326D01*
X195756965Y-81182607D01*
X195702976Y-81089096D01*
X195595826Y-80981946D01*
X195595825Y-80981945D01*
X195591495Y-80977615D01*
X195591484Y-80977605D01*
X194810932Y-80197052D01*
X194777447Y-80135729D01*
X194775674Y-80125558D01*
X194775500Y-80124241D01*
X194775500Y-80124234D01*
X194736281Y-79977865D01*
X194660515Y-79846635D01*
X194601199Y-79787319D01*
X194583886Y-79765610D01*
X194570807Y-79744795D01*
X194455204Y-79629192D01*
X194316774Y-79542210D01*
X194162455Y-79488212D01*
X194000004Y-79469909D01*
X193999996Y-79469909D01*
X193837544Y-79488212D01*
X193683225Y-79542210D01*
X193544795Y-79629192D01*
X193429192Y-79744795D01*
X193342210Y-79883225D01*
X193288212Y-80037544D01*
X193269909Y-80199996D01*
X193269909Y-80200003D01*
X193288851Y-80368120D01*
X193276797Y-80436941D01*
X193229447Y-80488321D01*
X193206586Y-80499044D01*
X193083227Y-80542209D01*
X192944795Y-80629192D01*
X192829192Y-80744795D01*
X192742210Y-80883225D01*
X192688212Y-81037544D01*
X192669909Y-81199996D01*
X192669909Y-81200003D01*
X192688851Y-81368120D01*
X192676797Y-81436941D01*
X192629447Y-81488321D01*
X192606586Y-81499044D01*
X192483227Y-81542209D01*
X192344795Y-81629192D01*
X192229192Y-81744795D01*
X192142210Y-81883225D01*
X192088212Y-82037544D01*
X192069909Y-82199996D01*
X192069909Y-82200003D01*
X192088212Y-82362454D01*
X192122186Y-82459546D01*
X192125747Y-82529324D01*
X192091018Y-82589952D01*
X192029025Y-82622179D01*
X192005144Y-82624500D01*
X185483461Y-82624500D01*
X185417489Y-82605494D01*
X185316774Y-82542210D01*
X185162455Y-82488212D01*
X185000004Y-82469909D01*
X184999996Y-82469909D01*
X184837544Y-82488212D01*
X184683225Y-82542210D01*
X184544795Y-82629192D01*
X184429192Y-82744795D01*
X184342210Y-82883225D01*
X184288212Y-83037544D01*
X184269909Y-83199996D01*
X184269909Y-83200003D01*
X184288212Y-83362455D01*
X184342211Y-83516776D01*
X184353053Y-83534032D01*
X184372051Y-83601269D01*
X184353053Y-83665968D01*
X184342211Y-83683223D01*
X184288212Y-83837544D01*
X184269909Y-83999996D01*
X184269909Y-84000003D01*
X184288212Y-84162455D01*
X184342210Y-84316774D01*
X184429192Y-84455204D01*
X184511306Y-84537318D01*
X184544791Y-84598641D01*
X184539807Y-84668333D01*
X184511309Y-84712678D01*
X184479191Y-84744797D01*
X184392210Y-84883225D01*
X184338212Y-85037544D01*
X184319909Y-85199996D01*
X184319909Y-85200003D01*
X184338212Y-85362455D01*
X184338213Y-85362460D01*
X184338214Y-85362461D01*
X184385722Y-85498230D01*
X184392014Y-85516212D01*
X184395575Y-85585991D01*
X184379966Y-85623137D01*
X184342211Y-85683223D01*
X184288212Y-85837544D01*
X184269909Y-85999996D01*
X184269909Y-86000003D01*
X184288212Y-86162455D01*
X184342211Y-86316776D01*
X184353053Y-86334032D01*
X184372051Y-86401269D01*
X184353053Y-86465968D01*
X184342211Y-86483223D01*
X184288212Y-86637544D01*
X184269909Y-86799996D01*
X184269909Y-86800003D01*
X184288212Y-86962455D01*
X184342210Y-87116774D01*
X184342211Y-87116775D01*
X184429192Y-87255204D01*
X184544796Y-87370808D01*
X184683225Y-87457789D01*
X184837539Y-87511786D01*
X184837542Y-87511786D01*
X184837544Y-87511787D01*
X184999996Y-87530091D01*
X185000000Y-87530091D01*
X185000004Y-87530091D01*
X185162455Y-87511787D01*
X185162456Y-87511786D01*
X185162461Y-87511786D01*
X185316775Y-87457789D01*
X185417489Y-87394505D01*
X185483461Y-87375500D01*
X192310258Y-87375500D01*
X192377297Y-87395185D01*
X192397939Y-87411819D01*
X200439485Y-95453365D01*
X205846635Y-100860515D01*
X205977865Y-100936281D01*
X206124234Y-100975500D01*
X206275767Y-100975500D01*
X209785585Y-100975500D01*
X209852624Y-100995185D01*
X209898379Y-101047989D01*
X209908323Y-101117147D01*
X209889393Y-101167322D01*
X209865827Y-101203391D01*
X209765936Y-101431118D01*
X209704892Y-101672175D01*
X209704890Y-101672187D01*
X209684357Y-101919994D01*
X209684357Y-101920005D01*
X209704890Y-102167812D01*
X209704892Y-102167824D01*
X209765936Y-102408881D01*
X209865826Y-102636606D01*
X210001833Y-102844782D01*
X210001836Y-102844785D01*
X210170256Y-103027738D01*
X210253008Y-103092147D01*
X210293821Y-103148857D01*
X210297496Y-103218630D01*
X210262864Y-103279313D01*
X210253014Y-103287848D01*
X210194400Y-103333469D01*
X210170257Y-103352261D01*
X210001833Y-103535217D01*
X209875674Y-103728321D01*
X209822528Y-103773678D01*
X209771865Y-103784500D01*
X205415964Y-103784500D01*
X205285471Y-103810457D01*
X205285463Y-103810459D01*
X205162534Y-103861378D01*
X205162524Y-103861383D01*
X205051894Y-103935304D01*
X205051890Y-103935307D01*
X203699018Y-105288181D01*
X203637695Y-105321666D01*
X203611337Y-105324500D01*
X199024499Y-105324500D01*
X198957460Y-105304815D01*
X198911705Y-105252011D01*
X198900499Y-105200500D01*
X198900499Y-104952129D01*
X198900498Y-104952123D01*
X198900497Y-104952116D01*
X198894091Y-104892517D01*
X198843884Y-104757906D01*
X198843797Y-104757671D01*
X198843793Y-104757664D01*
X198757547Y-104642455D01*
X198757544Y-104642452D01*
X198642335Y-104556206D01*
X198642328Y-104556202D01*
X198507482Y-104505908D01*
X198507483Y-104505908D01*
X198447883Y-104499501D01*
X198447881Y-104499500D01*
X198447873Y-104499500D01*
X198447864Y-104499500D01*
X196352129Y-104499500D01*
X196352123Y-104499501D01*
X196292516Y-104505908D01*
X196157671Y-104556202D01*
X196157664Y-104556206D01*
X196042455Y-104642452D01*
X196042452Y-104642455D01*
X195956206Y-104757664D01*
X195956202Y-104757671D01*
X195905908Y-104892517D01*
X195899501Y-104952116D01*
X195899501Y-104952123D01*
X195899500Y-104952135D01*
X195899500Y-107047870D01*
X195899501Y-107047876D01*
X195905908Y-107107483D01*
X195956202Y-107242328D01*
X195956206Y-107242335D01*
X196042452Y-107357544D01*
X196042455Y-107357547D01*
X196157664Y-107443793D01*
X196157671Y-107443797D01*
X196292517Y-107494091D01*
X196292516Y-107494091D01*
X196299444Y-107494835D01*
X196352127Y-107500500D01*
X198447872Y-107500499D01*
X198507483Y-107494091D01*
X198642331Y-107443796D01*
X198757546Y-107357546D01*
X198843796Y-107242331D01*
X198894091Y-107107483D01*
X198900500Y-107047873D01*
X198900500Y-106799500D01*
X198920185Y-106732461D01*
X198972989Y-106686706D01*
X199024500Y-106675500D01*
X204009032Y-106675500D01*
X204009033Y-106675499D01*
X204139536Y-106649541D01*
X204262469Y-106598620D01*
X204373106Y-106524695D01*
X205725982Y-105171819D01*
X205787305Y-105138334D01*
X205813663Y-105135500D01*
X209771865Y-105135500D01*
X209838904Y-105155185D01*
X209875674Y-105191679D01*
X210001833Y-105384782D01*
X210001836Y-105384785D01*
X210170256Y-105567738D01*
X210253008Y-105632147D01*
X210293821Y-105688857D01*
X210297496Y-105758630D01*
X210262864Y-105819313D01*
X210253014Y-105827848D01*
X210194400Y-105873469D01*
X210170257Y-105892261D01*
X210001833Y-106075217D01*
X209865826Y-106283393D01*
X209765936Y-106511118D01*
X209704892Y-106752175D01*
X209704890Y-106752187D01*
X209684357Y-106999994D01*
X209684357Y-107000005D01*
X209704890Y-107247812D01*
X209704892Y-107247824D01*
X209765936Y-107488881D01*
X209865826Y-107716606D01*
X210001833Y-107924782D01*
X210001836Y-107924785D01*
X210170256Y-108107738D01*
X210366491Y-108260474D01*
X210585190Y-108378828D01*
X210820386Y-108459571D01*
X211065665Y-108500500D01*
X211314335Y-108500500D01*
X211559614Y-108459571D01*
X211794810Y-108378828D01*
X212013509Y-108260474D01*
X212209744Y-108107738D01*
X212378164Y-107924785D01*
X212514173Y-107716607D01*
X212614063Y-107488881D01*
X212675108Y-107247821D01*
X212686737Y-107107482D01*
X212695643Y-107000005D01*
X212695643Y-106999994D01*
X212675109Y-106752187D01*
X212675107Y-106752175D01*
X212614063Y-106511118D01*
X212514173Y-106283393D01*
X212378166Y-106075217D01*
X212318129Y-106010000D01*
X212209744Y-105892262D01*
X212126991Y-105827852D01*
X212086179Y-105771143D01*
X212082504Y-105701370D01*
X212117136Y-105640687D01*
X212126985Y-105632151D01*
X212209744Y-105567738D01*
X212378164Y-105384785D01*
X212504326Y-105191678D01*
X212557472Y-105146322D01*
X212608135Y-105135500D01*
X217391865Y-105135500D01*
X217458904Y-105155185D01*
X217495674Y-105191679D01*
X217621833Y-105384782D01*
X217621836Y-105384785D01*
X217790256Y-105567738D01*
X217873008Y-105632147D01*
X217913821Y-105688857D01*
X217917496Y-105758630D01*
X217882864Y-105819313D01*
X217873014Y-105827848D01*
X217814400Y-105873469D01*
X217790257Y-105892261D01*
X217621833Y-106075217D01*
X217485826Y-106283393D01*
X217385936Y-106511118D01*
X217324892Y-106752175D01*
X217324890Y-106752187D01*
X217304357Y-106999994D01*
X217304357Y-107000005D01*
X217324890Y-107247812D01*
X217324892Y-107247824D01*
X217385936Y-107488881D01*
X217485826Y-107716606D01*
X217621833Y-107924782D01*
X217621836Y-107924785D01*
X217790256Y-108107738D01*
X217986491Y-108260474D01*
X218205190Y-108378828D01*
X218440386Y-108459571D01*
X218685665Y-108500500D01*
X218934335Y-108500500D01*
X219179614Y-108459571D01*
X219414810Y-108378828D01*
X219633509Y-108260474D01*
X219829744Y-108107738D01*
X219998164Y-107924785D01*
X220134173Y-107716607D01*
X220234063Y-107488881D01*
X220295108Y-107247821D01*
X220306737Y-107107482D01*
X220315643Y-107000005D01*
X220315643Y-106999994D01*
X220295109Y-106752187D01*
X220295107Y-106752175D01*
X220234063Y-106511118D01*
X220134173Y-106283393D01*
X219998166Y-106075217D01*
X219938129Y-106010000D01*
X219829744Y-105892262D01*
X219746991Y-105827852D01*
X219706179Y-105771143D01*
X219702504Y-105701370D01*
X219737136Y-105640687D01*
X219746985Y-105632151D01*
X219829744Y-105567738D01*
X219998164Y-105384785D01*
X220124326Y-105191678D01*
X220177472Y-105146322D01*
X220228135Y-105135500D01*
X222961865Y-105135500D01*
X223028904Y-105155185D01*
X223065674Y-105191679D01*
X223191833Y-105384782D01*
X223191836Y-105384785D01*
X223360256Y-105567738D01*
X223443008Y-105632147D01*
X223483821Y-105688857D01*
X223487496Y-105758630D01*
X223452864Y-105819313D01*
X223443014Y-105827848D01*
X223384400Y-105873469D01*
X223360257Y-105892261D01*
X223191833Y-106075217D01*
X223055826Y-106283393D01*
X222955936Y-106511118D01*
X222894892Y-106752175D01*
X222894890Y-106752187D01*
X222874357Y-106999994D01*
X222874357Y-107000005D01*
X222894890Y-107247812D01*
X222894892Y-107247824D01*
X222955936Y-107488881D01*
X223055826Y-107716606D01*
X223191833Y-107924782D01*
X223191836Y-107924785D01*
X223360256Y-108107738D01*
X223556491Y-108260474D01*
X223775190Y-108378828D01*
X224010386Y-108459571D01*
X224255665Y-108500500D01*
X224504335Y-108500500D01*
X224749614Y-108459571D01*
X224984810Y-108378828D01*
X225203509Y-108260474D01*
X225399744Y-108107738D01*
X225568164Y-107924785D01*
X225704173Y-107716607D01*
X225804063Y-107488881D01*
X225865108Y-107247821D01*
X225876737Y-107107482D01*
X225885643Y-107000005D01*
X225885643Y-106999994D01*
X225865109Y-106752187D01*
X225865107Y-106752175D01*
X225804063Y-106511118D01*
X225704173Y-106283393D01*
X225568166Y-106075217D01*
X225508129Y-106010000D01*
X225399744Y-105892262D01*
X225316991Y-105827852D01*
X225276179Y-105771143D01*
X225272504Y-105701370D01*
X225307136Y-105640687D01*
X225316985Y-105632151D01*
X225399744Y-105567738D01*
X225568164Y-105384785D01*
X225694326Y-105191678D01*
X225747472Y-105146322D01*
X225798135Y-105135500D01*
X230581865Y-105135500D01*
X230648904Y-105155185D01*
X230685674Y-105191679D01*
X230811833Y-105384782D01*
X230811836Y-105384785D01*
X230980256Y-105567738D01*
X231063008Y-105632147D01*
X231103821Y-105688857D01*
X231107496Y-105758630D01*
X231072864Y-105819313D01*
X231063014Y-105827848D01*
X231004400Y-105873469D01*
X230980257Y-105892261D01*
X230811833Y-106075217D01*
X230675826Y-106283393D01*
X230575936Y-106511118D01*
X230514892Y-106752175D01*
X230514890Y-106752187D01*
X230494357Y-106999994D01*
X230494357Y-107000005D01*
X230514890Y-107247812D01*
X230514892Y-107247824D01*
X230575936Y-107488881D01*
X230675826Y-107716606D01*
X230811833Y-107924782D01*
X230811836Y-107924785D01*
X230980256Y-108107738D01*
X231176491Y-108260474D01*
X231395190Y-108378828D01*
X231630386Y-108459571D01*
X231875665Y-108500500D01*
X232124335Y-108500500D01*
X232369614Y-108459571D01*
X232604810Y-108378828D01*
X232823509Y-108260474D01*
X233019744Y-108107738D01*
X233188164Y-107924785D01*
X233324173Y-107716607D01*
X233424063Y-107488881D01*
X233485108Y-107247821D01*
X233496737Y-107107482D01*
X233505643Y-107000005D01*
X233505643Y-106999994D01*
X233485109Y-106752187D01*
X233485107Y-106752175D01*
X233424063Y-106511118D01*
X233324173Y-106283393D01*
X233188166Y-106075217D01*
X233128129Y-106010000D01*
X233019744Y-105892262D01*
X232936991Y-105827852D01*
X232896179Y-105771143D01*
X232892504Y-105701370D01*
X232927136Y-105640687D01*
X232936985Y-105632151D01*
X233019744Y-105567738D01*
X233188164Y-105384785D01*
X233314326Y-105191678D01*
X233367472Y-105146322D01*
X233418135Y-105135500D01*
X235771865Y-105135500D01*
X235838904Y-105155185D01*
X235875674Y-105191679D01*
X236001833Y-105384782D01*
X236001836Y-105384785D01*
X236170256Y-105567738D01*
X236253008Y-105632147D01*
X236293821Y-105688857D01*
X236297496Y-105758630D01*
X236262864Y-105819313D01*
X236253014Y-105827848D01*
X236194400Y-105873469D01*
X236170257Y-105892261D01*
X236001833Y-106075217D01*
X235865826Y-106283393D01*
X235765936Y-106511118D01*
X235704892Y-106752175D01*
X235704890Y-106752187D01*
X235684357Y-106999994D01*
X235684357Y-107000005D01*
X235704890Y-107247812D01*
X235704892Y-107247824D01*
X235765936Y-107488881D01*
X235865826Y-107716606D01*
X236001833Y-107924782D01*
X236001836Y-107924785D01*
X236170256Y-108107738D01*
X236366491Y-108260474D01*
X236585190Y-108378828D01*
X236820386Y-108459571D01*
X237065665Y-108500500D01*
X237314335Y-108500500D01*
X237559614Y-108459571D01*
X237794810Y-108378828D01*
X238013509Y-108260474D01*
X238209744Y-108107738D01*
X238378164Y-107924785D01*
X238514173Y-107716607D01*
X238614063Y-107488881D01*
X238675108Y-107247821D01*
X238686737Y-107107482D01*
X238695643Y-107000005D01*
X238695643Y-106999994D01*
X238675109Y-106752187D01*
X238675107Y-106752175D01*
X238614063Y-106511118D01*
X238514173Y-106283393D01*
X238378166Y-106075217D01*
X238318129Y-106010000D01*
X238209744Y-105892262D01*
X238126991Y-105827852D01*
X238086179Y-105771143D01*
X238082504Y-105701370D01*
X238117136Y-105640687D01*
X238126985Y-105632151D01*
X238209744Y-105567738D01*
X238378164Y-105384785D01*
X238504326Y-105191678D01*
X238557472Y-105146322D01*
X238608135Y-105135500D01*
X243391865Y-105135500D01*
X243458904Y-105155185D01*
X243495674Y-105191679D01*
X243621833Y-105384782D01*
X243621836Y-105384785D01*
X243790256Y-105567738D01*
X243873008Y-105632147D01*
X243913821Y-105688857D01*
X243917496Y-105758630D01*
X243882864Y-105819313D01*
X243873014Y-105827848D01*
X243814400Y-105873469D01*
X243790257Y-105892261D01*
X243621833Y-106075217D01*
X243485826Y-106283393D01*
X243385936Y-106511118D01*
X243324892Y-106752175D01*
X243324890Y-106752187D01*
X243304357Y-106999994D01*
X243304357Y-107000005D01*
X243324890Y-107247812D01*
X243324892Y-107247824D01*
X243385936Y-107488881D01*
X243485826Y-107716606D01*
X243621833Y-107924782D01*
X243621836Y-107924785D01*
X243790256Y-108107738D01*
X243986491Y-108260474D01*
X244205190Y-108378828D01*
X244440386Y-108459571D01*
X244685665Y-108500500D01*
X244934335Y-108500500D01*
X245179614Y-108459571D01*
X245414810Y-108378828D01*
X245633509Y-108260474D01*
X245829744Y-108107738D01*
X245998164Y-107924785D01*
X246134173Y-107716607D01*
X246234063Y-107488881D01*
X246295108Y-107247821D01*
X246306737Y-107107482D01*
X246315643Y-107000005D01*
X246315643Y-106999994D01*
X246295109Y-106752187D01*
X246295107Y-106752175D01*
X246269116Y-106649540D01*
X246234063Y-106511119D01*
X246234062Y-106511116D01*
X246231109Y-106504383D01*
X246222206Y-106435083D01*
X246252184Y-106371971D01*
X246256966Y-106366911D01*
X246943155Y-105680723D01*
X246943160Y-105680719D01*
X246953363Y-105670515D01*
X246953365Y-105670515D01*
X247060515Y-105563365D01*
X247136281Y-105432135D01*
X247155475Y-105360500D01*
X247175500Y-105285767D01*
X247175500Y-105134234D01*
X247175500Y-101324234D01*
X247172588Y-101313368D01*
X247169576Y-101302128D01*
X247153604Y-101242517D01*
X247136281Y-101177865D01*
X247060515Y-101046635D01*
X243703365Y-97689485D01*
X243629791Y-97647007D01*
X243572136Y-97613719D01*
X243483613Y-97590000D01*
X243425766Y-97574500D01*
X243425765Y-97574500D01*
X238038031Y-97574500D01*
X237970992Y-97554815D01*
X237925237Y-97502011D01*
X237914811Y-97464382D01*
X237911787Y-97437545D01*
X237911786Y-97437543D01*
X237911786Y-97437539D01*
X237857789Y-97283225D01*
X237770808Y-97144796D01*
X237655204Y-97029192D01*
X237629147Y-97012819D01*
X237516774Y-96942210D01*
X237362455Y-96888212D01*
X237200004Y-96869909D01*
X237199996Y-96869909D01*
X237037544Y-96888212D01*
X236883225Y-96942210D01*
X236744795Y-97029192D01*
X236629190Y-97144797D01*
X236629188Y-97144800D01*
X236615572Y-97166471D01*
X236563238Y-97212763D01*
X236510578Y-97224500D01*
X230843665Y-97224500D01*
X230776626Y-97204815D01*
X230730871Y-97152011D01*
X230720445Y-97114384D01*
X230711787Y-97037544D01*
X230711786Y-97037542D01*
X230711786Y-97037539D01*
X230657789Y-96883225D01*
X230570808Y-96744796D01*
X230455204Y-96629192D01*
X230316774Y-96542210D01*
X230216457Y-96507108D01*
X230162461Y-96488214D01*
X230137540Y-96485405D01*
X230073128Y-96458337D01*
X230063747Y-96449867D01*
X228553367Y-94939487D01*
X228553365Y-94939485D01*
X228487750Y-94901602D01*
X228422136Y-94863719D01*
X228348950Y-94844109D01*
X228275766Y-94824500D01*
X228275765Y-94824500D01*
X207496271Y-94824500D01*
X207429232Y-94804815D01*
X207383477Y-94752011D01*
X207373533Y-94682853D01*
X207402558Y-94619297D01*
X207445832Y-94587221D01*
X207452730Y-94584151D01*
X207605871Y-94472888D01*
X207732533Y-94332216D01*
X207827179Y-94168284D01*
X207885674Y-93988256D01*
X207905460Y-93800000D01*
X207885674Y-93611744D01*
X207830033Y-93440500D01*
X207827181Y-93431722D01*
X207827180Y-93431721D01*
X207827179Y-93431716D01*
X207732533Y-93267784D01*
X207732529Y-93267778D01*
X207707350Y-93239814D01*
X207677120Y-93176822D01*
X207675500Y-93156842D01*
X207675500Y-92599996D01*
X217069909Y-92599996D01*
X217069909Y-92600003D01*
X217088212Y-92762455D01*
X217142210Y-92916774D01*
X217155443Y-92937834D01*
X217229192Y-93055204D01*
X217344796Y-93170808D01*
X217483225Y-93257789D01*
X217637539Y-93311786D01*
X217637542Y-93311786D01*
X217637544Y-93311787D01*
X217799996Y-93330091D01*
X217800000Y-93330091D01*
X217800004Y-93330091D01*
X217962455Y-93311787D01*
X217962456Y-93311786D01*
X217962461Y-93311786D01*
X218116775Y-93257789D01*
X218255204Y-93170808D01*
X218290055Y-93135957D01*
X218351377Y-93102471D01*
X218418690Y-93106595D01*
X218436498Y-93112827D01*
X218436501Y-93112827D01*
X218436503Y-93112828D01*
X218598955Y-93131132D01*
X218598959Y-93131132D01*
X218598963Y-93131132D01*
X218761414Y-93112828D01*
X218761415Y-93112827D01*
X218761420Y-93112827D01*
X218915734Y-93058830D01*
X219054163Y-92971849D01*
X219169767Y-92856245D01*
X219256748Y-92717816D01*
X219276238Y-92662114D01*
X219305597Y-92615388D01*
X219893735Y-92027250D01*
X219955056Y-91993767D01*
X220024748Y-91998751D01*
X220080681Y-92040623D01*
X220105098Y-92106087D01*
X220104885Y-92126373D01*
X220094357Y-92239997D01*
X220094357Y-92240000D01*
X220114884Y-92461535D01*
X220114885Y-92461537D01*
X220175769Y-92675523D01*
X220175775Y-92675538D01*
X220274938Y-92874683D01*
X220274943Y-92874691D01*
X220409020Y-93052238D01*
X220573437Y-93202123D01*
X220573439Y-93202125D01*
X220762595Y-93319245D01*
X220762596Y-93319245D01*
X220762599Y-93319247D01*
X220970060Y-93399618D01*
X221188757Y-93440500D01*
X221188759Y-93440500D01*
X221411241Y-93440500D01*
X221411243Y-93440500D01*
X221629940Y-93399618D01*
X221837401Y-93319247D01*
X222026562Y-93202124D01*
X222190981Y-93052236D01*
X222325058Y-92874689D01*
X222424229Y-92675528D01*
X222450734Y-92582371D01*
X222488013Y-92523278D01*
X222551323Y-92493721D01*
X222620562Y-92503083D01*
X222673749Y-92548393D01*
X222689266Y-92582372D01*
X222715769Y-92675523D01*
X222715775Y-92675538D01*
X222814938Y-92874683D01*
X222814943Y-92874691D01*
X222949020Y-93052238D01*
X223113437Y-93202123D01*
X223113439Y-93202125D01*
X223302595Y-93319245D01*
X223302596Y-93319245D01*
X223302599Y-93319247D01*
X223510060Y-93399618D01*
X223728757Y-93440500D01*
X223728759Y-93440500D01*
X223951241Y-93440500D01*
X223951243Y-93440500D01*
X224169940Y-93399618D01*
X224377401Y-93319247D01*
X224566562Y-93202124D01*
X224730981Y-93052236D01*
X224865058Y-92874689D01*
X224964229Y-92675528D01*
X224990734Y-92582371D01*
X225028013Y-92523278D01*
X225091323Y-92493721D01*
X225160562Y-92503083D01*
X225213749Y-92548393D01*
X225229266Y-92582372D01*
X225255769Y-92675523D01*
X225255775Y-92675538D01*
X225354938Y-92874683D01*
X225354943Y-92874691D01*
X225489020Y-93052238D01*
X225653437Y-93202123D01*
X225653439Y-93202125D01*
X225842595Y-93319245D01*
X225842596Y-93319245D01*
X225842599Y-93319247D01*
X226050060Y-93399618D01*
X226268757Y-93440500D01*
X226268759Y-93440500D01*
X226491241Y-93440500D01*
X226491243Y-93440500D01*
X226709940Y-93399618D01*
X226917401Y-93319247D01*
X227106562Y-93202124D01*
X227270981Y-93052236D01*
X227405058Y-92874689D01*
X227504229Y-92675528D01*
X227530734Y-92582371D01*
X227568013Y-92523278D01*
X227631323Y-92493721D01*
X227700562Y-92503083D01*
X227753749Y-92548393D01*
X227769266Y-92582372D01*
X227795769Y-92675523D01*
X227795775Y-92675538D01*
X227894938Y-92874683D01*
X227894943Y-92874691D01*
X228029020Y-93052238D01*
X228193437Y-93202123D01*
X228193439Y-93202125D01*
X228382595Y-93319245D01*
X228382596Y-93319245D01*
X228382599Y-93319247D01*
X228590060Y-93399618D01*
X228808757Y-93440500D01*
X228808759Y-93440500D01*
X229031241Y-93440500D01*
X229031243Y-93440500D01*
X229249940Y-93399618D01*
X229457401Y-93319247D01*
X229646562Y-93202124D01*
X229810981Y-93052236D01*
X229945058Y-92874689D01*
X230044229Y-92675528D01*
X230070734Y-92582371D01*
X230108013Y-92523278D01*
X230171323Y-92493721D01*
X230240562Y-92503083D01*
X230293749Y-92548393D01*
X230309266Y-92582372D01*
X230335769Y-92675523D01*
X230335775Y-92675538D01*
X230434938Y-92874683D01*
X230434943Y-92874691D01*
X230569020Y-93052238D01*
X230733437Y-93202123D01*
X230733439Y-93202125D01*
X230922595Y-93319245D01*
X230922596Y-93319245D01*
X230922599Y-93319247D01*
X231130060Y-93399618D01*
X231348757Y-93440500D01*
X231348759Y-93440500D01*
X231571241Y-93440500D01*
X231571243Y-93440500D01*
X231789940Y-93399618D01*
X231997401Y-93319247D01*
X232186562Y-93202124D01*
X232350981Y-93052236D01*
X232485058Y-92874689D01*
X232584229Y-92675528D01*
X232610734Y-92582371D01*
X232648013Y-92523278D01*
X232711323Y-92493721D01*
X232780562Y-92503083D01*
X232833749Y-92548393D01*
X232849266Y-92582372D01*
X232875769Y-92675523D01*
X232875775Y-92675538D01*
X232974938Y-92874683D01*
X232974943Y-92874691D01*
X233109020Y-93052238D01*
X233273437Y-93202123D01*
X233273439Y-93202125D01*
X233462595Y-93319245D01*
X233462596Y-93319245D01*
X233462599Y-93319247D01*
X233670060Y-93399618D01*
X233888757Y-93440500D01*
X233888759Y-93440500D01*
X234111241Y-93440500D01*
X234111243Y-93440500D01*
X234329940Y-93399618D01*
X234537401Y-93319247D01*
X234726562Y-93202124D01*
X234890981Y-93052236D01*
X235025058Y-92874689D01*
X235124229Y-92675528D01*
X235185115Y-92461536D01*
X235205643Y-92240000D01*
X235185115Y-92018464D01*
X235124229Y-91804472D01*
X235120179Y-91796338D01*
X235025061Y-91605316D01*
X235025056Y-91605308D01*
X234890979Y-91427761D01*
X234726562Y-91277876D01*
X234726560Y-91277874D01*
X234537404Y-91160754D01*
X234537398Y-91160752D01*
X234537388Y-91160748D01*
X234329940Y-91080382D01*
X234111243Y-91039500D01*
X233888757Y-91039500D01*
X233670060Y-91080382D01*
X233570900Y-91118797D01*
X233462601Y-91160752D01*
X233462595Y-91160754D01*
X233273439Y-91277874D01*
X233273437Y-91277876D01*
X233109020Y-91427761D01*
X232974943Y-91605308D01*
X232974938Y-91605316D01*
X232875775Y-91804461D01*
X232875769Y-91804476D01*
X232849266Y-91897627D01*
X232811987Y-91956721D01*
X232748677Y-91986278D01*
X232679438Y-91976916D01*
X232626251Y-91931606D01*
X232610734Y-91897627D01*
X232584230Y-91804476D01*
X232584229Y-91804472D01*
X232580179Y-91796338D01*
X232485061Y-91605316D01*
X232485056Y-91605308D01*
X232350979Y-91427761D01*
X232186562Y-91277876D01*
X232186560Y-91277874D01*
X231997404Y-91160754D01*
X231997398Y-91160752D01*
X231997388Y-91160748D01*
X231789940Y-91080382D01*
X231571243Y-91039500D01*
X231348757Y-91039500D01*
X231180998Y-91070860D01*
X231111483Y-91063829D01*
X231070532Y-91036652D01*
X230056921Y-90023041D01*
X230056919Y-90023039D01*
X229991304Y-89985156D01*
X229925690Y-89947273D01*
X229852504Y-89927663D01*
X229779320Y-89908054D01*
X229779319Y-89908054D01*
X224399907Y-89908054D01*
X224333935Y-89889048D01*
X224233220Y-89825764D01*
X224078901Y-89771766D01*
X223916450Y-89753463D01*
X223916442Y-89753463D01*
X223753990Y-89771766D01*
X223599671Y-89825764D01*
X223461241Y-89912746D01*
X223345638Y-90028349D01*
X223258656Y-90166779D01*
X223204658Y-90321098D01*
X223186355Y-90483550D01*
X223186355Y-90483557D01*
X223204658Y-90646009D01*
X223258656Y-90800328D01*
X223345638Y-90938758D01*
X223359064Y-90952184D01*
X223392549Y-91013507D01*
X223387565Y-91083199D01*
X223345693Y-91139132D01*
X223316181Y-91155490D01*
X223302607Y-91160748D01*
X223302595Y-91160754D01*
X223113439Y-91277874D01*
X223113437Y-91277876D01*
X222949020Y-91427761D01*
X222814943Y-91605308D01*
X222814938Y-91605316D01*
X222715775Y-91804461D01*
X222715769Y-91804476D01*
X222689266Y-91897627D01*
X222651987Y-91956721D01*
X222588677Y-91986278D01*
X222519438Y-91976916D01*
X222466251Y-91931606D01*
X222450734Y-91897627D01*
X222424230Y-91804476D01*
X222424229Y-91804472D01*
X222420179Y-91796338D01*
X222325061Y-91605316D01*
X222325056Y-91605308D01*
X222190979Y-91427761D01*
X222026562Y-91277876D01*
X222026560Y-91277874D01*
X221837404Y-91160754D01*
X221837398Y-91160752D01*
X221837388Y-91160748D01*
X221629940Y-91080382D01*
X221411243Y-91039500D01*
X221188757Y-91039500D01*
X221183024Y-91039500D01*
X221183024Y-91037426D01*
X221123483Y-91025771D01*
X221073057Y-90977408D01*
X221056783Y-90909460D01*
X221079828Y-90843500D01*
X221092938Y-90828047D01*
X233700770Y-78220214D01*
X233762091Y-78186731D01*
X233811233Y-78186008D01*
X233888757Y-78200500D01*
X233888759Y-78200500D01*
X234111241Y-78200500D01*
X234111243Y-78200500D01*
X234329940Y-78159618D01*
X234537401Y-78079247D01*
X234726562Y-77962124D01*
X234890981Y-77812236D01*
X235025058Y-77634689D01*
X235124229Y-77435528D01*
X235185115Y-77221536D01*
X235205643Y-77000000D01*
X235194088Y-76875305D01*
X235185115Y-76778464D01*
X235185114Y-76778462D01*
X235177146Y-76750459D01*
X235124229Y-76564472D01*
X235124224Y-76564461D01*
X235025061Y-76365316D01*
X235025056Y-76365308D01*
X234890979Y-76187761D01*
X234726562Y-76037876D01*
X234726560Y-76037874D01*
X234537404Y-75920754D01*
X234537398Y-75920752D01*
X234329940Y-75840382D01*
X234111243Y-75799500D01*
X233888757Y-75799500D01*
X233670060Y-75840382D01*
X233538864Y-75891207D01*
X233462601Y-75920752D01*
X233462595Y-75920754D01*
X233273439Y-76037874D01*
X233273437Y-76037876D01*
X233109020Y-76187761D01*
X232974943Y-76365308D01*
X232974938Y-76365316D01*
X232875775Y-76564461D01*
X232875769Y-76564476D01*
X232849266Y-76657627D01*
X232811987Y-76716721D01*
X232748677Y-76746278D01*
X232679438Y-76736916D01*
X232626251Y-76691606D01*
X232610734Y-76657627D01*
X232584230Y-76564476D01*
X232584229Y-76564472D01*
X232584224Y-76564461D01*
X232485061Y-76365316D01*
X232485056Y-76365308D01*
X232350979Y-76187761D01*
X232186562Y-76037876D01*
X232186560Y-76037874D01*
X231997404Y-75920754D01*
X231997398Y-75920752D01*
X231789940Y-75840382D01*
X231571243Y-75799500D01*
X231348757Y-75799500D01*
X231130060Y-75840382D01*
X230998864Y-75891207D01*
X230922601Y-75920752D01*
X230922595Y-75920754D01*
X230733439Y-76037874D01*
X230733437Y-76037876D01*
X230569020Y-76187761D01*
X230434943Y-76365308D01*
X230434938Y-76365316D01*
X230335775Y-76564461D01*
X230335769Y-76564476D01*
X230309266Y-76657627D01*
X230271987Y-76716721D01*
X230208677Y-76746278D01*
X230139438Y-76736916D01*
X230086251Y-76691606D01*
X230070734Y-76657627D01*
X230044230Y-76564476D01*
X230044229Y-76564472D01*
X230044224Y-76564461D01*
X229945061Y-76365316D01*
X229945056Y-76365308D01*
X229810979Y-76187761D01*
X229646562Y-76037876D01*
X229646560Y-76037874D01*
X229457404Y-75920754D01*
X229457398Y-75920752D01*
X229249940Y-75840382D01*
X229031243Y-75799500D01*
X228808757Y-75799500D01*
X228590060Y-75840382D01*
X228458864Y-75891207D01*
X228382601Y-75920752D01*
X228382595Y-75920754D01*
X228193439Y-76037874D01*
X228193437Y-76037876D01*
X228029020Y-76187761D01*
X227894943Y-76365308D01*
X227894938Y-76365316D01*
X227795775Y-76564461D01*
X227795769Y-76564476D01*
X227769266Y-76657627D01*
X227731987Y-76716721D01*
X227668677Y-76746278D01*
X227599438Y-76736916D01*
X227546251Y-76691606D01*
X227530734Y-76657627D01*
X227504230Y-76564476D01*
X227504229Y-76564472D01*
X227504224Y-76564461D01*
X227405061Y-76365316D01*
X227405056Y-76365308D01*
X227270979Y-76187761D01*
X227106562Y-76037876D01*
X227106560Y-76037874D01*
X226917404Y-75920754D01*
X226917398Y-75920752D01*
X226709940Y-75840382D01*
X226491243Y-75799500D01*
X226268757Y-75799500D01*
X226050060Y-75840382D01*
X225918864Y-75891207D01*
X225842601Y-75920752D01*
X225842595Y-75920754D01*
X225653439Y-76037874D01*
X225653437Y-76037876D01*
X225489020Y-76187761D01*
X225354943Y-76365308D01*
X225354938Y-76365316D01*
X225255775Y-76564461D01*
X225255769Y-76564476D01*
X225229266Y-76657627D01*
X225191987Y-76716721D01*
X225128677Y-76746278D01*
X225059438Y-76736916D01*
X225006251Y-76691606D01*
X224990734Y-76657627D01*
X224964230Y-76564476D01*
X224964229Y-76564472D01*
X224964224Y-76564461D01*
X224865061Y-76365316D01*
X224865056Y-76365308D01*
X224730979Y-76187761D01*
X224566562Y-76037876D01*
X224566560Y-76037874D01*
X224377404Y-75920754D01*
X224377398Y-75920752D01*
X224169940Y-75840382D01*
X223951243Y-75799500D01*
X223728757Y-75799500D01*
X223510060Y-75840382D01*
X223378864Y-75891207D01*
X223302601Y-75920752D01*
X223302595Y-75920754D01*
X223113439Y-76037874D01*
X223113437Y-76037876D01*
X222949020Y-76187761D01*
X222814943Y-76365308D01*
X222814938Y-76365316D01*
X222715775Y-76564461D01*
X222715769Y-76564476D01*
X222689266Y-76657627D01*
X222651987Y-76716721D01*
X222588677Y-76746278D01*
X222519438Y-76736916D01*
X222466251Y-76691606D01*
X222450734Y-76657627D01*
X222424230Y-76564476D01*
X222424229Y-76564472D01*
X222424224Y-76564461D01*
X222325061Y-76365316D01*
X222325056Y-76365308D01*
X222190979Y-76187761D01*
X222026562Y-76037876D01*
X222026560Y-76037874D01*
X221837404Y-75920754D01*
X221837398Y-75920752D01*
X221629940Y-75840382D01*
X221411243Y-75799500D01*
X221188757Y-75799500D01*
X220970060Y-75840382D01*
X220838864Y-75891207D01*
X220762601Y-75920752D01*
X220762595Y-75920754D01*
X220573439Y-76037874D01*
X220573437Y-76037876D01*
X220409020Y-76187761D01*
X220274943Y-76365308D01*
X220274938Y-76365316D01*
X220175775Y-76564461D01*
X220175769Y-76564476D01*
X220114885Y-76778462D01*
X220114884Y-76778464D01*
X220094357Y-76999999D01*
X220094357Y-77000000D01*
X220114884Y-77221533D01*
X220128102Y-77267989D01*
X220127514Y-77337856D01*
X220096516Y-77389603D01*
X219646635Y-77839485D01*
X219539487Y-77946632D01*
X219539485Y-77946635D01*
X219463719Y-78077863D01*
X219424500Y-78224234D01*
X219424500Y-78316538D01*
X219405494Y-78382510D01*
X219342210Y-78483225D01*
X219288212Y-78637544D01*
X219269909Y-78799996D01*
X219269909Y-78800003D01*
X219288212Y-78962455D01*
X219342210Y-79116774D01*
X219416770Y-79235435D01*
X219429192Y-79255204D01*
X219544796Y-79370808D01*
X219683225Y-79457789D01*
X219837539Y-79511786D01*
X219837542Y-79511786D01*
X219837544Y-79511787D01*
X219999996Y-79530091D01*
X220000000Y-79530091D01*
X220000004Y-79530091D01*
X220162455Y-79511787D01*
X220162456Y-79511786D01*
X220162461Y-79511786D01*
X220316775Y-79457789D01*
X220455204Y-79370808D01*
X220570808Y-79255204D01*
X220657789Y-79116775D01*
X220711786Y-78962461D01*
X220711787Y-78962455D01*
X220730091Y-78800003D01*
X220730091Y-78799996D01*
X220711787Y-78637544D01*
X220711786Y-78637542D01*
X220711786Y-78637539D01*
X220676487Y-78536662D01*
X220672925Y-78466888D01*
X220705846Y-78408032D01*
X220910533Y-78203345D01*
X220971854Y-78169862D01*
X221020992Y-78169139D01*
X221188757Y-78200500D01*
X221188760Y-78200500D01*
X221411241Y-78200500D01*
X221411243Y-78200500D01*
X221629940Y-78159618D01*
X221837401Y-78079247D01*
X222026562Y-77962124D01*
X222190981Y-77812236D01*
X222325058Y-77634689D01*
X222424229Y-77435528D01*
X222450734Y-77342371D01*
X222488013Y-77283278D01*
X222551323Y-77253721D01*
X222620562Y-77263083D01*
X222673749Y-77308393D01*
X222689266Y-77342372D01*
X222715769Y-77435523D01*
X222715775Y-77435538D01*
X222814938Y-77634683D01*
X222814943Y-77634691D01*
X222949020Y-77812238D01*
X223113434Y-77962121D01*
X223113436Y-77962122D01*
X223113438Y-77962124D01*
X223205780Y-78019299D01*
X223252413Y-78071324D01*
X223264500Y-78124724D01*
X223264500Y-85563152D01*
X223244815Y-85630191D01*
X223228181Y-85650833D01*
X219693082Y-89185932D01*
X217339487Y-91539525D01*
X217339483Y-91539531D01*
X217263720Y-91670755D01*
X217263719Y-91670757D01*
X217230072Y-91796335D01*
X217230071Y-91796338D01*
X217224500Y-91817126D01*
X217224500Y-92116538D01*
X217205494Y-92182510D01*
X217142210Y-92283225D01*
X217088212Y-92437544D01*
X217069909Y-92599996D01*
X207675500Y-92599996D01*
X207675500Y-88533466D01*
X207649541Y-88402969D01*
X207649540Y-88402968D01*
X207649540Y-88402964D01*
X207598620Y-88280031D01*
X207524695Y-88169394D01*
X207430606Y-88075305D01*
X198030606Y-78675305D01*
X197165921Y-77810620D01*
X196230609Y-76875307D01*
X196230605Y-76875304D01*
X196119975Y-76801383D01*
X196119965Y-76801378D01*
X195997036Y-76750459D01*
X195997028Y-76750457D01*
X195866535Y-76724500D01*
X195866531Y-76724500D01*
X192599500Y-76724500D01*
X192532461Y-76704815D01*
X192486706Y-76652011D01*
X192475500Y-76600500D01*
X192475500Y-76131163D01*
X192495185Y-76064124D01*
X192511819Y-76043482D01*
X192755801Y-75799500D01*
X193419073Y-75136227D01*
X193480394Y-75102744D01*
X193493793Y-75100589D01*
X193494631Y-75100500D01*
X193494646Y-75100500D01*
X193679803Y-75061144D01*
X193852730Y-74984151D01*
X194005871Y-74872888D01*
X194132533Y-74732216D01*
X194227179Y-74568284D01*
X194285674Y-74388256D01*
X194305460Y-74200000D01*
X194285674Y-74011744D01*
X194227179Y-73831716D01*
X194132533Y-73667784D01*
X194005871Y-73527112D01*
X194005870Y-73527111D01*
X193866032Y-73425513D01*
X193823366Y-73370183D01*
X193817387Y-73300570D01*
X193849993Y-73238775D01*
X193851236Y-73237514D01*
X193900463Y-73188287D01*
X193900463Y-73188285D01*
X193909361Y-73179388D01*
X193909369Y-73179377D01*
X195749224Y-71339522D01*
X195774903Y-71319819D01*
X195808340Y-71300515D01*
X196547036Y-70561819D01*
X196608359Y-70528334D01*
X196634717Y-70525500D01*
X196924234Y-70525500D01*
X218679161Y-70525500D01*
X218746200Y-70545185D01*
X218784154Y-70583527D01*
X218829192Y-70655204D01*
X218944796Y-70770808D01*
X219083225Y-70857789D01*
X219237539Y-70911786D01*
X219237542Y-70911786D01*
X219237544Y-70911787D01*
X219399996Y-70930091D01*
X219400000Y-70930091D01*
X219400004Y-70930091D01*
X219562455Y-70911787D01*
X219562456Y-70911786D01*
X219562461Y-70911786D01*
X219716775Y-70857789D01*
X219855204Y-70770808D01*
X219921294Y-70704717D01*
X219982613Y-70671235D01*
X220052305Y-70676219D01*
X220108239Y-70718090D01*
X220128238Y-70758467D01*
X220175769Y-70925523D01*
X220175775Y-70925538D01*
X220274938Y-71124683D01*
X220274943Y-71124691D01*
X220409020Y-71302238D01*
X220573437Y-71452123D01*
X220573439Y-71452125D01*
X220762595Y-71569245D01*
X220762596Y-71569245D01*
X220762599Y-71569247D01*
X220970060Y-71649618D01*
X221188757Y-71690500D01*
X221188759Y-71690500D01*
X221411241Y-71690500D01*
X221411243Y-71690500D01*
X221629940Y-71649618D01*
X221837401Y-71569247D01*
X222026562Y-71452124D01*
X222190981Y-71302236D01*
X222325058Y-71124689D01*
X222424229Y-70925528D01*
X222450734Y-70832371D01*
X222488013Y-70773278D01*
X222551323Y-70743721D01*
X222620562Y-70753083D01*
X222673749Y-70798393D01*
X222689266Y-70832372D01*
X222715769Y-70925523D01*
X222715775Y-70925538D01*
X222814938Y-71124683D01*
X222814943Y-71124691D01*
X222949020Y-71302238D01*
X223113437Y-71452123D01*
X223113439Y-71452125D01*
X223302595Y-71569245D01*
X223302596Y-71569245D01*
X223302599Y-71569247D01*
X223510060Y-71649618D01*
X223728757Y-71690500D01*
X223728759Y-71690500D01*
X223951241Y-71690500D01*
X223951243Y-71690500D01*
X224169940Y-71649618D01*
X224377401Y-71569247D01*
X224566562Y-71452124D01*
X224730981Y-71302236D01*
X224865058Y-71124689D01*
X224964229Y-70925528D01*
X224990734Y-70832371D01*
X225028013Y-70773278D01*
X225091323Y-70743721D01*
X225160562Y-70753083D01*
X225213749Y-70798393D01*
X225229266Y-70832372D01*
X225255769Y-70925523D01*
X225255775Y-70925538D01*
X225354938Y-71124683D01*
X225354943Y-71124691D01*
X225489020Y-71302238D01*
X225653437Y-71452123D01*
X225653439Y-71452125D01*
X225842595Y-71569245D01*
X225842596Y-71569245D01*
X225842599Y-71569247D01*
X226050060Y-71649618D01*
X226268757Y-71690500D01*
X226268759Y-71690500D01*
X226491241Y-71690500D01*
X226491243Y-71690500D01*
X226709940Y-71649618D01*
X226917401Y-71569247D01*
X227106562Y-71452124D01*
X227270981Y-71302236D01*
X227405058Y-71124689D01*
X227504229Y-70925528D01*
X227530734Y-70832371D01*
X227568013Y-70773278D01*
X227631323Y-70743721D01*
X227700562Y-70753083D01*
X227753749Y-70798393D01*
X227769266Y-70832372D01*
X227795769Y-70925523D01*
X227795775Y-70925538D01*
X227894938Y-71124683D01*
X227894943Y-71124691D01*
X228029020Y-71302238D01*
X228193437Y-71452123D01*
X228193439Y-71452125D01*
X228382595Y-71569245D01*
X228382596Y-71569245D01*
X228382599Y-71569247D01*
X228590060Y-71649618D01*
X228808757Y-71690500D01*
X228808759Y-71690500D01*
X229031241Y-71690500D01*
X229031243Y-71690500D01*
X229249940Y-71649618D01*
X229457401Y-71569247D01*
X229646562Y-71452124D01*
X229810981Y-71302236D01*
X229945058Y-71124689D01*
X230044229Y-70925528D01*
X230070734Y-70832371D01*
X230108013Y-70773278D01*
X230171323Y-70743721D01*
X230240562Y-70753083D01*
X230293749Y-70798393D01*
X230309266Y-70832372D01*
X230335769Y-70925523D01*
X230335775Y-70925538D01*
X230434938Y-71124683D01*
X230434943Y-71124691D01*
X230569020Y-71302238D01*
X230733437Y-71452123D01*
X230733439Y-71452125D01*
X230922595Y-71569245D01*
X230922596Y-71569245D01*
X230922599Y-71569247D01*
X231130060Y-71649618D01*
X231348757Y-71690500D01*
X231348759Y-71690500D01*
X231571241Y-71690500D01*
X231571243Y-71690500D01*
X231789940Y-71649618D01*
X231997401Y-71569247D01*
X232186562Y-71452124D01*
X232350981Y-71302236D01*
X232485058Y-71124689D01*
X232584229Y-70925528D01*
X232610734Y-70832371D01*
X232648013Y-70773278D01*
X232711323Y-70743721D01*
X232780562Y-70753083D01*
X232833749Y-70798393D01*
X232849266Y-70832372D01*
X232875769Y-70925523D01*
X232875775Y-70925538D01*
X232974938Y-71124683D01*
X232974943Y-71124691D01*
X233109020Y-71302238D01*
X233273437Y-71452123D01*
X233273439Y-71452125D01*
X233462595Y-71569245D01*
X233462596Y-71569245D01*
X233462599Y-71569247D01*
X233670060Y-71649618D01*
X233888757Y-71690500D01*
X233888759Y-71690500D01*
X234111241Y-71690500D01*
X234111243Y-71690500D01*
X234329940Y-71649618D01*
X234537401Y-71569247D01*
X234726562Y-71452124D01*
X234890981Y-71302236D01*
X235025058Y-71124689D01*
X235124229Y-70925528D01*
X235185115Y-70711536D01*
X235205643Y-70490000D01*
X235185115Y-70268464D01*
X235124229Y-70054472D01*
X235113147Y-70032216D01*
X235025061Y-69855316D01*
X235025056Y-69855308D01*
X234890979Y-69677761D01*
X234726562Y-69527876D01*
X234726560Y-69527874D01*
X234537404Y-69410754D01*
X234537398Y-69410752D01*
X234329940Y-69330382D01*
X234111243Y-69289500D01*
X233888757Y-69289500D01*
X233670060Y-69330382D01*
X233546377Y-69378297D01*
X233462601Y-69410752D01*
X233462595Y-69410754D01*
X233273439Y-69527874D01*
X233273437Y-69527876D01*
X233109020Y-69677761D01*
X232974943Y-69855308D01*
X232974938Y-69855316D01*
X232875775Y-70054461D01*
X232875769Y-70054476D01*
X232849266Y-70147627D01*
X232811987Y-70206721D01*
X232748677Y-70236278D01*
X232679438Y-70226916D01*
X232626251Y-70181606D01*
X232610734Y-70147627D01*
X232584230Y-70054476D01*
X232584229Y-70054472D01*
X232573147Y-70032216D01*
X232485061Y-69855316D01*
X232485056Y-69855308D01*
X232350979Y-69677761D01*
X232186562Y-69527876D01*
X232186560Y-69527874D01*
X231997404Y-69410754D01*
X231997398Y-69410752D01*
X231789940Y-69330382D01*
X231571243Y-69289500D01*
X231348757Y-69289500D01*
X231180998Y-69320860D01*
X231111483Y-69313829D01*
X231070532Y-69286652D01*
X230523367Y-68739487D01*
X230523365Y-68739485D01*
X230457750Y-68701602D01*
X230392136Y-68663719D01*
X230318950Y-68644109D01*
X230245766Y-68624500D01*
X230245765Y-68624500D01*
X227640172Y-68624500D01*
X227573133Y-68604815D01*
X227527378Y-68552011D01*
X227516952Y-68486617D01*
X227530091Y-68370003D01*
X227530091Y-68369996D01*
X227511787Y-68207544D01*
X227511786Y-68207542D01*
X227511786Y-68207539D01*
X227457789Y-68053225D01*
X227370808Y-67914796D01*
X227255204Y-67799192D01*
X227196747Y-67762461D01*
X227116774Y-67712210D01*
X227011861Y-67675500D01*
X226962461Y-67658214D01*
X226937540Y-67655405D01*
X226873128Y-67628337D01*
X226863747Y-67619867D01*
X225533367Y-66289487D01*
X225533365Y-66289485D01*
X225428935Y-66229192D01*
X225402136Y-66213719D01*
X225285559Y-66182483D01*
X225255766Y-66174500D01*
X225255765Y-66174500D01*
X212138742Y-66174500D01*
X212071703Y-66154815D01*
X212025948Y-66102011D01*
X212016004Y-66032853D01*
X212045029Y-65969297D01*
X212051061Y-65962819D01*
X219502061Y-58511819D01*
X219563384Y-58478334D01*
X219589742Y-58475500D01*
X231425764Y-58475500D01*
X231425766Y-58475500D01*
X231572135Y-58436281D01*
X231703365Y-58360515D01*
X233610533Y-56453345D01*
X233671854Y-56419862D01*
X233720992Y-56419139D01*
X233888757Y-56450500D01*
X233888760Y-56450500D01*
X234111241Y-56450500D01*
X234111243Y-56450500D01*
X234329940Y-56409618D01*
X234537401Y-56329247D01*
X234726562Y-56212124D01*
X234890981Y-56062236D01*
X235025058Y-55884689D01*
X235124229Y-55685528D01*
X235185115Y-55471536D01*
X235205643Y-55250000D01*
X235185115Y-55028464D01*
X235124229Y-54814472D01*
X235030132Y-54625500D01*
X235025061Y-54615316D01*
X235025056Y-54615308D01*
X234890979Y-54437761D01*
X234726562Y-54287876D01*
X234726560Y-54287874D01*
X234537404Y-54170754D01*
X234537398Y-54170752D01*
X234329940Y-54090382D01*
X234111243Y-54049500D01*
X233888757Y-54049500D01*
X233670060Y-54090382D01*
X233569529Y-54129328D01*
X233462601Y-54170752D01*
X233462595Y-54170754D01*
X233273439Y-54287874D01*
X233273437Y-54287876D01*
X233109020Y-54437761D01*
X232974943Y-54615308D01*
X232974938Y-54615316D01*
X232875775Y-54814461D01*
X232875769Y-54814476D01*
X232849266Y-54907627D01*
X232811987Y-54966721D01*
X232748677Y-54996278D01*
X232679438Y-54986916D01*
X232626251Y-54941606D01*
X232610734Y-54907627D01*
X232584230Y-54814476D01*
X232584229Y-54814472D01*
X232490132Y-54625500D01*
X232485061Y-54615316D01*
X232485056Y-54615308D01*
X232350979Y-54437761D01*
X232186562Y-54287876D01*
X232186560Y-54287874D01*
X231997404Y-54170754D01*
X231997398Y-54170752D01*
X231789940Y-54090382D01*
X231571243Y-54049500D01*
X231348757Y-54049500D01*
X231130060Y-54090382D01*
X231029529Y-54129328D01*
X230922601Y-54170752D01*
X230922595Y-54170754D01*
X230733439Y-54287874D01*
X230733437Y-54287876D01*
X230569020Y-54437761D01*
X230434943Y-54615308D01*
X230434938Y-54615316D01*
X230335775Y-54814461D01*
X230335769Y-54814476D01*
X230309266Y-54907627D01*
X230271987Y-54966721D01*
X230208677Y-54996278D01*
X230139438Y-54986916D01*
X230086251Y-54941606D01*
X230070734Y-54907627D01*
X230044230Y-54814476D01*
X230044229Y-54814472D01*
X229950132Y-54625500D01*
X229945061Y-54615316D01*
X229945056Y-54615308D01*
X229810979Y-54437761D01*
X229646562Y-54287876D01*
X229646560Y-54287874D01*
X229457404Y-54170754D01*
X229457398Y-54170752D01*
X229249940Y-54090382D01*
X229031243Y-54049500D01*
X228808757Y-54049500D01*
X228590060Y-54090382D01*
X228489529Y-54129328D01*
X228382601Y-54170752D01*
X228382595Y-54170754D01*
X228193439Y-54287874D01*
X228193437Y-54287876D01*
X228029020Y-54437761D01*
X227894943Y-54615308D01*
X227894938Y-54615316D01*
X227795775Y-54814461D01*
X227795769Y-54814476D01*
X227769266Y-54907627D01*
X227731987Y-54966721D01*
X227668677Y-54996278D01*
X227599438Y-54986916D01*
X227546251Y-54941606D01*
X227530734Y-54907627D01*
X227504230Y-54814476D01*
X227504229Y-54814472D01*
X227410132Y-54625500D01*
X227405061Y-54615316D01*
X227405056Y-54615308D01*
X227270979Y-54437761D01*
X227106562Y-54287876D01*
X227106560Y-54287874D01*
X226917404Y-54170754D01*
X226917398Y-54170752D01*
X226709940Y-54090382D01*
X226491243Y-54049500D01*
X226268757Y-54049500D01*
X226050060Y-54090382D01*
X225949529Y-54129328D01*
X225842601Y-54170752D01*
X225842595Y-54170754D01*
X225653439Y-54287874D01*
X225653437Y-54287876D01*
X225489020Y-54437761D01*
X225354943Y-54615308D01*
X225354938Y-54615316D01*
X225255775Y-54814461D01*
X225255769Y-54814476D01*
X225229266Y-54907627D01*
X225191987Y-54966721D01*
X225128677Y-54996278D01*
X225059438Y-54986916D01*
X225006251Y-54941606D01*
X224990734Y-54907627D01*
X224964230Y-54814476D01*
X224964229Y-54814472D01*
X224870132Y-54625500D01*
X224865061Y-54615316D01*
X224865056Y-54615308D01*
X224730979Y-54437761D01*
X224566562Y-54287876D01*
X224566560Y-54287874D01*
X224377404Y-54170754D01*
X224377398Y-54170752D01*
X224169940Y-54090382D01*
X223951243Y-54049500D01*
X223728757Y-54049500D01*
X223510060Y-54090382D01*
X223409529Y-54129328D01*
X223302601Y-54170752D01*
X223302595Y-54170754D01*
X223113439Y-54287874D01*
X223113437Y-54287876D01*
X222949020Y-54437761D01*
X222814943Y-54615308D01*
X222814938Y-54615316D01*
X222715775Y-54814461D01*
X222715769Y-54814476D01*
X222689266Y-54907627D01*
X222651987Y-54966721D01*
X222588677Y-54996278D01*
X222519438Y-54986916D01*
X222466251Y-54941606D01*
X222450734Y-54907627D01*
X222424230Y-54814476D01*
X222424229Y-54814472D01*
X222330132Y-54625500D01*
X222325061Y-54615316D01*
X222325056Y-54615308D01*
X222190979Y-54437761D01*
X222026562Y-54287876D01*
X222026560Y-54287874D01*
X221837404Y-54170754D01*
X221837398Y-54170752D01*
X221629940Y-54090382D01*
X221411243Y-54049500D01*
X221188757Y-54049500D01*
X220970060Y-54090382D01*
X220869529Y-54129328D01*
X220762601Y-54170752D01*
X220762595Y-54170754D01*
X220573439Y-54287874D01*
X220573437Y-54287876D01*
X220409020Y-54437761D01*
X220274943Y-54615308D01*
X220274938Y-54615316D01*
X220175775Y-54814461D01*
X220175769Y-54814476D01*
X220114885Y-55028462D01*
X220114884Y-55028464D01*
X220094357Y-55249999D01*
X220094357Y-55250000D01*
X220114884Y-55471535D01*
X220114885Y-55471537D01*
X220174399Y-55680706D01*
X220173813Y-55750573D01*
X220135546Y-55809032D01*
X220087228Y-55834414D01*
X220041625Y-55846634D01*
X220041624Y-55846635D01*
X219977865Y-55863719D01*
X219977863Y-55863719D01*
X219977863Y-55863720D01*
X219846635Y-55939485D01*
X219846632Y-55939487D01*
X210397939Y-65388181D01*
X210336616Y-65421666D01*
X210310258Y-65424500D01*
X198430197Y-65424500D01*
X198363158Y-65404815D01*
X198317403Y-65352011D01*
X198313155Y-65341454D01*
X198311786Y-65337542D01*
X198311786Y-65337539D01*
X198257789Y-65183225D01*
X198170808Y-65044796D01*
X198055204Y-64929192D01*
X197916774Y-64842210D01*
X197762455Y-64788212D01*
X197600004Y-64769909D01*
X197599996Y-64769909D01*
X197437544Y-64788212D01*
X197283225Y-64842210D01*
X197182511Y-64905494D01*
X197116539Y-64924500D01*
X195749362Y-64924500D01*
X195602991Y-64963719D01*
X195471763Y-65039485D01*
X195471760Y-65039487D01*
X192583382Y-67927866D01*
X189709200Y-70802048D01*
X189653459Y-70857789D01*
X189598938Y-70912310D01*
X189598924Y-70912324D01*
X185960504Y-74550746D01*
X185899181Y-74584231D01*
X185872823Y-74587065D01*
X184761668Y-74587065D01*
X184674151Y-74610514D01*
X184674151Y-74610515D01*
X184615300Y-74626284D01*
X184615298Y-74626284D01*
X184615298Y-74626285D01*
X184484070Y-74702050D01*
X184484067Y-74702052D01*
X181587181Y-77598939D01*
X181525858Y-77632424D01*
X181456166Y-77627440D01*
X181400233Y-77585568D01*
X181375816Y-77520104D01*
X181375500Y-77511258D01*
X181375500Y-74489421D01*
X181395185Y-74422382D01*
X181433528Y-74384427D01*
X181455204Y-74370808D01*
X181570808Y-74255204D01*
X181584976Y-74232654D01*
X181637306Y-74186365D01*
X181706360Y-74175715D01*
X181730918Y-74181584D01*
X181837539Y-74218893D01*
X181837542Y-74218894D01*
X181999996Y-74237198D01*
X182000000Y-74237198D01*
X182000004Y-74237198D01*
X182162455Y-74218894D01*
X182162456Y-74218893D01*
X182162461Y-74218893D01*
X182316775Y-74164896D01*
X182455204Y-74077915D01*
X182570808Y-73962311D01*
X182657789Y-73823882D01*
X182711786Y-73669568D01*
X182714593Y-73644652D01*
X182741657Y-73580240D01*
X182750122Y-73570863D01*
X187810515Y-68510472D01*
X187813950Y-68504523D01*
X187886281Y-68379242D01*
X187925500Y-68232873D01*
X187925500Y-66699499D01*
X187945185Y-66632460D01*
X187997989Y-66586705D01*
X188049500Y-66575499D01*
X188147871Y-66575499D01*
X188147872Y-66575499D01*
X188207483Y-66569091D01*
X188342331Y-66518796D01*
X188457546Y-66432546D01*
X188543796Y-66317331D01*
X188594091Y-66182483D01*
X188600500Y-66122873D01*
X188600499Y-65027128D01*
X188594091Y-64967517D01*
X188594090Y-64967515D01*
X188594090Y-64967512D01*
X188592308Y-64959969D01*
X188593773Y-64959622D01*
X188589409Y-64898651D01*
X188593819Y-64883633D01*
X188594089Y-64882488D01*
X188594091Y-64882483D01*
X188600500Y-64822873D01*
X188600499Y-63727128D01*
X188594091Y-63667517D01*
X188543796Y-63532669D01*
X188543795Y-63532668D01*
X188543793Y-63532664D01*
X188457547Y-63417455D01*
X188457544Y-63417452D01*
X188342335Y-63331206D01*
X188342328Y-63331202D01*
X188207482Y-63280908D01*
X188207483Y-63280908D01*
X188147883Y-63274501D01*
X188147881Y-63274500D01*
X188147873Y-63274500D01*
X188147865Y-63274500D01*
X187764742Y-63274500D01*
X187697703Y-63254815D01*
X187677061Y-63238181D01*
X187628654Y-63189774D01*
X187595169Y-63128451D01*
X187600153Y-63058759D01*
X187605322Y-63048320D01*
X187604766Y-63048052D01*
X187607782Y-63041784D01*
X187607789Y-63041775D01*
X187661786Y-62887461D01*
X187661786Y-62887459D01*
X187661787Y-62887457D01*
X187680091Y-62725003D01*
X187680091Y-62724996D01*
X187661787Y-62562544D01*
X187661786Y-62562542D01*
X187661786Y-62562539D01*
X187607789Y-62408225D01*
X187520808Y-62269796D01*
X187405204Y-62154192D01*
X187304148Y-62090694D01*
X187266774Y-62067210D01*
X187112455Y-62013212D01*
X186950004Y-61994909D01*
X186949996Y-61994909D01*
X186787544Y-62013212D01*
X186633225Y-62067210D01*
X186494795Y-62154192D01*
X186379192Y-62269795D01*
X186379190Y-62269798D01*
X186357895Y-62303689D01*
X186305560Y-62349980D01*
X186236507Y-62360627D01*
X186186929Y-62342709D01*
X186066776Y-62267211D01*
X185912455Y-62213212D01*
X185750004Y-62194909D01*
X185749996Y-62194909D01*
X185587544Y-62213212D01*
X185433225Y-62267210D01*
X185294795Y-62354192D01*
X185237681Y-62411307D01*
X185176358Y-62444792D01*
X185106666Y-62439808D01*
X185062319Y-62411307D01*
X185005204Y-62354192D01*
X184866774Y-62267210D01*
X184712455Y-62213212D01*
X184550004Y-62194909D01*
X184549996Y-62194909D01*
X184387544Y-62213212D01*
X184233223Y-62267211D01*
X184195595Y-62290854D01*
X184128358Y-62309853D01*
X184061523Y-62289484D01*
X184016310Y-62236216D01*
X184012583Y-62226813D01*
X184001419Y-62194909D01*
X183982227Y-62140060D01*
X183895246Y-62001631D01*
X183779642Y-61886027D01*
X183641212Y-61799045D01*
X183486893Y-61745047D01*
X183324442Y-61726744D01*
X183324434Y-61726744D01*
X183161982Y-61745047D01*
X183007663Y-61799045D01*
X182869230Y-61886029D01*
X182837828Y-61917431D01*
X182776504Y-61950916D01*
X182709194Y-61946791D01*
X182612038Y-61912795D01*
X182449587Y-61894492D01*
X182449579Y-61894492D01*
X182287127Y-61912795D01*
X182132805Y-61966794D01*
X182068323Y-62007311D01*
X182001086Y-62026311D01*
X181934251Y-62005943D01*
X181894964Y-61964316D01*
X181882532Y-61942783D01*
X181855533Y-61912797D01*
X181755871Y-61802112D01*
X181751650Y-61799045D01*
X181602734Y-61690851D01*
X181602729Y-61690848D01*
X181429807Y-61613857D01*
X181429802Y-61613855D01*
X181284001Y-61582865D01*
X181244646Y-61574500D01*
X181055354Y-61574500D01*
X180930680Y-61600999D01*
X180861014Y-61595683D01*
X180805281Y-61553545D01*
X180799907Y-61545681D01*
X180720807Y-61419795D01*
X180605204Y-61304192D01*
X180466774Y-61217210D01*
X180312455Y-61163212D01*
X180150004Y-61144909D01*
X180149996Y-61144909D01*
X179987544Y-61163212D01*
X179833222Y-61217211D01*
X179825679Y-61221951D01*
X179758442Y-61240949D01*
X179691607Y-61220579D01*
X179646395Y-61167309D01*
X179642675Y-61157923D01*
X179624376Y-61105630D01*
X179607790Y-61058226D01*
X179520807Y-60919795D01*
X179405204Y-60804192D01*
X179266774Y-60717210D01*
X179112455Y-60663212D01*
X178950004Y-60644909D01*
X178949996Y-60644909D01*
X178787543Y-60663212D01*
X178723215Y-60685721D01*
X178653436Y-60689282D01*
X178592809Y-60654552D01*
X178577269Y-60634651D01*
X178520812Y-60544801D01*
X178520807Y-60544795D01*
X178405204Y-60429192D01*
X178266774Y-60342210D01*
X178112455Y-60288212D01*
X177950004Y-60269909D01*
X177949996Y-60269909D01*
X177787544Y-60288212D01*
X177633225Y-60342210D01*
X177532511Y-60405494D01*
X177466539Y-60424500D01*
X174576747Y-60424500D01*
X174430376Y-60463719D01*
X174299148Y-60539485D01*
X174299145Y-60539487D01*
X172747939Y-62090694D01*
X172686616Y-62124179D01*
X172660258Y-62127013D01*
X168046720Y-62127013D01*
X167945286Y-62154191D01*
X167945286Y-62154192D01*
X167900352Y-62166232D01*
X167900350Y-62166232D01*
X167900350Y-62166233D01*
X167769122Y-62241998D01*
X167769119Y-62242000D01*
X166772937Y-63238181D01*
X166711614Y-63271666D01*
X166685256Y-63274500D01*
X165752129Y-63274500D01*
X165752123Y-63274501D01*
X165692516Y-63280908D01*
X165557671Y-63331202D01*
X165557664Y-63331206D01*
X165442455Y-63417452D01*
X165442452Y-63417455D01*
X165356206Y-63532664D01*
X165356202Y-63532671D01*
X165305908Y-63667517D01*
X165299501Y-63727116D01*
X165299501Y-63727123D01*
X165299500Y-63727135D01*
X165299500Y-64822870D01*
X165299501Y-64822876D01*
X165305908Y-64882479D01*
X165307692Y-64890026D01*
X165306229Y-64890371D01*
X165310585Y-64951371D01*
X165306173Y-64966396D01*
X165305908Y-64967517D01*
X165300553Y-65017331D01*
X165299501Y-65027123D01*
X165299500Y-65027135D01*
X165299500Y-65586258D01*
X165279815Y-65653297D01*
X165227011Y-65699052D01*
X165157853Y-65708996D01*
X165094297Y-65679971D01*
X165087819Y-65673939D01*
X163211819Y-63797939D01*
X163178334Y-63736616D01*
X163175500Y-63710258D01*
X163175500Y-58471465D01*
X163869200Y-58471465D01*
X163869200Y-58608534D01*
X163895937Y-58742949D01*
X163895940Y-58742961D01*
X163948386Y-58869578D01*
X163948393Y-58869591D01*
X164024536Y-58983546D01*
X164024539Y-58983550D01*
X164121449Y-59080460D01*
X164121453Y-59080463D01*
X164235408Y-59156606D01*
X164235421Y-59156613D01*
X164362038Y-59209059D01*
X164362043Y-59209061D01*
X164496465Y-59235799D01*
X164496469Y-59235800D01*
X164496470Y-59235800D01*
X164633531Y-59235800D01*
X164633532Y-59235799D01*
X164767957Y-59209061D01*
X164894585Y-59156610D01*
X165008547Y-59080463D01*
X165105463Y-58983547D01*
X165181610Y-58869585D01*
X165234061Y-58742957D01*
X165260800Y-58608530D01*
X165260800Y-58471470D01*
X165234061Y-58337043D01*
X165234059Y-58337038D01*
X165181613Y-58210421D01*
X165181606Y-58210408D01*
X165105463Y-58096453D01*
X165105460Y-58096449D01*
X165008550Y-57999539D01*
X165008546Y-57999536D01*
X164894591Y-57923393D01*
X164894578Y-57923386D01*
X164767961Y-57870940D01*
X164767949Y-57870937D01*
X164633534Y-57844200D01*
X164633530Y-57844200D01*
X164496470Y-57844200D01*
X164496465Y-57844200D01*
X164362050Y-57870937D01*
X164362038Y-57870940D01*
X164235421Y-57923386D01*
X164235408Y-57923393D01*
X164121453Y-57999536D01*
X164121449Y-57999539D01*
X164024539Y-58096449D01*
X164024536Y-58096453D01*
X163948393Y-58210408D01*
X163948386Y-58210421D01*
X163895940Y-58337038D01*
X163895937Y-58337050D01*
X163869200Y-58471465D01*
X163175500Y-58471465D01*
X163175500Y-57883460D01*
X163194507Y-57817487D01*
X163257786Y-57716779D01*
X163257789Y-57716775D01*
X163311786Y-57562461D01*
X163311786Y-57562459D01*
X163311787Y-57562457D01*
X163330091Y-57400003D01*
X163330091Y-57399996D01*
X163311787Y-57237544D01*
X163311786Y-57237542D01*
X163311786Y-57237539D01*
X163257789Y-57083225D01*
X163170808Y-56944796D01*
X163055204Y-56829192D01*
X162916773Y-56742209D01*
X162899065Y-56736013D01*
X162842289Y-56695291D01*
X162816543Y-56630338D01*
X162830000Y-56561776D01*
X162835028Y-56552999D01*
X162839745Y-56545491D01*
X162857789Y-56516775D01*
X162911786Y-56362461D01*
X162911787Y-56362455D01*
X162930091Y-56200003D01*
X162930091Y-56199996D01*
X162911787Y-56037544D01*
X162911786Y-56037542D01*
X162911786Y-56037539D01*
X162857789Y-55883225D01*
X162770808Y-55744796D01*
X162655204Y-55629192D01*
X162516775Y-55542211D01*
X162362461Y-55488214D01*
X162362459Y-55488213D01*
X162358545Y-55486844D01*
X162301769Y-55446122D01*
X162276022Y-55381169D01*
X162275500Y-55369802D01*
X162275500Y-52899500D01*
X162295185Y-52832461D01*
X162347989Y-52786706D01*
X162399500Y-52775500D01*
X162950127Y-52775500D01*
X163017166Y-52795185D01*
X163062921Y-52847989D01*
X163072865Y-52917147D01*
X163043840Y-52980703D01*
X163037808Y-52987181D01*
X163008539Y-53016449D01*
X163008536Y-53016453D01*
X162932393Y-53130408D01*
X162932386Y-53130421D01*
X162879940Y-53257038D01*
X162879937Y-53257050D01*
X162853200Y-53391465D01*
X162853200Y-53528534D01*
X162879937Y-53662949D01*
X162879940Y-53662961D01*
X162932386Y-53789578D01*
X162932393Y-53789591D01*
X163008536Y-53903546D01*
X163008539Y-53903550D01*
X163105449Y-54000460D01*
X163105453Y-54000463D01*
X163219408Y-54076606D01*
X163219421Y-54076613D01*
X163346038Y-54129059D01*
X163346043Y-54129061D01*
X163480465Y-54155799D01*
X163480469Y-54155800D01*
X163480470Y-54155800D01*
X163617531Y-54155800D01*
X163617532Y-54155799D01*
X163751957Y-54129061D01*
X163878585Y-54076610D01*
X163992547Y-54000463D01*
X164089463Y-53903547D01*
X164165610Y-53789585D01*
X164218061Y-53662957D01*
X164244800Y-53528530D01*
X164244800Y-53391470D01*
X164218061Y-53257043D01*
X164204581Y-53224500D01*
X164165613Y-53130421D01*
X164165606Y-53130408D01*
X164089463Y-53016453D01*
X164089460Y-53016449D01*
X164060192Y-52987181D01*
X164026707Y-52925858D01*
X164031691Y-52856166D01*
X164073563Y-52800233D01*
X164139027Y-52775816D01*
X164147873Y-52775500D01*
X164982127Y-52775500D01*
X165049166Y-52795185D01*
X165094921Y-52847989D01*
X165104865Y-52917147D01*
X165075840Y-52980703D01*
X165069808Y-52987181D01*
X165040539Y-53016449D01*
X165040536Y-53016453D01*
X164964393Y-53130408D01*
X164964386Y-53130421D01*
X164911940Y-53257038D01*
X164911937Y-53257050D01*
X164885200Y-53391465D01*
X164885200Y-53528534D01*
X164911937Y-53662949D01*
X164911940Y-53662961D01*
X164964386Y-53789578D01*
X164964393Y-53789591D01*
X165040536Y-53903546D01*
X165040539Y-53903550D01*
X165137449Y-54000460D01*
X165137453Y-54000463D01*
X165251408Y-54076606D01*
X165251421Y-54076613D01*
X165378038Y-54129059D01*
X165378043Y-54129061D01*
X165512465Y-54155799D01*
X165512469Y-54155800D01*
X165512470Y-54155800D01*
X165649531Y-54155800D01*
X165649532Y-54155799D01*
X165783957Y-54129061D01*
X165910585Y-54076610D01*
X166024547Y-54000463D01*
X166121463Y-53903547D01*
X166197398Y-53789903D01*
X166251010Y-53745098D01*
X166320335Y-53736391D01*
X166383363Y-53766545D01*
X166420082Y-53825988D01*
X166424500Y-53858794D01*
X166424500Y-55316538D01*
X166405494Y-55382510D01*
X166342210Y-55483225D01*
X166288212Y-55637544D01*
X166269909Y-55799996D01*
X166269909Y-55800003D01*
X166288212Y-55962455D01*
X166342210Y-56116774D01*
X166429192Y-56255204D01*
X166544796Y-56370808D01*
X166683225Y-56457789D01*
X166837539Y-56511786D01*
X166837542Y-56511786D01*
X166837544Y-56511787D01*
X166999996Y-56530091D01*
X167000000Y-56530091D01*
X167000004Y-56530091D01*
X167162455Y-56511787D01*
X167162456Y-56511786D01*
X167162461Y-56511786D01*
X167316775Y-56457789D01*
X167455204Y-56370808D01*
X167570808Y-56255204D01*
X167657789Y-56116775D01*
X167711786Y-55962461D01*
X167720549Y-55884689D01*
X167730091Y-55800003D01*
X167730091Y-55799996D01*
X167711787Y-55637544D01*
X167711786Y-55637542D01*
X167711786Y-55637539D01*
X167657789Y-55483225D01*
X167634476Y-55446122D01*
X167594506Y-55382510D01*
X167575500Y-55316538D01*
X167575500Y-53993995D01*
X176449499Y-53993995D01*
X176476418Y-54129322D01*
X176476421Y-54129332D01*
X176529221Y-54256804D01*
X176529228Y-54256817D01*
X176605885Y-54371541D01*
X176605888Y-54371545D01*
X176703454Y-54469111D01*
X176703458Y-54469114D01*
X176818182Y-54545771D01*
X176818195Y-54545778D01*
X176945667Y-54598578D01*
X176945672Y-54598580D01*
X176945676Y-54598580D01*
X176945677Y-54598581D01*
X177081004Y-54625500D01*
X177081007Y-54625500D01*
X177218995Y-54625500D01*
X177310041Y-54607389D01*
X177354328Y-54598580D01*
X177481811Y-54545775D01*
X177596542Y-54469114D01*
X177694114Y-54371542D01*
X177770775Y-54256811D01*
X177823580Y-54129328D01*
X177850500Y-53993995D01*
X184449499Y-53993995D01*
X184476418Y-54129322D01*
X184476421Y-54129332D01*
X184529221Y-54256804D01*
X184529228Y-54256817D01*
X184605885Y-54371541D01*
X184605888Y-54371545D01*
X184703454Y-54469111D01*
X184703458Y-54469114D01*
X184818182Y-54545771D01*
X184818195Y-54545778D01*
X184945667Y-54598578D01*
X184945672Y-54598580D01*
X184945676Y-54598580D01*
X184945677Y-54598581D01*
X185081004Y-54625500D01*
X185081007Y-54625500D01*
X185218995Y-54625500D01*
X185310041Y-54607389D01*
X185354328Y-54598580D01*
X185481811Y-54545775D01*
X185596542Y-54469114D01*
X185694114Y-54371542D01*
X185770775Y-54256811D01*
X185823580Y-54129328D01*
X185850500Y-53993993D01*
X185850500Y-53856007D01*
X185850500Y-53856004D01*
X185823581Y-53720677D01*
X185823580Y-53720676D01*
X185823580Y-53720672D01*
X185823578Y-53720667D01*
X185770778Y-53593195D01*
X185770771Y-53593182D01*
X185694114Y-53478458D01*
X185694111Y-53478454D01*
X185596545Y-53380888D01*
X185596541Y-53380885D01*
X185481817Y-53304228D01*
X185481804Y-53304221D01*
X185354332Y-53251421D01*
X185354322Y-53251418D01*
X185218995Y-53224500D01*
X185218993Y-53224500D01*
X185081007Y-53224500D01*
X185081005Y-53224500D01*
X184945677Y-53251418D01*
X184945667Y-53251421D01*
X184818195Y-53304221D01*
X184818182Y-53304228D01*
X184703458Y-53380885D01*
X184703454Y-53380888D01*
X184605888Y-53478454D01*
X184605885Y-53478458D01*
X184529228Y-53593182D01*
X184529221Y-53593195D01*
X184476421Y-53720667D01*
X184476418Y-53720677D01*
X184449500Y-53856004D01*
X184449500Y-53856007D01*
X184449500Y-53993993D01*
X184449500Y-53993995D01*
X184449499Y-53993995D01*
X177850500Y-53993995D01*
X177850500Y-53993993D01*
X177850500Y-53856007D01*
X177850500Y-53856004D01*
X177823581Y-53720677D01*
X177823580Y-53720676D01*
X177823580Y-53720672D01*
X177823578Y-53720667D01*
X177770778Y-53593195D01*
X177770771Y-53593182D01*
X177694114Y-53478458D01*
X177694111Y-53478454D01*
X177596545Y-53380888D01*
X177596541Y-53380885D01*
X177481817Y-53304228D01*
X177481804Y-53304221D01*
X177354332Y-53251421D01*
X177354322Y-53251418D01*
X177218995Y-53224500D01*
X177218993Y-53224500D01*
X177081007Y-53224500D01*
X177081005Y-53224500D01*
X176945677Y-53251418D01*
X176945667Y-53251421D01*
X176818195Y-53304221D01*
X176818182Y-53304228D01*
X176703458Y-53380885D01*
X176703454Y-53380888D01*
X176605888Y-53478454D01*
X176605885Y-53478458D01*
X176529228Y-53593182D01*
X176529221Y-53593195D01*
X176476421Y-53720667D01*
X176476418Y-53720677D01*
X176449500Y-53856004D01*
X176449500Y-53856007D01*
X176449500Y-53993993D01*
X176449500Y-53993995D01*
X176449499Y-53993995D01*
X167575500Y-53993995D01*
X167575500Y-52724236D01*
X167575500Y-52724234D01*
X167536281Y-52577865D01*
X167460515Y-52446635D01*
X167353365Y-52339485D01*
X166753365Y-51739485D01*
X166687750Y-51701602D01*
X166622136Y-51663719D01*
X166548950Y-51644109D01*
X166475766Y-51624500D01*
X162075766Y-51624500D01*
X161924233Y-51624500D01*
X161777863Y-51663719D01*
X161646635Y-51739485D01*
X161646632Y-51739487D01*
X161239487Y-52146632D01*
X161239485Y-52146635D01*
X161163719Y-52277863D01*
X161124500Y-52424234D01*
X158465463Y-52424234D01*
X158467598Y-52414880D01*
X158544450Y-52148119D01*
X158549040Y-52135006D01*
X158588606Y-52039485D01*
X158655268Y-51878545D01*
X158661290Y-51866039D01*
X158795574Y-51623072D01*
X158802969Y-51611304D01*
X158963605Y-51384908D01*
X158972260Y-51374054D01*
X159157245Y-51167057D01*
X159167057Y-51157245D01*
X159374054Y-50972260D01*
X159384908Y-50963605D01*
X159611309Y-50802965D01*
X159623072Y-50795574D01*
X159866039Y-50661290D01*
X159878545Y-50655268D01*
X160135006Y-50549039D01*
X160148119Y-50544450D01*
X160414880Y-50467598D01*
X160428412Y-50464510D01*
X160702092Y-50418009D01*
X160715891Y-50416455D01*
X160962054Y-50402630D01*
X160996529Y-50400695D01*
X161003481Y-50400500D01*
X161057583Y-50400500D01*
X246942417Y-50400500D01*
X246996519Y-50400500D01*
X247003471Y-50400695D01*
G37*
%TD.AperFunction*%
%TD*%
M02*
