%TF.GenerationSoftware,KiCad,Pcbnew,8.0.4*%
%TF.CreationDate,2024-08-28T18:13:50+02:00*%
%TF.ProjectId,Controller,436f6e74-726f-46c6-9c65-722e6b696361,v0*%
%TF.SameCoordinates,Original*%
%TF.FileFunction,Soldermask,Top*%
%TF.FilePolarity,Negative*%
%FSLAX46Y46*%
G04 Gerber Fmt 4.6, Leading zero omitted, Abs format (unit mm)*
G04 Created by KiCad (PCBNEW 8.0.4) date 2024-08-28 18:13:50*
%MOMM*%
%LPD*%
G01*
G04 APERTURE LIST*
G04 Aperture macros list*
%AMRoundRect*
0 Rectangle with rounded corners*
0 $1 Rounding radius*
0 $2 $3 $4 $5 $6 $7 $8 $9 X,Y pos of 4 corners*
0 Add a 4 corners polygon primitive as box body*
4,1,4,$2,$3,$4,$5,$6,$7,$8,$9,$2,$3,0*
0 Add four circle primitives for the rounded corners*
1,1,$1+$1,$2,$3*
1,1,$1+$1,$4,$5*
1,1,$1+$1,$6,$7*
1,1,$1+$1,$8,$9*
0 Add four rect primitives between the rounded corners*
20,1,$1+$1,$2,$3,$4,$5,0*
20,1,$1+$1,$4,$5,$6,$7,0*
20,1,$1+$1,$6,$7,$8,$9,0*
20,1,$1+$1,$8,$9,$2,$3,0*%
G04 Aperture macros list end*
%ADD10RoundRect,0.200000X-0.200000X-0.275000X0.200000X-0.275000X0.200000X0.275000X-0.200000X0.275000X0*%
%ADD11C,2.000000*%
%ADD12C,0.990600*%
%ADD13C,0.787400*%
%ADD14RoundRect,0.200000X-0.275000X0.200000X-0.275000X-0.200000X0.275000X-0.200000X0.275000X0.200000X0*%
%ADD15RoundRect,0.243750X0.456250X-0.243750X0.456250X0.243750X-0.456250X0.243750X-0.456250X-0.243750X0*%
%ADD16R,1.000000X0.750000*%
%ADD17RoundRect,0.225000X-0.225000X-0.250000X0.225000X-0.250000X0.225000X0.250000X-0.225000X0.250000X0*%
%ADD18RoundRect,0.225000X0.250000X-0.225000X0.250000X0.225000X-0.250000X0.225000X-0.250000X-0.225000X0*%
%ADD19R,2.000000X2.000000*%
%ADD20RoundRect,0.250000X0.312500X0.625000X-0.312500X0.625000X-0.312500X-0.625000X0.312500X-0.625000X0*%
%ADD21RoundRect,0.150000X-0.150000X0.825000X-0.150000X-0.825000X0.150000X-0.825000X0.150000X0.825000X0*%
%ADD22C,1.000000*%
%ADD23R,0.700000X1.600000*%
%ADD24R,1.200000X1.500000*%
%ADD25R,1.200000X2.200000*%
%ADD26R,1.600000X1.500000*%
%ADD27C,1.400000*%
%ADD28RoundRect,0.218750X0.256250X-0.218750X0.256250X0.218750X-0.256250X0.218750X-0.256250X-0.218750X0*%
%ADD29RoundRect,0.075000X0.075000X-0.700000X0.075000X0.700000X-0.075000X0.700000X-0.075000X-0.700000X0*%
%ADD30RoundRect,0.075000X0.700000X-0.075000X0.700000X0.075000X-0.700000X0.075000X-0.700000X-0.075000X0*%
%ADD31R,1.700000X1.700000*%
%ADD32O,1.700000X1.700000*%
G04 APERTURE END LIST*
D10*
%TO.C,R1*%
X176575000Y-84800000D03*
X178225000Y-84800000D03*
%TD*%
D11*
%TO.C,U7*%
X237190000Y-101920000D03*
X237190000Y-104460000D03*
X237190000Y-107000000D03*
X244810000Y-107000000D03*
X244810000Y-104460000D03*
X244810000Y-101920000D03*
%TD*%
D12*
%TO.C,J5*%
X164565000Y-58540000D03*
X163549000Y-53460000D03*
X165581000Y-53460000D03*
D13*
X165200000Y-57270000D03*
X163930000Y-57270000D03*
X165200000Y-56000000D03*
X163930000Y-56000000D03*
X165200000Y-54730000D03*
X163930000Y-54730000D03*
%TD*%
D14*
%TO.C,R3*%
X178550000Y-67850000D03*
X178550000Y-69500000D03*
%TD*%
%TO.C,R4*%
X176950000Y-67850000D03*
X176950000Y-69500000D03*
%TD*%
%TO.C,R8*%
X175350000Y-67850000D03*
X175350000Y-69500000D03*
%TD*%
D15*
%TO.C,D1*%
X183800000Y-92400000D03*
X183800000Y-90525000D03*
%TD*%
D16*
%TO.C,SW2*%
X169000000Y-85275000D03*
X163000000Y-85275000D03*
X169000000Y-81525000D03*
X163000000Y-81525000D03*
%TD*%
D17*
%TO.C,C6*%
X187025000Y-92200000D03*
X188575000Y-92200000D03*
%TD*%
D18*
%TO.C,C4*%
X178200000Y-87975000D03*
X178200000Y-86425000D03*
%TD*%
D14*
%TO.C,R10*%
X172950000Y-67850000D03*
X172950000Y-69500000D03*
%TD*%
D18*
%TO.C,C2*%
X194800000Y-78975000D03*
X194800000Y-77425000D03*
%TD*%
D19*
%TO.C,TP2*%
X197400000Y-106000000D03*
%TD*%
D20*
%TO.C,R16*%
X200262500Y-57200000D03*
X197337500Y-57200000D03*
%TD*%
D11*
%TO.C,U6*%
X224380000Y-101920000D03*
X224380000Y-104460000D03*
X224380000Y-107000000D03*
X232000000Y-107000000D03*
X232000000Y-104460000D03*
X232000000Y-101920000D03*
%TD*%
D14*
%TO.C,R13*%
X170800000Y-103975000D03*
X170800000Y-105625000D03*
%TD*%
D20*
%TO.C,R18*%
X201062500Y-88400000D03*
X198137500Y-88400000D03*
%TD*%
%TO.C,R19*%
X201062500Y-85200000D03*
X198137500Y-85200000D03*
%TD*%
D14*
%TO.C,R9*%
X181800000Y-93975000D03*
X181800000Y-95625000D03*
%TD*%
D21*
%TO.C,U8*%
X169105000Y-102325000D03*
X167835000Y-102325000D03*
X166565000Y-102325000D03*
X165295000Y-102325000D03*
X165295000Y-107275000D03*
X166565000Y-107275000D03*
X167835000Y-107275000D03*
X169105000Y-107275000D03*
%TD*%
D14*
%TO.C,R5*%
X183800000Y-93975000D03*
X183800000Y-95625000D03*
%TD*%
D20*
%TO.C,R20*%
X201062500Y-81800000D03*
X198137500Y-81800000D03*
%TD*%
D22*
%TO.C,J2*%
X185150000Y-53925000D03*
X177150000Y-53925000D03*
D23*
X177950000Y-64925000D03*
X179050000Y-64925000D03*
X180150000Y-64925000D03*
X181250000Y-64925000D03*
X182350000Y-64925000D03*
X183450000Y-64925000D03*
X184550000Y-64925000D03*
X185650000Y-64925000D03*
X186750000Y-64925000D03*
D24*
X187950000Y-63925000D03*
D25*
X187950000Y-54325000D03*
D26*
X173350000Y-63925000D03*
D25*
X172450000Y-54325000D03*
%TD*%
D18*
%TO.C,C1*%
X193300000Y-78975000D03*
X193300000Y-77425000D03*
%TD*%
D19*
%TO.C,TP3*%
X187600000Y-106000000D03*
%TD*%
D16*
%TO.C,SW1*%
X169000000Y-79675000D03*
X163000000Y-79675000D03*
X169000000Y-75925000D03*
X163000000Y-75925000D03*
%TD*%
D14*
%TO.C,R12*%
X169750000Y-67850000D03*
X169750000Y-69500000D03*
%TD*%
D20*
%TO.C,R15*%
X200262500Y-60490000D03*
X197337500Y-60490000D03*
%TD*%
D27*
%TO.C,U4*%
X221300000Y-92240000D03*
X223840000Y-92240000D03*
X226380000Y-92240000D03*
X228920000Y-92240000D03*
X231460000Y-92240000D03*
X234000000Y-92240000D03*
X234000000Y-77000000D03*
X231460000Y-77000000D03*
X228920000Y-77000000D03*
X226380000Y-77000000D03*
X223840000Y-77000000D03*
X221300000Y-77000000D03*
%TD*%
D20*
%TO.C,R17*%
X200262500Y-53910000D03*
X197337500Y-53910000D03*
%TD*%
D17*
%TO.C,C5*%
X187025000Y-90600000D03*
X188575000Y-90600000D03*
%TD*%
D14*
%TO.C,R11*%
X171350000Y-67850000D03*
X171350000Y-69500000D03*
%TD*%
D28*
%TO.C,D2*%
X181800000Y-92400000D03*
X181800000Y-90825000D03*
%TD*%
D10*
%TO.C,R14*%
X166175000Y-109600000D03*
X167825000Y-109600000D03*
%TD*%
D27*
%TO.C,U3*%
X221300000Y-70490000D03*
X223840000Y-70490000D03*
X226380000Y-70490000D03*
X228920000Y-70490000D03*
X231460000Y-70490000D03*
X234000000Y-70490000D03*
X234000000Y-55250000D03*
X231460000Y-55250000D03*
X228920000Y-55250000D03*
X226380000Y-55250000D03*
X223840000Y-55250000D03*
X221300000Y-55250000D03*
%TD*%
D29*
%TO.C,U1*%
X182050000Y-88325000D03*
X182550000Y-88325000D03*
X183050000Y-88325000D03*
X183550000Y-88325000D03*
X184050000Y-88325000D03*
X184550000Y-88325000D03*
X185050000Y-88325000D03*
X185550000Y-88325000D03*
X186050000Y-88325000D03*
X186550000Y-88325000D03*
X187050000Y-88325000D03*
X187550000Y-88325000D03*
X188050000Y-88325000D03*
X188550000Y-88325000D03*
X189050000Y-88325000D03*
X189550000Y-88325000D03*
D30*
X191475000Y-86400000D03*
X191475000Y-85900000D03*
X191475000Y-85400000D03*
X191475000Y-84900000D03*
X191475000Y-84400000D03*
X191475000Y-83900000D03*
X191475000Y-83400000D03*
X191475000Y-82900000D03*
X191475000Y-82400000D03*
X191475000Y-81900000D03*
X191475000Y-81400000D03*
X191475000Y-80900000D03*
X191475000Y-80400000D03*
X191475000Y-79900000D03*
X191475000Y-79400000D03*
X191475000Y-78900000D03*
D29*
X189550000Y-76975000D03*
X189050000Y-76975000D03*
X188550000Y-76975000D03*
X188050000Y-76975000D03*
X187550000Y-76975000D03*
X187050000Y-76975000D03*
X186550000Y-76975000D03*
X186050000Y-76975000D03*
X185550000Y-76975000D03*
X185050000Y-76975000D03*
X184550000Y-76975000D03*
X184050000Y-76975000D03*
X183550000Y-76975000D03*
X183050000Y-76975000D03*
X182550000Y-76975000D03*
X182050000Y-76975000D03*
D30*
X180125000Y-78900000D03*
X180125000Y-79400000D03*
X180125000Y-79900000D03*
X180125000Y-80400000D03*
X180125000Y-80900000D03*
X180125000Y-81400000D03*
X180125000Y-81900000D03*
X180125000Y-82400000D03*
X180125000Y-82900000D03*
X180125000Y-83400000D03*
X180125000Y-83900000D03*
X180125000Y-84400000D03*
X180125000Y-84900000D03*
X180125000Y-85400000D03*
X180125000Y-85900000D03*
X180125000Y-86400000D03*
%TD*%
D11*
%TO.C,U5*%
X211190000Y-101920000D03*
X211190000Y-104460000D03*
X211190000Y-107000000D03*
X218810000Y-107000000D03*
X218810000Y-104460000D03*
X218810000Y-101920000D03*
%TD*%
D31*
%TO.C,J4*%
X161600000Y-89720000D03*
D32*
X161600000Y-92260000D03*
X161600000Y-94800000D03*
X161600000Y-97340000D03*
%TD*%
D31*
%TO.C,J3*%
X161600000Y-102200000D03*
D32*
X161600000Y-104740000D03*
X161600000Y-107280000D03*
X161600000Y-109820000D03*
%TD*%
M02*
