M48
; DRILL file {KiCad 8.0.4} date 2024-08-28T18:13:52+0200
; FORMAT={-:-/ absolute / metric / decimal}
; #@! TF.CreationDate,2024-08-28T18:13:52+02:00
; #@! TF.GenerationSoftware,Kicad,Pcbnew,8.0.4
; #@! TF.FileFunction,Plated,1,2,PTH
FMAT,2
METRIC
; #@! TA.AperFunction,Plated,PTH,ViaDrill
T1C0.300
; #@! TA.AperFunction,Plated,PTH,ViaDrill
T2C0.400
; #@! TA.AperFunction,Plated,PTH,ComponentDrill
T3C0.800
; #@! TA.AperFunction,Plated,PTH,ComponentDrill
T4C1.000
%
G90
G05
T1
X162.2Y-56.2
X162.6Y-57.4
X166.0Y-95.2
X167.0Y-55.8
X169.75Y-66.9
X170.95Y-66.9
X172.75Y-66.7
X176.15Y-66.7
X177.95Y-61.0
X178.95Y-61.375
X179.2Y-77.2
X179.2Y-78.2
X179.6Y-73.2
X180.15Y-61.875
X180.35Y-66.8
X181.0Y-73.8
X181.4Y-79.8
X182.0Y-73.507
X182.45Y-62.625
X182.662Y-67.662
X183.2Y-78.4
X183.2Y-79.2
X183.324Y-62.457
X184.0Y-78.4
X184.55Y-62.925
X184.8Y-78.4
X185.0Y-83.2
X185.0Y-84.0
X185.0Y-86.0
X185.0Y-86.8
X185.05Y-85.2
X185.4Y-90.0
X185.6Y-78.2
X185.75Y-62.925
X186.4Y-78.4
X186.95Y-62.725
X187.0Y-79.0
X187.0Y-79.8
X187.6Y-78.4
X187.8Y-79.8
X188.6Y-79.8
X189.2Y-80.4
X189.6Y-85.6
X189.7Y-79.6
X190.0Y-84.8
X190.2Y-78.2
X192.8Y-82.2
X193.4Y-81.2
X193.6Y-82.2
X194.0Y-80.2
X194.2Y-81.2
X196.4Y-68.2
X197.0Y-67.6
X197.6Y-65.5
X211.2Y-96.3
X212.6Y-97.3
X217.8Y-92.6
X218.599Y-92.401
X218.8Y-97.2
X219.4Y-70.2
X219.6Y-90.8
X220.0Y-78.8
X221.2Y-99.4
X222.2Y-99.9
X222.8Y-68.2
X223.916Y-90.484
X224.4Y-97.2
X225.2Y-68.4
X226.4Y-57.4
X226.8Y-68.37
X230.0Y-97.2
X235.2Y-99.0
X237.2Y-97.6
T2
X163.6Y-99.6
X164.0Y-107.6
X164.4Y-72.6
X166.2Y-55.0
X168.6Y-58.2
X173.8Y-92.6
X174.15Y-69.5
X175.0Y-108.8
X175.4Y-100.0
X179.75Y-68.6
X180.8Y-57.8
X181.15Y-62.475
X185.4Y-72.8
X185.4Y-97.4
X191.8Y-60.4
X191.8Y-77.4
X193.4Y-74.2
X195.125Y-80.2
X195.4Y-94.8
X202.2Y-74.8
X203.8Y-88.2
X206.0Y-108.0
X207.0Y-93.8
X212.0Y-60.0
X214.4Y-85.4
X214.8Y-64.0
X228.0Y-108.4
X240.6Y-62.8
X241.2Y-81.6
T3
X211.19Y-101.92
X211.19Y-104.46
X211.19Y-107.0
X218.81Y-101.92
X218.81Y-104.46
X218.81Y-107.0
X221.3Y-55.25
X221.3Y-70.49
X221.3Y-77.0
X221.3Y-92.24
X223.84Y-55.25
X223.84Y-70.49
X223.84Y-77.0
X223.84Y-92.24
X224.38Y-101.92
X224.38Y-104.46
X224.38Y-107.0
X226.38Y-55.25
X226.38Y-70.49
X226.38Y-77.0
X226.38Y-92.24
X228.92Y-55.25
X228.92Y-70.49
X228.92Y-77.0
X228.92Y-92.24
X231.46Y-55.25
X231.46Y-70.49
X231.46Y-77.0
X231.46Y-92.24
X232.0Y-101.92
X232.0Y-104.46
X232.0Y-107.0
X234.0Y-55.25
X234.0Y-70.49
X234.0Y-77.0
X234.0Y-92.24
X237.19Y-101.92
X237.19Y-104.46
X237.19Y-107.0
X244.81Y-101.92
X244.81Y-104.46
X244.81Y-107.0
T4
X161.6Y-89.72
X161.6Y-92.26
X161.6Y-94.8
X161.6Y-97.34
X161.6Y-102.2
X161.6Y-104.74
X161.6Y-107.28
X161.6Y-109.82
X187.6Y-106.0
X197.4Y-106.0
M30
